<svg id="Layer_1" enable-background="new 0 0 512 512" height="512" viewBox="0 0 512 512" width="512" xmlns="http://www.w3.org/2000/svg" xmlns:xlink="http://www.w3.org/1999/xlink"><linearGradient id="SVGID_1_" gradientUnits="userSpaceOnUse" x1="301" x2="301" y1="512" y2="0"><stop offset="0" stop-color="#a93aff"/><stop offset="1" stop-color="#ff81ff"/></linearGradient><linearGradient id="SVGID_00000137104950594715957960000017264809427518557868_" gradientUnits="userSpaceOnUse" x1="228.5" x2="228.5" y1="512" y2="0"><stop offset="0" stop-color="#ffbef9"/><stop offset="1" stop-color="#fff1ff"/></linearGradient><g><path d="m446 512h-305v-512h305c8.284 0 15 6.716 15 15v482c0 8.284-6.716 15-15 15z" fill="url(#SVGID_1_)"/><path d="m245.393 136.577-19.393-19.394-19.393 19.393c-9.45 9.45-25.607 2.757-25.607-10.606v-124.97h90v124.97c0 13.363-16.157 20.056-25.607 10.607zm-139.393-136.577c-30.376 0-55 24.624-55 55v402c0 30.376 24.624 55 55 55h35v-512zm285 432h-180c-8.284 0-15-6.716-15-15v-100c0-8.284 6.716-15 15-15h180c8.284 0 15 6.716 15 15v100c0 8.284-6.716 15-15 15z" fill="url(#SVGID_00000137104950594715957960000017264809427518557868_)"/></g></svg>