<svg id="Layer_1" enable-background="new 0 0 512 512" height="512" viewBox="0 0 512 512" width="512" xmlns="http://www.w3.org/2000/svg" xmlns:xlink="http://www.w3.org/1999/xlink"><linearGradient id="SVGID_1_" gradientUnits="userSpaceOnUse" x1="246.821" x2="246.821" y1="512" y2="0"><stop offset="0" stop-color="#ffbef9"/><stop offset="1" stop-color="#fff1ff"/></linearGradient><linearGradient id="SVGID_00000161614719092066819060000000688662551502480789_" gradientUnits="userSpaceOnUse" x1="271.821" x2="271.821" y1="506" y2="67.707"><stop offset="0" stop-color="#a93aff"/><stop offset="1" stop-color="#ff81ff"/></linearGradient><g><path d="m419.311 256c6.656-6.846 12.84-13.708 18.482-20.547 35.193-42.66 46.107-80.82 30.73-107.453s-53.881-36.262-108.422-27.113c-8.743 1.467-17.778 3.391-27.035 5.732-2.601-9.187-5.452-17.974-8.553-26.279-19.348-51.808-46.939-80.34-77.692-80.34s-58.344 28.532-77.692 80.34c-3.102 8.305-5.952 17.092-8.553 26.279-9.257-2.341-18.292-4.266-27.035-5.732-54.542-9.149-93.046.48-108.423 27.113s-4.463 64.793 30.73 107.453c5.642 6.839 11.826 13.701 18.482 20.547-6.656 6.846-12.84 13.708-18.482 20.547-35.193 42.66-46.106 80.82-30.73 107.453s53.881 36.262 108.422 27.113c8.743-1.467 17.778-3.391 27.035-5.732 2.601 9.187 5.452 17.974 8.553 26.279 19.348 51.808 46.939 80.34 77.692 80.34s58.344-28.532 77.692-80.34c3.102-8.305 5.952-17.092 8.553-26.279 9.257 2.341 18.292 4.266 27.035 5.732 54.541 9.148 93.046-.48 108.422-27.113s4.463-64.793-30.73-107.453c-5.641-6.839-11.825-13.701-18.481-20.547zm-54.247-125.526c40.102-6.727 69.066-2.044 77.478 12.526s-2.014 41.995-27.891 73.361c-5.185 6.285-10.879 12.601-17.017 18.911-14.662-13.095-30.936-25.976-48.471-38.36-1.957-21.378-4.976-41.913-8.985-61.157 8.534-2.16 16.851-3.934 24.886-5.281zm-80.743 190.478c-12.485 7.208-25.026 13.89-37.5 20.011-12.474-6.121-25.015-12.803-37.5-20.011s-24.542-14.728-36.08-22.471c-.936-13.864-1.42-28.065-1.42-42.481s.484-28.618 1.42-42.481c11.538-7.743 23.595-15.263 36.08-22.471s25.026-13.89 37.5-20.011c12.474 6.121 25.015 12.803 37.5 20.011s24.542 14.728 36.08 22.471c.936 13.864 1.42 28.065 1.42 42.481s-.484 28.618-1.42 42.481c-11.539 7.743-23.596 15.263-36.08 22.471zm32.233 15.678c-1.454 10.7-3.201 21.088-5.23 31.094-9.68-3.246-19.549-6.927-29.543-11.018 5.855-3.15 11.706-6.406 17.539-9.774s11.578-6.806 17.234-10.302zm-104.694 20.076c-9.994 4.091-19.863 7.771-29.543 11.018-2.029-10.006-3.776-20.394-5.23-31.094 5.656 3.496 11.4 6.935 17.234 10.303s11.683 6.623 17.539 9.773zm-69.734-80.63c-8.539-6.609-16.662-13.316-24.313-20.076 7.651-6.76 15.774-13.467 24.313-20.076-.199 6.646-.305 13.34-.305 20.076s.106 13.43.305 20.076zm34.961-100.706c1.454-10.7 3.201-21.088 5.23-31.094 9.68 3.246 19.549 6.927 29.543 11.018-5.855 3.15-11.706 6.406-17.539 9.774s-11.578 6.806-17.234 10.302zm104.694-20.076c9.994-4.091 19.863-7.772 29.543-11.018 2.029 10.006 3.776 20.394 5.23 31.094-5.656-3.496-11.4-6.935-17.234-10.303s-11.683-6.623-17.539-9.773zm69.734 80.63c8.539 6.609 16.662 13.316 24.313 20.076-7.651 6.76-15.774 13.467-24.313 20.076.199-6.646.305-13.34.305-20.076s-.105-13.43-.305-20.076zm-154.282-145.089c14.226-38.093 32.763-60.835 49.588-60.835s35.362 22.742 49.587 60.835c2.85 7.633 5.473 15.722 7.869 24.192-18.671 6.15-37.964 13.803-57.456 22.797-19.492-8.994-38.785-16.647-57.456-22.797 2.395-8.47 5.018-16.559 7.868-24.192zm-146.134 52.165c8.412-14.571 37.376-19.253 77.478-12.526 8.036 1.348 16.352 3.122 24.885 5.281-4.009 19.245-7.028 39.78-8.985 61.157-17.535 12.383-33.809 25.265-48.471 38.36-6.137-6.31-11.832-12.626-17.017-18.911-25.876-31.366-36.302-58.79-27.89-73.361zm77.478 238.526c-40.102 6.727-69.066 2.044-77.478-12.526s2.014-41.995 27.891-73.361c5.185-6.285 10.879-12.601 17.017-18.911 14.662 13.095 30.936 25.976 48.471 38.36 1.957 21.378 4.976 41.912 8.985 61.157-8.534 2.16-16.85 3.934-24.886 5.281zm167.831 39.639c-14.226 38.093-32.763 60.835-49.587 60.835s-35.362-22.742-49.587-60.835c-2.85-7.633-5.473-15.722-7.869-24.192 18.671-6.15 37.964-13.803 57.456-22.797 19.492 8.994 38.785 16.647 57.456 22.797-2.396 8.47-5.019 16.559-7.869 24.192zm146.134-52.165c-8.412 14.571-37.376 19.253-77.478 12.526-8.036-1.348-16.352-3.122-24.885-5.281 4.009-19.245 7.028-39.78 8.985-61.157 17.535-12.383 33.809-25.265 48.471-38.36 6.137 6.31 11.832 12.626 17.017 18.911 25.876 31.366 36.303 58.79 27.89 73.361z" fill="url(#SVGID_1_)"/><path d="m246.821 301c-24.813 0-45-20.187-45-45s20.187-45 45-45 45 20.187 45 45-20.187 45-45 45zm-50 205c-22.056 0-40-17.944-40-40s17.944-40 40-40 40 17.944 40 40-17.944 40-40 40zm291.506-331.699c11.028 19.101 4.46 43.613-14.641 54.641s-43.613 4.46-54.641-14.641-4.46-43.613 14.641-54.641 43.613-4.46 54.641 14.641zm-433.013-86.602c11.028-19.101 35.54-25.669 54.641-14.641s25.669 35.54 14.641 54.641-35.54 25.669-54.641 14.641-25.669-35.54-14.641-54.641z" fill="url(#SVGID_00000161614719092066819060000000688662551502480789_)"/></g></svg>