<?xml version="1.0" encoding="UTF-8"?>
<svg id="Layer_1" data-name="Layer 1" xmlns="http://www.w3.org/2000/svg" viewBox="0 0 1600 600">
  <defs>
    <style>
      .cls-1 {
        fill: #33a0da;
      }

      .cls-2 {
        fill: #2aa4dd;
      }

      .cls-3 {
        fill: #d3edf7;
      }

      .cls-4 {
        fill: #279ad6;
      }

      .cls-5 {
        fill: #f6fbfd;
      }

      .cls-6 {
        fill: #34a1db;
      }

      .cls-7 {
        fill: #2ea0da;
      }

      .cls-8 {
        fill: #31a3dc;
      }

      .cls-9 {
        fill: #36a0da;
      }

      .cls-10 {
        fill: #37a5dd;
      }

      .cls-11 {
        fill: #2c97d4;
      }

      .cls-12 {
        fill: #2f9fd9;
      }

      .cls-13 {
        fill: #b3dff5;
      }

      .cls-14 {
        fill: #2a9ad6;
      }

      .cls-15 {
        fill: #42aee3;
      }
    </style>
  </defs>
  <path class="cls-11" d="M337.22,73.15h1.28c4.69,8.66,9.36,17.32,13.72,26.15,1.71,3.46,3.49,6.89,5.3,10.31,2.57,4.83,5.03,9.7,7.46,14.6,3.13,6.31,6.36,12.56,9.67,18.79,4.26,8.06,8.47,16.13,12.51,24.3,1.16,2.33,2.35,4.65,3.58,6.93.24.45.48.89.73,1.35.19.35.37.7.58,1.07,1.43,2.66,2.81,5.35,4.16,8.06.21.43.43.85.64,1.29.49.98.98,1.95,1.46,2.92,2.74,5.49,5.48,10.99,8.22,16.49.76,1.52,1.52,3.03,2.27,4.55,4.12,8.27,8.27,16.51,12.6,24.66.22.42.44.83.67,1.26.46.88.94,1.77,1.41,2.64.24.44.46.89.71,1.35.21.4.42.79.64,1.2.31.79.46,2.03.46,3.74h1.28c.24.58.46,1.14.71,1.74,1.57,3.65,3.4,7.19,5.17,10.75.4.8.8,1.61,1.22,2.42.87,1.74,1.74,3.46,2.6,5.2,1.38,2.75,2.76,5.51,4.14,8.27,3.18,6.36,6.36,12.71,9.55,19.07,2.91,5.81,5.82,11.6,8.72,17.42,1.14,2.29,2.29,4.56,3.43,6.85,4.4,8.75,8.75,17.51,12.94,26.35,3.43,7.22,7.02,14.35,10.6,21.49.74,1.5,1.5,3,2.26,4.5,1.75,3.51,3.51,7.02,5.27,10.53,1.98,3.96,3.96,7.93,5.96,11.89,2.78,5.54,5.55,11.08,8.32,16.61.96,1.93,1.93,3.84,2.88,5.76,1.1,2.2,2.2,4.4,3.31,6.59.46.92.92,1.83,1.38,2.75.21.4.4.8.61,1.22,1.5,3,2.93,6.03,4.35,9.06,2.2,4.7,4.55,9.31,7,13.89,2.36,4.41,4.6,8.88,6.82,13.37.64,1.31,1.31,2.61,1.97,3.92.22.44.44.88.68,1.35.42.83.83,1.65,1.26,2.48,1.12,2.22,2.17,4.46,3.17,6.73,2.03,4.46,4.23,8.84,6.44,13.22.76,1.5,1.52,3.01,2.27,4.52,2.15,4.28,4.31,8.56,6.46,12.84,1.32,2.63,2.65,5.27,3.98,7.89.5,1,1.01,2,1.52,3,.7,1.39,1.41,2.79,2.09,4.17.21.4.42.83.64,1.25.89,1.8,1.43,2.94,1.43,4.99H104.95c.92-2.75,1.81-5.06,3.1-7.62.36-.74.74-1.47,1.11-2.22.4-.79.8-1.59,1.2-2.38.42-.83.83-1.65,1.25-2.49,1.1-2.18,2.18-4.36,3.28-6.55s2.2-4.37,3.28-6.55c1.66-3.33,3.34-6.65,5-9.98,1.5-2.99,3-5.98,4.5-8.98,2.09-4.2,4.23-8.36,6.42-12.51,3.84-7.32,7.54-14.7,11.22-22.11.36-.74.73-1.46,1.1-2.22.36-.73.71-1.44,1.09-2.18,3.19-6.42,6.46-12.8,9.74-19.18,5.78-11.27,11.49-22.56,17.15-33.9l1.03-2.06c2.42-4.84,4.84-9.7,7.25-14.54,2.45-4.92,4.9-9.83,7.36-14.75.96-1.92,1.92-3.84,2.87-5.76,3.07-6.15,6.19-12.27,9.41-18.34,2.08-3.93,4.1-7.89,6.08-11.88.33-.65.65-1.32,1-2,1.03-2.07,2.06-4.14,3.09-6.21,4-8.05,8.01-16.09,12.22-24.03,2.05-3.87,4.03-7.78,5.97-11.7,2.2-4.46,4.46-8.89,6.79-13.28,3.36-6.36,6.64-12.76,9.89-19.17,1.68-3.28,3.35-6.58,5.03-9.86.33-.64.65-1.29,1-1.95,2.76-5.4,5.53-10.8,8.31-16.19.36-.7.73-1.41,1.11-2.14,1.61-3.1,3.24-6.19,4.93-9.25,1.83-3.34,3.53-6.73,5.22-10.14,2.3-4.65,4.65-9.27,7.05-13.84.25-.46.49-.93.74-1.41,1.32-2.5,2.67-4.99,4.04-7.47,2.17-3.98,4.25-8.02,6.31-12.05,1.13-2.2,2.26-4.4,3.39-6.59.22-.43.44-.86.67-1.31,1.96-3.8,3.95-7.61,5.96-11.39,1.38-2.6,2.75-5.22,4.11-7.84,3.12-6.03,6.27-12.01,9.55-17.96,3.03-5.51,5.94-11.08,8.81-16.66,3.57-6.94,7.22-13.8,11.08-20.58.24-.43.49-.85.74-1.29.6-1.07,1.22-2.12,1.81-3.17h.02v-.05Z"/>
  <path class="cls-5" d="M336.59,121.64c1.27.42,2.17,1.01,2.66,1.77.24.49.48.99.73,1.5.28.56.55,1.13.85,1.71.29.6.58,1.2.87,1.81.27.55.53,1.09.82,1.65,1.5,3.07,2.97,6.15,4.43,9.22,5.42,11.42,11.09,22.72,16.77,34.03,6.17,12.28,12.33,24.57,18.18,37.01.53,1.13,1.07,2.26,1.6,3.39.24.5.46,1,.71,1.5,2.18,4.65,4.44,9.24,6.74,13.81,1.31,2.63,2.5,5.27,3.62,7.98,1.78,4.26,3.88,8.3,6.08,12.36,1.53,2.83,2.92,5.67,4.2,8.63,1.19,2.7,2.49,5.36,3.76,8.02,2.41,5.04,4.78,10.08,7.1,15.15-2.12-.7-2.29-.95-3.46-2.72-4.55-6.27-11.51-15.61-19.5-17.08-6.3-.68-10.45,1.16-15.4,4.95-8.33,7.03-13.65,16.68-14.73,27.66-.74,11.54,1.96,23.62,9.7,32.48.42.51.83,1.02,1.26,1.54,9.89,11.62,21.97,14.44,36.38,16.96-1.62,1.25-3.04,2.2-4.95,2.96-16.81,7.31-31.25,19.59-38.6,36.67-5.88,14.94-6.27,31.43-.12,46.37,2.69,6.09,5.45,11.7,9.85,16.75.45.55.89,1.1,1.36,1.66,3.03,3.55,6.18,6.43,9.92,9.18.39.3.79.59,1.19.88,2.54,1.81,5.04,3.09,7.93,4.22v1.28c.7.16,1.39.31,2.12.48,2.82.7,5.5,1.68,8.22,2.72.59.21,1.17.42,1.79.64.64.24,1.29.46,1.96.71,3.39.94,6.89.73,10.36.69h2.08c6.21-.03,11.75-.25,17.51-2.67.82-.28,1.62-.55,2.44-.83,11.72-4.46,20.71-12.88,25.85-24.28,4.98-11.72,4.78-23.63,4.9-36.14,1.39,1.29,2.31,2.47,3.15,4.16.22.45.45.89.69,1.36.24.49.49.98.74,1.48.26.52.52,1.04.79,1.57.86,1.72,1.71,3.44,2.57,5.17.6,1.2,1.2,2.41,1.8,3.61,1.59,3.18,3.16,6.36,4.74,9.53,1.59,3.19,3.18,6.4,4.78,9.59,2.35,4.71,4.7,9.43,7.04,14.14,1.96,3.95,3.93,7.9,5.9,11.84.21.4.4.82.61,1.23,1.43,2.85,2.87,5.69,4.32,8.51.35.78.52,1.59.52,2.44H161.11c.96-2.87,1.79-5,2.49-6.4.24-.48.48-.95.71-1.44.26-.5.51-1.02.77-1.54l.83-1.65c.89-1.8,1.8-3.59,2.7-5.38.64-1.26,1.26-2.51,1.89-3.77,1.66-3.31,3.31-6.62,4.98-9.94,1.68-3.34,3.35-6.68,5.02-10.01,2.47-4.92,4.93-9.84,7.4-14.75,2.78-5.53,5.54-11.05,8.3-16.58.85-1.69,1.69-3.41,2.55-5.11h1.28c0,.76.02,1.5.02,2.29.03,2.83.09,5.67.13,8.51.02,1.22.03,2.45.06,3.67.04,6.36.82,12.6,2.33,18.73.25.7.5,1.41.74,2.14,5.22,12.46,13.44,21.88,26.05,27.22,2.11.79,4.2,1.39,6.39,1.92.49.13.98.26,1.48.4,8.6,1.96,20.24,2.23,28.5-1.16,1.31-.53,2.63-.95,3.98-1.37,2.94-.98,5.65-2.23,8.39-3.69.47-.25.94-.5,1.43-.76,4.11-2.26,7.65-4.92,11.09-8.09.45-.4.89-.79,1.36-1.2,7.5-7,13.13-17.03,15.88-26.87.17-.58.34-1.16.51-1.75,3.22-11.3,3.57-24.16-.51-35.26-.26-.79-.53-1.57-.79-2.36-6.48-18.34-21.64-30.13-38.59-38.43-1.95-.92-3.92-1.77-5.91-2.6v-.64c.73-.09,1.45-.18,2.2-.28,1.44-.07,2.41-.4,2.91-1,1.09-.21,2.17-.4,3.26-.58,11.69-1.92,23.04-6.71,30.19-16.5.33-.48.65-.95,1-1.44.28-.42.58-.83.87-1.26,6.71-10.2,9.27-22.61,7.17-34.69-2.32-10.05-7.5-19.04-16.25-24.71-4.83-2.92-9.86-3.26-15.4-2.51-2.36.86-3.93,2.12-5.74,3.83-.51.48-1.03.94-1.56,1.43-3.42,3.27-6.43,6.82-9.34,10.54-.82.96-1.86,1.87-3.13,2.72,1.19-4.22,2.93-7.84,5.07-11.64,1.22-2.17,2.23-4.34,3.12-6.65,1.26-3.19,2.7-6.24,4.26-9.3.27-.53.55-1.07.82-1.63.85-1.69,1.71-3.39,2.56-5.08.56-1.12,1.13-2.26,1.69-3.37,1.1-2.18,2.2-4.36,3.28-6.53.51-1.01,1.01-2,1.52-3.01.22-.45.45-.89.68-1.36,2.05-4.07,4.09-8.17,5.98-12.32,1.45-3.16,3-6.24,4.66-9.3,2.04-3.76,3.92-7.57,5.74-11.45,3.4-7.18,6.93-14.27,10.49-21.37.27-.55.55-1.09.83-1.64,1.32-2.64,2.65-5.27,3.96-7.92,1.93-3.86,3.88-7.74,5.79-11.6,1.63-3.27,3.27-6.53,4.9-9.8.74-1.48,1.48-2.96,2.22-4.44l10.25-20.49h0l.02-.04Z"/>
  <path class="cls-14" d="M336.59,138.23c1.27.42,2.17,1.01,2.66,1.77.24.49.48.98.71,1.48.27.55.55,1.11.83,1.69.3.61.58,1.22.88,1.84.31.64.61,1.26.93,1.92.98,2.04,1.97,4.09,2.96,6.12.64,1.32,1.29,2.66,1.93,3.98,3.04,6.27,6.05,12.56,9.03,18.85,2.24,4.74,4.55,9.43,6.91,14.11,2.17,4.29,4.26,8.61,6.37,12.94.22.47.45.94.69,1.43,4.71,9.68,9.18,19.46,13.6,29.29,1.17,2.6,2.35,5.18,3.52,7.77.21.48.43.95.65,1.44.19.42.37.83.58,1.26,1.11,2.51,1.88,5.04,2.61,7.68-.6.09-1.2.17-1.83.26-9.03,1.52-15.27,5.39-21.79,11.87-.4.37-.79.76-1.22,1.14-9.46,9.7-11.89,24.05-11.73,36.99.43,14.14,6.79,26.64,16.77,36.52,1.45,1.13,2.94,2.15,4.46,3.19v1.28h-35.73c0-9.52-.02-19.04-.03-28.57,0-5.12,0-10.25,0-15.37-.03-21.52.03-43.03.69-64.55,1.23.3,2.45.6,3.69.89.69.17,1.37.34,2.07.51,2.23.6,4.25,1.5,6.36,2.42,2.32.76,4.65,1.45,7,2.17,2.55.79,5.09,1.59,7.65,2.39.51.16,1.03.33,1.55.49,2.69.85,5.38,1.72,8.05,2.61-.18-.35-.36-.69-.55-1.05-2.3-4.52-4.4-9.12-6.46-13.75-7.78-17.27-16.18-34.24-24.7-51.17-1.2-2.38-2.39-4.77-3.58-7.16-.24-.46-.46-.94-.7-1.41-.44-.88-.88-1.77-1.31-2.66-.89-1.79-1.8-3.45-2.91-5.12-2.38,4.74-4.75,9.48-7.12,14.21-1.1,2.21-2.21,4.41-3.31,6.6-4.78,9.53-9.52,19.08-14.1,28.71-1.66,3.5-3.36,6.98-5.07,10.47-.27.56-.55,1.12-.83,1.69-1.11,2.26-2.22,4.54-3.33,6.8-.83,1.69-1.66,3.4-2.49,5.09-.25.51-.5,1.02-.76,1.54-1.16,2.36-2.26,4.7-3.18,7.17.36-.16.73-.31,1.1-.46,5.27-2.18,10.66-3.71,16.14-5.27,3.8-1.1,7.48-2.26,11.09-3.87,2.39-.86,4.92-1.31,7.4-1.87v108.48h-35.73v-1.28c.61-.49,1.35-1.02,2.2-1.6,10.35-7.59,16.51-20.42,18.62-32.9.42-3.27.45-6.52.44-9.82,0-.67.02-1.32.03-2.02,0-12.68-5.58-24.52-14.18-33.67-6.61-6.22-13.49-8.84-22.42-9.33.44-2.09,1.19-3.89,2.08-5.83.31-.67.62-1.34.94-2.03.34-.74.69-1.47,1.04-2.22.18-.39.35-.76.53-1.16,3.92-8.4,7.98-16.74,12.06-25.06.49-1.01.98-2,1.47-3.01.24-.49.48-.98.73-1.48,2.02-4.13,3.98-8.27,5.93-12.45,1.57-3.34,3.25-6.6,4.99-9.86,5.61-10.53,10.65-21.37,15.7-32.17,1.99-4.26,4.1-8.46,6.22-12.65,1.07-2.09,2.11-4.2,3.16-6.31h0,0Z"/>
  <path class="cls-4" d="M340.41,352h39.56c-2.74,3.19-4.92,5.53-6.55,7.02-11.98,11.9-19.08,30.24-19.32,46.92,0,.76,0,1.52,0,2.3v2.44c.12,6.98,1.22,13.25,3.5,19.83.16.44.31.89.46,1.35,6.12,17.26,17.42,30.66,33.36,39.49v.64c-4.47.18-8.94.31-13.41.39-1.52.03-3.03.08-4.55.15-9.74.39-16.36-.91-19.85-3.88-1.28-1.19-2.45-2.42-3.65-3.68-1.28-1.1-2.58-2.14-3.91-3.19-.55-.45-1.09-.89-1.64-1.36-.93-.8-1.87-1.45-2.82-1.96-.8-.76-1.31-1.77-1.52-3.03v-3.65c0-1.45,0-2.9.02-4.35v-3.12c0-2.82,0-5.64.03-8.46,0-2.94.02-5.88.02-8.84,0-5.58.03-11.17.06-16.74.03-6.36.04-12.7.06-19.06.02-13.07.07-26.14.12-39.2h0v-.02Z"/>
  <path class="cls-11" d="M293.19,352h38.93c.21,13.6.4,27.18.5,40.78.04,6.31.12,12.62.22,18.94.09,5.5.16,11.01.18,16.52,0,2.91.04,5.82.12,8.74.3,12.76-.72,20.55-3.04,23.36-1.92,1.75-3.92,2.94-6.28,4-2.17,1.04-4.01,2.52-5.92,3.95-2.31,1.6-3.93,2.39-4.9,2.39v1.28h-31.9c1.99-1.99,3.16-3.01,5.5-4.31,3.55-2.08,6.69-4.5,9.8-7.18.37-.33.76-.64,1.14-.98,10.11-9.39,16.25-22.75,19.27-36.03.12-.52.24-1.03.36-1.56,1-4.81,1.11-9.49,1.07-14.39,0-.76,0-1.53,0-2.31-.04-18.55-8.31-35.07-20.93-48.33-1.46-1.56-2.81-3.22-4.13-4.88h0Z"/>
  <path class="cls-11" d="M776.17,342.21h442.51v9.88h-442.51v-9.88h0Z"/>
  <path d="M564.37,265.75c-.33-.86-.64-1.69-.98-2.52-.58-1.5-1.16-2.99-1.74-4.48h-1.8c-1.05-7.09-3.31-13.53-5.9-20.19-.44-1.13-.88-2.26-1.31-3.39-2.21-5.78-4.47-11.51-6.86-17.21-1.22-2.91-2.42-5.82-3.5-8.79-1.02-2.92-2.05-5.84-3.07-8.76h-19.75c-1.23,3.3-2.5,6.59-3.61,9.94-1.32,4.17-2.69,8.23-4.52,12.21-.89,1.95-1.74,3.85-2.44,5.88-.83,2.61-1.63,5.21-2.72,7.74-2.56,5.49-4.78,11.11-6.98,16.75-.73,1.88-1.46,3.76-2.2,5.64-.49,1.25-.98,2.49-1.46,3.74-.24.6-.46,1.2-.69,1.79-1.53,3.93-2.66,7.54-3.22,11.72,1.88.03,3.76.07,5.65.09.79,0,1.55.02,2.31.02.79,0,1.53.03,2.29.04.74,0,1.47.02,2.2.02,1.35.02,2.6-.03,3.71-.17,2.26-2.26,3.19-4.22,4.48-7.18.92-3.35,1.81-6.61,2.69-9.88,9.77.31,19.25.6,28.72.89,1.21,4.23,2.4,8.42,3.59,12.57,2.39,2.39,4.19,3.73,5.4,4,.56-.03,1.19-.04,1.88-.06.69,0,1.37-.02,2.05-.03.73-.03,1.41-.06,2.12-.09,2.47-.06,4.93-.12,7.41-.22-.35-3.51-.74-6.67-1.77-10.04h.03ZM520.38,246.17c1.29-5.83,2.69-11.33,4.48-16.99.24-.76.46-1.53.71-2.31.22-.73.45-1.45.69-2.21.21-.65.4-1.31.62-1.98.44-1.1,1.26-2.23,2.45-3.42.4.4.73.76,1,1.11.08.09.15.19.21.28,1.17,1.52,1.61,2.97,2.35,5.15.31.95.64,1.9.96,2.88.33,1,.65,1.99,1,3.03.33.98.67,1.99,1.01,3,.31.95.64,1.9.96,2.88.28.87.58,1.75.87,2.64.42,1.57.64,3.55.64,5.94h-17.94,0Z"/>
  <path d="M662.19,221.03c-1.65,5.85-3.59,11.48-5.94,17.08-.31.74-.62,1.5-.94,2.26-1,2.39-1.99,4.77-2.99,7.14-.69,1.64-1.38,3.3-2.06,4.93-1.37,3.27-2.74,6.53-4.11,9.8-1.44,3.43-2.87,6.86-4.26,10.31-1.1,2.67-2.2,5.33-3.3,7.99-.39.94-.77,1.88-1.16,2.84-.35.85-.71,1.71-1.07,2.58-.3.73-.6,1.45-.91,2.2-1.26,2.33-2.61,3.86-4.66,5.56-.68.07-1.34.12-1.97.17-1.66.12-3.22.13-4.98.06-.62,0-1.26-.03-1.9-.04-1.54-.04-3.08-.1-4.61-.17.71-3.22,1.84-6.22,3.03-9.31.37-.98.76-1.98,1.14-2.99.8-1.97,1.74-3.85,2.76-5.63,2.12-5.03.13-9.74-1.81-14.56-.28-.67-.55-1.34-.85-2.03-.3-.71-.58-1.41-.87-2.15-.92-2.26-1.84-4.5-2.79-6.74-.61-1.5-1.23-3-1.84-4.5-1.99-4.86-4-9.7-6.12-14.51l-2.52-7.56h-1.8c0,.75.02,1.51.03,2.29,0,.98,0,1.97.02,2.98,0,.98.02,1.96.03,2.97,0,.24-.02.46-.04.69-.12,1.39-.42,2.61-.94,3.64-2.93.28-5.85.34-8.79.42-3.53.6-4.36,1.19-6.46,4.07-.55,2.66-.55,5.3-.55,8.01,0,.77-.03,1.54-.04,2.35-.04,2.45-.07,4.93-.08,7.38-.02,1.68-.06,3.34-.08,5.02-.07,4.09-.1,8.17-.15,12.27h-17.05v-54.8h11.66c2.39,2.39,3.59,4.79,3.59,7.18h1.8c.21-.52.4-1.04.62-1.57,1.54-2.64,3.12-3.91,5.66-5.6,4.31-.73,8.65-.55,13.01-.51,1.19-.02,2.38-.04,3.59-.07h6.6c3.74.74,4.97,2.08,7.31,5.05.89,1.8,1.69,3.68,2.4,5.65.4,1.07.79,2.14,1.19,3.24.39,1.11.79,2.21,1.19,3.35.4,1.12.83,2.26,1.23,3.37,1.98,5.48,2.97,9.25,2.97,11.32h1.8c.12-.77.22-1.55.34-2.35.94-5.13,2.74-9.95,4.43-14.88.35-1.07.7-2.13,1.07-3.22.35-1.02.7-2.04,1.05-3.09.31-.93.62-1.86.95-2.82,1.26-2.61,2.21-3.65,4.72-5.05,2.4-.19,4.57-.26,6.95-.17.62,0,1.26.02,1.9.03,1.54.03,3.07.08,4.61.13v-.02Z"/>
  <path d="M1110.28,244.27c-.46-6.61-3.08-12.17-7.93-16.72-7.08-5.69-13.6-6.98-22.59-6.68h0c-6.98.42-11.12,1.34-16.38,6.44-5.63,5.96-8.36,11.27-8.4,19.54,0,.71.03,1.39.03,2.07,0,.7-.03,1.38-.03,2.07.03,8.23,3.62,14.46,9.34,20.3,6.28,5.29,12.36,5.88,20.23,5.9,7.02-.21,12.48-2.61,17.47-7.69,6.94-7.57,8.41-15.15,8.27-25.23h0ZM1089.45,262.33c-3.8,2.54-7.2,2.38-11.67,1.8-3.52-2.26-5.31-5.85-6.28-9.88-.76-7.22-.44-12.74,3.59-18.85.13-.09.27-.18.4-.26.27-.17.55-.33.83-.48,3.57-1.88,7.14-1.69,11.33-1.07,2.6,1.98,3.94,3.4,5.39,6.28.16,2.61.25,5.18.28,7.8.02.71.06,1.41.08,2.15.06,5.22-.91,8.22-3.95,12.49v.02Z"/>
  <path d="M1262.67,197.7h16.16c.3,8.89.59,17.78.89,26.93l5.39-3.59c4.55-1.52,9.86-1.83,14.45-.25,5.4,2.96,10.26,7.6,12.09,13.6.4,2.04.5,3.87.49,5.94v2.4c0,.85,0,1.69,0,2.56v2.64c0,2.79,0,5.56-.02,8.35,0,1.89,0,3.77,0,5.66,0,4.62-.02,9.24-.04,13.86h-17.05c0-1.19-.02-2.38-.04-3.6-.06-4.4-.12-8.79-.19-13.18-.03-1.9-.06-3.8-.08-5.7-.03-2.73-.08-5.46-.12-8.2,0-.85,0-1.71-.02-2.6-.02-.79-.03-1.59-.06-2.4,0-.69-.02-1.4-.03-2.12-.15-1.39-1.17-2.56-3.04-3.51-1.28-.21-2.61-.31-3.98-.28-.68,0-1.37-.03-2.07-.04-2.76.44-3.7.92-5.61,3.03-.58,2.88-.55,5.76-.55,8.7,0,.85-.03,1.71-.04,2.58-.04,2.73-.07,5.45-.08,8.17-.02,1.84-.06,3.69-.08,5.54-.07,4.53-.12,9.06-.15,13.59h-16.16v-78.09.02h0Z"/>
  <path d="M1185.81,251.67c2.36.02,4.7.06,7.05.06h2.23c1.4.03,2.79.03,4.19.03,2.17-.13,3.85-.8,5.05-2,.61-3.64.48-7.11,0-10.77-2.35-7.17-5.81-12.61-12.57-16.16h0c-12.22-5.85-24.89-2.69-33.43,7.6-4.84,7-6.21,14.55-5.17,22.93,1.88,9.4,6.43,16.14,14.3,21.61,6.96,3.5,17.08,2.84,24.4.67,4.97-2.04,9.34-4.65,11.56-9.7-1.64-2.27-3.33-4.37-5.39-6.28-2.87-.68-4.43-.46-7.07.83-4.61,2.49-7.38,3.37-12.68,2.76-3.03-.98-4.14-2.07-5.67-4.84-.4-.83-.79-1.64-1.19-2.45-.71-1.46-1.41-2.91-2.12-4.37,3.91.04,7.81.07,11.72.09,1.6,0,3.18.02,4.78.02h0ZM1172.85,234.16c1.01-.55,1.99-.95,2.97-1.25.24-.08.48-.15.71-.21,2.55-.65,5.08-.58,8.05,0h0c1.87,1.32,3.35,2.8,4.47,4.49v4.48h-18.85c.6-3.59,1.47-6.1,2.64-7.52v.02Z"/>
  <path d="M851.36,225.36c-.83-.55-1.65-1.1-2.47-1.63v-.02c-10.61-7.46-25.42-4.09-35.01,3.59-.55,1.17-.83,2.36-.89,3.59,1.02,2.5,2.51,4.44,4.48,6.28,1.75.37,3.55.37,5.39,0,5.13-2.87,9.46-3.43,15.27-2.69,1.28,1.07,1.99,2.24,2.17,3.55.07.67.12,1.31.19,1.96.12,1.17.22,2.33.34,3.48-5.24-.17-10.29-.31-15.36,1.19-.33.12-.64.24-.98.36-.04.02-.1.03-.16.06-.02,0-.03.02-.06.02-5.87,2.22-10.89,5.14-13.99,10.94-.88,4.86-.5,9.16.95,13.86,2.36,3.12,4.34,5.35,8.03,6.79,6.06.65,12.95.94,18.37-2.17.73-.51,1.41-1,2.12-1.48.74-.51,1.44-1.01,2.15-1.5.55-.39,1.07-.77,1.61-1.14,0,1.2.33,2.44,1,3.69,1.13,1.13,2.57,1.81,4.31,2.05,1-.04,1.96-.08,2.93-.12,1.74-.06,3.49-.12,5.22-.22.07-4.89.13-9.79.17-14.69,0-2,.02-4.01.04-6.01.04-2.94.09-5.88.12-8.84,0-.95,0-1.88,0-2.81.03-1.75.06-3.5.06-5.26-.21-5.49-2.04-8.97-6.01-12.83h0ZM841.7,261.42c-2.93,3.08-5.47,3.8-9.59,3.98-2.45,0-3.5-.09-5.44-1.63-.76-.98-1.28-2.18-1.59-3.65.31-1.53,1.14-2.98,2.52-4.32,3.4-2.21,5.79-2.58,9.76-2.52h0c.8,0,1.62.02,2.45.03.61,0,1.23.02,1.87.03.31,2.76.44,5.33,0,8.08h0Z"/>
  <path d="M706.83,229.31c-.43-.52-.86-1.03-1.28-1.54-.43-.52-.83-1.03-1.25-1.54-4.6-4.25-8.31-5.61-14.45-5.55-.76.02-1.5.06-2.26.08h.02c-5.11.04-9.58,0-14.23,2.31-.82.46-1.6.93-2.38,1.38-1.61.92-3.04,1.87-4.32,2.87-.55,1.17-.85,2.38-.89,3.59,1.02,2.5,2.51,4.44,4.48,6.28,1.75.39,3.55.39,5.39,0,4.92-2.69,8.79-3.43,14.36-2.69,1.31.67,2.21,1.47,2.69,2.4v-.6h.88v7.89c0,.06,0,.12,0,.18h0c-1.65-.02-3.31-.04-4.96-.04-.69,0-1.37,0-2.04,0-1.26,0-2.51,0-3.77,0-1.19,0-2.38.02-3.58.06-.26.09-.52.18-.79.27h0c-2.17.76-4.22,1.59-6.12,2.61-3.01,1.6-5.69,3.65-8.08,6.55-2.26,4.36-1.99,9.17-1.16,13.9,2.12,4.25,4.59,7.11,8.98,8.98,8.67,1.16,15.65-.61,22.89-5.36.45-.31.91-.61,1.35-.92,0,1.8.33,3.21,1,4.2,1.13.79,2.57,1.28,4.31,1.45,1-.02,1.96-.06,2.93-.09,1.74-.04,3.48-.1,5.22-.17.04-4.84.07-9.67.09-14.51,0-1.98.02-3.95.02-5.92.02-2.91.06-5.82.06-8.73v-2.76c0-.92.02-1.8.02-2.69v-2.5c0-3.88-.91-6.24-3.13-9.39h0ZM693.6,261.42c-2.97,3.12-5.48,3.8-9.65,3.93-2.36-.03-4.23-.74-5.6-2.13-.27-1.72-.27-3.51,0-5.39.26-.27.52-.52.79-.76.16-.34.35-.64.56-.92.44-.33.88-.67,1.35-1.01l.36.18c3.6-2.23,7.25-2.07,12.19-1.98.31,2.76.44,5.33,0,8.08h0Z"/>
  <path d="M1412.81,221.54c4.43,2.54,7.69,6,9.7,10.69,1.12,4.22,1.07,8.17,1.02,12.53v2.69c0,2.83-.03,5.65-.06,8.48,0,1.93-.02,3.84-.02,5.76-.02,4.7-.04,9.4-.09,14.1h-16.16c0-1.16-.02-2.31-.04-3.5-.06-4.28-.12-8.56-.19-12.84-.03-1.86-.06-3.7-.08-5.56-.03-2.66-.08-5.32-.12-7.98,0-.83,0-1.66-.02-2.51-.02-.77-.03-1.54-.06-2.35,0-.68-.02-1.36-.03-2.06-.45-2.26-1.26-3.07-3.04-4.48-1.28-.29-2.61-.4-3.98-.34-.69,0-1.38,0-2.07-.02-2.76.49-3.7.94-5.61,3.04-.58,2.96-.55,5.9-.55,8.9,0,.87-.03,1.74-.04,2.65-.04,2.79-.07,5.58-.08,8.36-.02,1.89-.06,3.79-.08,5.67-.07,4.63-.12,9.27-.15,13.9-2.67.02-5.35.04-8.03.06-.76,0-1.53,0-2.31.02h-2.2c-.67,0-1.35,0-2.04,0-1.06-.07-1.88-.4-2.48-1-.08-1.71-.1-3.42-.1-5.13v-3.31c0-1.2,0-2.41,0-3.61v-3.68c0-3.24,0-6.46.02-9.7,0-3.3,0-6.59.02-9.89,0-6.48.02-12.94.04-19.42,2.04-.1,4.07-.17,6.12-.22,1.13-.04,2.26-.08,3.44-.12,2.01.23,3.6.92,4.77,2.05.63,1.26.94,2.49.94,3.69.55-.37,1.1-.76,1.68-1.14.73-.49,1.45-.98,2.2-1.5.71-.49,1.44-.98,2.17-1.48,5.22-3.26,11.94-3.27,17.51-.76h0Z"/>
  <path d="M1002.33,222.47c4.25,2.92,7.1,7,8.12,12.03.08,1.39.1,2.79.1,4.2v2.5c0,.88,0,1.77,0,2.69v2.76c0,2.91,0,5.82-.02,8.73,0,1.97,0,3.94,0,5.92,0,4.84-.02,9.67-.04,14.51h-16.16c0-1.19-.02-2.38-.04-3.6-.06-4.4-.12-8.79-.19-13.18-.03-1.9-.06-3.8-.08-5.7-.03-2.73-.08-5.46-.12-8.2,0-.85,0-1.71-.02-2.6-.02-.79-.03-1.59-.06-2.4,0-.69-.02-1.4-.03-2.12-.15-1.39-1.17-2.56-3.04-3.51-3.69-.3-6.03-.41-9.5.83-2.5,2.17-2.51,2.57-2.75,5.72-.03,1.62-.04,3.24-.04,4.86,0,.85-.02,1.71-.04,2.58-.03,2.73-.04,5.45-.06,8.17-.02,1.84-.04,3.69-.07,5.54-.06,4.53-.09,9.06-.1,13.59h-16.16v-53.85h12.57c1.2,1.2,1.8,2.69,1.8,4.48.55-.37,1.1-.76,1.68-1.14.73-.49,1.45-.98,2.2-1.5.71-.49,1.44-.98,2.17-1.48,6.12-3.82,13.69-2.94,19.94.17h-.02Z"/>
  <path d="M1053.53,221.03c.06,6.01.06,9.91,0,11.67-.3.3-.59.59-.89.89h-11.67v42.19h-16.16v-43.08h-6.28c-1.98-2.98-1.99-3.89-1.9-7.35,0-.8.03-1.62.04-2.45.02-.61.04-1.23.07-1.87h8.08c-.08-1.19-.15-2.36-.22-3.59.02-5.39,1.61-9.31,5.3-13.25,5.09-4.59,9.39-5.88,16.25-5.76h1.87c3.01.02,4.86.38,5.55,1.06.1,1.17.16,2.48.17,3.93,0,.71.02,1.41.03,2.15-.13,1.34-.8,2.9-2,4.69-3.64-.08-6.41-.13-9.58,1.86-1,1.46-1.38,4.38-1.19,8.75,0,.06,0,.1,0,.16h12.57-.02Z"/>
  <path d="M769.86,221.01c-.61,3.86-1.93,7.29-3.42,10.88-1.98,4.86-3.85,9.73-5.61,14.66-1.09,2.98-2.27,5.91-3.46,8.85-1.5,3.73-2.91,7.47-4.32,11.22-1.2,3.07-2.51,6.1-3.82,9.14h-16.16c-.82-2.33-1.64-4.69-2.47-7.07-2.33-6.62-4.79-13.17-7.56-19.63-3.91-9.15-7.03-18.49-9.71-28.06l.03.02c2.47-.12,4.93-.21,7.41-.28.7-.03,1.39-.08,2.12-.12.68,0,1.36-.03,2.05-.04.62-.02,1.25-.04,1.88-.07,2.85.8,3.79,2.58,5.4,4.99.69,1.62,1.31,3.3,1.86,5.03.31.96.61,1.92.92,2.9.31,1,.61,1.98.92,3.01.31.98.62,1.95.94,2.96,1.35,4.28,2.5,8.49,3.34,12.84l-.79-1.59c.31,2.14.6,4.22.89,6.28.92.31,1.81.6,2.69.89v-.25c.06-.96.1-1.95.16-2.94.65-5.87,2.6-11.36,4.47-16.92.62-1.86,1.23-3.71,1.83-5.58.4-1.19.79-2.36,1.19-3.55.35-1.07.71-2.14,1.07-3.24.74-1.69,2.02-3.15,3.8-4.35,2.48-.12,4.87-.17,7.35-.12.67,0,1.35,0,2.04.02,1.65.02,3.31.06,4.97.09h0Z"/>
  <path d="M1137.02,205.78v15.27h12.57v12.57h-12.57c.3,9.48.59,18.95.89,28.72h8.08c1.2.97,2.13,2.09,2.81,3.36.36.63.71,1.26,1.07,1.89.73,2.29.62,3.31-.28,5.51-5,4.29-10.09,4.02-16.5,4.07-4.52-.67-6.89-2.15-9.95-5.51-4.81-6.86-3.65-15.31-3.44-23.29.02-1.52.04-3.03.06-4.56.04-3.7.12-7.4.21-11.09-1.02.02-2.05.03-3.09.06-2.13-.04-3.5-.36-4.1-.95-.07-1.66-.08-3.33-.06-4.99,0-.91,0-1.81.02-2.75,0-.7.02-1.41.03-2.13,2.66-.3,5.33-.59,8.08-.89.16-.87.33-1.75.5-2.65.22-1.14.45-2.29.68-3.46.21-1.13.44-2.26.67-3.44,2.17-7.66,7.31-5.93,14.32-5.7h0v-.02Z"/>
  <path d="M901.17,271.01c-1.31,2.41-2.66,3.76-5.11,5.01-5.72,1.65-13.41,2.2-18.89-.4-.3-.25-.58-.49-.85-.74.12,0,.25,0,.39,0-1.69-2.51-3.49-4.84-5.39-7.18-.02.24-.03.46-.06.69-1.28-3.15-1.17-5.94-1.1-9.51,0-.74,0-1.5,0-2.27,0-2.39.04-4.78.08-7.16,0-1.62.02-3.25.03-4.87.03-3.98.08-7.93.13-11.9-1.02,0-2.05.03-3.09.06-2.13-.03-3.5-.35-4.1-.95-.07-1.66-.08-3.33-.06-4.99,0-.91,0-1.81.02-2.75,0-.7.02-1.41.03-2.13h8.08c.12-1.2.22-2.41.34-3.65.46-4.13,1.26-7.26,2.38-9.37h0c.27-.51.55-.94.86-1.32.08-.12.16-.21.26-.31.43-.49.88-.86,1.38-1.13.36-.21.74-.35,1.16-.44.1-.02.21-.04.31-.06.12,0,.21-.02.33-.03h0l8.24.17v16.16h13.46v10.77h-13.46c.3,9.77.59,19.56.89,29.62h8.98c2.99,2.99,4.32,4.55,4.71,8.7v-.02Z"/>
  <path d="M1345.26,199.5h17.94c1.59,1.59,1.01,3.68,1.02,5.79v65.6c-.02,3.19-.36,5.12-1.02,5.79h-17.94v-77.2.02Z"/>
  <path d="M1250.63,224.08c1.89,1.26,3.36,2.45,4.87,4.13-1.41,3.92-2.91,6.61-4.48,8.08-3.93.42-5.65.42-8.98-1.8-3.84-.62-8.17-1.17-11.48,1.11-4.23,5.02-4.12,10.1-4.09,16.36.43,4.25,1.74,7.36,4.81,10.36,3.25,1.09,5.56,1.19,8.98.89,1.81-1.17,3.6-2.38,5.39-3.59,1.79-.41,3.6-.41,5.39,0,2.07,1.9,3.74,4.01,5.39,6.28-1.34,3.42-3.22,4.87-6.22,6.89-.79.55-1.57,1.07-2.38,1.64-4.09,2.52-7.98,2.45-12.66,2.51-.7.02-1.39.06-2.12.08-6.16.07-10.59-1.65-15.37-5.53-7.45-8.54-8.76-17.51-8.32-28.51.52-7.01,3.22-11.66,8.26-16.47,10.36-8.14,21.43-8.82,33.05-2.45h-.02Z"/>
  <path d="M1475.59,225.6c1.08,1.15,1.62,2.92,1.62,5.31-.93,1.95-2.13,3.74-3.59,5.39-3.98.55-5.61.44-8.98-1.8-1.69-.23-3.48-.35-5.33-.34-.93-.02-1.87-.04-2.83-.08-3.22.51-4.22,1.46-6.21,4.01-1.2,3.61-1.1,6.94-1.12,10.71-.02.73-.03,1.46-.06,2.21-.02,4.07.03,6.43,2.98,9.52v1.8c3.86,1.29,7.83,1.86,11.58.09.53-.33,1.05-.65,1.61-1,1.98-1.2,3.74-1.98,5.27-2.36,3.46.89,5.58,3.03,7.57,5.94.19,1.53-.11,3.03-.89,4.48-7.41,6.48-14.96,7.72-24.66,7.48-6.58-.64-10.78-3.65-15.25-8.39-6.15-7.98-6.53-17.26-5.87-26.93,1.68-8.6,6.24-13.71,13.13-18.8,9.79-4.38,22.43-3.27,31.02,2.7v.05Z"/>
  <path d="M932.36,200.39h17.94v75.4h-17.94v-75.4Z"/>
  <path d="M806.71,220.14c1.2,1.2,1.88,2.75,2.04,4.65,0,1.13,0,2.26,0,3.42,0,1.13,0,2.27,0,3.42-.16,1.91-.83,3.46-2.04,4.65-2.72.27-5.4.34-8.13.42-3.37.61-4.22,1.31-6.24,4.07-.55,2.66-.55,5.3-.55,8.01,0,.77-.03,1.54-.04,2.35-.04,2.45-.07,4.93-.08,7.38-.02,1.68-.06,3.34-.08,5.02-.07,4.09-.1,8.17-.15,12.27h-17.05v-54.76h12.57c1.19,2.07,2.36,4.14,3.59,6.28.4-.44.83-.88,1.25-1.35.55-.58,1.1-1.16,1.66-1.74.55-.58,1.09-1.14,1.64-1.74,3.42-2.9,7.26-2.6,11.6-2.36h0v-.02Z"/>
  <path d="M1078.67,421.2c-1.21-1.55-2.23-2.36-3.76-3.26-.27-.16-.58-.33-.89-.5-.55-.24-1.1-.49-1.63-.73v-1.8c-.64,0-1.26-.03-1.87-.03-.83,0-1.64-.02-2.45-.02h0c-.51,0-.98,0-1.44,0-.19,0-.37,0-.55,0-.34,0-.67.02-1,.04-.21,0-.42.03-.64.06-.4.04-.83.1-1.25.18-.79.17-1.55.42-2.33.8-.52.25-1.03.55-1.57.93h0c-.09.06-.19.13-.3.21-1.4,1.19-2.66,2.29-3.77,3.43,0,0-.02.02-.03.03-2.45,2.52-4.14,5.22-4.61,9.44-.24,5.91.12,9.88,3.87,14.54,2.65,1.69,4.99,1.9,8.08,2.02,5.18-.15,8.93-1.88,12.57-5.6.35-.61.68-1.22.98-1.83-.03,0-.06.02-.09.03.28-1,.55-2,.83-3.03,1.1-4.34,1.5-8.67,1.86-13.13.09.03.17.07.26.1-.07-.62-.15-1.26-.26-1.89v.02ZM1070.7,437.02c-2.33,2.6-4.74,4.03-7.23,4.26-2.48-.09-3.39-.15-5.45-1.63-1.78-4.56-1.54-9.3.22-13.86,2.69-4.81,4.98-6.19,10.54-5.5h0c1.29.69,2.49,1.6,3.59,2.69.92,4.65,1,9.97-1.69,14.03h0Z"/>
  <path d="M1025.71,422.1c-2.13-3.93-4.81-5.66-8.98-7.18h0c-1.56-.17-2.92-.21-4.17-.12h-.06c-1.74.15-3.25.58-4.78,1.4-.27.15-.55.31-.83.5,0,0-.02,0-.02,0-.85.52-1.72,1.17-2.65,1.96-1.5,1.35-2.76,2.56-3.76,3.86-1.57,2.03-2.52,4.26-2.79,7.52-.03,1.47-.06,2.85,0,4.17v.08c.12,3.27.71,6.18,2.66,9.03,0,0,.02.02.02.03.34.48.7.96,1.12,1.44.16.09.33.18.49.26h0c.3.17.6.31.88.44,2.69,1.19,4.9,1.19,8.17,1.04,5.13-.55,7.83-2.56,11.09-6.51.48-.74.88-1.52,1.28-2.26,0,0,0-.02,0-.02l2.06-11.29c.09-.86.17-1.72.25-2.58h.21c-.06-.59-.13-1.19-.22-1.79h0ZM1017.3,436.96c-1.31,1.89-1.98,2.87-3.98,3.89-.03,0-.07,0-.1,0-.74-.07-1.48-.12-2.22-.18-.74-.06-1.48-.1-2.21-.16-1.53-.21-2.78-1.26-3.74-3.15-.45-3.93-.42-7.74.83-11.51.31-.67.64-1.31.95-1.96.04-.28.08-.55.12-.79.24-.33.51-.67.8-1l2.67-.88v-.74c1.71-.55,3.22-.5,5.4-.18,1.41.83,2.61,2.02,3.59,3.59.93,4.89.46,8.79-2.13,13.07h0Z"/>
  <path d="M848.57,425.57c-.09-2.81-.69-5.46-2.72-7.79-2.75-1.93-9.52-2.58-20.3-1.96-.67,2.02-1.26,5.38-1.74,10.09-.26,2.63-.53,5.26-.95,7.86-1.31,4.41-1.99,7.95-1.8,12.57,6.79.4,13.22.85,19.31-2.23.44-.21.87-.45,1.31-.71.64-.55,1.22-1.1,1.74-1.68,1.99-2.17,3.21-4.54,4.02-7.25.54-1.81.54-1.82,0-.02.31-1.02.55-2.08.77-3.19.09-.45.17-.91.25-1.37.04-.71.08-1.41.1-2.11.02-.74.03-1.48,0-2.21h0ZM828.24,440.95h0c-.15-4.71.35-8.85,1.35-13.41.12-.61.26-1.22.39-1.86h.98v-4.48h7.18l-.06-.06c.92.24,1.77.62,2.52,1.16.31.44.56.89.77,1.36l.35.24c.04.35.08.7.1,1.07.06.24.12.48.16.73h-.27c-.24,1.44-.48,2.84-.7,4.25-.17.98-.34,1.97-.5,2.94-.06.31-.1.61-.16.92h0c-.15.91-.3,1.79-.44,2.67.02,0,.03.02.06.02-.45.7-.95,1.36-1.53,1.97-.3.31-.6.61-.93.89-.61.55-1.31,1.09-2.08,1.6-1.22.12-2.48.15-3.76.12-1.13-.03-2.24-.08-3.41-.12h-.02Z"/>
  <path d="M717.85,420.01v-.02s-.04-.06-.07-.1c-.15-.33-.34-.65-.56-1-.28-.43-.62-.88-1.05-1.37-.03-.04-.08-.1-.12-.15-1.13-.67-2.11-1.1-3.06-1.38-.22-.07-.45-.13-.68-.18-1.41-.33-2.84-.35-4.78-.31-.71.03-1.41.06-2.09.09-2.45.06-4.9.12-7.35.22h0c-.6,1.8-1.03,3.39-1.31,4.78-.12.7-.27,1.5-.4,2.4,0,0,0,.02,0,.03-.15.91-.31,1.8-.46,2.69-.17.96-.33,1.89-.49,2.82-.51,2.88-1,5.78-1.45,8.66-.27,1.72-.52,3.45-.74,5.18-.18,1.31-.34,2.63-.5,3.94,2.09.03,4.19.03,6.28,0,.08-.08.15-.16.21-.25.48-.64.79-1.66.96-3.09.02-.25.03-.5.06-.74-.12.17-.22.34-.34.51.3-2.66.59-5.33.89-8.08h4.49c0,2.38.26,4.28.79,5.69.34.74.68,1.44,1.01,2.15.6,1.28,1.19,2.55,1.8,3.82h7.18v-1.8c-.22-.45-.45-.89-.67-1.34-.08-.17-.15-.33-.22-.49-.02-.03-.04-.08-.07-.13-.18-.37-.35-.74-.51-1.12,0-.03-.03-.07-.04-.09-.79-1.77-1.45-3.48-2.04-5.31,0-.04,0-.09-.04-.13-.1-.31-.19-.61-.27-.92-.21.18-.4.37-.6.55v-2.65s0-.03,0-.04c0,0,0,0,0,0v-.88h1.37s-1.36,0-1.36,0c1.5-1.35,2.98-2.52,4.47-3.58,0,.4-.03.8-.12,1.2.6-.6,1.13-1.25,1.56-1.99.12-.18.21-.36.31-.56.02-.02.03-.04.04-.08.22-.46.42-.96.56-1.5.12-2.38.12-3.88-.55-5.44l-.02.02ZM706.79,430.19c-1.19.24-2.42.15-4.1,0h-.06s-.03,0-.04,0c.3-3.26.59-6.52.89-9.88.96-.03,1.93-.06,2.92-.06,1.12.33,2.24.64,3.35.96l.44-.44h0c.26.31.5.63.7.95.52.8.83,1.64.98,2.51-.1.71-.28,1.41-.55,2.07-.31.82-.73,1.6-1.26,2.36-1.23.87-2.24,1.32-3.3,1.53h.02Z"/>
  <path d="M1225.4,422.11s0-.06,0-.08c-.42-1.93-1.14-3.46-2.18-4.63-.52-.31-1.01-.56-1.47-.79h0c-2.32-1.09-4.09-1.17-7.04-1.12-.71.03-1.41.06-2.09.09-2.45.06-4.9.12-7.35.22-2.36,10.2-4.17,20.01-4.48,30.5,1.8.03,3.59.03,5.39,0,.6-.6.98-1.71,1.17-3.34.08-1.02.16-2.02.22-3,.08-1.02.15-2,.22-3,.06-.79.12-1.55.17-2.32h4.48c0,1.79.26,3.43.79,4.92.34.83.68,1.63,1.01,2.44.6,1.44,1.19,2.88,1.79,4.31,0,0,0,0,0,.02h7.18c-.07-.31-.13-.64-.21-.94-.1-.4-.19-.82-.28-1.23-.69-2.82-1.47-5.39-2.75-8.15-.42-.76-.83-1.5-1.23-2.24.08-.08.16-.16.24-.24.52-.52,1.04-1.01,1.53-1.5.24-.24.48-.46.71-.7.27-.26.53-.53.79-.8.21-.24.43-.48.64-.71,1.44-1.69,2.5-3.52,2.84-6.01,0-.02,0-.03,0-.06.04-.27.07-.56.09-.86-.04-.26-.09-.52-.15-.77h-.02ZM1216.2,428.95c-2.06.74-4.07.46-6.49.33-.08-3.96.22-6.95.89-8.98h0c2.02-.08,4.12-.08,6.28,0,.17.17.31.33.46.5.92,1.07,1.45,2.23,1.61,3.49-.19,1.53-.6,2.84-1.23,3.93-.52.31-1.03.56-1.54.74h0Z"/>
  <path d="M1330.38,425.52c.21-3.65.34-5.3-2.17-8.14-3.12-1.8-4.99-1.93-8.53-1.88-.71.03-1.41.06-2.09.09-2.45.06-4.9.12-7.35.22h0c-.28,2.02-.58,4.04-.87,6.07-.12.86-.24,1.69-.36,2.51-.53,3.77-.98,7.55-1.95,11.23-1.11,3.71-1.46,6.8-1.31,10.7h6.28c.52-1.9.92-3.74,1.17-5.7.08-.74.16-1.44.22-2.15.08-.74.15-1.46.22-2.17.06-.55.12-1.1.17-1.64h4.48c.12.71.21,1.41.33,2.09.15.93.31,1.83.45,2.73.51,3.12.55,4.57,2.81,6.84,2.17.08,4.26.08,6.28,0,0-1.79-.33-3.62-.98-5.5-.12-.3-.22-.59-.35-.87,0-.04-.02-.08-.03-.12-.15-.36-.28-.71-.43-1.07,0-.02-.02-.03-.02-.06-.13-.36-.27-.73-.42-1.07-.42-1.09-.83-2.14-1.26-3.21-.34-.83-.65-1.64-.98-2.45h2.69c2.2-1.95,3.41-3.53,3.98-6.46h0ZM1322.25,428.66c-.7.5-1.32.86-1.93,1.11-.44.19-.87.31-1.31.4h-4.28c.12-1.48.26-2.96.4-4.43.07-.83.15-1.64.22-2.49.1-.77.21-1.34.33-1.75.06-.21.13-.39.22-.52.07-.1.15-.19.22-.27.04-.04.09-.08.13-.12s.1-.07.16-.09c.09-.04.19-.08.31-.1.52-.16,1.28-.18,2.44-.26h0c.35,0,.69.06,1.02.12.56,0,1.14.03,1.72.04v.52c.67.31,1.26.74,1.8,1.26.46,2.94.27,4.11-1.46,6.57h.02Z"/>
  <path d="M970.96,415.81h6.28c2.66,5.63,5.33,11.26,8.08,17.05h.89c.88-5.63,1.78-11.26,2.69-17.05h6.28c-.62,4.2-1.25,8.4-1.87,12.6-.21,1.43-.42,2.87-.64,4.29-.31,2.05-.61,4.1-.92,6.16-.09.64-.19,1.29-.28,1.95-.45,3.01-1.02,4.85-1.69,5.51h-5.39c-2.66-5.92-5.33-11.84-8.08-17.94-1.13,5.09-2.22,10.16-3.17,15.28-.28,1.17-.72,2.07-1.31,2.66-1.8.03-3.59.03-5.39,0,.76-6.46,1.75-12.88,2.75-19.29.17-1.07.34-2.17.51-3.27.4-2.65.82-5.3,1.23-7.95h0Z"/>
  <path d="M1279.75,415.84c-.65,6.12-1.41,12.19-2.24,18.28-.12.88-.24,1.77-.35,2.67-.12.85-.22,1.69-.35,2.56-.1.76-.21,1.53-.31,2.31-.22,1.32-.64,2.88-1.23,4.69-1.72.08-3.52.08-5.39,0-2.07-2.07-2.69-4.07-3.65-6.79-.4-1.04-.82-2.08-1.26-3.12-.26-.64-.53-1.26-.82-1.89-.02-.06-.06-.12-.08-.19-.02-.04-.02-.05,0-.02-.16-.79-.31-1.57-.48-2.38,0,0,0,0,.02,0-.6-1.64-1.31-2.88-2.66-4.37,0,0,0,0,0,0,0-.02-.02-.06-.03-.08,0,0,0,.02,0,.03-.27-.31-.58-.62-.91-.95h0c-.24,2.17-.48,4.28-.7,6.37,0,0,0,.02,0,.03v.24c-.02.3-.07.59-.12.86,0,0,0,.02,0,.03-.02.18-.03.35-.06.53.12-.07.22-.13.35-.19-.44,2.48-.79,4.97-1,7.53-.04.36-.12.74-.22,1.12v.06c-.02.1-.06.17-.1.28-.18.64-.45,1.31-.79,1.99h-5.39c.3-2.54.6-5.08.91-7.62,0-.03,0-.07,0-.1.28-2.49.59-4.99.89-7.49.58-4.8,1.17-9.61,1.78-14.41h0,7.18c.86,1.83,1.72,3.69,2.58,5.55.48,1.03.96,2.06,1.45,3.12.77,1.72,1.41,3.26,1.89,4.63-.18.04-.36.09-.55.13.61,1.83,1.21,3.61,1.8,5.39h1.8s0-.02,0-.02c.53-2.13.82-3.79.56-5.61,0,0,0,0,0-.02.12-1.09.22-2.17.33-3.24v-.04s0,0,0-.02v-.02c.08-.76.15-1.53.22-2.31.07-.71.15-1.43.22-2.15.07-.64.12-1.29.19-1.96.06-.33.12-.67.22-1.02.21-.77.51-1.57.93-2.4h5.39v.02Z"/>
  <path d="M1195.64,439.47s0-.04,0-.07c-.7-5.92-1.99-13.78-3.88-23.58h-8.09c-1.2,2.45-2.42,4.89-3.71,7.31-.37.7-.74,1.38-1.11,2.06-.79,1.46-1.57,2.92-2.36,4.38-2.98,5.47-5.41,10.78-7.18,16.77h7.18l1.8-7.18h11.67v7.18h6.28c-.08-1.88-.27-4.17-.6-6.86h0ZM1186.39,422.1h.88c.25,3.22.49,6.42.74,9.7.04.65.1,1.31.15,1.97h-6.28c.53-4.31,2.39-7.74,4.4-11.51.04-.06.08-.12.12-.16h0Z"/>
  <path d="M1168.85,417.89c-2.88-2.26-5.12-2.55-8.7-2.47-.65.03-1.29.08-1.93.12-2.27.07-4.55.16-6.84.28-.69,2.06-1.44,5.49-2.26,10.28-.17,1.01-.34,1.98-.5,2.96-1.01,5.79-2,11.38-1.74,17.27h6.28c.31-3.62.59-7.12.88-10.63,0-.04,0-.09,0-.13h0c.31.02.6.03.89.04,1.22.08,2.36.09,3.44.02h0c2.91-.15,5.47-.85,8.48-2.52,3.45-2.56,4.07-5.65,4.72-9.71-.34-2.05-1.26-3.88-2.76-5.5h0ZM1162.15,430.17c-2.14.08-4.2.08-6.21,0,.27-3.34.55-6.61.82-9.88h6.28c.59.59,1.19,1.19,1.8,1.8-.28,3.86-1.17,6.55-2.69,8.08h0Z"/>
  <path d="M941.34,415.81h6.28c-.59,3.85-1.19,7.7-1.8,11.67h10.77c.59-3.85,1.19-7.7,1.8-11.67h6.28c-.53,5.36-1.29,10.65-2.21,15.97-.82,4.84-1.55,9.7-2.29,14.56h-7.18c.28-1.74.55-3.48.83-5.22.16-.97.31-1.94.48-2.93.31-1.74.78-3.51,1.38-5.31h-11.67c.03,1.05.08,2.11.12,3.19,0,3.74-.73,6.74-1.9,10.27h-6.28c.59-4.95,1.31-9.85,2.18-14.75.12-.67.24-1.32.36-2.02.83-4.62,1.77-9.19,2.84-13.75h0Z"/>
  <path d="M1107.4,417.61v3.59c-.21.1-.4.19-.6.31h0c-.39.19-.77.39-1.17.58-.6.31-1.2.61-1.81.92-.68-.45-1.38-.92-2.08-1.4-.21-.13-.4-.27-.61-.4-.26-.03-.51-.07-.76-.09-.22-.02-.45-.03-.67-.06h-.02c-.17-.02-.33-.03-.49-.04h0c-1.2-.06-2.17.03-3.18.39-.83.27-1.69.71-2.73,1.38-.35.35-.68.7-.98,1.03-.03.03-.07.06-.1.1-1.77,1.96-2.65,3.71-2.98,6.69,0,.77,0,1.54,0,2.32,0,.77,0,1.54,0,2.33.07,1.56.74,3.16,2.04,4.79,1.46.21,2.99.27,4.6.17.82-.02,1.63-.04,2.48-.08.61-.03,1.25-.07,1.88-.09h.02v-5.39h-3.59c.06-.28.12-.55.17-.83v-.04c.24-1.19.48-2.38.73-3.59h9.88c-.27,2.07-.55,4.12-.83,6.2-.31,2.4-.64,4.81-.98,7.27h0c-.6.26-1.2.51-1.79.74-.27.12-.55.22-.83.33-.19.07-.2.07-.02,0-1.52.56-3.01,1.03-4.52,1.35-.59.12-1.19.22-1.79.31,0,0-.02,0-.03,0-1.97.27-4.01.27-6.27-.04-.21-.09-.42-.18-.64-.28,0,0-.02,0-.04,0-.68-.31-1.31-.64-1.9-1.01-2.32-1.41-4.03-3.24-5.49-5.88-.13-.95-.24-1.89-.31-2.82-.26-3.31-.07-6.49.93-9.57.42-1.35,1.01-2.69,1.78-3.98.21-.28.43-.55.64-.82.03-.03.06-.08.09-.12.62-.74,1.26-1.45,1.93-2.09.06-.04.1-.1.16-.15,1.71-1.63,3.55-2.88,5.48-3.67.4-.18.83-.33,1.26-.45.49-.16.98-.28,1.46-.37.21-.03.4-.07.6-.1,2.22-.34,4.56-.12,7.02.7.1,0,.21.06.31.1.08.02.16.04.25.09,0,0,0,0,0,0,.12.04.24.09.36.13.04,0,.09.03.15.06,0,0,.03,0,.06.02h0c.25.12.49.21.74.33.12.04.22.1.34.16.13.07.28.13.42.21.1.04.21.1.31.16.39.21.77.4,1.16.64l-.02-.02Z"/>
  <path d="M724.12,415.81h6.28c-.06.55-.12,1.11-.17,1.69-.49,5.15-.92,10.32-1.29,15.48-.09,1.16-.17,2.3-.26,3.49-.02.88-.04,1.78-.08,2.69.59.73,1.44,1.05,2.56.98,1.84-.03,3.68-.06,5.53-.09,2.39-7.98,3.94-16.04,5.39-24.23h5.39c-.65,14.15-2.86,23.31-6.61,27.46-3.55,3.07-6.62,3.4-11.17,3.3-3.62-.43-5.74-2.22-8.24-4.72-.69-8.78,1.21-17.42,2.69-26.03h0Z"/>
  <path d="M1286.92,415.81h17.94v4.48c-.6.6-1.78.93-3.53.98-1.07,0-2.16-.02-3.25-.03-1.09-.02-2.18-.02-3.26-.02-.83,0-1.66-.02-2.52-.03-.3,2.36-.59,4.74-.89,7.18h8.98v4.48h-10.77c-.3,2.66-.59,5.33-.89,8.08h12.57v4.48c-.6.6-1.48.93-2.65,1-.74,0-1.5,0-2.26,0h-2.45c-.84,0-1.7,0-2.57-.02-.85,0-1.71,0-2.58,0-2.12,0-4.22-.02-6.34-.04-.33-7.27.56-13.75,2.24-20.81.21-.94.43-1.88.64-2.85.52-2.29,1.05-4.57,1.6-6.86v.02h0Z"/>
  <path d="M802.21,415.81h17.94v4.48c-.6.6-1.78.93-3.53.98-1.07,0-2.16-.02-3.25-.03-1.09-.02-2.18-.02-3.26-.02-.83,0-1.66-.02-2.52-.03-.3,2.36-.59,4.74-.89,7.18h8.98v4.48h-10.77c.02,1,.03,2,.06,3.03-.04,2.17-.36,3.85-.95,5.05h11.67v5.39h-18.85c.65-5.27,1.37-10.52,2.18-15.76.12-.73.21-1.46.33-2.21.12-.71.22-1.44.34-2.17.1-.64.19-1.26.3-1.93.58-2.85,1.43-5.65,2.23-8.45h0Z"/>
  <path d="M889.28,415.81h17.94v5.39h-12.57v7.18h8.98v4.48h-10.77c-.3,2.66-.59,5.33-.89,8.08h11.67v5.39h-18.85c.58-4.07,1.17-8.13,1.77-12.19.16-1.07.31-2.15.49-3.25.16-1.1.33-2.21.5-3.34s.34-2.26.51-3.42c.4-2.78.83-5.54,1.23-8.31h0,0Z"/>
  <path d="M764.63,421.11c.26-.26.52-.53.79-.82-.89-.02-1.77-.04-2.64-.06-.58,0-1.1.12-1.56.35-.35.15-.67.36-.95.64-.08,0-.16,0-.24-.02-.02.12-.04.21-.07.33-.82.89-1.38,2.29-1.72,4.16.34-.15.67-.3.98-.46-.02.15-.06.31-.09.46.49.22.98.45,1.47.69.64.31,1.29.62,1.95.94.65.31,1.31.62,1.93.92,1.92,1.1,3.17,2,4.53,3.74.77,3.35.74,6.71-.92,9.77-1.92,2.39-3.34,3.61-6.27,4.59-1.62.12-3.25.19-4.88.22-.85.02-1.69.04-2.58.07-2.76-.34-3.96-1.14-6-2.99l.89-3.59c.64-.18,1.23-.31,1.8-.4.45-.08.91-.12,1.31-.1h.02c.85,0,1.61.18,2.26.5,2.09.03,4.19.03,6.28,0l.89-4.48c-.49-.28-.98-.56-1.47-.86-1.12-.68-2.15-1.32-3.06-1.96,0,0,0-.02-.02-.02-1.95-1.34-3.4-2.6-4.35-3.74-.06-.08-.12-.16-.17-.24-.34-.43-.6-.85-.79-1.25h0c-.26-2.07-.35-3.56-.06-5.05v-.03c.07-.31.15-.59.25-.89h0c.27-.88.7-1.79,1.32-2.84,4.65-4.39,10.74-5.27,16.44-2.41h0c.59.45,1.19.89,1.8,1.36-.59,1.48-1.19,2.97-1.8,4.48-1.9-.17-3.8-.34-5.73-.52.16-.15.31-.31.46-.46h0Z"/>
  <path d="M928.77,414.92c3.29,1.17,5.39,2.69,6.28,4.54v1.74c-.59.59-1.19,1.19-1.8,1.8-2.03-.31-3.55-.87-5.39-1.8-3.03-.12-5.18-.07-8.08.89-2.78,4.47-3.13,9.18-2.69,14.36.53,1.72,1.13,3.22,1.8,4.48,4.23-.43,7.78-.87,11.67-2.69,1.2,1.2,1.8,2.69,1.8,4.48-5.33,3.16-9.91,4.87-16.16,3.59-1.79-1.42-3.29-2.92-4.48-4.48l-1.8-1.8c-.67-6.25-.79-12.56,2.69-17.94,4.71-5.48,8.76-8.84,16.16-7.18h0v.02Z"/>
  <path d="M1137.01,415.81c-1.17,2.47-2.48,4.65-4.07,6.88-5.46,7.83-9.17,13.86-9.4,23.66h-7.18l.7-4.22c.42-4.44.24-8.11-.65-11.97,0-.03,0-.06-.02-.09-.34-1.5-.8-3.03-1.37-4.65-.44-1.31-.83-2.51-1.13-3.59v-.02c-.68-2.36-1.04-4.22-1.1-5.6,0-.12,0-.26,0-.4h6.28c.45,1.23.85,2.4,1.19,3.5,0,0,0,.02,0,.03.37,1.22.68,2.35.92,3.39-.12.08-.24.17-.33.26.15,1.07.31,2.15.5,3.22.12.73.26,1.45.4,2.17h.02c.91-.31,1.8-.6,2.67-.89.59-1.5,1.1-3,1.53-4.45.46-.79.92-1.61,1.4-2.45,1.1-1.78,2.22-3.36,3.36-4.77,2.36-.42,4.45-.42,6.28,0h0Z"/>
  <path d="M1495.15,257.85c2.66,1.61,4.87,3.45,6.28,6.28.55,4.05.21,6.55-2.18,9.82-2.31,2.42-3.95,3.22-7.29,3.42-3.27-.25-3.98-.68-6.68-2.87-.59-.76-1.19-1.52-1.8-2.3l-.89-.89c-.34-4.48-.09-7.19,2.69-10.77,3.03-3.13,5.63-3.28,9.88-2.69h0Z"/>
  <path d="M1229.46,415.81h21.55v5.39h-8.08c-1.26,7.18-2.29,14.36-3.17,21.58-.28,1.77-.72,2.95-1.31,3.55-2.09.03-4.19.03-6.28,0,.49-5.41,1.31-10.75,2.24-16.1.12-.68.24-1.36.35-2.06.59-3.31,1.21-5.63,1.89-6.98h-8.08c.3-1.78.59-3.55.89-5.39h0,0Z"/>
  <path d="M671.16,415.81h22.44v4.48c-.6.6-1.51.93-2.75.98-.74,0-1.48-.02-2.24-.03-.74,0-1.48,0-2.24-.02-.58,0-1.14-.02-1.74-.03-.12,1-.24,2-.36,3.03-.55,4.37-1.2,8.72-1.88,13.07-.12.77-.23,1.55-.35,2.35s-.24,1.53-.35,2.22c-.1.67-.21,1.32-.31,2.02-.22,1.03-.64,1.85-1.23,2.45-1.8.03-3.59.03-5.39,0-.19-6,.45-11.27,1.8-17.11.17-.79.34-1.55.52-2.36.42-1.89.85-3.79,1.28-5.67h-7.18v-5.39l-.02.02h0Z"/>
  <polygon points="529.35 219.25 529.34 219.26 529.34 219.25 529.35 219.25"/>
  <path d="M863.25,415.81h21.55v5.39h-8.08c-.12.77-.21,1.54-.33,2.35-.4,2.82-.8,5.63-1.21,8.45-.25,1.74-.5,3.45-.74,5.18-.16,1.04-.31,2.08-.46,3.16-.13.96-.28,1.92-.42,2.91-.28,1.46-.72,2.5-1.31,3.09-2.09.03-4.19.03-6.28,0,.71-5.04,1.46-10.07,2.24-15.09.12-.77.24-1.54.35-2.33.12-.74.23-1.48.35-2.23.1-.67.21-1.32.31-2.02.22-1.11.64-2.26,1.23-3.46h-7.18v-5.39h0,.02Z"/>
  <path d="M796.83,415.81v5.39h-8.08c-.03.55-.07,1.09-.1,1.65-.4,5.39-1.16,10.65-2.14,15.97-.12.64-.24,1.29-.35,1.93-.58,3.04-1.21,4.92-1.89,5.58-1.8.03-3.59.03-5.39,0h0c.12-2.04.27-4.04.49-6.03.31-3.06.74-6.08,1.25-9.1.02.26.03.52.06.77h.89c.31-3.62.6-7.14.88-10.66,0-.03,0-.07.02-.1h-7.18v-5.39h21.54,0Z"/>
  <path d="M1010.44,420.48v.74l-2.67.88c.22-.27.46-.53.73-.79.7-.36,1.34-.64,1.95-.83h0Z"/>
  <path d="M1013.33,440.85c-.06.02-.12.06-.18.09-2.06.19-4.16.19-6.28,0-1.86-1.87-2.61-3.12-3.04-5.72.04-4.84.45-8.51,3.15-12.13-.03.25-.07.51-.12.79-.31.64-.64,1.29-.95,1.96-1.26,3.76-1.29,7.57-.83,11.51.96,1.89,2.21,2.94,3.74,3.15.73.06,1.46.1,2.21.16.74.06,1.47.12,2.22.18.03,0,.07,0,.1,0h0Z"/>
  <path d="M1032.9,415.81h6.28c.17,4.99-.37,8.64-1.8,13.46-.68,3.88-1.25,7.77-1.8,11.67h10.77v5.39h-17.94c.5-10.4,2.41-20.33,4.48-30.52h.02Z"/>
  <path d="M848.57,427.77c-.06,1.13-.19,2.29-.35,3.48-.07.53-.15,1.07-.22,1.62-.18.55-.36,1.07-.55,1.57-.12.34-.12.34,0,.02-1,2.7-2.26,5.05-4.02,7.25-.56.71-1.19,1.41-1.88,2.09-.4.12-.79.21-1.17.3-3.44.76-6.88.5-10.32-.46-.59-.88-1.19-1.77-1.79-2.69,1.17.03,2.27.08,3.41.12,1.28.03,2.54,0,3.76-.12.79-.51,1.47-1.04,2.08-1.6.21-.06.4-.12.61-.21.12-.22.21-.45.31-.69.58-.61,1.07-1.26,1.53-1.97-.02,0-.03,0-.06-.02.15-.88.3-1.77.44-2.66h0l.46-.93h0c.09-.98.15-1.97.19-2.94.22-1.41.46-2.81.7-4.23h.27c-.04-.26-.1-.5-.16-.74-.02-.36-.06-.71-.1-1.07l-.35-.24c-.21-.46-.46-.92-.77-1.36-.76-.53-1.61-.92-2.52-1.16l.06.06h-.43c-.27-.1-.55-.19-.82-.26h0c-.74-.18-1.52-.28-2.5-.36-1.13-.09-2.27-.18-3.42-.28v-.89c1.78-.3,3.55-.59,5.39-.89-2.97-.3-5.92-.59-8.98-.89-.12,1.43-.22,2.85-.34,4.32-.12,1.6-.24,2.72-.53,3.74-.31,1.11-.85,2.14-1.83,3.6.12-1.59.26-3.18.4-4.77.07-.88.15-1.77.22-2.69.19-1.62.58-3.31,1.17-5.12h0c2.75-.13,5.49-.22,8.24-.3.79-.03,1.55-.08,2.36-.12,3.96-.08,5.88,0,9.22,2.31,1.54,2.29,2.17,4.57,2.31,6.94.03.73.02,1.46,0,2.21h-.02Z"/>
  <path d="M1225.45,423.74s0,.03,0,.06c0,.31,0,.62-.03.96-.59,2.36-1.89,4.13-3.45,5.76-.25.27-.51.55-.79.8-.24.24-.48.46-.71.7-.51.49-1.03.98-1.54,1.48-.08.08-.17.17-.25.25.4.74.82,1.48,1.23,2.24,1.6,3.43,2.41,6.58,3.24,10.26,0,.02,0,.04,0,.07h-7.18c-.6-1.44-1.2-2.88-1.8-4.32-.33-.8-.67-1.61-1.01-2.44-.52-1.48-.79-3.12-.79-4.92h-4.48v-.89h4.48l.89-2.69h0l2.69-1.8c.07-.12.15-.21.21-.31.51-.17,1.02-.42,1.54-.74.64-1.09,1.04-2.4,1.23-3.93-.16-1.26-.69-2.42-1.61-3.49-.15-.46-.31-.93-.46-1.41-3.55-.59-7.14-1.19-10.77-1.8v-.89c7.32-.94,12.52-.96,15.59-.08h0c.53.15,1,.33,1.39.53h0c1.44,1.77,2.08,3.13,2.26,4.88,0,.02.02.06,0,.08.07.51.08,1.04.06,1.63l.03.02Z"/>
  <path d="M941.34,415.81h6.28c-.59,4.14-1.19,8.29-1.8,12.57,1.11-.03,2.22-.08,3.36-.12,2.93,0,4.9.24,7.41,1.9l-.89,1.8c-1.63.25-3.45.44-5.45.56-1,.07-1.98.13-3,.21-.77.04-1.54.09-2.32.13-.12.83-.24,1.64-.36,2.49-.16,1.07-.31,2.13-.48,3.24-.16,1.07-.31,2.13-.48,3.22-.31,1.82-.78,3.32-1.38,4.52h-6.28c.59-4.95,1.31-9.85,2.18-14.75.12-.67.24-1.32.36-2.02.83-4.62,1.77-9.19,2.84-13.75h0Z"/>
  <path d="M830.93,421.2h0v4.48h-.98c.31-1.5.64-2.99.96-4.48h0Z"/>
  <path d="M838.12,421.2h-7.18c1.29-.07,2.57-.12,3.86-.17.68-.03,1.36-.06,2.06-.09h.12c.37.04.74.12,1.09.21l.06.06h0Z"/>
  <path d="M841.73,432.75s0,.08-.02.12c-.52,1.37-1.07,2.55-1.74,3.61-.02,0-.03,0-.06-.02.15-.88.3-1.77.44-2.66h0c.06-.31.1-.62.16-.93.16-.98.33-1.96.5-2.94.22-1.41.46-2.81.7-4.23h.27c.42,2.26.08,4.68-.25,7.06h0Z"/>
  <path d="M1014.93,440.94c-.09.27-.19.53-.31.8-.51,1.22-1.31,2.45-2.39,3.68-.02,0-.03,0-.06,0,0,0-.02,0-.03,0-3.18.64-6.12.62-9.27.07-.17-.02-.34-.06-.51-.09-.12-.12-.25-.22-.37-.35h0c-.61-.55-1.14-1.12-1.61-1.69,0,0,0-.02-.02-.03-1.69-2.11-2.42-4.38-2.65-7.53,0-.52,0-1.02,0-1.5v-.08c.03-4.69.6-8.13,2.79-11.7.69-1.13,1.55-2.27,2.61-3.48,1.35-1.31,2.5-2.03,3.79-2.35,0,0,0,0,.02,0,.27-.07.55-.12.83-.15,1.03-.13,2.17-.06,3.59.15h0c-.58.36-1.14.71-1.74,1.07-.93.83-1.5,1.5-1.86,2.21-.44.87-.59,1.79-.79,3.12-.03.25-.07.51-.12.79-.31.64-.64,1.29-.95,1.96-1.26,3.76-1.29,7.57-.83,11.51.96,1.89,2.21,2.94,3.74,3.15.73.06,1.46.1,2.21.16.74.06,1.47.12,2.22.18.03,0,.07,0,.1,0,.53.02,1.05.06,1.6.09h.03Z"/>
  <path d="M1155.95,430.17c-.03.3-.06.6-.08.89h5.39c-2.12,2.26-3.3,3.49-6.28,4.48h0s0,.04,0,.06c-.3,0-.59-.02-.89-.04h0s0,.09,0,.13v5.26s0,0,.02,0c-.3,1.78-.59,3.57-.89,5.38h-6.28c-.21-5.35.6-10.2,1.69-15.43.16-.79.31-1.6.48-2.42.74-3.61,1.45-6.7,3.22-9.95,1.61-.04,3.22-.08,4.83-.12.89-.02,1.79-.04,2.72-.07,1.55.12,2.93.77,4.13,1.97h-7.18c-.27,3.26-.55,6.53-.82,9.88h-.02Z"/>
  <path d="M724.12,415.81h6.28c-.06.55-.12,1.11-.17,1.69-.49,5.15-.92,10.32-1.29,15.48-.09,1.16-.17,2.3-.26,3.49-.02.88-.04,1.78-.08,2.69.59.73,1.44,1.05,2.56.98,1.84-.03,3.68-.06,5.53-.09l-.89,1.8h-6.28c-.59,1.19-1.19,2.36-1.8,3.59-2.94-.51-4.4-1.26-6.28-3.59-1.77-8.06,1.31-18.03,2.69-26.03h0Z"/>
  <path d="M709.76,421.2c-1.11-.31-2.23-.64-3.35-.96,1.1,0,2.22,0,3.35.06.16.16.3.31.44.46l-.44.44Z"/>
  <path d="M711.55,432.92v2.65c.21-.18.4-.37.6-.55-.21-.68-.4-1.38-.6-2.09h0ZM715.27,442.97s-.03-.08-.06-.12c-.02-.04-.04-.09-.08-.13-.02-.03-.04-.08-.07-.13-.49-.98-.98-1.96-1.46-2.94-.08-.16-.16-.33-.25-.49h0c-.28-1.04-.58-2.06-.88-3.09,0-.04,0-.09-.04-.13-.07-.31-.16-.62-.26-.93l-.61-2.14-1.78-.88h-.02v-.02c.95-.94,1.83-2.13,2.69-3.58-.02-.36-.03-.71-.06-1.04-.12-2.32-.27-3.95-1.5-5.67-.19-.3-.42-.59-.69-.88.26.31.5.62.7.94.52.8.83,1.64.98,2.51-.1.71-.28,1.41-.55,2.07-.31.82-.73,1.6-1.26,2.36-1.23.87-2.24,1.32-3.3,1.53-1.19.24-2.42.15-4.1,0h-.06c1.21.31,2.36.59,3.55.88-.22.69-.45,1.37-.68,2.04-.07.22-.15.44-.21.65h-3.59c.65.16,1.29.33,1.93.49.55.13,1.1.27,1.65.4,0,2.39.26,4.29.79,5.7.34.74.68,1.44,1.01,2.15.6,1.28,1.19,2.55,1.8,3.82h7.18v-1.8c-.26-.52-.53-1.04-.79-1.56h0Z"/>
  <path d="M1107.4,417.61v3.59c-1.18.59-2.38,1.19-3.59,1.8-.88-.59-1.78-1.19-2.69-1.8-3.43-.44-4.9-.33-7.8,1.63-.68.64-1.37,1.29-2.07,1.96-.46.4-.92.83-1.39,1.26-1.45,1.61-1.95,2.87-2.6,4.92-1.13,3.27-2.64,5.6-4.99,8.18-.4-6.71-.64-12.42,3.59-17.94,6.31-6.68,13.18-8.48,21.55-3.59h0Z"/>
  <path d="M1196.27,446.33h-6.28v-7.18h-10.77v-.89c.98-.12,1.96-.26,2.98-.4,2.17-.26,4.17-.74,6-1.41v-1.8h-7.18c1.77-5.73,3.51-9.86,5.27-12.4-2,3.77-3.86,7.22-4.4,11.51h6.28c-.04-.65-.1-1.31-.15-1.97-.26-3.28-.5-6.49-.74-9.7.59,3.26,1.19,6.52,1.8,9.88,2.45-.87,3.88-2.11,4.26-3.7.08-.55.15-1.11.22-1.69.45,2.79.89,5.57,1.35,8.36.12.79.26,1.59.39,2.4.12.68.21,1.36.33,2.06,0,.02,0,.04,0,.07,0,.06.02.12.03.18.12.7.22,1.41.34,2.12.17,1.25.25,2.76.25,4.56h.02Z"/>
  <path d="M909.92,428.39h.89c.3,2.97.59,5.92.89,8.98.24-.68.49-1.37.73-2.07,1.03-2.33,1.93-3.4,3.76-5.11.12.55.24,1.1.36,1.68.16.73.31,1.45.48,2.2.16.71.31,1.44.48,2.17.31,1.44.78,3.02,1.38,4.72,4.23-.43,7.78-.87,11.67-2.69,1.2,1.2,1.8,2.69,1.8,4.48-5.33,3.16-9.91,4.87-16.16,3.59-1.79-1.42-3.29-2.92-4.48-4.48-.59-.59-1.19-1.19-1.8-1.8-.12-1.82-.15-3.8-.12-5.94,0-1.07.03-2.13.04-3.24.02-.83.04-1.64.07-2.49h0v.02Z"/>
  <path d="M707.96,430.19c-.8,1.25-1.62,2.23-2.45,2.92-.3.26-.58.49-.88.65-.33.21-.65.37-.98.49-.09.03-.17.07-.26.09-.55.12-1.12.22-1.69.33h-.91c-.31,2.75-.6,5.42-.89,8.08.12-.17.22-.34.34-.51.12-.18.24-.35.35-.52-.07.42-.13.83-.21,1.26-.28,1.43-.67,2.45-1.17,3.09-.07.09-.13.17-.21.25-2.09.03-4.19.03-6.28,0,.16-1.31.31-2.63.5-3.94.22-1.74.48-3.46.74-5.18.33-2.2.68-4.38,1.05-6.58.12-.74.25-1.47.37-2.24.31-1.8.61-3.6.92-5.39h.91v5.39c1.48-.3,2.97-.59,4.48-.89v2.69h1.02c1.68.15,2.91.24,4.1,0h1.18Z"/>
  <path d="M1283.33,431.97h.89v8.08c.3-1.48.59-2.97.89-4.48h2.69c.3,1.48.59,2.97.89,4.48,4.14.3,8.33.6,12.57.89v4.48c-.6.6-1.48.93-2.65,1-.74,0-1.5,0-2.26,0h-2.45c-.85,0-1.69,0-2.57-.02-.85,0-1.71,0-2.58,0-2.12,0-4.22-.02-6.34-.04-.02-1.55-.04-3.1-.06-4.65,0-.86-.02-1.74-.03-2.61.08-2.47.43-4.69.98-7.09h.02Z"/>
  <path d="M1216.01,430.17c4.77,3.86,5.88,10.46,7.18,16.16h-7.18c-.6-1.44-1.2-2.88-1.8-4.32-.33-.8-.67-1.61-1.01-2.44-.52-1.49-.79-3.12-.79-4.92h-4.48v-.89h4.48c.3-.88.59-1.78.89-2.69.88-.3,1.78-.59,2.69-.89h0Z"/>
  <path d="M922.45,414.56c4.52.04,7.88.37,11.7,3.04.6,1.24.89,2.44.89,3.59l-1.8,1.8c-2.03-.31-3.55-.87-5.39-1.8-1.38-.21-2.76-.36-4.16-.51-.74-.08-1.47-.15-2.22-.22-.56-.06-1.12-.12-1.69-.17-.3-.88-.59-1.78-.89-2.69,1.2-1.79,2.38-2.81,3.55-3.04h0v.02Z"/>
  <path d="M718.22,425.48c-.1.52-.21,1-.37,1.43,0,.04-.02.08-.04.12-.06.18-.13.36-.21.53-.44.96-1.02,1.74-1.77,2.45.04-.15.08-.28.1-.43.08-.4.12-.79.12-1.2-1.5,1.05-2.98,2.23-4.47,3.58h-1.81,0s.04-.11.07-.16c.3-.52.58-1.04.87-1.59.02-.09.06-.18.08-.27h0c.37-1.34.55-2.49.55-3.65.26-.67.44-1.36.55-2.07-.13-.87-.45-1.71-.98-2.51,0-.02,0-.04,0-.06-.02-.19-.04-.37-.08-.56-.03-.28-.06-.56-.09-.86-.02-.27-.06-.55-.08-.83l.89-.89-.35-.35-.98-.98-.45-.45c.64-.04,1.23-.06,1.8-.06h0c.64,0,1.23.03,1.78.09.03,0,.06,0,.09,0h0c1.12.13,2.02.39,2.72.77.17.09.33.19.48.3.31.42.58.83.79,1.25.13.28.26.55.35.83.02.06.04.12.07.19.55,1.64.43,3.31.36,5.39h0Z"/>
  <path d="M1155.87,430.17c.3-3.26.59-6.52.89-9.88-.27,3.26-.55,6.53-.82,9.88h-.08,0Z"/>
  <path d="M1163.05,420.3h-6.28c2.02-.08,4.12-.08,6.28,0Z"/>
  <path d="M703.49,420.3c-.31,3.35-.6,6.61-.89,9.88h-.02c.3-3.26.59-6.52.89-9.88h.02Z"/>
  <path d="M709.76,420.3c.16.16.3.31.44.46l-.44.44c-1.11-.31-2.23-.64-3.35-.96,1.1,0,2.22,0,3.35.06Z"/>
  <path d="M1319.02,430.17c-1.23.26-2.52.16-4.28,0h4.28Z"/>
  <path d="M1107.4,430.17c-.27,2.06-.55,4.12-.83,6.19-.31,2.4-.64,4.81-.98,7.27h0c-.59-.21-1.17-.4-1.79-.6-.3-.09-.59-.19-.89-.3v-5.39l-1.8,2.69v-6.28h-4.48l.89-3.59h9.89,0Z"/>
  <path d="M968.27,431.97h.89v4.48c1.48-.3,2.97-.59,4.48-.89.3-.88.59-1.78.89-2.69-.1,1.57-.21,3.15-.34,4.71-.07.87-.12,1.75-.19,2.65-.36,2.42-.94,4.01-2.17,6.1h-5.39c.6-4.79,1.2-9.58,1.8-14.36h.02Z"/>
  <path d="M802.21,415.81h17.94v4.48h-13.46v-1.8c-1.48-.3-2.97-.59-4.48-.89v-1.8h0v.02Z"/>
  <path d="M1107.4,417.61v3.59c-.93.71-2.13,1.31-3.59,1.8-3.86-1.19-6.31-2.73-7.35-4.6-.24-.55-.49-1.11-.73-1.69-1.23-.48-2.43-.79-3.59-.89,5.67-1.81,10.17-1.19,15.27,1.8h0v-.02Z"/>
  <path d="M721.43,432.87l2.69,1.8v2.69h1.8c.59-.88,1.19-1.78,1.8-2.69.59,1.78,1.19,3.55,1.8,5.39h7.18l-.89,1.8h-6.28l-1.8,3.59c-2.94-.51-4.45-1.22-6.28-3.59-.17-1.49-.23-3.04-.17-4.65.02-.8.04-1.62.08-2.45.03-.61.07-1.23.09-1.87v-.02h-.02Z"/>
  <path d="M1096.62,433.76h4.48c.3,1.19.59,2.36.89,3.59l1.8-.89v8.08c-4.5,1.02-8.06.7-12.57,0,.3-1.19.59-2.36.89-3.59,2.66-.3,5.36-.6,8.08-.89v-5.39l-3.59-.89h.02Z"/>
  <path d="M785.16,431.08h.89c-.12,2.38-.26,4.75-.4,7.12-.04.68-.07,1.36-.1,2.05-.2,3.39-.63,5.41-1.29,6.08-1.8.03-3.59.03-5.39,0-.43-2.87-.4-4.75,1.17-7.25.96-1.25,1.95-2.47,2.96-3.68.97-1.12,1.69-2.57,2.17-4.34h0Z"/>
  <path d="M863.25,415.81h21.55v4.48h-8.08v-.89h6.28v-1.8h-17.94v1.8h5.39v.89h-7.18v-4.48h-.02,0Z"/>
  <path d="M928.77,438.26l3.59,1.8v2.69c-3.65,3.4-7.66,2.92-12.37,2.79-.65-.03-1.32-.07-2-.09.47-1.16,1.07-2.35,1.8-3.59,2.06-.67,4.16-1.27,6.28-1.8.88-.59,1.78-1.19,2.69-1.8h0Z"/>
  <path d="M1112.77,415.81h5.39c1.19,3.58.96,7.04.89,10.77h-1.8l-.89,1.8c-.6-1.59-1.2-3.18-1.8-4.77-.33-.88-.67-1.77-1.01-2.69-.52-1.61-.79-3.32-.79-5.12h0Z"/>
  <path d="M771.69,417.62c-.59,1.48-1.19,2.97-1.8,4.48-.61-.12-1.23-.26-1.86-.4-1.13-.21-2.27-.42-3.41-.59.26-.26.52-.53.79-.82-.89-.02-1.77-.04-2.64-.06-.58,0-1.1.12-1.56.35-.7-.1-1.39-.21-2.09-.3,1.59-4.75,3.34-4.69,8.11-4.72h0c1.17.16,2.66.83,4.46,2.04h0Z"/>
  <path d="M1082.98,432.54c-.06.69-.1,1.39-.15,2.11-.16.49-.36.93-.64,1.32-.03.06-.07.1-.1.15-.04.07-.1.13-.16.21-.26-3.31-.07-6.49.93-9.57,0,.02,0,.04,0,.07,0,.06.02.1.03.16.35,1.8.25,3.59.07,5.56h0Z"/>
  <path d="M1186.39,422.1s-.07.1-.12.16c.03-.06.06-.1.09-.16h.02Z"/>
  <path d="M838.12,421.2h-7.18v4.48h-4.48c.3-2.66.59-5.33.89-8.08h0,9.88c-.3.58-.59,1.18-.89,1.79l1.8,1.8h0Z"/>
  <path d="M671.16,415.81c2.96-.06,5.91-.08,8.87-.12.83,0,1.69-.03,2.55-.04.8,0,1.61,0,2.44-.02.74,0,1.48-.02,2.26-.03,1.24.13,2.45.8,3.65,2h-17.94v1.8h5.39v.89h-7.18v-4.48h-.02Z"/>
  <path d="M1088.55,437.36c.49.58.96,1.14,1.46,1.74,2.52,2.2,4.23,2.45,7.52,2.75v.89c-1.78.3-3.55.59-5.39.89,2.07.3,4.14.59,6.28.89v1.8c-1.29.02-2.58.04-3.87.06-.72,0-1.44.02-2.17.03-1.35-.06-2.93-.39-4.72-.98.15-.67.3-1.34.45-2.02.37-1.76.52-3.78.45-6.06h-.02Z"/>
  <path d="M1259.2,430.51c-.03-1.61-.07-3.22-.12-4.83-.61,1.22-1.21,2.4-1.8,3.59-.31-2.14-.6-4.22-.89-6.28h-.89c-.61,3.08-.85,5.98-.91,8.97-.02,1.19,0,2.38,0,3.61.31-.61.6-1.22.89-1.8h1.8v3.59c.24-.24.46-.5.65-.74.6-.77.98-1.6,1.17-2.49,0,0,0-.02,0-.03.06-.27.1-.56.12-.86v-.24s0-.02,0-.03c-.02-.83-.04-1.64-.07-2.45h.02ZM1256.39,418.51v4.49h.89v-4.49h-.89Z"/>
  <path d="M913.51,426.58h2.69c-.3,2.97-.59,5.92-.89,8.98h-1.8c-.88,1.19-1.78,2.36-2.69,3.59v-10.77h2.69v-1.8h0Z"/>
  <path d="M1084.06,423.89c.59.88,1.19,1.78,1.8,2.69-.3.3-.59.59-.89.89.88.3,1.78.59,2.69.89-.4,3.69-.73,5.67-3.59,8.08-.59.88-1.19,1.78-1.8,2.69-.04-1.69-.08-3.41-.12-5.11-.02-.95-.04-1.89-.07-2.88.18-2.82.79-4.74,1.97-7.28h0v.02Z"/>
  <path d="M1324.61,436.45c2.07,2.07,2.24,3.12,2.81,5.94.15.74.31,1.47.45,2.22.11.56.21,1.12.33,1.69h-6.28l-.89-3.59c1.19-.3,2.36-.59,3.59-.89v-5.39h0v.02Z"/>
  <path d="M1040.98,221.03h.06s-.03,0-.06,0h0Z"/>
  <path d="M1288.71,441.85c4.05-.07,7.71-.09,11.67.89v3.59h-17.94v-.89h15.27v-1.8c-2.97-.3-5.92-.59-8.98-.89v-.89h-.02Z"/>
  <path d="M878.34,205.6l8.24.17v15.27h-.89v-14.36c-2.97.3-5.92.59-8.98.89-.26.73-.52,1.45-.79,2.18-.67,1.53-1.61,2.6-2.81,3.19.61-4.7,2.35-7.16,5.22-7.36h0Z"/>
  <path class="cls-2" d="M361.47,352h18.5c-1.05,1.26-2.11,2.52-3.19,3.83-.21-.83-.42-1.69-.64-2.55-4.84-.21-9.74-.42-14.67-.64v-.64h0Z"/>
  <path d="M711.56,435.56l1.8,3.59c.49.93.96,1.86,1.46,2.81.83,1.72,1.23,3.17,1.23,4.37h-7.18c.3-.88.59-1.78.89-2.69h.89c.3-2.66.59-5.33.89-8.08h0Z"/>
  <path d="M698.08,415.81h15.27c-3.58,1.79-4.92,2-8.75,1.9-.88,0-1.77-.03-2.69-.04-.67-.02-1.35-.04-2.04-.07v2.69h-1.8c-.3.88-.59,1.78-.89,2.69l.89-7.18h.02Z"/>
  <path d="M1275.25,417.62l-.88-1.78v-.02l-.91,1.8c0,.19,0,.39-.02.56v.06c-.08,2.27-.15,4.45.12,6.64h0c.16,1.17.4,2.33.79,3.51.59-.4,1.1-.79,1.53-1.22.87-.8,1.41-1.65,1.62-2.52.06-.74.1-1.48.16-2.21.12-1.31.21-2.61.28-3.93-.92-.31-1.81-.6-2.69-.89h0ZM1274.35,423c.31-1.52.6-3,.89-4.49.61.31,1.21.6,1.8.89-.92,1.22-1.81,2.4-2.69,3.59h0Z"/>
  <path d="M713.35,416.71c2.31,1.12,3.81,2.03,4.48,2.69.07,1.36.08,2.73.06,4.1,0,.74,0,1.48-.02,2.24,0,.57-.02,1.15-.03,1.74-.88.3-1.78.59-2.69.89-.06-.55-.12-1.09-.17-1.64-.07-.72-.15-1.44-.22-2.17-.07-.71-.15-1.41-.22-2.15-.26-1.96-.65-3.8-1.17-5.7h0Z"/>
  <path d="M1234.85,426.58h.89c.07,2.13.12,4.26.17,6.4.02.6.04,1.19.07,1.81.07,4.25-.77,7.01-2.93,10.65h5.39v.89h-6.28c.67-6.62,1.64-13.18,2.69-19.75h0Z"/>
  <path d="M1253.7,430.17l1.8,3.59h1.8c1.05,3.3.96,6.43.89,9.88-.59-1.19-1.19-2.36-1.8-3.59-.59.3-1.19.6-1.8.89-.59-.59-1.19-1.19-1.8-1.8.02-1.43.13-2.96.34-4.6.1-.82.21-1.63.31-2.48.09-.62.17-1.26.26-1.9h0Z"/>
  <path d="M1014.94,416.72l.89,1.8c-1.78.3-3.55.59-5.39.89v1.8l-2.67.88h-.02v-6.27c1.57-.79,3.16-1,4.78-1.02h.06c1.34,0,2.7.1,4.14.12l-1.79,1.79h0Z"/>
  <path d="M1104.71,416.71l3.59,1.8c-.59,1.19-1.19,2.36-1.8,3.59-3.51,0-5.73-.61-8.98-1.8v-.89c1.02-.12,2.04-.22,3.09-.34,1.05-.18,2.11-.37,3.19-.56l.89-1.8h.02Z"/>
  <path d="M1320.33,429.77l-.21.4h-1.11c.44-.09.87-.21,1.31-.4Z"/>
  <path d="M628.98,293.74c-.06.06-.12.12-.17.16-1.66.12-3.22.13-4.98.06-.62,0-1.26-.03-1.9-.04-1.54-.04-3.08-.1-4.61-.17h11.67Z"/>
  <path d="M1495.15,257.85v1.8h-7.18c-.08.55-.15,1.11-.22,1.69-.45,1.26-1.29,2.28-2.52,3.03-.57.21-1.16.44-1.74.67.28-2.67.93-3.62,2.81-5.6,3.17-1.93,5.22-1.86,8.87-1.57h0v-.02Z"/>
  <path d="M1120.85,423c.15,1.07.31,2.15.5,3.22-.39.96-.85,1.99-1.39,3.07-1.22.37-2.4.67-3.55.88,0,0-.03,0-.04,0,0-.03,0-.07.02-.1.28-1.16.58-2.3.87-3.49h1.8c-.3-3.55-.59-7.11-.89-10.77.79,1.17,1.5,2.32,2.08,3.5,0,0,0,.02,0,.03.52,1.04.92,2.12,1.13,3.25-.08.03-.15.08-.21.13-.12.08-.24.17-.33.26h0Z"/>
  <path d="M605.7,229.03c0,.98.02,1.96.03,2.97,0,.24-.02.46-.04.69,0,0-.03,0-.04,0v-8.94c0,.76.02,1.52.03,2.3,0,.98,0,1.97.02,2.98h0Z"/>
  <polygon points="607.44 223.75 605.65 223.75 605.65 223.73 607.44 223.73 607.44 223.75"/>
  <path d="M841.88,428.49c-.02.82-.04,1.63-.08,2.48-.03.58-.07,1.17-.08,1.78,0,.04,0,.08,0,.12h-1.21c.16-.98.33-1.96.5-2.94.22-1.41.46-2.81.7-4.23h.16c.04.88.06,1.83.02,2.8h0Z"/>
  <path class="cls-8" d="M397.84,350.72l1.28.64c-2.17,2.54-4.68,3.74-7.65,5.11v-1.92c.9-.69,1.93-1.39,3.12-2.07.57-.35,1.16-.69,1.75-1.04.5-.23,1-.47,1.52-.71h-.02Z"/>
  <path class="cls-15" d="M284.25,246.08h1.28c.16,1.94-.17,3.39-.96,4.35-.31.25-.64.5-.96.76,1.26.21,2.54.42,3.83.64v.64h-5.74c.6-2.39,1.43-4.22,2.55-6.39h0Z"/>
  <path class="cls-6" d="M306.59,199.48c.42.64.83,1.26,1.28,1.92-1.26,2.32-2.52,4.63-3.83,7.02h-1.28c.95-3.17,2.3-6.01,3.83-8.93h0Z"/>
  <path d="M1014.94,441.85c-.64,1.2-1.53,2.4-2.69,3.59-2.21.15-4.3.15-6.28,0,.41-1.17,1.02-2.36,1.8-3.59,2.96-.98,4.19-1,7.18,0h0Z"/>
  <path d="M1068.07,414.86c.8,0,1.62,0,2.45.02.61,0,1.23.02,1.87.03l-3.59,1.8v1.8c-2.07.3-4.14.59-6.28.89v-1.8c-.59-.59-1.19-1.19-1.8-1.8,2.7-.91,4.53-.98,7.35-.95h0Z"/>
  <path d="M1065.21,415.81c1.13-.03,2.26-.08,3.42-.12.64-.02,1.26-.04,1.93-.07,1.22.12,2.74.77,4.53,1.97-.3.59-.59,1.19-.89,1.8-1.19-.3-2.36-.59-3.59-.89v1.8c-1.48-.3-2.97-.59-4.48-.89.88-.3,1.78-.59,2.69-.89v-1.8l-3.59-.89h0l-.02-.02Z"/>
  <path d="M751.95,421.2c1.2,1.79,2.06,3.61,2.58,5.45s1.48,3.07,2.87,3.7c.58.24,1.14.49,1.74.73l.89,2.69c-3.96-1.22-5.94-2.72-8.08-6.28-.15-2.28-.15-4.37,0-6.28h0,0Z"/>
  <path d="M867.73,434.67h.89c.74,3.82.77,6.62.12,8.41-.67.98-1.31,1.76-1.9,2.36h5.39v.89h-6.28c.55-3.89,1.13-7.79,1.8-11.67h-.02Z"/>
  <path d="M1259.27,433.01v.22c-.02.3-.07.59-.12.86.03-.36.08-.73.12-1.09h0Z"/>
  <path d="M1264.47,434.66c-.1-.03-.21-.07-.31-.09,0,0-.02,0-.04-.02-.02-.06-.03-.12-.03-.17,0-.04,0-.05,0-.02-.16-.79-.31-1.57-.48-2.38,0,0,0,0,.02,0,.3.79.55,1.65.86,2.69h0Z"/>
  <path d="M713.35,431.97h-3.59s0-.02,0-.02c.02-.04.04-.1.07-.15.31-.64.62-1.26.95-1.86h0c.5-.92,1.03-1.77,1.61-2.61.56-.85,1.17-1.69,1.84-2.54l.65,1.31v.02h0l1,1.98.13.27c-1.5,1.05-2.98,2.23-4.47,3.58h1.79Z"/>
  <path d="M1032.9,415.81h6.28v1.8h-4.48c-.3,2.36-.59,4.74-.89,7.18h-.89v-8.98h-.02Z"/>
  <path class="cls-9" d="M302.77,337.33c.64.42,1.26.83,1.92,1.28-1.83,2.09-3.5,3.22-4.98,3.39-.46-.07-.93-.13-1.39-.21l4.46-4.46h0Z"/>
  <path class="cls-3" d="M261.93,274.15l1.28.64c-1,2.44-2.57,3.95-4.46,5.74.28-.95.58-1.89.87-2.83.16-.52.33-1.05.5-1.6.36-.88.97-1.53,1.83-1.96h0Z"/>
  <path d="M1122.65,434.67h.89c.02,1.29.04,2.58.06,3.88,0,.71.02,1.44.03,2.17-.06,1.35-.39,2.93-.98,4.72h-5.39l.89-2.69c.88.3,1.78.59,2.69.89.59-2.97,1.19-5.92,1.8-8.98h0Z"/>
  <path d="M1107.4,430.16h0c-.27,2.07-.55,4.13-.83,6.21-.02.03-.06.06-.08.09.3-2.07.59-4.14.89-6.28h-9.86,9.88s0-.02,0-.02Z"/>
  <path d="M918.01,416.71l1.8.89c-.3,1.48-.59,2.97-.89,4.48-1.78.3-3.55.59-5.39.89,1.17-2.6,2.39-4.37,4.48-6.28h0v.02Z"/>
  <path d="M688.64,244.32c1.65,0,3.31.02,4.96.04h-10.77v-.06c1.26,0,2.51,0,3.77,0,.67,0,1.35,0,2.04,0h0Z"/>
  <path d="M1273.45,424.79c.9.67,1.79,1.57,2.69,2.69.12,1.91.12,3.7,0,5.39-.88.3-1.78.59-2.69.89-.17-1.32-.34-2.65-.51-3.98-.09-.74-.19-1.48-.28-2.24-.03-.61-.07-1.22-.12-1.86l.89-.89h.02Z"/>
  <path d="M924.62,414.75c.71,0,1.41-.02,2.15-.03,1.34.13,2.9.8,4.69,2-1.26.21-2.54.39-3.82.56-.71.1-1.41.21-2.15.31-2.41.02-3.67-.55-5.7-1.78,1.41-1.41,2.87-1.05,4.83-1.07h0Z"/>
  <path d="M1497.85,270.4c.59.88,1.19,1.78,1.8,2.69-.86,1.2-2.06,2.4-3.59,3.59-2.72.31-5.36.21-8.08,0v-.89h7.18c.12-.55.22-1.11.34-1.69.38-1.26,1.17-2.5,2.36-3.7h-.02Z"/>
  <path d="M1216.01,442.74c.53.15,1.07.3,1.63.45,1.37.36,2.93.51,4.65.45.3.88.59,1.78.89,2.69h-7.18v-3.59h0v-.02Z"/>
  <path d="M1256.39,416.71c1.64-.22,3.44-.22,5.39,0,1.42,1.79,2.61,3.6,3.59,5.39-.59,1.19-1.19,2.36-1.8,3.59-.14-.5-.29-1.02-.43-1.54-.64-1.99-1.26-3.8-2.26-5.64-1.54-.68-3.03-.98-4.48-.89v-.89h0v-.02Z"/>
  <path d="M941.34,440.95h1.8c-.3,1.78-.59,3.55-.89,5.39h-6.28c.3-1.19.59-2.36.89-3.59v2.69h3.59c.3-1.48.59-2.97.89-4.48h0v-.02Z"/>
  <path d="M869.53,440.95h3.59v4.48h-6.28c1.12-2.31,2.03-3.81,2.69-4.48h0Z"/>
  <path d="M1058.92,416.71l1.8.89c-.83,1.03-1.68,2.06-2.52,3.09-.47.57-.94,1.15-1.41,1.74-.96.98-2.34,1.76-4.13,2.36,1.39-3.43,3.62-5.56,6.28-8.08h-.02Z"/>
  <path d="M830.04,245.27c-1.78.3-3.55.59-5.39.89-.3.88-.59,1.78-.89,2.69l-2.69.89c-.88-.59-1.78-1.19-2.69-1.8,1.26-.64,2.54-1.25,3.82-1.86.71-.34,1.41-.69,2.15-1.04,2.36-.77,3.42-.64,5.7.21h0v.02Z"/>
  <path class="cls-12" d="M293.19,352h5.74c-.83.21-1.69.42-2.55.64.42.83.83,1.69,1.28,2.55h-1.92c-.93-1.07-1.78-2.13-2.55-3.19h-.02Z"/>
  <path d="M928.77,438.26c1.26.56,2.46,1.16,3.59,1.8v2.69c-1.48.59-2.97,1.19-4.48,1.8.18-.55.37-1.11.56-1.69.12-.64.22-1.26.34-1.9-.59-.59-1.19-1.19-1.8-1.8l1.8-.89h0v-.02Z"/>
  <path d="M1032,419.4h.89c.68,3.84,1.22,7.02,0,10.77-.88,1.19-1.78,2.36-2.69,3.59.59-4.74,1.19-9.48,1.8-14.36h0Z"/>
  <path class="cls-10" d="M405.5,348.17v1.28c-2.17,1.34-3.86,1.39-6.39,1.28,2.22-1.69,4.35-2.55,6.39-2.55h0v-.02Z"/>
  <path d="M1188.19,431.97v1.8h0c-.04-.65-.1-1.31-.15-1.97.06.06.1.12.16.17h0Z"/>
  <path class="cls-7" d="M379.34,364.76c.21.64.42,1.26.64,1.92-1.83,1.93-3.34,3.36-5.74,4.46.61-.83,1.22-1.65,1.83-2.47.34-.46.68-.92,1.03-1.39.64-.83,1.39-1.67,2.24-2.51h0Z"/>
  <path d="M931.46,416.71l-1.8,3.59c-2.36-.59-4.74-1.19-7.18-1.8,3.27-2.18,5.13-1.93,8.98-1.8h0v.02Z"/>
  <path class="cls-1" d="M286.81,467.49l1.28.64c-.21.83-.42,1.69-.64,2.55h-4.46c1.23-1.29,2.32-2.18,3.83-3.19h0Z"/>
  <path d="M841.7,437.36c-.56-.28-1.16-.56-1.74-.87-.02,0-.03,0-.06-.02.15-.88.3-1.77.44-2.66h0c.06-.31.1-.62.16-.93.16-.98.33-1.96.5-2.94.22-1.41.46-2.81.7-4.23h.89c.91,4.51.87,7.39-.89,11.66h0Z"/>
  <path d="M1265.37,435.56c.59.3,1.19.59,1.8.89h-2.69c-.12-.64-.25-1.26-.37-1.92-.02-.06-.03-.12-.03-.17,0-.04,0-.05,0-.02-.16-.79-.31-1.57-.48-2.38,0,0,0,0,.02,0,.87-.59,1.75-1.17,2.66-1.79l1.8,3.59c-.88.59-1.78,1.19-2.69,1.8h0Z"/>
  <path d="M919.79,420.3c.88.3,1.78.59,2.69.89-.88.3-1.78.59-2.69.89-.67,1.09-1.27,2.29-1.8,3.59-.6,1.2-1.2,2.39-1.8,3.59.37-3.9,1.13-6.58,2.3-8.03.42-.31.85-.64,1.29-.95h0v.02Z"/>
  <path d="M712.46,418.51l-2.69,2.69c-1.11-.31-2.23-.64-3.35-.96-.98-.27-1.95-.55-2.93-.83v-.89c2.84-.58,5.08-.98,7.72-.36.4.09.83.21,1.26.36h0Z"/>
  <path d="M682.83,245.27l-3.59,1.8c-.59.37-1.19.74-1.8,1.12-1.2.45-2.47.41-3.82-.12-.52-.33-1.04-.67-1.57-1.01,1.12-.48,2.24-.94,3.36-1.41.62-.26,1.25-.52,1.89-.79,2.18-.56,3.4-.33,5.51.4h0Z"/>
  <path d="M711.55,432.86v.06c.19.71.39,1.41.6,2.09h0"/>
  <polygon points="713.35 431.97 713.35 431.97 711.55 431.97 711.57 431.97 713.35 431.97"/>
  <path d="M1286.92,418.51c.88.3,1.78.59,2.69.89l-2.69,7.18h-.89c-.06-3.69-.06-6.08,0-7.18l.89-.89Z"/>
  <path d="M1176.53,232.7c-.24.06-.48.12-.71.21l-.21-.21h.92Z"/>
  <path class="cls-13" d="M412.52,275.43c1.48,1.83,2.39,3.53,3.19,5.74-1.27-.42-2.29-1.26-3.03-2.51-.26-.64-.52-1.29-.79-1.96l.64-1.28h0Z"/>
  <path d="M751.05,439.15c2.97.88,5.92,1.78,8.98,2.69v.89c-2.97-.3-5.92-.59-8.98-.89v-2.69Z"/>
  <path d="M1154.04,435.56h0s0,.09,0,.13v-.13Z"/>
  <path d="M1158.55,435.56s-.09.04-.13.07h0c-1.09.07-2.22.06-3.44-.02-.3,0-.59-.02-.89-.04h4.48,0Z"/>
  <path d="M912.62,422.1l1.8.89c-.59,1.78-1.19,3.55-1.8,5.39h-1.8c.52-3.52,1.12-5.61,1.8-6.28h0Z"/>
  <path d="M1076.31,234.66c-.27.15-.55.31-.83.48.18-.27.34-.49.5-.64l.33.17h0Z"/>
  <path d="M875.81,205.78l1.8.89c-1.64,3.52-3.14,5.61-4.48,6.28.45-3.44,1.35-5.84,2.69-7.18h-.02Z"/>
</svg>