<?xml version="1.0" encoding="UTF-8"?>
<svg id="Layer_1" data-name="Layer 1" xmlns="http://www.w3.org/2000/svg" viewBox="0 0 1600 600">
  <defs>
    <style>
      .cls-1 {
        fill: #044f89;
      }

      .cls-2 {
        fill: #004c87;
      }

      .cls-3 {
        fill: #004c88;
      }

      .cls-4 {
        fill: #054f8a;
      }

      .cls-5 {
        fill: #014d88;
      }

      .cls-6 {
        fill: #024d88;
      }

      .cls-7 {
        fill: #fefefe;
      }

      .cls-8 {
        fill: #014c88;
      }
    </style>
  </defs>
  <g id="Layer_1-2" data-name="Layer 1-2">
    <g>
      <g>
        <path class="cls-7" d="M323.78,301.93c-1.49,7.29-5.6,12.95-11.35,17.09-11.09,7.74-25.26,9.11-38.86,6.94,2.18-15.31,7.63-28.66,8.11-44.44.76-4.76.93-9.52,3.11-13.84,3.14-6.23,13.04-6.53,12.05-14.56h-46.41c-2.77,7.16,5.71,7.7,4.69,12.54l-13.43,64.77c-4.26,2.94-9.6,1.36-8.5,7.33,13.21,1.28,25.97,1.58,39.36,1.6l51.26.06,4.97-22.64,3.55-14.92-8.59.04.04.02ZM323.78,301.93c-1.49,7.29-5.6,12.95-11.35,17.09-11.09,7.74-25.26,9.11-38.86,6.94,2.18-15.31,7.63-28.66,8.11-44.44.76-4.76.93-9.52,3.11-13.84,3.14-6.23,13.04-6.53,12.05-14.56h-46.41c-2.77,7.16,5.71,7.7,4.69,12.54l-13.43,64.77c-4.26,2.94-9.6,1.36-8.5,7.33,13.21,1.28,25.97,1.58,39.36,1.6l51.26.06,4.97-22.64,3.55-14.92-8.59.04.04.02ZM323.78,301.93c-1.49,7.29-5.6,12.95-11.35,17.09-11.09,7.74-25.26,9.11-38.86,6.94,2.18-15.31,7.63-28.66,8.11-44.44.76-4.76.93-9.52,3.11-13.84,3.14-6.23,13.04-6.53,12.05-14.56h-46.41c-2.77,7.16,5.71,7.7,4.69,12.54l-13.43,64.77c-4.26,2.94-9.6,1.36-8.5,7.33,13.21,1.28,25.97,1.58,39.36,1.6l51.26.06,4.97-22.64,3.55-14.92-8.59.04.04.02ZM323.78,301.93c-1.49,7.29-5.6,12.95-11.35,17.09-11.09,7.74-25.26,9.11-38.86,6.94,2.18-15.31,7.63-28.66,8.11-44.44.76-4.76.93-9.52,3.11-13.84,3.14-6.23,13.04-6.53,12.05-14.56h-46.41c-2.77,7.16,5.71,7.7,4.69,12.54l-13.43,64.77c-4.26,2.94-9.6,1.36-8.5,7.33,13.21,1.28,25.97,1.58,39.36,1.6l51.26.06,4.97-22.64,3.55-14.92-8.59.04.04.02ZM438,274.45c-6.27-42.5-29.54-79.98-64.49-104.74-15.05-10.64-31.47-18.32-49.55-22.64-26.28-6.27-53.42-6.68-79.81-.65-38.52,8.85-72.5,31.62-94.62,64.41-11.66,17.26-20.03,36.68-23.79,57.31-4.59,25.13-3.18,50.91,3.44,75.44,10.97,40.53,37.65,74.64,74.57,94.69,30.62,16.63,66.59,23.38,101.61,17.6,63.54-10.49,120.34-60.06,131.99-124.03,3.48-19.14,3.46-38.28.65-57.4v.02ZM184.26,213.39c3.68-4.28,7.79-7.92,12.44-11.25,9.28-6.66,18.6-12.65,28.74-17.97,16.83-8.82,35.19-12.65,54.93-11.55-35.4,23.47-61.66,50.54-71.37,92.54-2.31,9.41-3.35,18.36-4.11,28.48-16-12.74-22.08-33.05-24.94-52.71-1.36-9.41-1.62-20.61,4.33-27.53l-.02-.02ZM271.34,388.49c-13.5,10.84-50.74,24.66-63.93,17.8-6.03-3.14-10.73-7.85-15.12-13.08-9.69-11.55-18.25-23.64-25.67-36.79-9.13-16.18-12.63-33.74-11.79-52.68,26.84,46.52,65.7,72.47,119.04,79.46.32,2.44-.89,4.02-2.51,5.32l-.02-.02ZM269.04,368.55c-38.28-8-61.88-45.35-54.11-83.35,4.22-20.65,17.17-38.04,36.83-46.63,16.16-7.05,34.28-8.37,51.26-3.48,24.5,7.05,42.3,27.06,46.63,52.17,4.39,25.39-4.46,51.6-24.96,68.06-15.66,12.61-36.46,17.24-55.67,13.24h.02ZM388.12,370.56c-4.65,14.36-29.44,33.31-43.41,41.68-14.94,8.02-30.84,12.98-48.4,14.77,10.12-7.89,19.62-15.2,28.2-24.29,10.34-10.77,18.88-22.38,25.78-35.66,9.13-17.86,14.17-36.75,16.46-57.2l11.42,18.17c4.09,6.51,7.25,13.08,9.45,20.46,1.86,7.27,2.85,14.81.5,22.06v.02ZM408.26,288.31c-7.59-9.88-15.12-19.42-24.24-28.14-25.72-24.5-55.24-36.31-90.79-38.89,2.9-4.24,6.21-7.22,10.34-9.91,13.11-8.54,28.27-13.78,43.88-15.27,7.92-.76,14.27,1.73,19.88,6.99,6.77,6.36,12.2,13.65,17.37,21.45,5.64,8.5,10.86,16.76,15.05,26.08,5.13,11.81,8.78,23.81,8.52,37.65v.02ZM332.37,301.91l-8.59.04c-1.49,7.29-5.6,12.95-11.35,17.09-11.09,7.74-25.26,9.11-38.86,6.94,2.18-15.31,7.63-28.66,8.11-44.44.76-4.76.93-9.52,3.11-13.84,3.14-6.23,13.04-6.53,12.05-14.56h-46.41c-2.77,7.16,5.71,7.7,4.69,12.54l-13.43,64.77c-4.26,2.94-9.6,1.36-8.5,7.33,13.21,1.28,25.97,1.58,39.36,1.6l51.26.06,4.97-22.64,3.55-14.92.04.02ZM323.78,301.93c-1.49,7.29-5.6,12.95-11.35,17.09-11.09,7.74-25.26,9.11-38.86,6.94,2.18-15.31,7.63-28.66,8.11-44.44.76-4.76.93-9.52,3.11-13.84,3.14-6.23,13.04-6.53,12.05-14.56h-46.41c-2.77,7.16,5.71,7.7,4.69,12.54l-13.43,64.77c-4.26,2.94-9.6,1.36-8.5,7.33,13.21,1.28,25.97,1.58,39.36,1.6l51.26.06,4.97-22.64,3.55-14.92-8.59.04.04.02ZM323.78,301.93c-1.49,7.29-5.6,12.95-11.35,17.09-11.09,7.74-25.26,9.11-38.86,6.94,2.18-15.31,7.63-28.66,8.11-44.44.76-4.76.93-9.52,3.11-13.84,3.14-6.23,13.04-6.53,12.05-14.56h-46.41c-2.77,7.16,5.71,7.7,4.69,12.54l-13.43,64.77c-4.26,2.94-9.6,1.36-8.5,7.33,13.21,1.28,25.97,1.58,39.36,1.6l51.26.06,4.97-22.64,3.55-14.92-8.59.04.04.02Z"/>
        <g>
          <path class="cls-2" d="M323.78,301.93c-1.49,7.29-5.6,12.95-11.35,17.09-11.09,7.74-25.26,9.11-38.86,6.94,2.18-15.31,7.63-28.66,8.11-44.44.76-4.76.93-9.52,3.11-13.84,3.14-6.23,13.04-6.53,12.05-14.56h-46.41c-2.77,7.16,5.71,7.7,4.69,12.54l-13.43,64.77c-4.26,2.94-9.6,1.36-8.5,7.33,13.21,1.28,25.97,1.58,39.36,1.6l51.26.06,4.97-22.64,3.55-14.92-8.59.04.04.02ZM323.78,301.93c-1.49,7.29-5.6,12.95-11.35,17.09-11.09,7.74-25.26,9.11-38.86,6.94,2.18-15.31,7.63-28.66,8.11-44.44.76-4.76.93-9.52,3.11-13.84,3.14-6.23,13.04-6.53,12.05-14.56h-46.41c-2.77,7.16,5.71,7.7,4.69,12.54l-13.43,64.77c-4.26,2.94-9.6,1.36-8.5,7.33,13.21,1.28,25.97,1.58,39.36,1.6l51.26.06,4.97-22.64,3.55-14.92-8.59.04.04.02ZM323.78,301.93c-1.49,7.29-5.6,12.95-11.35,17.09-11.09,7.74-25.26,9.11-38.86,6.94,2.18-15.31,7.63-28.66,8.11-44.44.76-4.76.93-9.52,3.11-13.84,3.14-6.23,13.04-6.53,12.05-14.56h-46.41c-2.77,7.16,5.71,7.7,4.69,12.54l-13.43,64.77c-4.26,2.94-9.6,1.36-8.5,7.33,13.21,1.28,25.97,1.58,39.36,1.6l51.26.06,4.97-22.64,3.55-14.92-8.59.04.04.02ZM323.78,301.93c-1.49,7.29-5.6,12.95-11.35,17.09-11.09,7.74-25.26,9.11-38.86,6.94,2.18-15.31,7.63-28.66,8.11-44.44.76-4.76.93-9.52,3.11-13.84,3.14-6.23,13.04-6.53,12.05-14.56h-46.41c-2.77,7.16,5.71,7.7,4.69,12.54l-13.43,64.77c-4.26,2.94-9.6,1.36-8.5,7.33,13.21,1.28,25.97,1.58,39.36,1.6l51.26.06,4.97-22.64,3.55-14.92-8.59.04.04.02ZM438,274.45c-6.27-42.5-29.54-79.98-64.49-104.74-15.05-10.64-31.47-18.32-49.55-22.64-26.28-6.27-53.42-6.68-79.81-.65-38.52,8.85-72.5,31.62-94.62,64.41-11.66,17.26-20.03,36.68-23.79,57.31-4.59,25.13-3.18,50.91,3.44,75.44,10.97,40.53,37.65,74.64,74.57,94.69,30.62,16.63,66.59,23.38,101.61,17.6,63.54-10.49,120.34-60.06,131.99-124.03,3.48-19.14,3.46-38.28.65-57.4v.02ZM184.26,213.39c3.68-4.28,7.79-7.92,12.44-11.25,9.28-6.66,18.6-12.65,28.74-17.97,16.83-8.82,35.19-12.65,54.93-11.55-35.4,23.47-61.66,50.54-71.37,92.54-2.31,9.41-3.35,18.36-4.11,28.48-16-12.74-22.08-33.05-24.94-52.71-1.36-9.41-1.62-20.61,4.33-27.53l-.02-.02ZM271.34,388.49c-13.5,10.84-50.74,24.66-63.93,17.8-6.03-3.14-10.73-7.85-15.12-13.08-9.69-11.55-18.25-23.64-25.67-36.79-9.13-16.18-12.63-33.74-11.79-52.68,26.84,46.52,65.7,72.47,119.04,79.46.32,2.44-.89,4.02-2.51,5.32l-.02-.02ZM269.04,368.55c-38.28-8-61.88-45.35-54.11-83.35,4.22-20.65,17.17-38.04,36.83-46.63,16.16-7.05,34.28-8.37,51.26-3.48,24.5,7.05,42.3,27.06,46.63,52.17,4.39,25.39-4.46,51.6-24.96,68.06-15.66,12.61-36.46,17.24-55.67,13.24h.02ZM388.12,370.56c-4.65,14.36-29.44,33.31-43.41,41.68-14.94,8.02-30.84,12.98-48.4,14.77,10.12-7.89,19.62-15.2,28.2-24.29,10.34-10.77,18.88-22.38,25.78-35.66,9.13-17.86,14.17-36.75,16.46-57.2l11.42,18.17c4.09,6.51,7.25,13.08,9.45,20.46,1.86,7.27,2.85,14.81.5,22.06v.02ZM408.26,288.31c-7.59-9.88-15.12-19.42-24.24-28.14-25.72-24.5-55.24-36.31-90.79-38.89,2.9-4.24,6.21-7.22,10.34-9.91,13.11-8.54,28.27-13.78,43.88-15.27,7.92-.76,14.27,1.73,19.88,6.99,6.77,6.36,12.2,13.65,17.37,21.45,5.64,8.5,10.86,16.76,15.05,26.08,5.13,11.81,8.78,23.81,8.52,37.65v.02ZM332.37,301.91l-8.59.04c-1.49,7.29-5.6,12.95-11.35,17.09-11.09,7.74-25.26,9.11-38.86,6.94,2.18-15.31,7.63-28.66,8.11-44.44.76-4.76.93-9.52,3.11-13.84,3.14-6.23,13.04-6.53,12.05-14.56h-46.41c-2.77,7.16,5.71,7.7,4.69,12.54l-13.43,64.77c-4.26,2.94-9.6,1.36-8.5,7.33,13.21,1.28,25.97,1.58,39.36,1.6l51.26.06,4.97-22.64,3.55-14.92.04.02ZM323.78,301.93c-1.49,7.29-5.6,12.95-11.35,17.09-11.09,7.74-25.26,9.11-38.86,6.94,2.18-15.31,7.63-28.66,8.11-44.44.76-4.76.93-9.52,3.11-13.84,3.14-6.23,13.04-6.53,12.05-14.56h-46.41c-2.77,7.16,5.71,7.7,4.69,12.54l-13.43,64.77c-4.26,2.94-9.6,1.36-8.5,7.33,13.21,1.28,25.97,1.58,39.36,1.6l51.26.06,4.97-22.64,3.55-14.92-8.59.04.04.02ZM323.78,301.93c-1.49,7.29-5.6,12.95-11.35,17.09-11.09,7.74-25.26,9.11-38.86,6.94,2.18-15.31,7.63-28.66,8.11-44.44.76-4.76.93-9.52,3.11-13.84,3.14-6.23,13.04-6.53,12.05-14.56h-46.41c-2.77,7.16,5.71,7.7,4.69,12.54l-13.43,64.77c-4.26,2.94-9.6,1.36-8.5,7.33,13.21,1.28,25.97,1.58,39.36,1.6l51.26.06,4.97-22.64,3.55-14.92-8.59.04.04.02Z"/>
          <g>
            <path class="cls-7" d="M332.37,301.91l-3.55,14.92-4.97,22.64-51.26-.06c-13.39-.02-26.15-.32-39.36-1.6-1.1-5.97,4.24-4.39,8.5-7.33l13.43-64.77c.99-4.84-7.46-5.39-4.69-12.57h46.41c.99,8.02-8.91,8.33-12.05,14.56-2.18,4.33-2.36,9.08-3.11,13.84-.48,15.77-5.95,29.11-8.11,44.44,13.6,2.18,27.79.8,38.86-6.94,5.75-4.13,9.86-9.82,11.35-17.09l8.59-.04h-.04Z"/>
            <path class="cls-2" d="M332.37,301.91l-3.55,14.92-4.97,22.64-51.26-.06c-13.39-.02-26.15-.32-39.36-1.6-1.1-5.97,4.24-4.39,8.5-7.33l13.43-64.77c.99-4.84-7.46-5.39-4.69-12.57h46.41c.99,8.02-8.91,8.33-12.05,14.56-2.18,4.33-2.36,9.08-3.11,13.84-.48,15.77-5.95,29.11-8.11,44.44,13.6,2.18,27.79.8,38.86-6.94,5.75-4.13,9.86-9.82,11.35-17.09l8.59-.04h-.04Z"/>
          </g>
        </g>
      </g>
      <g>
        <g>
          <polygon class="cls-8" points="872.24 364.91 845.55 364.96 817.37 327.22 816.33 364.98 800.5 364.94 800.54 314.11 828.01 314.74 855.91 353.19 856.27 314.11 872.17 314.11 872.24 364.91"/>
          <path class="cls-8" d="M1052.28,364.91l-27.12-.28-27.9-37.83-.89,37.68c-5.06.97-9.69.93-15.72.32l.04-50.69,27.42.74,27.79,38.3.67-39.02,15.51.17.22,50.59-.02.02Z"/>
          <path class="cls-6" d="M1212.63,354.29l.06,10.81h-56.88l-.04-40.98c0-5.62,4.41-9.56,9.71-10.06l46.89.09c.74,4,.76,7.12-.04,10.94l-40.08.11c-1.23,2.75-1.15,5.71-.22,8.3l37.68-.04c.67,2.9,1.21,5.26.06,10.92l-37.13.19c-1.88,1.69-1.92,7.48,0,9.39l39.99.32Z"/>
          <path class="cls-6" d="M1140.78,347.22c.76,4.43,1.49,14.1-2.94,17.24l-63.71.71c-4.2.04-7.25-2.96-7.25-7.01l.04-37.59c0-3.09,2.53-6.49,5.99-6.47l64.49.71c5.04,2.23,4.46,13.63,3.01,17.35l-16.29.19.09-11.03-40.27.06.28,36.51,39.38.15.48-10.94,16.67.09.02.02Z"/>
          <path class="cls-5" d="M759.53,347.98l-43.88.15-.56,16.85h-15.7l.26-38.39c.04-6.77,5.49-12.28,12.33-12.31l47.54-.3c1.12,3.91,1.28,7.59.19,12.11l-44.21.06c-.48,3.61-.45,6.29.37,9.8l43.19.04c1.92,4.15,1.71,7.68.43,11.98h.04Z"/>
          <path class="cls-1" d="M788.52,364.72c-6.42.76-11.55.67-17.37-.17v-50.2l17.22-.24.15,50.61Z"/>
          <path class="cls-8" d="M941.01,314.33h-25.15l-26.13,50.74,17.45-.3,4.71-8.13h33.5l4.07,8.24h17.26l-25.67-50.54h-.04ZM916.77,345.45l10.84-20.94c6.1,6.68,8.37,13.41,11.51,20.91h-22.34v.02Z"/>
        </g>
        <g>
          <polygon class="cls-5" points="654.58 284.46 628.28 284.85 600.7 247.69 599.88 284.72 584.5 284.91 584.46 235.36 611.04 235.75 638.59 273.02 639.05 235.23 654.38 235.43 654.58 284.46"/>
          <path class="cls-8" d="M1403.62,284.48l-26.45.24-27.6-37.22-.91,37.05c-5.34.89-9.65.91-15.25,0l-.06-49.09,26.36.3,27.73,37.22.61-37.78h15.49l.09,49.29Z"/>
          <path class="cls-8" d="M1110.12,275.51l.04,10.71-55.54-.06v-40.1c0-6.12,5.64-9.82,11.29-9.8l44.23.11v10.73h-40.16v8.3l37.18.22c.95,3.55,1.21,6.19-.09,10.47l-35.92.22c-1.97,1.32-1.84,6.53-.95,9.06l39.92.19v-.04Z"/>
          <path class="cls-8" d="M543.13,284.26c-5.56,1.41-9.71.84-15.72.63l-.15-17.45-34.97-.35-.67,17.84-15.18-.19.04-49.27c5.13-.97,10.88-.74,13.6,3.27,2.96,4.35,1.62,10.01,1.75,15.36h35.51c.09-5.71-1.06-11.77,2.62-16.11,3.05-3.63,9.17-3.48,13.02-2.23l.15,48.49v.02Z"/>
          <path class="cls-5" d="M813.43,235.43v41.72c0,4.2-3.91,7.74-8.24,7.74l-48.34.06c-4.33,0-8.43-3.44-8.46-7.83l-.28-41.91h14.32l.11,40.18h36.85l-.06-39.84,14.08-.15.02.02Z"/>
          <path class="cls-6" d="M1161.09,267.22c-3.27,4.02-.52,12.05-.78,17.15-5.3,1.15-9.99.87-15.57.43l-.32-17.71-27.45-31.32,18.47-.5,17.09,19.68c6.57-6.51,9.6-15.05,16.55-18.82,5.3-2.83,13.32-.22,18.1-.99,0,0-26.08,32.07-26.08,32.07Z"/>
          <path class="cls-6" d="M1245.57,284.87l-51.08.11.11-49.4c5.95-1.64,14.56-.22,14.66,5.69l.67,31.71,34.78.04c1.67,3.31,1.08,7.16.87,11.85Z"/>
          <path class="cls-5" d="M868.15,275.74c0,5.26-3.7,9.62-9.39,9.23-10.42-.71-21.61,1.82-33.03-1.19-7.14-1.9-5.82-14.77-4.41-19.79l12.39-.35.11,11.77,19.9-.04.09-40.14h14.17l.15,40.53.02-.02Z"/>
          <path class="cls-3" d="M1044.43,284.91l-50.48-.04.26-48.51c4.2-3.37,14.49-.89,14.66,5.36l.71,31.32,34.26.54c2.01,2.53,1.73,8.02.61,11.33h-.02Z"/>
          <path class="cls-4" d="M572.85,284.29c-5.49,1.38-10.36.8-16.93.58l-.04-49.44,16.87-.22.11,49.07Z"/>
          <path class="cls-8" d="M1300.11,235.15l-24.2.3-25.41,48.99c20.14,4.65,19.42-7.46,22.56-7.46h31.19c1.45,2.62,2.81,7.09,4.74,7.5,5.64,1.17,10.58.8,16.65.06,0,0-25.52-49.4-25.52-49.4ZM1276.89,266.14l10.73-20.89,10.71,20.42-21.43.48h0Z"/>
          <path class="cls-5" d="M1476.86,248.82c.15-7.53-5.21-13.56-12.74-13.56h-52.43l.04,49.79,52.77-.04c7.27-.22,12.78-5.45,12.41-13.73,0,0-.06-22.45-.06-22.45ZM1458.06,272.54l-31.99.61-.04-25.46,29.22-.11c2.38,0,4.74,1.15,5.73,2.21,3.48,3.68,3.42,22.64-2.92,22.75h0Z"/>
          <path class="cls-8" d="M735.18,248.95c-.24-8.05-6.14-13.78-14.08-13.8h-51.34l.26,49.89,51.26-.04c7.72.19,13.82-5.23,14.01-13.8l-.13-22.25h.02ZM713.4,272.98l-29,.17-.26-25.69,31.06.5c5.67.09,5.67,6.99,5.8,12.35.15,6.92-1.19,12.63-7.61,12.67h.02Z"/>
          <path class="cls-8" d="M932.88,235.45l-24.46.04-25.24,48.92c6.38,1.1,10.64.91,16.65.11,1.23-2.12,2.66-6.47,5.41-7.42,10.21-.24,21.76-1.47,32.07.76,1.45,1.28,2.64,7.18,5.47,7.07l15.18-.54-25.09-48.94h0ZM909.72,265.77l10.14-20.33c5.69,5.71,6.83,10.73,11.14,19.94l-21.28.39Z"/>
        </g>
      </g>
    </g>
  </g>
</svg>