<svg width="100" height="100" viewBox="0 0 100 100" fill="none" xmlns="http://www.w3.org/2000/svg">
<path d="M60.3961 72.6209C60.3249 72.1246 60.0772 71.6707 59.6983 71.3424C59.3195 71.014 58.8349 70.8333 58.3336 70.8334H41.6669C41.1656 70.8333 40.6811 71.014 40.3022 71.3424C39.9234 71.6707 39.6756 72.1246 39.6044 72.6209L37.5211 87.2042C37.4787 87.4998 37.5003 87.801 37.5846 88.0875C37.6688 88.374 37.8136 88.6391 38.0092 88.8647C38.2048 89.0903 38.4466 89.2713 38.7182 89.3953C38.9899 89.5193 39.285 89.5834 39.5836 89.5834H60.4169C60.7156 89.5834 61.0107 89.5193 61.2823 89.3953C61.554 89.2713 61.7958 89.0903 61.9914 88.8647C62.187 88.6391 62.3318 88.374 62.416 88.0875C62.5002 87.801 62.5218 87.4998 62.4794 87.2042L60.3961 72.6209Z" fill="url(#paint0_linear_334_11236)"/>
<path d="M41.6669 70.8334C41.1655 70.8333 40.681 71.014 40.3021 71.3424C39.9233 71.6707 39.6755 72.1246 39.6044 72.6209L38.6689 79.1667H61.3314L60.396 72.6209C60.3248 72.1246 60.0771 71.6707 59.6982 71.3424C59.3194 71.014 58.8349 70.8333 58.3335 70.8334H41.6669Z" fill="url(#paint1_linear_334_11236)"/>
<path d="M91.6668 2.08337H8.3335C6.67589 2.08337 5.08618 2.74185 3.91408 3.91396C2.74198 5.08606 2.0835 6.67577 2.0835 8.33337V62.5C2.0835 63.0526 2.30299 63.5825 2.69369 63.9732C3.08439 64.3639 3.6143 64.5834 4.16683 64.5834H95.8335C96.386 64.5834 96.9159 64.3639 97.3066 63.9732C97.6973 63.5825 97.9168 63.0526 97.9168 62.5V8.33337C97.9168 6.67577 97.2584 5.08606 96.0863 3.91396C94.9141 2.74185 93.3244 2.08337 91.6668 2.08337Z" fill="url(#paint2_linear_334_11236)"/>
<path d="M89.5833 6.25H10.4167C8.11548 6.25 6.25 8.11548 6.25 10.4167V56.25C6.25 58.5512 8.11548 60.4167 10.4167 60.4167H89.5833C91.8845 60.4167 93.75 58.5512 93.75 56.25V10.4167C93.75 8.11548 91.8845 6.25 89.5833 6.25Z" fill="url(#paint3_linear_334_11236)"/>
<path d="M97.9168 62.5H2.0835V68.75C2.0835 70.4076 2.74198 71.9973 3.91408 73.1694C5.08618 74.3415 6.67589 75 8.3335 75H91.6668C93.3244 75 94.9141 74.3415 96.0863 73.1694C97.2584 71.9973 97.9168 70.4076 97.9168 68.75V62.5Z" fill="url(#paint4_linear_334_11236)"/>
<path d="M97.9168 66.6667H2.0835V68.7501C2.0835 70.4077 2.74198 71.9974 3.91408 73.1695C5.08618 74.3416 6.67589 75.0001 8.3335 75.0001H91.6668C93.3244 75.0001 94.9141 74.3416 96.0863 73.1695C97.2584 71.9974 97.9168 70.4077 97.9168 68.7501V66.6667Z" fill="url(#paint5_linear_334_11236)"/>
<path d="M89.5835 8.33337H10.4168C9.26624 8.33337 8.3335 9.26611 8.3335 10.4167V56.25C8.3335 57.4006 9.26624 58.3334 10.4168 58.3334H89.5835C90.7341 58.3334 91.6668 57.4006 91.6668 56.25V10.4167C91.6668 9.26611 90.7341 8.33337 89.5835 8.33337Z" fill="url(#paint6_linear_334_11236)"/>
<path d="M91.6668 50H8.3335V56.25C8.3335 56.8025 8.55299 57.3324 8.94369 57.7231C9.33439 58.1138 9.8643 58.3333 10.4168 58.3333H89.5835C90.136 58.3333 90.6659 58.1138 91.0566 57.7231C91.4473 57.3324 91.6668 56.8025 91.6668 56.25V50Z" fill="url(#paint7_linear_334_11236)"/>
<path d="M70.8333 85.4167H29.1667C26.405 85.4201 23.7574 86.5186 21.8046 88.4714C19.8518 90.4242 18.7533 93.0718 18.75 95.8334C18.75 96.3859 18.9695 96.9159 19.3602 97.3066C19.7509 97.6973 20.2808 97.9167 20.8333 97.9167H79.1667C79.7192 97.9167 80.2491 97.6973 80.6398 97.3066C81.0305 96.9159 81.25 96.3859 81.25 95.8334C81.2467 93.0718 80.1482 90.4242 78.1954 88.4714C76.2426 86.5186 73.595 85.4201 70.8333 85.4167Z" fill="url(#paint8_linear_334_11236)"/>
<path d="M19.6333 91.6667C19.0527 92.9792 18.7519 94.3983 18.75 95.8334C18.75 96.3859 18.9695 96.9159 19.3602 97.3066C19.7509 97.6973 20.2808 97.9167 20.8333 97.9167H79.1667C79.7192 97.9167 80.2491 97.6973 80.6398 97.3066C81.0305 96.9159 81.25 96.3859 81.25 95.8334C81.2481 94.3983 80.9473 92.9792 80.3667 91.6667H19.6333Z" fill="url(#paint9_linear_334_11236)"/>
<defs>
<linearGradient id="paint0_linear_334_11236" x1="50.0003" y1="71.0938" x2="50.0003" y2="88.0521" gradientUnits="userSpaceOnUse">
<stop stop-color="#9AA6E2"/>
<stop offset="1" stop-color="#7283D6"/>
</linearGradient>
<linearGradient id="paint1_linear_334_11236" x1="50.0002" y1="74.3063" x2="50.0002" y2="78.5896" gradientUnits="userSpaceOnUse">
<stop stop-color="#4D62CB"/>
<stop offset="1" stop-color="#7283D6" stop-opacity="0"/>
</linearGradient>
<linearGradient id="paint2_linear_334_11236" x1="50.0002" y1="2.25629" x2="50.0002" y2="64.7563" gradientUnits="userSpaceOnUse">
<stop stop-color="#9AA6E2"/>
<stop offset="1" stop-color="#7283D6"/>
</linearGradient>
<linearGradient id="paint3_linear_334_11236" x1="50" y1="6.62708" x2="50" y2="60.0417" gradientUnits="userSpaceOnUse">
<stop stop-color="#7283D6"/>
<stop offset="1" stop-color="#7283D6" stop-opacity="0"/>
</linearGradient>
<linearGradient id="paint4_linear_334_11236" x1="50.0002" y1="62.6292" x2="50.0002" y2="74.8688" gradientUnits="userSpaceOnUse">
<stop stop-color="#3F4C56"/>
<stop offset="1" stop-color="#27333E"/>
</linearGradient>
<linearGradient id="paint5_linear_334_11236" x1="50.0002" y1="66.7542" x2="50.0002" y2="74.9126" gradientUnits="userSpaceOnUse">
<stop stop-color="#3F4C56" stop-opacity="0"/>
<stop offset="1" stop-color="#141414"/>
</linearGradient>
<linearGradient id="paint6_linear_334_11236" x1="50.0002" y1="8.68129" x2="50.0002" y2="57.9855" gradientUnits="userSpaceOnUse">
<stop stop-color="#EAECF7"/>
<stop offset="1" stop-color="#CDD3F1"/>
</linearGradient>
<linearGradient id="paint7_linear_334_11236" x1="50.0002" y1="50.0583" x2="50.0002" y2="58.275" gradientUnits="userSpaceOnUse">
<stop stop-color="#E2E5F4" stop-opacity="0"/>
<stop offset="1" stop-color="#9AA6E2"/>
</linearGradient>
<linearGradient id="paint8_linear_334_11236" x1="-6.69509e-07" y1="85.4167" x2="50" y2="97.7417" gradientUnits="userSpaceOnUse">
<stop stop-color="#3F4C56"/>
<stop offset="1" stop-color="#27333E"/>
</linearGradient>
<linearGradient id="paint9_linear_334_11236" x1="-2.52109e-07" y1="91.6667" x2="50" y2="97.8292" gradientUnits="userSpaceOnUse">
<stop stop-color="#3F4C56" stop-opacity="0"/>
<stop offset="1" stop-color="#141414"/>
</linearGradient>
</defs>
</svg>
