<?xml version="1.0" encoding="UTF-8"?>
<svg id="Layer_2" data-name="Layer 2" xmlns="http://www.w3.org/2000/svg" viewBox="0 0 416 415.99">
  <defs>
    <style>
      .cls-1 {
        fill: #e53431;
      }

      .cls-2 {
        fill: #faab0f;
      }

      .cls-3 {
        fill: #02a8f3;
      }

      .cls-4 {
        fill: #fff;
      }

      .cls-5 {
        fill: #f3d077;
      }

      .cls-6 {
        fill: #fe6666;
      }

      .cls-7 {
        fill: #006ab2;
      }

      .cls-8 {
        fill: #e8d7c4;
      }
    </style>
  </defs>
  <g id="Layer_1-2" data-name="Layer 1">
    <g>
      <path class="cls-4" d="M221.02,0l3.76.69c101.32,7.9,182.59,89.23,190.53,190.54l.69,3.75-.34,26.09c-3.46,53.91-27.63,104.2-67.69,140.7-83.64,76.2-212.54,71.5-290.59-10.47C-14.12,276.22-19.38,160.15,44.87,79.02,81.74,32.45,136.4,4,195.16.32l25.86-.32Z"/>
      <g>
        <g>
          <g>
            <path class="cls-3" d="M281.33,138.33c-.52.9-1.67,1.31-3.45,1.23l-98.12,16.11-64.49-41.01.02-1.1,95.75-15.83,68.7,39.42c.83.48,1.38.51,1.58,1.19Z"/>
            <path class="cls-7" d="M115.3,113.55l48.27,30.79,16.31,10.43,97.86-16.15c1.49-.25,2.44-.33,3.6-.3,1.65.04,2.57,1.1,3.09,2.55.48,1.33.15,2.75-.92,4.01-1.18,1.39-3.33,1.24-4.93,1.5l-.44.92c-31.39,5.2-62.8,10.27-94.24,15.2l-.96,1.33c-.31,7.88-.38,15.83-.21,23.83,31.7-4.91,63.42-9.94,95.16-15.09l.72.84c-.01-1.49,2.18-1.24,3.38-.87,4.52,1.39,4.44,7.06-.08,9.16l-79.91,12.97-2.36-.57-16,2.55c-2.16.34-3.81-.26-5.66-1.43l-56.29-35.62-10.15-6.42c-1.83-1.16-3.49-3.02-3.49-5.42l.02-25.13c.99-3.89,3.17-8.42,7.24-9.09Z"/>
            <path class="cls-8" d="M278.58,146.38c-.06.95-.28,1.89-.67,2.75l.39,1.5c-2.64,6.9-1.44,14.43.8,21.27l-.49,1.51-96.82,15.48-.07-23.69c0-1.45.63-2.65,1.81-3.54l95.05-15.29Z"/>
          </g>
          <g>
            <path class="cls-1" d="M199.63,194.1l2.14.33,8.71,5.63,119.44-19.46,2.66.52c2.32-.38,3.93,3.21,3.29,4.88-.49,2.39-2.93,3.4-5.16,3.19l-.93,1.1-116.64,18.89c-1.09.96-1.69,2.29-1.81,4v27.42s.61,1.7.61,1.7l118.1-19.07.73.83c2.11-.34,4.09.05,4.97,2.28.55,1.4-.01,4.74-2.27,5.12l-23.39,3.87-70.05,11.24-3.63,1.53c-8.43,1.5-16.86,2.75-25.31,3.74l-4.53-1.72-63.16-40.36.02-1.1-18.04-11.51c-2.71-1.73-3.82-4.7-3.81-7.98l.1-29.54.78-.62,57.59,36.3,1.51.45c5.8-.58,11.59-1.41,17.37-2.48l.7.84Z"/>
            <path class="cls-8" d="M330.71,189.19c-4.56,12.34-3.09,22.32.06,34.87l-118.79,19.12c-1.07.17-1.65-2.12-1.58-2.76v-27.33c.25-1.4.79-4.51,2.74-4.87l117.56-19.02Z"/>
            <path class="cls-6" d="M332.59,181.12l-122.52,19.96-10.43-6.98,81.8-13.26c2.65-.43,3.41-3.36,2.64-5.27-.95-2.35-3.2-2.52-5.47-2.16-2.77-8.12-4.18-16.53-.7-24.29l54.68,31.99Z"/>
          </g>
        </g>
        <g>
          <path class="cls-2" d="M310.08,235.33c-.23.22-.47.7-.47,1.3l-.05,11.75c-.01,2.79-1.56,4.9-3.66,6.77l-82.89,59.26c-1.58,1.13-3.27.53-5.22.79l-119.78-21.47-2.7-2.12v-3.29c-.1-2.74,4.11-4.7,5.16-2.19l.49-.87,118.12,21.3.6-1.3c.26-10.77.3-21.57.12-32.4-.17-1.7-.85-3.44-2.25-4.45l-115.99-20.75c-.44-.15-.81-.54-1.1-1.15-1.26,1.84-5.14,0-5.15-2.37v-3.29c.8-1.25,1.84-2.09,3.39-2.53l1.88-.62,120.2,21.52,15.68-11.25,3.58-1.42.17-.98c23.05-3.7,46.1-7.39,69.15-11.09l.72.84Z"/>
          <path class="cls-5" d="M240.04,246.56l-19.03,13.65-122.31-21.88c.08-.2.31-.45.85-.8l43.89-28.88,63.63,40.67c1.99,1.27,3.87,1.89,6.25,1.51l26.72-4.26Z"/>
          <path class="cls-8" d="M100.47,286.13c-.19-1.06.27-1.9.54-2.93,3.9-14.57,3.72-22.16-.56-36.69l117.46,21.05c1.83,1.03,2.84,3.73,2.85,5.72l.1,30.56c0,1.11-.53,3.17-1.6,3.6l-118.78-21.31Z"/>
        </g>
      </g>
    </g>
  </g>
</svg>