<svg width="24" height="24" viewBox="0 0 24 24" fill="none" xmlns="http://www.w3.org/2000/svg">
<path d="M1 7.5H23V21C23 21.2652 22.8946 21.5196 22.7071 21.7071C22.5196 21.8946 22.2652 22 22 22H2C1.73478 22 1.48043 21.8946 1.29289 21.7071C1.10536 21.5196 1 21.2652 1 21V7.5Z" fill="#D3DBEF"/>
<path d="M22 7.5V21C22 21.2652 21.8946 21.5196 21.7071 21.7071C21.5196 21.8946 21.2652 22 21 22H22C22.2652 22 22.5196 21.8946 22.7071 21.7071C22.8946 21.5196 23 21.2652 23 21V7.5H22Z" fill="#BFCAE2"/>
<path d="M2 4H22C22.2652 4 22.5196 4.10536 22.7071 4.29289C22.8946 4.48043 23 4.73478 23 5V7.5H1V5C1 4.73478 1.10536 4.48043 1.29289 4.29289C1.48043 4.10536 1.73478 4 2 4Z" fill="#E05555"/>
<path d="M22 4H21C21.2652 4 21.5196 4.10536 21.7071 4.29289C21.8946 4.48043 22 4.73478 22 5V7.5H23V5C23 4.73478 22.8946 4.48043 22.7071 4.29289C22.5196 4.10536 22.2652 4 22 4Z" fill="#C63E3E"/>
<path d="M6.5 2H5C4.72386 2 4.5 2.22386 4.5 2.5V5C4.5 5.27614 4.72386 5.5 5 5.5H6.5C6.77614 5.5 7 5.27614 7 5V2.5C7 2.22386 6.77614 2 6.5 2Z" fill="#FFBC5A"/>
<path d="M19 2H17.5C17.2239 2 17 2.22386 17 2.5V5C17 5.27614 17.2239 5.5 17.5 5.5H19C19.2761 5.5 19.5 5.27614 19.5 5V2.5C19.5 2.22386 19.2761 2 19 2Z" fill="#FFBC5A"/>
<path d="M7 10.5H4V13.5H7V10.5Z" fill="#4AC6B7"/>
<path d="M7 10.5H6V13.5H7V10.5Z" fill="#37B7A4"/>
<path d="M13.5 10.5H10.5V13.5H13.5V10.5Z" fill="#4AC6B7"/>
<path d="M13.5 10.5H12.5V13.5H13.5V10.5Z" fill="#37B7A4"/>
<path d="M20 10.5H17V13.5H20V10.5Z" fill="#4AC6B7"/>
<path d="M20 10.5H19V13.5H20V10.5Z" fill="#37B7A4"/>
<path d="M7 16.5H4V19.5H7V16.5Z" fill="#4AC6B7"/>
<path d="M13.5 16.5H10.5V19.5H13.5V16.5Z" fill="#4AC6B7"/>
<path d="M20 16.5H17V19.5H20V16.5Z" fill="#4AC6B7"/>
<path d="M20 16.5H19V19.5H20V16.5Z" fill="#37B7A4"/>
<path d="M13.5 16.5H12.5V19.5H13.5V16.5Z" fill="#37B7A4"/>
<path d="M7 16.5H6V19.5H7V16.5Z" fill="#37B7A4"/>
</svg>
