<?xml version="1.0" encoding="UTF-8"?>
<svg id="Layer_1" data-name="Layer 1" xmlns="http://www.w3.org/2000/svg" viewBox="0 0 1600 600">
  <defs>
    <style>
      .cls-1 {
        fill: #ee7153;
      }

      .cls-2 {
        fill: #0c0b0b;
      }

      .cls-3 {
        fill: #c82c56;
      }

      .cls-4 {
        fill: #f8f7f8;
      }

      .cls-5 {
        fill: #ed5d4c;
      }

      .cls-6 {
        fill: #080808;
      }

      .cls-7 {
        fill: #f27a54;
      }

      .cls-8 {
        fill: #2d2d2d;
      }

      .cls-9 {
        fill: #ec7d7d;
      }

      .cls-10 {
        fill: #da276b;
      }

      .cls-11 {
        fill: #d82765;
      }

      .cls-12 {
        fill: #f9f9f9;
      }

      .cls-13 {
        fill: #e2346c;
      }

      .cls-14 {
        fill: #ed6f4d;
      }

      .cls-15 {
        fill: #f17547;
      }

      .cls-16 {
        fill: #e989a5;
      }

      .cls-17 {
        fill: #0f0e0e;
      }

      .cls-18 {
        fill: #0d0d0d;
      }

      .cls-19 {
        fill: #6a6a69;
      }

      .cls-20 {
        fill: #e02766;
      }

      .cls-21 {
        fill: #dc2060;
      }

      .cls-22 {
        fill: #0b0b0b;
      }

      .cls-23 {
        fill: #e43758;
      }

      .cls-24 {
        fill: #e392aa;
      }

      .cls-25 {
        fill: #f6f5f6;
      }

      .cls-26 {
        fill: #d51c63;
      }

      .cls-27 {
        fill: #414142;
      }

      .cls-28 {
        fill: #0a0a0a;
      }

      .cls-29 {
        fill: #fafafa;
      }

      .cls-30 {
        fill: #eb5f51;
      }

      .cls-31 {
        fill: #101010;
      }

      .cls-32 {
        fill: #f18144;
      }

      .cls-33 {
        fill: #f07559;
      }
    </style>
  </defs>
  <path class="cls-3" d="M152.33,170.5h269v53h-16v-37h-236v227h236v-32h16v48H152.33V170.5Z"/>
  <path class="cls-22" d="M1124.26,267.06c1.03-.02,2.07-.04,3.13-.06,8.54,0,15.3,1.65,21.49,7.75.8.91,1.61,1.81,2.44,2.75.33-2.97.66-5.94,1-9h14c.09,12.72.16,25.44.21,38.15.02,5.91.05,11.81.09,17.72.04,5.71.07,11.41.08,17.12,0,2.17.02,4.34.04,6.51q.22,23.12-6.55,33.87c-8.43,7.69-17.09,8.37-28.03,8.17-2.34-.04-4.67-.04-7.01-.03q-18.45-.08-25.71-5.76c-5.63-7.28-7.12-12.47-7.12-21.75h14c.36,2.47.72,4.95,1.07,7.42,1.25,3.49,2.84,4.56,5.93,6.58q3.18.58,6.62.46c1.27,0,2.53,0,3.83-.01,1.31-.02,2.63-.05,3.98-.07,1.31,0,2.62,0,3.97,0q8.49-.06,16.59-2.37,1.39-1.87,2-4,.5-1.49,1-3c.15-1.7.25-3.4.32-5.11q.06-1.47.13-2.98c.04-1.02.08-2.05.12-3.1q.06-1.55.13-3.14c.11-2.56.21-5.12.31-7.67h-2c-.23.58-.45,1.15-.69,1.75-2.23,3.82-5.15,5.77-9.19,7.44-12.3,3.2-25.45,3.2-37.12-2.19-6.12-4.05-9.2-10.01-11-17-1.2-7.71-1.19-15.44-1.19-23.23,0-2.2-.02-4.4-.04-6.6q-.09-22.36,7.76-30.83c7.58-7.04,15.44-7.85,25.4-7.78Z"/>
  <path class="cls-2" d="M1027.18,267.11c2.14.02,4.28,0,6.42-.02,11.84-.02,20.71,1.53,29.41,10.04,5.23,6.69,5.77,15.42,5.75,23.59,0,.94.01,1.87.02,2.84,0,1.97,0,3.93,0,5.9,0,2.98.02,5.95.05,8.93.04,11.11-.44,20.2-6.19,29.99-6.8,6.25-13.76,8.27-22.79,8.36-.73,0-1.45.02-2.2.02-1.53.01-3.07.02-4.6.03-1.55.01-3.11.03-4.66.06-10.53.2-19.81-.12-28.5-6.79-8.01-8.01-8.9-18.57-8.93-29.4,0-1.57.02-3.15.03-4.72.02-2.38.02-4.76.01-7.13q.05-25.42,7.82-33.96c8.11-7.7,17.67-7.84,28.36-7.74Z"/>
  <path class="cls-23" d="M415.14,232.25q1.92.03,3.87.05c3.11.05,6.21.11,9.32.2v2c1.13.08,2.27.16,3.44.25,8.55,1.1,14.98,5.46,21.56,10.75.85.58,1.69,1.15,2.56,1.75,5.75,5.31,12.18,13.65,12.62,21.62q-.09,1.3-.19,2.62c-5.38,1.19-10.45,2.29-16,2-.22-.56-.44-1.11-.66-1.69-4.27-10.27-9.26-16.36-19.34-21.31-.69-.34-1.37-.68-2.08-1.04-9.72-4-24.09-3.21-33.92.04-12.95,5.82-20.86,14.86-26,28-2.85,8.19-3.44,15.75-3.31,24.38,0,1.15,0,2.3,0,3.48.03,5.28.17,9.27,2.32,14.14.44,1.89.85,3.79,1.25,5.69,1.54,6.27,4.03,11.08,7.75,16.31.48.71.96,1.42,1.45,2.15,5.95,7.82,16.65,13.02,26.28,14.64,12.84,1.17,22.91.15,33.27-7.79,1.03-.7,2.06-1.4,3.12-2.12,6.51-5.61,10.26-14.87,12.88-22.88,5.65.6,10.66,2.08,16,4-3.69,14.91-11.4,26.9-24.29,35.43-10.61,6.14-21.34,8.96-33.52,8.88-.88,0-1.75-.01-2.66-.02-16.71-.31-30.45-6.81-42.53-18.3-13.84-14.61-19.41-33.49-19.38-53.25,0-1,0-2,0-3.03.14-8.47,1.56-15.7,4.37-23.72q.45-1.49.91-3c4.79-14.91,16.24-26.67,29.58-34.46,10.55-4.62,19.84-6.1,31.32-5.79Z"/>
  <path class="cls-28" d="M1225.64,267.15c1.44-.02,2.89-.04,4.33-.08,10.37-.27,20.45.25,28.65,7.44,10.31,10.83,7.71,26.02,7.71,39.99h-62q-.45,14.57,6,26.88c5.52,3.11,11.6,2.35,17.75,2.38,1.17.02,2.34.04,3.54.06,6.34.03,11.16-.12,16.71-3.31,2.52-2.52,2.56-4.14,3.12-7.62.29-1.77.58-3.55.88-5.38h14c.82,8.19-1.44,14.17-6,21-6.95,6.21-13.37,8.14-22.48,8.24-.73,0-1.45.02-2.2.02-1.53.01-3.07.02-4.6.03-1.55.01-3.11.03-4.66.06-10.51.2-18.71-.63-27.94-6.04-3.07-3.34-4.56-7.09-6.12-11.31-.34-.84-.68-1.67-1.04-2.53-1.25-4.52-1.27-8.7-1.26-13.36,0-.95,0-1.89-.01-2.87,0-2,0-4,0-5.99,0-3.04-.02-6.07-.05-9.1,0-1.95,0-3.9,0-5.85,0-.9-.02-1.79-.03-2.72.07-9.05,2.17-16.19,8.42-22.85,8.03-7.04,17.11-6.99,27.28-7.08Z"/>
  <path class="cls-6" d="M751.49,267.13c2.06,0,4.12-.04,6.19-.08,11.16-.1,20.76,1.59,29.05,9.53,8.29,10.02,5.59,26.6,5.59,37.92h-62q-.12,14.39,5.94,27c5.65,2.74,11.67,2.22,17.81,2.25,1.06.02,2.12.04,3.21.06,6.39.03,11.3-.42,17.04-3.31,2.59-4.44,3.14-7.85,4-13h14c-.55,8.95-1.26,16.44-8,23-9.27,5.56-16.97,6.21-27.65,6.24-2.02,0-4.04.04-6.06.07-9.82.04-19.34-.38-26.83-7.43-4.29-5.48-6.59-13.14-6.6-20.06,0-.81,0-1.63,0-2.47,0-.87,0-1.75,0-2.65,0-.91,0-1.82,0-2.75,0-1.92,0-3.84,0-5.76,0-2.92,0-5.84,0-8.76,0-1.87,0-3.74,0-5.61q0-1.3,0-2.62c.03-8.8.29-16.21,6.14-23.21,8.28-7.85,17.21-8.37,28.17-8.37Z"/>
  <path class="cls-22" d="M922.75,231.26c2.38,0,4.75-.04,7.13-.07,12.21-.08,24.53.16,34.03,8.74,6.93,7.05,7.68,15.82,7.61,25.26-.06,2.41-.12,4.83-.19,7.31h-15q-.16-1.75-.33-3.54c-.16-1.55-.32-3.1-.48-4.64-.07-.77-.14-1.54-.21-2.33-.48-4.51-1.14-7.78-3.97-11.48-5.73-4.07-10.91-5.31-17.86-5.3q-1.13,0-2.28-.01c-1.58,0-3.17,0-4.75,0-2.4,0-4.81-.02-7.21-.05-1.55,0-3.09,0-4.64,0-.71,0-1.42-.02-2.15-.03-5.56.05-11.34.96-15.65,4.74-4.53,5.16-5.71,9.69-5.76,16.43,0,.66-.01,1.32-.02,2-.02,2.17-.02,4.35-.03,6.52,0,1.52-.01,3.04-.02,4.56-.01,3.18-.02,6.37-.01,9.55,0,4.07-.03,8.13-.06,12.19-.02,3.14-.03,6.28-.03,9.42,0,1.5-.01,3-.03,4.49q-.12,11.33,4.48,21.47c5.68,4.52,10.23,5.17,17.29,5.24.82,0,1.64.02,2.48.02,1.73.01,3.47.02,5.2.03,1.76.01,3.52.03,5.28.06q13.57.72,25.75-4.36c3.82-5.61,4.13-11.68,4.56-18.31.14-2.21.29-4.41.44-6.69h15q.72,25.79-6.19,34.44c-7.47,7.66-17.35,9.72-27.75,9.89q-1.21,0-2.45,0c-.87,0-1.73.01-2.63.02-1.82.01-3.64.01-5.47.01-2.75,0-5.49.04-8.24.08-11.7.07-24.18-.16-33.79-7.9-10.75-11.15-10.65-24.27-10.73-38.87,0-.68,0-1.37-.01-2.07-.02-3.61-.04-7.23-.04-10.84-.01-3.69-.05-7.39-.09-11.08-.03-2.88-.03-5.75-.04-8.63,0-2.01-.03-4.02-.06-6.04.03-11.93,2.04-23.13,10.48-32.03,10.09-9.82,25.37-8.21,38.42-8.24Z"/>
  <path class="cls-11" d="M224.33,234.5h106v15h-44v120h-17v-121h-45v-14Z"/>
  <path class="cls-6" d="M619.33,232.5h13v46h2c.25-.59.5-1.19.76-1.8,1.41-2.5,2.81-3.69,5.12-5.39.68-.51,1.36-1.02,2.05-1.54,8.11-4.97,23.29-3.49,32.29-1.87,6.5,1.78,11.3,4.87,14.78,10.6,3.84,7.69,3.38,15.48,3.29,23.88,0,1.54,0,3.07-.01,4.61-.01,4.02-.04,8.04-.07,12.05-.03,4.11-.04,8.22-.06,12.33-.03,8.05-.08,16.09-.15,24.14h-14c-.01-1.93-.03-3.86-.04-5.86-.05-6.4-.12-12.8-.19-19.21-.04-3.88-.08-7.76-.11-11.64-.03-3.75-.07-7.5-.12-11.24-.02-1.43-.03-2.85-.03-4.28q.12-10.34-3.5-19.78c-4.91-3.65-10-3.49-15.88-3.44-.86-.02-1.72-.04-2.61-.06-7.15,0-12.59,1.72-17.83,6.69-4.77,7.96-5.15,15.83-5.2,24.94-.02,1.23-.04,2.46-.05,3.73-.05,3.9-.09,7.8-.12,11.71-.03,2.66-.07,5.31-.1,7.97-.08,6.49-.15,12.98-.21,19.47h-13v-122Z"/>
  <path class="cls-31" d="M506.33,231.5h96v14h-40v110h-16v-110h-40v-14Z"/>
  <path class="cls-29" d="M1022.61,279.1c1.17,0,2.34,0,3.55-.01q1.82.02,3.67.04c1.21-.01,2.42-.02,3.67-.04q1.76,0,3.55.01c1.06,0,2.12,0,3.22.01,4.74.6,8.02,2.34,11.38,5.7,3.24,5.17,2.86,11.11,2.89,17.05,0,.79.01,1.58.02,2.4,0,1.67.02,3.34.02,5,0,2.53.04,5.06.07,7.58q.1,15.51-3.31,22.65c-6.59,5.61-12.99,5.21-21.25,5.25-1.01.02-2.02.04-3.07.06-5.99.03-11.49-.05-16.68-3.31-4.26-5.78-4.59-10.49-4.53-17.54,0-1,0-1.99-.01-3.02,0-2.1,0-4.2.02-6.3.02-3.2,0-6.41-.03-9.61,0-2.04,0-4.09.02-6.13,0-.95-.02-1.91-.02-2.89.08-5.62.58-9.2,4.56-13.51,4.15-2.69,7.38-3.38,12.28-3.4Z"/>
  <path class="cls-17" d="M1332.01,267.19c.96-.03,1.91-.06,2.9-.09,9.12-.08,16.23,2.56,22.98,8.76,5.2,5.92,5.57,13.78,5.55,21.28q0,1.95,0,3.94c0,1.4-.01,2.81-.02,4.21,0,1.45,0,2.9,0,4.35,0,3.8-.01,7.6-.02,11.39-.01,3.88-.01,7.76-.02,11.64-.01,7.6-.03,15.21-.05,22.81h-15q-.03-2.85-.06-5.76c-.07-6.3-.14-12.6-.23-18.91-.05-3.82-.1-7.64-.13-11.46-.04-3.69-.08-7.38-.14-11.07-.02-1.4-.03-2.81-.05-4.21-.02-1.97-.05-3.95-.08-5.92-.01-1.12-.03-2.24-.04-3.4-.43-5.09-1.04-9.08-4.78-12.68-4.62-2.1-8.42-2.18-13.43-2.09-.87-.02-1.74-.03-2.63-.05-6.8.04-10.94,1.55-16.17,6.04-4.24,5.18-4.37,10.13-4.46,16.6-.02,1.18-.04,2.36-.06,3.58-.02,1.26-.03,2.52-.05,3.82-.02,1.3-.04,2.6-.06,3.94-.05,3.44-.1,6.88-.15,10.33-.05,3.52-.11,7.04-.16,10.56-.11,6.89-.21,13.79-.31,20.68h-14v-86h13v9h2q.36-.89.73-1.8c1.53-2.65,3.09-3.73,5.65-5.39.77-.51,1.54-1.02,2.34-1.54,5.33-2.95,11.04-2.52,16.98-2.58Z"/>
  <path class="cls-18" d="M1390.33,247.5h14v21h40v11h-40c.05,7.32.1,14.64.18,21.96.04,3.41.07,6.82.09,10.23.02,3.92.07,7.83.12,11.75,0,1.22,0,2.43,0,3.68.11,6.35.19,10.61,4.61,15.37,4.84,2.42,12.14,1.56,17.34.54,3.04-1.1,4.47-2.21,6.03-5.04.86-4.83,1.27-9.61,1.62-14.5h13q.77,19.52-5.5,26.72-1.57,1.34-4.5,3.28c-.99.66-1.98,1.32-3,2-5.23,1.35-10.45,1.22-15.81,1.25-.96.02-1.92.04-2.91.06-6.8.04-12.86-.4-18.27-5-6.53-9.23-7.45-18.22-7.3-29.32,0-1.21,0-2.41.01-3.66.02-3.82.05-7.64.09-11.46.02-2.6.03-5.21.04-7.81.03-6.35.08-12.71.15-19.06h-10v-12h10v-21Z"/>
  <path class="cls-12" d="M1127.08,279.25c.99-.02,1.98-.04,3-.06,6.69-.04,11.25.52,16.33,5.25.57.68,1.14,1.36,1.73,2.06q.88,1.02,1.77,2.06c2.84,3.87,2.59,7.83,2.62,12.42,0,.73.01,1.47.02,2.22,0,1.55.02,3.11.02,4.66,0,2.36.04,4.72.07,7.08,0,1.51.01,3.03.02,4.54.01.7.02,1.4.04,2.12-.03,7.76-2.87,13.41-8.37,18.9-5.73,3.1-10.55,3.46-17,3.38q-1.3.02-2.62.04c-5.54-.03-9.49-.75-14.38-3.41-4.47-5.67-4.17-12.13-4.2-19.03,0-.87-.01-1.73-.02-2.63,0-1.83-.02-3.66-.02-5.48,0-2.79-.04-5.57-.07-8.36,0-1.78-.01-3.56-.02-5.34-.01-.83-.02-1.66-.04-2.51.02-4.97.62-8.35,3.37-12.65,5.95-5.37,10.01-5.21,17.75-5.25Z"/>
  <path class="cls-24" d="M152.33,170.5h269v53h-1v-52H153.33v257h265v-45c-3.3-.33-6.6-.66-10-1q0,1.29.02,2.61c.02,3.2.03,6.41.04,9.61,0,1.39.01,2.77.02,4.16.01,1.99.02,3.99.02,5.98q0,1.8.02,3.63-.11,3-1.11,6h-239v-229h238v38h-1v-37h-236v227h236v-32h16v48H152.33V170.5Z"/>
  <path class="cls-25" d="M1228.14,279.25c1.18-.02,2.35-.04,3.56-.06q10.87-.05,15.62,3.31c6.47,7,5,10.24,5,21h-48q0-14.03,3-19c6.31-6,12.56-5.21,20.81-5.25Z"/>
  <path class="cls-4" d="M753.83,279.06q1.65-.01,3.34-.02c6.13.05,10.79.41,16.16,3.46,6.33,6.5,5,11.51,5,21h-47q0-14,3-20c6.05-4.88,11.96-4.57,19.5-4.44Z"/>
  <path class="cls-16" d="M405.33,381.5h16v47h-3v-45c-3.3-.33-6.6-.66-10-1,0,.86.01,1.73.02,2.61.02,3.2.03,6.41.04,9.61,0,1.39.01,2.77.02,4.16.01,1.99.02,3.99.02,5.98,0,1.2.01,2.4.02,3.63q-.11,3-1.11,6h-239v-1h237v-32Z"/>
  <path class="cls-32" d="M405.33,381.5h16v47h-3v-45c-3.3-.33-6.6-.66-10-1,0,.86.01,1.73.02,2.61.02,3.2.03,6.41.04,9.61,0,1.39.01,2.77.02,4.16.01,1.99.02,3.99.02,5.98,0,1.2.01,2.4.02,3.63q-.11,3-1.11,6h-2v-33Z"/>
  <path class="cls-30" d="M455.33,325.5h4c-.33,1.32-.66,2.64-1,4h-2q-.12,1.3-.24,2.62c-1.81,8.02-9.43,16.22-15.76,21.38q-2.17-.36-4-1,.74-.46,1.5-.93c9.3-6.27,13.88-15.71,17.5-26.07Z"/>
  <path class="cls-19" d="M1098.33,275.5c.33.99.66,1.98,1,3-.45.37-.91.74-1.38,1.12-5.08,5.86-4.73,15.22-4.94,22.56-.02.7-.04,1.4-.06,2.12-.06,2.21-.12,4.42-.18,6.63-.04,1.51-.09,3.02-.13,4.53-.11,3.68-.21,7.36-.31,11.03h-1c-.05-4.52-.09-9.03-.11-13.55,0-1.53-.02-3.06-.04-4.6q-.25-22.16,6.15-31.85l1-1Z"/>
  <path class="cls-9" d="M442.33,367.5c-2.04.82-4.08,1.63-6.12,2.44-1.14.45-2.27.9-3.45,1.37-6.63,2.3-12.86,2.32-19.8,2.25-.93,0-1.85,0-2.81-.01-2.27-.01-4.54-.03-6.82-.05v-1c1.09-.01,2.18-.03,3.3-.04,9.45-.26,17.91-1.44,26.94-4.32q5.49-1.73,8.75-.64Z"/>
  <path class="cls-15" d="M465.33,327.5c1.98.66,3.96,1.32,6,2-1.9,7.69-4.99,14.18-9,21-1.37-4.12-.03-5.54,1.88-9.38,1.93-3.9,3.49-7.31,4.12-11.62-.99-.33-1.98-.66-3-1v-1Z"/>
  <path class="cls-5" d="M449.33,262.5c2.97,2.54,4.36,5.49,6,9h6v-2c1.32.33,2.64.66,4,1v2q-6.44.49-13,1c-1.32-3.3-2.64-6.6-4-10l1-1Z"/>
  <path class="cls-10" d="M370.33,248.5l2,1q-5.44,6.93-11,14c-.33-1.32-.66-2.64-1-4q1.84-2.54,4.38-5.19c.83-.88,1.67-1.76,2.52-2.67q2.1-2.14,3.1-3.14Z"/>
  <path class="cls-13" d="M383.33,239.5v2c-1.61,1.44-3.29,2.8-5,4.12-.93.72-1.86,1.45-2.81,2.2-.72.55-1.44,1.11-2.19,1.68l-2-2c1.1-.96,2.21-1.92,3.31-2.88q.92-.8,1.86-1.62,4.24-3.51,6.82-3.51Z"/>
  <path class="cls-33" d="M455.33,325.5h4c-.33,1.32-.66,2.64-1,4h-2c-.33,1.98-.66,3.96-1,6-.66-.99-1.32-1.98-2-3q.88-3.69,2-7Z"/>
  <path class="cls-1" d="M456.33,248.5c3.59,3.39,6.46,6.76,9,11v2h-2q-1.73-2.08-3.62-4.81-.95-1.34-1.91-2.71-1.46-2.48-1.46-5.48Z"/>
  <path class="cls-26" d="M355.33,270.5c.99.33,1.98.66,3,1-1.32,3.3-2.64,6.6-4,10h-2c.31-1.46.62-2.92.94-4.38.17-.81.35-1.62.53-2.46q.54-2.16,1.54-4.16Z"/>
  <path class="cls-20" d="M371.33,269.5l2,1c-1.32,3.63-2.64,7.26-4,11-.66-.66-1.32-1.32-2-2,.32-3.97,1.84-6.71,4-10Z"/>
  <path class="cls-14" d="M461.33,269.5l4,1v2c-3.3.33-6.6.66-10,1v-2h6v-2Z"/>
  <path class="cls-27" d="M1098.33,275.5c.33.99.66,1.98,1,3-.45.37-.91.74-1.38,1.12-2.1,2.42-2.75,4.83-3.62,7.88q-.75-1.56-1-4c1.26-2.87,2.77-5.77,5-8Z"/>
  <path class="cls-21" d="M370.33,248.5l2,1c-1.65,1.98-3.3,3.96-5,6-.99-.33-1.98-.66-3-1l6-6Z"/>
  <path class="cls-8" d="M1150.33,331.5q.81,1.69,1,4-2.44,2.75-5,5c-.66-.33-1.32-.66-2-1,.62-.76,1.24-1.53,1.88-2.31q2.18-2.68,4.12-5.69Z"/>
  <path class="cls-7" d="M465.33,261.5c2.35,2.55,2.98,3.71,3.19,7.25-.06.91-.12,1.81-.19,2.75-.66-.33-1.32-.66-2-1q-.41-2.07-.62-4.56c-.07-.83-.15-1.65-.23-2.5-.05-.64-.1-1.28-.15-1.93Z"/>
</svg>