<svg width="28" height="28" viewBox="0 0 28 28" fill="none" xmlns="http://www.w3.org/2000/svg">
<path d="M9.9165 1.16663H17.4998L13.4165 11.0833H21.5832L11.0832 26.8333L13.4165 15.1666H6.4165L9.9165 1.16663Z" fill="url(#paint0_linear_334_8466)"/>
<path d="M13.988 15.2833C14.0053 15.1986 14.0035 15.111 13.9828 15.027C13.9621 14.943 13.923 14.8647 13.8683 14.7977C13.8135 14.7307 13.7446 14.6767 13.6664 14.6396C13.5883 14.6025 13.5028 14.5833 13.4163 14.5833H7.16357L10.3719 1.75H16.6287L12.8767 10.8611C12.8402 10.9497 12.8261 11.046 12.8356 11.1414C12.8452 11.2367 12.8781 11.3283 12.9314 11.408C12.9848 11.4876 13.0569 11.5529 13.1415 11.598C13.2261 11.6431 13.3205 11.6667 13.4163 11.6667H20.4927L12.2333 24.0561L13.988 15.2833Z" fill="url(#paint1_linear_334_8466)"/>
<path d="M21.1941 11.6666H7.2915L6.4165 15.1666H13.4165L11.0832 26.8333L21.1941 11.6666Z" fill="url(#paint2_linear_334_8466)"/>
<defs>
<linearGradient id="paint0_linear_334_8466" x1="13.9998" y1="1.45829" x2="13.9998" y2="25.9705" gradientUnits="userSpaceOnUse">
<stop stop-color="#FFCA4F"/>
<stop offset="1" stop-color="#F7AE30"/>
</linearGradient>
<linearGradient id="paint1_linear_334_8466" x1="13.8282" y1="2.00375" x2="13.8282" y2="11.8627" gradientUnits="userSpaceOnUse">
<stop stop-color="#FFD980"/>
<stop offset="1" stop-color="#FFCA4F" stop-opacity="0"/>
</linearGradient>
<linearGradient id="paint2_linear_334_8466" x1="13.8056" y1="11.8387" x2="13.8056" y2="26.3235" gradientUnits="userSpaceOnUse">
<stop stop-color="#FFCA4F" stop-opacity="0"/>
<stop offset="1" stop-color="#F4901F"/>
</linearGradient>
</defs>
</svg>
