<?xml version="1.0" encoding="UTF-8"?>
<svg version="1.1" xmlns="http://www.w3.org/2000/svg" width="512" height="512">
<path d="M0 0 C2.22268123 -0.00543164 4.44535886 -0.0125601 6.66802979 -0.02124023 C12.65979222 -0.0393525 18.65127671 -0.03245627 24.64304352 -0.01972389 C30.94025878 -0.00953319 37.23745168 -0.01900632 43.53466797 -0.02526855 C54.78120991 -0.03299112 66.02763827 -0.02063064 77.27415347 -0.00023121 C87.4386904 0.01763595 97.60304449 0.01453064 107.76757812 -0.00390625 C119.6162765 -0.02538838 131.46488658 -0.03324009 143.31360817 -0.0214572 C149.56928515 -0.01524994 155.82483666 -0.01430999 162.08050537 -0.02760315 C167.96421471 -0.0392346 173.84758185 -0.03100347 179.73125458 -0.00802612 C181.8789183 -0.00277781 184.02661127 -0.00418549 186.174263 -0.01307678 C212.96939727 -0.11370484 234.77653615 6.66928488 254.5078125 25.51757812 C255.43013672 26.32775391 255.43013672 26.32775391 256.37109375 27.15429688 C269.7189036 39.33609115 278.36341159 59.05206655 279.68341708 76.89071035 C279.96845688 83.51842672 279.92734096 90.15029491 279.91186523 96.78271484 C279.91757734 99.00509991 279.92454483 101.22748204 279.93266296 103.44985962 C279.95051664 109.44995628 279.94944066 115.44990608 279.94372058 121.45002127 C279.94061738 126.4745599 279.94673373 131.49907079 279.95275933 136.52360547 C279.96757695 149.0612513 279.96401277 161.5988267 279.95189602 174.13646747 C279.94196775 184.98859846 279.95490428 195.84055885 279.97883021 206.69266354 C280.0032974 217.87579711 280.01241206 229.05886906 280.00617748 240.24203312 C280.00281937 246.50445584 280.00514659 252.76673768 280.02242851 259.02914047 C280.03798022 264.92101688 280.03385119 270.81256944 280.01512337 276.70443344 C280.01146017 278.85532574 280.01447892 281.00624248 280.02500916 283.15711212 C280.14614697 309.96584676 273.36595715 331.77598887 254.5078125 351.51757812 C253.96769531 352.13246094 253.42757813 352.74734375 252.87109375 353.38085938 C240.68929947 366.72866923 220.97332407 375.37317721 203.13468027 376.69318271 C196.5069639 376.97822251 189.87509571 376.93710658 183.24267578 376.92163086 C181.02029072 376.92734297 178.79790858 376.93431046 176.57553101 376.94242859 C170.57543434 376.96028226 164.57548455 376.95920629 158.57536936 376.9534862 C153.55083072 376.95038301 148.52631983 376.95649935 143.50178516 376.96252495 C130.96413932 376.97734258 118.42656392 376.9737784 105.88892315 376.96166164 C95.03679216 376.95173337 84.18483178 376.9646699 73.33272709 376.98859584 C62.14959352 377.01306302 50.96652156 377.02217769 39.7833575 377.01594311 C33.52093478 377.01258499 27.25865295 377.01491222 20.99625015 377.03219414 C15.10437374 377.04774584 9.21282119 377.04361681 3.32095718 377.02488899 C1.17006489 377.0212258 -0.98085186 377.02424455 -3.1317215 377.03477478 C-29.94045613 377.15591259 -51.75059824 370.37572277 -71.4921875 351.51757812 C-72.10707031 350.97746094 -72.72195312 350.43734375 -73.35546875 349.88085938 C-86.7032786 337.6990651 -95.34778659 317.9830897 -96.66779208 300.1444459 C-96.95283188 293.51672953 -96.91171596 286.88486134 -96.89624023 280.25244141 C-96.90195234 278.03005634 -96.90891983 275.80767421 -96.91703796 273.58529663 C-96.93489164 267.58519997 -96.93381566 261.58525017 -96.92809558 255.58513498 C-96.92499238 250.56059635 -96.93110873 245.53608546 -96.93713433 240.51155078 C-96.95195195 227.97390495 -96.94838777 215.43632955 -96.93627102 202.89868878 C-96.92634275 192.04655779 -96.93927928 181.1945974 -96.96320521 170.34249271 C-96.9876724 159.15935914 -96.99678706 147.97628719 -96.99055248 136.79312313 C-96.98719437 130.53070041 -96.98952159 124.26841857 -97.00680351 118.00601578 C-97.02235522 112.11413937 -97.01822619 106.22258681 -96.99949837 100.33072281 C-96.99583517 98.17983051 -96.99885392 96.02891377 -97.00938416 93.87804413 C-97.13052197 67.06930949 -90.35033215 45.25916738 -71.4921875 25.51757812 C-70.95207031 24.90269531 -70.41195312 24.2878125 -69.85546875 23.65429688 C-51.86720327 3.94423269 -25.20076288 -0.10433133 0 0 Z " fill="#E74E4C" transform="translate(164.4921875,87.482421875)"/>
<path d="M0 0 C1.79244141 0.58587891 1.79244141 0.58587891 3.62109375 1.18359375 C24.35626224 8.44650394 39.59966839 23.8809866 49.63671875 43.140625 C58.02291677 61.97809082 58.80222095 83.60557242 52 103 C51.5207858 104.45571352 51.04162166 105.91144352 50.5625 107.3671875 C43.78078032 127.32343825 33.65945637 145.51866164 22 163 C21.55720703 163.67160156 21.11441406 164.34320313 20.65820312 165.03515625 C-11.54189416 213.74688237 -11.54189416 213.74688237 -23.25 218.25 C-28.20404 217.91973067 -29.54769267 216.27109377 -32.7890625 212.67578125 C-36.76521236 207.86365641 -40.63149646 202.98409981 -44.43017578 198.03173828 C-46.0917292 195.88127988 -47.77580447 193.75002106 -49.46484375 191.62109375 C-56.79411548 182.35733394 -63.66073858 172.96503824 -70 163 C-70.49854492 162.22849609 -70.99708984 161.45699219 -71.51074219 160.66210938 C-90.44253605 131.31495172 -109.60541058 96.92906695 -103.3828125 60.73046875 C-98.20635893 39.2229913 -84.89032215 19.59655888 -66 8 C-46.19599047 -3.50379965 -22.09500987 -7.49804851 0 0 Z " fill="#FEFDFD" transform="translate(280,169)"/>
<path d="M0 0 C9.6728083 6.43887089 15.54686818 14.3710733 19.23046875 25.421875 C20.23055897 39.22312004 19.31198945 50.86092766 9.98046875 61.859375 C1.09306022 70.90837277 -7.90523065 75.4249214 -20.64453125 75.859375 C-32.95729522 75.53852122 -41.85169582 71.26232972 -50.515625 62.6953125 C-59.27189697 53.13110521 -61.37039317 42.41584336 -61.07421875 29.84375 C-60.5636223 19.80905291 -55.65069436 12.51770178 -48.76953125 5.421875 C-34.8168997 -7.05201611 -16.23202703 -9.24927915 0 0 Z " fill="#F04444" transform="translate(276.76953125,210.578125)"/>
<path d="M0 0 C-1.38972246 3.19845671 -2.97459224 5.06418136 -5.5625 7.375 C-20.61535472 22.10002485 -28.19826172 42.65328424 -28.4375 63.375 C-28.38162416 72.91675686 -27.19956777 80.96312556 -24 90 C-23.52027712 91.45424372 -23.04114101 92.90868109 -22.5625 94.36328125 C-15.78616703 114.31838453 -5.66636423 132.5257392 6 150 C6.45874512 150.69287109 6.91749023 151.38574219 7.39013672 152.09960938 C26.21382059 181.92841539 26.21382059 181.92841539 51 206 C47.42722273 206.33235137 45.57574039 206.3977337 42.57421875 204.32421875 C39.89690577 201.90691795 37.73093002 199.39436716 35.5 196.5625 C33.1957691 193.64570067 30.94057712 190.94185778 28.28125 188.33984375 C26 186 26 186 25 183 C24.01 182.34 23.02 181.68 22 181 C21.0306584 179.33679209 20.06664865 177.66991531 19.14648438 175.97900391 C16.71865762 171.78821096 13.6397382 168.01749878 10.71484375 164.16601562 C7 159.20454641 7 159.20454641 7 157 C6.01 156.67 5.02 156.34 4 156 C2.5054726 153.83623643 1.17725326 151.71317478 -0.125 149.4375 C-0.51606934 148.76855713 -0.90713867 148.09961426 -1.31005859 147.41040039 C-2.55048689 145.27945271 -3.77626261 143.14056922 -5 141 C-5.58587891 139.98486328 -5.58587891 139.98486328 -6.18359375 138.94921875 C-20.8960785 113.43767112 -20.8960785 113.43767112 -22 106 C-22.99 105.67 -23.98 105.34 -25 105 C-25.95141602 103.20922852 -25.95141602 103.20922852 -26.75390625 100.87890625 C-27.05103516 100.02490234 -27.34816406 99.17089844 -27.65429688 98.29101562 C-27.95400391 97.39060547 -28.25371094 96.49019531 -28.5625 95.5625 C-28.86607422 94.69689453 -29.16964844 93.83128906 -29.48242188 92.93945312 C-37.10450835 70.63779269 -35.30189212 48.05601608 -25.109375 26.859375 C-21.29807569 19.53902641 -9.07100225 0 0 0 Z " fill="#A64141" transform="translate(205,182)"/>
<path d="M0 0 C8.29140588 6.26166972 13.3323195 13.8094585 16.625 23.6875 C17.51528899 35.97348813 17.25659746 47.23422129 9.51171875 57.484375 C7.62146007 59.64658919 5.69566486 61.69904516 3.625 63.6875 C3.625 60.16717572 4.32851351 59.2489657 6.625 56.6875 C7.285 56.6875 7.945 56.6875 8.625 56.6875 C8.934375 55.73875 9.24375 54.79 9.5625 53.8125 C10.625 50.6875 10.625 50.6875 11.625 48.6875 C11.92018568 45.15260062 11.90309722 41.6082794 11.9375 38.0625 C11.96650391 37.08925781 11.99550781 36.11601562 12.02539062 35.11328125 C12.07580646 29.35036387 11.47259731 25.3611238 8.57641602 20.35449219 C7.42733767 18.34117247 6.93787936 16.37884548 6.4375 14.125 C4.91032642 9.10962312 1.72286828 6.95448291 -2.51171875 4.09765625 C-3.43404297 3.39962891 -3.43404297 3.39962891 -4.375 2.6875 C-4.375 2.0275 -4.375 1.3675 -4.375 0.6875 C-6.169375 0.2853125 -6.169375 0.2853125 -8 -0.125 C-10.79637209 -0.80217024 -12.60858002 -1.45052456 -15.125 -2.9375 C-22.54329352 -6.0760088 -31.56429246 -4.35392767 -39.375 -3.3125 C-27.3064621 -11.35819193 -11.29197552 -7.51669734 0 0 Z " fill="#AB3636" transform="translate(279.375,212.3125)"/>
<path d="M0 0 C2.71229731 0.61135861 4.51254623 1.37835845 6.25048828 3.59472656 C7.57908031 5.74234276 8.82919473 7.92126982 10.0625 10.125 C15.03126956 18.62901075 20.58319401 26.42432649 26.61279297 34.19970703 C28.67537491 36.87648972 30.67732837 39.59614634 32.6875 42.3125 C43.89665591 58.11095736 43.89665591 58.11095736 58 71 C54.42722273 71.33235137 52.57574039 71.3977337 49.57421875 69.32421875 C46.89690577 66.90691795 44.73093002 64.39436716 42.5 61.5625 C40.1957691 58.64570067 37.94057712 55.94185778 35.28125 53.33984375 C33 51 33 51 32 48 C31.01 47.34 30.02 46.68 29 46 C28.0306584 44.33679209 27.06664865 42.66991531 26.14648438 40.97900391 C23.71865762 36.78821096 20.6397382 33.01749878 17.71484375 29.16601562 C14 24.20454641 14 24.20454641 14 22 C13.01 21.67 12.02 21.34 11 21 C9.35978238 18.62884762 7.88164454 16.29793636 6.4375 13.8125 C6.03853516 13.15185547 5.63957031 12.49121094 5.22851562 11.81054688 C2.9584799 7.97157161 1.24161324 4.31544494 0 0 Z " fill="#AB504F" transform="translate(198,317)"/>
<path d="M0 0 C-1.38972246 3.19845671 -2.97459224 5.06418136 -5.5625 7.375 C-16.02096274 17.60569223 -24.19485262 32.69374836 -27 47 C-27.66 46.67 -28.32 46.34 -29 46 C-32.87006509 61.06561054 -32.43739453 77.41428839 -27 92 C-26.34 92.99 -25.68 93.98 -25 95 C-24.55888435 96.88154883 -24.1890733 98.78062638 -23.875 100.6875 C-23.70742187 101.68136719 -23.53984375 102.67523438 -23.3671875 103.69921875 C-23.24601563 104.45847656 -23.12484375 105.21773438 -23 106 C-25.38397009 103.86474875 -26.5337421 102.15211777 -27.53515625 99.12109375 C-27.7863623 98.37029541 -28.03756836 97.61949707 -28.29638672 96.84594727 C-28.67561279 95.65376587 -28.67561279 95.65376587 -29.0625 94.4375 C-29.32562988 93.61757568 -29.58875977 92.79765137 -29.85986328 91.95288086 C-30.59005114 89.64000736 -31.30031105 87.32225741 -32 85 C-32.27457031 84.09507812 -32.54914063 83.19015625 -32.83203125 82.2578125 C-37.6683645 62.7037169 -32.87602839 40.24358064 -23 23 C-18.89973306 16.6384131 -8.11979238 0 0 0 Z " fill="#DC3A3A" transform="translate(205,182)"/>
<path d="M0 0 C2.78943128 0.60420894 4.55061117 1.42894978 6.33105469 3.69140625 C7.74176747 5.92930496 9.06960159 8.19907633 10.375 10.5 C11.33474548 12.13427975 12.29697688 13.76710222 13.26171875 15.3984375 C13.72626465 16.18831055 14.19081055 16.97818359 14.66943359 17.79199219 C17.21821392 22.02156454 20.07310679 26.02422015 23 30 C22.01 30.66 21.02 31.32 20 32 C18.99421411 30.71283353 17.99553202 29.42011342 17 28.125 C16.443125 27.40570313 15.88625 26.68640625 15.3125 25.9453125 C14 24 14 24 14 22 C13.01 21.67 12.02 21.34 11 21 C9.35978238 18.62884762 7.88164454 16.29793636 6.4375 13.8125 C6.03853516 13.15185547 5.63957031 12.49121094 5.22851562 11.81054688 C2.9584799 7.97157161 1.24161324 4.31544494 0 0 Z " fill="#AB4746" transform="translate(198,317)"/>
<path d="M0 0 C3.30753965 1.06313774 4.47555698 2.55282011 6.0625 5.5 C6.36285156 6.1084375 6.66320312 6.716875 6.97265625 7.34375 C8.04647811 9.33047815 8.04647811 9.33047815 11 11 C11 11.99 11 12.98 11 14 C11.99 14.33 12.98 14.66 14 15 C15.54318872 16.69381304 17.01400272 18.45442502 18.4375 20.25 C19.19933594 21.20390625 19.96117187 22.1578125 20.74609375 23.140625 C22.20851093 24.99589255 23.65976796 26.86003272 25.09765625 28.734375 C26.97616483 31.18670786 26.97616483 31.18670786 30 33 C34.2209225 33.36703674 37.17742309 32.79885972 41 31 C39.63016497 34.16115776 39.0109362 34.9927092 36 37 C32.35710349 37.47516041 30.63492801 37.44352345 27.58984375 35.31640625 C24.89114183 32.90263515 22.69384726 30.39176325 20.4375 27.5625 C19.69371094 26.63566406 18.94992188 25.70882813 18.18359375 24.75390625 C17.46300781 23.84511719 16.74242187 22.93632812 16 22 C15.24847656 21.10152344 14.49695313 20.20304687 13.72265625 19.27734375 C12 17 12 17 12 15 C11.34 15 10.68 15 10 15 C8.7109375 13.5390625 8.7109375 13.5390625 7.375 11.625 C6.92898437 10.99851562 6.48296875 10.37203125 6.0234375 9.7265625 C5 8 5 8 5 6 C4.34 6 3.68 6 3 6 C0 2.53846154 0 2.53846154 0 0 Z " fill="#DA605E" transform="translate(220,354)"/>
<path d="M0 0 C3.63988709 3.01232035 4.93888272 5.93328372 6.38671875 10.29296875 C6.86592828 12.00805616 6.86592828 12.00805616 8 13 C10.45153256 33.93231643 10.45153256 33.93231643 5 42 C2.4918676 45.17219031 -0.14808696 48.13424273 -3 51 C-3 47.47967572 -2.29648649 46.5614657 0 44 C0.66 44 1.32 44 2 44 C2.309375 43.05125 2.61875 42.1025 2.9375 41.125 C4 38 4 38 5 36 C5.29518568 32.46510062 5.27809722 28.9207794 5.3125 25.375 C5.35600586 23.91513672 5.35600586 23.91513672 5.40039062 22.42578125 C5.4504917 16.69884331 4.90749172 12.63984848 1.93725586 7.69189453 C0.57636621 5.23527425 0.2764641 2.76464105 0 0 Z " fill="#B23434" transform="translate(286,225)"/>
<path d="M0 0 C1.15286859 4.13625157 1.16189986 8.14711309 1.16796875 12.4140625 C1.17129715 13.22491302 1.17462555 14.03576355 1.17805481 14.8711853 C1.18310732 16.58078444 1.18546365 18.2903934 1.18530273 20 C1.18749796 22.62255878 1.20569486 25.24470262 1.22460938 27.8671875 C1.22754184 29.52864439 1.22952762 31.19010329 1.23046875 32.8515625 C1.23765427 33.63802155 1.24483978 34.42448059 1.25224304 35.23477173 C1.22883602 40.77116398 1.22883602 40.77116398 -1 43 C-3.11092164 37.79418129 -3.34657736 33.21442243 -3.3125 27.6875 C-3.31121094 26.81899414 -3.30992187 25.95048828 -3.30859375 25.05566406 C-3.18417848 16.50522482 -1.8140634 8.33605325 0 0 Z " fill="#AB3030" transform="translate(176,222)"/>
<path d="M0 0 C0.66 0 1.32 0 2 0 C2 0.66 2 1.32 2 2 C2.99 2.33 3.98 2.66 5 3 C5.12375 3.886875 5.2475 4.77375 5.375 5.6875 C6.11479332 9.60840457 7.55205054 12.94423219 9.10546875 16.60546875 C9.46253906 17.45753906 9.81960937 18.30960937 10.1875 19.1875 C10.55230469 20.04730469 10.91710937 20.90710938 11.29296875 21.79296875 C12 24 12 24 11 26 C0 4.55617978 0 4.55617978 0 0 Z " fill="#AF3C3B" transform="translate(180,281)"/>
<path d="M0 0 C-3.51630143 1.17210048 -5.22633072 0.42092497 -8.703125 -0.51171875 C-16.5221064 -2.17391718 -24.30477627 -0.63852673 -32 1 C-24.51834857 -7.50717375 -8.61715726 -5.302866 0 0 Z " fill="#D93636" transform="translate(269,211)"/>
<path d="M0 0 C0.99 0.33 1.98 0.66 3 1 C2.27683594 2.485 2.27683594 2.485 1.5390625 4 C0.90065377 5.33314765 0.26265487 6.66649161 -0.375 8 C-0.69210938 8.64839844 -1.00921875 9.29679688 -1.3359375 9.96484375 C-3.52787631 14.57704833 -4.89773948 19.01199281 -6 24 C-6.66 23.67 -7.32 23.34 -8 23 C-6.99319594 16.41603136 -5.48227312 11.65869382 -2 6 C-1.27954236 4.0187415 -0.59218657 2.02330411 0 0 Z " fill="#B23838" transform="translate(184,205)"/>
<path d="M0 0 C-0.33 0.66 -0.66 1.32 -1 2 C-1.70640625 1.83757812 -2.4128125 1.67515625 -3.140625 1.5078125 C-10.98968631 0.11385352 -19.15080092 0.95344012 -27 2 C-19.31199605 -3.12533597 -8.36439043 -3.79788538 0 0 Z " fill="#BA4D4D" transform="translate(267,207)"/>
<path d="M0 0 C1.94909021 3.56521085 2.68934047 6.91766874 3.4375 10.87890625 C3.95116341 13.27653722 3.95116341 13.27653722 6 16 C6.44111565 17.88154883 6.8109267 19.78062638 7.125 21.6875 C7.29257813 22.68136719 7.46015625 23.67523438 7.6328125 24.69921875 C7.75398437 25.45847656 7.87515625 26.21773438 8 27 C4.44358175 24.27793208 3.56072061 20.41918352 2.3125 16.3125 C2.08755859 15.62994141 1.86261719 14.94738281 1.63085938 14.24414062 C0.10804645 9.34244187 -0.21293065 5.12760023 0 0 Z " fill="#CC3E3E" transform="translate(174,261)"/>
<path d="M0 0 C4.00915161 3.31791857 6.03752575 6.94522785 7 12 C7.34730076 17.66168331 7.17382337 23.33464557 7 29 C6.67 29 6.34 29 6 29 C5.96132813 27.515 5.96132813 27.515 5.921875 26 C5.62932891 18.40053798 4.88525502 12.67778207 1 6 C0.25 2.5 0.25 2.5 0 0 Z " fill="#D23838" transform="translate(286,225)"/>
<path d="M0 0 C0.66 0.66 1.32 1.32 2 2 C-3.96583144 11.59453303 -3.96583144 11.59453303 -9 15 C-8.25 12.625 -8.25 12.625 -7 10 C-6.34 9.690625 -5.68 9.38125 -5 9.0625 C-2.66402828 8.09867043 -2.66402828 8.09867043 -1.8125 5 C-1.4103125 3.515 -1.4103125 3.515 -1 2 C-0.67 1.34 -0.34 0.68 0 0 Z " fill="#BE4747" transform="translate(291,261)"/>
<path d="M0 0 C4.2742558 1.5830577 6.26531794 4.50568404 9 8 C8.34 8.66 7.68 9.32 7 10 C6.401875 9.21625 5.80375 8.4325 5.1875 7.625 C3.08914751 4.85425677 3.08914751 4.85425677 0 3 C0 2.01 0 1.02 0 0 Z " fill="#A73E3E" transform="translate(280,214)"/>
<path d="M0 0 C0 3 0 3 -1.625 4.6875 C-4.58198664 6.32162419 -6.67179946 6.22692276 -10 6 C-10.33 5.34 -10.66 4.68 -11 4 C-8.69 4 -6.38 4 -4 4 C-4 3.34 -4 2.68 -4 2 C-2.68 1.34 -1.36 0.68 0 0 Z " fill="#E6706D" transform="translate(260,385)"/>
<path d="M0 0 C2.45823172 3.68734758 3.01242616 6.69699971 4 11 C3.34 11 2.68 11 2 11 C2 10.34 2 9.68 2 9 C1.34 9 0.68 9 0 9 C-1.125 2.25 -1.125 2.25 0 0 Z " fill="#AA4D4D" transform="translate(180,272)"/>
<path d="M0 0 C0.33 0.99 0.66 1.98 1 3 C-1.64 5.64 -4.28 8.28 -7 11 C-7 7.22089522 -6.00296038 6.53893899 -3.5 3.8125 C-2.8503125 3.09707031 -2.200625 2.38164062 -1.53125 1.64453125 C-1.0259375 1.10183594 -0.520625 0.55914062 0 0 Z " fill="#EA5151" transform="translate(230,214)"/>
<path d="M0 0 C1.67542976 0.28604898 3.34385343 0.61781233 5 1 C4.67 2.32 4.34 3.64 4 5 C1.03 4.01 -1.94 3.02 -5 2 C-3.68 1.67 -2.36 1.34 -1 1 C-0.67 0.67 -0.34 0.34 0 0 Z " fill="#B83737" transform="translate(267,207)"/>
<path d="M0 0 C-1.65167557 3.5786304 -3.78286492 6.74820188 -6 10 C-7 7 -7 7 -5.6875 3.875 C-3.41304348 0 -3.41304348 0 0 0 Z " fill="#C74342" transform="translate(194,194)"/>
<path d="M0 0 C0.33 0 0.66 0 1 0 C0.56179109 4.55737263 0.14958831 7.57653445 -3 11 C-2.53199289 6.94393835 -2.12046792 3.53411321 0 0 Z " fill="#D53E3E" transform="translate(291,256)"/>
<path d="M0 0 C0.66 0 1.32 0 2 0 C1.8125 1.875 1.8125 1.875 1 4 C-1.5625 5.25 -1.5625 5.25 -4 6 C-4 5.34 -4 4.68 -4 4 C-3.34 4 -2.68 4 -2 4 C-1.34 2.68 -0.68 1.36 0 0 Z " fill="#DB4F4F" transform="translate(280,274)"/>
<path d="M0 0 C0.99 0.33 1.98 0.66 3 1 C1.68 3.64 0.36 6.28 -1 9 C-2.25541557 5.23375329 -1.37061958 3.62811066 0 0 Z " fill="#BD4A49" transform="translate(184,205)"/>
</svg>
