<svg id="Layer_1" enable-background="new 0 0 512 512" height="512" viewBox="0 0 512 512" width="512" xmlns="http://www.w3.org/2000/svg" xmlns:xlink="http://www.w3.org/1999/xlink"><linearGradient id="SVGID_1_" gradientUnits="userSpaceOnUse" x1="256" x2="256" y1="482" y2="0"><stop offset="0" stop-color="#ffc8d1"/><stop offset="1" stop-color="#fff6f7"/></linearGradient><linearGradient id="SVGID_00000150081215390869949620000018222970449805708955_" gradientUnits="userSpaceOnUse" x1="256" x2="256" y1="512" y2="70"><stop offset="0" stop-color="#fd3a84"/><stop offset="1" stop-color="#ffa68d"/></linearGradient><g><path d="m116 432h320v50h-320c-13.785 0-25-11.215-25-25s11.215-25 25-25zm320-432h-320c-30.327 0-55 24.673-55 55v402c0-30.327 24.673-55 55-55h335v-387c0-8.284-6.716-15-15-15z" fill="url(#SVGID_1_)"/><path d="m451 417c0 8.284-6.716 15-15 15h-320c-13.785 0-25 11.215-25 25s11.215 25 25 25h320c8.284 0 15 6.716 15 15s-6.716 15-15 15h-320c-30.327 0-55-24.673-55-55s24.673-55 55-55h335zm-85-347h-50c-8.284 0-15 6.716-15 15s6.716 15 15 15h13.787l-43.787 43.787-49.393-49.393c-5.858-5.858-15.355-5.858-21.213 0l-80 80c-5.858 5.858-5.858 15.355 0 21.213 5.858 5.858 15.355 5.858 21.213 0l69.393-69.394 49.393 49.393c5.858 5.858 15.355 5.858 21.213 0l54.394-54.393v13.787c0 8.284 6.716 15 15 15s15-6.716 15-15v-50c0-8.284-6.716-15-15-15zm-5 287c0-8.284-6.716-15-15-15h-180c-8.284 0-15 6.716-15 15s6.716 15 15 15h180c8.284 0 15-6.716 15-15zm0-60c0-8.284-6.716-15-15-15h-180c-8.284 0-15 6.716-15 15s6.716 15 15 15h180c8.284 0 15-6.716 15-15z" fill="url(#SVGID_00000150081215390869949620000018222970449805708955_)"/></g></svg>