<?xml version="1.0" encoding="UTF-8"?>
<svg id="Layer_1" data-name="Layer 1" xmlns="http://www.w3.org/2000/svg" viewBox="0 0 1600 600">
  <defs>
    <style>
      .cls-1 {
        fill: #01138d;
      }
    </style>
  </defs>
  <path class="cls-1" d="M291.8,170.33c-8.87-16.03-27.17-24.56-45.24-24.54l-21.9.02.02,219.29h22.84c9.42,0,17.84-3.09,26.01-7.99l13.45,7.38c.47.26,1.68,1.38,1.33,1.65l-2.04,1.55-37.59,4.55h-112.65c-.9-1.23-1.2-3.24-.92-4.72.22-1.21,2.62-2.22,4.27-2.22l18.6.02v-219.61l-20.42-.39c-2.03-.04-2.01-6.42-.13-6.83l117.01.12c13.56.02,26.42,2.05,39.46,4.79,13.04,2.74,24.38,6.94,35.62,13.24,12.06,6.76,21.85,16.07,28.87,27.99,6.48,11,10.99,22.62,12.71,35.46,3.28,24.49,2.38,48.73-1.6,73.01-.33,2.04-1.44,4.25-2.66,5.8l-15.99-4.64c-15.4-4.46-36.16-8.1-47.47-17.64l-.46-55.57-1.58-20.21c-.85-10.87-4.27-21.02-9.52-30.5h0ZM207.94,355.77v-200.42l-33.27-.11-.13,200.66,33.4-.12h0ZM355,278.83c3.53-27.4,3.22-61.66-9.78-84.77-8.31-14.78-21.93-25.07-38.6-30.39,8.73,17.84,12.25,37.46,13.19,57.77l.1,47.04c12.07,4.06,23.06,7.48,35.1,10.35h0Z"/>
  <path class="cls-1" d="M270,450.77c-10.06-2.24-10.96,9.38-13.81,10.59-1.15.49-3.52-.35-4.07-1.72l-3.29-77.16c.43-.94,1.78-2.18,2.6-2.34.96-.18,2.73,1.03,3.34,2.16,13.77,25.61,34.66,50.87,60.26,64.92,22.05,12.1,53.81,9.18,67.01-11.63,5.21-8.23,5.53-18.9,3.4-28.15-1.96-8.51-7.25-15.13-14.54-19.7-7.3-4.57-15.2-8.53-23.66-11.19l-32.14-10.13c-31.1-9.8-57.16-23.74-63.63-58.24-4.09-21.83.41-44.19,14.41-61.61,7.45-9.27,17.07-15.56,28.38-20.87,2.15,12.69-1.62,13.22-3.76,16.41-6.22,9.28-7.42,22.01-1.73,31.84,7.06,12.21,22.72,18.19,36.24,22.01l34.04,9.62c8.77,2.48,17.01,5.25,25.17,9.07,23.34,10.89,37.79,32.83,39.38,58.54,1.46,23.68-5.68,47.51-22.22,64.92-18.61,19.59-46.64,24.86-73.07,22.85-12.71-.96-24.9-2.73-37.35-5.5l-20.93-4.66h0ZM404.19,361.39c-3.72-14.89-13.75-25.42-27.17-31.51-35.9-16.31-93.37-17.83-105.49-55.48l-.53-1.67c-.08-.24-.98-.1-1.06.14l-.49,1.36c-4.29,11.97-4.06,24.76-.5,37.1,8.39,29.13,40.23,36.22,66.6,44.08,12.99,3.87,25.5,7.97,37.41,14.2,14.46,7.56,24.37,19.45,29.58,35.87,4.98-13.79,5.37-29.31,1.67-44.09h-.02Z"/>
  <path class="cls-1" d="M600.86,291.63l7.04-5.21c4.23,7.87,11.45,10.51,19.72,10.07,8.93-.48,16.54-6.78,16.25-16.1l-.27-8.74c-10,11.98-27.48,12.44-38.6,1.29-9.87-9.89-11.01-25.59-3.44-37.47,5.6-8.79,15.88-13.44,26.13-12.11,6.71.87,11.51,4.07,15.92,9.24l.34-7.89,8.83.09-.24,56.98c-.04,10.18-7.39,18.11-16.39,21-13.08,4.21-27.38,1.19-35.3-11.16h0ZM611.74,267.39c6.11,5.93,14.62,6.73,21.58,3.28s10.79-10.02,10.99-17.9c.23-9.26-4.74-17.45-13.17-20.02s-17.51.12-22.23,7.83c-5.2,8.5-4.57,19.62,2.83,26.8h0Z"/>
  <path class="cls-1" d="M561.19,258.06c-5.16,13.64-17.75,22.07-31.95,22.06l-25.82-.02-.1-65.12-.41-8.99,27.8.2c11.98.09,22.44,7.37,28.1,17.68,5.75,10.46,6.74,22.66,2.38,34.18h0ZM554.63,242.14c-.54-13.92-9.19-25.95-23.27-27.15l-19.21-.14-.04,56.49,19.05-.16c14.94-1.11,24.05-14.17,23.47-29.04Z"/>
  <path class="cls-1" d="M925.38,277.07c-14.19,8.8-37.72,4.7-44-12.8l8.34-4.36c3.48,13.21,22.03,16.29,31.08,9.3,3.45-2.66,5-7.08,4.18-11.14-.75-3.69-3.89-7.07-7.99-8.45l-18.49-6.24c-4.46-1.51-8.84-4.31-11.22-8.55-4.51-8.04-2.62-18.66,4.58-24.45,12.77-10.27,34.6-6.32,40.79,9.42l-8.2,4.01c-4.11-10.42-16.32-12.8-24.9-8.02-4.04,2.25-5.81,6.57-5.29,10.92.49,4.03,3.66,7.07,8.01,8.55l20.54,6.97c7.37,2.5,11.36,9.42,11.66,17.01.29,7.32-2.58,13.79-9.09,17.83h0Z"/>
  <path class="cls-1" d="M816.08,280.24l-.28-8.31-5.68,5.22c-12.86,8.39-30.03,4.18-37.61-9.06-7.22-12.59-5.15-28.56,5.6-38,11.37-9.97,27.89-9.48,37.58,2.66l.41-8.12,8.89.26.02,54.98-8.94.35v.02ZM785.79,269.7c6.58,4.62,14.69,4.41,21.17.53,6.48-3.87,9.7-10.52,9.59-18.19-.14-10.99-7.55-19.47-18.17-20.27-10.01-.75-18.96,6.09-20.74,16.57-1.36,8.01,1.09,16.39,8.15,21.34h0Z"/>
  <path class="cls-1" d="M815.65,361.31l-18.89,41.66c-.65,1.43-1.47,3.49-3.09,3.08l-8.71-19.97-11.48-24.8-.09,45.18h-6.86l-.04-57.69,8.26-.02,19.8,43.72,20.18-43.72,8.03.1.04,57.57h-6.85l-.3-45.11h0Z"/>
  <path class="cls-1" d="M1205.17,274.07c-13.31,12.02-34,9.19-43.36-5.47-5.35-8.36-6.54-17.77-2.59-27.59,2.88-7.16,9.46-14.17,18.37-16.74,14.5-4.19,29.96,3.2,35.01,17.57,3.92,11.19,1.69,23.98-7.43,32.23h0ZM1196.98,269.47c10.43-7.93,11.25-23.42,2.12-32.35-5.83-5.7-14.61-6.83-21.77-3.47-7.16,3.36-11.16,10.24-11.31,18.35-.14,7.8,3.57,14.82,9.85,18.37s14.69,3.96,21.11-.91Z"/>
  <path class="cls-1" d="M967.32,281.24c-10.16-1.11-18.63-7.62-22.23-16.68-4.06-10.21-3.08-21.55,3.57-30.19,7.49-9.72,19.82-13.55,31.37-9.87,10.88,3.46,18.73,13.24,19.77,25.37.76,8.87-2.38,17.29-8.38,23.3-6,6.01-14.54,9.11-24.1,8.07h0ZM984.55,267.6c9.57-9.35,8.27-25.15-2.58-32.63-6.11-4.22-14.5-4.29-20.77-.45-7.39,4.54-10.74,13.48-9.4,21.77,1.2,7.44,6.02,13.24,12.13,15.52,7.24,2.7,14.91,1.38,20.62-4.2h0Z"/>
  <path class="cls-1" d="M577.13,415.7l5.84-4.37c2.85,5.61,7.4,7.98,13.31,8.24,5.41.23,10.98-1.67,13.81-6.61,2.24-3.92,1.95-8.98,1.28-13.04-7.93,9.67-21.05,9.26-29.68,1.86-10.22-8.76-9.77-27.27,1.33-35.35,8.84-6.44,21.52-5.83,28.43,3.54l.08-6.48,7.02.11-.05,44.12c0,9.71-7.93,16.64-16.98,17.9-9.5,1.32-18.39-1.17-24.4-9.89v-.02ZM611.99,384.26c-.26-9.15-7.63-15.85-16-15.44-8.37.41-14.78,7.06-14.86,15.77-.08,9.19,6.64,16.22,15.48,16.17,8.69-.05,15.64-6.85,15.38-16.5h0Z"/>
  <path class="cls-1" d="M1229.89,415.73l5.49-4.52c3.17,6.51,8.99,8.77,15.83,8.29,6.92-.49,12.79-5.06,12.79-12.45v-7.19c-6.81,7.87-16.79,9.5-25.83,4.85-8.04-4.14-12.34-13.22-11.49-22.13s6.6-16.68,15.39-19.4c8.05-2.5,16.17-.52,21.65,6.69l.36-6.41,6.97.14-.09,44.28c-.02,9.13-7.28,15.6-15.59,17.38-9.76,2.09-19.47-.32-25.49-9.52h.02ZM1264.24,383.5c-.65-9.04-7.31-14.89-15.6-14.74s-14.22,6.1-15.02,14.34c-.94,9.69,5.66,17.47,14.97,17.65,9.07.18,16.36-7.24,15.64-17.25h0Z"/>
  <path class="cls-1" d="M1101.11,415.53l5.62-4.2c3.13,6.11,8.48,8.36,14.8,8.26,7.88-.13,14.2-5.73,13.88-13.87l-.23-5.96c-6.05,7.65-15.46,9.38-24.19,5.53-7.32-3.23-11.61-9.99-12.7-17.2-1.23-8.07,1.63-15.91,7.82-20.98,8.98-7.36,21.58-6.5,28.94,2.53l.25-6.16,6.98.13-.14,44.52c-.03,9.36-7.85,15.74-16.31,17.25-9.66,1.72-18.97-.57-24.72-9.85h0ZM1135.56,383.27c-.84-9.01-8.09-15.12-16.49-14.44-8.4.68-14.25,7.26-14.2,15.72.05,9.54,6.88,16.47,16.25,16.1,8.43-.33,15.33-7.88,14.45-17.38h0Z"/>
  <path class="cls-1" d="M403.35,288.35c-6.62-10.79-13.47-20.74-21.09-30.72l-.53-30.37,9.71,1.65c8.48,1.44,9.38-6.32,12.97-6.22.9.02,1.87,1.85,1.9,2.92l.33,12.59,1.89,47.34c.06,1.37-.55,3.23-1.4,3.66s-3.25,0-3.77-.85h0Z"/>
  <path class="cls-1" d="M1252.75,232.01c-5.32-.7-9.81-.12-13.54,3.21-3.14,2.81-5.69,7.42-5.71,12.41l-.06,32.42-8.79-.06.02-55.19,8.67-.1.47,7.65c5.48-7.46,14.07-10.41,23.03-8.58,8.41,1.72,15.12,8.62,15.17,17.65l.19,38.51-8.87.2-.18-36.37c-.03-6.17-4.38-10.97-10.41-11.77v.02Z"/>
  <path class="cls-1" d="M1081.12,224.74v55.16l-8.75.23-.44-7.89c-4.46,6.86-11.59,9.67-19.73,9.15-10.09-.65-18.47-8.27-18.51-18.82l-.17-37.76,8.81-.1.16,37.15c.02,5.88,4.5,10.13,9.92,11.04s10.04-.06,14.01-3.35c3.62-3.01,5.82-7.84,5.82-13.16v-31.73l8.89.08h-.02Z"/>
  <path class="cls-1" d="M1315.8,279.22c-11.95,4.86-27.31,1.96-33.08-9.72l7.03-4.61c4.24,8.51,15.13,10.66,22.74,6.91,3.01-1.49,4.35-4.49,4.02-7.57-.29-2.62-2.67-5.39-5.68-6.23l-14.77-4.13c-4.9-1.37-9.06-5.03-10.25-8.75-1.76-5.47-.89-10.96,2.56-15,5.41-6.34,14.28-8.17,22.25-6.31,6.21,1.44,11.23,4.74,13.92,10.79l-7.38,3.91c-3.86-7.79-15.42-8.78-20.78-4.71-2.37,1.79-3.11,5.23-2.38,7.83s3.44,4.11,6.28,4.99l16.66,5.11c5.32,1.63,8.12,6.78,8.44,12.07.41,6.83-2.93,12.73-9.58,15.44l-.02-.02Z"/>
  <path class="cls-1" d="M547.15,391.17c-4.62,10.23-14.43,15.44-25.2,15.4l-19.09-.09-.06-57.84,17.68-.07c8.08-.03,15.5,2.54,21.25,8.28,8.41,9.29,10.47,22.42,5.41,34.32h0ZM542.68,377.65c-.2-11.35-7.22-21.88-18.62-21.98l-14.1-.14-.03,44.27,12.71.03c12.2.03,20.26-9.91,20.04-22.18h0Z"/>
  <path class="cls-1" d="M700.86,267.84c9.45,8.94,23.54,6.23,30.05-4.28l7.33,4.62c-6.35,10.17-16.97,14.53-28.39,13-11.82-1.58-20.83-10.13-23.49-21.81-3.6-15.78,5.65-31.81,21.58-35.47,11.89-2.73,24.15,2.14,30.16,12.53l-7.34,4.89c-3.38-5.87-8.78-9.1-14.85-9.5-6.59-.43-12.58,1.87-16.81,7.35-6.42,8.32-6.31,21.03,1.75,28.66h0Z"/>
  <path class="cls-1" d="M1210.54,391.91l-26.12.03-5.46,14.54-7.42-.1,22.54-57.75,7.45.18,21.76,57.49-7.18.22-5.59-14.61h0ZM1207.88,384.97l-10.13-26.8-10.72,26.86,20.85-.06h0Z"/>
  <path class="cls-1" d="M1124.31,271.82l.21,8.12c-3.81.58-7.4,1.1-11.22.82-6.94-.51-12.77-5.65-12.8-12.92l-.16-34.52-9.86-.02-.08-8.43h9.92l.05-13.63,8.49-1.99.21,15.63,15.69-.1v8.49h-15.67s-.05,32.54-.05,32.54c0,4.01,3.21,7.21,7.1,6.82l8.19-.82h-.02Z"/>
  <path class="cls-1" d="M1301.8,401.33c5.92,0,10.06-2.53,13.42-7.07l5.72,3.47c-4.44,6.89-11.57,9.87-19.47,9.9-12.18.05-21.19-8.74-21.9-20.89-.48-8.2,2.89-15.83,9.25-20.4,6.67-4.78,15.67-5.72,23.04-1.59,8.35,4.68,12.07,13.77,11.22,23.44l-36.36.09c.77,7.62,6.98,13.06,15.08,13.05ZM1316.28,382.01c-1.36-9.33-8.3-13.68-15.77-13.16-7.22.5-13.12,5.99-13.8,13.3l29.58-.13h0Z"/>
  <path class="cls-1" d="M987.06,394.32l5.78,3.56c-6.55,10.39-22.23,12.64-31.92,6-8.82-6.04-11.45-17.6-7.89-27.39,3.97-10.92,15.27-16.38,25.95-13.63,10.68,2.75,17.64,14.34,15.52,25.37l-36.04.07c1.07,6.7,5.96,11.28,11.15,12.44,7.02,1.56,13.17-.1,17.45-6.42h0ZM988.22,382.02c-1.27-9.11-8.07-13.48-15.56-13.22-7.14.25-13.18,5.56-14.1,13.33l29.66-.11h0Z"/>
  <path class="cls-1" d="M715.39,406.28l-6.83.3-.27-6.22c-5.66,6.3-12.94,8.53-21.48,6.53-6.71-1.56-12.11-7.09-14.58-14.7-4.2-12.98,3.28-27.32,16.97-29.68,7.53-1.29,14.28,1.16,18.97,7.23l.37-6.27,6.83.1.03,42.73h0ZM695.62,401.06c5.41-.78,9.42-4.53,11.33-8.32,2.5-4.95,2.29-10.01.2-14.96-2.91-6.88-10.24-10.24-17.41-8.54-6.73,1.59-11.67,7.89-11.79,15.36-.08,4.79,1.51,9.42,4.62,12.41,3.34,3.21,7.79,4.82,13.04,4.05Z"/>
  <path class="cls-1" d="M876.64,406.32l-6.61.24-.41-6.51c-5.2,6.47-12.23,8.48-19.8,7.06-10.44-1.95-17.11-11.19-17.32-21.78-.25-12.56,9-23.1,21.58-23.16,6.25-.03,11.47,2.18,15.52,7.7l.33-6.42,6.67.08.03,42.78h0ZM870.1,384.18c-.23-7.37-4.99-13.27-11.22-14.85-6.83-1.74-13.75.84-17.3,7.06-4.52,7.89-2.38,18.51,5.63,22.97,5.14,2.86,11.49,2.45,16.12-.61,4.52-2.99,6.98-8.11,6.77-14.56h0Z"/>
  <polygon class="cls-1" points="929.29 384.16 950.17 406.24 941.78 406.45 922.05 385.9 921.87 406.52 915.14 406.43 915.12 346.96 921.83 347 922.03 382.57 940.55 363.68 949.4 363.74 929.29 384.16"/>
  <path class="cls-1" d="M1073.01,368.73c-6.97-.31-13.41,4.41-13.49,11.42l-.3,26.37-6.96-.05v-42.92l6.97.04.25,5.39c6.36-7.63,17.05-8.97,24.71-3.06,3.4,2.63,5.43,7.72,5.45,12.07l.1,28.46h-6.8l-.1-27.67c-.02-5.47-3.99-9.8-9.81-10.05h0Z"/>
  <polygon class="cls-1" points="1465 363.77 1439.53 425.08 1432.03 425.13 1440.57 404.97 1422.73 363.62 1430.14 363.56 1444.2 397.27 1457.91 363.48 1465 363.77"/>
  <path class="cls-1" d="M1353.41,368.89c-8.5-.99-14.75,4.7-14.75,12.78v24.8l-6.91-.06v-42.86l6.84-.1.21,5.96c4.02-5.59,9.96-7.65,16.65-6.92,7.6.82,13.47,6.47,13.55,14.46l.3,29.51-6.86-.02-.21-28.74c-.04-4.97-4.19-8.28-8.81-8.82l-.02.02Z"/>
  <polygon class="cls-1" points="1019.38 279.91 1010.56 280.2 1010.54 201.73 1019.36 201.76 1019.38 279.91"/>
  <path class="cls-1" d="M1412.38,393.85l6.04,3.39c-4.81,7.65-13.22,11.36-22.26,10.13-9.62-1.31-16.74-7.89-18.74-17.32-2.32-10.95,2.92-21.65,13.1-26.03,9.92-4.27,22.26-1.16,27.81,8.72l-5.82,3.66c-3.84-6.27-10.37-8.85-17.3-6.96-6.27,1.71-10.97,7.33-11.43,14.42-.48,7.37,3.62,14.1,10.19,16.35,6.9,2.37,14.22.49,18.39-6.37h.02Z"/>
  <path class="cls-1" d="M847.21,279.58c-2.93.63-5.65.62-8.7.23l-.03-78.11,8.71.08.02,77.79h0Z"/>
  <path class="cls-1" d="M1024.36,406.09c-4.63,1.15-9.64,1.47-14.03-.68-3.56-1.74-5.13-5.94-5.11-9.84l.07-25.37-7.49-.37-.02-6.22,7.47-.16.07-10.64,6.66-1.66-.1,12.25,12.2.11v6.42l-12.1.12.02,25.55c0,2.3,2.18,5.05,4.54,4.89l7.38-.49.44,6.08h0Z"/>
  <path class="cls-1" d="M667.24,406.56l-9.32.23c-5.02.12-9.1-4.68-9.12-9.96l-.12-26.79-7.45-.06v-6.47h7.5l.11-10.56,6.55-1.82-.04,12.37h11.98l.18,6.35-12.14.13-.06,25.65c0,1.99,1.62,4.7,3.82,4.66l7.86-.14.25,6.4h0Z"/>
  <polygon class="cls-1" points="757.34 279.81 748.35 279.97 748.35 224.74 757.25 224.66 757.34 279.81"/>
  <polygon class="cls-1" points="675.07 279.81 666.13 280.07 666.04 224.81 675.03 224.73 675.07 279.81"/>
  <polygon class="cls-1" points="1145.29 279.96 1136.54 280.01 1136.5 224.65 1145.24 224.63 1145.29 279.96"/>
  <polygon class="cls-1" points="585 279.77 576.19 280.13 576.2 224.74 584.94 224.76 585 279.77"/>
  <polygon class="cls-1" points="733.52 406.31 726.46 406.47 726.44 345.31 733.48 345.3 733.52 406.31"/>
  <path class="cls-1" d="M894.24,406.39l-6.8.05-.02-42.7,6.75-.31.22,6.03c3.07-4.98,7.76-7.17,13.75-6.83l-.14,7.14c-6.87-1.33-13.53,3.37-13.58,10.47l-.18,26.14h0Z"/>
  <polygon class="cls-1" points="1040.45 406.38 1033.65 406.46 1033.56 363.69 1040.37 363.72 1040.45 406.38"/>
  <polygon class="cls-1" points="565.74 406.44 558.86 406.41 558.85 363.52 565.81 363.53 565.74 406.44"/>
  <polygon class="cls-1" points="635.84 406.33 628.95 406.44 629.03 363.51 635.81 363.52 635.84 406.33"/>
  <path class="cls-1" d="M577.67,213.37c-2.18-1.24-2.85-3.87-2.54-5.97.26-1.83,1.67-4.07,3.82-4.71,2.54-.77,5.35.46,6.34,2.42s.97,5.07-.24,6.81c-1.36,1.95-4.7,2.96-7.37,1.45h0Z"/>
  <path class="cls-1" d="M1137.41,212.96c-1.59-1.08-2.3-3.77-2.04-5.57.22-1.5,1.62-3.79,3.21-4.46,2.86-1.21,5.68,0,6.93,2.18s1.06,5.33-.61,7.18-4.63,2.61-7.49.66h0Z"/>
  <path class="cls-1" d="M675.91,207.31c.32,2.58-.73,5.06-2.75,6.18-1.59.87-4.15.69-6.12-.48-1.67-.99-2.5-3.91-1.88-6.37.58-2.32,3.07-4.04,5.06-4.21,2.8-.24,5.25,1.25,5.68,4.88Z"/>
  <path class="cls-1" d="M758.27,207.22c.61,3.91-1.87,6.76-5.09,6.85-3.4.1-6.37-2.68-5.82-6.54.41-2.88,2.61-4.95,5.13-5.11,2.8-.18,5.23,1.3,5.78,4.8h0Z"/>
  <path class="cls-1" d="M1035.81,346.25c2.2-.66,4.93.7,5.5,2.42.84,2.5-.32,5.16-2.59,6.03s-5.02-.1-5.83-2.75c-.6-1.95.31-4.92,2.92-5.7Z"/>
  <path class="cls-1" d="M560.66,346.4c2.43-1.03,5.26.68,5.77,2.33.81,2.62-.23,5.09-2.17,5.88-2.38.96-5.06.07-5.89-1.84-.97-2.22-.42-5.21,2.29-6.36Z"/>
  <path class="cls-1" d="M631.52,346.21c2.34-.45,4.74,1.34,5.06,3.12.49,2.77-.77,4.86-2.97,5.48-2.33.65-4.87-.57-5.42-2.6-.72-2.66.29-5.4,3.33-5.99h0Z"/>
</svg>