<svg width="24" height="20" viewBox="0 0 24 20" fill="none" xmlns="http://www.w3.org/2000/svg">
<path fill-rule="evenodd" clip-rule="evenodd" d="M14.6798 14.5106C14.7891 14.3837 14.8434 14.2185 14.831 14.0515C14.8185 13.8845 14.7401 13.7293 14.6132 13.62C14.4863 13.5108 14.3212 13.4564 14.1542 13.4689C13.9871 13.4814 13.8319 13.5597 13.7227 13.6866L12.6302 14.9553V10.1829C12.6288 10.0163 12.5616 9.85708 12.4433 9.73981C12.3251 9.62254 12.1652 9.55674 11.9987 9.55674C11.8321 9.55674 11.6723 9.62254 11.554 9.73981C11.4357 9.85708 11.3685 10.0163 11.3671 10.1829V14.9553L10.2747 13.6866C10.1652 13.5606 10.0102 13.4831 9.84365 13.471C9.67713 13.459 9.51261 13.5134 9.38607 13.6223C9.25953 13.7312 9.18128 13.8858 9.16843 14.0523C9.15558 14.2187 9.20918 14.3835 9.31749 14.5106L11.5204 17.0679C11.5796 17.1369 11.653 17.1922 11.7356 17.2301C11.8182 17.2681 11.908 17.2877 11.9988 17.2877C12.0897 17.2877 12.1795 17.2681 12.2621 17.2301C12.3446 17.1922 12.418 17.1369 12.4772 17.0679L14.6798 14.5106ZM23.9986 9.45323C23.9974 10.4916 23.5844 11.4872 22.8501 12.2214C22.1159 12.9557 21.1204 13.3687 20.082 13.3698H18.9692L18.9619 13.1668C18.8974 11.3631 18.1355 9.65486 16.8367 8.40166C15.5379 7.14847 13.8035 6.44815 11.9986 6.44815C10.1938 6.44815 8.4594 7.14847 7.16058 8.40166C5.86176 9.65486 5.09988 11.3631 5.03537 13.1668L5.0281 13.3698H3.91557C2.89839 13.3696 1.9212 12.9736 1.19078 12.2657C0.46035 11.5578 0.0340007 10.5935 0.00194704 9.57684C-0.0301066 8.56016 0.33465 7.57091 1.01903 6.8184C1.70341 6.06589 2.65372 5.60917 3.66887 5.54489C3.81387 5.5359 3.95133 5.47718 4.05807 5.37863C4.16481 5.28008 4.2343 5.14773 4.2548 5.00391C4.66496 2.14716 7.15346 0 10.0377 0C10.9721 0.00104408 11.8926 0.225598 12.7225 0.654914C13.5524 1.08423 14.2676 1.70585 14.8082 2.46788C14.9009 2.59777 15.0392 2.68789 15.1955 2.72021C15.3517 2.75253 15.5144 2.72467 15.651 2.6422C16.14 2.3453 16.7012 2.1886 17.2732 2.18925C18.8867 2.18925 20.2557 3.4455 20.3893 5.05397C20.4005 5.18966 20.4553 5.31808 20.5455 5.42009C20.6357 5.52209 20.7564 5.59223 20.8897 5.62003C21.7678 5.80758 22.5553 6.29025 23.121 6.98768C23.6866 7.68512 23.9963 8.55525 23.9986 9.45323ZM16.0355 9.38259C16.9696 10.3165 17.551 11.5455 17.6806 12.86C17.8102 14.1745 17.48 15.4933 16.7462 16.5917C16.0124 17.69 14.9205 18.5 13.6565 18.8835C12.3925 19.2671 11.0347 19.2005 9.81426 18.695C8.59386 18.1896 7.58647 17.2767 6.96372 16.1118C6.34098 14.9469 6.14142 13.6021 6.39905 12.3066C6.65667 11.011 7.35555 9.84491 8.37659 9.00689C9.39762 8.16886 10.6776 7.7108 11.9986 7.71075C13.5125 7.71132 14.9644 8.3126 16.0355 9.38259Z" fill="#0291F7"/>
</svg>
