<svg id="Layer_1" enable-background="new 0 0 512 512" height="512" viewBox="0 0 512 512" width="512" xmlns="http://www.w3.org/2000/svg" xmlns:xlink="http://www.w3.org/1999/xlink"><linearGradient id="SVGID_1_" gradientUnits="userSpaceOnUse" x1="256" x2="256" y1="482" y2="60"><stop offset="0" stop-color="#c3ffe8"/><stop offset=".9973" stop-color="#f0fff4"/></linearGradient><linearGradient id="SVGID_00000159454494421290453340000017247234707923594657_" gradientUnits="userSpaceOnUse" x1="256" x2="256" y1="512" y2="0"><stop offset="0" stop-color="#00b59c"/><stop offset="1" stop-color="#9cffac"/></linearGradient><g><path d="m256 350c-74.559 0-135-60.441-135-135v-155h270v155c0 74.559-60.441 135-135 135zm100.395 132-20.725-55.267c-2.195-5.855-7.792-9.733-14.045-9.733h-131.25c-6.253 0-11.849 3.879-14.045 9.733l-20.725 55.267z" fill="url(#SVGID_1_)"/><path d="m461 135v68.377c0 19.399-12.365 36.556-30.769 42.691l-47.622 15.874c4.013-10.82 6.675-22.294 7.79-34.22l30.345-10.115c6.134-2.045 10.256-7.764 10.256-14.23v-68.377c0-8.271-6.729-15-15-15h-25v-30h25c24.813 0 45 20.187 45 45zm-369.743 82.607c-6.135-2.045-10.257-7.763-10.257-14.23v-68.377c0-8.271 6.729-15 15-15h25v-30h-25c-24.813 0-45 20.187-45 45v68.377c0 19.399 12.365 36.556 30.77 42.691l47.621 15.874c-4.013-10.82-6.675-22.295-7.79-34.22zm216.609 28.984-5.749-33.519 24.353-23.738c8.903-8.678 3.99-23.798-8.313-25.585l-33.655-4.89-15.051-30.497c-5.502-11.149-21.4-11.149-26.902 0l-15.051 30.497-33.655 4.89c-12.303 1.788-17.216 16.907-8.313 25.585l24.353 23.738-5.749 33.519c-2.102 12.254 10.76 21.598 21.764 15.813l30.102-15.826 30.102 15.825c11.004 5.786 23.866-3.558 21.764-15.812zm113.134-216.591c0-16.569-13.431-30-30-30h-270c-16.569 0-30 13.431-30 30 0 16.569 13.431 30 30 30h270c16.569 0 30-13.431 30-30zm-125 387v-73.026c-12.64 3.916-26.073 6.026-40 6.026-13.927 0-27.36-2.11-40-6.026v73.026zm95 80c0-8.284-6.716-15-15-15h-240c-8.284 0-15 6.716-15 15s6.716 15 15 15h240c8.284 0 15-6.716 15-15z" fill="url(#SVGID_00000159454494421290453340000017247234707923594657_)"/></g></svg>