<?xml version="1.0" encoding="UTF-8"?>
<svg id="Layer_2" data-name="Layer 2" xmlns="http://www.w3.org/2000/svg" viewBox="0 0 416 415.99">
  <defs>
    <style>
      .cls-1 {
        fill: #fff;
      }

      .cls-2 {
        fill: #e31c1c;
      }
    </style>
  </defs>
  <g id="Layer_1-2" data-name="Layer 1">
    <g>
      <path class="cls-1" d="M221.02,0l3.76.69c101.32,7.9,182.59,89.23,190.53,190.54l.69,3.75-.34,26.09c-3.46,53.91-27.63,104.2-67.69,140.7-83.64,76.2-212.54,71.5-290.59-10.47C-14.12,276.22-19.38,160.15,44.87,79.02,81.74,32.45,136.4,4,195.16.32l25.86-.32Z"/>
      <path class="cls-2" d="M225.39,177.85h39.47l-5.18,39.9h-34.3s0,102.32,0,102.32h-41.2s0-102.32,0-102.32h-34.45s0-39.9,0-39.9h34.44s.02-30.4.02-30.4c.19-7.82,1.22-15.16,4.04-22.37,7.1-18.25,22.86-27.65,41.71-29.14l16.99-.02,8.59.47,10.7.89v35.68s-22.32.07-22.32.07c-3.35,0-6.6.64-9.62,1.62-4.06,1.7-6.69,4.71-7.92,8.9-.58,2.69-.89,5.42-1,8.29l.02,26.03Z"/>
    </g>
  </g>
</svg>