<svg id="Capa_1" enable-background="new 0 0 512 512" height="512" viewBox="0 0 512 512" width="512" xmlns="http://www.w3.org/2000/svg" xmlns:xlink="http://www.w3.org/1999/xlink"><linearGradient id="SVGID_1_" gradientUnits="userSpaceOnUse" x1="256" x2="256" y1="512" y2="0"><stop offset="0" stop-color="#a93aff"/><stop offset="1" stop-color="#ff81ff"/></linearGradient><linearGradient id="SVGID_00000095298514194379486500000008712017440268844185_" gradientUnits="userSpaceOnUse" x1="256" x2="256" y1="460" y2="10"><stop offset="0" stop-color="#ffbef9"/><stop offset="1" stop-color="#fff1ff"/></linearGradient><g><path d="m431 363.062v73.938c0 41.355-33.645 75-75 75h-200c-41.355 0-75-33.645-75-75v-73.938c0-41.951 9.605-84.11 27.778-121.921 15.216-31.659 36.583-60.513 62.356-84.454 4.513 2.122 9.55 3.313 14.866 3.313h140c5.316 0 10.353-1.191 14.866-3.312 25.773 23.941 47.14 52.795 62.356 84.454 18.173 37.81 27.778 79.969 27.778 121.92zm-242.895-273.062h7.895 120 7.895l26.15-69.733c3.677-9.807-3.572-20.267-14.045-20.267h-160c-10.473 0-17.722 10.46-14.045 20.267z" fill="url(#SVGID_1_)"/><path d="m310.63 346.04c-6.612-12.074-17.653-21.123-31.927-26.168-2.892-1.022-5.839-2.085-8.788-3.184v-52.286c5.631 1.857 8.527 4.686 8.892 5.06 5.455 6.169 14.873 6.788 21.09 1.371 6.246-5.442 6.897-14.918 1.454-21.163-5.216-5.986-16.062-13.506-31.437-16.017v-8.653c0-8.284-6.716-15-15-15s-15 6.716-15 15v10.334c-1.135.293-2.28.607-3.439.956-18.37 5.533-32.091 21.223-35.807 40.944-3.407 18.075 2.448 35.556 15.278 45.619 6.196 4.86 13.772 9.314 23.968 13.959v67.624c-7.593-.958-13.181-3.386-22.016-9.165-6.932-4.537-16.229-2.591-20.764 4.341-4.535 6.933-2.591 16.229 4.341 20.765 15.029 9.832 25.565 13.184 38.438 14.214v10.409c0 8.284 6.716 15 15 15s15-6.716 15-15v-11.798c10.078-2.429 19.24-7.292 26.99-14.413 10.293-9.457 17.241-22.271 19.562-36.08 2.16-12.834.087-25.856-5.835-36.669zm-76.168-46.792c-3.924-3.077-5.616-9.538-4.312-16.458 1.007-5.345 4.083-11.57 9.766-15.322v35.525c-1.983-1.222-3.826-2.468-5.454-3.745zm52.421 78.487c-1.522 9.051-7.274 18.604-16.968 23.649v-52.766c19.002 7.419 17.812 24.096 16.968 29.117zm225.117-302.735c0 6.883-4.685 12.883-11.362 14.552-19.288 4.822-34.264 19.799-39.086 39.086-1.669 6.677-7.669 11.362-14.552 11.362s-12.883-4.685-14.552-11.362c-4.822-19.287-19.798-34.264-39.086-39.086-6.677-1.669-11.362-7.669-11.362-14.552s4.685-12.883 11.362-14.552c19.288-4.822 34.264-19.799 39.086-39.086 1.669-6.677 7.669-11.362 14.552-11.362s12.883 4.685 14.552 11.362c4.822 19.287 19.798 34.264 39.086 39.086 6.677 1.669 11.362 7.669 11.362 14.552zm-382 0c0 6.883-4.685 12.883-11.362 14.552-19.288 4.822-34.264 19.799-39.086 39.086-1.669 6.677-7.669 11.362-14.552 11.362s-12.883-4.685-14.552-11.362c-4.822-19.287-19.798-34.264-39.086-39.086-6.677-1.669-11.362-7.669-11.362-14.552s4.685-12.883 11.362-14.552c19.288-4.822 34.264-19.799 39.086-39.086 1.669-6.677 7.669-11.362 14.552-11.362s12.883 4.685 14.552 11.362c4.822 19.287 19.798 34.264 39.086 39.086 6.677 1.669 11.362 7.669 11.362 14.552zm56 15h140c19.33 0 35 15.67 35 35 0 19.33-15.67 35-35 35h-140c-19.33 0-35-15.67-35-35 0-19.33 15.67-35 35-35z" fill="url(#SVGID_00000095298514194379486500000008712017440268844185_)"/></g></svg>