<svg width="20" height="20" viewBox="0 0 20 20" fill="none" xmlns="http://www.w3.org/2000/svg">
<g clip-path="url(#clip0_334_8531)">
<path d="M7.5 9.16675C7.5 9.82979 7.76339 10.4657 8.23223 10.9345C8.70107 11.4034 9.33696 11.6667 10 11.6667C10.663 11.6667 11.2989 11.4034 11.7678 10.9345C12.2366 10.4657 12.5 9.82979 12.5 9.16675C12.5 8.50371 12.2366 7.86782 11.7678 7.39898C11.2989 6.93014 10.663 6.66675 10 6.66675C9.33696 6.66675 8.70107 6.93014 8.23223 7.39898C7.76339 7.86782 7.5 8.50371 7.5 9.16675Z" stroke="white" stroke-width="2" stroke-linecap="round" stroke-linejoin="round"/>
<path d="M14.7143 13.8808L11.1785 17.4167C10.866 17.7289 10.4423 17.9042 10.0006 17.9042C9.55885 17.9042 9.13518 17.7289 8.82267 17.4167L5.286 13.8808C4.35368 12.9485 3.71878 11.7606 3.46157 10.4674C3.20437 9.17419 3.33641 7.83376 3.841 6.61561C4.3456 5.39745 5.20008 4.35628 6.2964 3.62376C7.39272 2.89123 8.68164 2.50024 10.0002 2.50024C11.3187 2.50024 12.6076 2.89123 13.7039 3.62376C14.8003 4.35628 15.6547 5.39745 16.1593 6.61561C16.6639 7.83376 16.796 9.17419 16.5388 10.4674C16.2816 11.7606 15.6466 12.9485 14.7143 13.8808Z" stroke="white" stroke-width="2" stroke-linecap="round" stroke-linejoin="round"/>
</g>
<defs>
<clipPath id="clip0_334_8531">
<rect width="20" height="20" fill="white"/>
</clipPath>
</defs>
</svg>
