<?xml version="1.0" encoding="UTF-8"?>
<svg id="Layer_1" data-name="Layer 1" xmlns="http://www.w3.org/2000/svg" viewBox="0 0 1600 600">
  <polygon points="623.54 562.76 599.24 562.76 600.32 562.19 622.47 562.19 623.54 562.76"/>
  <path d="M866.79,354.26c-13.26,24.9-28.97,53.93-51.69,70.82-15.04,11.18-33.62,13.61-46.77-.57-5.57-6.01-9.44-13.02-12.16-20.96-5.83-17.03-7.9-34.76-7.15-52.89,1.52-36.6,13.02-71.7,31.71-102.88,6.02-10.05,13.21-18.52,22-26.13s19.12-12.05,30.68-12.31c4.95-.11,9.82,1.07,14.33,2.71,9.33,3.38,15.47,11.21,16.34,21.3,2.05,23.87-12.49,46.61-31.03,61.14-9.91,7.77-20.72,13.24-32.7,17-1.24.39-3,1.45-3.47,2.72-8.04,21.6-13.5,43.71-15.28,66.76-.8,10.43.27,25.15,6.12,33.05s15.62,5.87,22.82-.64c8.05-7.28,14.89-15.15,21.38-23.9,8.39-11.32,16.18-22.46,23.35-34.65l29.03-49.33c1.11-1.88,1.44-4.03,1.56-6.2l2.37-42.51,2.93-31.78c2.05-22.28,5.78-43.85,9.74-65.87l3.31-18.43c-15.14,4.91-29.06,10.21-43.55,15.74-1.16.44-2.54.66-3.65.71-2.51-4.4-2.94-8.73-1.27-13.45l52.41-18.6c4.45-18.14,9.58-35.2,15.54-52.46,1.66-4.81,4.39-8.11,8.62-10.98,10.19-6.1,21.38-10.6,33.1-13.1,3.6-.77,6.63-.97,10.37-.34l-5.27,14.83c-5.54,15.59-10.71,30.72-15.72,47.12l11.22-2.51,39.79-9.41c1.5-.35,4.5-.5,5.37.47,3.09,3.43,4.29,7.6,3.95,12.47l-61.8,14.65c-1.14.27-2.61,1.05-3.35,1.72l-7,28.42c-9.97,40.48-18.58,80.91-24.43,122.24l-4.45,36.56c-2.24,18.44-2.36,36.49-1.38,54.94.5,9.53,1.76,18.55,4.31,27.65,3.7,13.19,11.26,24.59,25.81,23.56,9.43-.67,18.25-4.35,25.22-10.74,5.74-5.27,10.47-10.88,14.48-17.6,19.25-32.22,28.02-81.38,30.11-118.78.43-7.73,4.33-10.97,11.96-13.14-.88,29.98-5.12,59.31-12.85,88.21-5.61,20.96-14.15,43.52-27.17,60.7-6.05,7.98-13.22,14.56-22.09,19.33-13.13,7.06-28.61,8.21-42.38,2.4-24.91-10.5-31.55-47.3-32.96-72.42l-2-35.52c-1.9.99-2.98,2.03-3.75,3.49l-14.58,27.38ZM852.62,229.8c-.16-2.02-.97-4.21-2.73-5.27-4.24,1.91-8,4.89-11.07,8.42-14.03,16.1-25.67,40.06-33.62,60.19,1.16.2,2.81-.02,3.69-.65,20.8-14.95,45.9-35.17,43.74-62.68Z"/>
  <path d="M598.9,560.95c-8.09.03-23.99-8.07-23.46-18.19,2.49-2.66,6.72-4.63,10.4-5.21,2.13,4.85,5.21,8.05,10,9.31,13.1,3.44,26.64.24,36.82-8.67,8.01-7.01,14.17-14.97,19.35-24.33,6.98-12.62,12.43-25.58,16.82-39.48,14.14-44.75,24.22-101.56,17.71-148.01-.36-2.55-1.06-4.59-2.03-7.13-1.55,1.55-2.61,2.69-3.16,4.24l-11.64,33.06c-7.07,20.07-24.25,79.64-47.29,78.59-9.85-.45-18.08-6.09-22.93-14.62-12.25-21.56-9.28-55.47-4.15-79.8,5.83-27.68,13.99-61.08,27.8-85.4,4.4-7.75,9.52-14.46,16.08-20.4,6.09-5.52,13.36-8.78,21.55-9.88,6.21-.84,3.19-7,8.49-11.74,14.3,1.41,33.83,7.02,42.83,18.77-2.63,1.98-5.01,3.26-7.89,4.42-32.43,13.07-53.66,39.35-67.66,70.89-10.52,23.69-20.89,58.5-21.36,84.17-.13,7.31,2.84,16.49,7.74,15.51,8.15-1.63,14.82-10.66,19.21-17.94,7.02-11.67,12.64-23.52,18.04-36.07l17.94-41.62c1.76-4.08,4.81-7.67,8.79-9.46,8.33-3.76,17-6.02,25.99-7.36,2.65-.4,4.69.75,5.38,3.4,1.34,5.16,2.41,10.45,2.81,15.88.66,9,1.08,17.74.88,26.84-.28,12.94-1.35,25.15-2.29,38.16-3.38,46.61-15.28,112.04-44.08,149.23-6.92,8.94-14.71,16.6-24.38,22.57-8.76,5.42-18.52,9.51-28.89,10.17l-23.44.1Z"/>
  <path d="M757.66,482.94l-8.65,21.57c-2.09.47-4.58.66-6.78.52l-1.77-2.98-7.68-19.34-.42,21.91-9.96.08v-41.36s11.06.04,11.06.04l11.81,28.29,11.65-28.22,11.07-.08-.26,41.37h-9.44s-.63-21.77-.63-21.77Z"/>
  <path d="M1022.85,490.17c-2.05,8.41-8.96,14.23-17.4,14.37l-18.23.31.12-41.58,16.66.19c3.2.04,6.35,1.01,9.32,2.16,8.45,4.96,12.6,14.87,9.52,24.55ZM1011.75,477.52c-2.59-5.47-8.15-4.99-14.35-4.49l-.03,21.97c3.72.35,8.17,1.27,11.41-1.03,5-3.56,5.56-10.97,2.96-16.45Z"/>
  <path d="M850.4,504.7l-10.34.11-6.6-11.23c-.99-1.69-4.17-2.45-5.37-1.03l-.14,12.15-9.94-.05-.07-41.34,17.34.24c6.66.09,11.79,4.43,12.81,11.07,2.44,11.94-7.16,14.43-5.83,16.63l8.16,13.46ZM836.71,481.63c1.66-1.24,1.68-6.12.24-7.4-2.29-2.05-5.88-1.65-8.77-1.22l-.14,9.71c2.71.39,6.04.87,8.66-1.09Z"/>
  <path d="M804.01,504.76c-1.41-.37-2.2-3.5-2.19-5.59l-16.64-.24-2.3,5.93-10.78-.22,15.39-41.27h11.02s5.47,14.54,5.47,14.54l9.99,26.99-9.96-.13ZM797.73,489.4l-4.86-13.12-4.54,13.32,9.4-.2Z"/>
  <path d="M875.48,483.23l15.28,21.32-10.64.16-11.02-15.01c-2.33,1.04-3.25,3.71-3.25,6.18v8.73s-9.93.16-9.93.16l-.31-41.36,9.99-.05.59,15.66,12.34-15.58h11.15s-13.76,17.11-13.76,17.11c-.27.57-.48,1.83-.44,2.68Z"/>
  <polygon points="978.96 488.56 967.48 488.65 967.35 495.57 981.71 495.75 981.91 504.76 957.26 504.52 957.1 463.32 981.4 463.4 981.25 472.69 967.58 472.77 967.45 479.22 979.03 479.33 978.96 488.56"/>
  <polygon points="917.28 488.58 905.52 488.66 905.25 495.46 919.81 495.74 919.74 504.76 895.32 504.73 895.25 463.3 919.52 463.4 919.45 472.71 905.66 472.72 905.42 479.24 917.32 479.32 917.28 488.58"/>
  <polygon points="943.36 504.75 933.33 504.75 933.15 472.73 923.85 472.68 923.75 463.29 952.51 463.46 952.57 472.52 943.3 472.68 943.36 504.75"/>
</svg>