<?xml version="1.0" encoding="UTF-8"?>
<svg id="Layer_2" data-name="Layer 2" xmlns="http://www.w3.org/2000/svg" viewBox="0 0 416 415.99">
  <defs>
    <style>
      .cls-1 {
        fill: #fff;
      }

      .cls-2 {
        fill: #76cb7d;
      }

      .cls-3 {
        fill: #008bde;
      }

      .cls-4 {
        fill: #97da7b;
      }

      .cls-5 {
        fill: #0069cf;
      }

      .cls-6 {
        fill: #77cb7d;
      }
    </style>
  </defs>
  <g id="Layer_1-2" data-name="Layer 1">
    <g>
      <path class="cls-1" d="M221.02,0l3.76.69c101.32,7.9,182.59,89.23,190.53,190.54l.69,3.75-.34,26.09c-3.46,53.91-27.63,104.2-67.69,140.7-83.64,76.2-212.54,71.5-290.59-10.47C-14.12,276.22-19.38,160.15,44.87,79.02,81.74,32.45,136.4,4,195.16.32l25.86-.32Z"/>
      <g>
        <path class="cls-3" d="M253.35,76.09l.24,1.24-11.23,9.67c-8.06,8.66,2.06,18.23,11.29,12.2,11.26-3.1,17.96,9.54,8.91,16.97l-30.64,18.3c-8.31,4.77-11.18,20.01-1.88,25.06,9.8,5.33,17.02-1.99,21.15-10.3,1.99-2.51,3.29-3.31,6.48-3.7l33.35.14c13.12,1.6,13.35,19.15-.44,20.78l-41.14.2c-33.39,4.11-33.29,47.78-1.11,52.46,11.55-.61,19.32,2.19,20.81,14.57l.07,48.63c.35,1.36.21,2.51-.43,3.44,1.42-.35,1.54.15.4,1.04-.51-.09-1.02-.07-1.62.49-27.94,25.96-65.06,39.1-102.85,37.13-1.23.29-1.58-.05-.45-.65l-.03-1.01c-.43.05-1.09.06-1.18-.23-3.2-10.29-5.32-22.62-.33-32.75l14.95-29.41c2.24-7.01-1.78-12.3-7.84-15.39l-11.97-4.5c-4.78-2.54-5.61-6.21-5.7-11.28-.86-4.06-3.46-6-7.43-6.51l-21.17-.05c-13.16-1.53-30.69-11.27-23.79-27.05,2.97-6.79,11.79-12.49,18.87-8.41,4.75,4.81,8.3,5.23,10.64,1.27l3.01-12.8c2.32-6.44,4.34-9.14,10.51-12.3l22.14-7.62c3.53-1.79,5.36-5.27,4.41-9.19-.52-2.14-8.67-14.86-10.44-16.98-2.81-3.37-6.13-3.35-10.03-1.97-6.57,3.77-16.44,7.94-20.42-1.51-2.41-5.73.34-9.61,4.88-12.88l17.95-9.83c9.14-3.44,16.03-.95,20.96,7.55,5.03,5.76,11.39,5.67,18.66,4.97,5.56-.53,8.13-2.25,10.86-7.13,3.22-5.76,7.23-16.09,5.98-22.51-2.34-6-5.38-11.69-9.11-17.09l.53-1.24h18.93s7.87.95,7.87.95c9.06,1.08,17.68,3.2,26.35,5.84.82.25,1.08.65,1.02,1.37Z"/>
        <path class="cls-4" d="M199.18,67.93l6.74,11.08c3.39,5.48,4.52,11.77,2.01,17.82l-4.97,11.99c-2.01,4.84-6.68,8.21-12.02,8.18l-9.91-.05c-4.64-.02-8.51-3.24-10.83-7.11-4.15-6.95-12.37-8.85-19.4-4.98l-16.91,9.3c-4.26,2.34-6.24,6.9-4.56,11.16,1.75,4.43,6.85,6.94,11.3,4.88l7.47-3.45c4.16-1.92,9.34-1.52,11.93,2.52l9.2,14.35c1.64,2.56,1.91,5.44.74,8.42-.87,2.22-2.88,4.2-5.73,5.16l-20.01,6.79c-5.67,1.92-9.67,6.73-11.02,12.47l-2.81,12.03c-.49,2.11-2.32,3.41-4.19,3.8-5.48,1.15-8.14-10.01-18.88-3.44-5.62,3.44-8.5,8.76-7.59,15.37.8,5.77,4.03,9.71,9.2,12.39,4.59,2.39,9.11,4.91,14.63,4.92l20.81.04c5.38.01,9.17,4.37,9.03,9.64-.09,3.55,1.85,7.12,5.21,8.38l11.2,4.19c7.49,2.8,11.98,11.18,8.15,18.62l-13.54,26.31c-3.7,7.2-4.67,14.99-2.82,22.89l2.61,11.13.16,2.15c-4.44-.02-16-.08-19.38-2.46-.41-.29-.77-.64-1.12-1-.21.3-.38.26-.52-.09l-1.52-.92c-6.95-15.45-14.03-30.84-21.25-46.17-2.38-2.93-3.57-4.39-3.57-4.39l-11.25-9.31c-5.54-6.28-6.06-12.08-4.1-19.95,1.87-3.94,3-7.87,3.39-11.82-1.12-3.15-3.5-5.65-7.13-7.5-3.52-3.05-6.13-7.04-7.33-11.55l-9.23-60.03.55-3.68c20.56-41.96,61.1-71.33,107.84-77.26l9.41-.86Z"/>
        <path class="cls-4" d="M269.17,81.71c59.13,53.44,59.11,150.53.91,204.64l-1.29-.6c-.38-.99-.66-2.03-.67-3.42l-.07-48.63c-.01-8.88-7.52-13.99-15.78-13.46-9.52.61-18.25-3.88-23.44-10.81-5.81-7.75-7.35-17.52-3.7-26.48,4.24-10.39,14.34-17.39,25.61-17.43l39.83-.16c5.22-.02,9.08-4.22,9.19-9.21.1-4.54-3.52-9.36-8.75-9.38l-33.3-.14c-2.46-.01-4.55,1.59-5.77,3.48l-4.07,6.29c-2.74,4.23-7.09,6.03-12.07,5.79-6.08-.29-11.03-3.84-12.24-9.96-1.46-7.37,1.62-15.01,8.26-18.97l29.79-17.77c4.3-2.56,5.19-8.09,2.7-11.93s-7.59-4.89-11.82-2.66c-4.54,2.39-9.84,1.48-12.57-2.56s-1.79-9.15,2.03-12.43l11.41-9.82c1.54-1.32,11.3,3.49,15.82,5.63Z"/>
        <path class="cls-6" d="M346.82,188.35l-3.2,2.53c-9.42,9.25-17.61,3.32-20.79,6.88-.9,1.01-1.47,2.49-1.03,4.09l2.58,9.42c1.82,6.67.46,12.87-2.93,18.81l-33.14,58.18c-2.16,3.79-6.35,5.61-10.51,5.18-3.65-.38-7.22-3.01-8.61-6.65l-.4-1.04c.75-.2,1.2-.71,1.59-1.1,56.99-55.48,56.32-147.64-1.71-202.35.29.43.71-.07.5-.59,12.29,5.81,23.46,13.67,33.72,22.92l8.26,8.28c19.27,21.05,31.87,47.26,35.67,75.44Z"/>
        <path class="cls-2" d="M164.23,322.75l.48,1.66,4.17,18.32c-6.51-1.89-12.83-4.29-19.01-7.09-1.26-.89-1.78-1.79-2.48-3.06-1.28-2.34-3.39-7.39-4.2-9.97l.7-1.17c6.34,1.49,12.84,2.31,19.67,2.74.51.03.76-1.21.66-1.43Z"/>
        <path class="cls-5" d="M143.37,321.36c.14-.15.42-.08.52.09l5.98,14.2c-11.09-5.02-21.56-11.48-31.11-19.42-1.73-1.44-3.46-2.52-4.44-4.3,9.35,3.99,19.07,7.54,29.06,9.44Z"/>
        <g>
          <path class="cls-5" d="M348.04,196.95v21.9c-.31,19-5.91,37.54-14.83,54.53-12.37,23.57-31.32,43.37-54.23,56.75-18.32,10.7-39.07,17.58-60.15,17.93l-21.85-.16c-9.49-.99-18.92-2.51-28.1-5.18l-1.38-1.11c-1.24-5.45-2.48-10.89-3.72-16.34l.92-.87,3.27-.96c36.59,1.14,72.5-12.33,99.25-37.3.94-.73,1.43-.43,1.95.63l1.29.24c3.37,6.43,11.5,7.28,16.22,1.68,12.21-20.91,24.13-41.99,35.75-63.24l1.33-4.71c.21-6.47-.85-12.91-3.18-19.3-.06-3.17,1.08-5.05,4.18-5.91,8.54.42,14.66-1.26,20.81-7.62l1.23.42.65,4.82c.17,1.28-.42,2.86.57,3.78Z"/>
          <path class="cls-3" d="M143.37,321.36c-.5.19-1,.36-1.51.45s-1,.17-1.44.07c-8.89-2.1-18.65-4.63-26.11-9.95-.8-.34-1.36-.37-2.15-1.19l-7.55-7.84c-21.38-23.35-34.44-52.96-36.64-84.7v-20.57c1.19-18.2,6.1-35.52,13.97-51.57l9.21,60.84c1.04,7.1,5.22,12.61,11.15,16.26,3.15,1.94,4.82,5.69,3.55,9.2l-2.92,8.05c-2.78,7.65-.93,15.94,5.43,21.05l8.48,6.82c3.1,2.49,5.03,5.59,6.71,9.24l19.84,43.85Z"/>
        </g>
      </g>
    </g>
  </g>
</svg>