<svg width="21" height="22" viewBox="0 0 21 22" fill="none" xmlns="http://www.w3.org/2000/svg">
<path d="M18 15C18 15 15.5 17 10.5 17C5 17 3 15 3 15V6H18V15Z" fill="#505572"/>
<path d="M17 6V15.6042C17.3508 15.4333 17.6855 15.2311 18 15V6H17Z" fill="#3D4360"/>
<path d="M10.0192 11.875L0.261669 6.44935C0.182223 6.40426 0.11615 6.33892 0.0701836 6.25998C0.0242171 6.18104 0 6.09133 0 5.99998C0 5.90863 0.0242171 5.81891 0.0701836 5.73997C0.11615 5.66103 0.182223 5.59569 0.261669 5.5506L10.0192 0.125002C10.1662 0.0430294 10.3317 0 10.5 0C10.6684 0 10.8339 0.0430294 10.9809 0.125002L20.7384 5.55065C20.8178 5.59574 20.8839 5.66108 20.9299 5.74002C20.9758 5.81896 21 5.90868 21 6.00003C21 6.09137 20.9758 6.18109 20.9299 6.26003C20.8839 6.33897 20.8178 6.40431 20.7384 6.4494L10.9809 11.875C10.8339 11.957 10.6683 12 10.5 12C10.3317 12 10.1662 11.957 10.0192 11.875Z" fill="#8491C1"/>
<path d="M16.0001 21C15.9344 21 15.8694 20.9871 15.8087 20.962C15.748 20.9369 15.6929 20.9 15.6465 20.8536C15.6 20.8072 15.5632 20.752 15.5381 20.6913C15.513 20.6307 15.5001 20.5656 15.5001 20.5V9.27435L10.2315 5.92185C10.1197 5.85063 10.0406 5.73787 10.0119 5.60839C9.98314 5.47891 10.007 5.34332 10.0782 5.23143C10.1494 5.11954 10.2622 5.04053 10.3917 5.01177C10.5212 4.98302 10.6568 5.00688 10.7686 5.0781L16.2687 8.5781C16.3396 8.62331 16.3979 8.68566 16.4384 8.75939C16.4788 8.83312 16.5001 8.91585 16.5001 8.99995V20.5C16.5001 20.5656 16.4872 20.6307 16.4621 20.6913C16.437 20.752 16.4002 20.8072 16.3537 20.8536C16.3073 20.9 16.2522 20.9369 16.1915 20.962C16.1308 20.9871 16.0658 21 16.0001 21Z" fill="#FFBC5A"/>
<path d="M17.5 19.5L16 18L14.5 19.5V21.5C14.5 21.6326 14.5527 21.7598 14.6464 21.8536C14.7402 21.9473 14.8674 22 15 22H17C17.1326 22 17.2598 21.9473 17.3536 21.8536C17.4473 21.7598 17.5 21.6326 17.5 21.5V19.5Z" fill="#E05555"/>
</svg>
