<svg id="Layer_1" enable-background="new 0 0 512 512" height="512" viewBox="0 0 512 512" width="512" xmlns="http://www.w3.org/2000/svg" xmlns:xlink="http://www.w3.org/1999/xlink"><linearGradient id="SVGID_1_" gradientUnits="userSpaceOnUse" x1="296.025" x2="296.025" y1="460.74" y2="0"><stop offset="0" stop-color="#ffbef9"/><stop offset="1" stop-color="#fff1ff"/></linearGradient><linearGradient id="SVGID_00000118380925546503123560000012090223056694091682_" gradientUnits="userSpaceOnUse" x1="216" x2="216" y1="512" y2="104.9"><stop offset="0" stop-color="#a93aff"/><stop offset="1" stop-color="#ff81ff"/></linearGradient><g><path d="m387 50v15c0 27.614-22.386 50-50 50-27.614 0-50-22.386-50-50v-15c0-27.614 22.386-50 50-50 27.614 0 50 22.386 50 50zm125 265.502c0 11.982-5.674 23.256-15.296 30.395l-104.064 77.209c-19.69 14.609-44.016 22.644-68.532 22.645-.139 0-.273-.001-.412-.001l-132.515-.485-26.805 15.475-84.327-146.061 62.236-35.932c25.408-14.669 55.312-19.942 84.207-14.848l114.559 20.2c20.388 3.595 34.005 23.032 30.421 43.422-.509 2.897-1.348 5.651-2.454 8.245l85.299-52.496c25.215-15.52 57.683 2.623 57.683 32.232z" fill="url(#SVGID_1_)"/><path d="m367.129 104.9c-8.379 6.337-18.813 10.1-30.129 10.1-11.315 0-21.749-3.763-30.129-10.1-37.66 12.626-64.871 48.244-64.871 90.1v20c0 8.284 6.716 15 15 15h160c8.284 0 15-6.716 15-15v-20c0-41.856-27.211-77.474-64.871-90.1zm33.888 227.815c-6.457 36.731-41.478 61.265-78.205 54.787l-86.692-15.292c-7.168-1.264-12.394-7.493-12.394-14.772 0-9.327 8.421-16.392 17.606-14.772l86.692 15.292c17.507 3.088 34.307-6.514 40.993-22.192l32.812-20.194c.45 5.602.207 11.35-.812 17.143zm-349.63-37.68-43.887 25.337c-4.641 2.679-7.5 7.631-7.5 12.99v163.638c0 8.284 6.716 15 15 15h116.572c2.633 0 5.22-.693 7.5-2.01l27.314-15.77c7.174-4.142 9.633-13.316 5.49-20.49l-99.999-173.205c-4.142-7.174-13.316-9.632-20.49-5.49z" fill="url(#SVGID_00000118380925546503123560000012090223056694091682_)"/></g></svg>