<?xml version="1.0" encoding="UTF-8"?>
<svg id="Layer_2" data-name="Layer 2" xmlns="http://www.w3.org/2000/svg" viewBox="0 0 416 415.99">
  <defs>
    <style>
      .cls-1 {
        fill: #fff;
      }

      .cls-2 {
        fill: #e31c1c;
      }
    </style>
  </defs>
  <g id="Layer_1-2" data-name="Layer 1">
    <g>
      <path class="cls-1" d="M221.02,0l3.76.69c101.32,7.9,182.59,89.23,190.53,190.54l.69,3.75-.34,26.09c-3.46,53.91-27.63,104.2-67.69,140.7-83.64,76.2-212.54,71.5-290.59-10.47C-14.12,276.22-19.38,160.15,44.87,79.02,81.74,32.45,136.4,4,195.16.32l25.86-.32Z"/>
      <path class="cls-2" d="M323.1,150.81c0-31.28-24.84-57.86-56.47-57.88l-116.42-.1c-31.05-.03-57.33,25.11-57.33,56.4v117.45c0,31.64,26.61,56.49,57.87,56.48l114.79-.05c32.04-.01,57.58-26.06,57.57-58.21v-114.09ZM207.91,265.52c-31.79,0-57.57-25.77-57.57-57.57s25.78-57.57,57.57-57.57,57.57,25.78,57.57,57.57-25.78,57.57-57.57,57.57ZM269.52,157.5c-6.35,0-11.5-5.15-11.5-11.5s5.15-11.5,11.5-11.5,11.5,5.15,11.5,11.5-5.15,11.5-11.5,11.5Z"/>
      <circle class="cls-2" cx="207.91" cy="207.95" r="34.55"/>
    </g>
  </g>
</svg>