<?xml version="1.0" encoding="UTF-8"?>
<svg id="Layer_2" data-name="Layer 2" xmlns="http://www.w3.org/2000/svg" xmlns:xlink="http://www.w3.org/1999/xlink" viewBox="0 0 416 415.99">
  <defs>
    <style>
      .cls-1 {
        fill: url(#linear-gradient-2);
      }

      .cls-2 {
        fill: #fff;
      }

      .cls-3 {
        fill: url(#linear-gradient);
      }
    </style>
    <linearGradient id="linear-gradient" x1="-2122.11" y1="526.13" x2="-1932.29" y2="719.61" gradientTransform="translate(1659.88 -169.1) scale(.72)" gradientUnits="userSpaceOnUse">
      <stop offset="0" stop-color="#3b73dc"/>
      <stop offset=".67" stop-color="#6102d1"/>
      <stop offset="1" stop-color="#6200d1"/>
    </linearGradient>
    <linearGradient id="linear-gradient-2" x1="-2080.69" y1="375.71" x2="-1972.97" y2="485.23" gradientTransform="translate(1659.88 -169.1) scale(.72)" gradientUnits="userSpaceOnUse">
      <stop offset="0" stop-color="#2ba4e0"/>
      <stop offset="1" stop-color="#4b44d7"/>
    </linearGradient>
  </defs>
  <g id="Layer_1-2" data-name="Layer 1">
    <g>
      <path class="cls-2" d="M221.02,0l3.76.69c101.32,7.9,182.59,89.23,190.53,190.54l.69,3.75-.34,26.09c-3.46,53.91-27.63,104.2-67.69,140.7-83.64,76.2-212.54,71.5-290.59-10.47C-14.12,276.22-19.38,160.15,44.87,79.02,81.74,32.45,136.4,4,195.16.32l25.86-.32Z"/>
      <g>
        <path class="cls-3" d="M317.19,254.63l1.3,12.01.51,4.84-.09,22.98c-.05,13.92-9.19,25.34-22.56,29.46-23.01,7.09-46.46,10.87-70.45,12.43l-15.65.37c-1.68.04-2.81.07-4.55.03l-14.64-.35-7.4-.53-6.81-.56c-20.41-2.36-40.53-5.67-59.9-12.51-12.34-4.36-19.84-16.23-19.88-28.76l-.08-22.58.51-4.8,1.27-11.88c.98-9.16,6.61-17.33,15.23-20.71l17.11-6.7c4.5-1.76,8.49-4.01,12.72-6.33l18.93-10.42c4.72.17,8.38,3.42,9.66,8.09l21.85,47.91c.45,1,.48,1.5,1.35,1.7.59.14,1.98.07,2.08-.88l2.99-28.76c-3.11-1.48-6.24-3.59-6.28-7.03l-.1-8.87c-.02-1.63,1.15-2.99,2.14-4.16,7.94,2.44,15.78,2.47,23.53-.01,2.38,2.5,2.2,5.3,2.42,8.39.36,5.15-1.56,9.4-6.64,11.75l2.73,27.43c.1,1.01.23,1.79.96,2.07.6.23,1.81.2,2.21-.67l22.72-50.21c1.46-3.22,5.35-7.82,9.32-6.29l19.26,10.25c8.15,4.33,16.18,8.06,25.05,10.87,10.3,3.26,17.95,11.08,19.19,22.45Z"/>
        <path class="cls-1" d="M236.18,191.39c-11.92,11.39-27.6,16.18-42.45,9.18-4.44-2.1-8.32-4.37-12.03-7.71-9.85-8.86-16.15-21.02-18.59-34.11-.59-3.14-1.43-5.36-3.4-7.91-1.11-1.43-1.81-4.01-1.82-5.98l-.03-17.74c0-2.28,2.5-3.94,4.94-3.18,3.79-24.97,16.49-44.4,43.64-44.68l3.7-.04c13.69-.14,26.61,6.32,34.01,17.96,5.14,8.09,7.87,17.07,9.36,26.5l3.04.22c3.72,3.54,1.97,11.54,1.87,17.81-.07,4.84-.82,8.54-3.84,12.36-1.64,2.08-1.8,21.43-18.4,37.31Z"/>
      </g>
    </g>
  </g>
</svg>