<?xml version="1.0" encoding="UTF-8"?>
<svg id="Layer_1" data-name="Layer 1" xmlns="http://www.w3.org/2000/svg" viewBox="0 0 1600 600">
  <defs>
    <style>
      .cls-1 {
        fill: #420809;
      }

      .cls-2 {
        fill: #130606;
      }

      .cls-3 {
        fill: #e34942;
      }

      .cls-4 {
        fill: #121212;
      }

      .cls-5 {
        fill: #260809;
      }

      .cls-6 {
        fill: #ad3125;
      }

      .cls-7 {
        fill: #d74541;
      }

      .cls-8 {
        fill: #fbfbfb;
      }

      .cls-9 {
        fill: #e04741;
      }

      .cls-10 {
        fill: #de4741;
      }

      .cls-11 {
        fill: #f5877b;
      }

      .cls-12 {
        fill: #242021;
      }

      .cls-13 {
        fill: #c03e37;
      }

      .cls-14 {
        fill: #c4423a;
      }

      .cls-15 {
        fill: #cd3e36;
      }
    </style>
  </defs>
  <path class="cls-12" d="M439.27,313.69l-10.15.03c.96-.48,2.5-.99,3.57-1.86.59-8.41.19-16.28.06-24.51-.01-.91.48-1.26,1.43-.95.61,8.67.25,17.13-.07,25.96l5.17,1.34Z"/>
  <path class="cls-4" d="M216.18,269.49c-1.04-.04-2.8-.5-3.64-.24l.54-5.26.19-26.39h1.28s.34,21.64.34,21.64c.06,3.65-.29,7.16,1.3,10.26Z"/>
  <path class="cls-12" d="M269.03,313.15c-.47-.19-1.22.08-1.66.07l.12-26.45h1.25s.28,26.38.28,26.38Z"/>
  <g>
    <path class="cls-4" d="M983.66,350.26c.8,2.04-1.69,3-2.6,2.43s-2.03-1.05-2.94-2.66l-13.74-24.34c-1.93-3.41-10.22-2.44-14-1.82l-2.3,24.81c-.16,1.7-2.23,2.57-3.24,2.34-1.1-.25-2.33-1.09-2.34-3.35l-.5-122.95c21.76-5.03,47.82.88,61.1,18.13,10.84,14.08,10.24,32.66,4.69,48.73-5.63,16.29-17.08,28.27-34.47,32.31l10.33,26.36ZM999.07,252.58c-6.87-14.77-31.01-20.28-49.59-20.14l.65,83.09c17.58,5.66,36.77-1.08,46.26-17.96,7.5-13.32,9.53-30.27,2.68-44.98Z"/>
    <path class="cls-4" d="M747.1,325.56l-33.21-.05-.58,23.58c-.03,1.26-3.31,1.55-4.14.92-5.85-4.46-4.75-80.05-2.25-105.55.88-8.95,6.08-20.17,14.83-22.68,16.07-4.6,30.21,9.65,30.98,25.44,1.71,34.96,2.57,68.46,1.49,103.48-.06,1.85-5.23,2.63-6.91,1.23l-.2-26.37ZM747.07,319.25l-.64-68.31c-.08-8.24-3.35-15.78-10.23-20.06-3.47-2.16-8.89-2.89-12.53-.79-11.64,6.74-9.73,64.74-9.82,89.23l33.21-.07Z"/>
    <path class="cls-2" d="M1156.07,352.01c-11.2,26.71-47.63,40.09-49.63,31.31-.28-1.23,1.05-3.24,2.94-4.1l19.46-8.89c22.45-14.13,26.68-43.74,9.41-63.94l-19.66-19.67c-16.43-16.44-28.18-35.24-16.36-55.43,5.04-8.6,14.57-16.36,26.11-17.28l3.3.51c1.05.16,3.25,2.73,1.59,3.89l-13.92,9.73c-13.09,9.15-13.99,27.45-2.92,38.83l26.44,27.18c14.51,14.92,21.67,37.78,13.25,57.87Z"/>
    <path class="cls-4" d="M1407.29,326.27l-33.25-.51.41,23.91c.03,1.71-2.93,1.6-3.65.81-4.76-5.31-4.66-67.9-3.46-90.73.87-16.54,5.17-33.54,19.41-35.85,15.33-2.5,26.85,13.08,27,32.57l.73,94.79c-1.18,1.5-6.65,1.43-6.68-.09l-.51-24.89ZM1407.79,317.36l-.68-70.09c-.06-6.1-4.18-11.5-7.86-13.91-4.83-3.16-12.32-4.05-16.74-.44-5.06,4.13-7.2,11.56-7.35,17.97l-1.57,67.17,34.2-.7Z"/>
    <path class="cls-4" d="M833.73,319.9l-31.35,7.67-1.35,22.3c-.07,1.11-3.22.98-3.75.32s-1.79-2.07-1.81-3.78l-1.02-123.01,28.62,2.73c17.21,1.64,33.65,12.07,40.24,28.82,10.07,25.57-3.67,54.99-29.6,64.94ZM860.17,275.5c2.47-31.35-27.32-46.53-58.04-46.32l.52,90.03,21.31-2.98c20.01-4.28,34.52-19.29,36.2-40.72Z"/>
    <path class="cls-4" d="M1256.18,274.9c0,27.1-21.94,49.07-49.01,49.07s-49.01-21.97-49.01-49.07,21.94-49.07,49.01-49.07,49.01,21.97,49.01,49.07ZM1250.61,273.92c0-23.69-19.18-42.9-42.85-42.9s-42.85,19.21-42.85,42.9,19.18,42.9,42.85,42.9,42.85-19.21,42.85-42.9Z"/>
    <path class="cls-2" d="M612.41,383.79c-.16-5.63,3.32-6.45,6.86-7.52,15.06-4.55,29.84-9.31,41.88-19.77,14.57-12.66,23.5-30.84,23.78-50.32l1.28-87.63c.04-3,6.73-3.25,6.75-1.29l.78,69.6c.15,13.63-.16,27.09-3.83,40.46-8.87,32.36-42.08,59.9-77.51,56.48Z"/>
    <path class="cls-4" d="M918.98,227.03c1.08-1.92,4.75-1.7,7.07-1.11l-.25,93.42c-.05,17.88-6.44,33.25-21.91,33.2-15.33-.05-22-16.43-22.27-34.71l-1.26-87.27c-.03-2.24.35-4.18,2.21-4.86,1.52-.56,4.39-.29,4.41,2.32l.56,86.7c.1,15.42,2.2,30.2,14.87,31.85,10.18,1.33,17.02-11.76,16.95-27.17l-.38-92.37Z"/>
    <rect class="cls-2" x="769.08" y="221.76" width="9.58" height="127.71"/>
    <path class="cls-4" d="M1309.2,341.44l15.74,6.85c.81.35,2,1.47,1.9,1.97-1.17,6.12-53.04-8.11-56.47-59.08-2.41-35.83,20.91-65.6,56.71-68.04,1.11,6.14-3.26,6.8-7.81,7.82-28.96,6.55-45.77,34.33-42.83,63.12,2.17,21.27,12.41,38.49,32.76,47.35Z"/>
    <path class="cls-4" d="M1464.01,347.32c.9.04,1.26,4.43.76,4.57-10.44,1.12-22.05,1.32-32.68-.15-1.9-8.79-1.35-17-1.3-25.99l.56-97.68c0-1.43.57-3.56,1.29-3.98s2.43-.38,3.14.05c.77.47,1.41,2.34,1.42,3.93l.27,118.15,26.53,1.1Z"/>
    <rect class="cls-12" x="1284.26" y="284.31" width="125.27" height="6.6" transform="translate(1053.55 1633.27) rotate(-89.76)"/>
    <path class="cls-4" d="M1233,349.85l-51.01.84c-1.68.03-2.09-5.7-.92-6.72l49.84.54c2.01.02,2.24.7,2.79,1.03s.17,4.3-.69,4.32Z"/>
    <path class="cls-8" d="M999.07,252.58c6.85,14.72,4.82,31.66-2.68,44.98-9.5,16.88-28.68,23.62-46.26,17.96l-.65-83.09c18.58-.14,42.72,5.38,49.59,20.14Z"/>
    <path class="cls-8" d="M747.07,319.25l-33.21.07c.09-24.49-1.82-82.49,9.82-89.23,3.64-2.1,9.06-1.37,12.53.79,6.87,4.28,10.15,11.81,10.23,20.06l.64,68.31Z"/>
    <path class="cls-8" d="M1407.79,317.36l-34.2.7,1.57-67.17c.15-6.41,2.3-13.84,7.35-17.97,4.43-3.62,11.91-2.73,16.74.44,3.68,2.41,7.8,7.81,7.86,13.91l.68,70.09Z"/>
    <path class="cls-8" d="M860.17,275.5c-1.69,21.43-16.2,36.45-36.2,40.72l-21.31,2.98-.52-90.03c30.71-.2,60.5,14.98,58.04,46.32Z"/>
    <ellipse class="cls-8" cx="1207.76" cy="273.92" rx="42.85" ry="42.9"/>
  </g>
  <g>
    <path class="cls-2" d="M311.88,276.53l.03,29.34c-.65-.26-1.5.02-1.55.48l-.17,1.8c-.08.91.05,1.77.48,2.2.22.22.98.15,1.21.06v24.04s.2,21.29.2,21.29h1.29c.42.02.97.27,1.12.57.23.47-.07,1-.4,1.52-1.25,1.99-.77,4.22-.79,6.17l-.02,1.41c-2.17,3.01-2.01,13.32-1,17.35.21.84.08,1.93,1.07,2.48.55,1.37-.01,3.07.46,3.48,1.52,1.68,2.94,1.76,4.68,1.57l24.21-.35,43.6.47c.63,0,.87-.65.77-.99-1.05-3.69-4.47-6.1-7.44-8.42-1.67-1.3-3.33-3.76-5.41-4.66l-8.15-3.53c.04-.2.08-1.58-.29-1.9-1.86-.54-3.62-.18-5.25-.16-.17,0-.45.01-.61.07.31-.47.13-1.64-.71-1.64h-18.11c-.85,0-1,1.17-.65,1.7-.21-.23-.52-.12-.7-.12l-4.68-.04c-.88,0-.97,1.1-.68,1.56-.3-.05-.53.1-.71.2-.95-.21-1.81-.1-3.22.26-.56.14-1.03-1.78-.6-1.91l9.62-2.96c2.41-.74,4.39-.36,6.64-1.12,6.06-2.07,12.43.58,18.38,1.95,7.64,1.76,9.85,4.93,13.71,4.85,3.48,2.53,6.85,4.76,9.62,9.15,1.52-6.25.57-11.18.63-16.48l.06-5.35c0-.85-1.06-1-1.51-.75l-.03-.57c.72-2.53-.57-3.92-2.4-6.17-.52-.64-.49-2.83-2.19-2.21l-.04-.52c-.04-.45.15-1.47-.35-2l-5.69-5.97c.73-.91,1.67-.61,2.45-.63l.84-.02c.1,1.58,1.42,2.86,2.98,3.04.02.16.05.34.02.48-.37,1.58.58,2.45,1.78,3.7l3.68,3.82c.98-2.42.4-4.43.4-6.53l.07-38.39c.5-.16.86-.53,1.17-.75.6-.42.53-1.26-.05-1.5-.36-.15-.92-.06-1.14-.04l-.04-7.58,3.17.09c.02,1.98-.84,4.46.65,6.02.21.11.64.35.8.51.88,1.91,2.63,1.32,4.65,1.27l10.37-.26c-1.11,2.03,6.92,2.17,9.07.81.32-.2,1.1-.1,1.47-.05l1.39-1.65c1.41.28,2.05,1.22,1.7,3.22-.08.48.02,1.82-.48,2.11-.38.22-1.12.11-1.6-.1l-1.72.16c-2.86-1.39-6.28-1.54-9.81-1.54h-13.57c-1.69.02-3.01,1.3-3.01,3.06v50.45c.01.89,1.14,1.04,1.52.8l.1,25.59c-.11.09-.23,1.14.1,1.53l25.96-.11c.98-.37,2.77-2.09,3.85-1.37.17.11.65-.03.85-.02l.72.03c-.09.25-.09.83.09,1.05.22.27.77.47,1.4.47l18.13-.08v-66.31s-.13-7.71-.13-7.71l3.18,2.43v5.28c-.42-.26-1.52-.11-1.52.74v6.84c0,.85,1.14,1,1.56.72v2.26c-1.15-.29-1.53.17-1.65,1.13-.18,1.41.25,2.17,1.66,1.89l.03,3.71-.34,13.52c-.06,2.38,0,3.89,0,6.21l.08,18.04c.02,3.58-.57,8.48.9,9.8l.72-.04c-.09.28-.11.88.06,1.1.21.27.77.47,1.41.47l17.4-.03c.73,0,.87-.84.6-1.11l.05-.44h2.97c.09.38-.15,1.52.87,1.52l27.08.02c.65,0,.79-.52.78-.78l-.02-.75h1.51s.92-.01.92-.01l.56.04c-.09.24-.1.83.07,1.06.2.27.78.49,1.41.49h16.58c4.31.01-.35-4.7,3.27-6.84-.63-.81-1.26-.77-1.8-.77l.04-4.52c.27.08.89.12,1.13-.05.26-.19.48-.77.48-1.39v-7.67c0-.62-.21-1.2-.48-1.4-.23-.17-.85-.13-1.13-.05v-6.77c.26.09.91.14,1.13-.05.27-.23.44-.67.44-1.54l.05-47.15c-.86-.73-2.06-2.37-1.48-2.82,1.54-1.11,3.34-.06,4.42-.09v73.45c0,.7.03,1.58.34,1.8.26.19.94-.1,1.23-.28l-.23,2.29c-.05.53-.23,1.15,0,1.51.35.55,1.14.77,1.66.72-.11.7.36,1.63,1.45,1.63l19.79.13c1.52,0,2.89-.89,3.28-2.01,1.73.38,2.45,1.62,2.57,3.5l-29.33-.18c-1.01,0-.74,1.24-.86,1.72-.75,2.9-1.2,8.09.13,11.94l-.03,73.78,27.07-.15c.81,0,1.01-1.73.72-2.08.79-.42,1.56-.64,2.49-.76,0,2.13.57,4.28-.22,6.82l-151.27.5-192.58.28-52.49.19c-6.19.02-12.04-.3-18.44-.14l-.3-36.03-.44-42.42.83-3.8c-.42-4.74-.47-9.28.67-13.48l1.25.1c.03.18.04.44.13.6.56.95,1.41,1.81,1.69,2.9-.27-.02-1.14-.17-1.29.24-.53,1.51-.22,3.01-.22,4.33.15-.15-1.5-.12-1.5.25v79.68c-.16,1.53-.02,5.68,2.35,5.71l27.74.3v-90.24c-.92-.41-1.48-.25-1.98-.24-.95-3.22,1.95-1.98,1.96-5.95l-.12-76.9h3.96c.62,0,1.18-.19,1.4-.47.18-.22.16-.81.06-1.1l2.96.04c-.15-.03-.07,1.35.26,1.36l18.72.33c-.04,1.28-.3,1.77-.19,2.29.08.37-.55.73-.89.52-.25-.16-.62-.86-.92-1.47l-22.22-.02v77.58c-.01.67.48.79.81.79h.71c-.05.22-.14.91.01,1.15.25.41,1.17.59,1.83.35.4-.14.62-.87.44-1.43l1.44.02c-.24.31-.05,1.46.82,1.44l13.41-.3c2.14-.05,3.45-.03,5.52,0l26.32.52.07,1.1-50.58.26c-1.78,0-1.07,2.76-1.05,3.76l.32,13.4c-3.12,2.85-.37,5.63-.36,8.39l.33,64.81h53.37c.92,0,1.05-1.12.81-1.5l14.26-.02c-.19,1.45.7,1.61,1.91,1.61s2.1-.14,1.89-1.61l1.48.02c-.24,1.14.26,1.43,1.15,1.54,1.35.17,2.12-.19,1.9-1.55l.76.04c.49.02,1.06-.59.95-1.69-.78-1.16.65-2.02,1.21-.93-.24,1.24.12,1.99.56,2.44.4.41,1.19.06,1.63.06l49.9-.05-.32-52.6c-.03-4.73-.11-8.94-.03-13.67l.39-21.09-50.55-.03-1.37.03-.26,29.44h-1.19s-.59-29.32-.59-29.32c-.02-.79-1.8-1.63-2.54-1.63l-23.33-.1c.6-1.85,1.91-2.12,2.22-2.96h1.4c-.24.37,0,1.59.81,1.59h19.6c.83,0,1.01-1.14.74-1.51.2,0,.56.08.79.02,1.49-.45.45-3.73.96-6.81h1.01c.62,4.26-.92,6.76,1.82,6.8l1.4.02c-.08.29-.08.84.09,1.06.21.27.77.48,1.39.48l7.62-.03c1.25,0,2.03-.68,2.23-1.54h1.51c-.27.62.04,1.38.49,1.42l1.79.16,2.44-.15c.45-.03.82-.67.55-1.38l.78.07,4.01-.16,25.3.24.77-.16c.21-.05.76-.19.76-.88l-.02-77.55c0-.67-.79-1.44-1.31-2.01.79-.86,1.31-1.67,1.31-2.51v-30.03c1.04.41,2.1.66,3.11.67ZM319.27,393.26l-5.97.07h-.86c-.21-.06-.64.25-.64.77l.28,15.88-.3,70.09,76.56-.08c.44-.94.3-1.71.21-2.38l-.09-19.94.09-64.38h-2.67c-.26-.19-.59-.76-1.12-.77l-17.64-.33h-27.12s-18.52.29-18.52.29c-1.01.02-1.82.16-2.23.77ZM428.43,393.27l-35.34.1v85.85c-.05.21-.11.99.17,1.53l33.64.02,3.01.69c9.68-2.35,13.5,2.29,13.59-1.59v-.58c.97-.37.71-1.5.71-2.33l.07-11.28v-71.54c0-.73-.51-.83-.76-.83l-1.45.02c.03-.25.08-.9-.07-1.14-.27-.42-1.16-.59-1.83-.35-.4.14-.62.87-.44,1.42h-2.95c.08-.28.08-.8-.09-1.03-.18-.24-.79-.47-1.38-.47h-5.41c-.6,0-1.17.22-1.38.48-.17.22-.18.74-.1,1.05ZM448.8,393.32c-.2,0-.58.05-.76-.06-2,1.88-.88,4.42-.88,6.9l-.02,44.13c0,1.91-.52,4.46-.23,6.07.66,3.66.24,6.15-.73,9.66l-.41,12.42c-.03.93,1.26,1.07,1.6.78l.15,6.04h73.53s.75,0,.75,0c.24,0,.76-.11.76-.84v-79.07s0-3.02,0-3.02l.02-2.97c0-.27.08-1.35-.26-1.53h-73.3c-.37,0-.4,1.65-.24,1.5Z"/>
    <path class="cls-5" d="M390.76,199.54c-.83.03-.79.91,0,.87v4.48c-.81-.01-.74.82.02.74-.44,1.31.53,2.19.6,3.33l.3,4.94,24.79.02c1.19,0,2.24.24,2.97.71-.42,1.3-1.74,1.53-2.98,1.53.06-.17-.15-.66-.35-.66l-27.29-.09c.02-1.78-.63-2.86-1.75-3.11.03-.09.14-.3.11-.4-.63-2.09,1.12-4.15,1.17-6.28l.26-12.81c.03-1.25-.7-2.06-1.57-2.23.38-13.53-8.21-24.32-20.04-30.55-12.75-6.72-25.44-5.06-37.16,2.58-1.4.91-2.69,1.96-3.88,3.04l-.77.69c-7.54,6.79-13.1,16.21-13.42,26.44-.33-.24-1.53-.07-1.49.8.22,4.82-.61,9.68.6,14.33.15.57,2.1.81,2.26,1.37.28.92.07,2.09-.02,3.07l-.91.2c-.78.17.68.99.84,1.43.25.65.23,1.52.23,2.21-.32,0-.75.11-.97.28-.45.36-.56,1.02-.56,1.95l.12,58.11c-1.02-.01-2.07-.26-3.1-.67v-26.51s.02-29.4.02-29.4l-.09-3.71c.31-.14.17-.71-.16-.72l-23.89-.18v-1.29s23.98-.15,23.98-.15c.34-1.06.26-2.16-.18-2.76l-1.16-1.59-.08-2.55c.25.09.93.3,1.17.13,1.07-.73-.61-12.97,2.36-23.04,3.58-12.16,12.6-21.71,23.91-27.09,3.39-1.62,5.78-3.44,8.05-6.44l5.51-4.51.2-29.39c0-.81.91-.87,1.11-.4.17.39.32.65.34,1.31l.93,27.25c.18,5.37,6.72,8.59,11.45,10.26,13.23,4.69,23.7,14.76,27.22,28.4l1.3,16.04ZM353.68,152.39c-1.73-1.58-2.63-2.29-3.73-4.33l-5.44,5.15c3.35-.03,5.77-.01,9.16-.82Z"/>
    <path class="cls-5" d="M429.12,236.32l.1,1.84-5.5,3.52c-.74.48-.9,2.35-.54,2.99.53.95.79,2.26,0,3.19l.07,58.78.28,59.26c.04,7.92,1.13,15.45-.43,22.92-1.08-.72-2.87,1-3.85,1.37l-25.96.11c-.33-.4-.21-1.44-.1-1.53h7.49s16.37.18,16.37.18c.73,0,2.51.32,2.98-.36l-.21-37.69-.13-40.65c.49.22,1.23.32,1.6.1.51-.29.4-1.63.48-2.11.35-2-.29-2.94-1.7-3.22l.15-64.67,1.14-1.18c.2-.19.83.29,1.04.51l6.72-3.37Z"/>
    <path class="cls-5" d="M278.93,244.89c-.11-.18-.3-.53-.3-.73,0-1.73-1.92-2.53-2.93-3.81-1.45-1.84-2.68-2.78-4.78-2.23-.33.09-.93-.03-1.31-.05.29-.71-.06-1.47-.5-1.48l-2.41-.06c-3.09-.07-5.45.31-6.14,3.01-1.57,1.12-2.4,2.78-3.25,4.32-.35.64-1.32.62-1.32,2.43l.07,39.2c0,3.59.07,6.97,1.48,9.82l.22,1.9-.63,1.88c-1.28-.59-2.65-.88-4.05-.85l-2.02.04v-.69c.76-.06.48-.88-.12-.75l-20.7-.17c.33-1.9,1.79-1.51,2.56-1.4h21.68c.31-1.63.42-4.64-.95-5.51-1.86-1.18-4.54-.45-6.35-.46l-.06-2.54,6.78-.53c.48-8.37-2.57-15.56-7.05-22.36-5.3-8.06-18.79-15.63-26.13-15.33-.05-.69-.72-.47-.78.03l-2.02-.14c-.48-.13-.96-.41-1.17-.73-.43-.64-.44-1.38-.21-2.02.55-.05,1.68-.67,1.57-1.24-.03-.14-2.68-4.65-3.88-3.72-1.05.82-1.7,2.76-3.28,2.84,1.38-1.14,1.43-2.44,1.6-4.04.84-.26,2.6.2,3.64.24,2.1.08,3.63,5.16,11.16,7.48,12.28,3.79,21.26,12.56,26.38,24.55,1.53-8.8.65-16.54.82-24.72.15-7.42,6.38-12.24,12.83-12.01.44,0,1.19-.26,1.66-.07,3.39,1.37,6.31,2.96,9.77,5.52l.56-10.78c.27-5.18-.67-10.22.3-15.04.47-.39,1.22-.93,1.64-1.73,1.55,1.77-.92,2.63-.95,3.35l-.37,30.32c-.5.19-1.21.17-1.22-.05-.01-.39.15-1.4.18-1.72Z"/>
    <path class="cls-2" d="M212.54,239.54c-.16,1.6-.22,2.89-1.6,4.04.02.16.03.36,0,.49-2.16.07-2.73,3.7-7.16,5.96-8.96,3.22-16.15,9.98-21.33,18.38-3.34,5.41-4.48,11.61-5.81,17.7l11.67.18h1.53s0,.74,0,.74c-4.08-.02-8.1-.03-12.14,1.31,2.38.46,4.57-.43,6.17.95-1.59-.06-3.41-.25-5.39.23-1.33.33-2.03,3.01-2.12,4.26s.79,1.54,1.41,1.55l.03,1.54c-.39,0-1.11-.22-1.52-.06l-3.81,1.54c.59-2.08,1.02-4.22.99-6.86-.26-19.6,12.1-36.95,30.22-43.98,2.94-3.08,5.13-6.52,8.88-7.96Z"/>
    <path class="cls-1" d="M422.4,239.69c-.21-.22-.84-.7-1.04-.51l-1.14,1.18.05-4.51c.36-.22.71-.75.71-1.52v-16.62c0-1.33-.74-2.55-1.55-3.07-.74-.46-1.78-.7-2.97-.71l-24.79-.02-.3-4.94c2.43-3.44,7.17-4.74,9.86-8.02,2.59-3.15,2.09-8.34,5.59-11.69l5.06,13.22c4.23,3.43,9.98,7.55,10.08,13.12l.44,24.09ZM408.33,199.66c-.29-2.78-.5-4.11-1.93-5.84l-1.21,6.34c1.02.8,3.22.26,3.14-.49ZM419.16,212.82c-2.73-5.03-5.82-6.62-9.25-9.06-7.84-2.21-13.36,1.47-17.96,8.62,9.54,1.03,18.12,1.1,27.21.44Z"/>
    <path class="cls-1" d="M307.22,207.01l.08,2.55-7.58-5.37c-6.45-2.99-14.19,1.66-18.54,8.68l26.1.33c.73,0,1.35-1.72,1.19-2.05.44.6.51,1.7.18,2.76l-23.96.15v1.29s23.87.18,23.87.18c.33,0,.47.58.16.72l-27.5-.06c-.78,12.59.32,24.34.36,36.18l.1,28.69h-1.32s-.33-21.91-.33-21.91c-.32.05-.86.07-1.34-.09v118.51c.49-.11,1-.1,1.43-.03l.07-64.06c0-.93,1.11-1.06,1.48-.82l.3,76.11-4.01.16.06-139.47c0-1.63.15-2.48-.92-3.05.19-.93.94-1.48,1.86-1.51-.03.31-.19,1.33-.18,1.72,0,.22.73.24,1.22.05l.37-30.32c.03-.72,2.5-1.58.95-3.35-.42.8-1.17,1.34-1.64,1.73.95-4.75,4.53-8.71,8.81-11.25s1.79-8.97,6.15-14.31l5.31,11.94,7.29,5.92ZM296.83,200.19l-2.09-6.82c-1.55,2.35-.96,4.52-.93,7.23.01,1.29,3.48,1.1,3.02-.4Z"/>
    <path class="cls-5" d="M176.26,296.8c.14.71.86,1.02,1.58,1.02-3.56,0-6.41,3.48-9.43,5.44-1.49.96-3.34,1.26-3.56,3.35,4.76,1.53,9.28.72,13.69.78.1.29.12.88-.06,1.1-.22.28-.78.48-1.4.48h-3.96c-4.04,0-8.47.09-12.85-.62-.29-.06-.56-1.07-.33-1.58,4.02-3.14,7.98-6.59,12.5-8.42l3.81-1.54Z"/>
    <path class="cls-1" d="M390.78,205.64c-.76.08-.83-.76-.02-.74,0,.21.09.55.02.74Z"/>
    <path class="cls-1" d="M390.76,200.41c-.78.03-.83-.84,0-.87v.87Z"/>
    <path class="cls-6" d="M258.19,480.69c-1.08-1.43-.77-3.18-.77-5.26l.06-57.19.1-24.99,50.55.03-.39,21.09c-.09,4.73,0,8.93.03,13.67l.32,52.6-49.9.05Z"/>
    <path class="cls-13" d="M388.48,278.8l.02,19.48.04,7.58.02,2.29-.07,38.39c-1.18,1.36-.53,3.32-.91,5.5-2.06-2.26-2.33-5.29-4.95-6.49.03-.14,0-.32-.02-.48-.73-1.23-1.77-2.27-2.98-3.04l-.84.02c-.57-1.15-1.43-2.1-2.39-3.02,1.8.91,3.69,1.2,5.75,3.34l-.33-22.92-.34-48.62-.06-15.82,1.09-38.8-25.17.35-40.28.48c-.41,6.19-.01,12.24.28,18.47l1.82,38.7,1.31,14.43.67,33.74c.07,3.75.53,7.02-.05,10.73-.44,2.84-.48,5.58.25,8.67,1.84-1.86,3.15-3.06,5.11-2.41l-4.08,2.75-6.16,6.54c-1.79,1.91-1.81,5.09-2.82,7.08h-1.29s.48-19.75.48-19.75c0-.76-.33-1.28-.67-1.53v-24.04s.02-4.54.02-4.54l-.03-29.34-.12-58.11c0-.93.11-1.59.56-1.95.21-.17.64-.28.97-.28l41.82-.38,32.98-.41-.28,61.11c0,1.13.08,1.83.68,2.3ZM315.1,237c-.76-6.63-.31-13.42.43-19.79-.71-.6-2.03-.34-2.29.12-.23.39-.07,1.24-.07,1.91l.16,53c.85.56,2.94-.14,2.99-1.82.32-11.27.06-22.2-1.22-33.41Z"/>
    <path class="cls-14" d="M198.15,311.89c.05,5.07-.17,10.25-.5,15.89l-.23,58.22c.24.49.2,2.93-.62,2.93l-15.28-.06-1.44-.02-2.28-.08h-.71c.52-1.81.87-3.72.69-6.05v-66.12c-.94-1.16-1.31-5.08.11-5.09l14.89-.2c1.8-.02,3.78.64,5.36.6Z"/>
    <path class="cls-13" d="M254.01,311.9l-.16,76.91c-.22.07-.58-.02-.79-.02h-.75c.15-.09.44-.52.39-.74-.06-.29-.22-.84-1.23-1.26,2.2-1.63.45-3.17.4-5.05l-.43-19.99c-6.05.65.21,9.51-3.73,15.04-1.57,2.2-5.68,1.8-8.25,1.06-8.86,4.76-4.9,8.61-6.64,10.18l.22-54.63.52-17.11-.16-4.38,18.17-.41c.03-.34.47-.43.68-.27.43.33,1.2.83,1.76.66ZM247.32,348.89l.09-20.52c0-1.35-1.21-2.25-1.75-2.78s-3.23-.4-3.33.59c-.99,10.01-.92,19.9,1.41,29.88,1.79-2,3.57-4.61,3.58-7.18Z"/>
    <path class="cls-13" d="M443.34,245.65c.25-.03.66.08,1.05-.11-.25,1.35-.39,2.96.64,3.78l-.38,16.97-.36,27.51c-.07,5.07-3.76,4.6-7.44,7.57-.14-.45-.27-2.09.25-2.43,2.22-.63,4.56-1.02,5.76-3.72-1.44-.24-3.25.41-4.06-.1s-.51-1.63-.26-2.11.54-1.56,1.51-1.34c.61.14,1.26,1.09,2.21,2.02.84-1.63.97-4.45-.1-5.9-1.58-2.15-.59-3.01.14-4.94,1.14-3.01.34-6.75.04-9.95-2.77,2.82-1.81,6.52-2.98,9.36-.9,2.2-2.73,4.06-1.49,6.6.35.72.41,2.12.02,2.67-1.75,2.46-2.89-1.71-7.15-.36-.17-2.46-.23-6.05-2.48-7.1-3.96,1.85-.05,7.99-3.81,12.12l1.85,4.2c-1.7,2.91-.58,5.57,2.11,7.54-1.36,1.1-2.23.97-3.65,1.27l-.06,72.02-.76,7.56c-.2,0-.68.13-.85.02,1.56-7.47.47-15,.43-22.92l-.28-59.26-.07-58.78,10.13-1.16,10.03-1.05Z"/>
    <path class="cls-13" d="M277.08,246.4c1.07.56.92,1.41.92,3.05l-.06,139.47-.78-.07-5.26-.05h-1.51s-4.52,0-4.52,0c-.09-.27-.12-.86.04-1.1s.8-.5,1.41-.5h8.34s1.24-5.3,1.24-5.3c.23-.99-.93-2.16-1.2-3.08l-.11-80.35-.08-4.68.17-33.09c0-.84-.33-1.54-.71-1.92-.3-.31-1.58-.41-1.58.2v9.18c-.01,1.25-.46,2.18-1.19,2.89-.49.47-1.97,1.54-2.43.11-.5-1.57.73-4-.89-5.64-1.47,2.03-1.27,4.68-2.07,6.62-1.15,2.8.35,4.41,1.5,6.3,1.66,2.73-1.55,4.5-3.23,5.44-2.9,1.63-1.01,5.42-.97,7.6.03,1.9-.6,3.34,1.12,4.6-.62,1.71-2.74,0-4.24.59-.46.18-.32,1.7.23,1.72,2.43.06,3.86,1.22,3.75,3.27-2.73-.65-4.9-2.74-7.2-4.43l-.22-1.9c.58-2.51-.55-5.52-.53-8.33l.2-20.73.4-19.11c7.81,1.75,13.03-.64,19.47-.76Z"/>
    <path class="cls-10" d="M359.94,370.83c.16-.05.44-.06.61-.07,1.68,1.01,3.76,1.29,5.54,2.06l8.15,3.53c2.08.9,3.74,3.35,5.41,4.66.11,2.92,4.17,2.97,2.69,6.34l-61.36-.03-3.34-.91c1.55-.99,1.86-2.27,1.42-3.76,1.38-2.87,9.76-7.6,14.63-10.17.18-.1.41-.25.71-.2,1.87-.04,3.84-.36,5.35-1.52.18,0,.48-.11.7.12,6.44-1.24,13.05-1.46,19.48-.06Z"/>
    <path class="cls-13" d="M420.28,235.84l-.19-17.15-5.17-1.57-20.79-.08.22,30.05c.02,2.22,1.02,3.56,1.45,5.46,1.06,4.72.07,17.29.9,28.44.23,3.15-1.17,6.54-.53,9.81.89,4.6-3.72,7.33-2.98,10.71.19.88.96,2.7,2.3,2.71l23.35.23c.6-2.24-.13-3.98-.13-6.16v-57.19c-.01-.88,1.29-.64,1.52-.76l-.15,64.67-1.39,1.65c.16-.2.43-1.17.08-1.51l-25.65-.25c-.15-.16-.59-.4-.8-.51v-36.18s-.58-9.83-.58-9.83l-.28-33.18c-.03-3.14-.82-6.27.54-8.99l24.47-.06c1.24,0,2.57-.23,2.98-1.53.81.51,1.55,1.73,1.55,3.07v16.62c0,.76-.35,1.3-.71,1.52Z"/>
    <path class="cls-13" d="M251.04,297.6v.69s-23.6.01-23.6.01c-2.02,0-3.6,1.16-5.38,1.28-4.61.3-10.23.94-14.55-.23-2.57-.69-2.55-.03-5.14.07l-16.1.62c2.15,3.45,5.7,3.35,9.36,1.69,1.86-.85,4.73,2.04,5.78,4.15h55.38c2.58.02,4.86.92,7.34-.8-2.24-1.32-4.45-1.86-5.1-3.74,2.6,1.33,5.49,2.43,7.6,4.46.1.24.16,1.24-.1,1.32-1.72.57-3.09.29-4.43.27l-1.56-.02h-17.28s-2.26,0-2.26,0h-34.63s-1.5.01-1.5.01h-3.02s-3.02-.02-3.02-.02l-17.34.03-2.96-.04c-4.42-.05-8.93.76-13.69-.78.22-2.09,2.07-2.39,3.56-3.35,3.02-1.95,5.87-5.44,9.43-5.44l18.68.03c2.2,0,3.9-.03,6.13-.04l48.38-.21Z"/>
    <path class="cls-1" d="M416.45,216.17l-24.47.06c-1.36,2.72-.57,5.85-.54,8.99l.28,33.18.58,9.83v36.18c-1.49-1.57-.62-4.05-.64-6.02l-.28-27.81-1.48-15.19-1.27-.03-.16,23.46c-.6-.47-.69-1.17-.68-2.3l.28-61.11-32.98.41-41.82.38c0-.69.01-1.56-.23-2.21,1.44-.71,2.92-.17,4.77-.16l66.2.24c.93,0,1.83.18,2.53-.18.43-.22.74-.86.52-1.59,1.12.25,1.77,1.34,1.75,3.11l27.29.09c.2,0,.41.5.35.66Z"/>
    <path class="cls-1" d="M257.58,393.26l-.1,24.99-.06,57.19c0,2.08-.31,3.83.77,5.26-.44,0-1.23.35-1.63-.06-.43-.44-.8-1.19-.56-2.44-.56-1.09-1.98-.23-1.21.93.11,1.1-.45,1.71-.95,1.69l-.77-11.39.16-34.66-.13-36.18-.05-2.26v-.75c.01-.81.44-1.49,1.11-2.17l.59,29.31h1.19s.26-29.44.26-29.44l1.37-.03Z"/>
    <path class="cls-1" d="M354.64,327.79l3.18,3.71c-1.41-.31-2.64-.61-3.94-1.47-1.57-1.04-2.44-2.63-3.85-4.61-1.94,2.01-4.29,3.1-5.41,6.07h7.69s2.5,3.06,2.5,3.06c-11.9-1.34-22.99,3.85-31.16,12.26-4.68,4.82-8.52,10.54-10.32,17.19.02-1.96-.46-4.18.79-6.17.32-.52.62-1.05.4-1.52-.15-.3-.69-.55-1.12-.58,1.02-1.99,1.03-5.17,2.82-7.08l6.16-6.54,4.08-2.75c6.83-4.6,11.59-4.86,16.67-11.27,1.33-1.68,4.66-3.12,4.7-5.67l.37-29.09c0-.61,1.78-.49,1.97.14l.43,1.45.59,27.44c.05,2.13,2.37,4.18,3.46,5.43Z"/>
    <path class="cls-13" d="M382.37,350.66l.04.52,4.59,8.38.03.57c.12,2.06.51,4.25,1.45,6.1-.06,5.3.89,10.23-.63,16.48-2.78-4.39-6.14-6.62-9.62-9.15-3.06-2.22-6.65-4.1-10.25-5.47,2.75-.92,5.51.47,7.88,1.68.51.05,1.83-.56,2.12-.01.24.46.88,1.51,1.47,1.74,1.16-.74,2.46-1.88,3.19-2.91-1.94-3.58-4.31-7.36-4.58-11.38-.17-2.55.27-3.64-1.37-5.57l-5.17-6.09c-1.67-1.97-2.34-4.72-4.05-6.67,3.67,1.39,6.96,2.96,9.88,6.22l5.03,5.58Z"/>
    <path class="cls-1" d="M257.96,310.67l-.36,6.6.04,71.53c-2.74-.04-1.21-2.54-1.82-6.8h-1.01c-.51,3.08.53,6.36-.96,6.81l.16-76.91,3.95-1.23Z"/>
    <path class="cls-5" d="M281.66,281.05l.03,23.95c0,.64.67,2.33,1.5,2.33l23.33.07c.83,0,1.01-1.16.74-1.52h.75s.74,0,.74,0c0,.84-.52,1.65-1.31,2.51.52.56,1.31,1.34,1.31,2.01h-.74s-.75-.75-.75-.75c-.09-.51-.64-.79-1.47-.79h-22.66c-.83,0-1.38.28-1.47.79v1.53s-.02,1.47-.02,1.47c-.36-.24-1.48-.11-1.48.82l-.07,64.06c-.44-.07-.94-.08-1.42.03v-118.51c.47.16,1.01.14,1.32.09l.33,21.91h1.32Z"/>
    <path class="cls-5" d="M198.85,307.39c.47.58,1.21,1.15,1.91,1.44.95.39,1.51-.6,1.1-1.42h3.02c-.07.56.46,1.02,1.1.75.27-.12.49-.36.4-.76h34.63c-.2.54-.04,1.32.4,1.49.63.24,1.54.1,1.84-.35.15-.24.07-.88.02-1.14h17.28s0,3.01,0,3.01l-2.61.28-3.95,1.23c-.56.17-1.33-.33-1.76-.66.75,0,1.61.1,2.33-.42l-.39-.42h-19.91c-.52.01-.84.46-.79.75l-.08.76.16,4.38c-2.41.02-.41-4.38-3.08-4.39l-29.77-.14c-.34,1.16-.3,1.72-.3,2.34-1.52.54-1.6-1.84-2.26-2.21-1.59.04-3.56-.62-5.36-.6l-14.89.2c-1.42.02-1.05,3.93-.11,5.09v66.12c.18,2.33-.18,4.24-.7,6.06-.33,0-.82-.12-.82-.79v-77.58s22.23.02,22.23.02c.3.61.66,1.31.92,1.47.34.21.98-.14.89-.52-.11-.52.14-1.01.19-2.29l-18.72-.33c-.33,0-.41-1.39-.26-1.36l17.34-.03Z"/>
    <path class="cls-1" d="M233.57,316.29l-.52,17.11-.22,54.63c-.18.16-.23.45-.21.67h-.7s-1.4.01-1.4.01c-.21,0-.56.03-.75.23l.39-43.76.33-33.28c2.67.01.67,4.41,3.08,4.39Z"/>
    <path class="cls-13" d="M323.63,346.82c.49,2.23-.98,3.52-2.73,4.81.65.98,1.09,1.64,1.28,2.3,0,.02-4.53,9.44-2.55,17.33.55,2.21,4,.75,5.05-.26,3.11-3.01,6.73-3.62,10.56-3.11-7.32,2.72-14.41,7.03-18.92,13.2-.84.36-1.07,1.13-1.51,1.74-.56.78-1.29,1.43-1.43,2.43-.99-.55-.86-1.64-1.07-2.48,1.12-.94.82-1.94.6-3.29-.8-4.86.35-9.6.4-14.07l.02-1.41c1.8-6.65,5.64-12.37,10.32-17.19Z"/>
    <path class="cls-13" d="M262.69,388.81h-3.64s-1.4,0-1.4,0l-.04-71.53.36-6.6,2.61-.28,1.63-.07,1.32.45c4.94-1.44,10.59-.51,8.51-3.67-.26-.39-1.21-.54-1.79-1.07l-3.23-2.92c.42-.23,1.74-.45,2.26.06l5.09,4.93c-4.68,5.32-8.39,3.51-14.51,3.76-2.24.49-.8,3.8-.8,5.34l-.06,67.03c0,1.01-.52,1.94,0,2.75,1.08,1.66,4.33-.3,3.71,1.83Z"/>
    <path class="cls-7" d="M442.77,383.96c0,1.36-.3,3.81-1.62,4.7l-16.48.18-.72-.03.76-7.56,2.79-1.46c.82.89,2.01,1.87,2.77,1.5l2.64-1.3,2.04,1.26,2.18-1,4.11-.51-.14,4.11c.52.14,1.15.12,1.68.12Z"/>
    <path class="cls-7" d="M387.1,389.44l-7.6-.56-59.45-.06-2.21.08-.87-.13c-.61.24-1.93.15-2.1-.41-.61-1.96,3.32-3.85,4.22-5.71.43,1.49.12,2.77-1.42,3.76l3.34.91,61.36.03c1.48-3.36-2.58-3.41-2.69-6.34,2.97,2.32,6.39,4.73,7.44,8.42Z"/>
    <path class="cls-5" d="M417.96,310.41h-24.88s0,52.78,0,52.78c-.38.25-1.51.09-1.51-.8v-50.45c-.01-1.76,1.31-3.05,3-3.05h13.57c3.53-.02,6.96.13,9.81,1.52Z"/>
    <polygon class="cls-5" points="391.67 298.38 388.5 298.28 388.48 278.8 388.64 255.34 389.9 255.37 391.39 270.56 391.67 298.38"/>
    <path class="cls-5" d="M522.6,393.36l-.78-.04h-1.51s-71.51,0-71.51,0c-.16.16-.13-1.49.24-1.49h73.3c.33.17.26,1.25.26,1.52Z"/>
    <path class="cls-5" d="M357.82,331.5c6.59,1.44,12.65,4.56,18.58,7.53.96.92,1.82,1.87,2.39,3.02-.78.02-1.73-.28-2.45.63l5.69,5.97c.5.53.32,1.55.35,2l-5.03-5.58c-2.92-3.26-6.21-4.83-9.88-6.22-4.14-1.57-8.21-3.81-12.67-4.31l-2.5-3.06c.51,0,1.17.07,1.53-.41.16-.22.14-.81.05-1.06,1.31.87,2.53,1.16,3.94,1.47Z"/>
    <path class="cls-5" d="M367.98,368.09c3.6,1.38,7.19,3.25,10.25,5.47-3.87.08-6.07-3.1-13.71-4.85-5.95-1.37-12.31-4.02-18.38-1.95-2.24.76-4.23.38-6.64,1.12l-9.62,2.96c-.43.13.04,2.06.6,1.91,1.41-.36,2.27-.47,3.22-.26-4.88,2.57-13.25,7.29-14.63,10.17-.89,1.86-4.83,3.75-4.22,5.71.17.56,1.49.65,2.1.41.27.4.6.28.87.13l2.21-.08c.18.41.73.79,1.48.81l21.2.33-24.21.35c-1.74.18-3.16.11-4.68-1.57-.47-.4.09-2.1-.46-3.48.13-1.01.86-1.65,1.43-2.43.32.06.82-.03,1.06-.19.31-.21.22-1.23.45-1.55,4.51-6.17,11.6-10.48,18.92-13.2,10.67-3.97,22.16-3.83,32.75.22Z"/>
    <path class="cls-1" d="M387.1,389.44c.1.34-.14,1-.77.99l-43.6-.47-21.2-.33c-.75-.01-1.31-.39-1.48-.81l59.45.06,7.6.56Z"/>
    <path class="cls-5" d="M424.67,388.84l16.48-.18c.67.2,1.43.34,2.37-.09v-63.73c0-.62.47-.89.75-.86v66.31s-18.12.08-18.12.08c-.63,0-1.18-.2-1.4-.47-.18-.22-.18-.8-.09-1.05Z"/>
    <path class="cls-14" d="M444.16,316.26l.12,7.71c-.28-.03-.75.24-.75.86v63.73c-.94.43-1.7.29-2.37.09,1.32-.89,1.62-3.34,1.62-4.7l.08-65.97c0-3.06.61-5.3-1.35-7.59.47-.29,2.16-.31,2.22.44l.44,5.42Z"/>
    <path class="cls-1" d="M385.88,393.32h-14.32s-6.32,0-6.32,0l-13.56.02-17.24.26-15.17-.34c.4-.61,1.22-.75,2.23-.77l18.52-.29h27.12s17.64.34,17.64.34c.53.01.86.59,1.12.77Z"/>
    <path class="cls-1" d="M308.02,388.84v-78.43s.74,0,.74,0l.02,77.55c0,.69-.55.83-.76.88Z"/>
    <g>
      <path class="cls-6" d="M428.43,393.27l8.35-.03h2.95s2.35.07,2.35.07l1.45-.02v71.52c0,.61.47.89.76.86l-.07,11.28c-.7.55-.68,1.49-.7,2.33v.58s-42.83.17-42.83.17c-2.66-.9-5.14-.91-7.59-.82v-85.85s35.33-.1,35.33-.1Z"/>
      <path class="cls-5" d="M444.28,465.68c-.29.03-.76-.24-.76-.86v-71.52c.25,0,.77.1.77.83v71.54Z"/>
      <path class="cls-5" d="M443.51,479.87c-.09,3.88-3.9-.76-13.59,1.59l-3.01-.69-33.64-.02c-.28-.54-.23-1.31-.17-1.53,2.45-.1,4.93-.08,7.59.82l42.81-.17Z"/>
    </g>
    <path class="cls-1" d="M308.78,275.86v30.03s-.76,0-.76,0v-55.7c0-.58.47-.88.75-.84v26.51Z"/>
    <path class="cls-5" d="M252.31,388.8h.75c.27.37.09,1.51-.74,1.51h-19.6c-.82,0-1.05-1.22-.81-1.59h.7s19.7.09,19.7.09Z"/>
    <path class="cls-1" d="M418.68,306.67c-.37-.05-1.15-.16-1.47.05-.1-.57-.67-.88-1.47-.87l-7.6.07-10.37.26c-2.03.05-3.77.65-4.65-1.27l25.65.25c.34.34.08,1.31-.08,1.51Z"/>
    <path class="cls-5" d="M359.94,370.83c-6.43-1.4-13.04-1.18-19.48.06-.35-.52-.19-1.7.65-1.7h18.11c.84,0,1.02,1.17.71,1.64Z"/>
    <path class="cls-1" d="M262.69,388.81l3.18-.02h4.52c-.2.87-.98,1.54-2.23,1.54l-7.62.03c-.62,0-1.18-.21-1.39-.48-.17-.22-.18-.77-.09-1.06h3.64Z"/>
    <path class="cls-1" d="M312.09,355.74l-.19-21.29c.34.25.67.77.67,1.53l-.48,19.76Z"/>
    <path class="cls-5" d="M417.21,306.71c-2.15,1.37-10.18,1.22-9.07-.81l7.6-.07c.8,0,1.37.3,1.47.87Z"/>
    <path class="cls-1" d="M312.3,382.77c-1.01-4.04-1.17-14.35,1-17.35-.05,4.47-1.2,9.2-.4,14.07.22,1.35.53,2.35-.6,3.29Z"/>
    <path class="cls-5" d="M436.78,393.25l-8.35.03c-.08-.31-.08-.83.1-1.05.21-.26.78-.47,1.38-.47h5.41c.58,0,1.19.23,1.38.47.17.22.17.74.09,1.02Z"/>
    <path class="cls-1" d="M277.15,388.85c.27.71-.1,1.35-.55,1.38l-2.44.15-1.79-.16c-.44-.04-.75-.8-.49-1.42l5.26.05Z"/>
    <path class="cls-5" d="M311.91,305.87l-.02,4.54c-.23.09-.99.16-1.21-.06-.43-.43-.57-1.29-.48-2.2l.17-1.8c.04-.46.9-.73,1.55-.48Z"/>
    <path class="cls-5" d="M366.09,372.83c-1.77-.77-3.86-1.05-5.54-2.06,1.62-.02,3.39-.37,5.25.16.37.32.34,1.7.29,1.9Z"/>
    <path class="cls-5" d="M388.49,346.54c0,2.09.57,4.1-.4,6.53l-3.68-3.82c-1.2-1.25-2.15-2.12-1.78-3.7,2.61,1.2,2.89,4.24,4.95,6.49.38-2.18-.27-4.14.91-5.5Z"/>
    <path class="cls-5" d="M339.77,370.77c-1.52,1.16-3.48,1.48-5.35,1.52-.29-.46-.2-1.56.68-1.56l4.68.04Z"/>
    <path class="cls-5" d="M388.49,366.24c-.94-1.84-1.33-4.04-1.45-6.1.45-.25,1.52-.11,1.51.75l-.06,5.35Z"/>
    <path class="cls-5" d="M387,359.57l-4.59-8.38c1.7-.62,1.67,1.57,2.19,2.21,1.83,2.25,3.11,3.64,2.4,6.17Z"/>
    <path class="cls-5" d="M180.07,388.85c.18.56-.04,1.29-.44,1.43-.66.24-1.58.06-1.83-.35-.15-.24-.06-.93-.01-1.16l2.28.08Z"/>
    <path class="cls-5" d="M442.08,393.32l-2.35-.07c-.18-.56.04-1.28.44-1.42.67-.23,1.56-.07,1.83.35.15.24.11.89.07,1.14Z"/>
    <path class="cls-5" d="M388.56,308.15l-.02-2.29c.22-.02.78-.12,1.14.04.58.25.65,1.08.05,1.5-.31.22-.67.59-1.17.75Z"/>
    <path class="cls-1" d="M522.58,396.33c-.96-.61-.93-1.98-.76-3.01l.78.04-.02,2.97Z"/>
    <path class="cls-5" d="M382.61,345.07c-1.56-.18-2.87-1.46-2.98-3.04,1.21.77,2.25,1.8,2.98,3.04Z"/>
    <path class="cls-5" d="M443.52,479.29c.02-.84,0-1.78.7-2.33,0,.84.26,1.96-.7,2.33Z"/>
    <path class="cls-13" d="M387.03,190.58c-.13,4.7.93,9.67-.47,14.87-12.43-16.14-33.07-21.67-51.23-15.48-.48-.1-1.27-.31-1.97-.08-.41.13-.74.74-.5,1.37-.32.09-.77.21-1.1.18-2.48-.25-4.98.35-7.21,2.09l-4.98-.86c-.63-4.16-.67-8.13,1.42-11.91-1.11-4.46.75-8.12,4.07-10.85.56-.89.3-2.77.14-3.58l.77-.69c1.93.32,3.71-1.17,3.88-3.04,11.72-7.64,24.4-9.3,37.16-2.58,11.83,6.23,20.42,17.02,20.04,30.55ZM370.24,175.54c-.26-2.63-3.42-5.58-5.72-4.85-3.26,1.03-4.46,3.63-3.7,6.44.57,2.12,2.5,3.74,5.34,3.35,1.83-.25,4.34-2.3,4.08-4.94Z"/>
    <path class="cls-7" d="M387.17,211.9c.03.1-.08.31-.11.4.23.72-.08,1.36-.52,1.59-.69.35-1.59.18-2.53.18l-66.2-.24c-1.85,0-3.33-.55-4.77.16-.17-.44-1.63-1.26-.84-1.43l.91-.2c.97-.58,1.83-1.66,2.51-2.8,9.5-15.98,28.65-22.42,46.5-17.44,10.91,3.05,19.69,10.01,25.04,19.78Z"/>
    <path class="cls-7" d="M308.71,216.25l.09,3.71h-1.49c0-.34-.09-.82-.25-1.06-.31-.44-1.04-.69-2.03-.65l-9.01.36c-2.96,2.21-2.48,6.72-.85,9.42-2.65.2-2.36,2.79-2.93,4.68-1.97,6.49-2.41,19.21-2.18,27.18l.75,25.7c-1.08-.29-1.53-2.06-3.19-2.03-2.12,3.5-1.22,7.34-1.53,10.99-.2,2.39-.78,4.25.23,6.7l-3.21.07.09-48.76c-.74-.37-1.28-.27-1.63-.22-.04-11.84-1.14-23.58-.36-36.18l27.5.06Z"/>
    <path class="cls-1" d="M387.03,190.58c.87.16,1.6.97,1.57,2.23l-.26,12.81c-.04,2.13-1.8,4.19-1.17,6.28-5.34-9.77-14.13-16.73-25.04-19.78-17.85-4.99-36.99,1.46-46.5,17.44-.68,1.14-1.55,2.22-2.51,2.8.09-.97.3-2.14.02-3.07-.17-.55-2.12-.79-2.26-1.37-1.21-4.66-.38-9.51-.6-14.33-.04-.87,1.17-1.04,1.49-.8l-.4,12.89c-.03.96,0,1.7.84,2.08.52.24,1.12.1,1.74-.7,5.03-6.47,10.66-12.12,17.79-15.61.33.03.78-.09,1.1-.18.91-.24,1.74-.72,2.47-1.29,18.17-6.19,38.8-.66,51.23,15.48,1.4-5.2.34-10.18.47-14.87Z"/>
    <path class="cls-6" d="M331.75,191.44c-7.13,3.49-12.76,9.14-17.79,15.61-.62.8-1.23.94-1.74.7-.84-.38-.87-1.12-.84-2.08l.4-12.89c.32-10.23,5.87-19.65,13.42-26.44.15.8.42,2.68-.14,3.58-3.32,2.73-5.18,6.39-4.07,10.85-2.09,3.78-2.04,7.75-1.42,11.91l4.98.86c2.23-1.73,4.73-2.34,7.21-2.09Z"/>
    <path class="cls-14" d="M308.8,219.96l-.02,29.4c-.29-.04-.76.25-.76.84v55.7s-.75,0-.75,0l-23.34.02c-.98-.13-1.72-.44-2.23-.9l-.03-23.95-.1-28.69c.35-.05.89-.15,1.63.22l-.09,48.76c-.52.54-.46,3.31.65,3.3l17.48-.29c1.35-.02,2.86-.35,3.63-1.23.58-.65,1.02-2.25.8-3.22-.56-2.52,1.34-4.92,1.35-7.61l.25-45.96.04-26.37h1.49Z"/>
    <path class="cls-7" d="M307.29,209.56l1.16,1.59c.16.33-.45,2.06-1.19,2.05l-26.1-.33c4.36-7.01,12.1-11.66,18.54-8.68l7.58,5.37Z"/>
    <path class="cls-7" d="M353.68,152.39c-3.4.81-5.81.79-9.16.82l5.44-5.15c1.09,2.04,2,2.75,3.73,4.33Z"/>
    <path class="cls-6" d="M325.95,165.65c1.2-1.08,2.49-2.13,3.88-3.04-.17,1.87-1.95,3.36-3.88,3.04Z"/>
    <path class="cls-15" d="M436.85,301.38c-1.28,1.03-2.58,2.06-3.75,3.19l-1.69,1.63c-.98.94-.65,1.78-.02,2.7.5.75.86,1.56,2.39,1.55l6.7-.06c.27,0,.83.13,1.02.01,1.97,2.29,1.36,4.53,1.35,7.59l-.08,65.97c-.53,0-1.17.03-1.68-.12l.14-4.11-4.11.51-2.18,1-2.04-1.26-2.64,1.3c-.76.37-1.95-.61-2.77-1.5l-2.79,1.46.06-72.02c1.42-.3,2.29-.17,3.65-1.27-2.68-1.98-3.81-4.64-2.11-7.54l-1.85-4.2c3.76-4.14-.16-10.27,3.81-12.12,2.25,1.05,2.31,4.64,2.48,7.1,4.26-1.35,5.4,2.82,7.15.36.39-.55.33-1.95-.02-2.67-1.24-2.53.59-4.4,1.49-6.6,1.17-2.84.2-6.54,2.98-9.36.3,3.2,1.1,6.93-.04,9.95-.73,1.93-1.72,2.79-.14,4.94,1.07,1.45.93,4.26.1,5.9-.95-.94-1.6-1.89-2.21-2.02-.97-.22-1.25.85-1.51,1.34s-.56,1.59.26,2.11,2.62-.14,4.06.1c-1.2,2.7-3.54,3.09-5.76,3.72-.52.34-.39,1.97-.25,2.43ZM433.67,296.19c-.41-1.68-3.03-1.01-2.97-.17.11,1.51,3.18,1.04,2.97.17Z"/>
    <path class="cls-13" d="M437.04,237.82c-1.32.3-2.53.28-3.95,1.26.6.51,1.33,2.65.26,3.25-.97.54-2.66.53-2.59,2.03-2.55.08-5.06.69-7.58.31-.36-.64-.2-2.51.54-2.99l5.5-3.52c2.29-1.46,5.35-1.24,7.82-.34Z"/>
    <path class="cls-7" d="M437.04,237.82c3.06,1.11,6.64,2.87,7.01,6.26-1.44-.78-2.74-.03-4.32.02l-8.96.27c-.07-1.49,1.62-1.48,2.59-2.03,1.07-.6.34-2.74-.26-3.25,1.42-.99,2.63-.96,3.95-1.26Z"/>
    <path class="cls-6" d="M444.05,244.08c-.57.43-.64,1.13-.71,1.57l-10.03,1.05-10.13,1.16c.79-.92.54-2.23,0-3.19,2.52.37,5.03-.24,7.58-.31l8.96-.27c1.59-.05,2.89-.8,4.32-.02Z"/>
    <path class="cls-6" d="M445.03,249.33c-1.03-.83-.89-2.44-.64-3.78,1.12.81.67,2.55.64,3.78Z"/>
    <path class="cls-7" d="M217.92,248.45l2.02.14c-.33,3.05,2.43-.63,9.79,3.89,1.93,1.19,4.8,1.17,4.99,4.77,3.34.25,4.75,3.1,3.97,6.23,3.13,2.72,2.37,8.58,4.28,13.44.92,2.34,2.22,5.71.38,8.05-2.28-.91-4.97.9-6.89.94l-26.45.84-20.18-.48h-1.53c.58-6.42,1.22-13.57,4.53-19.47,6.02-10.72,7.85-12.29,19.57-17.44,1.78-.78,3.55-1.01,5.5-.89ZM232.54,268.58c-.23-3.15-3.47-5.35-6.16-6.03-4.61-1.17-8.69,2.41-8.63,6.69.07,4.7,2.78,7.95,7.9,7.89,3.41-.04,7.24-3.78,6.89-8.55Z"/>
    <path class="cls-15" d="M251.04,298.28l2.02-.04c-.14.15-.15,1.23.17,1.36,1.43.58,2.75.22,3.91.2.91-.02,1.62.75,1.9,1.55.65,1.88,2.85,2.42,5.1,3.74-2.48,1.72-4.76.81-7.34.81h-55.38c-1.05-2.12-3.92-5.01-5.78-4.17-3.66,1.67-7.21,1.77-9.36-1.69l16.1-.62c2.59-.1,2.57-.76,5.14-.07,4.31,1.16,9.93.53,14.55.23,1.77-.12,3.36-1.28,5.38-1.28h23.6Z"/>
    <path class="cls-14" d="M247.11,286.77c-12.31.95-24.77.27-37.09-.03l26.45-.84c1.91-.04,4.61-1.85,6.89-.94,1.84-2.34.53-5.71-.38-8.05-1.91-4.87-1.15-10.72-4.28-13.44.77-3.13-.63-5.98-3.97-6.23-.19-3.6-3.06-3.59-4.99-4.77-7.36-4.52-10.12-.83-9.79-3.89l.78-.03c7.34-.3,20.83,7.26,26.13,15.33,4.47,6.8,7.53,13.99,7.05,22.36l-6.78.53Z"/>
    <path class="cls-1" d="M210.02,286.74c12.32.3,24.78.98,37.09.03l.06,2.54c-4.32-.02-8.91-.79-13.43.27-1.51.82-1.19,4.42-.96,5.7-.76-.11-2.23-.5-2.56,1.4l20.7.17c.6-.12.88.69.12.75l-48.38.21c-2.23,0-3.93.04-6.13.04l-18.68-.03c-.72,0-1.44-.3-1.58-1.02.41-.17,1.13.06,1.52.06l24.07-.2c.52,0,1.2-.16,1.39-.34s.12-.89.02-1.05l26.76-.1c.44-2.21.62-3.77.46-6.07l-29.45.29c.03-2.51-5.69-2.36-11.21-2.38v-.75s20.19.48,20.19.48Z"/>
    <path class="cls-15" d="M247.17,289.31c1.81.01,4.49-.73,6.35.46,1.37.87,1.26,3.88.95,5.52h-21.68c-.23-1.29-.56-4.89.96-5.71,4.52-1.07,9.11-.3,13.43-.27Z"/>
    <path class="cls-14" d="M269.62,238.08c.38.02.98.13,1.31.05,2.19,1.67,4.74,3,6.21,5.36-1.15.99-2.79.37-4.45.46l-15.09.74-.28-.81c.85-1.54,1.68-3.2,3.25-4.32,2.64-1.89,5.89-1.65,9.05-1.48Z"/>
    <path class="cls-1" d="M257.31,243.88l.28.81.02,2.47-.4,19.11-.2,20.73c-.03,2.81,1.11,5.82.53,8.33-1.41-2.84-1.47-6.23-1.48-9.82l-.07-39.2c0-1.81.97-1.8,1.32-2.43Z"/>
    <path class="cls-1" d="M264.96,301.65l2.05,1.47,3.23,2.92c.58.53,1.53.68,1.79,1.07,2.08,3.16-3.57,2.23-8.51,3.67-.91-3.79,3.76-.74,7.89-2.75-1.94-.62-3.51-1.01-4.77-2.21-2.11-2.03-5-3.13-7.6-4.46-.28-.8-.98-1.57-1.9-1.55-.01-.22-.09-.5-.03-.7l.63-1.88c2.3,1.69,4.47,3.78,7.2,4.43Z"/>
    <path class="cls-1" d="M210.94,244.06c-.18.62-.61,1.15-.62,2.47,2.19-.56,4.14-1.17,6.21-.84-.23.64-.22,1.38.21,2.02.22.32.7.61,1.17.73-1.95-.12-3.72.11-5.5.89-2.67.15-6.01-.27-8.63.68,4.42-2.26,4.99-5.88,7.16-5.96Z"/>
    <path class="cls-13" d="M216.53,245.7c-2.07-.33-4.02.28-6.21.84,0-1.32.44-1.86.62-2.47.04-.13.02-.32,0-.49,1.58-.08,2.23-2.02,3.28-2.84,1.2-.93,3.85,3.58,3.88,3.72.11.57-1.02,1.19-1.57,1.24Z"/>
    <path class="cls-1" d="M269.62,238.08c-3.16-.17-6.42-.41-9.05,1.48.68-2.7,3.05-3.09,6.14-3.01l2.41.06c.44.01.8.76.5,1.48Z"/>
    <path class="cls-13" d="M257.12,299.1c-.07.2.01.48.03.7-1.16.02-2.47.39-3.91-.2-.32-.13-.31-1.2-.17-1.36,1.4-.03,2.78.27,4.05.85Z"/>
    <path class="cls-1" d="M220.71,248.56l-.78.03c.06-.51.73-.72.78-.03Z"/>
    <path class="cls-6" d="M212.41,249.34c-11.73,5.16-13.55,6.73-19.57,17.44-3.32,5.91-3.95,13.05-4.53,19.48l-11.67-.18c1.33-6.09,2.48-12.29,5.81-17.7,5.18-8.39,12.37-15.15,21.33-18.38,2.62-.94,5.96-.52,8.63-.68Z"/>
    <path class="cls-6" d="M183.86,289.28l13.35.54c1.45.06,1.01,5.21-.5,5.24l-18.96.27c-.62-.01-1.49-.31-1.41-1.55s.79-3.94,2.12-4.26c1.98-.48,3.8-.29,5.39-.23Z"/>
    <path class="cls-5" d="M189.83,287.01c5.52.02,11.24-.13,11.21,2.38-.58,1.83-.68,3.64-.44,5.78l2.67.1c.1.15.17.87-.02,1.05s-.87.33-1.39.34l-24.07.2-.03-1.54,18.96-.27c1.51-.03,1.95-5.18.5-5.24l-13.35-.54c-1.6-1.38-3.79-.49-6.17-.95,4.04-1.34,8.06-1.33,12.14-1.31Z"/>
    <path class="cls-10" d="M420.28,235.84l-.05,4.51c-.23.12-1.54-.12-1.53.76v57.19c.01,2.17.75,3.92.15,6.16l-23.35-.23c-1.34-.01-2.11-1.83-2.3-2.71-.74-3.37,3.88-6.1,2.98-10.71-.64-3.28.77-6.67.53-9.81-.82-11.15.17-23.72-.9-28.44-.43-1.9-1.43-3.24-1.45-5.46l-.22-30.05,20.79.08,5.17,1.57.19,17.15ZM406.15,291.75c.05,1.23,2.27,1.45,2.78.98.71-.65,1.45-1.33,1.45-2.75l.09-61.66c0-1.69-2.34-1.97-3.3-1.52-.86.39-2.14,1.32-2.12,3.03l.47,47.03.63,14.89Z"/>
    <path class="cls-14" d="M419.16,212.82c-9.09.66-17.67.6-27.21-.44,4.6-7.15,10.12-10.84,17.96-8.62,3.43,2.44,6.52,4.03,9.25,9.06Z"/>
    <path class="cls-11" d="M408.33,199.66c.08.75-2.12,1.29-3.14.49l1.21-6.34c1.43,1.73,1.65,3.06,1.93,5.84Z"/>
    <path class="cls-7" d="M296.83,200.19c.46,1.5-3.01,1.69-3.02.4-.02-2.71-.61-4.88.93-7.23l2.09,6.82Z"/>
    <path class="cls-6" d="M278.64,244.16c0,.2.19.55.3.73-.92.03-1.66.58-1.86,1.51-6.44.12-11.66,2.51-19.47.76l-.02-2.47,15.09-.74c1.66-.09,3.31.53,4.45-.46l1.5.67ZM268.18,246.05c-.79-.74-2.99-.69-4.59-.15,0,.03.15.23.4.41,1.36.04,2.79.25,4.2-.26Z"/>
    <path class="cls-1" d="M278.64,244.16l-1.5-.67c-1.47-2.36-4.02-3.69-6.21-5.36,2.1-.56,3.33.39,4.78,2.23,1.01,1.28,2.93,2.08,2.93,3.81Z"/>
    <g>
      <path class="cls-10" d="M417.96,310.41l1.72-.16.13,40.65.21,37.69c-.47.68-2.26.37-2.98.36,3.39-3.23,1.54-6.93.62-10.7l-.72-15.87-.96-.08-.73,3.4c-1.57,2.48-1.98,4.8-.22,7.59-1.12,1.97-1.76,5.09-3.81,6.71-1.66,1.31-6.74.44-8.17-1.11l-4.3-10.21c-1.04,5.24.21,10.42-2.81,14.69-.68.96-1.72,1.57-1.38,2.86s1.84,1.65,3.35,1.49l1.77-.19c.54-.06,1.03.64.99,1.28h-7.49s-.1-25.6-.1-25.6v-52.77s24.88,0,24.88,0Z"/>
      <path class="cls-3" d="M417.05,388.95l-16.37-.16c.04-.65-.45-1.34-.99-1.28l-1.77.19c-1.51.16-3.02-.25-3.35-1.49s.7-1.9,1.38-2.86c3.01-4.27,1.77-9.45,2.81-14.69l4.3,10.21c1.42,1.55,6.51,2.42,8.17,1.11,2.05-1.62,2.69-4.74,3.81-6.71-1.76-2.79-1.35-5.11.22-7.59l.73-3.4.96.08.72,15.87c.92,3.77,2.77,7.47-.62,10.7Z"/>
    </g>
    <path class="cls-10" d="M381.82,319.45c-2.51,1.09-3.03-2.02-4.33-3.01-3.55-2.7-6.26-5.3-6.9-9.97-.3-2.17-1.58-3.46-3.33-2.82-2.12.78-2.49,2.03-2.48,4.39-.17,1.11-2.74,2.09-3.93,2.3-.04-1-.78-2.97-1.69-3.2-3.5,2.05-1.18,7.05-3.69,12.5l.36.95,1.6.33c.69.14.95,1.34.53,1.66-.54.41-1.7.79-2.07.41-.42-.44-.55-1.74-.4-2.42l-.64-.33c-.88.02-2.07.5-2.33,1.21-1.14,3.16,4.89,4.11,2.11,6.34-1.09-1.25-3.42-3.3-3.46-5.43l-.59-27.44-.43-1.45c-.19-.62-1.96-.75-1.97-.14l-.37,29.09c-.03,2.55-3.36,3.99-4.7,5.67-5.08,6.42-9.84,6.68-16.67,11.27-1.96-.65-3.27.55-5.11,2.41-.73-3.09-.69-5.83-.25-8.67.58-3.72.13-6.99.05-10.73l-.67-33.74-1.31-14.43-1.82-38.7c-.29-6.22-.69-12.28-.28-18.47l40.28-.48,25.17-.35-1.09,38.8.06,15.82.34,48.62ZM366.46,273.75c-.06.76.07,1.69,1,2.01l.03-23.02c-.12-.25-.35-.37-.53-.39l-.37,4.97c.04-7.83-5.12-15.72-11.94-17.36-9.91-2.39-18.47,4.84-19.7,14.52-.88,6.98-.91,13.93.37,20.92l27.69.47c1.91.03,2.92-.41,3.44-2.12Z"/>
    <path class="cls-9" d="M381.82,319.45l.33,22.92c-2.07-2.14-3.95-2.43-5.75-3.34-5.93-2.98-11.99-6.09-18.58-7.53l-3.18-3.71c2.79-2.23-3.25-3.18-2.11-6.34.26-.71,1.45-1.19,2.33-1.21l.62-.61c2.51-5.45.19-10.44,3.69-12.5.9.23,1.64,2.2,1.69,3.2,1.19-.2,3.75-1.19,3.93-2.3,0-2.35.36-3.61,2.48-4.39,1.75-.64,3.03.65,3.33,2.82.64,4.67,3.34,7.28,6.9,9.97,1.3.99,1.83,4.1,4.33,3.01ZM355.84,320.58h-.34c-.15.67-.02,1.97.4,2.41.36.38,1.52,0,2.07-.41.42-.32.16-1.52-.53-1.66l-1.6-.33Z"/>
    <path class="cls-7" d="M315.1,237c1.29,11.2,1.54,22.14,1.22,33.41-.05,1.68-2.15,2.38-2.99,1.82l-.16-53c0-.67-.16-1.51.07-1.91.27-.46,1.59-.72,2.29-.12-.74,6.38-1.19,13.16-.43,19.79Z"/>
    <path class="cls-1" d="M200.41,314.1l-.22,37.01.29,37.5c-1.27-.01-1.71-3.32-3.06-2.61l.23-58.22c.33-5.64.55-10.81.5-15.89.66.36.74,2.75,2.26,2.21Z"/>
    <path class="cls-15" d="M252.31,388.8l-19.7-.1c-.01-.21.04-.51.21-.67,1.74-1.57-2.22-5.42,6.64-10.18,2.58.74,6.69,1.14,8.25-1.06,3.94-5.53-2.32-14.39,3.73-15.04l.43,19.99c.04,1.88,1.8,3.42-.4,5.05,1.01.43,1.17.97,1.23,1.26.05.21-.25.65-.39.74Z"/>
    <path class="cls-7" d="M247.32,348.89c-.01,2.56-1.78,5.18-3.58,7.18-2.33-9.99-2.4-19.87-1.41-29.88.1-.99,2.78-1.13,3.33-.59s1.76,1.44,1.75,2.78l-.09,20.52Z"/>
    <path class="cls-1" d="M252.26,311.24c-.2-.16-.64-.06-.68.27l-18.09-.35c-.05-.3.27-.74.79-.74h19.91s.39.41.39.41c-.72.52-1.58.42-2.33.42Z"/>
    <polygon class="cls-6" points="251.58 311.51 233.41 311.92 233.49 311.16 251.58 311.51"/>
    <path class="cls-15" d="M265.87,388.8l-3.18.02c.62-2.13-2.63-.18-3.71-1.83-.53-.81,0-1.74,0-2.75l.06-67.03c0-1.54-1.44-4.85.8-5.34,6.13-.25,9.83,1.56,14.51-3.76l-5.09-4.93c-.52-.5-1.84-.28-2.26-.06l-2.05-1.47c.11-2.05-1.31-3.21-3.75-3.27-.55-.01-.68-1.54-.23-1.72,1.5-.58,3.62,1.12,4.24-.59-1.72-1.26-1.09-2.71-1.12-4.6-.03-2.17-1.93-5.97.97-7.6,1.67-.94,4.89-2.7,3.23-5.44-1.15-1.89-2.65-3.5-1.5-6.3.79-1.94.59-4.59,2.07-6.62,1.62,1.64.39,4.07.89,5.64.46,1.43,1.94.36,2.43-.11.73-.7,1.18-1.64,1.18-2.89v-9.18c.01-.61,1.29-.51,1.6-.2.38.38.71,1.08.71,1.92l-.17,33.09.08,4.68.11,80.35c.27.92,1.43,2.09,1.2,3.08l-1.24,5.29h-8.34c-.6,0-1.24.26-1.41.51s-.13.83-.04,1.1Z"/>
    <path class="cls-5" d="M263.52,310.77l-1.32-.45-.08-2.93c1.34.02,2.71.3,4.43-.27.26-.09.19-1.08.1-1.32,1.26,1.21,2.83,1.6,4.77,2.21-4.13,2.02-8.81-1.04-7.89,2.75Z"/>
    <polygon class="cls-1" points="262.11 307.4 262.2 310.33 260.57 310.4 260.56 307.38 262.11 307.4"/>
    <path class="cls-1" d="M243.28,307.39c.05.26.13.9-.02,1.14-.29.45-1.21.59-1.84.35-.44-.17-.6-.95-.4-1.49h2.26Z"/>
    <path class="cls-1" d="M201.87,307.4c.41.82-.16,1.81-1.1,1.42-.7-.29-1.45-.85-1.91-1.44h3.02Z"/>
    <path class="cls-1" d="M206.39,307.39c.09.4-.13.64-.4.76-.64.27-1.17-.2-1.1-.75h1.5Z"/>
    <path class="cls-7" d="M354.8,334.55c4.46.5,8.53,2.75,12.67,4.31,1.71,1.95,2.38,4.71,4.05,6.67l5.17,6.09c1.64,1.93,1.19,3.02,1.37,5.57.27,4.02,2.64,7.8,4.58,11.38-.73,1.03-2.03,2.17-3.19,2.91-.59-.22-1.23-1.28-1.47-1.74-.28-.54-1.61.06-2.12.01-2.37-1.22-5.13-2.61-7.88-1.68-10.59-4.04-22.08-4.19-32.75-.22-3.83-.51-7.44.1-10.56,3.11-1.04,1.01-4.49,2.47-5.05.26-1.98-7.89,2.55-17.31,2.55-17.33-.18-.66-.62-1.32-1.28-2.3,1.75-1.29,3.22-2.57,2.73-4.81,8.17-8.41,19.26-13.6,31.16-12.26ZM362.74,354.61c.15-.45.2-.76.17-1.27.59.09,1.3-.16,1.5-.55.61-1.17-1.36-5.25-3.81-4.67-.51.12-1.4.41-2.18.33-1.18-.13-2.19-.34-3.02.72-.59.76-.82,2.25-.1,3.71,1,2.02,3.81,2.5,6.28,2.62.95,1.15,1.87-.05,1.16-.88Z"/>
    <path class="cls-14" d="M353.87,330.03c.09.24.12.84-.05,1.06-.36.48-1.01.41-1.53.41h-7.69c1.12-2.98,3.47-4.07,5.41-6.08,1.41,1.98,2.27,3.57,3.85,4.61Z"/>
    <path class="cls-9" d="M230.49,311.9l-.33,33.28-.39,43.76-29.28-.34-.29-37.5.22-37.01c0-.62-.04-1.18.3-2.34l29.77.14Z"/>
    <g>
      <path class="cls-9" d="M304.27,378.64c-2.96-2.61-4.53,2.15-10.36.86-3.32-.73-7.54-.83-10.38,1.18-.95,1.81-.72,5.09.12,7.07,7.26-.58,13.69-.64,20.63-.19.72.05,1.39-.66,1.5-.97,1.15.16,1.68,1.25,1.47,2.4l-25.3-.24-.3-76.11.03-1.47c.73-.49,1.73-.81,2.96-.8l19.64.19v68.07Z"/>
      <path class="cls-13" d="M307.27,309.65l.75.75v78.43s-.77.16-.77.16c.21-1.15-.32-2.24-1.47-2.4.86-1.31.41-2.97-.68-3.84l-.52-1.54-.31-2.58v-68.07s-19.64-.19-19.64-.19c-1.23-.01-2.23.31-2.96.8v-1.53s25.59,0,25.59,0ZM307.27,367.69h-.75v13.19h.75v-13.19Z"/>
      <path class="cls-3" d="M304.27,378.64l.31,2.58c-.43-.27-1.92-.2-1.85.9.06.88,1.82.89,2.37.65,1.09.87,1.54,2.53.68,3.84-.11.31-.78,1.02-1.5.97-6.94-.45-13.37-.4-20.63.19-.84-1.99-1.07-5.27-.12-7.07,2.84-2.01,7.06-1.92,10.38-1.18,5.83,1.29,7.4-3.47,10.36-.86Z"/>
      <path class="cls-1" d="M307.27,309.65h-25.6c.09-.51.64-.79,1.47-.79h22.66c.82,0,1.38.28,1.47.79Z"/>
      <rect class="cls-9" x="306.52" y="367.69" width=".75" height="13.19"/>
      <path class="cls-9" d="M304.58,381.22l.52,1.54c-.55.24-2.32.23-2.37-.65-.07-1.09,1.42-1.17,1.85-.9Z"/>
    </g>
    <path class="cls-1" d="M307.27,305.88c.27.36.09,1.52-.74,1.52l-23.33-.07c-.83,0-1.5-1.69-1.5-2.33.51.46,1.25.77,2.23.9l23.34-.02Z"/>
    <path class="cls-1" d="M314.8,382.82c.44-.61.67-1.38,1.51-1.74-.24.32-.14,1.33-.45,1.55-.24.17-.74.25-1.06.19Z"/>
    <path class="cls-1" d="M316.95,388.77l.87.13c-.27.15-.6.27-.87-.13Z"/>
    <path class="cls-11" d="M370.24,175.54c.26,2.64-2.25,4.69-4.08,4.94-2.84.38-4.77-1.23-5.34-3.35-.76-2.81.44-5.41,3.7-6.44,2.3-.73,5.46,2.22,5.72,4.85Z"/>
    <path class="cls-6" d="M335.33,189.97c-.73.57-1.56,1.05-2.47,1.29-.24-.62.09-1.23.5-1.37.7-.23,1.5-.02,1.97.08Z"/>
    <path class="cls-9" d="M307.31,219.97l-.04,26.37c-.27-.09-.85-.12-1.09.04-.36.25-.33.81-.34,1.43l-.46,24.03s-3.75,9.45-.98,25.77l-.04,1.74c0,.42.71.76,1.3.55.22.97-.23,2.57-.8,3.22-.77.87-2.28,1.2-3.63,1.23l-17.48.29c-1.11.02-1.17-2.75-.65-3.3l3.21-.07c-1.01-2.45-.43-4.31-.23-6.7.31-3.65-.59-7.49,1.53-10.99,1.66-.04,2.11,1.73,3.19,2.03.05,1.73,1,3.85,1.69,5.71.62.5,2.36.44,3.43.08l.84-8.87-.17-41.4c-.01-2.85-.99-5.39-.54-8.43.24-1.62-.17-3.45-.89-4.65-1.62-2.71-2.1-7.22.85-9.42l9.01-.36c.99-.04,1.72.21,2.03.65.17.24.26.71.25,1.07Z"/>
    <path class="cls-3" d="M295.16,228.04c.72,1.2,1.13,3.03.89,4.65-.45,3.03.53,5.58.54,8.43l.17,41.4-.84,8.87c-1.07.37-2.81.43-3.43-.08-.7-1.87-1.64-3.98-1.69-5.71l-.75-25.7c-.23-7.97.21-20.69,2.18-27.18.57-1.89.28-4.49,2.93-4.68Z"/>
    <path class="cls-7" d="M307.27,246.34l-.25,45.96c-.01,2.69-1.91,5.08-1.35,7.61-.59.22-1.31-.13-1.3-.55l.04-1.74c-2.78-16.32.98-25.75.98-25.77l.46-24.03c.01-.62-.02-1.19.34-1.43.23-.16.82-.13,1.09-.04Z"/>
    <g>
      <path class="cls-1" d="M439.27,236.29c3.08.8,5.26,3.34,6.66,6.15l-.2,44.66c0,1.41.28,2.11,1.44,2.27l.06,6.08,20.32-.38c1.3-.65,1.29-4.23.74-5.54l-7.39-.26c-.18-.45-.7-.75-1.5-.76l-12.27-.12c1.09-1.12,1.39-1.64,1.47-2.19l9.43.07h1.6s1.23.06,1.23.06l11.97-.02c0,.16.34.75.9.75l42.75-.06,4.61-.68c-3.19,3.12-8.03-.2-7.34,3.02l-2.88.04-5.6-.13c-1.44-.03-1.97.89-2.42,1.55-.54.8-1.21,3.11-.07,3.9,3.11,1.35,6.8.64,10,.56-.27.69.04,1.45.48,1.49l1.73.16c4.7.42,9.22-.55,13.23,1.23,4.26,1.89,8.06,4.94,11.74,7.77-.54.56-.72,1.12-1.18,2.27-.31-1.06-1.95-2.07-2.82-1.5.59-1.82-1.79-1.92-2.44-2.54-3.52-3.35-6.55-5.88-10.95-5.87.02-.2-.25-.68-.87-.68h-73.57c-.63,0-.92.55-1.05.88-3.91.01-7.57,4.13-10.31,6.45l-1.89,1.42c.13-.35.07-1.41-.24-1.68-.33-.3-1.16-.24-1.57-.09,1.17-1.13,2.47-2.16,3.75-3.19,3.68-2.97,7.38-2.49,7.44-7.57l.36-27.51.38-16.97c.03-1.24.48-2.97-.64-3.78-.39.19-.8.08-1.05.11.08-.44.14-1.14.71-1.57-.37-3.39-3.95-5.15-7.01-6.26-2.47-.9-5.54-1.12-7.82.34l-.1-1.84,10.15-.03ZM472.79,289.44c-1.36.03-1.64,3.48-1.34,5.62l27.98.04c1.19-1.5,1.12-3.88.35-5.83l-14.48-.07c-3.84-.99-9.62-1.08-12.52.25Z"/>
      <path class="cls-5" d="M434.9,306.34c1.55.91,3.51,1.08,5.65,1.08l76.02-.06,15.83.17c1.6.02,2.57-.18,3.57-.84.86-.58,2.5.43,2.82,1.5.46-1.15.63-1.71,1.18-2.27l3.83,2.94-16.71.42c-1.09.03-2.88-1.02-4.42.09-.58.44.62,2.08,1.48,2.82l-.05,47.15c0,.87-.17,1.31-.44,1.54-.22.19-.87.14-1.13.05l.04-24.13v-2.95s-.42-3.12-.42-3.12l.4-16.5c.02-.8.44-1.71-.18-3.07l-18.56.42c-1.24,1.39-1.26,3.01-1.91,4.94-.41-.94-.18-2.38-.3-3.21-.08-.5-.09-2.03-.92-2.03l-26.37-.07c-.95,0-1.71.2-2.16.61l-.81.76c-.74.69-1.96.73-3,.79,0-.55.07-1.13-.3-2.13l-20.65-.12-.08,7.59-3.18-2.43-.44-5.42c-.06-.75-1.75-.73-2.22-.44-.19.12-.75-.01-1.02-.01l-9.09-1.49c-.62-.92-.96-1.76.02-2.7l1.69-1.63c.41-.15,1.24-.21,1.57.09.3.27.37,1.33.24,1.68Z"/>
      <path class="cls-5" d="M498.23,249.13l.16,2.54-.73.2c-3.53-2.13-7.8-1.73-11.9-1.94-8-.4-13.24,2.05-19.82,5.88-8.73,5.09-16.29,15.94-17.92,26.83-.19,1.28-1.64,3.13.57,3.55-.08.55-.38,1.07-1.47,2.19l12.27.12c.8,0,1.31.3,1.5.76l-13.73.1c-1.15-.16-1.44-.86-1.44-2.27l.2-44.66c.69,1.4,1.35,2.68,1.37,4.65l.25,27.48c4.63-10.7,12.43-18.98,22.9-23.86,3.32-1.55,5.22-4.02,7.97-6.44l5.37-4.7.38-21.18c.05-3.05-1.26-6.35.98-8.96l1.21,28.82c.23,5.44,7.14,9.41,11.87,10.88ZM488.78,246.41c-2.01-1.82-2.26-2.71-2.9-5.18l-5.59,5.34c3.43.56,5.54.37,8.48-.16Z"/>
      <path class="cls-2" d="M528.23,298.14c-4.01-1.78-8.53-.81-13.23-1.23l-1.73-.16c-.44-.04-.74-.8-.48-1.49l9.84-.24c1.45-.04,1.29-4.88-.22-5.37-2.84-.93-5.6-.4-8.09-.32l-.57.02c-.69-3.22,4.16.1,7.34-3.02.31-.05.89.14,1.13-.04,1.1-.85-2.5-13.27-6.33-19.76-3.46-5.85-9.06-9.86-14.47-13.17.29-.7-.06-1.47-.46-1.65s-1.29-.12-1.71-.09l-.85.06-.16-2.54c8.23,2.56,15.4,6.58,20.27,14.16,5.81,9.04,9.01,19.61,8.48,30.52-.09,1.92-.31,3.47,1.24,4.32Z"/>
      <path class="cls-14" d="M468.35,313.35l.03,24.22-.08,51.2-.05.44c-2.12.94-4.32-.25-6.68-.28l-12.79-.15-.72.04v-46.02c0-.82-.3-1.31-.65-1.55l-.03-3.71v-3.02s0-2.26,0-2.26l-.04-8.3v-5.28s.07-7.59.07-7.59l20.65.12c.36,1,.3,1.59.3,2.13ZM460.39,354.32c1.55-2.43,3.23-5.06,2.76-7.73-1.24-7.05-1.32-13.79-1.83-20.82-.1-1.37-2.78-1.39-3.44-.7-3.54,3.74-2.12,12.43-2.38,20.76-.12,3.66.68,7.24,4.89,8.48Z"/>
      <path class="cls-14" d="M522.58,336.79l-.04,24.13v6.77s0,10.56,0,10.56l-.04,4.52-.84,6.41-10.31.2c-2.97.06-5.69-.37-8.38-.57l-.56-.04.5-8.91c2.53.23,4.32-1.16,6.56-2.61.59,1.54,1.09,2.71,1.71,3.12.96.63,2.31-.6,3.34-.47l5.19.66c.19-2.73.39-5.8-.1-8.26-.93-.11-3.32.27-3.76-.56-.4-.75-.36-2.71.24-3.38s2.01-.86,4.16-.5c-.99-3.57.61-6.6.64-10.01l.22-20.35c0-.86,1.01-1,1.46-.75Z"/>
      <path class="cls-1" d="M503.66,315.75l-.38,11.72-.37,52.41-.5,8.91h-.92s-.03-3.77-.03-3.77c0-.88-1.08-1-1.63-.75l.62-48.39.13-20.66c0-.79.27-1.55,1.02-1.93.13.83-.11,2.27.3,3.21.65-1.93.67-3.55,1.91-4.94l-.16,4.2Z"/>
      <path class="cls-1" d="M471.28,388.78h-2.97s.08-51.2.08-51.2l-.03-24.22c1.04-.05,2.27-.1,3-.79l-.39,19.33-.4,50.85c-.02,2.06.37,4.63.71,6.03Z"/>
      <path class="cls-5" d="M448.06,388.83c-1.46-1.32-.88-6.23-.9-9.8l-.08-18.04c-.01-2.32-.07-3.83,0-6.21l.34-13.52c.35.25.66.74.66,1.55v46.02Z"/>
      <path class="cls-5" d="M499.22,389.52l.78.02c0,.25-.13.78-.78.78l-27.08-.02c-1.01,0-.77-1.14-.87-1.52l17.46-.07c3.61,1.06,7.11.7,10.48.82Z"/>
      <path class="cls-5" d="M502.97,388.83c2.69.2,5.4.62,8.38.57l10.31-.2.84-6.41c.55,0,1.17-.04,1.8.77-3.61,2.13,1.04,6.85-3.27,6.85h-16.58c-.63,0-1.21-.24-1.41-.5-.17-.23-.16-.82-.07-1.06Z"/>
      <path class="cls-5" d="M468.25,389.21c.27.27.13,1.11-.6,1.11l-17.4.03c-.63,0-1.2-.2-1.41-.47-.17-.22-.16-.82-.06-1.1l12.79.15c2.37.03,4.57,1.22,6.68.28Z"/>
      <path class="cls-5" d="M522.54,378.25v-10.56c.27-.09.89-.12,1.13.05.27.19.48.77.48,1.4v7.67c0,.62-.22,1.21-.48,1.39-.24.17-.86.14-1.13.05Z"/>
      <path class="cls-5" d="M447.33,323.97l.04,8.3c-.42.28-1.56.12-1.56-.72v-6.84c0-.85,1.1-1,1.52-.74Z"/>
      <path class="cls-5" d="M501.49,388.8h-1.51s0-3.77,0-3.77l-.15-.76c.55-.25,1.63-.12,1.63.75l.03,3.78Z"/>
      <path class="cls-5" d="M447.37,334.53v3.02c-1.4.29-1.83-.48-1.66-1.89.12-.96.51-1.42,1.66-1.13Z"/>
      <path class="cls-1" d="M499.99,388.8l.02.75-.78-.02c-.08-1.49-.36-3.37.77-4.5v3.77Z"/>
      <path class="cls-7" d="M497.66,251.88c.64.39,1.17,1.21,2.35,1.23h.73c.28,1.86,3.5,2.38,4.36,3.76l4.41,7.06c3.4,6.95,4.49,14.68,5.85,22.32l-42.54.06-11.97.02c.14-.59.09-1.19-.39-1.56-.37-.28-1.01.04-1.08.39-.05.28.19.79.24,1.12h-1.6c-.6-1.31.78-3.79.47-5.12-.73-3.19-.53-4.19.91-6.92l3.1-5.88,1.94-7.78c.43-1.73,1.81-2.91,1.48-4.75,6.58-3.84,11.82-6.28,19.82-5.88,4.1.2,8.37-.19,11.9,1.94ZM501.38,272.68c0-3.23-2.61-5.85-5.84-5.85s-5.84,2.62-5.84,5.85,2.61,5.85,5.84,5.85,5.84-2.62,5.84-5.85Z"/>
      <path class="cls-15" d="M447.1,298.47l75.49-.2c4.4-.01,7.43,2.52,10.95,5.87.65.62,3.03.73,2.44,2.54-1,.67-1.97.86-3.57.84l-15.83-.17c-.02-.24-.25-.63-.86-.64l-45.43-.4c-4.64-.04-9.29-.97-13.87-.21-3.34.55-5.84.71-9.3-.08l-9.58.58c-.91.06-1.03-1.07-.73-1.68,2.74-2.32,6.4-6.44,10.31-6.45Z"/>
      <path class="cls-14" d="M465.94,255.82c.33,1.84-1.05,3.02-1.48,4.75l-1.94,7.78-3.1,5.88c-1.44,2.73-1.65,3.73-.91,6.92.31,1.33-1.07,3.81-.47,5.12l-9.43-.07c-2.22-.43-.77-2.28-.57-3.55,1.63-10.89,9.19-21.74,17.92-26.83Z"/>
      <path class="cls-6" d="M521.09,286.32l-4.61.68-42.75.06c-.56,0-.89-.59-.9-.75l42.54-.06c-1.36-7.64-2.46-15.38-5.85-22.32l-4.41-7.06c-.86-1.37-4.08-1.9-4.36-3.74l.67.23c5.41,3.31,11.02,7.32,14.47,13.17,3.83,6.48,7.43,18.91,6.33,19.76-.24.18-.82,0-1.13.04Z"/>
      <path class="cls-10" d="M485.3,289.19l14.48.07c.77,1.95.84,4.33-.35,5.83l-27.98-.04c-.3-2.14-.02-5.59,1.34-5.62l12.52-.25Z"/>
      <path class="cls-13" d="M460.89,289.27l7.39.26c.55,1.31.56,4.89-.74,5.54l-20.32.38-.06-6.08,13.73-.1Z"/>
      <path class="cls-13" d="M513.74,289.34l.57-.02c2.31,2.26,6.93.14,8.07,1.94.42.66.3,2.36-.27,2.76-1.38.99-11.83-1.5-19.33.67-1.14-.79-.47-3.1.07-3.9,2.67.14,5.42-.13,8.01-1.42l2.88-.04Z"/>
      <path class="cls-6" d="M522.59,298.27l-75.49.2c.13-.33.42-.88,1.05-.88h73.57c.62,0,.89.47.87.68Z"/>
      <path class="cls-6" d="M512.78,295.26c-3.2.08-6.89.79-10-.56,7.5-2.17,17.95.32,19.33-.67.57-.41.69-2.11.27-2.76-1.15-1.8-5.76.32-8.07-1.94,2.49-.08,5.25-.61,8.09.32,1.51.5,1.67,5.34.22,5.37l-9.84.24Z"/>
      <path class="cls-14" d="M485.3,289.19l-12.52.25c2.9-1.33,8.68-1.23,12.52-.25Z"/>
      <path class="cls-6" d="M510.87,289.38c-2.6,1.29-5.35,1.56-8.01,1.42.44-.66.98-1.58,2.42-1.55l5.6.13Z"/>
      <path class="cls-6" d="M516.58,307.35l-76.02.06c-2.14,0-4.1-.16-5.65-1.08l1.89-1.42c-.3.61-.19,1.74.73,1.68l9.58-.58c3.46.79,5.97.63,9.3.08,4.58-.75,9.23.17,13.87.21l45.43.4c.61,0,.84.4.86.64Z"/>
      <path class="cls-14" d="M460.86,286.33l-1.23-.05c-.05-.33-.29-.83-.24-1.12.07-.35.7-.67,1.08-.39.49.36.54.96.39,1.56Z"/>
      <path class="cls-9" d="M500.59,315.22l-.13,20.66-.62,48.39.15.76c-1.13,1.12-.84,3.01-.77,4.5-3.37-.12-6.87.24-10.48-.82l-17.46.07c-.34-1.4-.72-3.97-.71-6.03l.4-50.85.39-19.33.81-.76c.49,1.53,2.6,2.38,4.53,2.36,8.03-.09,16.17.57,23.89,1.06Z"/>
      <path class="cls-6" d="M501.61,313.28c-.76.38-1.02,1.15-1.02,1.93-7.72-.49-15.86-1.15-23.89-1.06-1.92.02-4.04-.83-4.53-2.36.44-.42,1.21-.62,2.16-.61l26.37.07c.82,0,.84,1.53.92,2.03Z"/>
      <path class="cls-6" d="M522.56,314.21c-.5-.19-1.28-.48-2.06-.29-7.95,1.86-13.3-.17-16.84,1.84l.16-4.2,18.56-.42c.62,1.36.2,2.27.18,3.07Z"/>
      <path class="cls-6" d="M440.48,310.39l-6.7.06c-1.53.01-1.89-.8-2.39-1.55l9.09,1.49Z"/>
      <path class="cls-14" d="M488.78,246.41c-2.94.54-5.05.73-8.48.16l5.59-5.34c.64,2.46.89,3.36,2.9,5.18Z"/>
      <path class="cls-6" d="M499.24,251.61l.77,1.5c-1.18-.02-1.71-.84-2.35-1.23l.73-.2.85-.06Z"/>
      <path class="cls-5" d="M501.41,253.35l-.67-.23h-.73s-.77-1.51-.77-1.51c.42-.03,1.32-.08,1.71.09s.75.95.46,1.65Z"/>
      <path class="cls-7" d="M460.39,354.32c-4.21-1.25-5.01-4.82-4.89-8.48.26-8.34-1.17-17.02,2.38-20.76.66-.7,3.34-.67,3.44.7.51,7.02.59,13.77,1.83,20.82.47,2.67-1.21,5.31-2.76,7.73Z"/>
      <path class="cls-13" d="M522.56,314.21l-.4,16.5c-1.18.04-1.3.84-1.17,1.92.1.88.43,1.4,1.6,1.2v2.95c-.47-.26-1.47-.11-1.48.75l-.22,20.35c-.04,3.4-1.63,6.44-.64,10.01-2.15-.36-3.55-.18-4.16.5s-.64,2.63-.24,3.38c.44.83,2.83.45,3.76.56.49,2.46.29,5.53.1,8.26l-5.19-.66c-1.03-.13-2.37,1.1-3.34.47-.62-.4-1.13-1.58-1.71-3.12-2.23,1.45-4.03,2.84-6.56,2.61l.37-52.41.38-11.72c3.54-2.01,8.89.02,16.84-1.84.79-.18,1.57.11,2.06.29Z"/>
      <path class="cls-14" d="M522.59,333.83c-1.18.19-1.5-.33-1.6-1.2-.13-1.08,0-1.88,1.17-1.92l.43,3.12Z"/>
      <ellipse class="cls-11" cx="495.54" cy="272.68" rx="5.84" ry="5.85"/>
    </g>
    <path class="cls-13" d="M433.67,296.19c.21.87-2.86,1.34-2.97-.17-.06-.84,2.56-1.51,2.97.17Z"/>
    <path class="cls-11" d="M232.54,268.58c.35,4.77-3.48,8.51-6.89,8.55-5.12.06-7.83-3.19-7.9-7.89-.06-4.28,4.01-7.87,8.63-6.69,2.69.69,5.93,2.88,6.16,6.03Z"/>
    <path class="cls-10" d="M203.27,295.27l-2.67-.1c-.24-2.13-.14-3.94.44-5.78l29.45-.29c.16,2.3-.02,3.86-.46,6.07l-26.76.1Z"/>
    <g>
      <path class="cls-5" d="M557.17,391.99l.54,8.95-.35,75.31c-.93.12-1.71.34-2.49.76l.4-9.42-.37-59.18-.75-14.47c-.07-1.27-2.95-.67-3.97-.67l-13.97.05h-7.62s-1.61.21-1.61.21c.12-.48-.15-1.72.86-1.72l29.33.18Z"/>
      <path class="cls-5" d="M554.61,388.49c-.39,1.12-1.76,2.02-3.28,2.01l-19.79-.13c-1.09,0-1.56-.93-1.45-1.63l15.07.06c2.51,0,5.06.48,7.93-.5-3.09-4.31-7.1-7.19-11.91-8.38-2.51-.62-5.02,1.54-6.6,2.59l-6.15,4.01.23-2.29c1.03-3.35,5.85-3.65,7.93-6.28,2.4-3.04,2.33-8.46,5.59-11.53l5.01,11.98,6.79,6.09c1.29,1.15,1.16,2.81.62,4ZM543.22,374.34l-.55-2.34c-.1-.4-1.32-.42-1.39,0-.27,1.56-.73,3.78-.14,4.69.99.59,2.27.04,2.24-.44l-.15-1.9Z"/>
      <path class="cls-6" d="M528.59,393.32c-.68,1.83-.78,3.7-.78,6.09l.09,70.35v8.78s21.55-.36,21.55-.36c1.41-.02,1.59-3.1,1.61-4.28l.61-56.67.37-18.67c.04-2.12-.52-3.85-1.86-5.29,1.02,0,3.91-.6,3.97.67l.75,14.47.37,59.18-.4,9.42c.3.35.09,2.08-.72,2.08l-27.07.15.03-73.78c-1.33-3.85-.88-9.04-.13-11.94l1.61-.21Z"/>
      <path class="cls-10" d="M534.58,382.51c.05,1.02.16,1.86.43,2.49.4.93,1.89.59,2.53.89,5.46,2.54,8.14.36,7.62,2.9l-15.07-.06c-.51.05-1.3-.17-1.66-.72-.23-.35-.05-.98,0-1.51l6.15-4.01Z"/>
      <path class="cls-7" d="M550.18,393.27c1.34,1.45,1.9,3.17,1.86,5.29l-.37,18.67-.61,56.67c-.01,1.18-.2,4.25-1.61,4.28l-21.54.36v-8.78c.73-.92,2.62-2.01,2.68-3.46l.53-11.6.42-19.92.16-23.57c-2.79-3.75-2.13-8.46-.02-12.5v-3.39c0-.82,3.67.03,4.38-.92.17-.23.15-.81.14-1.09l13.97-.05ZM544.5,437.58c-.39-9.46-.34-17.31.66-26.24.38-3.39-.19-9.06-3.93-10.21-3.02-.93-4.42,4.05-4.4,6.38l.16,18.22.51,11.37c.08,1.72,1.09,4.22,3.01,3.77,1.09-.26,3.49-2.15,3.99-3.29Z"/>
      <path class="cls-15" d="M536.21,393.32c.01.28.03.86-.14,1.09-.71.95-4.39.09-4.39.92v3.39c-2.09,4.04-2.76,8.75.03,12.5l-.16,23.57-.42,19.92-.53,11.6c-.07,1.46-1.96,2.54-2.69,3.46l-.09-70.35c0-2.39.09-4.26.78-6.09h7.62Z"/>
      <path class="cls-7" d="M545.16,388.8c.52-2.54-2.15-.36-7.62-2.9-.65-.3-2.13.03-2.53-.89-.27-.63-.38-1.47-.43-2.49,1.59-1.05,4.09-3.21,6.6-2.59,4.81,1.19,8.82,4.07,11.91,8.38-2.87.99-5.43.51-7.93.5Z"/>
      <path class="cls-11" d="M543.22,374.34l.15,1.9c.04.48-1.25,1.02-2.24.44-.59-.9-.13-3.13.14-4.69.07-.41,1.3-.4,1.39,0l.55,2.34Z"/>
      <path class="cls-3" d="M544.5,437.58c-.49,1.14-2.9,3.03-3.99,3.29-1.92.46-2.93-2.04-3.01-3.77l-.51-11.37-.16-18.22c-.02-2.33,1.38-7.31,4.4-6.38,3.74,1.15,4.31,6.82,3.93,10.21-.99,8.93-1.04,16.78-.66,26.24Z"/>
    </g>
    <path class="cls-3" d="M406.15,291.75l-.63-14.89-.47-47.03c-.02-1.7,1.27-2.63,2.12-3.03.96-.44,3.3-.17,3.3,1.52l-.09,61.66c0,1.41-.74,2.1-1.45,2.75-.51.47-2.73.25-2.78-.98Z"/>
    <path class="cls-13" d="M268.18,246.05c-1.4.51-2.84.3-4.2.26-.24-.18-.39-.39-.4-.41,1.6-.53,3.8-.59,4.59.15Z"/>
    <path class="cls-5" d="M366.59,257.31l-.13,16.43c-.52,1.7-1.53,2.15-3.44,2.12l-27.69-.47c-1.29-6.99-1.26-13.93-.37-20.92,1.23-9.68,9.79-16.91,19.7-14.52,6.82,1.64,11.98,9.53,11.94,17.36ZM337.26,257.36c-.76.03-1.44.61-1.45,1.73l-.06,8.53c-.01,1.75.37,5.98,2.18,6.63l26.55.2.08-20.63c0-1.16-.52-1.88-.9-2.71-1.79-3.94-6.27-8.37-11.14-9.03-1.73-.24-5.11.08-6.77.54-6.42,1.78-8.53,9.03-8.5,14.74Z"/>
    <path class="cls-7" d="M366.46,273.75l.13-16.43.37-4.97c.18.02.41.14.53.39l-.03,23.02c-.93-.33-1.06-1.25-1-2.01Z"/>
    <path class="cls-11" d="M360.59,348.13c.69,1.9,3.1,2.1,2.31,5.21.03.51-.01.83-.17,1.27-1.76-.53-4.78-.5-6.27-2.29-1.06-1.27.91-3.21,1.95-3.88.78.09,1.67-.21,2.18-.33Z"/>
    <path class="cls-3" d="M358.42,348.45c-1.05.67-3.02,2.61-1.95,3.88,1.49,1.78,4.52,1.76,6.27,2.29.71.83-.21,2.03-1.16.88-2.47-.12-5.27-.6-6.28-2.62-.72-1.46-.5-2.95.1-3.71.83-1.06,1.83-.85,3.02-.72Z"/>
    <path class="cls-3" d="M362.9,353.34c.79-3.12-1.62-3.32-2.31-5.21,2.45-.58,4.42,3.5,3.81,4.67-.2.39-.91.64-1.5.55Z"/>
    <g>
      <path class="cls-10" d="M253.11,398.59l.13,36.18-.16,34.66.77,11.39-.76-.04h-3.05s-1.48-.02-1.48-.02h-3.81s-14.26,0-14.26,0l-41.42-.02c-.14.02-.1-1.35.2-1.42l22.12-.12c.31-2.02,1.74-3.25,2.67-4.39.46-1.39-.95-1.72-1.63-1.25-5.61-1.89-12.84-2.62-18.67-2.79-3.29-.09-2.5-4.7-3.72-5.96-1.99-2.05-3.23-3.31-2.65-6.95.39-2.45-1.6-5.91,1-8.45,2.94,3.95,6.82,8.76,6.68,12.32-1.39.12-2.66.21-3.89,1.48,2.06,2.46,7.14,3.78,9.92,1.63.77-.59.79-3.26,3.04-2.09,4.06-.77,8.02.21,11.97,1.79,1.99-2.15,4.38-2.03,6.19-.75,2.22,1.81,3.34-.81,4.4-1.07,2.67-.66,4.06-2.12,5.7-4.14,2.97-3.64,4.91-6.71,4.24-11.91l-2.16-16.68c-1.01-7.82-13.27-17.37-15.39-16.89l-10.04,2.27c-2.66.6-3.26,1.55-5.06,2.62-2.66,1.58-5.47,2.17-7.29,5.66-3.45-4.44-1.35,2.51-3.96,3.53-1.66.65-3.61.32-5.22,1.87.62.77,2.25,2.18,2.13,3.43-.79,7.88.63,15.12-2.98,16.4.43-13.8-.82-27.19-.85-40.12.65-2.26,3.55-4.58,2.73-7.65l7.8-.7,8.43,2.48c8.77-.79,23.19-1.33,29.92.72,1.95.6,4.39,2.3,6.26,3.34,2.73,1.53,4.13,5.05,6.28,7.31-2.47,2.98-1.77,5.13-.6,8.16,1.56,4.02-.08,10.72.96,16.03l-1.93,4.58-.5,26.83c-.06,3.1-9.18,2.29-4.07,6.12,1.93,1.45,3.33,2.24,5.87.23-.09,1.22.03,2.58.66,2.82.97.37,2.82.42,3.58.06,1.15-.55.57-2.45.56-3.64l-.38-35.36c-.01-1.36-1.83-3-1.53-4.48l1.6-7.7.53-29.3,1.13-.05ZM230.57,416.69c0-.46-.38-.84-.84-.84s-.84.38-.84.84.38.84.84.84.84-.38.84-.84ZM227.81,475.98c-1.11-4.89-9.29-4.42-10.44-2.77-.43.62-.45,1.93.25,2.68.43.47,1.31,1.31,2.37,1.16l7.82-1.07ZM232.67,474.83c-.41-1.68-3.03-1.01-2.97-.17.11,1.51,3.18,1.04,2.97.17Z"/>
      <path class="cls-5" d="M200.48,388.61l29.28.34c.19-.2.53-.23.75-.23-.32.83-1.62,1.11-2.22,2.96l23.33.1c.75,0,2.53.84,2.54,1.63l-7.88-.09-19.57-.23-13.55.23c-2.47-1.16-5.79-1.02-8.38-.19l-2.08.04c-.28-.3-.83-.63-1.56-.63l-24.13.04v87.3c0,.64.48.9.75.87h.76s4.52,0,4.52,0h6.02s41.42.02,41.42.02c.24.37.11,1.49-.81,1.49h-53.37s-.33-64.81-.33-64.81c-.01-2.75-2.77-5.53.36-8.39l-.32-13.4c-.02-1.01-.74-3.75,1.05-3.76l50.58-.26-.07-1.1-26.32-.52c-2.07-.04-3.38-.06-5.52,0l-13.41.3c-.87.02-1.05-1.13-.82-1.44l15.28.06c.82,0,.86-2.44.62-2.93,1.35-.71,1.8,2.59,3.06,2.61Z"/>
      <path class="cls-5" d="M248.56,480.77c.21,1.46-.7,1.61-1.89,1.61s-2.1-.17-1.91-1.61h3.81Z"/>
      <path class="cls-5" d="M253.09,480.78c.22,1.35-.55,1.72-1.9,1.55-.89-.11-1.39-.41-1.15-1.54h3.05Z"/>
      <path class="cls-3" d="M202.71,393.17l2.08-.04,8.38.19,13.55-.23,19.57.23c-.09.27-.12.87.05,1.1.19.26.8.48,1.41.48l3.81-.05c.15.33.42.59.75.74h.76s0,.75,0,.75c-.55.39-1.07,1.61-1.09,2.32l-.53,29.3-1.6,7.7c-.31,1.47,1.51,3.12,1.53,4.48l.38,35.36c.01,1.19.59,3.09-.56,3.64-.75.36-2.61.31-3.58-.06-.63-.24-.75-1.61-.66-2.82-2.54,2.01-3.94,1.22-5.87-.23-5.1-3.83,4.01-3.02,4.07-6.12l.5-26.83,1.93-4.58c-1.04-5.31.59-12.01-.96-16.03-1.17-3.02-1.87-5.17.6-8.16-2.15-2.26-3.55-5.78-6.28-7.31-1.86-1.04-4.3-2.75-6.26-3.34-6.73-2.06-21.15-1.51-29.92-.72l-8.43-2.48-7.8.7c.83,3.07-2.08,5.39-2.73,7.65.03,12.93,1.28,26.32.85,40.12,3.61-1.27,2.19-8.52,2.98-16.4.13-1.26-1.5-2.66-2.13-3.43,1.61-1.55,3.56-1.22,5.22-1.87,2.61-1.02.51-7.97,3.96-3.53,1.82-3.49,4.63-4.08,7.29-5.66,1.8-1.07,2.4-2.02,5.06-2.62l10.04-2.27c2.11-.48,14.37,9.08,15.39,16.89l2.16,16.68c.68,5.21-1.27,8.27-4.24,11.91-1.64,2.01-3.02,3.47-5.7,4.14-1.06.26-2.18,2.88-4.4,1.07-1.81-1.28-4.2-1.4-6.19.75-3.95-1.59-7.91-2.57-11.97-1.79-2.24-1.17-2.27,1.5-3.04,2.09-2.78,2.15-7.86.83-9.92-1.63,1.22-1.27,2.5-1.36,3.89-1.48.13-3.56-3.74-8.37-6.68-12.32-2.6,2.54-.6,6-1,8.45-.58,3.64.66,4.9,2.65,6.95,1.22,1.25.43,5.86,3.72,5.96,5.83.17,13.06.9,18.67,2.79.68-.47,2.09-.15,1.63,1.25-.92,1.14-2.36,2.37-2.67,4.39l-22.12.12c-.3.07-.33,1.44-.2,1.42h-6.02c-.1-.67-.64-1.33-1.22-1.28l-1.9.16c-.35.03-1.25-.27-1.37.03s-.05,1-.02,1.09h-.76s.05-87.27.05-87.27l24.88-.31ZM201.66,427.98c-4.26,7.24-4.19,17.74-2.57,26.72l3.45.36,27.92.08.07-15.15c0-.61-.2-1.21-.47-1.4-.23-.17-.83-.13-1.08-.05l-1.3-7.81c-.97-5.84-6.54-9.83-11.91-10.2-5.98-.41-11.24,2.57-14.12,7.45Z"/>
      <path class="cls-3" d="M227.81,475.98l-7.82,1.07c-1.07.15-1.94-.69-2.37-1.16-.69-.75-.68-2.06-.25-2.68,1.15-1.65,9.33-2.12,10.44,2.77Z"/>
      <path class="cls-3" d="M232.67,474.83c.21.87-2.86,1.34-2.97-.17-.06-.84,2.56-1.51,2.97.17Z"/>
      <circle class="cls-3" cx="229.73" cy="416.69" r=".84"/>
      <path class="cls-14" d="M253.11,398.59l-1.13.05c.01-.7.54-1.92,1.09-2.32l.05,2.26Z"/>
      <path class="cls-14" d="M254.17,393.41c-.66.68-1.09,1.36-1.1,2.17h-.76c-.04-.34-.4-.75-.75-.74l-3.81.05c-.61,0-1.22-.22-1.41-.48-.17-.23-.13-.83-.05-1.1l7.88.09Z"/>
      <path class="cls-14" d="M202.71,393.17l-24.88.31-.05,87.27c-.27.03-.74-.23-.74-.87v-87.3s24.12-.04,24.12-.04c.73,0,1.28.33,1.56.63Z"/>
      <path class="cls-14" d="M213.17,393.32l-8.38-.19c2.59-.83,5.91-.97,8.38.19Z"/>
      <path class="cls-10" d="M183.06,480.75h-4.52c-.02-.09-.09-.8.02-1.09s1.02,0,1.37-.03l1.9-.16c.59-.05,1.12.61,1.22,1.29Z"/>
      <path class="cls-4" d="M228.97,440.05l-.02,2.26c-.19.24-.2.5-.06.77l.8,11.3-25.58-.03c-.8,0-1.3.33-1.56.72l-3.45-.36c-1.62-8.98-1.69-19.48,2.57-26.72l.85.06c.24,1.86-.63,3.32-1.5,5.07-1.65,3.31-1.1,7.04-.85,10.69.18,2.59-.81,5.37,1.79,7.44,2.75-3.52,5.2-6.8,8.47-9.43l13.36-10.73-1.25-4.33c-2.29.21-4.06-1.43-6.32-1.74-2.05-.28-4.19.22-5.01-1.87-.21-.46-.05-1.27.28-1.25l1.46.09c5.58-1.09,10.85,3,13.2,8.98,2.63,6.71.14,9.57,2.83,9.09Z"/>
      <path class="cls-5" d="M228.99,438.53l-.02,1.52c-2.69.48-.19-2.38-2.83-9.09-2.35-5.98-7.63-10.07-13.2-8.98l-1.46-.09c-.33-.02-.5.79-.28,1.25l-1.75.36c-1.93-.51-3.57.68-4.52,2.25-.05.19-.08.54-.04.74-.28-.07-.78-.07-1.07.11-.44.27-.57.95-.42,1.44h-.88s-.85-.05-.85-.05c2.88-4.89,8.14-7.87,14.12-7.45,5.37.37,10.93,4.36,11.91,10.2l1.3,7.81Z"/>
      <path class="cls-14" d="M202.54,455.06c.26-.39.76-.72,1.56-.72l25.58.03-.8-11.3.06-.77.02-2.26.02-1.52c.25-.08.85-.11,1.08.05.26.19.47.79.47,1.4l-.07,15.15-27.92-.08Z"/>
      <path class="cls-10" d="M252.31,395.58c-.34-.15-.6-.41-.75-.74.35,0,.71.4.75.74Z"/>
      <path class="cls-12" d="M211.2,423.14c.83,2.09,2.96,1.59,5.01,1.87,2.26.31,4.03,1.94,6.32,1.74l1.25,4.33-13.36,10.73c-3.27,2.63-5.73,5.91-8.47,9.43-2.6-2.07-1.61-4.85-1.79-7.44-.25-3.65-.79-7.38.85-10.69.87-1.74,1.74-3.21,1.5-5.07h.88c.27,0,.78.05,1.06-.13.42-.27.53-.94.43-1.42-.05-.2-.01-.55.04-.74,1.66-.34,4.02-.31,4.52-2.25l1.75-.36Z"/>
      <path class="cls-5" d="M228.89,443.08c-.14-.28-.13-.53.06-.77l-.06.77Z"/>
      <path class="cls-4" d="M209.44,423.49c-.5,1.94-2.85,1.91-4.52,2.25.95-1.57,2.59-2.76,4.52-2.25Z"/>
      <path class="cls-4" d="M204.89,426.49c.11.48,0,1.15-.43,1.42-.29.19-.79.13-1.06.13-.15-.49-.02-1.17.42-1.44.29-.18.78-.18,1.07-.11Z"/>
    </g>
    <path class="cls-12" d="M363.67,251.1c-8.53,5.82-16.13,12.54-23.33,20.25-2.37-1.89-3.02-4.61-3.04-7.67l-.04-6.33c-.03-5.71,2.08-12.97,8.5-14.74,1.66-.46,5.05-.78,6.77-.54,4.86.67,9.35,5.09,11.14,9.03Z"/>
    <path class="cls-4" d="M363.67,251.1c.37.82.9,1.55.9,2.71l-.08,20.63-26.55-.2c-1.81-.65-2.19-4.88-2.18-6.63l.06-8.53c0-1.12.69-1.7,1.45-1.73l.04,6.33c.02,3.06.66,5.77,3.04,7.67,7.2-7.71,14.8-14.43,23.33-20.25Z"/>
    <g>
      <path class="cls-10" d="M520.31,393.32l.75,1.51-9.54.03-57.31-.02-3.93,1.94.12,5.28c1.93,2.39,1.63,4.33,1.54,7.16l-.46,14.79c-.08,2.65-.99,4.67-.98,7.31.01,6.83-.96,13.62.14,20.48.23,1.45,1.5,2.61,1.09,4.89l-1.04,5.76c-.63,3.49-.78,6.18,1.84,9.47-2.16.41-3.54,1.26-3.8,2.42-.22.97,1.13,3.3,2.74,3.3l68.54.2-.6-11.71.07-12.57c0-.61.23-1.23.49-1.41.23-.16.83-.13,1.1-.04v27.16s-73.53,0-73.53,0l-.15-6.04.53-15.88.13-64.08c.18.12.55.06.76.06h71.51Z"/>
      <path class="cls-5" d="M447.38,473.22c-.34.29-1.63.15-1.6-.78l.41-12.42c.98-3.51,1.39-6,.73-9.66-.29-1.61.23-4.16.23-6.07l.02-44.13c0-2.48-1.12-5.02.88-6.9l-.13,64.08-.53,15.88Z"/>
      <path class="cls-14" d="M521.82,393.32c-.17,1.03-.2,2.4.76,3.01v3.02c-.29-.03-.76.24-.76.86v79.05s-.75,0-.75,0v-27.16s0-57.28,0-57.28l-.75-1.51h1.51Z"/>
      <path class="cls-1" d="M521.82,479.26v-79.05c0-.62.47-.9.75-.86v79.07c.01.73-.51.84-.75.84Z"/>
      <path class="cls-9" d="M511.53,394.85c-.2,1.28-.69,4.27.34,5.27,2.51,1.51,3.42,2.95,3.22,6.08l1.36,8.07c-.63,3.28-1.23,6.12.32,9.22l.04,18.74.79,8.3c.38,4.03,1.13,7.51-.37,11.54-.54,1.45,1,3.52,2.19,4.05l.6,11.71-68.54-.2c-1.62,0-2.96-2.34-2.74-3.3.26-1.16,1.64-2,3.8-2.42-2.62-3.29-2.47-5.98-1.84-9.47l1.04-5.76c.41-2.28-.86-3.44-1.09-4.89-1.1-6.86-.13-13.65-.14-20.48,0-2.63.9-4.66.98-7.31l.46-14.79c.09-2.83.39-4.77-1.54-7.16l-.12-5.28,3.93-1.94,57.31.02ZM477.86,423.22c-1.62,1.16-3.59,2-4.87,4.14-2.99,5-3.42,10.56-3.11,16.51.1,1.85-.57,3.97,1.15,4.98l.36,1.68c-1.27-.23-1.52.45-1.58,1.27-.06.92-.1,2.86.89,3.07,2.4.49,4.66.05,6.72,0l24.06.27.15-17.39c.01-1.66-.98-1.9-1.51-2.35-.86-6.46-4.44-12.78-10.77-14.49-4.15-1.12-8.36.1-11.5,2.33Z"/>
      <path class="cls-3" d="M521.07,394.83v57.28c-.27-.09-.86-.12-1.1.04-.25.17-.48.8-.49,1.41l-.07,12.57c-1.2-.53-2.73-2.6-2.19-4.05,1.5-4.03.75-7.51.37-11.54l-.79-8.3-.04-18.74c-1.55-3.11-.95-5.94-.32-9.22l-1.36-8.07c.2-3.13-.71-4.57-3.22-6.08-1.03-1-.54-3.99-.34-5.27l9.54-.03Z"/>
      <path class="cls-4" d="M500.12,435.38l-.13,2.41v15.81s-25.63.26-25.63.26c-1.1.01-2.55.48-3.24-.6-.39-.61-.02-1.96.27-2.75.68.12,1.39.39,2.47,1.04l21.25-22.24c-1.99-2.77-5.34-3.18-8.64-3l-5.36-1.32c-2.59.3-4.76,2.05-6.59,3.26.18-2.23,2.18-2.61,3.32-5.03,3.13-2.24,7.35-3.46,11.5-2.33,6.33,1.71,9.91,8.03,10.77,14.49Z"/>
      <path class="cls-12" d="M471.39,450.52l-.36-1.68c-1.37-6.51.71-11.87.35-14.82.6-.28.86-.93.81-1.59.24-.13.45-.45.62-.69.91.19,1.6-.38,1.62-1.09l.06-1.85.04-.55c1.83-1.21,4-2.96,6.59-3.26l5.36,1.32c3.3-.18,6.65.23,8.64,3l-21.25,22.24c-1.08-.64-1.8-.91-2.47-1.04Z"/>
      <path class="cls-1" d="M477.42,454.86c-2.06.05-4.32.49-6.72,0-.99-.2-.96-2.15-.89-3.07.06-.82.31-1.5,1.58-1.27-.29.79-.66,2.14-.27,2.75.69,1.07,2.14.61,3.24.6l25.62-.26v-15.81c.51.08.81.64.8,1.47l-.06,15.06-23.3.53Z"/>
      <path class="cls-14" d="M477.42,454.86l23.3-.53.06-15.06c0-.83-.3-1.39-.79-1.47l.13-2.41c.53.45,1.52.69,1.51,2.35l-.15,17.39-24.06-.27Z"/>
      <path class="cls-1" d="M477.86,423.22c-1.14,2.42-3.15,2.8-3.32,5.03l-.04.55c-1.37.25-1.87,1.66-1.68,2.94-.16.24-.37.55-.62.69-.58.32-.9.92-.81,1.59.36,2.95-1.72,8.31-.35,14.82-1.72-1.01-1.05-3.12-1.15-4.98-.31-5.95.12-11.51,3.11-16.51,1.27-2.13,3.25-2.98,4.87-4.14Z"/>
      <path class="cls-4" d="M472.81,431.74c-.19-1.28.31-2.7,1.68-2.94l-.06,1.85c-.02.71-.71,1.28-1.62,1.09Z"/>
      <path class="cls-4" d="M471.38,434.02c-.08-.67.23-1.27.81-1.59.05.66-.21,1.31-.81,1.59Z"/>
    </g>
    <g>
      <path class="cls-14" d="M319.27,393.26l15.17.34c-4.23.06-10.29,1.03-15.92,1.32-2.09,1.29-.9,5.34-.95,7.38l-.53,19.34c-.29.02-1.56.23-1.55,1.06l.43,29.08.5,27.24c-1.28.29-2.02.32-3.13.05v-85.75s5.98-.07,5.98-.07Z"/>
      <path class="cls-13" d="M317.04,421.66l.42,32.37.46,25.1,63.38.22c2.7,0,4.92.22,7.25-1.71.09.66.23,1.43-.21,2.38l-76.56.08.3-70.09.36-16.67h.86s-.01,85.76-.01,85.76c1.11.27,1.85.24,3.13-.05l-.5-27.24-.43-29.08c-.01-.83,1.26-1.04,1.55-1.06Z"/>
      <path class="cls-14" d="M385.88,393.32h2.67s-.75,62.55-.75,62.55c0,.85.32,1.32.66,1.82l.09,19.94c-2.33,1.92-4.55,1.72-7.25,1.71-.07-1.35,2.07-1.69,3.09-2.13,1.21-2.67-.44-6.57.16-9.53l2.14-1.72-.84-2.66-.25-59.12c2.43-3.14,1.11-7.18-1.18-9.64l-11.75.34c-.59.02-1.18-.19-1.38-.46-.17-.23-.13-.83.26-1.09h14.32Z"/>
      <path class="cls-1" d="M388.46,457.69c-.34-.51-.66-.97-.66-1.82l.75-62.55-.09,64.38Z"/>
      <path class="cls-1" d="M312.08,409.99l-.28-15.88c0-.52.43-.83.64-.78l-.36,16.67Z"/>
      <path class="cls-9" d="M351.68,393.34c.08.48.65.77,1.46.77h10.65c.8,0,1.37-.29,1.45-.79h6.32c-.39.26-.43.87-.26,1.1.2.28.79.48,1.38.46l11.75-.34c2.29,2.47,3.6,6.5,1.18,9.64l.25,59.12.84,2.66-2.14,1.72c-.6,2.96,1.05,6.85-.16,9.53-1.02.44-3.16.78-3.09,2.13l-63.38-.22-.46-25.1-.42-32.37.53-19.34c.06-2.04-1.14-6.1.95-7.38,5.63-.29,11.69-1.26,15.92-1.32l17.24-.26ZM353.14,458.44c3.57-.78,6.34-2.38,9.9-1.81,1.49.24,2.82-.42,3.57-1.21.82-.87.91-1.89.89-3.27l-.2-10.53c-.05-2.43.25-4.05-1.15-6.33-.64-1.04.25-4.29-.64-5.17-2.08-2.07-3.1-3.27-2.46-6.55-2.41.52-2.65-1.88-3.66-2.51-4.15-2.58-10.23-3.58-14.87-1.49-2.69,1.21-5.1,4-7.17,6.03-3.38,3.33-5.16,7.44-4.33,12.32l-3.42,1.55c2.77,2.17.95,5.34,2.88,12.02.96,3.35,1.95,4.92,5.53,5.58,1.51.28,3.13,1.87,5.46,1.19,2.96-.86,6.67.83,9.67.17Z"/>
      <path class="cls-14" d="M365.24,393.32c-.08.5-.65.79-1.45.79h-10.65c-.81,0-1.37-.29-1.46-.77l13.56-.02Z"/>
      <path class="cls-10" d="M353.14,458.44c-3,.65-6.7-1.03-9.67-.17-2.33.68-3.95-.91-5.46-1.19-3.57-.66-4.56-2.23-5.53-5.58-1.92-6.68-.11-9.85-2.88-12.02l3.42-1.55c-.82-4.88.95-8.99,4.33-12.32,2.07-2.04,4.48-4.83,7.17-6.03,4.64-2.08,10.72-1.08,14.87,1.49,1.01.63,1.25,3.03,3.66,2.51-.63,3.27.38,4.47,2.46,6.55.88.88,0,4.13.64,5.17,1.39,2.28,1.1,3.9,1.15,6.33l.2,10.53c.03,1.38-.07,2.4-.89,3.27-.74.79-2.08,1.45-3.57,1.21-3.56-.57-6.33,1.03-9.9,1.81ZM365.94,454.47l-.55-14.46c-.26-6.84-2.08-14.42-8.59-17.99-7.61-4.18-18.23.78-20.64,9.14-2.29,7.93-1.81,15.9-1.31,23.96,10.95-.56,20.68-.9,31.08-.64Z"/>
      <path class="cls-4" d="M365.94,454.47c-10.4-.26-20.13.08-31.08.64-.5-8.06-.98-16.03,1.31-23.96,2.41-8.36,13.03-13.31,20.64-9.14,6.51,3.57,8.33,11.16,8.59,17.99l.55,14.46ZM350.09,440.3l9.6-9.72c1.26-1.27-1.32-3.55-2.39-4.27s-3.59.13-4.77-.18c-3.42-.89-8.78-1.24-9.18-.99-1.11.68-5.77,7.69-5.77,9.76v17.59c.56-1.85,1.95-2.53,3.24-3.7l9.28-8.49Z"/>
      <path class="cls-12" d="M350.09,440.3l-9.28,8.49c-1.28,1.17-2.68,1.86-3.25,3.7v-17.59c.01-2.07,4.68-9.08,5.78-9.76.4-.25,5.76.1,9.18.99,1.18.31,3.68-.56,4.77.18s3.65,3,2.39,4.27l-9.6,9.72Z"/>
    </g>
    <g>
      <path class="cls-5" d="M173.25,385.85c0,3.97-2.91,2.73-1.96,5.95l-1.88.15-17.32-.17-.63.05c0-.67-.54-.86-1.14-.83-.53.02-1.07.13-1.14.79l-1.04.08-1.94-.11c-.28-1.09-1.13-1.95-1.69-2.9l4.81-.23,22.31.11c-2.19-2.95-4.92-4.23-7.28-6.26-1.37-1.18-3.29-3.28-5.38-2.72l-5.2,1.41c-2.04.55-4.25.8-4.69,3.08l-.09.44c-1.52.74-3.19,1.68-3.52,3.44l-1.1.13-1.25-.1c1.14-4.19,5.33-6.08,8.31-9.23,2.99-3.17,3.57-8.61,4.61-12.29,1.54-.7,1.89,1.13,2.14,1.68l3.86,8.5,11.22,9.03Z"/>
      <path class="cls-1" d="M146.19,391.76l-.37,30.58-.31,49.3.68,9.68,23.37.24c.81,0,1.38-.3,1.45-.78h.76c.24,0,.76-.09.76-.87v-87.05s-3.12-.91-3.12-.91l1.88-.15c.5-.02,1.06-.18,1.98.24v90.24s-27.74-.3-27.74-.3c-2.38-.03-2.52-4.18-2.36-5.71-.16.13,1.47.1,1.47-.28l.04-79.65c0-1.32-.31-2.82.22-4.33.14-.41,1.02-.26,1.29-.24Z"/>
      <path class="cls-5" d="M144.67,396.33l-.04,79.65c0,.38-1.63.41-1.47.28v-79.68c0-.37,1.65-.4,1.5-.25Z"/>
      <path class="cls-1" d="M149.31,388.63l-4.81.23c-.09-.16-.11-.42-.13-.6l1.1-.13c1.31-.15,2.69-.2,3.85.49Z"/>
      <path class="cls-10" d="M164.34,382.47c.16,1.86-1.35,2.19-2.6,3.03-4.27,2.85-11.46,2.03-12.12,1.71s-.78-1.85-.63-2.52l.09-.44c1.73-.68,3.71-1.32,4.69-3.08l5.2-1.41c2.09-.57,4.01,1.54,5.38,2.72Z"/>
      <path class="cls-7" d="M149.31,388.63c-1.16-.7-2.54-.64-3.85-.49.33-1.77,2-2.7,3.52-3.44-.14.67,0,2.21.63,2.52s7.85,1.14,12.12-1.71c1.25-.83,2.77-1.16,2.6-3.03,2.37,2.03,5.09,3.32,7.28,6.26l-22.31-.11Z"/>
      <path class="cls-1" d="M153.76,381.16c-.98,1.76-2.96,2.4-4.69,3.08.44-2.28,2.65-2.53,4.69-3.08Z"/>
      <path class="cls-10" d="M169.41,391.95l3.11.91v87.05c.01.77-.52.86-.75.86.24-2.01.04-4.2-2.21-5.37-2.94,2.13-6.28,2.25-9.23-.09-4,1.39-7.71-.19-9.02-4.04,1.86-2.13,1.99-4.56.42-6.77-.34-2.85-1.08-6.21.17-9.09.67-1.54,2.78-3.03,1.37-5.14-3.01-4.49,2.85-8.51-3.51-13.07-2.81-2.02,2.95-6.27,1.1-10.81-1.55-3.81-.67-7.36-.72-11.04-.03-2.39-1.47-3.88.2-6.72l.47-8.49c1.08-3.02,2.04-5.31,1.27-8.36l17.32.17Z"/>
      <path class="cls-7" d="M151.45,391.83l.63-.05c.77,3.05-.19,5.34-1.27,8.36l-.47,8.49c-1.67,2.84-.23,4.33-.2,6.72.05,3.68-.84,7.23.72,11.04,1.85,4.54-3.91,8.8-1.1,10.81,6.36,4.56.5,8.57,3.51,13.07,1.41,2.1-.69,3.6-1.37,5.14-1.26,2.88-.52,6.24-.17,9.09,1.57,2.21,1.44,4.64-.42,6.77,1.31,3.85,5.02,5.43,9.02,4.04,2.95,2.35,6.29,2.22,9.23.09,2.25,1.17,2.45,3.36,2.21,5.37h-.76s-11.51-.37-11.51-.37c-3.89-.13-7.83,1.18-11.68-1.64l.1-24.33c.03-6.31.25-12.11.17-18.42l-.5-36.62c-.04-2.78.04-5.16.56-7.51l1.04-.08,2.28.04Z"/>
      <path class="cls-6" d="M148.13,391.87c-.51,2.35-.6,4.73-.56,7.51l.5,36.62c.09,6.31-.14,12.12-.17,18.42l-.1,24.33c3.85,2.81,7.79,1.51,11.68,1.64l11.51.38c-.06.48-.64.79-1.45.78l-23.37-.24-.68-9.68.31-49.3.37-30.58,1.94.11Z"/>
      <path class="cls-1" d="M151.45,391.83l-2.28-.04c.07-.66.61-.77,1.14-.79.6-.03,1.14.16,1.14.83Z"/>
    </g>
  </g>
</svg>