<?xml version="1.0" encoding="UTF-8"?>
<svg id="Layer_1" data-name="Layer 1" xmlns="http://www.w3.org/2000/svg" viewBox="0 0 166.66 196.33">
  <defs>
    <style>
      .cls-1 {
        fill: #f2003c;
      }

      .cls-2 {
        fill: #b11116;
      }
    </style>
  </defs>
  <path class="cls-1" d="m55.07,31.86L0,0v31.03l55.93,32.37v87.4l-29.1-16.84v-32.37L0,86.09v63.41l80.96,46.83V46.7l-25.87-14.83h-.03Zm16.73,146.47l-60.82-35.19v-28.06l-3.02-1.74v-13.95l10.63,6.13v13.95l-2.73-1.58v22.39l51.04,29.56V57.06L18.6,29.11v4.15l-10.63-6.16v-13.95l10.63,6.13v4.18l31,17.91,22.2,12.75v124.22Z"/>
  <path class="cls-2" d="m166.66,63.41V0l-55.07,32.11-25.89,14.62v149.6l80.96-46.83v-63.41l-26.83,15.53v32.37l-29.1,16.84V63.41l29.1-16.84v32.37l26.83-15.53Zm-66.88-6.35v112.81l51.04-29.56v-21.15l-2.99,1.74v-13.98l10.63-6.13v13.95l-2.75,1.58v26.83l-60.82,35.19V54.17l22.23-12.61,38.58-22.47v27.98l2.75-1.58v13.95l-10.63,6.16v-13.95l2.99-1.74v-22.41l-51.04,29.54v.03Z"/>
</svg>