<svg width="28" height="28" viewBox="0 0 28 28" fill="none" xmlns="http://www.w3.org/2000/svg">
<path d="M14.5833 24.024V21.5833C14.5833 21.4286 14.5219 21.2803 14.4125 21.1709C14.3031 21.0615 14.1547 21 14 21C13.8453 21 13.6969 21.0615 13.5875 21.1709C13.4781 21.2803 13.4167 21.4286 13.4167 21.5833V24.024C13.0275 24.1616 12.6994 24.4324 12.4906 24.7884C12.2817 25.1445 12.2054 25.563 12.2752 25.9698C12.345 26.3767 12.5564 26.7458 12.872 27.0119C13.1877 27.278 13.5872 27.4239 14 27.4239C14.4128 27.4239 14.8123 27.278 15.128 27.0119C15.4436 26.7458 15.655 26.3767 15.7248 25.9698C15.7946 25.563 15.7183 25.1445 15.5095 24.7884C15.3006 24.4324 14.9725 24.1616 14.5833 24.024ZM14 26.25C13.8846 26.25 13.7718 26.2158 13.6759 26.1517C13.58 26.0876 13.5052 25.9965 13.4611 25.8899C13.4169 25.7833 13.4054 25.666 13.4279 25.5529C13.4504 25.4397 13.5059 25.3358 13.5875 25.2542C13.6691 25.1726 13.773 25.117 13.8862 25.0945C13.9994 25.072 14.1166 25.0836 14.2232 25.1277C14.3298 25.1719 14.4209 25.2467 14.485 25.3426C14.5491 25.4385 14.5833 25.5513 14.5833 25.6667C14.5833 25.8214 14.5219 25.9697 14.4125 26.0791C14.3031 26.1885 14.1547 26.25 14 26.25Z" fill="url(#paint0_linear_334_8433)"/>
<path d="M26.25 2.91663H1.75V19.8333H26.25V2.91663Z" fill="url(#paint1_linear_334_8433)"/>
<path d="M26.25 16.3333H1.75V19.8333H26.25V16.3333Z" fill="url(#paint2_linear_334_8433)"/>
<path d="M2.33341 1.16663H25.6667C25.9762 1.16663 26.2729 1.28954 26.4917 1.50833C26.7105 1.72713 26.8334 2.02387 26.8334 2.33329V2.91663C26.8334 3.07134 26.772 3.21971 26.6626 3.3291C26.5532 3.4385 26.4048 3.49996 26.2501 3.49996H1.75008C1.59537 3.49996 1.447 3.4385 1.3376 3.3291C1.22821 3.21971 1.16675 3.07134 1.16675 2.91663V2.33329C1.16675 2.02387 1.28966 1.72713 1.50846 1.50833C1.72725 1.28954 2.024 1.16663 2.33341 1.16663Z" fill="url(#paint3_linear_334_8433)"/>
<path d="M26.2501 3.49992H1.75008C1.59537 3.49992 1.447 3.43846 1.3376 3.32906C1.22821 3.21967 1.16675 3.07129 1.16675 2.91659V2.33325H26.8334V2.91659C26.8334 3.07129 26.772 3.21967 26.6626 3.32906C26.5532 3.43846 26.4048 3.49992 26.2501 3.49992Z" fill="url(#paint4_linear_334_8433)"/>
<path d="M1.75008 19.25H26.2501C26.4048 19.25 26.5532 19.3115 26.6626 19.4209C26.772 19.5303 26.8334 19.6786 26.8334 19.8333V20.4167C26.8334 20.7261 26.7105 21.0228 26.4917 21.2416C26.2729 21.4604 25.9762 21.5833 25.6667 21.5833H2.33341C2.024 21.5833 1.72725 21.4604 1.50846 21.2416C1.28966 21.0228 1.16675 20.7261 1.16675 20.4167V19.8333C1.16675 19.6786 1.22821 19.5303 1.3376 19.4209C1.447 19.3115 1.59537 19.25 1.75008 19.25Z" fill="url(#paint5_linear_334_8433)"/>
<path d="M25.6667 21.5833H2.33341C2.024 21.5833 1.72725 21.4603 1.50846 21.2415C1.28966 21.0228 1.16675 20.726 1.16675 20.4166V19.8333H26.8334V20.4166C26.8334 20.726 26.7105 21.0228 26.4917 21.2415C26.2729 21.4603 25.9762 21.5833 25.6667 21.5833Z" fill="url(#paint6_linear_334_8433)"/>
<path d="M20.4167 8.16663H18.0833C17.9286 8.16663 17.7803 8.22808 17.6709 8.33748C17.5615 8.44688 17.5 8.59525 17.5 8.74996C17.5 8.90467 17.5615 9.05304 17.6709 9.16244C17.7803 9.27183 17.9286 9.33329 18.0833 9.33329H19.8333V10.5H18.0833C17.9286 10.5 17.7803 10.5614 17.6709 10.6708C17.5615 10.7802 17.5 10.9286 17.5 11.0833C17.5 11.238 17.5615 11.3864 17.6709 11.4958C17.7803 11.6052 17.9286 11.6666 18.0833 11.6666H19.8333V12.8333H18.0833C17.9286 12.8333 17.7803 12.8948 17.6709 13.0041C17.5615 13.1135 17.5 13.2619 17.5 13.4166C17.5 13.5713 17.5615 13.7197 17.6709 13.8291C17.7803 13.9385 17.9286 14 18.0833 14H20.4167C20.5714 14 20.7197 13.9385 20.8291 13.8291C20.9385 13.7197 21 13.5713 21 13.4166V8.74996C21 8.59525 20.9385 8.44688 20.8291 8.33748C20.7197 8.22808 20.5714 8.16663 20.4167 8.16663Z" fill="url(#paint7_linear_334_8433)"/>
<path d="M9.91667 12.8333H9.33333V8.74996C9.33331 8.6346 9.29908 8.52185 9.23498 8.42594C9.17089 8.33003 9.07979 8.25529 8.97321 8.21114C8.86664 8.167 8.74937 8.15545 8.63623 8.17795C8.52309 8.20045 8.41916 8.25598 8.33758 8.33754L7.17092 9.50421C7.06466 9.61422 7.00586 9.76158 7.00719 9.91452C7.00852 10.0675 7.06987 10.2138 7.17802 10.3219C7.28618 10.4301 7.43248 10.4914 7.58543 10.4928C7.73838 10.4941 7.88573 10.4353 7.99575 10.329L8.16667 10.1581V12.8333H7.58333C7.42862 12.8333 7.28025 12.8947 7.17085 13.0041C7.06146 13.1135 7 13.2619 7 13.4166C7 13.5713 7.06146 13.7197 7.17085 13.8291C7.28025 13.9385 7.42862 14 7.58333 14H9.91667C10.0714 14 10.2197 13.9385 10.3291 13.8291C10.4385 13.7197 10.5 13.5713 10.5 13.4166C10.5 13.2619 10.4385 13.1135 10.3291 13.0041C10.2197 12.8947 10.0714 12.8333 9.91667 12.8333Z" fill="url(#paint8_linear_334_8433)"/>
<path d="M15.7501 10.5H14.5834V9.33333C14.5834 9.17862 14.522 9.03025 14.4126 8.92085C14.3032 8.81146 14.1548 8.75 14.0001 8.75C13.8454 8.75 13.697 8.81146 13.5876 8.92085C13.4782 9.03025 13.4167 9.17862 13.4167 9.33333V10.5H12.2501C12.0954 10.5 11.947 10.5615 11.8376 10.6709C11.7282 10.7803 11.6667 10.9286 11.6667 11.0833C11.6667 11.238 11.7282 11.3864 11.8376 11.4958C11.947 11.6052 12.0954 11.6667 12.2501 11.6667H13.4167V12.8333C13.4167 12.988 13.4782 13.1364 13.5876 13.2458C13.697 13.3552 13.8454 13.4167 14.0001 13.4167C14.1548 13.4167 14.3032 13.3552 14.4126 13.2458C14.522 13.1364 14.5834 12.988 14.5834 12.8333V11.6667H15.7501C15.9048 11.6667 16.0532 11.6052 16.1626 11.4958C16.272 11.3864 16.3334 11.238 16.3334 11.0833C16.3334 10.9286 16.272 10.7803 16.1626 10.6709C16.0532 10.5615 15.9048 10.5 15.7501 10.5Z" fill="url(#paint9_linear_334_8433)"/>
<defs>
<linearGradient id="paint0_linear_334_8433" x1="14" y1="21.875" x2="14" y2="26.5936" gradientUnits="userSpaceOnUse">
<stop stop-color="#3F4C56"/>
<stop offset="1" stop-color="#27333E"/>
</linearGradient>
<linearGradient id="paint1_linear_334_8433" x1="14" y1="3.22988" x2="14" y2="19.6297" gradientUnits="userSpaceOnUse">
<stop stop-color="#EAECF7"/>
<stop offset="1" stop-color="#CDD3F1"/>
</linearGradient>
<linearGradient id="paint2_linear_334_8433" x1="14" y1="16.7264" x2="14" y2="19.2138" gradientUnits="userSpaceOnUse">
<stop stop-color="#E2E5F4" stop-opacity="0"/>
<stop offset="1" stop-color="#9AA6E2"/>
</linearGradient>
<linearGradient id="paint3_linear_334_8433" x1="14.0001" y1="1.34921" x2="14.0001" y2="3.35704" gradientUnits="userSpaceOnUse">
<stop stop-color="#FFCA4F"/>
<stop offset="1" stop-color="#F7AE30"/>
</linearGradient>
<linearGradient id="paint4_linear_334_8433" x1="14.0001" y1="2.42425" x2="14.0001" y2="3.336" gradientUnits="userSpaceOnUse">
<stop stop-color="#FFCA4F" stop-opacity="0"/>
<stop offset="1" stop-color="#F4901F"/>
</linearGradient>
<linearGradient id="paint5_linear_334_8433" x1="8.13797e-05" y1="19.4326" x2="14.0001" y2="21.4742" gradientUnits="userSpaceOnUse">
<stop stop-color="#FFCA4F"/>
<stop offset="1" stop-color="#F7AE30"/>
</linearGradient>
<linearGradient id="paint6_linear_334_8433" x1="8.14541e-05" y1="19.9155" x2="14.0001" y2="21.2916" gradientUnits="userSpaceOnUse">
<stop stop-color="#FFCA4F" stop-opacity="0"/>
<stop offset="1" stop-color="#F4901F"/>
</linearGradient>
<linearGradient id="paint7_linear_334_8433" x1="19.25" y1="8.23954" x2="19.25" y2="13.8798" gradientUnits="userSpaceOnUse">
<stop stop-color="#36DB39"/>
<stop offset="1" stop-color="#20B823"/>
</linearGradient>
<linearGradient id="paint8_linear_334_8433" x1="8.75" y1="8.36087" x2="8.75" y2="13.7095" gradientUnits="userSpaceOnUse">
<stop stop-color="#FF4343"/>
<stop offset="1" stop-color="#E40000"/>
</linearGradient>
<linearGradient id="paint9_linear_334_8433" x1="14.0001" y1="8.89583" x2="14.0001" y2="13.1985" gradientUnits="userSpaceOnUse">
<stop stop-color="#14A5FF"/>
<stop offset="1" stop-color="#037CFF"/>
</linearGradient>
</defs>
</svg>
