<svg width="28" height="28" viewBox="0 0 28 28" fill="none" xmlns="http://www.w3.org/2000/svg">
<path d="M20.9999 24.5H6.99992C6.6905 24.5 6.39375 24.3771 6.17496 24.1583C5.95617 23.9395 5.83325 23.6428 5.83325 23.3334V5.83337H17.4999V7.58337H22.1666V23.3334C22.1666 23.6428 22.0437 23.9395 21.8249 24.1583C21.6061 24.3771 21.3093 24.5 20.9999 24.5Z" fill="url(#paint0_linear_334_8395)"/>
<path d="M20.4166 5.83337C20.4166 5.36925 20.601 4.92413 20.9291 4.59594C21.2573 4.26775 21.7025 4.08337 22.1666 4.08337H7.58325C7.11912 4.08337 6.674 4.26775 6.34581 4.59594C6.01763 4.92413 5.83325 5.36925 5.83325 5.83337C5.83325 6.2975 6.01763 6.74262 6.34581 7.07081C6.674 7.399 7.11912 7.58337 7.58325 7.58337H22.1666C21.7025 7.58337 21.2573 7.399 20.9291 7.07081C20.601 6.74262 20.4166 6.2975 20.4166 5.83337Z" fill="url(#paint1_linear_334_8395)"/>
<path d="M5.83325 16.3334V23.3334C5.83325 23.6428 5.95617 23.9395 6.17496 24.1583C6.39375 24.3771 6.6905 24.5 6.99992 24.5H20.9999C21.3093 24.5 21.6061 24.3771 21.8249 24.1583C22.0437 23.9395 22.1666 23.6428 22.1666 23.3334V16.3334H5.83325Z" fill="url(#paint2_linear_334_8395)"/>
<path d="M20.4165 5.83333C20.4186 5.63417 20.4549 5.43684 20.5239 5.25H5.94055C5.84331 5.51334 5.81149 5.79636 5.84784 6.07472C5.88419 6.35308 5.98761 6.61845 6.14921 6.84799C6.31081 7.07754 6.52575 7.26439 6.77554 7.39248C7.02534 7.52057 7.30251 7.58607 7.58322 7.58333H22.1665C21.7024 7.58333 21.2573 7.39896 20.9291 7.07077C20.6009 6.74258 20.4165 6.29746 20.4165 5.83333Z" fill="url(#paint3_linear_334_8395)"/>
<defs>
<linearGradient id="paint0_linear_334_8395" x1="13.9999" y1="6.80579" x2="13.9999" y2="24.556" gradientUnits="userSpaceOnUse">
<stop stop-color="#FF4343"/>
<stop offset="1" stop-color="#E40000"/>
</linearGradient>
<linearGradient id="paint1_linear_334_8395" x1="13.9999" y1="4.18079" x2="13.9999" y2="7.65396" gradientUnits="userSpaceOnUse">
<stop stop-color="#EAECF7"/>
<stop offset="1" stop-color="#CDD3F1"/>
</linearGradient>
<linearGradient id="paint2_linear_334_8395" x1="13.9999" y1="18.6183" x2="13.9999" y2="26.3842" gradientUnits="userSpaceOnUse">
<stop stop-color="#FF4343" stop-opacity="0"/>
<stop offset="1" stop-color="#AF0000"/>
</linearGradient>
<linearGradient id="paint3_linear_334_8395" x1="13.9999" y1="5.65483" x2="13.9999" y2="8.337" gradientUnits="userSpaceOnUse">
<stop stop-color="#E2E5F4" stop-opacity="0"/>
<stop offset="1" stop-color="#9AA6E2"/>
</linearGradient>
</defs>
</svg>
