<?xml version="1.0" encoding="UTF-8"?>
<svg id="Layer_1" data-name="Layer 1" xmlns="http://www.w3.org/2000/svg" xmlns:xlink="http://www.w3.org/1999/xlink" viewBox="0 0 52 52">
  <defs>
    <style>
      .cls-1 {
        fill: #fff;
      }

      .cls-2 {
        fill: url(#radial-gradient);
      }
    </style>
    <radialGradient id="radial-gradient" cx="3.28" cy="3.69" fx="3.28" fy="3.69" r="60.81" gradientUnits="userSpaceOnUse">
      <stop offset="0" stop-color="#ff6800"/>
      <stop offset="1" stop-color="#9a0e00"/>
    </radialGradient>
  </defs>
  <rect class="cls-2" x="0" y="0" width="52" height="52" rx="12.32" ry="12.32"/>
  <path class="cls-1" d="M27.64,39.56c-.83,1.04-2.44,1.04-3.26.01-1.82-2.27-3.5-4.59-5.08-7.03-1.42-2.18-3.02-4.96-3.78-7.41-.22-.72-.41-1.45-.44-2.16-.21-6.21,4.78-11.28,10.9-11.3s11.13,5.03,10.96,11.24c-.08,2.83-2.65,7.22-4.29,9.74s-3.2,4.66-5,6.91ZM31.31,21.98c0-2.93-2.38-5.31-5.31-5.31s-5.31,2.38-5.31,5.31,2.38,5.31,5.31,5.31,5.31-2.38,5.31-5.31Z"/>
</svg>