<svg width="24" height="24" viewBox="0 0 24 24" fill="none" xmlns="http://www.w3.org/2000/svg">
<path d="M15.4521 11.6246L11.1221 14.1246L16.1018 22.75C16.1489 22.8316 16.218 22.8982 16.3013 22.9422C16.3846 22.9862 16.4786 23.0057 16.5725 22.9986C16.6665 22.9915 16.7565 22.958 16.8322 22.902C16.9079 22.846 16.9662 22.7697 17.0005 22.682L17.787 20.6689L19.9236 20.9943C20.0167 21.0085 20.112 20.9961 20.1983 20.9585C20.2847 20.921 20.3587 20.8598 20.4118 20.782C20.4649 20.7042 20.495 20.613 20.4986 20.5189C20.5021 20.4248 20.479 20.3316 20.4319 20.25L15.4521 11.6246Z" fill="#4AC6B7"/>
<path d="M18.9317 20.25C18.9798 20.3333 19.1525 20.5832 19.3807 20.9117L19.9234 20.9943C20.0165 21.0085 20.1117 20.9961 20.1981 20.9586C20.2845 20.921 20.3585 20.8598 20.4116 20.782C20.4647 20.7042 20.4948 20.613 20.4983 20.5189C20.5019 20.4248 20.4788 20.3316 20.4317 20.25L15.4517 11.6246L14.3267 12.2741L18.9317 20.25Z" fill="#37B7A4"/>
<path d="M8.54781 11.6246L12.8778 14.1246L7.89811 22.75C7.85102 22.8316 7.78185 22.8982 7.69856 22.9422C7.61528 22.9862 7.52126 23.0057 7.42734 22.9986C7.33342 22.9915 7.24342 22.958 7.16771 22.902C7.09199 22.846 7.03364 22.7697 6.99936 22.682L6.21286 20.6689L4.07626 20.9943C3.98315 21.0085 3.88793 20.9961 3.80156 20.9585C3.71519 20.921 3.64119 20.8598 3.58808 20.782C3.53496 20.7042 3.50489 20.613 3.50133 20.5189C3.49778 20.4248 3.52087 20.3316 3.56796 20.25L8.54781 11.6246Z" fill="#4AC6B7"/>
<path d="M8.5482 11.6246L8.1732 12.2741L11.3782 14.1246L6.77295 22.1014L6.99975 22.682C7.03403 22.7697 7.09238 22.846 7.1681 22.902C7.24382 22.958 7.33382 22.9915 7.42774 22.9986C7.52166 23.0057 7.61567 22.9861 7.69896 22.9422C7.78225 22.8982 7.85141 22.8316 7.8985 22.75L12.8785 14.1246L8.5482 11.6246Z" fill="#37B7A4"/>
<path d="M20.5 9.50003C20.5 10.1419 19.8404 10.6993 19.7069 11.3C19.5691 11.92 19.9236 12.7141 19.6597 13.2735C19.3915 13.8421 18.5607 14.0521 18.1794 14.5405C17.7962 15.0312 17.7794 15.9055 17.2997 16.2976C16.8222 16.6876 15.9855 16.5109 15.4297 16.7852C14.8828 17.0552 14.4978 17.8368 13.8917 17.9777C13.3046 18.1142 12.6275 17.5838 12 17.5838C11.3725 17.5838 10.695 18.1142 10.108 17.9776C9.5018 17.8367 9.11685 17.0548 8.56995 16.7849C8.01405 16.5106 7.1773 16.6871 6.69995 16.2971C6.21995 15.9052 6.2035 15.0307 5.82035 14.54C5.4391 14.0516 4.6084 13.8416 4.34035 13.2731C4.0765 12.7137 4.43105 11.9197 4.29325 11.2997C4.15955 10.6991 3.5 10.1418 3.5 9.50003C3.5 8.85828 4.15955 8.30073 4.29305 7.70003C4.43085 7.08003 4.0764 6.28593 4.3403 5.72653C4.6085 5.15798 5.4393 4.94798 5.8206 4.45958C6.20375 3.96883 6.2206 3.09458 6.7003 2.70248C7.1778 2.31248 8.01445 2.48913 8.5703 2.21488C9.1172 1.94488 9.50215 1.16323 10.1083 1.02233C10.6954 0.885832 11.3725 1.41628 12 1.41628C12.6275 1.41628 13.305 0.885882 13.892 1.02243C14.4982 1.16353 14.8832 1.94533 15.43 2.21503C15.9859 2.48938 16.8226 2.31288 17.3 2.70283C17.78 3.09473 17.7964 3.96923 18.1796 4.45998C18.5609 4.94833 19.3915 5.15833 19.6596 5.72688C19.9234 6.28623 19.5689 7.08028 19.7067 7.70023C19.8405 8.30093 20.5 8.85828 20.5 9.50003Z" fill="#FFBC5A"/>
<path d="M12 15C15.0376 15 17.5 12.5376 17.5 9.5C17.5 6.46243 15.0376 4 12 4C8.96243 4 6.5 6.46243 6.5 9.5C6.5 12.5376 8.96243 15 12 15Z" fill="#D3DBEF"/>
<path d="M12 4C11.8312 4 11.665 4.01035 11.5 4.025C12.8668 4.14849 14.1379 4.77872 15.0636 5.79183C15.9893 6.80494 16.5026 8.12766 16.5026 9.5C16.5026 10.8723 15.9893 12.1951 15.0636 13.2082C14.1379 14.2213 12.8668 14.8515 11.5 14.975C11.665 14.99 11.8312 15 12 15C13.4587 15 14.8576 14.4205 15.8891 13.3891C16.9205 12.3576 17.5 10.9587 17.5 9.5C17.5 8.04131 16.9205 6.64236 15.8891 5.61091C14.8576 4.57946 13.4587 4 12 4Z" fill="#BFCAE2"/>
<path d="M13 11.5H11C10.8674 11.5 10.7402 11.4473 10.6464 11.3536C10.5527 11.2598 10.5 11.1326 10.5 11C10.5 10.8674 10.5527 10.7402 10.6464 10.6464C10.7402 10.5527 10.8674 10.5 11 10.5H13C13.1326 10.5 13.2598 10.5527 13.3536 10.6464C13.4473 10.7402 13.5 10.8674 13.5 11C13.5 11.1326 13.4473 11.2598 13.3536 11.3536C13.2598 11.4473 13.1326 11.5 13 11.5Z" fill="#8491C1"/>
<path d="M12 11.5C11.8674 11.5 11.7403 11.4474 11.6465 11.3536C11.5527 11.2598 11.5 11.1326 11.5 11V8.30913L11.2237 8.44733C11.1051 8.50664 10.9677 8.5164 10.8419 8.47446C10.7161 8.43251 10.6121 8.34231 10.5528 8.22368C10.4935 8.10506 10.4837 7.96773 10.5257 7.84191C10.5676 7.7161 10.6578 7.61209 10.7764 7.55278L11.7764 7.05278C11.8527 7.01467 11.9374 6.99667 12.0225 7.00051C12.1077 7.00434 12.1904 7.02987 12.2629 7.07469C12.3354 7.1195 12.3953 7.1821 12.4368 7.25654C12.4783 7.33099 12.5 7.4148 12.5 7.50003V11C12.5 11.1326 12.4474 11.2598 12.3536 11.3536C12.2598 11.4474 12.1326 11.5 12 11.5Z" fill="#8491C1"/>
</svg>
