<?xml version="1.0" encoding="UTF-8"?>
<svg id="Layer_1" data-name="Layer 1" xmlns="http://www.w3.org/2000/svg" viewBox="0 0 1600 600">
  <defs>
    <style>
      .cls-1 {
        fill: #181818;
      }

      .cls-2 {
        fill: #111;
      }

      .cls-3 {
        fill: #1f1f20;
      }

      .cls-4 {
        fill: #131213;
      }

      .cls-5 {
        fill: #2b2b2c;
      }

      .cls-6 {
        fill: #141414;
      }

      .cls-7 {
        fill: #2a2a2a;
      }

      .cls-8 {
        fill: #cf3543;
      }

      .cls-9 {
        fill: #f8f7f8;
      }

      .cls-10 {
        fill: #e3e2e4;
      }

      .cls-11 {
        fill: #121212;
      }

      .cls-12 {
        fill: #080808;
      }

      .cls-13 {
        fill: #d51525;
      }

      .cls-14 {
        fill: #d61526;
      }

      .cls-15 {
        fill: #d13f48;
      }

      .cls-16 {
        fill: #4d4d4d;
      }

      .cls-17 {
        fill: #0c0c0c;
      }

      .cls-18 {
        fill: #151514;
      }

      .cls-19 {
        fill: #1e1e1e;
      }

      .cls-20 {
        fill: #f0f0f0;
      }

      .cls-21 {
        fill: #131313;
      }

      .cls-22 {
        fill: #f1f1f2;
      }

      .cls-23 {
        fill: #ca3e49;
      }

      .cls-24 {
        fill: #333434;
      }

      .cls-25 {
        fill: #090909;
      }

      .cls-26 {
        fill: #cecece;
      }

      .cls-27 {
        fill: #060606;
      }

      .cls-28 {
        fill: #315274;
      }

      .cls-29 {
        fill: #090808;
      }

      .cls-30 {
        fill: #1c1c1c;
      }

      .cls-31 {
        fill: #111010;
      }

      .cls-32 {
        fill: #f1e7eb;
      }

      .cls-33 {
        fill: #2a2b2c;
      }

      .cls-34 {
        fill: #d61727;
      }

      .cls-35 {
        fill: #2d4c6c;
      }

      .cls-36 {
        fill: #212121;
      }

      .cls-37 {
        fill: #222;
      }

      .cls-38 {
        fill: #d51425;
      }

      .cls-39 {
        fill: #262625;
      }

      .cls-40 {
        fill: #0d0c0c;
      }

      .cls-41 {
        fill: #f4f3f5;
      }

      .cls-42 {
        fill: #030303;
      }

      .cls-43 {
        fill: #0d0d0d;
      }

      .cls-44 {
        fill: #333;
      }

      .cls-45 {
        fill: #2d2c2d;
      }

      .cls-46 {
        fill: #0f0f0f;
      }

      .cls-47 {
        fill: #0c3967;
      }

      .cls-48 {
        fill: #191819;
      }

      .cls-49 {
        fill: #0e0e0e;
      }

      .cls-50 {
        fill: #191818;
      }

      .cls-51 {
        fill: #1b1b1b;
      }

      .cls-52 {
        fill: #0b0b0b;
      }

      .cls-53 {
        fill: #101011;
      }

      .cls-54 {
        fill: #d0d0d0;
      }

      .cls-55 {
        fill: #070708;
      }

      .cls-56 {
        fill: #f3f3f4;
      }

      .cls-57 {
        fill: #393939;
      }

      .cls-58 {
        fill: #0a0909;
      }

      .cls-59 {
        fill: #0a0a0a;
      }

      .cls-60 {
        fill: #111112;
      }

      .cls-61 {
        fill: #040404;
      }

      .cls-62 {
        fill: #e7e7e7;
      }

      .cls-63 {
        fill: #ededed;
      }

      .cls-64 {
        fill: #070707;
      }

      .cls-65 {
        fill: #eaeaea;
      }

      .cls-66 {
        fill: #242424;
      }

      .cls-67 {
        fill: #565557;
      }

      .cls-68 {
        fill: #343434;
      }

      .cls-69 {
        fill: #2b2a2b;
      }

      .cls-70 {
        fill: #101010;
      }

      .cls-71 {
        fill: #323232;
      }

      .cls-72 {
        fill: #393838;
      }

      .cls-73 {
        fill: #2e2e2e;
      }

      .cls-74 {
        fill: #f3f3f3;
      }

      .cls-75 {
        fill: #e6e6e6;
      }

      .cls-76 {
        fill: #2f2e2f;
      }
    </style>
  </defs>
  <path class="cls-38" d="M378.38,217.5c4.15.79,6.8,2.18,10.18,4.69.95.7,1.9,1.39,2.88,2.11,1,.74,2,1.49,3.03,2.26,2.08,1.53,4.17,3.06,6.25,4.58q1.54,1.13,3.12,2.29c4.24,3.08,8.54,6.08,12.86,9.05,1.35.93,2.7,1.86,4.09,2.81.94.65,1.89,1.29,2.86,1.96-.53,7.12-2.05,12.65-4.81,19.2-2.05,5.05-3.83,10.17-5.61,15.31-4.23,12.19-8.54,24.35-12.88,36.51-3.39,9.51-6.74,19.03-10,28.58-.29.84-.57,1.68-.87,2.54-1.36,3.98-2.71,7.95-4.06,11.93-2.86,8.39-6.03,16.55-9.5,24.7-1.8,4.43-3.1,8.8-4.32,13.42q-2.15,8.05-3.56,9.46c-1.87.12-3.74.15-5.61.15q-1.79,0-3.61,0c-1.29,0-2.59-.01-3.92-.02-1.32,0-2.64,0-4,0-4.23,0-8.46-.02-12.69-.04-2.86,0-5.72-.01-8.58-.02-7.03-.01-14.06-.04-21.08-.06.87-4.74,2.2-8.99,3.94-13.49,1.6-4.31,3.03-8.66,4.47-13.02,3.05-9.2,6.31-18.17,10.1-27.08,3-7.15,5.62-14.38,8.16-21.7,2.51-7.21,5.11-14.39,7.76-21.55q.58-1.57,1.17-3.17c.74-1.99,1.48-3.99,2.21-5.98,2.61-7.05,5.18-14.12,7.67-21.21,2.5-7.1,5.04-14.13,8.02-21.05,3.48-8.16,6.35-16.51,9.22-24.91,2.13-6.22,4.44-12.25,7.11-18.26Z"/>
  <path class="cls-14" d="M271.03,251.12c4.34,3.47,6.97,6.1,7.76,11.64-1.14,3.48-2.38,6.74-3.8,10.1-4.36,10.71-8.23,21.54-11.92,32.5-2.27,6.67-4.78,13.09-7.71,19.5-1.46,3.29-2.57,6.64-3.64,10.08-2.13,6.55-4.62,12.83-7.31,19.17-6.25,14.92-11.84,30.06-17.06,45.37-.36,1.04-.72,2.09-1.08,3.16-.31.93-.63,1.86-.95,2.81q-.83,2.15-2.13,3.45c-1.79.12-3.58.15-5.37.15-1.14,0-2.28,0-3.45,0-1.24,0-2.48-.01-3.75-.02-1.26,0-2.52,0-3.82,0-4.05,0-8.09-.02-12.14-.04-2.74,0-5.47-.01-8.21-.02-6.72-.01-13.44-.04-20.17-.06.4-1,.8-2,1.22-3.02,1.35-3.39,2.58-6.8,3.79-10.23,1.99-5.51,4.2-10.84,6.62-16.17,4.01-8.97,7.37-18.13,10.35-27.48h2.59q.44-2.4.89-4.85c1.41-6.34,3.74-12.05,6.31-18,2.08-4.83,4.04-9.69,5.98-14.58.63-1.59,1.26-3.17,1.91-4.8.57-1.43,1.14-2.86,1.72-4.33.86-2.16,1.72-4.31,2.59-6.47-1.3-.44-2.6-.88-3.95-1.33-10.67-3.66-21.2-7.59-31.62-11.92-1.07-.44-2.15-.88-3.26-1.34-.99-.42-1.99-.84-3.01-1.27-.88-.37-1.77-.74-2.68-1.12q-2.05-1.12-3.35-3.71c18.6-4.88,37.22-9.69,55.86-14.47q1.63-.42,3.3-.85c3.18-.82,6.35-1.63,9.53-2.44q1.51-.39,3.05-.78c6.96-1.78,13.94-3.5,20.93-5.15q13.29-3.85,15.98-3.47Z"/>
  <path class="cls-49" d="M573.67,183.87h29.75c4.21,9.1,8.2,18.26,12.12,27.48,5.92,13.88,12.12,27.58,18.91,41.06,3.7-4.46,6.05-9.39,8.47-14.62.43-.92.86-1.85,1.31-2.8,1.38-2.95,2.75-5.9,4.13-8.86.9-1.93,1.8-3.86,2.71-5.79,2.22-4.75,4.44-9.5,6.65-14.26,2.17-4.65,4.34-9.3,6.51-13.95,1.27-2.73,2.55-5.46,3.86-8.27h29.75v6.47c-.92.17-1.84.34-2.78.52q-1.78.34-3.6.69c-1.19.23-2.37.45-3.59.68q-2.89.4-4.25,1.99c-.13,2.26-.17,4.52-.17,6.77,0,1.45,0,2.89,0,4.38q0,2.36.02,4.77c0,1.61,0,3.21.01,4.87.06,11.83.31,23.65.72,35.47.05,1.54.1,3.08.15,4.67.05,1.43.11,2.87.16,4.34.05,1.26.09,2.52.14,3.82.24,2.99.72,5.63,1.56,8.51,2.86.11,5.71.18,8.57.24q2.39.07,4.82.14c6.21-.5,10.45-2.1,14.75-6.68,1.77-3.04,2.92-5.96,4.03-9.3,1.73-4.98,3.63-9.72,5.9-14.47,2.99-6.4,5.21-12.94,7.35-19.66,1.62-4.99,3.48-9.72,5.74-14.46,3.65-7.66,6.01-15.62,8.33-23.76h11.64q.73,1.97,1.47,3.98c3.11,8.39,6.24,16.73,9.77,24.96,2.39,5.62,4.25,11.22,5.92,17.09,1.29,4.23,2.92,8.27,4.61,12.36,1.17,2.87,2.29,5.74,3.38,8.64.33.86.66,1.73,1,2.62.65,1.71,1.3,3.42,1.93,5.14,1.94,5.01,3.88,8.53,8.12,11.87q2.72,1.14,5.5,1.62c1.6.32,3.2.64,4.85.97v6.47h-43.97v-6.47c3.41-.85,6.83-1.71,10.35-2.59-.35-8.27-1.66-14.8-5.38-22.23q-1.09-2.34-1.09-4.93h-31.04c-.43,1.71-.85,3.41-1.29,5.17-.67,1.84-1.34,3.67-2.02,5.5-1.96,5.74-2.19,10.45-1.86,16.49,3.84.85,7.68,1.71,11.64,2.59v6.47h-84.07v-6.47q1.24-.21,2.5-.43c1.07-.21,2.14-.41,3.24-.62,1.07-.2,2.13-.39,3.23-.59q1.32-.47,2.67-.94c1.25-3.74,1.49-6.24,1.56-10.14.03-1.27.05-2.54.08-3.84.02-1.37.04-2.73.07-4.14q.04-2.1.08-4.25c.08-4.48.16-8.96.24-13.44.06-3.04.11-6.07.17-9.11.14-7.45.27-14.89.4-22.34h-2.59c-.14.91-.28,1.82-.42,2.75-.98,4.19-2.54,7.56-4.46,11.41-.74,1.51-1.48,3.02-2.24,4.57-.39.79-.79,1.59-1.19,2.41-8.99,18.16-17.31,36.54-25.31,55.16h-6.47c-.58-1.53-1.16-3.06-1.75-4.64-3.73-9.77-7.46-19.36-12.33-28.63-2.13-4.36-3.67-8.89-5.27-13.46-1.45-3.99-3.07-7.88-4.74-11.79-2.31-5.45-4.22-10.75-5.66-16.49h-2.59c-.43,21.34-.85,42.68-1.29,64.67,5.69,2.84,9.29,3.26,15.52,3.88v6.47h-40.09v-6.47c.81-.16,1.62-.32,2.46-.48q1.59-.4,3.2-.81c1.05-.24,2.1-.48,3.18-.73,3.74-2.48,3.88-5.07,4.84-9.29.86-4.58,1.29-9.15,1.65-13.8.08-1.01.16-2.02.25-3.05.17-2.12.34-4.24.5-6.36.25-3.19.51-6.38.77-9.57q1.88-17.42,1.25-34.8c-4.45-2.97-7.68-3.29-12.93-3.88v-6.47Z"/>
  <path class="cls-31" d="M1246.19,183.87c6.97-.13,13.94-.22,20.91-.28,2.37-.03,4.73-.06,7.1-.11,3.42-.06,6.84-.09,10.26-.11q1.56-.04,3.16-.08c9.4,0,16.49,3.14,24.37,8.1,4.99,5.14,6.84,10.65,7.11,17.7-.28,6.69-1.74,12.18-6.55,17.11-3.02,2.65-5.86,5.02-9.46,6.82,2.53,6.84,6.34,12.15,10.59,18.03.71,1.02,1.43,2.03,2.16,3.08q7.43,10.7,18.32,17.1c4.81.33,7.46-.52,11.36-3.29,3.39-4.65,4.95-8.76,6.71-14.23h2.59c.21-1.65.43-3.31.65-5.01,1.58-8.04,4.96-15.08,8.37-22.47,3.1-6.76,5.66-13.49,7.88-20.59,2.46-7.42,5.47-14.77,8.97-21.76h10.35c4.9,12.43,9.69,24.9,14.28,37.45.44,1.2.88,2.39,1.33,3.62,1.81,4.92,3.61,9.83,5.4,14.76,1.33,3.66,2.67,7.31,4.02,10.96.4,1.1.8,2.21,1.2,3.34,2.27,6.12,4.67,11.34,8.68,16.52q2.98,1.45,6.14,1.78c1.03.17,2.07.34,3.13.52.78.1,1.56.19,2.36.29v6.47h-43.97v-6.47q5.12-1.28,10.35-2.59c-.48-7.65-1.48-13.01-5.38-19.63q-1.09-2.36-1.09-7.53c-10.24.43-20.49.85-31.04,1.29-1.04,3.07-2.08,6.14-3.15,9.3-.33.95-.65,1.91-.99,2.89-1.54,4.58-2.67,8.92-3.62,13.68,4.27.85,8.54,1.71,12.93,2.59v6.47c-6.86.1-13.71.17-20.57.21-2.33.02-4.66.05-6.99.08-3.36.05-6.72.07-10.07.09q-1.55.03-3.14.06c-7.47,0-12.56-1.5-18.56-6.24-5.98-6.08-10.79-12.67-15.52-19.75-.75-1.1-1.5-2.2-2.27-3.33q-5.46-8.08-6.94-12.51h-14.23c.11,5.12.25,10.24.4,15.36.03,1.46.06,2.92.09,4.42q.07,2.09.14,4.22l.1,3.9c.18,1.04.37,2.07.56,3.14,3.75,2.5,5.04,2.98,9.3,3.39q2.44.24,4.93.48v6.47h-43.97v-6.47c4.27-1.28,8.54-2.56,12.93-3.88.06-9.74.11-19.47.13-29.21.01-4.52.03-9.04.06-13.56.03-5.19.05-10.39.06-15.58.01-1.63.03-3.25.04-4.93,0-1.5,0-3,0-4.55,0-1.33.01-2.65.02-4.02q0-3.39-2.9-5.75c-3-.52-6.02-.96-9.05-1.29v-6.47Z"/>
  <path class="cls-9" d="M1132.38,183.87c7.75-.13,15.5-.22,23.25-.28,2.63-.03,5.26-.06,7.88-.11q39.64-.66,53.4,11.2c11.88,11.85,14.24,22.31,14.45,39.18-.3,12.04-5.9,22.54-13.86,31.49-13.1,11.6-29.32,14.69-46.25,14.48-1.16,0-2.32,0-3.51-.01-3.65-.01-7.3-.05-10.95-.08-2.5-.01-4.99-.02-7.49-.04-6.07-.03-12.15-.07-18.22-.13v-6.47c.92-.17,1.84-.34,2.78-.52,1.19-.23,2.38-.46,3.6-.69q1.78-.34,3.59-.68,2.89-.4,4.25-1.99c.16-2.38.23-4.77.27-7.15.03-1.53.05-3.06.08-4.63q.03-2.49.07-5.04t.08-5.13c.07-4.51.14-9.01.2-13.52.06-4.59.14-9.19.21-13.78.14-9.02.27-18.04.4-27.06-4.69-.85-9.39-1.71-14.23-2.59v-6.47Z"/>
  <path class="cls-42" d="M565.91,304.15h862.64v7.76h-862.64v-7.76Z"/>
  <path class="cls-13" d="M349.93,223.96q2.25,1.75,4.28,4.12c.69.77,1.38,1.53,2.09,2.32,1.9,3.57,1.23,5.26.1,9.08-.3,1.03-.59,2.06-.89,3.12-3.11,9.46-6.75,18.65-10.48,27.87-3.72,9.21-7.15,18.51-10.51,27.86-3.21,8.92-6.52,17.8-9.88,26.67-5.16,13.67-10.04,27.41-14.79,41.22-.85-.43-1.71-.85-2.59-1.29q-.96-3.11-1.86-7.11c-1.31-5.81-2.97-11.37-4.88-17-2.04-6.1-3.83-12.27-5.64-18.43-1.73-5.85-3.52-11.67-5.46-17.45-.37-1.13-.74-2.27-1.12-3.44-.7-2.15-1.43-4.3-2.18-6.43-3.59-11.19-.61-20.35,4.33-30.64,1.37-3.13,2.27-6.21,3.15-9.5,2.09-7.27,4.95-14.09,11.14-18.71,5.32-2.65,10.81-4.22,16.5-5.86,1.12-.33,2.24-.66,3.39-1q18.34-5.38,25.31-5.38Z"/>
  <path class="cls-21" d="M806.47,183.87h42.68v6.47c-3.84.85-7.68,1.71-11.64,2.59-.43,11.1-.85,22.19-1.29,33.63h50.44q-.64-16.64-1.29-33.63c-4.69-.85-9.39-1.71-14.23-2.59v-6.47h43.97v6.47c-2.57.29-5.14.59-7.7.88q-2.89.37-6.52,1.7c.11,9.9.23,19.81.37,29.71.06,4.6.12,9.2.17,13.8.06,5.28.13,10.57.21,15.85.01,1.66.03,3.31.05,5.02.03,1.53.05,3.06.08,4.63.02,1.35.03,2.7.05,4.09q.05,3.43,2.95,5.79c3.43.73,6.84.95,10.35,1.29v6.47h-43.97v-6.47c.83-.17,1.65-.34,2.5-.52,1.07-.23,2.14-.46,3.24-.69,1.07-.23,2.13-.45,3.23-.68q2.64-.44,3.97-1.99c.2-2.49.32-4.99.41-7.48.05-1.36.1-2.72.15-4.13.06-1.74.11-3.49.17-5.28.19-5.52.37-11.04.57-16.73h-49.15c.43,11.1.85,22.19,1.29,33.63,5.09,2.03,8.92,3.14,14.23,3.88v6.47h-45.27v-6.47c.83-.17,1.65-.34,2.5-.52q1.6-.34,3.24-.69t3.23-.68q2.64-.44,3.97-1.99c.13-2.33.18-4.66.19-6.99,0-1.49.02-2.99.03-4.53,0-1.63,0-3.25,0-4.93q0-2.49.01-5.02c0-3.51.01-7.03,0-10.54,0-4.51.02-9.01.04-13.52.02-4.29.02-8.58.02-12.87,0-1.62.02-3.25.03-4.92,0-1.5,0-2.99-.01-4.54q0-1.98,0-4.01,0-3.38-2.91-5.74c-3.43-.73-6.84-.95-10.35-1.29v-6.47Z"/>
  <path class="cls-43" d="M1014.69,183.87q23.56-2.84,30.91,1.42c4.26,3.97,7.09,8.94,10.02,13.92,3.21,5.06,7.17,9.52,11.05,14.08,1.55,1.87,3.09,3.74,4.64,5.61.72.87,1.44,1.75,2.19,2.65,3.35,4.07,6.63,8.19,9.9,12.31,3.83,4.78,7.73,9.5,11.63,14.23q2.44,3.04,5.02,6.92c.06-8.01.11-16.02.14-24.03.01-2.72.03-5.45.05-8.17.03-3.92.05-7.83.06-11.75.01-1.22.03-2.44.04-3.69,0-1.14,0-2.28,0-3.45,0-1,.01-2,.02-3.03-.36-3.2-1.16-5.25-2.9-7.96q-3.11-1.18-6.63-1.62c-1.18-.19-2.35-.39-3.57-.59-.9-.13-1.81-.25-2.74-.38v-6.47h38.8v6.47c-.73.22-1.46.44-2.22.67q-1.42.47-2.87.95t-2.86.91q-2.57,1.11-3.17,3.53c-.63,3.68-.73,7.21-.78,10.95-.03,1.6-.05,3.21-.08,4.86-.02,1.74-.04,3.49-.07,5.23-.03,1.79-.05,3.58-.08,5.37-.07,4.7-.14,9.41-.2,14.11-.07,4.8-.14,9.61-.21,14.41-.14,9.42-.27,18.83-.4,28.25-1.87.09-3.73.15-5.6.2q-1.56.06-3.15.11-2.89-.31-6.45-3.49c-1.01-1.42-1.98-2.87-2.91-4.34-1.09-1.56-2.18-3.12-3.28-4.67-.53-.78-1.07-1.57-1.62-2.37-2.27-3.26-4.78-6.3-7.31-9.36-.94-1.15-1.89-2.29-2.86-3.47-3.39-4.06-6.81-8.1-10.24-12.13-8.19-9.64-16.16-19.41-23.55-29.67q-1.52-2.12-4.17-3.23c.12,7.59.26,15.19.41,22.78.05,2.58.09,5.16.14,7.74.06,3.72.13,7.44.21,11.15.01,1.15.03,2.3.05,3.48.14,6.07.49,11.32,3.08,16.92,3.75,2.5,5.04,2.98,9.3,3.39q2.44.24,4.93.48v6.47h-41.39v-6.47c.81-.21,1.62-.41,2.46-.62q1.59-.45,3.2-.91,1.58-.43,3.18-.86c3.81-2.02,4.09-3.9,5.39-7.95q.39-3.29.36-6.73c.01-1.31.02-2.62.04-3.96,0-1.4,0-2.79,0-4.23,0-1.45.01-2.89.02-4.38,0-3.05,0-6.1,0-9.15,0-4.68.03-9.35.06-14.03,0-2.96,0-5.93,0-8.89.01-1.4.02-2.8.04-4.25,0-1.3-.02-2.6-.02-3.94,0-1.14,0-2.29,0-3.47-.59-3.54-1.55-4.65-4.36-6.81q-2.93-1.01-6.06-1.54-1.57-.31-3.17-.62c-.8-.14-1.59-.28-2.41-.43v-6.47Z"/>
  <path class="cls-6" d="M1136.26,341.66h10.35c4.38,11.21,8.75,22.42,12.93,33.71,2.8,7.51,5.71,14.97,8.73,22.39q.57,1.42,1.15,2.87,2.14,5.22,5.64,9.58,2.92.7,6.22.97c1.1.13,2.2.25,3.34.38q4.01.13,9.84-2.65c.43-19.63.85-39.27,1.29-59.49-3.41-.43-6.83-.85-10.35-1.29v-6.47q16.64.64,33.63,1.29v5.17c-2.99.85-5.98,1.71-9.05,2.59v58.2q18.41.68,27.16-1.29,1.51-2.84,2.59-6.47c1.64-3.07,3.41-6.05,5.17-9.05h5.17c-.83,3.37-1.67,6.74-2.51,10.1q-.35,1.43-.71,2.89c-.97,3.91-1.97,7.75-3.25,11.58h-93.12v-5.17q3.2-.64,6.47-1.29c-.65-6.48-2.17-11.07-5.17-16.81v-3.88h-25.87c-.67,2.21-1.33,4.43-2.02,6.71-.38,1.25-.75,2.49-1.14,3.77-.77,3.96-.72,6.4.57,10.21q3.2,1.78,6.47,2.59v3.88h-29.75v-5.17q2.08-.32,4.2-.65c3.08-.88,4.49-1.46,6.42-4.05,1.32-2.71,2.47-5.45,3.6-8.23.88-1.7,1.77-3.4,2.67-5.09,2.28-4.54,3.86-9.14,5.39-13.98.95-2.78,2.08-5.35,3.34-8,4.41-9.58,7.35-19.81,10.59-29.83Z"/>
  <path class="cls-34" d="M274.91,306.74h2.59c4.52,14.19,8.79,28.44,12.98,42.73,1.91,6.5,3.83,12.98,5.98,19.41.31.94.62,1.88.94,2.84.8,2.39,1.63,4.76,2.45,7.14,2.34,10.57-2.39,19.8-5.54,30.05h-55.61c.89-5.33,1.66-9.29,3.46-14.2q.64-1.77,1.3-3.57c.46-1.23.92-2.46,1.39-3.73.47-1.28.94-2.56,1.42-3.88,2.33-6.31,4.73-12.57,7.39-18.75,4.25-9.91,7.61-20.16,11.13-30.35,1.55-4.47,3.13-8.93,4.72-13.38.49-1.37.98-2.74,1.48-4.16,1.25-3.41,2.57-6.78,3.94-10.15Z"/>
  <path class="cls-17" d="M1132.38,183.87c7.75-.13,15.5-.22,23.25-.28,2.63-.03,5.26-.06,7.88-.11q39.64-.66,53.4,11.2c11.88,11.85,14.24,22.31,14.45,39.18-.3,12.04-5.9,22.54-13.86,31.49-13.1,11.6-29.32,14.69-46.25,14.48-1.16,0-2.32,0-3.51-.01-3.65-.01-7.3-.05-10.95-.08-2.5-.01-4.99-.02-7.49-.04-6.07-.03-12.15-.07-18.22-.13v-6.47c.92-.17,1.84-.34,2.78-.52,1.19-.23,2.38-.46,3.6-.69q1.78-.34,3.59-.68,2.89-.4,4.25-1.99c.16-2.38.23-4.77.27-7.15.03-1.53.05-3.06.08-4.63q.03-2.49.07-5.04t.08-5.13c.07-4.51.14-9.01.2-13.52.06-4.59.14-9.19.21-13.78.14-9.02.27-18.04.4-27.06-4.69-.85-9.39-1.71-14.23-2.59v-6.47ZM1160.83,192.92q-.4,3.04-.33,6.6c0,1.38-.02,2.75-.02,4.17,0,1.49.01,2.99.02,4.53,0,1.53,0,3.06,0,4.64,0,3.25,0,6.49.01,9.74.01,4.96,0,9.93-.02,14.89,0,3.15,0,6.3.01,9.45,0,1.49-.01,2.97-.02,4.5,0,1.39.02,2.78.02,4.21,0,1.22,0,2.44,0,3.69.36,3.74,1.27,6.51,2.92,9.88,6.5,4.98,16.83,3.19,24.57,2.59,7.83-1.5,13.72-3.76,18.75-10.1,8.57-13.32,10.25-28.1,7.9-43.69-2.88-10.48-10.54-18.43-19.78-23.81-7.2-3.79-13.92-4.08-21.99-4.12-.87-.02-1.75-.03-2.65-.05q-5.28-.17-9.39,2.88Z"/>
  <path class="cls-18" d="M745.68,183.87h11.64c.49,1.31.97,2.63,1.47,3.98,3.11,8.39,6.24,16.73,9.77,24.96,2.39,5.62,4.25,11.22,5.92,17.09,1.29,4.23,2.92,8.27,4.61,12.36,1.17,2.87,2.29,5.74,3.38,8.64.33.86.66,1.73,1,2.62.65,1.71,1.3,3.42,1.93,5.14,1.94,5.01,3.88,8.53,8.12,11.87q2.72,1.14,5.5,1.62,2.4.48,4.85.97v6.47h-43.97v-6.47q5.12-1.28,10.35-2.59c-.35-8.27-1.66-14.8-5.38-22.23q-1.09-2.34-1.09-4.93h-31.04l-1.29,5.17c-.67,1.84-1.34,3.67-2.02,5.5-1.96,5.74-2.19,10.45-1.86,16.49,3.84.85,7.68,1.71,11.64,2.59v6.47h-84.07v-6.47q4.48-.64,9.05-1.29-3.88,2.59-7.76,2.59v3.88h41.39v-5.17c.87-.21,1.75-.41,2.65-.62q7.2-1.87,13.36-5.85c2.51-4.63,4.2-9.32,5.9-14.3,1.32-3.66,2.85-7.09,4.53-10.6,2.99-6.4,5.21-12.94,7.35-19.66,1.62-4.99,3.48-9.72,5.74-14.46,3.65-7.66,6.01-15.62,8.33-23.76Z"/>
  <path class="cls-46" d="M925.45,183.87h73.72c0,8.72-.2,16.12-1.29,24.57h-6.47c-.13-.8-.25-1.59-.38-2.41-.19-1.05-.39-2.09-.59-3.17-.18-1.04-.36-2.07-.55-3.14-1.38-3.76-2.84-4.74-6.24-6.81q-3.24-.53-6.73-.38c-1.14,0-2.28.02-3.46.03q-2.16.05-4.36.11c-4.59.08-9.18.16-13.9.24-.43,11.1-.85,22.19-1.29,33.63q6.32-.2,12.77-.4,1.99-.05,4.02-.1c1.04-.04,2.09-.09,3.16-.13,1.07-.03,2.14-.07,3.24-.1q3.18-.34,5.25-4.44c.5-2.14.94-4.3,1.29-6.47h6.47v31.04h-6.47c-.35-1.47-.69-2.93-1.05-4.45-.51-1.52-1.01-3.04-1.54-4.61-3.44-1.15-5.79-1.53-9.35-1.7-.94-.05-1.87-.1-2.84-.15-1.18-.06-2.36-.11-3.58-.17-3.76-.19-7.52-.37-11.4-.57.43,11.1.85,22.19,1.29,33.63,6.21,3.11,10.5,3.02,17.3,2.99l3.28.06c6.56,0,11.39-.45,16.92-4.35q2.55-3.44,4.36-7.36c.65-1.29,1.3-2.57,1.97-3.9.47-.98.94-1.96,1.42-2.98h6.47c1.03,4.25,1.42,6.09,0,10.35h-2.59q-.26,1.33-.52,2.69c-.23,1.17-.46,2.33-.69,3.53-.23,1.16-.45,2.31-.68,3.5q-.69,3.21-1.99,7.09h-76.31v-6.47c.81-.17,1.62-.34,2.46-.52q1.59-.34,3.2-.69t3.18-.68q2.84-.59,5.39-1.99v-75.01c-4.62-1.85-8.16-3.06-12.93-3.88v-6.47Z"/>
  <path class="cls-49" d="M1003.05,341.66c9.82.43,19.63.85,29.75,1.29v5.17c-1.15.16-2.29.32-3.48.48-9.64,4.73-12.39,19.11-15.66,28.68-.54,1.6-1.08,3.21-1.63,4.86-.54,1.59-1.09,3.18-1.65,4.82-3.5,10.27-6.78,20.6-9.91,30.99h-9.05c-.46-1.38-.91-2.77-1.38-4.19-1.7-5.14-3.4-10.28-5.11-15.42-.74-2.22-1.47-4.45-2.21-6.67-1.06-3.2-2.12-6.4-3.18-9.59-.33-.99-.65-1.98-.99-3.01-1.48-4.45-2.96-8.75-5.25-12.86-.49,1.5-.97,3-1.47,4.55-3.41,10.44-6.96,20.67-11.33,30.76-2.18,5.36-3.79,10.85-5.3,16.43h-9.05c-.36-1.26-.72-2.53-1.08-3.83-1.36-4.79-2.72-9.58-4.09-14.38-.58-2.05-1.17-4.11-1.75-6.16-1.7-5.98-3.41-11.96-5.15-17.93-.58-2-1.16-4-1.74-6-.83-2.89-1.69-5.77-2.55-8.65q-.37-1.31-.76-2.64c-1.43-4.69-1.94-6.13-6.17-8.95-2.14-.5-4.3-.94-6.47-1.29v-5.17h33.63v5.17c-2.13.43-4.27.85-6.47,1.29-.33,7.78.67,13.89,3.07,21.26.6,1.93,1.19,3.86,1.78,5.79.28.91.56,1.82.85,2.76,1.94,6.45,3.34,12.57,3.34,19.33h2.59c.22-.96.44-1.91.67-2.89,2.21-9.24,4.95-18,8.39-26.85.37-.95.74-1.91,1.12-2.89,2.63-6.8,5.28-13.6,7.94-20.39h7.76c4.36,12,8.42,23.94,11.8,36.25.95,3.23,2.03,6.2,3.4,9.26q1.62,3.64,1.62,7.52h2.59c.12-1.2.24-2.41.37-3.65.96-6.73,3.23-13.04,5.37-19.47,2.86-8.63,5.37-17.12,7.19-26.03-3.41-.43-6.83-.85-10.35-1.29v-6.47Z"/>
  <path class="cls-2" d="M1332.85,341.66q16.64.64,33.63,1.29c-.43,1.71-.85,3.41-1.29,5.17-2.99.43-5.98.85-9.05,1.29v25.87h40.09c-.43-8.54-.85-17.07-1.29-25.87-3.41-.43-6.83-.85-10.35-1.29v-6.47q16.64.64,33.63,1.29v3.88c-2.99,1.28-5.98,2.56-9.05,3.88v58.2c3.41,1.28,6.83,2.56,10.35,3.88v3.88h-34.92v-5.17c2.99-.85,5.98-1.71,9.05-2.59.43-8.54.85-17.07,1.29-25.87h-38.8c.43,8.54.85,17.07,1.29,25.87,2.99,1.28,5.98,2.56,9.05,3.88v3.88h-33.63v-5.17q4.48-.64,9.05-1.29v-60.79c-2.99-.43-5.98-.85-9.05-1.29v-6.47Z"/>
  <path class="cls-59" d="M572.38,342.95q19.29-2.67,25.59,1.55c4.2,4.18,7.3,9.14,10.39,14.17,2.22,3.49,4.84,6.59,7.5,9.74.93,1.13,1.86,2.26,2.81,3.42.94,1.14,1.88,2.28,2.84,3.45,2.08,2.53,4.15,5.06,6.22,7.6q1.37,1.68,2.77,3.38c.87,1.07,1.74,2.14,2.64,3.24.97,1.15,1.93,2.3,2.93,3.49q2.25,2.98,2.25,5.57h2.59c-.15-5.98-.31-11.97-.48-17.95-.06-2.03-.11-4.07-.16-6.1-.07-2.93-.16-5.86-.24-8.78-.02-.91-.04-1.81-.07-2.75-.13-4.36-.57-8-1.64-12.27-3.41-.85-6.83-1.71-10.35-2.59v-5.17h31.04v5.17c-2.99.85-5.98,1.71-9.05,2.59-.96,4.32-1.48,8.36-1.56,12.78-.03,1.22-.05,2.43-.08,3.69q-.03,1.94-.07,3.93c-.03,1.34-.05,2.68-.08,4.06-.08,4.27-.16,8.54-.24,12.81-.06,2.9-.11,5.8-.17,8.7-.14,7.1-.27,14.19-.4,21.29q-4.33.19-9.05,0c-2.58-2.48-4.21-4.43-6.14-7.36-1.11-1.56-2.22-3.11-3.33-4.66q-.85-1.2-1.72-2.42c-2.76-3.76-5.8-7.26-8.85-10.78-5.52-6.41-10.75-12.99-15.83-19.76-2.06-2.73-4.07-5.32-6.52-7.72q-1.58-1.63-1.58-4.21h-2.59c.12,6.38.26,12.75.41,19.13.05,2.17.09,4.34.14,6.51.06,3.12.13,6.23.21,9.35.01.97.03,1.94.05,2.94.14,4.83.33,7.1,3.08,11.22q4.61.95,9.05,1.29v5.17h-31.04v-3.88q7.44-3.88,10.35-3.88c.1-8.06.17-16.11.21-24.17.02-2.74.05-5.48.08-8.23.05-3.94.07-7.87.09-11.81.02-1.23.04-2.46.06-3.73,0-1.14,0-2.28,0-3.45,0-1.01.02-2.01.03-3.05-.15-.82-.31-1.63-.47-2.47-4.12-2.75-6.81-3.24-11.64-3.88v-5.17Z"/>
  <path class="cls-6" d="M1091,341.66v19.4h-6.47c-.4-1.47-.8-2.93-1.21-4.45q-.89-4.33-2.67-5.9c-1.73-.2-3.48-.32-5.22-.41-.94-.05-1.88-.1-2.85-.15q-1.81-.08-3.65-.17c-3.81-.19-7.63-.37-11.56-.57v25.87c6.4-.43,12.8-.85,19.4-1.29l2.59-6.47h5.17v24.57h-5.17l-2.59-7.76c-6.4-.43-12.8-.85-19.4-1.29.43,8.54.85,17.07,1.29,25.87q5.6.04,11.32.08c1.17.01,2.34.02,3.54.04q1.4,0,2.83,0c.95,0,1.9.01,2.87.02,2.84-.15,5.22-.49,7.9-1.44q1.55-3.01,2.59-6.47c.84-1.73,1.7-3.46,2.59-5.17h6.47c-.59,2.24-1.18,4.47-1.78,6.71q-.5,1.87-1,3.77-1.1,3.74-3.69,10.21h-60.79v-5.17c2.65-.29,5.3-.59,7.96-.88q2.4-.17,3.68-1.7c.12-1.87.15-3.74.15-5.61,0-1.19,0-2.38,0-3.61,0-1.29-.01-2.59-.02-3.92q0-1.98,0-4c0-4.23-.02-8.46-.04-12.69,0-2.86-.01-5.72-.02-8.58-.01-7.03-.04-14.06-.06-21.08-2.56-.85-5.12-1.71-7.76-2.59v-3.88c7.09-.19,14.18-.37,21.27-.55,2.41-.06,4.82-.13,7.23-.19,3.47-.09,6.93-.18,10.4-.27q1.61-.04,3.26-.09c1.01-.03,2.02-.05,3.06-.08.88-.02,1.77-.05,2.68-.07,2.57-.05,5.14-.05,7.71-.05Z"/>
  <path class="cls-11" d="M666.79,342.95h56.91v18.11h-5.17c-.37-1.47-.75-2.93-1.13-4.45-.48-1.52-.96-3.04-1.45-4.61-2.89-1.45-4.72-1.54-7.93-1.7q-1.41-.07-2.84-.15-1.79-.08-3.61-.17-5.68-.28-11.48-.57v27.16q11.17.35,20.69-3.88.83-2.68,1.29-5.17h5.17v23.28h-5.17q-.64-3.84-1.29-7.76h-20.69c.43,8.54.85,17.07,1.29,25.87,3.49.08,6.99.16,10.59.24,1.09.04,2.18.07,3.3.11,5.93.07,9.79-.34,14.56-4.23,1.83-2.31,3.26-4.68,4.77-7.21.56-.61,1.12-1.22,1.69-1.84h5.17c-.71,8.33-2.78,12.4-6.47,20.69h-59.49v-3.88c3.41-1.28,6.83-2.56,10.35-3.88v-58.2c-2.99-.85-5.98-1.71-9.05-2.59v-5.17Z"/>
  <path class="cls-43" d="M737.92,341.66c10.67.43,21.34.85,32.33,1.29v5.17l-5.17,1.29c1.76,4.71,3.88,8.94,6.47,13.26.67,1.13,1.33,2.25,2.02,3.42q1.64,2.88,4.45,4.02c.29-.85.59-1.71.89-2.59,1.85-4.23,4.16-7.86,6.71-11.69,1.47-2.58,2.17-4.82,2.74-7.71h-6.47v-5.17h27.16v5.17q-2.04.42-4.11.84c-5.5,1.58-8.02,4.52-11.57,9.02-.55.69-1.1,1.38-1.67,2.09-4.13,5.27-7.76,10.7-11.1,16.5,2.42,3.66,4.86,7.32,7.31,10.96,2.04,3.03,4.01,6.1,5.95,9.19q5.68,9.37,14.63,15.17c1.47.29,2.93.59,4.45.89v3.88h-33.63v-3.88q3.2-.64,6.47-1.29c-1.68-5.66-3.87-10.3-7.03-15.28-.77-1.24-1.54-2.47-2.34-3.74q-2.09-3.31-6.15-4.26c-2.17,2.93-4.32,5.87-6.47,8.81-.62.83-1.23,1.66-1.87,2.52-.58.8-1.17,1.61-1.77,2.44-.54.74-1.08,1.48-1.64,2.24q-1.51,2.26-1.19,5.98c2.13.43,4.27.85,6.47,1.29v5.17h-29.75v-3.88c.72-.24,1.44-.48,2.18-.72,9.06-3.44,13.86-8.61,19.8-16.09.97-1.14,1.94-2.28,2.95-3.45q5.91-6.42,7.4-14.66c-1.71-3.07-3.46-5.91-5.42-8.81-.54-.81-1.08-1.61-1.63-2.44-1.06-1.58-2.12-3.17-3.19-4.74-1.13-1.71-2.2-3.46-3.25-5.22-2.82-4.59-5.09-6.48-10.19-7.81-1.57-.24-3.15-.48-4.77-.73v-6.47Z"/>
  <path class="cls-40" d="M1246.19,183.87q24.33.64,49.15,1.29c-.85.85-1.71,1.71-2.59,2.59h-2.59c-.43.85-.85,1.71-1.29,2.59q-2.91.49-6.47.73-4.28-.04-7.76,1.86c-.11,2.82-.14,5.65-.13,8.48q0,1.28,0,2.58c0,2.73.02,5.46.04,8.18,0,1.83.01,3.66.02,5.49.01,3.36.03,6.73.04,10.09.01,2.62.02,5.24.02,7.86,3.84.43,7.68.85,11.64,1.29v1.29h-12.93c.1,5.12.25,10.24.4,15.36.03,1.46.06,2.92.09,4.42q.07,2.09.14,4.22l.1,3.9c.18,1.04.37,2.07.56,3.14,3.75,2.5,5.04,2.98,9.3,3.39q2.44.24,4.93.48v6.47h-43.97v-6.47c4.27-1.28,8.54-2.56,12.93-3.88.06-9.74.11-19.47.13-29.21.01-4.52.03-9.04.06-13.56.03-5.19.05-10.39.06-15.58.01-1.63.03-3.25.04-4.93,0-1.5,0-3,0-4.55,0-1.33.01-2.65.02-4.02q0-3.39-2.9-5.75c-3-.52-6.02-.96-9.05-1.29v-6.47Z"/>
  <path class="cls-29" d="M668.08,183.87h29.75v6.47c-.92.17-1.84.34-2.78.52-1.19.23-2.38.46-3.6.69-1.19.23-2.37.45-3.59.68q-2.89.4-4.25,1.99c-.13,2.26-.17,4.52-.17,6.77,0,1.45,0,2.89,0,4.38q0,2.36.02,4.77c0,1.61,0,3.21.01,4.87.06,11.83.31,23.65.72,35.47.05,1.54.1,3.08.15,4.67.05,1.43.11,2.87.16,4.34.05,1.26.09,2.52.14,3.82q.2,3.68,1.56,8.51c3.84.43,7.68.85,11.64,1.29v5.17h-41.39v-3.88c.73-.24,1.46-.47,2.22-.71.95-.33,1.9-.65,2.87-.99.95-.32,1.89-.63,2.86-.95q2.85-1.11,3.68-5.11c.15-2.08.23-4.17.27-6.26.03-1.27.05-2.54.08-3.84.02-1.37.04-2.73.07-4.14q.04-2.1.08-4.25c.08-4.48.16-8.96.24-13.44.06-3.04.11-6.07.17-9.11.14-7.45.27-14.89.4-22.34h-2.59c-.13.99-.27,1.97-.4,2.99-.95,3.73-1.58,5.23-4.77,7.36q-2.83-.4-5.17-1.29c.83-6.54,3.7-12,6.55-17.86,1.68-3.49,3.36-6.99,5.09-10.59Z"/>
  <path class="cls-12" d="M1253.95,340.36q1.8.32,3.64.64c6.52.93,13.02.82,19.59.78q2,0,4.05,0c4.24,0,8.49-.02,12.73-.04,2.89,0,5.77-.01,8.66-.02,7.06-.01,14.11-.04,21.17-.06-.43,7.68-.85,15.36-1.29,23.28h-5.17c-.14-.81-.28-1.62-.43-2.46-.21-1.06-.41-2.11-.62-3.2-.2-1.05-.39-2.1-.59-3.18q-.78-3.26-4.82-5.39-4.14-.6-8.65-.81c-1.53-.1-3.05-.19-4.62-.29q-1.75-.1-3.54-.19c.15,8.45.31,16.9.48,25.35.06,2.88.11,5.75.16,8.63.07,4.13.16,8.25.24,12.38.02,1.29.04,2.59.07,3.92q.04,1.79.08,3.61.03,1.58.06,3.19-.06,2.43,1.5,3.71c1.74.3,3.5.53,5.25.73,1.68.19,3.36.37,5.09.57v5.17h-37.51v-3.88c.73-.27,1.46-.53,2.22-.8.95-.35,1.9-.7,2.87-1.06.95-.35,1.89-.69,2.86-1.05q2.37-.79,3.68-2.27c.16-1.83.23-3.66.27-5.49.03-1.17.05-2.33.08-3.53.02-1.27.04-2.53.07-3.84.03-1.29.05-2.58.08-3.91.08-4.14.16-8.28.24-12.41.06-2.8.11-5.6.17-8.39.14-6.87.27-13.75.4-20.62-2.7.11-5.39.25-8.08.4-1.5.08-3,.15-4.55.23-4.37.69-6.22,1.51-9.36,4.54q-1.42,2.6-2.26,5.42c-.31.93-.63,1.85-.95,2.8-.22.7-.44,1.4-.67,2.13h-5.17c.8-8.2,1.66-16.39,2.59-24.57Z"/>
  <path class="cls-12" d="M819.4,340.36q1.8.32,3.64.64c6.52.93,13.02.82,19.59.78q2,0,4.05,0c4.24,0,8.49-.02,12.73-.04,2.89,0,5.77-.01,8.66-.02,7.06-.01,14.11-.04,21.17-.06.02,2.26.03,4.52.04,6.77,0,1.26.02,2.52.02,3.81-.08,4.35-.6,8.41-1.36,12.69h-5.17c-.16-.81-.31-1.62-.47-2.46q-.33-1.59-.66-3.2c-.21-1.05-.42-2.1-.64-3.18q-.65-3.04-3.41-5.39c-3.06-.39-6.14-.64-9.21-.81-1.66-.1-3.31-.19-5.02-.29q-1.92-.1-3.87-.19c.15,8.45.31,16.9.48,25.35.06,2.88.11,5.75.16,8.63.07,4.13.16,8.25.24,12.38.02,1.29.04,2.59.07,3.92q.04,1.79.08,3.61.03,1.58.06,3.19-.06,2.43,1.5,3.71c1.96.3,3.93.53,5.9.73,1.07.11,2.14.22,3.24.33q1.24.12,2.5.24v5.17h-38.8v-5.17q1.1-.26,2.22-.52c.95-.23,1.9-.46,2.87-.69.95-.23,1.89-.45,2.86-.68q2.39-.48,3.68-1.99c.16-1.83.23-3.66.27-5.49.03-1.17.05-2.33.08-3.53.02-1.27.04-2.53.07-3.84.03-1.29.05-2.58.08-3.91.08-4.14.16-8.28.24-12.41.06-2.8.11-5.6.17-8.39.14-6.87.27-13.75.4-20.62-2.91.08-5.82.19-8.73.32q-2.43.09-4.91.18c-5.06.89-6.59,1.91-9.64,5.96q-1.64,4.05-2.59,7.76h-5.17c.75-7.78,1.58-15.53,2.59-23.28Z"/>
  <path class="cls-47" d="M445.63,182.58c-1.01,7.77-3.29,15.14-5.5,22.63-.4,1.38-.81,2.75-1.23,4.17q-6.7,22.57-10.09,30.1-1.28.64-2.59,1.29c-.94-.66-1.89-1.32-2.86-2-1.35-.94-2.7-1.88-4.09-2.85-.73-.51-1.46-1.02-2.21-1.54-4.59-3.18-9.22-6.29-13.9-9.34-1.05-.69-2.11-1.38-3.19-2.09-2.09-1.37-4.19-2.72-6.29-4.07-.96-.63-1.92-1.26-2.91-1.91-.86-.56-1.72-1.11-2.61-1.68q-2.02-1.68-3.31-5.56c4.58-2.12,9.15-4.23,13.73-6.35,2.31-1.07,4.62-2.13,6.92-3.2,6.47-2.99,12.93-5.97,19.45-8.84,5.25-2.32,10.33-4.89,15.42-7.54q2.67-1.23,5.26-1.23Z"/>
  <path class="cls-11" d="M1185.41,341.66q16.64.64,33.63,1.29v5.17c-2.99.85-5.98,1.71-9.05,2.59v58.2q18.41.68,27.16-1.29,1.51-2.84,2.59-6.47c1.64-3.07,3.41-6.05,5.17-9.05h5.17c-.83,3.37-1.67,6.74-2.51,10.1q-.35,1.43-.71,2.89c-.97,3.91-1.97,7.75-3.25,11.58-8.79.07-17.59.11-26.38.14-2.99.01-5.99.03-8.98.05-4.3.03-8.59.05-12.89.06-1.34.01-2.69.03-4.07.04-1.24,0-2.49,0-3.77,0-1.1,0-2.19.01-3.32.02q-2.67-.31-5.25-2.9c1.36-.37,2.72-.75,4.12-1.13q5.25-1.47,11.4-4.04c.43-19.63.85-39.27,1.29-59.49-3.41-.43-6.83-.85-10.35-1.29v-6.47Z"/>
  <path class="cls-58" d="M1193.17,185.16c14.93,2.84,24.71,8.25,33.63,20.69,5.5,10.48,6.47,27.32,3.13,38.78-4.49,11.68-12.04,23.23-23.82,28.47-1.28-.43-2.56-.85-3.88-1.29q.64-1.28,1.29-2.59c-.85-.43-1.71-.85-2.59-1.29.62-.95,1.25-1.9,1.89-2.88q1.23-1.89,2.48-3.82c.81-1.25,1.62-2.49,2.46-3.77,7.08-11.86,7.74-26,5.56-39.48-2.91-10.26-9.6-17.33-18.77-22.47-1.74-.88-3.49-1.75-5.25-2.59.64-.56,1.28-1.12,1.94-1.7q2.37-2.18,1.94-6.06Z"/>
  <path class="cls-56" d="M1282.57,191.15c6.7.07,11.27.45,16.35,4.97,4.92,6.12,4.82,14.38,4.68,21.91-.81,5.49-2.79,7.5-6.96,11.11-5.2,2.65-9.48,2.87-15.28,2.75-1.5-.02-3-.05-4.55-.07-1.14-.03-2.28-.06-3.45-.09-.03-5.5-.06-11-.07-16.51,0-1.87-.02-3.75-.03-5.62-.02-2.69-.02-5.37-.03-8.06,0-1.62-.01-3.24-.02-4.91.26-6.58,3.46-5.31,9.36-5.49Z"/>
  <path class="cls-51" d="M586.6,211.03h1.29v15.52h2.59c.43,3.41.85,6.83,1.29,10.35h1.29v32.33c5.69,2.84,9.29,3.26,15.52,3.88v6.47h-40.09v-6.47c.81-.16,1.62-.32,2.46-.48,1.06-.27,2.11-.53,3.2-.81,1.05-.24,2.1-.48,3.18-.73,3.73-2.48,3.88-5.04,4.84-9.26.89-4.79,1.3-9.57,1.65-14.43.08-1.05.16-2.09.25-3.17.26-3.31.5-6.61.75-9.92.17-2.26.35-4.52.53-6.77.43-5.5.84-11,1.25-16.5Z"/>
  <path class="cls-63" d="M746.97,201.98h2.59q10.35,26.46,10.35,32.33h-23.28c1.41-7.4,3.32-13.69,6.53-20.5,1.71-3.87,2.77-7.74,3.82-11.84Z"/>
  <path class="cls-20" d="M1380.7,203.27h2.59c1.49,3.71,2.97,7.43,4.45,11.15.42,1.05.84,2.09,1.28,3.17.4,1.03.81,2.05,1.23,3.11.37.93.75,1.87,1.13,2.83q.98,3.02,2.27,10.78h-23.28c3.03-10.52,6.6-20.76,10.35-31.04Z"/>
  <path class="cls-19" d="M934.5,183.87h64.67c0,8.72-.2,16.12-1.29,24.57h-6.47c-.13-.8-.25-1.59-.38-2.41-.19-1.05-.39-2.09-.59-3.17-.18-1.04-.36-2.07-.55-3.14-1.37-3.75-2.86-4.72-6.24-6.81q-3.11-.64-6.45-.66c-1.21-.05-2.42-.09-3.66-.14q-1.88-.04-3.79-.09c-1.27-.04-2.54-.09-3.85-.13-3.13-.11-6.27-.2-9.4-.27v-1.29h20.69v-2.59c.85-.43,1.71-.85,2.59-1.29-14.94-.43-29.88-.85-45.27-1.29v-1.29Z"/>
  <path class="cls-53" d="M587.9,359.76h6.47q-1.28.64-2.59,1.29c.12,6.38.26,12.75.41,19.13.05,2.17.09,4.34.14,6.51.06,3.12.13,6.23.21,9.35.01.97.03,1.94.05,2.94.14,4.83.33,7.1,3.08,11.22q4.61.95,9.05,1.29v5.17h-31.04v-3.88q7.44-3.88,10.35-3.88c.19-1.15.37-2.29.57-3.48.41-2.43.86-4.86,1.39-7.27.71-3.95.9-7.74,1.04-11.75.05-1.55.11-3.11.16-4.71.05-1.61.1-3.22.15-4.88.06-1.64.11-3.27.17-4.96.14-4.03.27-8.06.4-12.1Z"/>
  <path class="cls-2" d="M1003.05,341.66c9.82.43,19.63.85,29.75,1.29v5.17c-1.15.16-2.29.32-3.48.48-8.88,4.36-11.5,16.48-14.63,25.38-1.28-1.28-2.56-2.56-3.88-3.88-1.28,3.84-2.56,7.68-3.88,11.64-1.53-6.1-.18-9.72,1.78-15.44q2.79-8.33,4.69-16.89c-3.41-.43-6.83-.85-10.35-1.29v-6.47Z"/>
  <path class="cls-49" d="M1124.62,392.09c-.2.77-.4,1.53-.61,2.32q-2.21,7.95-.68,15.79,3.2,1.78,6.47,2.59v3.88h-29.75v-5.17c1.39-.21,2.77-.43,4.2-.65,3.19-.89,4.52-1.5,6.51-4.19,1.92-3.88,3.41-7.83,4.89-11.9.4-.88.8-1.76,1.21-2.67q3.88-1.29,7.76,0Z"/>
  <path class="cls-62" d="M1137.56,357.18h2.59c1.3,3.61,2.59,7.22,3.88,10.83.37,1.03.74,2.05,1.12,3.11.35.98.7,1.97,1.06,2.98.33.91.65,1.82.99,2.75q.71,2.31.71,4.9h-18.11c1.68-8.69,4.27-16.45,7.76-24.57Z"/>
  <path class="cls-32" d="M391.31,217.5c5.27,1.88,9.53,4.45,14.15,7.6,1.29.88,2.58,1.75,3.92,2.66q1.94,1.33,3.93,2.68c2.58,1.73,5.17,3.45,7.76,5.17l-5.17,1.29-1.29,5.17c-9.18-6.3-18.33-12.6-27.16-19.4,1.28-1.71,2.56-3.41,3.88-5.17Z"/>
  <path class="cls-6" d="M1244.9,392.09h5.17c-.83,3.37-1.67,6.74-2.51,10.1-.24.95-.47,1.91-.71,2.89-.97,3.91-1.97,7.75-3.25,11.58h-23.28v-1.29c3.84-.43,7.68-.85,11.64-1.29l1.29-3.88-2.59-1.29c1.01-.08,2.03-.16,3.07-.24q1.68-.52,3.39-1.05,1.51-2.84,2.59-6.47c1.64-3.07,3.41-6.05,5.17-9.05Z"/>
  <path class="cls-61" d="M589.19,200.68h1.29c.43,3.41.85,6.83,1.29,10.35l2.59-5.17c.59,15.16-1.15,30.2-2.59,45.27h-1.29v-24.57h-2.59c-.13-8.75-.04-17.21,1.29-25.87Z"/>
  <path class="cls-65" d="M819.4,194.22h1.29v75.01c-1.71.85-3.41,1.71-5.17,2.59.21-.92.43-1.83.65-2.77.66-3.79.73-7.21.65-11.05q-.14-6.59,1.29-9.46c.1-3.29.12-6.55.08-9.84,0-.98,0-1.96-.01-2.97-.02-4.19-.06-8.39-.09-12.58-.02-3.06-.04-6.12-.05-9.19q-.02-1.4-.03-2.83c-.03-5.8.46-11.22,1.41-16.91Z"/>
  <path class="cls-4" d="M1012.1,355.88h7.76c-.33,2.05-.69,4.1-1.05,6.14-.2,1.14-.39,2.28-.59,3.46-1.01,3.58-2.43,5.7-4.82,8.51-.85-1.28-1.71-2.56-2.59-3.88-1.28,3.84-2.56,7.68-3.88,11.64q-1.45-5.82,0-10.21c.3-.92.59-1.83.9-2.78.32-.94.64-1.89.97-2.86q.47-1.45.95-2.92c.78-2.37,1.57-4.74,2.36-7.1Z"/>
  <path class="cls-55" d="M963.41,185.04c1.1,0,2.2,0,3.33.01,1.15.01,2.3.02,3.49.03,1.16,0,2.32.01,3.52.02,2.87.02,5.74.04,8.61.06q-2.56,1.28-5.17,2.59v2.59q-10.88.64-21.99,1.29v-5.17c3.04-1.52,4.83-1.44,8.21-1.42Z"/>
  <path class="cls-60" d="M965.54,371.4h5.17c-.59,2.27-1.18,4.53-1.78,6.79-.33,1.26-.66,2.52-1,3.82-.97,3.18-2.1,5.89-3.69,8.79-1.28-.85-2.56-1.71-3.88-2.59l-2.59,1.29q4.21-13.7,7.76-18.11Z"/>
  <path class="cls-70" d="M834.92,411.49h9.05c.43.85.85,1.71,1.29,2.59,8.11.43,16.22.85,24.57,1.29v-2.59c-.85-.43-1.71-.85-2.59-1.29h6.47v5.17h-38.8v-5.17Z"/>
  <path class="cls-73" d="M1199.63,266.64l2.59,1.29q.81,3.31,1.29,6.47c-2.99.43-5.98.85-9.05,1.29v-2.59h-3.88c-.43.85-.85,1.71-1.29,2.59v-2.59h-16.81v-1.29c1.42-.16,2.84-.31,4.3-.47,1.88-.22,3.76-.44,5.64-.66.93-.1,1.87-.2,2.83-.31,5.24-.62,9.48-1.71,14.39-3.73Z"/>
  <path class="cls-36" d="M668.08,183.87h29.75v6.47h-11.64v-3.88h-18.11v-2.59Z"/>
  <path class="cls-50" d="M885.36,341.66h3.88c.13,7.9.09,15.49-1.29,23.28h-5.17q-.32-8.57,2.59-12.93c.5-2.57.95-5.16,1.29-7.76-.85-.43-1.71-.85-2.59-1.29l1.29-1.29Z"/>
  <path class="cls-7" d="M1084.53,183.87h32.33v1.29l-20.69,1.29c-.43,1.28-.85,2.56-1.29,3.88h-10.35v-6.47Z"/>
  <path class="cls-72" d="M1362.59,273.11h9.05v6.47h-28.45v-1.29c5.98-.43,11.95-.85,18.11-1.29.43-1.28.85-2.56,1.29-3.88Z"/>
  <path class="cls-57" d="M1132.38,183.87h36.21v1.29h-28.45v3.88c-2.56.43-5.12.85-7.76,1.29v-6.47Z"/>
  <path class="cls-16" d="M878.89,183.87h36.21v6.47h-6.47v-3.88q-14.72-.64-29.75-1.29v-1.29Z"/>
  <path class="cls-52" d="M1069.17,410.77c1.42.13,2.83.26,4.29.4,1.09.11,2.18.22,3.3.33.43,1.28.85,2.56,1.29,3.88h-18.11c-.43-1.28-.85-2.56-1.29-3.88,3.67-1.83,6.45-1.12,10.51-.73Z"/>
  <path class="cls-25" d="M1131.09,361.06c1.28.43,2.56.85,3.88,1.29-.85,3.84-1.71,7.68-2.59,11.64-1.71.43-3.41.85-5.17,1.29-.43.85-.85,1.71-1.29,2.59.68-3.57,1.43-6.89,2.59-10.35h2.59v-6.47Z"/>
  <path class="cls-37" d="M1252.66,352c1.28.43,2.56.85,3.88,1.29.43,3.41.85,6.83,1.29,10.35-2.13.43-4.27.85-6.47,1.29.43-4.27.85-8.54,1.29-12.93Z"/>
  <path class="cls-21" d="M1296.63,411.49h10.35v5.17h-12.93l2.59-5.17Z"/>
  <path class="cls-8" d="M327.94,357.18c1.6,4.8.73,6.05-1.21,10.59-.49,1.17-.98,2.33-1.49,3.53-.39.89-.78,1.78-1.18,2.69h-2.59c-.43,1.71-.85,3.41-1.29,5.17q-1.29-2.59-.33-5.81.73-1.88,1.47-3.8t1.44-3.79q.65-1.68,1.3-3.4c.43-1.28.85-2.56,1.29-3.88l2.59-1.29Z"/>
  <path class="cls-15" d="M274.91,306.74h2.59c1.28,4.27,2.56,8.54,3.88,12.93-1.72-1.72-3.45-3.45-5.17-5.17v3.88h-2.59v2.59h-2.59c.4-1.39.8-2.77,1.21-4.2.94-3.34,1.86-6.65,2.67-10.02Z"/>
  <path class="cls-27" d="M1436.31,273.11v5.17h-12.93v-2.59c4.71-3.14,7.39-2.8,12.93-2.59Z"/>
  <path class="cls-75" d="M666.79,204.56h1.29v16.81c-1.28-1.28-2.56-2.56-3.88-3.88-.43.85-.85,1.71-1.29,2.59h-2.59c1.7-5.48,3.81-10.44,6.47-15.52Z"/>
  <path class="cls-37" d="M712.05,367.52h5.17v23.28h-1.29v-18.11c-2.13.85-4.27,1.71-6.47,2.59.85-2.56,1.71-5.12,2.59-7.76Z"/>
  <path class="cls-21" d="M627.99,342.95h11.64c-.85,2.13-1.71,4.27-2.59,6.47-2.99-.43-5.98-.85-9.05-1.29v-5.17Z"/>
  <path class="cls-19" d="M1079.36,367.52h5.17v24.57c-1.71-.43-3.41-.85-5.17-1.29h3.88v-19.4c-1.28.43-2.56.85-3.88,1.29v-5.17Z"/>
  <path class="cls-24" d="M1010.81,361.06c2.45,3.09,3.91,5.27,5.17,9.05q-1.28,1.92-2.59,3.88c-.85-1.28-1.71-2.56-2.59-3.88-1.28,3.84-2.56,7.68-3.88,11.64-1.46-5.86-.78-7.71,1.21-13.26.49-1.39.98-2.79,1.49-4.22q.58-1.59,1.18-3.21Z"/>
  <path class="cls-69" d="M867.25,411.49h6.47v5.17h-24.57v-1.29h20.69v-2.59l-2.59-1.29Z"/>
  <path class="cls-45" d="M960.37,380.46l1.29,2.59c1.28-.43,2.56-.85,3.88-1.29q1.29,3.88.08,6.71-.68,1.16-1.37,2.34c-1.28-.85-2.56-1.71-3.88-2.59q-1.28.64-2.59,1.29c.85-2.99,1.71-5.98,2.59-9.05Z"/>
  <path class="cls-64" d="M789.65,352q1.45,2.18,2.59,5.17c-1.29,4.92-2.14,6.17-6.47,9.05-.85-.43-1.71-.85-2.59-1.29l6.47-12.93Z"/>
  <path class="cls-5" d="M1185.41,341.66h6.47c.43,2.13.85,4.27,1.29,6.47h-7.76v-6.47Z"/>
  <path class="cls-74" d="M818.11,248.54h1.29v21.99c-1.28.43-2.56.85-3.88,1.29.21-.92.43-1.83.65-2.77.66-3.79.73-7.21.65-11.05q-.14-6.59,1.29-9.46Z"/>
  <path class="cls-66" d="M1092.29,395.97h6.47c-.43,2.13-.85,4.27-1.29,6.47-2.56.43-5.12.85-7.76,1.29.85-2.56,1.71-5.12,2.59-7.76Z"/>
  <path class="cls-54" d="M1137.56,357.18h2.59c.85,3.41,1.71,6.83,2.59,10.35q-3.84-.64-7.76-1.29c.85-2.99,1.71-5.98,2.59-9.05Z"/>
  <path class="cls-41" d="M396.49,221.38q3.2,1.28,6.47,2.59c-.85,1.71-1.71,3.41-2.59,5.17h-3.88q-1.45-4.85,0-7.76Z"/>
  <path class="cls-3" d="M1376.82,203.27l2.59,2.59q-.48,4.04-1.29,7.76c-.85-1.28-1.71-2.56-2.59-3.88-1.71.43-3.41.85-5.17,1.29,1.47-4.4,2.75-5.24,6.47-7.76Z"/>
  <path class="cls-44" d="M1244.9,392.09l5.17,1.29-2.59,1.29q-.56,1.56-1.13,3.15-1.45,3.31-4.2,5.01-1.2.44-2.42.89c1.55-3.99,3.2-7.84,5.17-11.64Z"/>
  <path class="cls-30" d="M781.89,362.35c1.28.43,2.56.85,3.88,1.29q-.97,6.14-3.88,9.05v-3.88c-1.28-.43-2.56-.85-3.88-1.29,1.28-1.71,2.56-3.41,3.88-5.17Z"/>
  <path class="cls-1" d="M1319.91,355.88q2.59,2.59,2.75,5.98c-.05,1.01-.11,2.03-.16,3.07h-5.17q-.16-3.07,0-6.47l2.59-2.59Z"/>
  <path class="cls-2" d="M823.28,355.88c-.43,2.56-.85,5.12-1.29,7.76h-5.17v-6.47q2.59-1.29,6.47-1.29Z"/>
  <path class="cls-68" d="M1332.85,341.66h6.47c-.43,2.13-.85,4.27-1.29,6.47h-5.17v-6.47Z"/>
  <path class="cls-67" d="M1000.46,252.42h6.47q.81,2.99,1.29,6.47-1.28,1.92-2.59,3.88v-6.47c-2.13.43-4.27.85-6.47,1.29l1.29-5.17Z"/>
  <path class="cls-64" d="M1374.23,208.44l2.59,1.29q-.32,2.42-1.29,5.17-2.67,1.62-5.17,2.59-.24-3.07,0-6.47c1.28-.85,2.56-1.71,3.88-2.59Z"/>
  <path class="cls-28" d="M445.63,182.58q-.48,3.8-1.29,7.76-1.28.64-2.59,1.29v-3.88c-1.28-.43-2.56-.85-3.88-1.29q4.85-3.88,7.76-3.88Z"/>
  <path class="cls-39" d="M841.39,183.87h7.76v6.47h-6.47c.43-1.28.85-2.56,1.29-3.88l-2.59-2.59Z"/>
  <path class="cls-10" d="M825.87,352h2.59q-2.1,8.73-6.47,11.64c.64-4.83,1.13-7.52,3.88-11.64Z"/>
  <path class="cls-22" d="M859.49,349.42h7.76q-1.24,1-2.51,2.02c-3.39,4.01-3.56,7.06-3.96,12.21h-1.29v-14.23Z"/>
  <path class="cls-37" d="M995.29,199.39c1.89,3.42,2.59,5.04,2.59,9.05h-6.47c.43-1.71.85-3.41,1.29-5.17v3.88c.85-2.56,1.71-5.12,2.59-7.76Z"/>
  <path class="cls-33" d="M762.49,386.92c.43,1.28.85,2.56,1.29,3.88q-1.57,2.36-3.8,4.77c-.73.81-1.46,1.61-2.22,2.44-.58.61-1.15,1.22-1.74,1.84-.85-.43-1.71-.85-2.59-1.29,2.99-3.84,5.98-7.68,9.05-11.64Z"/>
  <path class="cls-48" d="M765.08,389.51c1.28.43,2.56.85,3.88,1.29-2.13,2.13-4.27,4.27-6.47,6.47-.85-.85-1.71-1.71-2.59-2.59l5.17-5.17Z"/>
  <path class="cls-76" d="M1004.34,383.04c2.13.43,4.27.85,6.47,1.29-.85,1.71-1.71,3.41-2.59,5.17-.85-.43-1.71-.85-2.59-1.29-1.28,1.28-2.56,2.56-3.88,3.88.85-2.99,1.71-5.98,2.59-9.05Z"/>
  <path class="cls-26" d="M1380.7,203.27h2.59c.85,2.56,1.71,5.12,2.59,7.76-2.13-.43-4.27-.85-6.47-1.29.43-2.13.85-4.27,1.29-6.47Z"/>
  <path class="cls-71" d="M1116.86,392.09q2.59,2.59,2.59,7.76c-1.71.43-3.41.85-5.17,1.29.85-2.99,1.71-5.98,2.59-9.05Z"/>
  <path class="cls-61" d="M1010.81,368.82q2.59,2.59,2.59,7.76h-5.17c.85-2.56,1.71-5.12,2.59-7.76Z"/>
  <path class="cls-23" d="M272.33,253.71q3.88,1.29,6.47,5.17-.48,4.12-1.29,7.76h-1.29c-.43-3.41-.85-6.83-1.29-10.35h-2.59v-2.59Z"/>
  <path class="cls-35" d="M392.61,207.15c-.85,2.13-1.71,4.27-2.59,6.47-1.71-.43-3.41-.85-5.17-1.29v-2.59q4.85-2.59,7.76-2.59Z"/>
</svg>