<?xml version="1.0" encoding="UTF-8"?>
<svg id="Layer_1" data-name="Layer 1" xmlns="http://www.w3.org/2000/svg" viewBox="0 0 1600 600">
  <defs>
    <style>
      .cls-1 {
        fill: #fff;
      }

      .cls-2 {
        fill: #0e3d62;
      }
    </style>
  </defs>
  <path d="M1390.69,350.02h-32.36c-2.65-8.52-2.79-17.13-3.1-26.18l-.77-22.23c-.31-8.79-7.2-15.6-16.26-15.69l-15.34-.14v64.32l-32.09-.15v-155.14s62.9.31,62.9.31c15.5.08,27.54,10.19,31.53,24.61,5.43,23.66.95,47.87-23.89,53.98,13.21,2,21.48,9.34,23.93,21.54,3.33,18.6-1.19,37.22,5.43,54.76h0ZM1353.22,251.82c2.41-7.61,2.63-15.13.74-22.46-1.7-6.68-7.21-11.37-14.25-11.46l-16.81-.2-.07,44.32,17.03-.27c6.21-.09,10.9-4.16,13.35-9.93h0Z"/>
  <path d="M1205.93,350.72c-29.49,5.91-60.1-1.4-67.26-31.55l-2.81-17.14-.44-53.01c-.08-9.23,1.55-18.03,4.17-26.79,4.16-13.88,14.61-23.87,28.69-27.64,13.97-3.75,28.66-3.64,42.5.58,13.28,4.05,22.7,13.85,26.6,27.08,2.56,8.7,4.17,17.57,4.16,26.76l-.03,47.87c0,8.83-1.65,17.36-4.28,25.66-4.62,14.56-15.93,25.1-31.3,28.18h0ZM1189.87,329.5c7.58-.45,12.97-4.17,15.31-10.97,2.15-6.23,3.89-12.93,3.91-19.75l.09-51.05c.01-7.39-1.6-14.65-3.9-21.36-2.57-7.53-8.66-11.06-16.16-11.3-16.27-.51-20.31,13.61-21.29,30.07-1.07,18.08-1.04,35.72-.02,53.81.93,16.44,4.75,31.58,22.04,30.55h0Z"/>
  <path d="M944.75,350.07l-9.02-34.76h-44.25l-8.69,34.7-31.95.07,43.03-155.27,42.19-.02,10.3,37.8,32.32,117.49h-33.92s0,.01,0,.01ZM929.22,291.46l-15.99-66.62-15.65,66.72,31.64-.09h0Z"/>
  <polygon points="792.17 194.86 824.09 194.81 782.82 349.99 745.75 350.03 706.79 195.01 740.31 194.83 765.33 308.98 792.17 194.86"/>
  <polygon points="1098.99 324.38 1099.08 350.01 1017.81 350.01 1017.78 194.82 1049.64 194.89 1049.64 324.38 1098.99 324.38"/>
  <g>
    <rect class="cls-1" x="784.43" y="372.97" width="556.3" height="36.82"/>
    <path d="M1340.64,409.84h-556.06l-.14-36.92h556.3l-.09,36.92h0ZM807.65,404.07c4.29-.73,6.56-3.85,6.52-7.36-.04-3.7-2.17-6.05-5.96-7.22l-6.85-2.11c-.58-.18-1.58-1.64-1.51-2.19.25-2.08,4.24-3.3,7.47-1.47.74,1.1,1.26,2.67,2.11,2.63l3.76-.2c.2-3.16-1.61-5.89-4.8-6.85-2.45-.74-5.78-.75-8.19.01-3.23,1.02-5,3.61-4.93,6.58.06,2.43,1.84,5.35,4.46,6.18l8.28,2.64c.96.31,1.65,2.53.98,3.45-1.49,2.09-3.76,2.57-6.22,1.97-1.68-.41-2.81-1.99-3.54-4.63l-5.08.69c1.55,6.85,6.36,9.1,13.47,7.89h0ZM861.93,390.82c-.24-7.42-5.21-12.48-12.33-12.16-6.75.3-10.83,5.94-10.8,12.91.04,7.48,4.63,13.15,12.08,12.86,7.04-.28,11.3-5.89,11.05-13.6h0ZM881.11,403.92l5.54-.21c-2.22-4.32-4.1-7.4-7.17-10.79,4.03-.71,6-4.2,5.59-7.75-.44-3.68-3.5-6.02-7.55-6.04l-11.97-.04-.03,24.66c1.49.22,3.69.09,4.88-.43l.14-9.28c2.03-.86,4.6.2,5.77,2.09l4.81,7.81h0ZM925.78,391.26c-4.44-3.12-12.6-3.02-11.61-6.06.7-2.15,3.3-2.68,5.31-2.36,1.44.23,2.6,1.65,3.81,3.49l4.34-.43c-.43-6.02-5.61-7.5-10.47-7.23-3.97.22-7.11,2.22-7.63,5.88-.47,3.33,1.23,6.77,4.86,7.78l6.47,1.8c1.04.28,2.62,2.03,2.46,3.03-.14.88-1.47,2.55-2.33,2.81-1.48.45-4.13.39-5.26-.36-.9-.6-1.61-2.22-2.5-3.63-.85-.54-3.59-.23-4.62.11.41,6.07,5.09,8.53,10.62,8.28,3.31-.15,6.69-1.33,8.06-3.86,1.55-2.87,1.66-7.03-1.49-9.24h0ZM956.05,402.74c2.93-1.96,3.62-4.94,3.09-7.72-.44-2.38-2.61-4.47-5.22-5.27l-6.69-2.05c-.95-.29-2.3-2.27-1.86-3.05.38-.66,1.82-1.55,2.7-1.72,2.56-.49,5.02.18,5.78,3.08l4.72.2c.15-2.69-1.23-5.43-4.03-6.58-3.35-1.37-7.47-1.39-10.73.25-2.71,1.36-3.65,4.32-3.19,7.26.28,1.83,2.33,4.51,4.6,5.15l6.53,1.85c1.17.33,2.71,1.94,2.6,3.1-.09,1.05-1.82,2.71-2.87,2.91-3.73.7-6.37-.66-6.94-4.57l-4.92.35c.47,5.53,4.19,8.22,9.19,8.42,2.26.09,5.29-.3,7.25-1.61h0ZM990.21,392.97l11.68.04.12-4.17-11.92-.1v-5.41h12.83l-.07-4.29-17.71.09.09,24.82,17.98-.03.11-4.1-13.03-.06-.07-6.8h-.01ZM1011.67,396.1c-.88-3.28-.92-6.95.25-9.86.9-2.24,3.51-3.51,5.58-3.3s3.61,1.76,4.86,3.87c1.04.39,3.67-.26,4.54-1.06-1.01-4.59-4.81-6.88-8.91-7.07-7.41-.34-12.04,5.03-12.21,12.24-.12,4.76,1.44,9.6,5.43,11.86,3.82,2.17,9.01,2.41,12.63-.67,1.66-1.41,2.52-3.56,3.51-5.84l-4.97-1.33c-.89,3.25-2.37,4.95-4.86,5.25s-5.03-1.17-5.82-4.09h0ZM1065.51,403.39l-.03-24.33-5,.04.08,24.02c1.02,1.08,3.85,1.16,4.95.26h0ZM1074.94,395.96c-.69-2.89-.69-6.42.06-9.05.77-2.71,3.3-4.12,5.7-3.97s3.81,1.49,5.18,4.2l4.46-1.11c-1.52-5.29-5.6-7.69-10.62-7.32-4.48.33-8.28,2.92-9.59,7.36-1.03,3.49-1.18,7.63-.02,11.05,1.71,5.06,6.47,7.74,11.59,7.17,4.62-.53,7.79-3.18,8.82-8.17l-4.91-1.26c-.86,3.53-2.36,5.1-4.89,5.37-2.39.25-5.02-1.25-5.74-4.26h-.01ZM1119.01,391.49c-4.59-3.35-13.81-3.31-11.49-6.98,1.39-2.19,5.77-2.37,7.13-.45s2.9,2.99,5.75,1.9c.5-2.33-1.54-5.64-4.4-6.56-3.31-1.06-7.16-1.07-10.27.53-2.63,1.36-3.57,4.33-3.14,7.18.28,1.84,2.22,4.46,4.62,5.18l7.19,2.17c.55.17,1.71,1.23,1.92,1.76s-.23,1.79-.71,2.44c-1.15,1.55-3.65,1.99-5.77,1.39-1.41-.41-2.64-2.17-3.51-4.37l-4.72.24c.49,6.42,5.46,8.85,11.06,8.42,3.17-.24,6.49-1.39,7.74-4.05,1.21-2.6,1.56-6.62-1.4-8.79h0ZM1152.11,392.97l11.67.05-.08-4.21-11.7-.06-.04-5.41,12.64-.04-.08-4.3-17.49.19.05,24.77,17.95-.04.1-4.14-13.17.09.15-6.91h0ZM1209.39,397.84c1.53-4.07,1.36-8.9-.15-12.74s-5.13-6.04-9.25-6.03h-9.74s.03,24.79.03,24.79l9.03.11c4.34.05,8.36-1.59,10.07-6.13h0ZM1238.46,394.72c-.65,4.05-2.22,5.02-4.73,5.45-1.64.29-4.53-.9-5.3-2.75-1.52-3.6-1.64-7.67-.23-11.27.84-2.14,3.57-3.45,5.6-3.22s3.51,1.63,4.81,3.99l4.46-.68c-.71-3.43-2.36-5.67-5.47-6.85-4.16-1.59-9.57-.56-12.53,2.97s-3.35,8.47-2.64,12.83c.92,5.67,5.48,9.23,11.12,9.17,5.02-.05,8.85-2.84,9.6-8.16l-4.69-1.5h0ZM1296.32,402.91l-.06-22.87c0-1.17-4.42-1.17-4.44,0l-.26,15.36-9.91-15.96-5-.44-.03,24.81,4.59.07.15-15.91,9.71,15.44c.69,1.09,5,.82,5.26-.49h0ZM1315.59,396.41c-1.91-6.08-.5-13.34,4.99-13.47,2.72-.07,4.46,1.28,5.76,4.19l4.35-.9c-.92-4.75-4.59-7.42-9.08-7.57-7.23-.26-11.72,5.26-11.9,12.23-.16,6.01,2.58,11.9,8.63,13.24,5.96,1.31,11.43-1.79,12.55-7.86l-4.65-1.44c-.77,2.89-2.08,5.01-4.43,5.35-2.49.36-5.26-.75-6.21-3.77h0ZM822.78,394.75c3.99-.11,6.29-.07,8.81-.7,3.47-.88,4.74-4.58,4.67-7.54-.06-2.8-1.62-6.93-5.21-7.02l-13.23-.31-.09,24.63h4.78l.26-9.06h.01ZM899.69,403.66l-.14-20.27,7.37-.14-.2-4.15-18.76-.03-.6,4.2,7.37.09.04,20.37c1.76.15,3.57.14,4.91-.09h0ZM968.15,394.56c4.6.36,7.74.36,10.92-1.63,2.26-1.41,2.9-5.05,2.57-7.58-.99-7.8-9.57-6.27-18.53-6.13l-.09,24.57,5.02.11.11-9.33h0ZM1035.83,403.76l-.12-23.76c-1.27-.82-3.5-1.02-4.99-.68l.06,24.49,5.05-.06h0ZM1054.79,389.26l-9.41-.04v-5.88l11.68-.04-.5-4.25-16.32.12.02,24.6,5.08.13.07-10.39,9.47-.09c.89-.54.94-3.86-.08-4.15h0ZM1130.08,394.62c3.9.27,7.45.33,10.49-1.36,2.46-1.36,3.16-4.74,2.99-7.37-.55-8.3-9.25-6.88-18.65-6.69l.09,24.57,4.95.11.11-9.27h0ZM1185.6,392.97l-.24-4.17-11.64-.03.04-5.41h12.28c.34-.93.37-3.12.1-4.3l-17.41.12-.08,24.76,18.26.04-.19-4.16-13.01-.04-.04-6.8h11.94ZM1263.51,399.83l-11.53-.04v-20.47l-4.9.02v24.58h16.15c.99,0,1.25-3.87.28-4.09ZM1272,402.97l.05-23.76-5,.08.08,24.37c1.14.67,4.83.46,4.88-.69h0ZM1306.03,403.39v-23.98c-1.51-.47-3.77-.33-4.96.58l.06,23.09c.83,1.1,3.9,1.25,4.9.3h0Z"/>
    <path d="M876.62,389.82l-6.14.06v-6.61l7.82.2c1.04.03,1.96,2.61,1.74,3.61-.28,1.28-1.99,2.73-3.42,2.74Z"/>
    <path d="M856,396.29c-.79,2.21-3.08,3.73-5.12,3.9-2.07.17-4.59-1.08-5.7-3.18-1.88-3.57-1.87-8.4.49-11.84,2.18-3.17,7.72-3.04,9.71.28,1.94,3.23,1.89,7.33.63,10.84h0Z"/>
    <path d="M1203.57,398.23c-1.74,2.26-5.77,1.61-8.36,1.35v-16.06c2.81-.35,6.82-.85,8.55,1.61,2.36,3.35,2.57,9.52-.18,13.1h0Z"/>
    <path d="M1136.46,390.11l-6.47.62.04-7.42,6.19.19c1.03.03,2.44,2.05,2.53,3.05.09,1-1.17,3.45-2.3,3.56Z"/>
    <path d="M974.66,390.09l-6.61.61v-7.53l5.34.1c1.14.02,3.04,1.62,3.31,2.71s-.87,4-2.04,4.11h0Z"/>
    <path d="M828.29,390.45l-5.67.21.07-7.34,6.44.18c1.2.04,2.4,2.64,2.3,3.71-.11,1.25-1.79,3.2-3.14,3.25h0Z"/>
  </g>
  <g>
    <circle class="cls-2" cx="446.23" cy="300.01" r="220.39"/>
    <path class="cls-1" d="M620.47,460.5c-58.15,63.27-145.33,90.04-228.44,70.38-95.79-22.65-168.3-102.91-180.81-200.77-9.52-74.42,16.82-149.01,71.06-201.08,42.3-40.61,98.1-64.55,157.01-66.17,59.99-1.65,117.74,19.14,162.73,58.54,100.17,87.73,109.01,240.55,18.45,339.08h0ZM491.93,515.59c85.5-18.22,152.6-85.9,170.16-171.29,10.65-51.77,2.23-105.99-23.68-152.16-10.65-18.97-23.93-35.88-39.43-50.83-84.48-81.53-217.53-82.4-303.5-1.79-46.06,43.18-71.39,104.1-69.39,167.32,1.95,61.88,29.35,118.85,75.8,159.39,51.89,45.28,122.22,63.81,190.03,49.36h0Z"/>
    <path class="cls-1" d="M551.9,234.6l-.09,30.03-42.19.04-52.18,141.05-49.14.09c-.72-3.3-1.59-5.28-4.13-6.96l-50.68-133.94-10.65-.12.04-6.21-3.66-.46v-27.29l69.65-.09.49,3.82,5.97.03v30.01l-11.94.12,27.79,88.51,19.08-58.32,21.12-64.15,74.03.04.32,3.81h6.18ZM429.03,354.03l-28.68-91.46,12.76-.06v-25.58s-3.93-.07-3.93-.07v21.58l-12.82.12,32.16,101.96c1.68-2.14,1.36-3.76.51-6.5h0ZM410.34,403.64h45.45l52.21-141.08,41.78-.04-.06-25.7h-4.12v21.52s-41.35.2-41.35.2l-52.29,141.16-40.78.12c-.65,0-2.22.82-2,1.31l1.15,2.52h0ZM352.45,262.61l-1.1-3.61c-.31-1.01-6.4-.99-6.23.16l.48,3.32,6.85.13h0Z"/>
    <path class="cls-1" d="M285.1,243.93c.36,8.19-6.02,14.23-13.35,13.72-7.55-.53-13-6.91-12.06-14.81.8-6.75,6.32-11.15,12.77-11.12,6.58.03,12.31,4.74,12.64,12.21h0ZM272.18,237.48c-4.26.09-7.27,3.63-6.99,7.69.26,3.86,3.78,6.91,7.85,6.69,3.84-.2,6.81-3.73,6.53-7.81-.25-3.67-3.3-6.67-7.39-6.57Z"/>
    <path class="cls-1" d="M564.73,179.29c-3.36-2.24-5.92-4.97-8.86-8.09l17.24-18.13,6.88,6.46c4.86,4.56,5.38,11.64,1.6,16.75-3.78,5.11-11.03,6.88-16.85,3h0ZM575.82,173.82c2.16-1.74,2.96-5.52,2.06-7.94-.66-1.76-2.59-3.74-4.56-5.05l-9.56,10.51c2.87,4.03,7.88,5.86,12.06,2.49h0Z"/>
    <path class="cls-1" d="M636.93,256.94l-25.09,6.91c2.7-7.01,6.23-11.59,9.76-18.97l-13.15,3.43-1.82-5.33,25.57-7.01-9.77,19.11,13.1-3.51,1.39,5.37h0Z"/>
    <path class="cls-1" d="M284.85,223.22l7.75,4.19-2.52,4.94-22.16-11.39,4.56-9.22c1.77-3.58,5-5.29,8.95-4.55,3.55.66,6.13,3.94,5.96,8.2l11.28-.06-2.57,5.51-10-.34c-.69-.02-1.84,2.4-1.25,2.72h0ZM280.28,220.93l2.01-5.08c.39-.99-.77-2.98-1.71-3.29s-3.16.5-3.61,1.4l-2.11,4.28,5.41,2.69h0Z"/>
    <path class="cls-1" d="M435.59,479.22l-5.76,9.6c-.19.31-.94,1.06-1.25.87s-.97-.93-1.12-1.3l-4.2-10.31-2.42,10.4-4.86-.49c2.02-8.31,3.18-14.91,6.16-23l7.16,15.47c3.43-5.09,5.24-9.18,9.64-14.02l2.68,23.73-4.94-.33-1.08-10.63h0Z"/>
    <path class="cls-1" d="M538.18,146.61l-7.84-4.21-2.38,4.23,9.5,5.05c-.59,1.47-1.62,3.2-2.83,4.73l-14.29-7.72,11.57-22.29,14.41,7.45-2.16,4.89-9.59-5.05-1.84,4.15,7.61,3.93-2.18,4.85h.01Z"/>
    <path class="cls-1" d="M372.98,137.13l-8.27,3.65,2.11,4.7,9.06-4.26c1.27-.6,3.27,3.58,2.37,4.71l-14.24,6.67-10.99-22.7,14.51-7.23c.96,1.31,1.79,2.92,2.54,4.64l-9.61,4.83,2,3.89,8.04-3.6,2.49,4.71h0Z"/>
    <path class="cls-1" d="M556.71,159.06l-7.58-4.99-2.76,3.83,8.73,6.05c-.53,1.55-1.45,3.15-2.68,4.77l-13.66-9.79,14.3-20.61,13.36,9.23-2.91,4.52-8.81-6.12-2.59,3.67,7.2,5.11-2.62,4.3h0Z"/>
    <path class="cls-1" d="M501.82,481.98c-5.32,2.06-10.86-.2-13.54-4.34-2.78-4.28-2.56-10.11,1.04-14.2,4.78-5.45,13.44-4.52,17.53,1.17s2.37,14.49-5.02,17.36h0ZM499.28,477.49c3.55-.99,5.18-4.28,4.48-7.45-.57-2.62-2.92-5.37-6.25-5.17-4.09.24-6.68,3.73-5.86,7.74.59,2.9,3.68,5.99,7.63,4.89h0Z"/>
    <path class="cls-1" d="M523.4,473.82l-9.12-19.05-.52-1.03c-.15-.28,1.13-1.08,1.47-.97l16.02,5.2-4.67-10.31c.98-.92,2.69-1.87,4.32-2.47l10.11,20.96-18.46-5.79,5.51,11.18-4.67,2.28h.01Z"/>
    <path class="cls-1" d="M346.02,163.84l-13.45-21.35,8.11-5.3c3.68-2.41,8.51-1.06,10.75,2.11,2.46,3.49,2.3,8.58-1.57,11.24l-3.95,2.72,4.96,7.41-4.83,3.17h0ZM343.46,148.91c2.13-1.71,3.41-2.8,3.99-4.13.41-.95-1.6-3.6-2.6-3.31-1.48.42-3.23,1.46-4.85,2.5l3.45,4.94h0Z"/>
    <path class="cls-1" d="M384.16,131.9c1.27,1.95,3.91,3.49,5.79,3.41,2.75-.11,4.4-1.14,6.43-4.08l4.87,2.49c-2.98,6.96-10.86,9.02-17.22,5.91-6.02-2.95-9.06-10.52-6.21-16.81s10.41-9.93,17.6-6.42l-2.03,4.91c-3.71-1.43-6.48-.76-8.66,1.47s-2.7,5.84-.58,9.11Z"/>
    <path class="cls-1" d="M316.21,417.51c6.27-2.06,12.39,1.82,14.18,7.32,1.95,5.97-1.48,12.5-7.21,14.29-5.85,1.83-12.18-1.18-14.21-6.75s.75-12.73,7.23-14.87ZM318.51,422.2c-3.57.73-5.75,4.3-4.97,7.63s4.21,5.63,7.66,4.65c3.03-.85,5.19-4.31,4.51-7.65-.63-3.06-3.67-5.37-7.2-4.65h0Z"/>
    <path class="cls-1" d="M509.6,133.95l-3.77,8.68-5.08-2.09,8.77-23.31,8.9,3.12c4.83,1.69,6.64,7.37,4.23,11.62s-7.45,5.7-13.05,1.98h0ZM516.42,130.53c.93-.07,2.11-2.71,1.68-3.5-.35-.66-1.41-1.78-2.11-2.03l-3-1.11-1.96,5.22c1.32.7,3.57,1.55,5.39,1.42h0Z"/>
    <path class="cls-1" d="M455.56,118.03c-.88,3.36.58,6.57,2.84,8.07,2.74,1.82,5.74,1.71,9.01-.48l3.6,4.02c-5.3,5.04-13.37,4.52-18.27-.57-4.78-4.96-4.62-13.4.42-18.3,5.08-4.94,13.15-5.1,18.6.52l-3.55,3.6c-2.72-1.68-4.6-2.59-7.34-2.22-2.19.3-4.55,2.46-5.31,5.36h0Z"/>
    <path class="cls-1" d="M595.63,190.67c-4.13.66-6.11,3.8-6.36,7.05-.26,3.54,2.25,6.29,6.09,7.26l-.39,5.19c-7.56-.35-12-6.52-11.54-13.64s7.18-12.61,14.37-11.77c6.82.79,12.48,7.12,11.45,14.48l-5.03-.2c-.2-2.58-.5-4.93-2.18-6.53-1.27-1.2-4.3-2.17-6.41-1.83h0Z"/>
    <path class="cls-1" d="M354.93,467.65l.58-7.36c.08-.98-.79-2.43-1.86-3.35l-4.47,7.65-4.32-2.63,10.94-19.35,9.43,5.21c2.91,1.6,3.56,5.43,2.45,8.45-.95,2.6-3.89,4.43-7.33,4.16l-.54,9.92-4.89-2.69h0ZM359.66,455.71c1.02.56,3.35-.82,3.49-1.92.11-.85-.77-2.44-1.55-2.9l-3.54-2.03-2.74,4.46,4.35,2.39h0Z"/>
    <path class="cls-1" d="M276.81,280.18l-24.81-4.34,1.79-10.22c.88-5.02,7.14-6.72,11.22-4.89,4.54,2.04,5.85,7.34,3.43,12.32l9.29,1.76-.93,5.37h0ZM263.78,272.35l.39-3.83c.09-.88-.85-2.44-1.64-2.81-.66-.31-2.98.1-3.17.79l-1.28,4.64,5.71,1.22h0Z"/>
    <path class="cls-1" d="M339.13,168.77c-2.41,4.6-6.57,6.45-11.48,6.58l-.88-4.89,5.67-1.54c.72-.2,1.61-2.12,1.58-2.88-.04-.91-2.08-2.08-2.99-1.87l-5.96,1.39c-2.97.69-6.1-.54-7.62-2.79s-1.61-5.67.09-8.15c2.38-3.49,6.02-5.29,10.27-5.43l.68,4.93-5.05,1.41c-.82.23-1.87,2.13-1.7,2.91.89,3.85,6.79-.79,12.46.02,4.45.64,7,6.34,4.92,10.31h0Z"/>
    <path class="cls-1" d="M635.24,296.89c2.76-3.65,2.21-8.07-1.03-10.57-2.86-2.21-7.38-2.22-10.15.78-2.6,2.82-2.98,7.4.71,10.6l-3.65,4.08c-5.99-4.8-6.26-12.87-1.59-18.37,4.49-5.29,12.66-6.08,18-1.76,5.59,4.52,6.8,12.91,1.82,18.55l-4.11-3.32h0Z"/>
    <path class="cls-1" d="M491.76,137.76c-4.29.39-8.55-1.52-11.06-4.96.01-1.39,2.6-3.91,3.65-3.19,1.82,1.25,4.23,2.88,5.79,3.17.61.12,2.05-1.04,2.05-1.64s-.42-2.35-.88-2.74l-4.78-4.18c-1.87-1.64-2.54-4.37-2.15-6.76.34-2.04,2.41-4.58,4.83-5.14,4.95-1.15,9.17.83,12.29,4.89l-3.31,3.27-4.62-3.25c-.64-.45-2.51-.26-2.99.28s-.26,2.64.34,3.16l5.18,4.46c2.1,1.81,2.77,5.21,2.14,7.57-.74,2.74-3.35,4.77-6.5,5.06h.01Z"/>
    <path class="cls-1" d="M272.2,301.72l-3.78-3.07,2.43-5.32c.28-.61-.3-2.36-.73-2.79-.53-.55-2.76-.23-3.21.48l-3.44,5.38c-1.71,2.68-4.08,3.87-6.91,3.54s-5.34-2.28-6.01-5.48c-.77-3.67.06-7.64,2.67-10.57,1.63.34,3.94,1.71,4.71,2.54-1.39,1.7-2.63,3.62-2.88,5.26-.09.63.78,2.19,1.35,2.35.57.16,2.22-.31,2.52-.83l2.73-4.73c1.87-3.25,4.37-4.7,7.98-4.32,2.76.3,5.58,2.65,6.18,5.97.77,4.24-.26,8-3.6,11.6h-.01Z"/>
    <path class="cls-1" d="M384.23,472.27l1.35-3.73,7.13,2.38-3.29,9.27c-4.27.93-9.36.07-12.72-3.3-5-5.02-4.05-13.39,1.59-17.47s13.76-2.36,17.02,4.37l-4.16,2.21c-1.87-3.14-4.91-4.23-7.97-3.3-3.12.96-4.46,4-4.31,7.21.13,2.92,3.7,5.53,6.3,5.33.36-.03,1.71-1.07,1.46-1.25l-2.38-1.73h0Z"/>
    <path class="cls-1" d="M317.94,190.36c-2.45,3.22-5.36,5.37-9.68,4.99l-.5-4.55c2.02-.71,3.95-1.36,5.24-2.24.67-.45,1.14-2.48.79-3.19s-2.32-1.52-3.09-1.21l-5.99,2.41c-2.21.88-5.18.34-7-1.12-1.58-1.28-2.83-4.4-2.29-6.83,1.1-4.95,5.24-7.9,10.09-8.57l1.33,4.68-5.5,2.62c-.52.25-.73,2.19-.57,2.75.2.69,2.03,1.41,2.71,1.14l4.92-2.01c3.65-1.49,6.76-1.31,9.26,1.55,2.1,2.4,2.78,6.33.29,9.6h0Z"/>
    <path class="cls-1" d="M280.81,374.67l-6.61,12.33c-1.31-1.34-2.56-3.78-2.63-5.37l5.22-10.33-8.57,3.43-2.37-4.54,20.16-9.02,2.28,4.55-8.16,3.72,11.32,3.19,2.3,5.1-12.91-3.06h-.01Z"/>
    <polygon class="cls-1" points="430.72 117.95 431.36 123.15 422.37 124.04 423.27 133.68 417.67 134.02 414.77 109.21 431.06 107.29 431.51 112.54 421.22 113.64 421.63 119.03 430.72 117.95"/>
    <path class="cls-1" d="M347.82,437.22l4.32,2.81-9.06,12.45c-2.61,3.59-8.52,2.89-11.81.38-3.08-2.35-5.08-7.38-2.36-11.22l8.5-11.98,4.21,2.83-7.66,10.87c-1.2,1.7-1.09,4.25.39,5.52,1.76,1.52,4.49,1.21,5.83-.7l7.66-10.97h0Z"/>
    <polygon class="cls-1" points="546.09 450.91 548.42 454.73 556.53 449.39 559.03 453.3 546.67 461.56 534.69 442.51 546.35 434.72 549.16 438.43 541.31 443.69 543.59 447.03 550.19 442.78 552.66 446.86 546.09 450.91"/>
    <path class="cls-1" d="M566.03,447.66l-4.59,3.58-1.28-13.18-11.53-4.16c.4-1.21,3.16-3.89,4.62-3.47l6.58,1.93-.31-7.4c-.05-1.28,2.99-3.04,4.34-3.14l1.35,12.42,12.11,4-4.32,4.01-7.65-2.73.67,8.15Z"/>
    <polygon class="cls-1" points="451.77 480.81 451.73 485.18 461.41 484.76 461.47 489.5 446.95 489.98 446.21 467.87 460.06 467.19 460.56 471.85 451.25 472.41 451.59 476.28 459.25 475.87 459.47 480.52 451.77 480.81"/>
    <path class="cls-1" d="M290.6,397.43l-3.99-6.49-3.76,2.01,4.87,8.23-3.97,2.22-7.51-12.17,18.84-11.85,7.55,12.24-3.97,2.5-4.78-7.7c-.89-.11-3.11,1.52-3.19,2.3l3.96,6.22-4.08,2.5h0Z"/>
    <path class="cls-1" d="M621.72,353.02l4.01,1.36,3.1-8.63,4.15,1.48-4.38,13.51-21.18-7.09,4.28-13.04,4.6,1.01-2.79,8.53c.64.58,3.15,1.31,3.78,1.01l2.32-6.75,4.11,1.43-2.01,7.15h0Z"/>
    <path class="cls-1" d="M604.29,391.01c.25.35,2.38,1.86,3.43,2.47l4.62-7.85,4.06,2.44-7.38,12.16-18.95-11.58,7.27-12.13,3.95,2.49-4.52,7.73,3.37,2.07,3.54-5.98c.87.11,2.95,1.09,4.03,1.9l-3.41,6.28h0Z"/>
    <path class="cls-1" d="M407.36,483.12l-8.04-2.11-2.68,3.01-5.01-1.23,15.94-20.48,5.62,25.32-4.16-.72c-.93-.16-1.36-2.2-1.66-3.78h0ZM406.62,478.33l-1.47-6.13-3.48,5,4.94,1.13h0Z"/>
    <path class="cls-1" d="M265.02,366.13c-.85-.2-1.97-2.26-2.13-3.44-.12-.93.9-2.15,2.38-3.51l-2.44-7.82c-1.22-.39-3.23-.64-3.89-1.29-.75-.74-1.23-2.87-1.46-4.48,8.74.88,16.26,1.55,25.53,3.11l-18,17.45h0ZM273.33,351.92l-5.76-.78,1.21,4.81,4.55-4.03Z"/>
    <polygon class="cls-1" points="303.3 208.79 287.12 197.51 283.64 201.88 279.44 198.97 289.2 184.84 293.69 187.88 290.05 192.63 306.4 203.97 303.3 208.79"/>
    <polygon class="cls-1" points="605.17 226.48 600.43 228.71 593.36 215.71 615.1 203.43 617.78 208.47 600.73 218.09 605.17 226.48"/>
    <polygon class="cls-1" points="599.91 370.81 613.7 370.9 604.66 360.79 607.05 356.02 623.81 375.4 597.99 375.86 599.91 370.81"/>
    <path class="cls-1" d="M319.27,412.5c-4.47.98-8.36.91-12.7,2.2-3.25.97-5.86,4.28-8.95,6.5l-3.43-3.63,7.96-6.86,4.19-13.53,3.73,3.84-2.44,8.37,7.93-1.14c1.12.98,2.36,2.41,3.71,4.26h-.01Z"/>
    <path class="cls-1" d="M583.71,432l-12.39-12.17-3.71,3.69-3.28-3.42,10.47-10.79c.99.53,2.39,1.7,3.51,2.97l-3.41,3.81,12.27,12.11-3.46,3.81h0Z"/>
    <polygon class="cls-1" points="255.98 339.48 254.83 334.56 272.06 330.76 270.77 325.31 275.2 324.08 278.79 339.58 274.43 340.74 273.1 335.64 255.98 339.48"/>
    <path class="cls-1" d="M481.46,485.73c.21,1.2-3.76,1.92-4.81,1.19l-2.98-16.71-5.3.82-.51-4.77,15.11-2.62.93,4.72-5.34.66,2.9,16.71h0Z"/>
    <polygon class="cls-1" points="606.7 403.8 598.66 415.1 581.03 401.68 583.88 397.6 597.96 408.09 602.78 401.36 606.7 403.8"/>
    <polygon class="cls-1" points="613.02 336.48 614.03 331.35 631.13 335.18 632.8 327.31 637.46 328.26 634.66 341.02 613.02 336.48"/>
    <polygon class="cls-1" points="411.91 135.5 406.3 136.52 400.94 111.97 406.47 110.73 411.91 135.5"/>
    <polygon class="cls-1" points="444.03 132.12 438.36 132.25 437.61 107.29 443.39 107.02 444.03 132.12"/>
    <path class="cls-1" d="M604.45,237.31c-1.15-1.66-1.87-3.5-2.19-5.45l22.49-9.94,2.09,5.25-22.39,10.14Z"/>
    <polygon class="cls-1" points="639.45 270.99 614.9 275.18 614.16 269.64 638.42 265.41 639.45 270.99"/>
  </g>
</svg>