<?xml version="1.0" encoding="UTF-8"?>
<svg id="Layer_1" data-name="Layer 1" xmlns="http://www.w3.org/2000/svg" xmlns:xlink="http://www.w3.org/1999/xlink" viewBox="0 0 52 52">
  <defs>
    <style>
      .cls-1 {
        fill: #fff;
      }

      .cls-2 {
        fill: url(#radial-gradient);
      }
    </style>
    <radialGradient id="radial-gradient" cx="3.28" cy="3.69" fx="3.28" fy="3.69" r="60.81" gradientUnits="userSpaceOnUse">
      <stop offset="0" stop-color="#ff6800"/>
      <stop offset="1" stop-color="#9a0e00"/>
    </radialGradient>
  </defs>
  <rect class="cls-2" x="0" y="0" width="52" height="52" rx="12.32" ry="12.32"/>
  <path class="cls-1" d="M19.95,13.9c.35.13.7.3.98.58.26.26.5.51.71.81.52.73.99,1.47,1.43,2.25.63,1.13.98,2.47.05,3.47-.56.6-1.19,1.07-1.83,1.56-2.12,1.59,1.13,5.28,2.51,6.77,1.24,1.34,3.62,3.55,5.17,1.95.53-.55,1.07-1.06,1.69-1.52,1.12-.82,2.43-.31,3.48.49.73.56,1.41,1.15,2.08,1.79.33.31.61.68.83,1.06.36.63.28,1.33-.19,1.87-.29.33-.64.57-.96.88-1.31,1.3-2.99,2.11-4.85,2.23h-1.11c-1.12-.09-2.17-.36-3.2-.81-2.07-.9-3.93-2.38-5.52-3.98-1.86-1.87-3.73-4.19-4.96-6.53-1.12-2.14-1.81-4.49-1.42-6.91.3-1.85,1.26-3.49,2.72-4.65.65-.52,1.12-1.11,1.87-1.3h.52Z"/>
</svg>