<svg id="Capa_1" enable-background="new 0 0 512 512" viewBox="0 0 512 512" xmlns="http://www.w3.org/2000/svg" xmlns:xlink="http://www.w3.org/1999/xlink"><linearGradient id="SVGID_1_" gradientUnits="userSpaceOnUse" x1="256" x2="256" y1="512" y2="0"><stop offset="0" stop-color="#00b59c"/><stop offset="1" stop-color="#9cffac"/></linearGradient><linearGradient id="SVGID_00000137813873817786396080000016010991646475345538_" gradientUnits="userSpaceOnUse" x1="256" x2="256" y1="512" y2="37.587"><stop offset="0" stop-color="#c3ffe8"/><stop offset=".9973" stop-color="#f0fff4"/></linearGradient><g><path d="m511 457v40c0 8.284-6.716 15-15 15h-155v-55c0-34.504 20.559-64.207 50.095-77.526 9.503 7.823 21.665 12.526 34.905 12.526s25.402-4.703 34.905-12.526c29.536 13.319 50.095 43.022 50.095 77.526zm-390.095-77.526c-9.503 7.823-21.665 12.526-34.905 12.526s-25.402-4.703-34.905-12.526c-29.536 13.319-50.095 43.022-50.095 77.526v40c0 8.284 6.716 15 15 15h155v-55c0-34.504-20.559-64.207-50.095-77.526zm139.838-130.244c59.967-19.988 100.257-75.888 100.257-139.098v-55.132c0-8.284-6.716-15-15-15h-10c-26.612 0-52.033-12.71-68-34-2.833-3.777-7.279-6-12-6s-9.167 2.223-12 6c-15.967 21.29-41.388 34-68 34h-10c-8.284 0-15 6.716-15 15v55.132c0 63.21 40.29 119.11 100.257 139.099 1.539.513 3.141.77 4.743.77s3.204-.257 4.743-.771zm-4.743 142.77c-30.327 0-55-24.673-55-55s24.673-55 55-55 55 24.673 55 55-24.673 55-55 55z" fill="url(#SVGID_1_)"/><path d="m256 37.587c-20.09 19.393-46.889 31.06-75 32.302v40.242c0 48.592 29.933 91.752 75 108.943 45.067-17.191 75-60.351 75-108.943v-40.241c-28.111-1.243-54.91-12.91-75-32.303zm-170 354.413c-30.327 0-55-24.673-55-55s24.673-55 55-55 55 24.673 55 55-24.673 55-55 55zm340 0c-30.327 0-55-24.673-55-55s24.673-55 55-55 55 24.673 55 55-24.673 55-55 55zm-135.095-12.526c-9.503 7.823-21.665 12.526-34.905 12.526s-25.402-4.703-34.905-12.526c-29.536 13.319-50.095 43.022-50.095 77.526v55h170v-55c0-34.504-20.559-64.207-50.095-77.526zm-47.762-218.045c-3.978 0-7.793-1.581-10.606-4.394l-17.143-17.143c-5.858-5.858-5.858-15.355 0-21.213 5.857-5.858 15.355-5.858 21.213 0l6.537 6.536 32.25-32.25c5.857-5.858 15.355-5.858 21.213 0 5.858 5.857 5.858 15.355 0 21.213l-42.857 42.857c-2.813 2.813-6.628 4.394-10.607 4.394z" fill="url(#SVGID_00000137813873817786396080000016010991646475345538_)"/></g><g/><g/><g/><g/><g/><g/><g/><g/><g/><g/><g/><g/><g/><g/><g/></svg>