<?xml version="1.0" encoding="UTF-8"?>
<svg id="Layer_1" data-name="Layer 1" xmlns="http://www.w3.org/2000/svg" viewBox="0 0 1600 600">
  <defs>
    <style>
      .cls-1 {
        fill: #040707;
      }
    </style>
  </defs>
  <path class="cls-1" d="M426.71,148.11c4.66,4.83,8.82,9.75,12.83,15.13q3.73,4.88,11.87,6.83-.1,6.21-2.74,13.72c-6.91,4.22-13.03,7.38-20.41,10.46-1.91.85-3.81,1.71-5.77,2.59q-13.98,6.16-20.47,6.16c-1.98-8.18-2.72-15.02-2.57-23.5-.17-9.36-.86-12.72-5.66-20.41-14.15-12.04-31.22-12.65-49.05-12.03-16.35,2-26.24,7.28-37.24,19.41-7.23,15.33-8.76,27.72-4.12,44.09,10.23,17.15,22.8,24.01,41.45,29.91,1.85.61,3.7,1.21,5.6,1.83,7.8,2.55,15.63,5.02,23.46,7.49,35.47,11.29,74.42,24.52,94.85,57.89,10.75,22.51,12.02,51.35,4.3,75.11-13.93,26.01-33.08,38.47-61.31,47.43-5.98,1.43-11.87,2.49-17.95,3.35q-2.85.45-5.76.91c-38.86,5.29-81.1,4.21-114.68-18.12-19.62-16.01-29.4-37.6-33.27-62.39-2.72-.91-5.43-1.81-8.23-2.74v-10.98h76.85v10.98q-2.63.51-5.32,1.03-2.8.85-5.66,1.72c-5.4,10.8-2.12,24.14,0,35.68,5.74,11.08,11.54,18.01,21.96,24.7,19.3,5.72,38.75,7.87,57.64,0,11.26-6.37,18.77-14.93,23.23-27.23,5.47-21.24,6.29-40.79-4.02-60.6q-5.77-7.83-13.72-13.72c-1.39-1.12-2.79-2.24-4.22-3.39-12.07-8.61-24.9-12.87-39.01-17.03-30.86-9.09-63.96-21.06-81.31-49.92-9.27-19.26-10.75-41.52-5.62-62.37,8.05-18.4,24.01-32.69,41.93-41.19,40.91-15.29,94.94-17.34,132.15,9.21Z"/>
  <path class="cls-1" d="M1047.03,150.85c1.84,1.49,3.69,2.98,5.59,4.51,7.4,5.1,13.09,4.32,21.86,3.72q0,10.98-6.6,18.06c-2.8,2.48-5.64,4.92-8.49,7.33-1.44,1.26-2.88,2.52-4.36,3.82-3.55,3.1-7.14,6.16-10.73,9.22-3.62-1.81-7.25-3.62-10.98-5.49,1.25-2.32,2.49-4.64,3.77-7.03q2.58-8.91-.72-14.42c-12.14-15.4-27.35-21.87-45.77-27.27-25.68-2.63-45.73,1.97-67.76,15.95-19.24,18.18-30.42,43.49-37.74,68.45l-1.88,6.17c-11.74,46.7-5.15,105.76,18.35,147.54,12.94,18.2,27.12,33.25,49.41,38.43,17.33,2.33,32.29,1.37,47.6-7.48,10.42-8.01,15.96-18.25,18.27-30.94.23-6.36.3-12.72.27-19.08,0-1.81,0-3.62-.01-5.49-.02-5.76-.05-11.52-.08-17.28-.01-3.92-.03-7.83-.04-11.75-.03-9.58-.08-19.16-.13-28.73-12.23-6.67-22.18-7.14-35.93-4.31-11.26,3.4-17.16,6.83-23.08,17.18-1.36,3-2.72,6-4.12,9.09h-13.72c.32-3.78.67-7.55,1.03-11.32.19-2.1.38-4.2.58-6.37q1.14-7.01,6.63-23.48h150.96v10.98c-2.66,1.3-5.32,2.6-8.06,3.95q-7.87,3.47-11.15,7.03c-.23,6.06-.3,12.14-.29,18.21-.04,3.78-.08,7.56-.12,11.34-.06,5.96-.1,11.92-.07,17.89q.16,37.35-9.29,49.24c-9.24,8.46-19.76,14.22-31.06,19.46-1.84.91-3.67,1.83-5.56,2.77-35.71,17.23-80.75,19.21-118.81,8.55-38.9-14.56-65.54-40.04-83.78-77.1-9.1-23.62-13.24-45.47-12.97-70.77.02-2.76.04-5.53.06-8.38.45-20.37,2.84-37.91,12.12-56.3,1.2-2.37,2.39-4.74,3.62-7.18,20.96-37.69,51.68-63.31,93.02-76.01,39.93-9.9,85.79-6.74,120.19,17.32Z"/>
  <path class="cls-1" d="M1129.37,128.89h227.82q9.26,40.14,10.98,57.64h-13.72q-1.25-2.48-2.52-5.02c-8.21-15.66-15.03-26.57-31.95-33.57-12.03-3.29-23.45-3.85-35.86-4.3-2.43-.1-4.85-.2-7.36-.31q-32.77-2.06-65.04,2.03c-.91,33.51-1.81,67.03-2.74,101.56q45.51,2.98,57.64-10.98,3.23-5.76,5.49-10.98h13.72v57.64h-13.72c-1.25-2.66-2.49-5.32-3.77-8.06q-3.52-8.6-9.95-11.15c-3.77-.41-7.56-.68-11.34-.87-2.21-.11-4.42-.23-6.7-.35q-3.47-.16-7-.33t-7.07-.36c-5.76-.29-11.53-.57-17.29-.84.29,20.35.6,40.7.93,61.05.15,9.45.3,18.9.43,28.35.16,10.85.33,21.71.51,32.56.05,3.41.09,6.82.14,10.33.05,3.13.11,6.26.17,9.49q.06,4.16.13,8.4-.26,6.17,3.18,9.01c6.66.35,13.24.52,19.91.56,2.02.02,4.03.03,6.11.05,4.28.03,8.57.04,12.85.05,6.49.03,12.99.11,19.48.2,4.17.02,8.34.03,12.51.04q2.88.05,5.82.1c17.31-.08,31.28-4.74,46.15-13.87,8.18-8.4,12.52-17.63,17.15-28.31h13.72c-1.3,8.64-2.62,17.27-3.95,25.9q-.55,3.7-1.12,7.47-.54,3.52-1.1,7.1c-.33,2.17-.66,4.34-1,6.58q-1.07,5.1-3.81,7.84c-7.1.26-14.12.34-21.22.31q-3.33,0-6.73,0c-7.38,0-14.76-.02-22.14-.04-5.1,0-10.21,0-15.31-.01-13.46-.01-26.92-.04-40.38-.07-13.72-.03-27.45-.04-41.17-.05-26.95-.03-53.9-.08-80.85-.13v-8.23q9.51-2.72,19.21-5.49V145.36c-6.34-1.81-12.68-3.62-19.21-5.49v-10.98Z"/>
  <path class="cls-1" d="M594.14,128.89h63.13c12.15,23.89,23.64,47.82,34.26,72.44,2.37,5.49,4.75,10.97,7.14,16.46,3.51,8.07,7.02,16.13,10.52,24.2,9.43,21.72,18.9,43.43,28.39,65.13,3.15,7.21,6.29,14.42,9.43,21.64,4.79,11,9.66,21.96,14.59,32.89,1.78,3.97,3.55,7.95,5.29,11.94,2.37,5.41,4.82,10.77,7.3,16.13q2.02,4.49,4.09,9.06c8.25,11.52,19.13,14.33,32.53,17.46,1.87.28,3.74.57,5.66.86v8.23h-109.79c-.91-2.72-1.81-5.43-2.74-8.23q13.59-2.72,27.45-5.49c-.63-24.78-10.74-45.24-20.76-67.42-1.71-3.85-3.42-7.71-5.12-11.56-4.15-9.37-8.34-18.72-12.55-28.06q-.97,4.47-1.95,9.02c-8.73,39.41-22.53,77.17-56.54,101.46-21.84,13.68-42.91,19.21-68.45,14.69-20.1-5.37-34.95-17.92-47.22-34.48-11.58-21.28-10.54-49.36-4.66-72.33,14.7-38.27,43.86-65.47,72.64-93.32,6.93-6.71,13.84-13.45,20.73-20.21,1.57-1.5,3.14-3,4.76-4.55,9.15-8.98,15.54-17.14,20.32-29.28,0-11.28-.68-16.89-8.23-25.39-10.53-6.14-21.26-9.68-32.94-13.04.91-2.72,1.81-5.43,2.74-8.23ZM640.8,186.53c-2.26,3.49-4.45,7.03-6.6,10.58-12.59,19.21-29.65,34.01-46.37,49.58-24.36,23.47-40.43,48.91-41.2,83.25.19,18.34,3.09,31.14,15.75,44.67,13.93,12.45,26.33,16.22,44.58,15.71,19.05-2.01,35.45-10.5,47.57-25.38,17.48-29.31,29.22-58.58,24.7-93.32-8.54-29.58-22.27-57.46-35.68-85.09h-2.74Z"/>
  <path class="cls-1" d="M635.31,466.5h8.23q4.31,5.91,8.58,13.55,4.6,8.85,10.64,16.64c1.06-1.95,2.12-3.9,3.22-5.91,1.43-2.52,2.86-5.05,4.33-7.64,1.4-2.52,2.8-5.03,4.25-7.62q4.67-6.27,15.65-9.02v49.41h-8.23c-.91-9.96-1.81-19.93-2.74-30.19-4.53,8.15-9.06,16.3-13.72,24.7h-8.23q-5.43-9.51-10.98-19.21c-.91,8.15-1.81,16.3-2.74,24.7h-8.23v-49.41Z"/>
  <path class="cls-1" d="M827.45,466.5q30.5-1.68,41.69,6c5.11,7.93,7.72,12.04,7.72,21.44-4.24,10.8-6.72,15.46-16.47,21.96-11.02.74-21.88.24-32.94,0v-49.41ZM835.68,471.99v38.43q17.16-.01,30.71-8.75c2.93-10.15,1.51-14.86-3.26-24.19-9.28-7.29-14.69-5.49-27.45-5.49Z"/>
  <path class="cls-1" d="M997.62,466.5h10.98c3.21,7.2,6.41,14.41,9.61,21.62.92,2.05,1.83,4.1,2.78,6.21.87,1.96,1.73,3.93,2.63,5.95q1.21,2.72,2.44,5.49,1.76,4.65,1.76,10.14h-8.23q-.97-2.65-1.95-5.36-3.02-6.19-9.48-7.29-3.34-.19-6.75-.39t-6.8-.47c-1.72-.07-3.44-.14-5.21-.21-1.81,4.53-3.62,9.06-5.49,13.72-2.72-.91-5.43-1.81-8.23-2.74,7.25-15.4,14.49-30.8,21.96-46.66ZM1000.37,477.48q-4.08,9.51-8.23,19.21h19.21c-1.65-5.55-3.49-11.04-5.49-16.47-1.81-.91-3.62-1.81-5.49-2.74Z"/>
  <path class="cls-1" d="M739.61,466.5h38.43v5.49h-30.19v16.47h27.45v5.49h-27.45v16.47h30.19v5.49h-38.43v-49.41Z"/>
  <path class="cls-1" d="M728.64,131.64q1.72,7.72,2.74,16.47-2.72,4.08-5.49,8.23-8.23.86-16.47,0c-1.81-1.81-3.62-3.62-5.49-5.49q.69-9.78,2.74-19.21c7.85-3.93,13.54-1.65,21.96,0Z"/>
  <path class="cls-1" d="M923.52,466.5h8.23v49.41h-8.23v-49.41Z"/>
</svg>