<?xml version="1.0" encoding="UTF-8"?>
<svg version="1.1" xmlns="http://www.w3.org/2000/svg" width="416" height="143">
<path d="M0 0 C1.6984031 1.76030389 3.21191786 3.55291015 4.67578125 5.51171875 C6.03536128 7.28875433 6.03536128 7.28875433 9 8 C8.96484375 10.26171875 8.96484375 10.26171875 8 13 C5.48128109 14.53739986 3.25320096 15.68702675 0.5625 16.8125 C-0.13166016 17.12380859 -0.82582031 17.43511719 -1.54101562 17.75585938 C-6.63595467 20 -6.63595467 20 -9 20 C-9.72273873 17.01870272 -9.99169927 14.52685862 -9.9375 11.4375 C-9.9994821 8.02848462 -10.24976646 6.80151017 -12 4 C-17.15639067 -0.38496215 -23.37472432 -0.60864226 -29.87109375 -0.3828125 C-35.82842201 0.34604914 -39.43016401 2.26915519 -43.4375 6.6875 C-46.07270637 12.2741375 -46.62729111 16.78603138 -44.9375 22.75 C-41.21219658 28.99889605 -36.63179172 31.49803062 -29.8359375 33.6484375 C-29.16261383 33.86891754 -28.48929016 34.08939758 -27.79556274 34.31655884 C-24.95262281 35.24706144 -22.10000893 36.1460323 -19.24755859 37.046875 C-6.32413408 41.16036844 7.86388691 45.98073474 15.30859375 58.13671875 C19.22607839 66.33768141 19.68666238 76.84614094 16.875 85.5 C11.79841683 94.97628858 4.82230356 99.51672903 -5.4609375 102.78125 C-7.63830958 103.30076334 -9.78406672 103.68692319 -12 104 C-13.03833984 104.16435547 -13.03833984 104.16435547 -14.09765625 104.33203125 C-28.25612182 106.25922711 -43.64532605 105.8661009 -55.87890625 97.73046875 C-63.02849183 91.8975656 -66.58859071 84.03301949 -68 75 C-68.99 74.67 -69.98 74.34 -71 74 C-71 72.68 -71 71.36 -71 70 C-61.76 70 -52.52 70 -43 70 C-43 71.32 -43 72.64 -43 74 C-43.9590625 74.185625 -43.9590625 74.185625 -44.9375 74.375 C-45.9584375 74.684375 -45.9584375 74.684375 -47 75 C-48.96765266 78.93530533 -47.77199186 83.79561354 -47 88 C-44.91004531 92.03577456 -42.79620128 94.56053967 -39 97 C-31.97006298 99.08558189 -24.88104676 99.86710282 -18 97 C-13.89728472 94.67872688 -11.16189569 91.55896417 -9.53515625 87.078125 C-7.5420178 79.33834649 -7.24511039 72.21756992 -11 65 C-13.10387764 62.14606522 -13.10387764 62.14606522 -16 60 C-16.50789063 59.59265625 -17.01578125 59.1853125 -17.5390625 58.765625 C-21.93480377 55.62857616 -26.61162866 54.07594669 -31.75 52.5625 C-42.99165602 49.25083241 -55.05179528 44.89125182 -61.375 34.375 C-64.75398358 27.35711103 -65.29251611 19.24866338 -63.421875 11.65234375 C-60.49022483 4.94952541 -54.67376262 -0.25609353 -48.14453125 -3.35546875 C-33.23946123 -8.92726955 -13.55593535 -9.67414626 0 0 Z " fill="#040707" transform="translate(71,7)"/>
<path d="M0 0 C0.67160156 0.54269531 1.34320313 1.08539063 2.03515625 1.64453125 C4.72975528 3.50342959 6.80522018 3.2178259 10 3 C10 7 10 7 7.59375 9.578125 C6.57240518 10.48009186 5.54067793 11.37040981 4.5 12.25 C3.97535156 12.70890625 3.45070313 13.1678125 2.91015625 13.640625 C1.61550456 14.77050284 0.30886341 15.88661619 -1 17 C-2.32 16.34 -3.64 15.68 -5 15 C-4.54625 14.154375 -4.0925 13.30875 -3.625 12.4375 C-2.68428348 9.19183829 -2.68428348 9.19183829 -3.88671875 7.18359375 C-8.30925592 1.57363564 -13.85000398 -0.78536702 -20.5625 -2.75 C-29.91949303 -3.70969159 -37.22354432 -2.03121226 -45.25 3.0625 C-52.25816067 9.68581948 -56.33464315 18.90564171 -59 28 C-59.22558594 28.74121094 -59.45117188 29.48242188 -59.68359375 30.24609375 C-63.95921964 47.26013607 -61.55954191 68.77593914 -53 84 C-48.28678117 90.62968329 -43.12007763 96.11284611 -35 98 C-28.68644375 98.84903332 -23.23646891 98.4980722 -17.65625 95.2734375 C-13.86002268 92.35464008 -11.84091261 88.62627596 -11 84 C-10.91802387 81.68351312 -10.89252207 79.36479111 -10.90234375 77.046875 C-10.9037587 76.38665344 -10.90517365 75.72643188 -10.90663147 75.04620361 C-10.91220755 72.94742206 -10.92475553 70.84874905 -10.9375 68.75 C-10.9425181 67.32291821 -10.94708046 65.89583475 -10.95117188 64.46875 C-10.96216912 60.97913168 -10.9794172 57.48957644 -11 54 C-15.4544981 51.56939343 -19.07943095 51.39950917 -24.08984375 52.4296875 C-28.19078746 53.6668437 -30.34106821 54.91890528 -32.5 58.6875 C-32.995 59.780625 -33.49 60.87375 -34 62 C-35.65 62 -37.3 62 -39 62 C-38.88382356 60.62422639 -38.75654223 59.24938955 -38.625 57.875 C-38.55539062 57.10929687 -38.48578125 56.34359375 -38.4140625 55.5546875 C-38 53 -38 53 -36 47 C-17.85 47 0.3 47 19 47 C19 48.32 19 49.64 19 51 C18.030625 51.474375 17.06125 51.94875 16.0625 52.4375 C13.19522563 53.70193947 13.19522563 53.70193947 12 55 C11.91457959 57.20956646 11.89182108 59.42159717 11.89453125 61.6328125 C11.88106252 63.01043221 11.86603708 64.3880374 11.84960938 65.765625 C11.82687515 67.93833219 11.81241006 70.10941775 11.82495117 72.28222656 C11.88261521 85.89093863 11.88261521 85.89093863 8.44140625 90.22265625 C5.07622986 93.30527584 1.24337817 95.40235698 -2.875 97.3125 C-3.54402344 97.64572266 -4.21304688 97.97894531 -4.90234375 98.32226562 C-17.91162149 104.60131008 -34.32136067 105.32068565 -48.1875 101.4375 C-62.36129644 96.13387604 -72.06699044 86.84924457 -78.7109375 73.34765625 C-82.02504048 64.74103124 -83.53526471 56.78264304 -83.4375 47.5625 C-83.42992676 46.55550049 -83.42235352 45.54850098 -83.41455078 44.51098633 C-83.25011521 37.09038124 -82.38116058 30.69931816 -79 24 C-78.56429687 23.13632812 -78.12859375 22.27265625 -77.6796875 21.3828125 C-70.04275933 7.65303453 -58.85185586 -1.68186797 -43.7890625 -6.30859375 C-29.24053902 -9.9151605 -12.53310954 -8.76515976 0 0 Z " fill="#040707" transform="translate(297,8)"/>
<path d="M0 0 C27.39 0 54.78 0 83 0 C86.375 14.625 86.375 14.625 87 21 C85.35 21 83.7 21 82 21 C81.54560547 20.09507813 81.54560547 20.09507813 81.08203125 19.171875 C78.09066526 13.46526911 75.60628318 9.49206526 69.44140625 6.94140625 C65.05920627 5.74264326 60.89912041 5.53767075 56.375 5.375 C55.49070312 5.33777832 54.60640625 5.30055664 53.6953125 5.26220703 C41.75491679 4.51118596 41.75491679 4.51118596 30 6 C29.67 18.21 29.34 30.42 29 43 C45.58142662 44.08536824 45.58142662 44.08536824 50 39 C51.17574711 36.90010348 51.17574711 36.90010348 52 35 C53.65 35 55.3 35 57 35 C57 41.93 57 48.86 57 56 C55.35 56 53.7 56 52 56 C51.54625 55.030625 51.0925 54.06125 50.625 53.0625 C49.34213779 49.92920418 49.34213779 49.92920418 47 49 C45.6265365 48.84995027 44.2471474 48.75161994 42.8671875 48.68359375 C42.06152344 48.64169922 41.25585938 48.59980469 40.42578125 48.55664062 C39.16314453 48.49766602 39.16314453 48.49766602 37.875 48.4375 C36.60076172 48.37272461 36.60076172 48.37272461 35.30078125 48.30664062 C33.20071777 48.20045764 31.10038052 48.09971503 29 48 C29.1073591 55.41470061 29.21996304 62.82930175 29.33933926 70.24381924 C29.3945988 73.6863574 29.44802347 77.128904 29.49731445 80.5715332 C29.55400801 84.52564526 29.61857495 88.47960944 29.68359375 92.43359375 C29.70030624 93.67523788 29.71701874 94.91688202 29.73423767 96.19615173 C29.75418289 97.33725906 29.77412811 98.47836639 29.79467773 99.65405273 C29.81799416 101.16962013 29.81799416 101.16962013 29.84178162 102.71580505 C29.7464473 104.96529889 29.7464473 104.96529889 31 106 C33.42749153 106.12586569 35.82493265 106.18865611 38.25390625 106.203125 C38.98818344 106.20882507 39.72246063 106.21452515 40.47898865 106.22039795 C42.04009555 106.22986741 43.60122262 106.23638962 45.16235352 106.24023438 C47.52852589 106.24986177 49.8938003 106.28083174 52.25976562 106.3125 C53.77864069 106.31903793 55.29752197 106.32428529 56.81640625 106.328125 C57.86532799 106.3466452 57.86532799 106.3466452 58.93544006 106.36553955 C65.24059601 106.33758397 70.33194291 104.63721685 75.75 101.3125 C78.72864764 98.25111215 80.31055464 94.88855581 82 91 C83.65 91 85.3 91 87 91 C86.52745885 94.14686623 86.04586133 97.29227908 85.5625 100.4375 C85.36043945 101.78424805 85.36043945 101.78424805 85.15429688 103.15820312 C84.95610352 104.43920898 84.95610352 104.43920898 84.75390625 105.74609375 C84.63345947 106.53685303 84.5130127 107.3276123 84.38891602 108.14233398 C84 110 84 110 83 111 C80.41360962 111.09507821 77.8540144 111.12556376 75.26733398 111.11352539 C74.05279541 111.11374443 74.05279541 111.11374443 72.8137207 111.1139679 C70.12448492 111.11326854 67.43531751 111.1054751 64.74609375 111.09765625 C62.88664284 111.09579215 61.02719144 111.09436821 59.16773987 111.09336853 C54.26370904 111.08954271 49.35970764 111.07971188 44.45568848 111.06866455 C39.45548908 111.05845181 34.45528494 111.05387121 29.45507812 111.04882812 C19.63670579 111.03808967 9.81835534 111.02101248 0 111 C0 110.01 0 109.02 0 108 C3.465 107.01 3.465 107.01 7 106 C7 73 7 40 7 6 C4.69 5.34 2.38 4.68 0 4 C0 2.68 0 1.36 0 0 Z " fill="#040707" transform="translate(327,0)"/>
<path d="M0 0 C7.59 0 15.18 0 23 0 C27.42621898 8.70211354 31.61424445 17.42299543 35.48312378 26.39068604 C36.34632747 28.39088432 37.21467207 30.38878624 38.08422852 32.38623047 C39.36329462 35.32504387 40.64078852 38.26453228 41.91699219 41.20458984 C45.35343408 49.11851459 48.80187832 57.02716461 52.26034546 64.93148804 C53.40805214 67.55761874 54.55137755 70.18562688 55.69458008 72.8137207 C57.44143886 76.81969954 59.2142647 80.81311147 61.01092529 84.79699707 C61.6606657 86.24418807 62.30335801 87.69456808 62.93829346 89.14831543 C63.80214457 91.11789365 64.69498537 93.0714091 65.59765625 95.0234375 C66.33447632 96.65804932 66.33447632 96.65804932 67.08618164 98.32568359 C70.09100671 102.52454235 74.0558944 103.54499656 78.9375 104.6875 C79.618125 104.790625 80.29875 104.89375 81 105 C81 105.99 81 106.98 81 108 C67.8 108 54.6 108 41 108 C40.67 107.01 40.34 106.02 40 105 C44.95 104.01 44.95 104.01 50 103 C49.77003303 93.97129669 46.0854442 86.51720472 42.4375 78.4375 C41.8146185 77.03370695 41.19286374 75.62941338 40.57226562 74.22460938 C39.06113202 70.81053439 37.53483551 67.40349694 36 64 C35.64748169 65.62699829 35.64748169 65.62699829 35.2878418 67.28686523 C32.10679951 81.64493751 27.08064135 95.40082455 14.6875 104.25 C6.73029161 109.23491782 -0.94545048 111.24924314 -10.25 109.6015625 C-17.57334589 107.64358461 -22.98220143 103.07240559 -27.453125 97.0390625 C-31.67124215 89.28604437 -31.29350716 79.0548114 -29.15234375 70.6875 C-23.79642386 56.74395262 -13.17234913 46.83477637 -2.6875 36.6875 C-0.1617359 34.24192899 2.35358375 31.78626256 4.86328125 29.32421875 C5.43516678 28.77722824 6.00705231 28.23023773 6.5962677 27.66667175 C9.92881156 24.39590968 12.25646864 21.42154672 14 17 C14 12.88979793 13.75150756 10.845446 11 7.75 C7.16388904 5.51226861 3.25367908 4.22328026 -1 3 C-0.67 2.01 -0.34 1.02 0 0 Z M17 21 C16.17606787 22.27125926 15.37979214 23.56043902 14.59375 24.85546875 C10.00616564 31.85591445 3.79212722 37.24765353 -2.30078125 42.91992188 C-11.1762865 51.4716426 -17.03087633 60.73998034 -17.3125 73.25 C-17.24506987 79.93307465 -16.18615451 84.59561573 -11.57421875 89.5234375 C-6.49900975 94.06096285 -1.98272875 95.43359268 4.66796875 95.24609375 C11.60724237 94.51380859 17.58499506 91.41931913 22 86 C28.36822847 75.32156812 32.64578111 64.65649368 31 52 C27.88776258 41.22346259 22.88824469 31.06573464 18 21 C17.67 21 17.34 21 17 21 Z " fill="#040707" transform="translate(132,0)"/>
<path d="M0 0 C0.99 0 1.98 0 3 0 C4.5703125 2.15234375 4.5703125 2.15234375 6.125 4.9375 C7.79932205 8.16173418 7.79932205 8.16173418 10 11 C10.38671875 10.28972656 10.7734375 9.57945312 11.171875 8.84765625 C11.69265625 7.92855469 12.2134375 7.00945312 12.75 6.0625 C13.26046875 5.14597656 13.7709375 4.22945313 14.296875 3.28515625 C16 1 16 1 20 0 C20 5.94 20 11.88 20 18 C19.01 18 18.02 18 17 18 C16.67 14.37 16.34 10.74 16 7 C14.35 9.97 12.7 12.94 11 16 C10.01 16 9.02 16 8 16 C6.02 12.535 6.02 12.535 4 9 C3.67 11.97 3.34 14.94 3 18 C2.01 18 1.02 18 0 18 C0 12.06 0 6.12 0 0 Z " fill="#040707" transform="translate(147,123)"/>
<path d="M0 0 C11.11046512 -0.61046512 11.11046512 -0.61046512 15.1875 2.1875 C17.04837492 5.07506452 18 6.57491066 18 10 C16.45641562 13.93614016 15.55160136 15.63226576 12 18 C7.98500069 18.26874159 4.02862593 18.08663712 0 18 C0 12.06 0 6.12 0 0 Z M3 2 C3 6.62 3 11.24 3 16 C9.25221014 15.99460232 9.25221014 15.99460232 14.1875 12.8125 C15.25560075 9.11522818 14.73792478 7.40028762 13 4 C9.6177076 1.34248454 7.64808535 2 3 2 Z " fill="#040707" transform="translate(217,123)"/>
<path d="M0 0 C1.32 0 2.64 0 4 0 C5.17112946 2.62309099 6.33705964 5.24828142 7.5 7.875 C7.83386719 8.62136719 8.16773438 9.36773437 8.51171875 10.13671875 C8.82753906 10.85214844 9.14335937 11.56757813 9.46875 12.3046875 C9.90864258 13.2944458 9.90864258 13.2944458 10.35742188 14.30419922 C11 16 11 16 11 18 C10.01 18 9.02 18 8 18 C7.64808594 17.03320312 7.64808594 17.03320312 7.2890625 16.046875 C6.18838927 13.7922092 6.18838927 13.7922092 3.8359375 13.390625 C2.61777344 13.32101563 2.61777344 13.32101563 1.375 13.25 C0.14910156 13.16492188 0.14910156 13.16492188 -1.1015625 13.078125 C-1.72804688 13.05234375 -2.35453125 13.0265625 -3 13 C-3.66 14.65 -4.32 16.3 -5 18 C-5.99 17.67 -6.98 17.34 -8 17 C-5.36 11.39 -2.72 5.78 0 0 Z M1 4 C-0.485 7.465 -0.485 7.465 -2 11 C0.31 11 2.62 11 5 11 C4.39816251 8.97954558 3.72693904 6.97888961 3 5 C2.34 4.67 1.68 4.34 1 4 Z " fill="#040707" transform="translate(279,123)"/>
<path d="M0 0 C4.62 0 9.24 0 14 0 C14 0.66 14 1.32 14 2 C10.37 2 6.74 2 3 2 C3 3.98 3 5.96 3 8 C6.3 8 9.6 8 13 8 C13 8.66 13 9.32 13 10 C9.7 10 6.4 10 3 10 C3 11.98 3 13.96 3 16 C6.63 16 10.26 16 14 16 C14 16.66 14 17.32 14 18 C9.38 18 4.76 18 0 18 C0 12.06 0 6.12 0 0 Z " fill="#040707" transform="translate(185,123)"/>
<path d="M0 0 C0.625 2.8125 0.625 2.8125 1 6 C0.01 7.485 0.01 7.485 -1 9 C-4 9.3125 -4 9.3125 -7 9 C-7.66 8.34 -8.32 7.68 -9 7 C-8.75 3.4375 -8.75 3.4375 -8 0 C-5.13822943 -1.43088528 -3.06624227 -0.59991697 0 0 Z " fill="#040707" transform="translate(181,1)"/>
<path d="M0 0 C0.99 0 1.98 0 3 0 C3 5.94 3 11.88 3 18 C2.01 18 1.02 18 0 18 C0 12.06 0 6.12 0 0 Z " fill="#040707" transform="translate(252,123)"/>
</svg>
