<svg width="32" height="32" viewBox="0 0 32 32" fill="none" xmlns="http://www.w3.org/2000/svg">
<path d="M15.9999 11C15.7568 11 15.5236 10.9035 15.3517 10.7316C15.1798 10.5596 15.0833 10.3265 15.0833 10.0834V2.75004C15.0833 2.50693 15.1798 2.27377 15.3517 2.10186C15.5236 1.92995 15.7568 1.83337 15.9999 1.83337C16.243 1.83337 16.4762 1.92995 16.6481 2.10186C16.82 2.27377 16.9166 2.50693 16.9166 2.75004V10.0834C16.9166 10.3265 16.82 10.5596 16.6481 10.7316C16.4762 10.9035 16.243 11 15.9999 11Z" fill="#8491C1"/>
<path d="M27 42.1667H5V18.3333L14.8267 10.1448C15.1561 9.87021 15.5714 9.71985 16.0003 9.71985C16.4292 9.71985 16.8445 9.87021 17.174 10.1448L27 18.3333V42.1667Z" fill="#D3DBEF"/>
<path d="M21.4999 6.41671H15.0833V2.75004C15.0833 2.50693 15.1798 2.27377 15.3517 2.10186C15.5236 1.92995 15.7568 1.83337 15.9999 1.83337H21.4999V6.41671Z" fill="#4AC6B7"/>
<path d="M4.99992 24.75H-4.16675L-1.0279 19.2571C-0.867549 18.9765 -0.635873 18.7433 -0.356348 18.581C-0.0768232 18.4188 0.240617 18.3334 0.563803 18.3334H4.99992V24.75Z" fill="#FFBC5A"/>
<path d="M4.99984 18.3334H3.1665V24.75H4.99984V18.3334Z" fill="#EF9D3A"/>
<path d="M36.1667 24.75H27V18.3334H31.4361C31.7593 18.3334 32.0768 18.4188 32.3563 18.581C32.6359 18.7432 32.8676 18.9765 33.0279 19.2571L36.1667 24.75Z" fill="#FFBC5A"/>
<path d="M28.8333 18.3334H27V24.75H28.8333V18.3334Z" fill="#EF9D3A"/>
<path d="M-3.25 24.75H5V42.1667H-2.33333C-2.57645 42.1667 -2.80961 42.0701 -2.98151 41.8982C-3.15342 41.7263 -3.25 41.4931 -3.25 41.25V24.75Z" fill="#D3DBEF"/>
<path d="M4.99984 24.75H3.1665V42.1667H4.99984V24.75Z" fill="#BFCAE2"/>
<path d="M27 24.75H35.25V41.25C35.25 41.4931 35.1534 41.7263 34.9815 41.8982C34.8096 42.0701 34.5764 42.1667 34.3333 42.1667H27V24.75Z" fill="#D3DBEF"/>
<path d="M28.8333 24.75H27V42.1667H28.8333V24.75Z" fill="#BFCAE2"/>
<path d="M16 23.8334C17.5188 23.8334 18.75 22.6022 18.75 21.0834C18.75 19.5646 17.5188 18.3334 16 18.3334C14.4812 18.3334 13.25 19.5646 13.25 21.0834C13.25 22.6022 14.4812 23.8334 16 23.8334Z" fill="#E05555"/>
<path d="M22.4167 30.25H16V42.1667H22.4167V30.25Z" fill="#CC8679"/>
<path d="M15.9999 30.25H9.58325V42.1667H15.9999V30.25Z" fill="#CC8679"/>
<path d="M1.33333 31.1667H0.416667C0.173552 31.1667 -0.059606 31.0701 -0.231514 30.8982C-0.403423 30.7263 -0.5 30.4932 -0.5 30.25C-0.5 30.0069 -0.403423 29.7738 -0.231514 29.6019C-0.059606 29.43 0.173552 29.3334 0.416667 29.3334H1.33333C1.57645 29.3334 1.80961 29.43 1.98151 29.6019C2.15342 29.7738 2.25 30.0069 2.25 30.25C2.25 30.4932 2.15342 30.7263 1.98151 30.8982C1.80961 31.0701 1.57645 31.1667 1.33333 31.1667Z" fill="#D3DBEF"/>
<path d="M31.5833 31.1667H30.6667C30.4236 31.1667 30.1904 31.0701 30.0185 30.8982C29.8466 30.7263 29.75 30.4932 29.75 30.25C29.75 30.0069 29.8466 29.7738 30.0185 29.6019C30.1904 29.43 30.4236 29.3334 30.6667 29.3334H31.5833C31.8264 29.3334 32.0596 29.43 32.2315 29.6019C32.4034 29.7738 32.5 30.0069 32.5 30.25C32.5 30.4932 32.4034 30.7263 32.2315 30.8982C32.0596 31.0701 31.8264 31.1667 31.5833 31.1667Z" fill="#D3DBEF"/>
<path d="M16.9166 30.25H15.0833V42.1667H16.9166V30.25Z" fill="#BF7267"/>
</svg>
