<?xml version="1.0" encoding="UTF-8"?>
<svg id="Layer_1" data-name="Layer 1" xmlns="http://www.w3.org/2000/svg" xmlns:xlink="http://www.w3.org/1999/xlink" viewBox="0 0 52 52">
  <defs>
    <style>
      .cls-1 {
        fill: #fff;
      }

      .cls-2 {
        fill: url(#radial-gradient);
      }
    </style>
    <radialGradient id="radial-gradient" cx="8.39" cy="3.44" fx="8.39" fy="3.44" r="58.23" gradientUnits="userSpaceOnUse">
      <stop offset="0" stop-color="#00ff73"/>
      <stop offset="1" stop-color="#060"/>
    </radialGradient>
  </defs>
  <rect class="cls-2" x="0" y="0" width="52" height="52" rx="26" ry="26"/>
  <path class="cls-1" d="M11.73,40.27l1.81-7.33c-3.04-5.4-2.19-12.19,2.01-16.65,5.52-5.96,14.87-6.07,20.54-.41s5.59,15.03-.37,20.58c-4.47,4.16-11.2,5.04-16.62,2.03l-7.37,1.79ZM28.66,28.29l-.5.74c-.21.31-.52.38-.86.27-2.05-.7-3.48-2.21-4.57-4.03-.2-.33-.2-.66.07-.96l.44-.5c.39-.44.53-1.01.28-1.56l-.82-1.84c-.27-.61-.71-.91-1.36-1.03-.58-.11-1.12-.04-1.56.42-1.48,1.57-1.46,3.94-.33,5.71s2.41,3.16,3.94,4.46c1.92,1.64,4.39,2.89,6.94,2.79,1.18-.05,2.04-.86,2.49-1.9.29-.68.2-1.53-.51-1.89l-1.95-.97c-.56-.28-1.33-.2-1.69.33Z"/>
</svg>