<svg width="23" height="23" viewBox="0 0 23 23" fill="none" xmlns="http://www.w3.org/2000/svg">
<path d="M12.4783 0.729232L14.8396 5.7899C14.9657 6.05954 15.1563 6.29393 15.3946 6.47231C15.6328 6.65069 15.9114 6.76756 16.2056 6.81257L21.591 7.64057C21.8198 7.67527 22.0347 7.77232 22.212 7.92107C22.3894 8.06981 22.5224 8.26451 22.5964 8.48382C22.6704 8.70314 22.6826 8.9386 22.6317 9.1644C22.5808 9.39019 22.4686 9.5976 22.3076 9.7639L18.2996 13.8972C18.1039 14.0986 17.958 14.343 17.8736 14.6109C17.7892 14.8788 17.7687 15.1627 17.8136 15.4399L18.747 21.2019C18.7836 21.4363 18.7536 21.6762 18.6605 21.8944C18.5674 22.1126 18.4149 22.3003 18.2204 22.436C18.0258 22.5718 17.7971 22.6502 17.5601 22.6623C17.3232 22.6744 17.0877 22.6198 16.8803 22.5046L12.2136 19.9079C11.9438 19.7579 11.6401 19.6791 11.3313 19.6791C11.0225 19.6791 10.7188 19.7579 10.449 19.9079L5.7823 22.5046C5.57493 22.6198 5.33937 22.6744 5.10245 22.6623C4.86554 22.6502 4.63678 22.5718 4.44225 22.436C4.24771 22.3003 4.0952 22.1126 4.0021 21.8944C3.909 21.6762 3.87904 21.4363 3.91563 21.2019L4.84897 15.4399C4.89392 15.1627 4.87338 14.8788 4.789 14.6109C4.70461 14.343 4.55871 14.0986 4.36297 13.8972L0.354967 9.7639C0.193957 9.5976 0.0818383 9.39019 0.0309023 9.1644C-0.0200337 8.9386 -0.00782104 8.70314 0.0662019 8.48382C0.140225 8.26451 0.2732 8.06981 0.450551 7.92107C0.627902 7.77232 0.842781 7.67527 1.07163 7.64057L6.45697 6.81257C6.75119 6.76756 7.02977 6.65069 7.26804 6.47231C7.50631 6.29393 7.69692 6.05954 7.82297 5.7899L10.1843 0.729232C10.2864 0.511255 10.4486 0.326894 10.6517 0.197743C10.8548 0.0685927 11.0906 0 11.3313 0C11.572 0 11.8078 0.0685927 12.0109 0.197743C12.214 0.326894 12.3762 0.511255 12.4783 0.729232Z" fill="url(#paint0_linear_334_7170)"/>
<path d="M21.5903 7.64061L16.205 6.81261C16.1117 6.7935 16.0201 6.76698 15.931 6.73328L4.38833 18.2759L3.91433 21.1999C3.87774 21.4343 3.9077 21.6743 4.0008 21.8925C4.0939 22.1107 4.24641 22.2983 4.44095 22.4341C4.63549 22.5698 4.86424 22.6483 5.10116 22.6604C5.33807 22.6725 5.57363 22.6178 5.781 22.5026L10.4477 19.9059C10.7175 19.7559 11.0212 19.6772 11.33 19.6772C11.6388 19.6772 11.9425 19.7559 12.2123 19.9059L16.879 22.5026C17.0864 22.6178 17.3219 22.6725 17.5588 22.6604C17.7958 22.6483 18.0245 22.5698 18.2191 22.4341C18.4136 22.2983 18.5661 22.1107 18.6592 21.8925C18.7523 21.6743 18.7823 21.4343 18.7457 21.1999L17.8123 15.4379C17.7674 15.1607 17.7879 14.8768 17.8723 14.6089C17.9567 14.3411 18.1026 14.0967 18.2983 13.8953L22.3063 9.76194C22.4668 9.59563 22.5784 9.38843 22.6291 9.16297C22.6797 8.93751 22.6674 8.70246 22.5935 8.48352C22.5196 8.26457 22.3869 8.07015 22.21 7.9215C22.0331 7.77284 21.8187 7.67567 21.5903 7.64061Z" fill="url(#paint1_linear_334_7170)"/>
<defs>
<linearGradient id="paint0_linear_334_7170" x1="0.636967" y1="1.57457" x2="21.137" y2="23.5746" gradientUnits="userSpaceOnUse">
<stop stop-color="#FFCA4F"/>
<stop offset="1" stop-color="#F7AE30"/>
</linearGradient>
<linearGradient id="paint1_linear_334_7170" x1="10.809" y1="12.9119" x2="21.9477" y2="22.9673" gradientUnits="userSpaceOnUse">
<stop stop-color="#FFCA4F" stop-opacity="0"/>
<stop offset="1" stop-color="#F4901F"/>
</linearGradient>
</defs>
</svg>
