<svg id="Capa_1" enable-background="new 0 0 512 512" height="512" viewBox="0 0 512 512" width="512" xmlns="http://www.w3.org/2000/svg" xmlns:xlink="http://www.w3.org/1999/xlink"><linearGradient id="SVGID_1_" gradientUnits="userSpaceOnUse" x1="256" x2="256" y1="501" y2="11"><stop offset="0" stop-color="#00b59c"/><stop offset="1" stop-color="#9cffac"/></linearGradient><linearGradient id="SVGID_00000126300396945555233600000002853622243307799207_" gradientUnits="userSpaceOnUse" x1="256" x2="256" y1="471" y2="41"><stop offset="0" stop-color="#c3ffe8"/><stop offset=".9973" stop-color="#f0fff4"/></linearGradient><g><path d="m467 11h-422c-24.813 0-45 20.187-45 45v300c0 24.813 20.187 45 45 45h422c24.813 0 45-20.187 45-45v-300c0-24.813-20.187-45-45-45zm-91 490h-240c-8.284 0-15-6.716-15-15s6.716-15 15-15h240c8.284 0 15 6.716 15 15s-6.716 15-15 15z" fill="url(#SVGID_1_)"/><path d="m190.299 401h131.401c2.232 24.7 9.954 48.59 22.689 70h-176.778c12.735-21.41 20.457-45.3 22.688-70zm-160.299-345v260h452v-260c0-8.271-6.729-15-15-15h-422c-8.271 0-15 6.729-15 15z" fill="url(#SVGID_00000126300396945555233600000002853622243307799207_)"/></g></svg>