<?xml version="1.0" encoding="UTF-8"?>
<svg id="Layer_1" data-name="Layer 1" xmlns="http://www.w3.org/2000/svg" viewBox="0 0 1600 600">
  <defs>
    <style>
      .cls-1 {
        fill: #181818;
      }

      .cls-2 {
        fill: #e6da20;
      }

      .cls-3 {
        fill: #f8e90c;
      }

      .cls-4 {
        fill: #8c8312;
      }

      .cls-5 {
        fill: #f9e90b;
      }

      .cls-6 {
        fill: #f8e80b;
      }

      .cls-7 {
        fill: #171717;
      }

      .cls-8 {
        fill: #efe220;
      }

      .cls-9 {
        fill: #e6d618;
      }

      .cls-10 {
        fill: #8a8111;
      }

      .cls-11 {
        fill: #f9e90c;
      }

      .cls-12 {
        fill: #908a1c;
      }

      .cls-13 {
        fill: #f8e920;
      }

      .cls-14 {
        fill: #9b8c03;
      }
    </style>
  </defs>
  <path class="cls-6" d="M186.72,162.09c10.9-.74,21.8-1.24,32.73-1.59,3.71-.15,7.41-.34,11.11-.59q29.93-1.98,38.44,4.97c5.74,6.86,9.5,14.48,12.86,22.72,1.9,4.58,4.3,8.83,6.77,13.13.71,1.35,1.42,2.7,2.15,4.09,3.1,5.65,6.64,11.01,10.22,16.37,2.13,4.85,1.72,6.73,0,11.73-1.99,4.04-4.23,7.9-6.54,11.77-1.13,1.92-2.26,3.84-3.39,5.76-.97,1.65-1.94,3.3-2.95,5,1.52-.01,3.04-.02,4.6-.03,5.66-.01,11.31.03,16.96.1,2.44.02,4.89.02,7.33,0q20.4-.14,26.05,4.15,2.23,3.12,4.61,8.66c2.17-2.78,4.23-5.65,6.24-8.55,1.16-1.59,2.32-3.17,3.51-4.81,1.79-7.02,1.03-8.13-2.31-14.29-1.92-3.14-3.86-6.27-5.82-9.38-1.82-3.17-3.62-6.35-5.41-9.54-2.75-4.83-5.51-9.65-8.27-14.47-.89-1.56-1.78-3.13-2.7-4.74-.8-1.4-1.6-2.79-2.42-4.23-2.09-3.95-3.78-7.9-5.35-12.08,10.37-.41,20.73-.69,31.1-.88,3.53-.08,7.05-.19,10.58-.33,5.08-.2,10.14-.29,15.22-.36q2.35-.12,4.76-.25c4.65,0,8.03.17,12.38,1.82,4.33,4.9,6.99,10.16,9.66,16.1.84,1.52,1.68,3.03,2.55,4.6.65,1.24,1.31,2.48,1.98,3.75,2.83,5.3,5.79,10.47,8.96,15.56.66,1.07,1.33,2.14,2.01,3.25,1.31,2.11,2.64,4.21,3.99,6.3,3.64,5.86,5.3,9.58,4.66,16.44q-1.37,3.29-3.31,6.51-1.08,1.82-2.17,3.68c-.78,1.28-1.56,2.57-2.37,3.89-.79,1.33-1.58,2.66-2.4,4.03-1.65,2.77-3.31,5.54-4.97,8.31-2.43,4.05-4.82,8.12-7.2,12.2q-11.11,19.05-13,20.94c-4.34.12-8.64.15-12.98.1-1.22,0-2.44-.01-3.7-.02-3.03-.02-6.05-.05-9.08-.08.59.98,1.19,1.96,1.8,2.98,2.68,4.46,5.32,8.94,7.96,13.42q1.4,2.32,2.83,4.68t2.66,4.54c.82,1.37,1.64,2.75,2.48,4.16,1.93,4.87,1.56,7.13-.02,12.07-2.08,4.12-4.22,8.09-6.54,12.07-.65,1.13-1.29,2.26-1.96,3.43-5.12,8.9-10.49,17.62-15.92,26.33-2.74,4.5-5.29,9.05-7.78,13.7-.74,1.33-1.47,2.65-2.23,4.02-1.79,3.34-3.46,6.75-5.02,10.2q-7.29,14.45-15.71,17.39c-6.52.59-12.72.53-19.24.21-2.36-.04-4.73-.07-7.09-.09-6.19-.08-12.36-.28-18.54-.52-6.32-.22-12.65-.31-18.97-.42-12.38-.22-24.76-.58-37.14-1.02,1.51-3.06,3.03-6.12,4.55-9.18.84-1.7,1.69-3.41,2.56-5.17,3.46-6.75,7.36-13.15,11.4-19.56,5.65-9.1,11.12-18.22,16.12-27.7,1.89-3.48,3.85-6.86,5.89-10.25.6-1.01,1.21-2.03,1.83-3.07,1.19-1.99,2.39-3.97,3.61-5.93q3.18-5.08,3.46-10.85c-1.94-5.58-4.97-10.61-7.87-15.74-.7-1.24-1.39-2.48-2.11-3.76-8.1-14.37-16.45-28.61-24.79-42.84-.86-1.47-1.72-2.94-2.61-4.46-1.49-2.54-2.98-5.07-4.48-7.6q-4.34-7.39-4.34-10.96h-3.22c-.4,1.09-.79,2.17-1.2,3.29-2.44,5.75-5.43,11.03-8.56,16.42-.59,1.03-1.17,2.05-1.78,3.11q-4.34,7.53-6.17,9.37c-2.16.14-4.33.17-6.5.16-1.3,0-2.6-.01-3.95-.02-1.37-.01-2.74-.03-4.15-.04-1.37,0-2.75-.01-4.17-.02-3.41-.02-6.81-.05-10.22-.08,5.12-10.79,10.62-21.18,16.8-31.39.61-1.01,1.22-2.03,1.85-3.07,2.94-4.86,5.93-9.69,8.98-14.49,1.04-1.67,2.08-3.35,3.15-5.07q1.4-2.19,2.83-4.43c2.29-5.51,1.56-8.21.19-13.98q-2.03-4.39-4.69-8.66c-.96-1.62-1.92-3.23-2.91-4.9-1.01-1.67-2.02-3.33-3.06-5.05-8.08-13.48-15.8-27.05-23.14-40.95Z"/>
  <path class="cls-7" d="M698.59,229.7h122.33q.5,49.2.62,64.67c.05,4.06.11,8.13.16,12.19.01,2.1.02,4.19.03,6.36.2,12.52.46,21.9,8.94,31.67,7.14,5.99,15.12,4.87,24.04,4.23q5.01-1.02,8.05-4.83c5.56-12.62,5.59-25.58,5.65-39.15.03-2.18.06-4.36.09-6.54.08-5.68.12-11.36.17-17.04.05-5.82.12-11.63.2-17.45.14-11.37.24-22.74.34-34.12h19.32c.02,3.07.05,6.14.07,9.3.08,10.16.19,20.33.31,30.49.07,6.16.14,12.32.18,18.48.04,5.95.11,11.9.19,17.85.03,2.27.05,4.53.06,6.8.02,3.18.06,6.36.11,9.55.02,1.81.04,3.62.05,5.48.95,7.5,3.86,12.82,8.69,18.55,7.4,4.01,14.31,3.79,22.54,2.62,6.34-2.78,8.84-4.45,11.47-10.86,2.53-9.79,1.99-20.08,2.07-30.13.03-2.26.06-4.52.09-6.77.08-5.91.15-11.82.21-17.73.06-6.04.15-12.09.23-18.13.16-11.83.29-23.66.41-35.5,13.34-.15,26.67-.26,40.01-.33,6.19-.03,12.39-.08,18.58-.15,5.99-.07,11.98-.11,17.97-.13,2.27-.01,4.54-.03,6.82-.07,20.83-.31,36.31,2.86,51.57,17.58,5.3,6.12,8.75,12.54,11.53,20.12.56,1.5,1.11,3,1.68,4.55,2.58,9.2,1.93,18.77,1.85,28.25,0,2.06,0,4.11-.01,6.23-.01,5.43-.04,10.87-.08,16.3-.03,5.56-.05,11.11-.06,16.67-.04,10.88-.09,21.76-.16,32.64h-19.32c-.53-5.31-1.06-10.62-1.61-16.1-.96.64-1.91,1.28-2.9,1.94-18.05,11.54-38.99,16.97-60.28,12.44-11.2-3.22-18.67-8.5-25.96-17.51-6.49-12.23-7.93-25.72-5.03-39.28,3.36-9.96,9.04-17.5,18.41-22.49,8.27-4.02,16.86-4.53,25.94-4.48,1.78,0,3.57.01,5.41.02,1.84.01,3.68.03,5.57.04q2.81.01,5.68.02c4.61.02,9.22.05,13.83.08-.53,6.37-1.06,12.75-1.61,19.32-2.54.06-5.08.12-7.7.18-3.37.11-6.74.21-10.1.32q-2.51.05-5.06.11c-10.93.38-19.86,1.17-28.54,8.44-3.51,7.84-2.75,16.56.1,24.55,3.67,6.11,6.13,7.24,12.68,9.86,15.88,1.98,32.11.8,45.27-8.98,10.88-10.06,13.87-21.5,14.61-36.07q.45-18.27-5.16-35.43c-.51-1.04-1.02-2.07-1.55-3.14-5.28-8.93-12.92-11.8-22.6-14.57-6.41-.87-12.72-.97-19.18-.98-1.76-.03-3.53-.05-5.34-.08-5.58-.08-11.15-.11-16.73-.15-3.8-.05-7.61-.09-11.41-.14-9.27-.12-18.55-.2-27.82-.26.01,1.05.03,2.1.04,3.18.14,10.99.24,21.99.31,32.98.03,4.1.08,8.19.13,12.28.08,5.91.11,11.82.14,17.73.03,1.81.07,3.62.1,5.48,0,13.94-2.91,25.43-9.78,37.59-10.7,9.58-23.34,13.77-37.63,13.08-10.91-1.82-18.81-6-27.36-12.88-3.45,1.6-6.36,3.16-9.32,5.58-9.9,6.87-23.56,8.4-35.26,6.59-12.98-3.15-22.17-10.62-29.46-21.82-5.19-11.4-5.47-22.21-5.3-34.56,0-1.87.01-3.75.02-5.68.03-5.94.09-11.87.15-17.81.02-4.04.05-8.09.07-12.13.05-9.87.14-19.74.24-29.62h-37.02c0,3.65.02,7.3.03,11.06.03,12.03.04,24.05.06,36.08,0,7.3.02,14.59.04,21.89.02,7.03.03,14.07.03,21.1,0,2.69,0,5.38.02,8.07.01,3.75.01,7.51.01,11.26,0,1.12.01,2.25.02,3.4q-.02,7.68-1.81,9.47h-17.71v-122.33h-46.68v-19.32Z"/>
  <path class="cls-1" d="M1253.44,229.51c1.07,0,2.14,0,3.24,0,3.52,0,7.04.01,10.56.03,2.44,0,4.89,0,7.33,0,6.43,0,12.85.02,19.28.04,7.71.02,15.43.03,23.14.04,11.71.02,23.42.05,35.13.07v59.56h72.44v-59.56h19.32v141.65h-17.71q-1.61-1.61-1.79-7.41c0-2.58,0-5.16.03-7.74,0-1.2,0-2.4,0-3.64,0-4.5.03-9.01.05-13.51.03-10.06.07-20.12.1-30.48h-72.44v61.17h-19.32v-120.73c-13.88.2-27.75.4-42.05.6-4.37.05-8.73.11-13.23.17-3.47.06-6.95.11-10.42.17-1.79.02-3.59.04-5.43.06q-14.85.1-27.55,7.05c-4.96,5.88-4.84,10.08-4.33,17.71,2.62,7.04,6.87,9.9,13.54,13.13,8.61,2.81,17.72,2.26,26.7,2.27q28.77.11,39.02,8.48c.87,1.05,1.73,2.1,2.63,3.19.89,1.04,1.78,2.08,2.7,3.15,7.81,12.05,6.86,26.78,4.44,40.41-4.32,10.28-9.8,17.43-19.82,22.74-10.25,3.17-19.59,3.67-30.28,3.59-1.62,0-3.24,0-4.91,0-3.4,0-6.8-.02-10.21-.04-5.23-.03-10.46-.03-15.69-.03-3.31,0-6.62-.02-9.93-.03-1.57,0-3.14,0-4.76,0q-2.16-.02-4.37-.03-1.91,0-3.86-.02-2.92-.22-4.53-1.82c-.16-2.95-.21-5.9-.2-8.85,0-1.61,0-3.22-.01-4.88q.21-3.97,1.82-5.58c2.38-.16,4.76-.2,7.15-.2,1.52,0,3.04-.01,4.61-.02q2.48,0,5.02,0c3.48-.03,6.96-.06,10.44-.09,5.51-.05,11.01-.08,16.52-.08,5.3,0,10.6-.06,15.9-.12q2.47.02,4.98.03,9.54-.16,17.68-4.91c3.92-5.52,4.88-9.61,4.93-16.23.02-1.23.05-2.45.07-3.72-.43-4.16-1.25-6.59-3.59-10.07-5.42-3.52-9.99-3.62-16.36-3.66q-2.91-.05-5.88-.1c-4.05-.04-8.1-.07-12.15-.09-17.62-.34-30.52-3.67-43.48-15.9-8.68-9.27-9.56-18.33-9.39-30.56.85-11.02,6.8-19.72,14.83-26.96,9.86-6.29,18.45-8.25,30.09-8.23Z"/>
  <path class="cls-7" d="M500.6,229.7c20.5-.15,41-.26,61.5-.33,9.52-.03,19.04-.08,28.56-.15,9.19-.07,18.39-.11,27.58-.13,3.5-.01,7-.04,10.5-.07,4.92-.05,9.84-.05,14.76-.05q2.15-.03,4.34-.07c15.61.1,29.84,5.99,41.09,16.9,11.12,13.59,16.29,28.52,16.3,46.07,0,1.73.01,3.47.02,5.26q0,2.77,0,5.6c0,1.91,0,3.82,0,5.79,0,4.03,0,8.06,0,12.08,0,6.19,0,12.38.01,18.58,0,3.91,0,7.82,0,11.74,0,1.86,0,3.73,0,5.64q0,2.56-.02,5.18c0,1.51,0,3.02,0,4.58q-.2,3.43-1.81,5.04c-5.91.23-11.79.07-17.71,0-.53-5.84-1.06-11.69-1.61-17.71-1.39,1.23-2.79,2.46-4.23,3.72-8.35,7.35-17.56,10.16-28.27,11.97-1.21.2-2.41.41-3.66.62-15.4,2.39-29.12,1.57-42.72-6.66-11.27-9.8-15.34-19.19-17.71-33.8-.41-10.67,1.8-20.23,8.05-28.97,9.59-10.25,19.61-14.12,33.62-14.67,1.57,0,3.14.02,4.75.03,1.71,0,3.42.01,5.19.02q2.64.02,5.34.04c1.8,0,3.6.01,5.45.02,4.42.02,8.84.05,13.26.08v19.32q-3.78.09-7.65.18c-3.35.11-6.71.21-10.06.32-1.66.04-3.32.07-5.02.11-10.07.35-18.06,1.39-27.17,5.83-5.02,7.53-4.17,15.33-3.22,24.15,1.88,5.08,4.57,8.39,9.12,11.47,5.3,1.99,10.44,2.03,16.03,2.01,1.14,0,2.29,0,3.47,0,11.81-.27,20.5-3.79,30.64-9.65,11.14-12.1,15.42-28.47,15.39-44.57,0-1.2,0-2.39,0-3.63-.2-9.89-2.5-17.66-7.05-26.45q-.8-2.39-1.61-4.83-2.9-1.72-6.44-3.22c-1.29-.83-2.59-1.66-3.92-2.52-6.78-3.8-13.4-4.13-21.07-4.25q-2.65-.05-5.34-.1t-5.56-.08c-1.7-.03-3.4-.06-5.15-.09-6.34-.11-12.67-.21-19.01-.31-14.18-.23-28.35-.46-42.96-.7v122.33h-19.32v-122.33h-46.68v-19.32Z"/>
  <path class="cls-10" d="M335.15,347.15c6.31.25,12.62.36,18.94.48,12.36.26,24.71.67,37.06,1.18-1.78,3.59-3.56,7.18-5.34,10.77q-.75,1.51-1.51,3.06c-4.04,8.12-8.51,15.84-13.37,23.5-4.83,7.75-9.58,15.48-13.88,23.54-.69,1.24-1.37,2.49-2.08,3.77-1.73,3.24-3.33,6.55-4.84,9.91q-7.31,14.5-15.74,17.44c-6.51.59-12.72.52-19.24.21-2.36-.04-4.73-.07-7.09-.09-6.19-.08-12.36-.28-18.54-.52-6.32-.22-12.65-.31-18.97-.42-12.38-.22-24.76-.58-37.14-1.02,1.51-3.06,3.03-6.12,4.55-9.18.84-1.7,1.69-3.41,2.56-5.17,3.46-6.75,7.36-13.15,11.4-19.56,4.82-7.76,9.58-15.49,13.88-23.54.72-1.24,1.45-2.48,2.19-3.76q2.66-4.87,4.15-10.86c9.15-27.07,39.61-20.76,63.01-19.74Z"/>
  <path class="cls-5" d="M325.15,186.24c10.37-.41,20.73-.69,31.1-.88,3.53-.08,7.05-.19,10.58-.33,5.08-.2,10.14-.29,15.22-.36q2.35-.12,4.76-.25c4.65,0,8.03.17,12.38,1.82,4.33,4.9,6.99,10.16,9.66,16.1q1.26,2.28,2.55,4.6c.65,1.24,1.31,2.48,1.98,3.75,2.83,5.3,5.79,10.47,8.96,15.56.66,1.07,1.33,2.14,2.01,3.25,1.31,2.11,2.64,4.21,3.99,6.3,3.64,5.86,5.3,9.58,4.66,16.44q-1.37,3.29-3.31,6.51c-.72,1.22-1.43,2.43-2.17,3.68-.78,1.28-1.56,2.57-2.37,3.89-.79,1.33-1.58,2.66-2.4,4.03-1.65,2.77-3.31,5.54-4.97,8.31-2.43,4.05-4.82,8.12-7.2,12.2q-11.11,19.05-13,20.94c-3.71.17-7.36.23-11.07.2q-1.75,0-3.53,0c-18.75-.14-37.49-1.02-56.23-1.8,1.94-5.05,4.04-9.79,6.72-14.49.67-1.18,1.33-2.37,2.02-3.59q1.05-1.86,2.13-3.75c6.38-11.35,12.42-22.79,18.11-34.51.66-.97,1.31-1.94,1.99-2.93q1.69-3.6-.29-7.48c-.89-1.46-1.78-2.92-2.69-4.43-.98-1.64-1.95-3.27-2.96-4.95q-1.58-2.55-3.18-5.16l-6.03-10.01c-1.01-1.65-2.01-3.31-3.05-5.01-3.19-5.26-6.36-10.52-9.49-15.81q-1.4-2.36-2.84-4.77-2.04-3.83-2.04-7.05Z"/>
  <path class="cls-11" d="M186.72,162.09c10.9-.74,21.8-1.24,32.73-1.59,3.71-.15,7.41-.34,11.11-.59q29.93-1.98,38.44,4.97c5.74,6.86,9.5,14.48,12.86,22.72,1.9,4.58,4.3,8.83,6.77,13.13.71,1.35,1.42,2.7,2.15,4.09,3.1,5.65,6.64,11.01,10.22,16.37,2.13,4.85,1.71,6.73,0,11.73-2.02,3.96-4.08,7.75-6.34,11.57q-.87,1.52-1.76,3.07c-2.4,4.13-4.61,7.73-8,11.12q-4.95.37-11.23.31c-1.1,0-2.21,0-3.34-.01-3.53-.02-7.05-.06-10.58-.1-2.39-.02-4.78-.03-7.17-.04-5.86-.04-11.72-.09-17.58-.16-.47,1.46-.95,2.92-1.43,4.42-3.76,11.03-8.65,23.44-17.88,30.99-9.41,3.09-19.38,1.51-28.97,0,5.12-10.79,10.62-21.18,16.8-31.39.61-1.01,1.22-2.03,1.85-3.07,2.94-4.86,5.93-9.69,8.98-14.49,1.04-1.67,2.08-3.35,3.15-5.07q1.4-2.19,2.83-4.43c2.29-5.51,1.56-8.21.19-13.98q-2.03-4.39-4.69-8.66c-.96-1.62-1.92-3.23-2.91-4.9-1.01-1.67-2.02-3.33-3.06-5.05-8.08-13.48-15.8-27.05-23.14-40.95Z"/>
  <path class="cls-1" d="M1184.71,240.96c8.96,6.84,14.59,14.92,17.71,25.75.84,8.1.75,16.17.63,24.3-.01,2.33-.02,4.65-.03,6.98-.02,6.07-.09,12.15-.16,18.22-.07,6.22-.1,12.43-.13,18.65-.07,12.16-.18,24.32-.31,36.48h-19.32c-.02-2.96-.03-5.93-.05-8.98-.06-9.82-.14-19.65-.25-29.47-.06-5.95-.12-11.9-.14-17.86-.02-5.75-.08-11.5-.16-17.25-.02-2.19-.04-4.38-.04-6.56q.03-16.61-7.42-30.94c-8.71-7.56-19.27-9.98-30.58-9.66-9.42.99-15.41,3.18-22.54,9.66h-3.22c-5.06,12.49-5.59,23.64-5.65,37.03-.03,2.12-.06,4.25-.09,6.43-.08,5.6-.12,11.19-.17,16.79-.05,5.73-.12,11.46-.2,17.19-.14,11.21-.24,22.42-.34,33.62h-19.32c-.15-12.94-.26-25.89-.33-38.83-.03-6.01-.08-12.02-.15-18.04-.07-5.81-.11-11.63-.13-17.44-.01-2.21-.03-4.41-.07-6.62-.3-19.58,2.85-33.61,16.55-47.99,5.03-4.49,9.99-7.26,16.32-9.51,1.01-.36,2.01-.72,3.05-1.09,19.8-5.93,39.28-1.46,56.51,9.14Z"/>
  <path class="cls-10" d="M358.95,249.01q3.2-.58,7.16-.55c1.48,0,2.96,0,4.49,0q2.4.04,4.86.08c1.64,0,3.28.01,4.97.02,5.25.03,10.5.09,15.75.15,3.55.02,7.11.05,10.66.07,8.72.05,17.44.13,26.16.24-2.17,5.72-4.71,10.98-7.72,16.31-.88,1.56-1.77,3.13-2.68,4.74-.92,1.62-1.84,3.24-2.79,4.9-.89,1.58-1.78,3.16-2.69,4.79-1.81,3.19-3.63,6.36-5.48,9.53-1.91,3.27-3.77,6.57-5.58,9.9q-6.97,12.12-14.04,14.39c-2.02-.19-4.03-.38-6.11-.58-2.37-.16-4.74-.32-7.11-.48-1.33-.12-2.65-.24-4.02-.37-7.33-.58-14.66-.75-22.01-.98-8.67-.28-17.35-.63-26.02-1,1.94-5.05,4.04-9.79,6.72-14.49.67-1.18,1.33-2.37,2.02-3.59.7-1.24,1.4-2.48,2.13-3.75,5.71-10.15,11.17-20.34,16.25-30.83q1.86-3.68,5.08-8.51Z"/>
  <path class="cls-4" d="M156.13,340.76c6.47-.36,12.94-.62,19.41-.8,2.2-.07,4.4-.17,6.59-.3q18.16-1.01,24.04,3.92c2.54,3.77,4.42,7.52,6.29,11.66,1.36,2.25,2.75,4.49,4.17,6.71,1.27,2.15,2.53,4.31,3.78,6.47.66,1.08,1.32,2.16,2,3.28.62,1.07,1.23,2.13,1.86,3.23.55.94,1.11,1.87,1.68,2.84,1.94,6.29-.01,11.6-2.72,17.38-.87,1.5-1.74,3-2.63,4.55-.85,1.48-1.69,2.96-2.56,4.48-1.08,1.84-2.16,3.69-3.27,5.59-3.42,5.91-6.84,11.82-10.36,17.91h-48.29c1.41-7.06,2.47-10.07,6.11-15.89.88-1.46,1.76-2.91,2.67-4.41,1.87-3.04,3.75-6.06,5.65-9.08q5.18-8.17,6.05-17.45c-.91-1.55-1.82-3.09-2.76-4.68-.65-1.1-1.3-2.21-1.96-3.34-3.09-5.15-6.35-10.19-9.61-15.24-.78-1.24-1.57-2.49-2.38-3.77-.72-1.12-1.44-2.24-2.19-3.39q-1.57-3.24-1.57-9.68Z"/>
  <path class="cls-4" d="M223.74,228.09h78.87q-11.27,22.54-17.71,30.58-5.31.91-11.54.79c-1.1-.01-2.2-.02-3.33-.03-3.49-.04-6.99-.15-10.48-.25-2.37-.04-4.75-.08-7.12-.11-5.81-.09-11.62-.23-17.42-.39-.47,1.46-.95,2.92-1.43,4.42-3.76,11.03-8.65,23.44-17.88,30.99-9.41,3.09-19.38,1.51-28.97,0,6.03-12.69,12.72-24.7,20.06-36.66,5.82-9.68,11.36-19.53,16.96-29.34Z"/>
  <path class="cls-3" d="M156.13,340.76c6.47-.36,12.94-.62,19.41-.8,2.2-.07,4.4-.17,6.59-.3q18.14-1.01,24.05,3.9c2.55,3.78,4.43,7.52,6.28,11.68,1.35,2.32,2.72,4.64,4.11,6.94,1.25,2.21,2.5,4.43,3.73,6.65.65,1.14,1.29,2.27,1.96,3.44q4.68,8.33,4.68,11.95c-6.73.32-13.45.55-20.19.71-2.29.06-4.58.15-6.86.26q-18.93.9-24.3-3.46c-2.11-3.38-3.54-6.69-4.98-10.39-1.27-2.13-2.59-4.24-3.96-6.31-1.27-2.05-2.53-4.11-3.79-6.16-.65-1.04-1.31-2.08-1.98-3.15-3.4-5.57-4.76-8.27-4.76-14.96Z"/>
  <path class="cls-2" d="M302.61,224.87v3.22h-78.87v-3.22c10.72-.27,21.43-.53,32.15-.78,3.65-.09,7.29-.18,10.94-.27,5.23-.13,10.47-.25,15.7-.37q2.46-.07,4.96-.13,2.27-.05,4.59-.1,2.01-.05,4.05-.1,3.26.13,6.48,1.74Z"/>
  <path class="cls-9" d="M428.17,239.35q2.41,2.11,4.83,4.83v4.83h-72.44c-.53-1.06-1.06-2.12-1.61-3.22h69.22v-6.44Z"/>
  <path class="cls-13" d="M386.32,339.15q4.83,6.24,4.83,8.05h-99.8v-1.61c31.34-.53,62.68-1.06,94.97-1.61v-4.83Z"/>
  <path class="cls-8" d="M344.46,266.72q1.95,2.54,3.22,6.44c-1.63,3.95-3.26,7.24-5.43,10.87-.55.97-1.1,1.94-1.67,2.94-1.36,2.39-2.76,4.76-4.16,7.12h-1.61c-.33-5.9.31-9.36,3.22-14.49.53-1.59,1.06-3.19,1.61-4.83h4.83v-8.05Z"/>
  <path class="cls-14" d="M342.85,279.6q1.61,4.83,0,8.47c-.77,1.29-1.53,2.58-2.32,3.9q-1.14,1.95-2.31,3.94c-.6.99-1.2,1.98-1.82,3h-4.83c3.72-6.37,7.44-12.75,11.27-19.32Z"/>
  <path class="cls-12" d="M249.49,409.98q1.61,4.83,0,9.66c-1.06,1.06-2.12,2.12-3.22,3.22-.53,1.06-1.06,2.12-1.61,3.22h-3.22c2.15-5.79,4.76-10.87,8.05-16.1Z"/>
</svg>