<?xml version="1.0" encoding="UTF-8"?>
<svg id="Layer_2" data-name="Layer 2" xmlns="http://www.w3.org/2000/svg" viewBox="0 0 416 415.99">
  <defs>
    <style>
      .cls-1 {
        fill: #fff;
      }

      .cls-2 {
        fill: #e31c1c;
      }
    </style>
  </defs>
  <g id="Layer_1-2" data-name="Layer 1">
    <g>
      <g id="uuid-6164d9be-182d-426e-9149-1c9406c8dee3" data-name="Layer 1-2">
        <path class="cls-1" d="M221.02,0l3.76.69c101.32,7.9,182.59,89.23,190.53,190.54l.69,3.75-.34,26.09c-3.46,53.91-27.63,104.2-67.69,140.7-83.64,76.2-212.54,71.5-290.59-10.47C-14.12,276.22-19.38,160.15,44.87,79.02,81.74,32.45,136.4,4,195.16.32l25.86-.32Z"/>
      </g>
      <g>
        <path class="cls-2" d="M255.67,196.81c-17.84-2.11-31.54,11.33-32.14,28.62v90s-51.89,0-51.89,0l.13-156.13,51.65-.04.22,21.77c7.94-11.93,17.93-20.33,31.35-23.54,12.13-2.9,24.6-2.44,36.41,1.46,27.03,8.95,37.65,34.92,38.63,62.52l.03,93.96h-51.9s.01-85.65.01-85.65c-.44-16.11-5.72-30.98-22.5-32.97Z"/>
        <g>
          <rect class="cls-2" x="91.02" y="159.27" width="51.93" height="156.15"/>
          <path class="cls-2" d="M135.92,132.14c-10.67,7.61-25.19,7.77-36.01,1.17-7.79-4.75-11.65-13.12-11.87-21.43-.24-8.74,3.25-17.22,10.84-22.38,10.1-6.86,23.77-7.33,34.48-1.42,7.98,4.4,12.24,12.63,12.85,20.89.64,8.8-2.45,17.6-10.27,23.18Z"/>
        </g>
      </g>
    </g>
  </g>
</svg>