<svg width="44" height="44" viewBox="0 0 44 44" fill="none" xmlns="http://www.w3.org/2000/svg">
<path d="M24 27.3334H20V34H24V27.3334Z" fill="#EF9D3A"/>
<path d="M23.9998 27.3334H22.6665V34H23.9998V27.3334Z" fill="#DD8628"/>
<path d="M9.33325 18.6667V14.6667H14.6666V12.6667H9.33325C8.80282 12.6667 8.29411 12.8775 7.91904 13.2525C7.54397 13.6276 7.33325 14.1363 7.33325 14.6667V18.6667C7.33325 19.9044 7.82492 21.0914 8.70009 21.9666C9.57526 22.8418 10.7622 23.3334 11.9999 23.3334H14.6666V21.3334H11.9999C11.2927 21.3334 10.6144 21.0525 10.1143 20.5524C9.6142 20.0523 9.33325 19.374 9.33325 18.6667Z" fill="#EF9D3A"/>
<path d="M34.6666 18.6667V14.6667H29.3333V12.6667H34.6666C35.197 12.6667 35.7057 12.8775 36.0808 13.2525C36.4559 13.6276 36.6666 14.1363 36.6666 14.6667V18.6667C36.6666 19.9044 36.1749 21.0914 35.2998 21.9666C34.4246 22.8418 33.2376 23.3334 31.9999 23.3334H29.3333V21.3334H31.9999C32.7072 21.3334 33.3854 21.0525 33.8855 20.5524C34.3856 20.0523 34.6666 19.374 34.6666 18.6667Z" fill="#EF9D3A"/>
<path d="M31.9999 21.3334H29.3333V23.3334H31.9999C32.1702 23.333 32.3403 23.3233 32.5096 23.3044C32.8203 22.5816 33.0439 21.8245 33.1758 21.049C32.8112 21.2336 32.4086 21.3309 31.9999 21.3334Z" fill="#DD8628"/>
<path d="M33.3333 12.6667H29.3333V14.6667H33.3333V12.6667Z" fill="#DD8628"/>
<path d="M12 10H32V19.3333C32 20.6466 31.7413 21.9469 31.2388 23.1602C30.7362 24.3734 29.9997 25.4758 29.0711 26.4044C28.1425 27.333 27.0401 28.0696 25.8268 28.5721C24.6136 29.0747 23.3132 29.3333 22 29.3333C19.3478 29.3333 16.8043 28.2798 14.9289 26.4044C13.0536 24.529 12 21.9855 12 19.3333V10Z" fill="#FFBC5A"/>
<path d="M30.8336 10V19.3333C30.8325 21.8687 29.8678 24.3089 28.1348 26.1595C26.4018 28.0101 24.0301 29.1327 21.5002 29.3C21.7216 29.3147 21.9418 29.3333 22.1669 29.3333C23.4801 29.3333 24.7805 29.0747 25.9937 28.5721C27.207 28.0696 28.3094 27.333 29.238 26.4044C30.1666 25.4758 30.9032 24.3734 31.4057 23.1602C31.9083 21.9469 32.1669 20.6466 32.1669 19.3333V10H30.8336Z" fill="#EF9D3A"/>
<path d="M32.6665 7.33337H11.3332C10.965 7.33337 10.6665 7.63185 10.6665 8.00004V9.33337C10.6665 9.70156 10.965 10 11.3332 10H32.6665C33.0347 10 33.3332 9.70156 33.3332 9.33337V8.00004C33.3332 7.63185 33.0347 7.33337 32.6665 7.33337Z" fill="#EF9D3A"/>
<path d="M32.6666 7.33337H31.3333C31.5101 7.33337 31.6796 7.40361 31.8047 7.52864C31.9297 7.65366 31.9999 7.82323 31.9999 8.00004V9.33337C31.9999 9.51019 31.9297 9.67975 31.8047 9.80478C31.6796 9.9298 31.5101 10 31.3333 10H32.6666C32.8434 10 33.013 9.9298 33.138 9.80478C33.263 9.67975 33.3333 9.51019 33.3333 9.33337V8.00004C33.3333 7.82323 33.263 7.65366 33.138 7.52864C33.013 7.40361 32.8434 7.33337 32.6666 7.33337Z" fill="#DD8628"/>
<path d="M17.3333 34H26.6666C27.197 34 27.7057 34.2107 28.0808 34.5858C28.4559 34.9609 28.6666 35.4696 28.6666 36V36.6667H15.3333V36C15.3333 35.4696 15.544 34.9609 15.919 34.5858C16.2941 34.2107 16.8028 34 17.3333 34Z" fill="#FFBC5A"/>
<path d="M26.6666 34H25.3333C25.8637 34 26.3724 34.2107 26.7475 34.5858C27.1225 34.9609 27.3333 35.4696 27.3333 36V36.6667H28.6666V36C28.6666 35.4696 28.4559 34.9609 28.0808 34.5858C27.7057 34.2107 27.197 34 26.6666 34Z" fill="#EF9D3A"/>
<path d="M22.6035 15.6041L23.0849 16.6298C23.1314 16.7289 23.2016 16.815 23.2893 16.8805C23.377 16.9461 23.4794 16.989 23.5877 17.0055L24.7174 17.1781C24.8386 17.1966 24.9523 17.2482 25.046 17.3271C25.1398 17.406 25.21 17.5093 25.2489 17.6255C25.2878 17.7417 25.2939 17.8664 25.2666 17.9859C25.2392 18.1054 25.1795 18.215 25.0939 18.3027L24.2349 19.1831C24.162 19.2578 24.1077 19.3485 24.0763 19.448C24.0449 19.5475 24.0373 19.653 24.0541 19.756L24.251 20.9634C24.2711 21.0869 24.2561 21.2135 24.2077 21.3289C24.1592 21.4442 24.0793 21.5436 23.977 21.6157C23.8747 21.6878 23.7542 21.7296 23.6293 21.7364C23.5044 21.7432 23.38 21.7147 23.2705 21.6542L22.3225 21.1301C22.2237 21.0755 22.1127 21.0469 21.9999 21.0469C21.8871 21.0469 21.7761 21.0755 21.6774 21.1301L20.7293 21.6542C20.6198 21.7147 20.4955 21.7432 20.3706 21.7364C20.2456 21.7296 20.1251 21.6878 20.0229 21.6157C19.9206 21.5436 19.8406 21.4442 19.7922 21.3289C19.7437 21.2135 19.7287 21.0869 19.7489 20.9634L19.9458 19.756C19.9626 19.653 19.955 19.5475 19.9236 19.448C19.8922 19.3485 19.8379 19.2578 19.765 19.1831L18.9061 18.3027C18.8205 18.215 18.7607 18.1054 18.7334 17.9859C18.706 17.8664 18.7121 17.7417 18.751 17.6255C18.7899 17.5093 18.8601 17.406 18.9539 17.3271C19.0477 17.2482 19.1614 17.1966 19.2825 17.1781L20.4123 17.0055C20.5205 16.989 20.623 16.9461 20.7106 16.8805C20.7983 16.815 20.8685 16.7289 20.9151 16.6298L21.3965 15.6041C21.4503 15.4895 21.5356 15.3926 21.6425 15.3247C21.7493 15.2568 21.8733 15.2207 22 15.2207C22.1266 15.2207 22.2506 15.2568 22.3575 15.3247C22.4643 15.3926 22.5497 15.4895 22.6035 15.6041Z" fill="#E05555"/>
</svg>
