<?xml version="1.0" encoding="UTF-8"?>
<svg id="Layer_2" data-name="Layer 2" xmlns="http://www.w3.org/2000/svg" viewBox="0 0 416 415.99">
  <defs>
    <style>
      .cls-1 {
        fill: #fff;
      }

      .cls-2 {
        fill: #fe0000;
      }

      .cls-3 {
        fill: #fe2929;
      }

      .cls-4 {
        fill: #fe7777;
      }

      .cls-5 {
        fill: #fefefe;
      }

      .cls-6 {
        fill: #fe4646;
      }

      .cls-7 {
        fill: #fe6161;
      }
    </style>
  </defs>
  <g id="Layer_1-2" data-name="Layer 1">
    <g>
      <path class="cls-1" d="M221.02,0l3.76.69c101.32,7.9,182.59,89.23,190.53,190.54l.69,3.75-.34,26.09c-3.46,53.91-27.63,104.2-67.69,140.7-83.64,76.2-212.54,71.5-290.59-10.47C-14.12,276.22-19.38,160.15,44.87,79.02,81.74,32.45,136.4,4,195.16.32l25.86-.32Z"/>
      <g>
        <path class="cls-2" d="M82.89,236.16v-2.01l.51-1.51c-.19-.56-.36-1.23-.51-2.01v-21.11c.39-.97.39-2.04,0-3.02l.15-4.99c.12-2.39.24-4.75.35-7.09l.51-2.99c-.24-.08-.43-.16-.43-.24-.54-11.62.97-29.84,5.7-40.28,4.26-9.39,12.79-15.68,22.58-18.41,22.38-3.42,45.48-4.42,67.96-4.66,42.64-.46,84.84-.83,127.07,3.88,13.58,2.46,24.76,9.7,28.9,23.44,2.44,8.07,3.42,16.54,4.08,24.86.97,26.29,1.1,52.74-.2,79.17-2.3,22.63-5.54,41.25-31.29,46.41-26.48,3.24-52.93,3.89-79.33,4.12-37.75.33-75.54.09-113.07-4.16-25.35-5.45-29.91-20.96-31.94-44.33-.39-8.38-.73-16.74-1.02-25.09Z"/>
        <g>
          <path class="cls-3" d="M82.89,209.52v-3.02c.78.7.78,2.32,0,3.02Z"/>
          <path class="cls-6" d="M83.41,232.64c-.14.44-.31.44-.51,0v-2.01c.7.43.52,1.3.51,2.01Z"/>
          <path class="cls-7" d="M82.89,234.15v-1.51h.51c0,.57.1,1.21-.51,1.51Z"/>
          <polygon class="cls-5" points="252.91 218.69 185.94 257.29 185.95 180.08 252.91 218.69"/>
          <path class="cls-4" d="M83.39,194.42c.03-1-.3-2.25.51-2.99-.03,1,.28,2.25-.51,2.99Z"/>
        </g>
      </g>
    </g>
  </g>
</svg>