<?xml version="1.0" encoding="UTF-8"?>
<svg id="Layer_2" data-name="Layer 2" xmlns="http://www.w3.org/2000/svg" viewBox="0 0 416 415.99">
  <defs>
    <style>
      .cls-1 {
        fill: #fff;
      }

      .cls-2 {
        fill: #e31c1c;
      }
    </style>
  </defs>
  <g id="Layer_1-2" data-name="Layer 1">
    <g>
      <path class="cls-1" d="M221.02,0l3.76.69c101.32,7.9,182.59,89.23,190.53,190.54l.69,3.75-.34,26.09c-3.46,53.91-27.63,104.2-67.69,140.7-83.64,76.2-212.54,71.5-290.59-10.47C-14.12,276.22-19.38,160.15,44.87,79.02,81.74,32.45,136.4,4,195.16.32l25.86-.32Z"/>
      <path class="cls-2" d="M328.23,148.55c-4.23-15.8-17.13-22.73-32.66-25.27-9.44-1.55-18.56-2.15-28.32-2.14h-118.97c-9.88,0-19.11.65-28.64,2.3-13.78,2.39-26.22,8.46-31.09,22.08-2.62,7.34-3.81,15.26-3.81,22.98l.02,70.78c.01,8.68,1.59,17.44,4.39,25.78,5.17,15.37,17.39,23.56,32.86,26.99,8.84,1.96,17.48,2.79,26.76,2.79h118.48c9.12.01,17.6-.57,26.38-2.2,16.81-3.12,28.91-11.68,33.76-28.45,2.31-8.01,3.83-16.1,3.84-24.67l.03-68.85c.01-7.68-1.1-14.91-3.03-22.12ZM243.31,213.75l-51.97,27.18c-2.76,1.44-5.67,1.12-8.2-.47-2.1-1.32-3.53-3.9-3.53-6.95v-53.44c.01-2.97,1.56-5.41,3.68-6.75,2.27-1.44,5.2-1.88,7.87-.5l51.95,26.99c2.62,1.36,4.06,4.02,4.16,6.67.11,2.54-1.05,5.75-3.96,7.27Z"/>
    </g>
  </g>
</svg>