<?xml version="1.0" encoding="UTF-8"?>
<svg version="1.1" xmlns="http://www.w3.org/2000/svg" width="460" height="205">
<path d="M0 0 C151.8 0 303.6 0 460 0 C460 67.65 460 135.3 460 205 C308.2 205 156.4 205 0 205 C0 137.35 0 69.7 0 0 Z " fill="#FEFEFE" transform="translate(0,0)"/>
<path d="M0 0 C1.15757813 -0.00257812 2.31515625 -0.00515625 3.5078125 -0.0078125 C4.72210938 -0.00007813 5.93640625 0.00765625 7.1875 0.015625 C8.40179687 0.00789063 9.61609375 0.00015625 10.8671875 -0.0078125 C12.60355469 -0.00394531 12.60355469 -0.00394531 14.375 0 C15.44105469 0.00225586 16.50710937 0.00451172 17.60546875 0.00683594 C20.1875 0.265625 20.1875 0.265625 22.1875 2.265625 C22.36245606 4.77483346 22.41919569 7.17187441 22.3828125 9.6796875 C22.3799826 10.40932709 22.37715271 11.13896667 22.37423706 11.89071655 C22.36303002 14.22418528 22.3379251 16.55727203 22.3125 18.890625 C22.30247085 20.47134863 22.29334489 22.05207827 22.28515625 23.6328125 C22.26308905 27.51056414 22.22855615 31.38802978 22.1875 35.265625 C23.6725 34.770625 23.6725 34.770625 25.1875 34.265625 C40.11367299 33.10814948 54.41468909 33.81002418 67.1875 42.265625 C68.21875 42.94625 69.25 43.626875 70.3125 44.328125 C78.77687746 51.94370695 82.36472051 63.23827015 83.1875 74.265625 C84.96624839 114.0696579 84.96624839 114.0696579 73.44921875 128.43359375 C64.72236542 137.50874721 53.44402659 142.0237653 40.9296875 142.46875 C24.88503305 142.72545122 8.54978057 141.19819478 -6.8125 136.265625 C-8.50685189 134.57127311 -7.94223376 132.42999474 -7.94621277 130.1096344 C-7.95047775 128.99206757 -7.95474274 127.87450073 -7.95913696 126.72306824 C-7.95868378 125.48615738 -7.95823059 124.24924652 -7.95776367 122.97485352 C-7.96112228 121.68069519 -7.9644809 120.38653687 -7.96794128 119.05316162 C-7.97680181 115.49327803 -7.97912026 111.93341845 -7.97975707 108.3735249 C-7.98070449 105.40617871 -7.98438086 102.43883817 -7.98792917 99.47149414 C-7.99608154 92.47309932 -7.99851269 85.47471738 -7.99780273 78.47631836 C-7.99720174 71.24689629 -8.00775599 64.01754879 -8.0235464 56.7881456 C-8.03660347 50.59026504 -8.0419874 44.39240891 -8.04134732 38.19451469 C-8.04109179 34.48884237 -8.04397314 30.78323627 -8.05452538 27.07757759 C-8.06596593 22.94692985 -8.06147082 18.81645013 -8.05541992 14.68579102 C-8.06103943 13.45090439 -8.06665894 12.21601776 -8.07244873 10.94371033 C-8.06825424 9.82332367 -8.06405975 8.70293701 -8.05973816 7.54859924 C-8.06028293 6.57095391 -8.06082769 5.59330858 -8.06138897 4.58603764 C-7.52077251 -0.45417473 -4.24985473 0.00899304 0 0 Z " fill="#59595B" transform="translate(19.8125,17.734375)"/>
<path d="M0 0 C9.45445939 7.93607726 14.80578247 16.88215651 16.5625 29.1875 C16.85350163 34.02169687 16.93415672 38.83665542 16.93310547 43.67871094 C16.93746479 45.91940185 16.97383856 48.15809513 17.01171875 50.3984375 C17.12049993 64.26439856 14.42159091 77.70881271 4.6796875 88.21875 C-6.187995 98.2766836 -19.78447427 101.01795599 -34.2421875 100.5390625 C-43.51284312 99.95091958 -52.03665608 96.77059278 -59.4375 91.1875 C-60.26121094 90.57648438 -61.08492188 89.96546875 -61.93359375 89.3359375 C-70.85078451 81.68468177 -74.70808779 69.66292383 -75.81860352 58.28173828 C-75.94572469 54.92119181 -76.00087661 51.58956202 -75.95898438 48.22851562 C-75.937501 46.187595 -75.95893817 44.15019145 -75.984375 42.109375 C-76.01421605 28.07817885 -72.98606949 14.69652365 -63.47265625 3.97265625 C-47.32388042 -11.70888556 -18.20061569 -12.6297048 0 0 Z " fill="#59595B" transform="translate(432.4375,59.8125)"/>
<path d="M0 0 C1.26650391 -0.01224609 2.53300781 -0.02449219 3.83789062 -0.03710938 C5.04509766 -0.03904297 6.25230469 -0.04097656 7.49609375 -0.04296875 C9.1675647 -0.04913208 9.1675647 -0.04913208 10.87280273 -0.05541992 C13.5625 0.1875 13.5625 0.1875 15.5625 2.1875 C15.81418228 4.55197144 15.81418228 4.55197144 15.81646729 7.57763672 C15.82210693 8.72182068 15.82774658 9.86600464 15.83355713 11.04486084 C15.82950867 12.30622864 15.82546021 13.56759644 15.82128906 14.8671875 C15.82399803 16.20412385 15.82755843 17.54105871 15.83190918 18.87799072 C15.84104675 22.51429129 15.83748334 26.1504787 15.83115101 29.78678131 C15.82609807 33.58686129 15.83078049 37.38693138 15.83392334 41.18701172 C15.83756505 47.56935369 15.83275853 53.95164942 15.82324219 60.33398438 C15.81235723 67.71964409 15.81588266 75.10519341 15.826895 82.49085045 C15.83596205 88.82463719 15.83725601 95.15839064 15.83201766 101.49218178 C15.82889474 105.27831457 15.82849739 109.06439542 15.83509064 112.8505249 C15.84085505 116.40949438 15.83688396 119.96832108 15.82530212 123.52727509 C15.82138278 125.4615611 15.8273489 127.39585914 15.83355713 129.33013916 C15.82791748 130.47432312 15.82227783 131.61850708 15.81646729 132.79736328 C15.81571323 133.79583282 15.81495918 134.79430237 15.81418228 135.82302856 C15.5625 138.1875 15.5625 138.1875 13.5625 140.1875 C10.87280273 140.43041992 10.87280273 140.43041992 7.49609375 140.41796875 C6.28888672 140.41603516 5.08167969 140.41410156 3.83789062 140.41210938 C1.93813477 140.39374023 1.93813477 140.39374023 0 140.375 C-1.27037109 140.37435547 -2.54074219 140.37371094 -3.84960938 140.37304688 C-13.29739947 140.32760053 -13.29739947 140.32760053 -14.4375 139.1875 C-14.5360491 137.40554128 -14.563821 135.61964252 -14.56448364 133.83496094 C-14.56730347 132.67387817 -14.57012329 131.51279541 -14.57302856 130.31652832 C-14.57100433 129.03129272 -14.5689801 127.74605713 -14.56689453 126.421875 C-14.56824856 125.06376091 -14.5700285 123.7056472 -14.57220459 122.34753418 C-14.57677877 118.64928799 -14.57498943 114.95106958 -14.5718255 111.25282288 C-14.56930182 107.39087853 -14.57163946 103.52893663 -14.57321167 99.66699219 C-14.57503334 93.18033418 -14.57262712 86.69368754 -14.56787109 80.20703125 C-14.56242848 72.69700077 -14.56419113 65.18699744 -14.5696975 57.67696762 C-14.5742287 51.2404647 -14.57487915 44.80396997 -14.57225883 38.36746597 C-14.57069609 34.51820684 -14.5705022 30.66896048 -14.57379532 26.81970215 C-14.57667413 23.20169294 -14.57469816 19.58371889 -14.56890106 15.9657135 C-14.56693791 13.99663339 -14.56992729 12.02755033 -14.57302856 10.05847168 C-14.56879883 8.31684753 -14.56879883 8.31684753 -14.56448364 6.54003906 C-14.56410662 5.52460022 -14.56372959 4.50916138 -14.56334114 3.46295166 C-14.23678562 -2.44180491 -4.44313794 0.00225426 0 0 Z " fill="#59595B" transform="translate(284.4375,17.8125)"/>
<path d="M0 0 C1.11431396 0.00410889 2.22862793 0.00821777 3.37670898 0.01245117 C4.58391602 0.01438477 5.79112305 0.01631836 7.03491211 0.01831055 C8.30141602 0.03055664 9.56791992 0.04280273 10.87280273 0.05541992 C12.77835938 0.05638672 12.77835938 0.05638672 14.72241211 0.05737305 C24.1702022 0.10281939 24.1702022 0.10281939 25.31030273 1.24291992 C25.40885184 3.02487864 25.43662374 4.8107774 25.43728638 6.59545898 C25.4401062 7.75654175 25.44292603 8.91762451 25.4458313 10.1138916 C25.44380707 11.3991272 25.44178284 12.68436279 25.43969727 14.00854492 C25.44105129 15.36665901 25.44283123 16.72477273 25.44500732 18.08288574 C25.4495815 21.78113193 25.44779216 25.47935035 25.44462824 29.17759705 C25.44210456 33.0395414 25.4444422 36.9014833 25.4460144 40.76342773 C25.44783608 47.25008574 25.44542985 53.73673239 25.44067383 60.22338867 C25.43523121 67.73341915 25.43699387 75.24342248 25.44250023 82.7534523 C25.44703143 89.18995522 25.44768188 95.62644995 25.44506156 102.06295395 C25.44349883 105.91221309 25.44330493 109.76145945 25.44659805 113.61071777 C25.44947687 117.22872698 25.44750089 120.84670103 25.4417038 124.46470642 C25.43974064 126.43378653 25.44273002 128.4028696 25.4458313 130.37194824 C25.44160156 132.11357239 25.44160156 132.11357239 25.43728638 133.89038086 C25.43690935 134.9058197 25.43653233 135.92125854 25.43614388 136.96746826 C25.31030273 139.24291992 25.31030273 139.24291992 24.31030273 140.24291992 C19.83698315 140.49672226 15.35246813 140.42814713 10.87280273 140.43041992 C9.60629883 140.44266602 8.33979492 140.45491211 7.03491211 140.4675293 C5.82770508 140.46946289 4.62049805 140.47139648 3.37670898 140.47338867 C1.70523804 140.479552 1.70523804 140.479552 0 140.48583984 C-2.68969727 140.24291992 -2.68969727 140.24291992 -4.68969727 138.24291992 C-4.94137955 135.87844849 -4.94137955 135.87844849 -4.94366455 132.8527832 C-4.95212402 131.13650726 -4.95212402 131.13650726 -4.96075439 129.38555908 C-4.95670593 128.12419128 -4.95265747 126.86282349 -4.94848633 125.56323242 C-4.95119529 124.22629607 -4.95475569 122.88936121 -4.95910645 121.5524292 C-4.96824402 117.91612863 -4.96468061 114.27994122 -4.95834827 110.64363861 C-4.95329533 106.84355864 -4.95797775 103.04348855 -4.96112061 99.2434082 C-4.96476232 92.86106623 -4.95995579 86.4787705 -4.95043945 80.09643555 C-4.93955449 72.71077583 -4.94307993 65.32522652 -4.95409226 57.93956947 C-4.96315932 51.60578273 -4.96445328 45.27202928 -4.95921493 38.93823814 C-4.95609201 35.15210535 -4.95569466 31.3660245 -4.9622879 27.57989502 C-4.96805231 24.02092555 -4.96408123 20.46209884 -4.95249939 16.90314484 C-4.94858004 14.96885883 -4.95454617 13.03456078 -4.96075439 11.10028076 C-4.95511475 9.9560968 -4.9494751 8.81191284 -4.94366455 7.63305664 C-4.9429105 6.6345871 -4.94215645 5.63611755 -4.94137955 4.60739136 C-4.56339509 1.05635296 -3.50077061 0.31617198 0 0 Z " fill="#59595B" transform="translate(229.689697265625,17.757080078125)"/>
<path d="M0 0 C2.49057251 2.49057251 2.2565813 3.28472659 2.265625 6.71875 C2.26949219 8.11673828 2.26949219 8.11673828 2.2734375 9.54296875 C2.26570313 10.51878906 2.25796875 11.49460937 2.25 12.5 C2.26160156 13.96373047 2.26160156 13.96373047 2.2734375 15.45703125 C2.27085937 16.38902344 2.26828125 17.32101563 2.265625 18.28125 C2.26336914 19.13783203 2.26111328 19.99441406 2.25878906 20.87695312 C2 23 2 23 0 25 C-3.30091516 25.56587117 -6.60337801 25.89242182 -9.93359375 26.2421875 C-13.39212496 26.74284182 -16.48281915 27.82969179 -19.75415039 29.04736328 C-20.73839493 29.41177521 -21.72263947 29.77618713 -22.73670959 30.15164185 C-23.48359543 30.43160004 -24.23048126 30.71155823 -25 31 C-25.00808685 31.91010834 -25.01617371 32.82021667 -25.02450562 33.75790405 C-25.10234889 42.32220083 -25.18960811 50.8863382 -25.28752708 59.45042992 C-25.33753753 63.85363979 -25.38386693 68.25682512 -25.421875 72.66015625 C-25.45866811 76.90721588 -25.50501133 81.15407244 -25.55806351 85.40095901 C-25.57663935 87.02368239 -25.59173545 88.64644935 -25.60334396 90.26923752 C-25.62015225 92.53696372 -25.64917295 94.80422158 -25.68115234 97.07177734 C-25.69447601 98.36417328 -25.70779968 99.65656921 -25.7215271 100.98812866 C-26 104 -26 104 -28 106 C-30.58203125 106.25878906 -30.58203125 106.25878906 -33.8125 106.265625 C-34.97007812 106.26820313 -36.12765625 106.27078125 -37.3203125 106.2734375 C-38.53460938 106.26570313 -39.74890625 106.25796875 -41 106.25 C-42.21429688 106.25773437 -43.42859375 106.26546875 -44.6796875 106.2734375 C-46.41605469 106.26957031 -46.41605469 106.26957031 -48.1875 106.265625 C-49.78658203 106.26224121 -49.78658203 106.26224121 -51.41796875 106.25878906 C-54 106 -54 106 -56 104 C-56.18824486 101.10777447 -56.25170246 98.3120186 -56.22705078 95.41943359 C-56.22734283 94.53156662 -56.22763489 93.64369965 -56.22793579 92.72892761 C-56.22653907 89.78533253 -56.21096184 86.84198853 -56.1953125 83.8984375 C-56.19158358 81.86105487 -56.18873604 79.82367046 -56.18673706 77.7862854 C-56.17909104 72.41698275 -56.15943425 67.04778784 -56.1373291 61.67852783 C-56.11689151 56.20236672 -56.10773982 50.72618824 -56.09765625 45.25 C-56.07618926 34.49995259 -56.04204166 23.74998525 -56 13 C-54.12851522 12.04124056 -52.25426425 11.08787978 -50.37890625 10.13671875 C-49.33549072 9.60522217 -48.2920752 9.07372559 -47.21704102 8.52612305 C-33.90923447 2.2130701 -14.80001346 -2.06824145 0 0 Z " fill="#58585A" transform="translate(170,52)"/>
<path d="M0 0 C1.15757812 -0.00257812 2.31515625 -0.00515625 3.5078125 -0.0078125 C4.72210938 -0.00007813 5.93640625 0.00765625 7.1875 0.015625 C8.40179688 0.00789063 9.61609375 0.00015625 10.8671875 -0.0078125 C12.60355469 -0.00394531 12.60355469 -0.00394531 14.375 0 C15.44105469 0.00225586 16.50710938 0.00451172 17.60546875 0.00683594 C20.1875 0.265625 20.1875 0.265625 22.1875 2.265625 C22.43918228 4.08348846 22.43918228 4.08348846 22.44146729 6.32702637 C22.44710693 7.17671494 22.45274658 8.0264035 22.45855713 8.90184021 C22.45450867 9.83593216 22.45046021 10.77002411 22.44628906 11.73242188 C22.4497937 12.71461197 22.45329834 13.69680206 22.45690918 14.70875549 C22.46573825 17.96736645 22.45987316 21.2257617 22.453125 24.484375 C22.45447131 26.74117067 22.45641156 28.99796606 22.45892334 31.25476074 C22.4618762 35.98936722 22.45757173 40.72389835 22.44824219 45.45849609 C22.43684761 51.53862251 22.44340621 57.61857238 22.45538712 63.69869232 C22.46260133 68.36026346 22.4603198 73.02179249 22.45513153 77.68336487 C22.45379382 79.92574586 22.45544697 82.16813062 22.46009064 84.4105072 C22.46514864 87.5400511 22.45745579 90.66930586 22.44628906 93.79882812 C22.45033752 94.73292007 22.45438599 95.66701202 22.45855713 96.62940979 C22.45291748 97.47909836 22.44727783 98.32878693 22.44146729 99.20422363 C22.44071323 99.94459114 22.43995918 100.68495865 22.43918228 101.44776154 C22.1875 103.265625 22.1875 103.265625 20.1875 105.265625 C17.49780273 105.50854492 17.49780273 105.50854492 14.12109375 105.49609375 C12.91388672 105.49416016 11.70667969 105.49222656 10.46289062 105.49023438 C9.19638672 105.47798828 7.92988281 105.46574219 6.625 105.453125 C5.35462891 105.45248047 4.08425781 105.45183594 2.77539062 105.45117188 C-6.67239947 105.40572553 -6.67239947 105.40572553 -7.8125 104.265625 C-7.91853305 101.11022515 -7.95927393 97.97659127 -7.95776367 94.82055664 C-7.96112228 93.828759 -7.9644809 92.83696136 -7.96794128 91.81510925 C-7.97748286 88.51865404 -7.97939598 85.22224944 -7.98046875 81.92578125 C-7.98367905 79.6451363 -7.98704294 77.36449155 -7.99055481 75.08384705 C-7.99655408 70.29620893 -7.99839389 65.50858888 -7.99780273 60.72094727 C-7.99770105 54.57242437 -8.01135585 48.42401681 -8.02857494 42.27552128 C-8.03966854 37.56334394 -8.04172276 32.85119472 -8.04119301 28.13900566 C-8.04237702 25.87150106 -8.04682218 23.60399581 -8.05452538 21.33650398 C-8.06427235 18.17094871 -8.06146826 15.00564685 -8.05541992 11.84008789 C-8.06103943 10.89507416 -8.06665894 9.95006042 -8.07244873 8.97640991 C-8.06825424 8.11686203 -8.06405975 7.25731415 -8.05973816 6.37171936 C-8.06028293 5.62267869 -8.06082769 4.87363802 -8.06138897 4.10189915 C-7.4280934 -0.57048263 -3.82133731 0.00808626 0 0 Z " fill="#59595B" transform="translate(322.8125,52.734375)"/>
<path d="M0 0 C1.15757812 -0.00257812 2.31515625 -0.00515625 3.5078125 -0.0078125 C4.72210938 -0.00007813 5.93640625 0.00765625 7.1875 0.015625 C8.40179688 0.00789063 9.61609375 0.00015625 10.8671875 -0.0078125 C12.60355469 -0.00394531 12.60355469 -0.00394531 14.375 0 C15.44105469 0.00225586 16.50710937 0.00451172 17.60546875 0.00683594 C20.1875 0.265625 20.1875 0.265625 22.1875 2.265625 C22.43918228 4.08348846 22.43918228 4.08348846 22.44146729 6.32702637 C22.44710693 7.17671494 22.45274658 8.0264035 22.45855713 8.90184021 C22.45450867 9.83593216 22.45046021 10.77002411 22.44628906 11.73242188 C22.4497937 12.71461197 22.45329834 13.69680206 22.45690918 14.70875549 C22.46573825 17.96736645 22.45987316 21.2257617 22.453125 24.484375 C22.45447131 26.74117067 22.45641156 28.99796606 22.45892334 31.25476074 C22.4618762 35.98936722 22.45757173 40.72389835 22.44824219 45.45849609 C22.43684761 51.53862251 22.44340621 57.61857238 22.45538712 63.69869232 C22.46260133 68.36026346 22.4603198 73.02179249 22.45513153 77.68336487 C22.45379382 79.92574586 22.45544697 82.16813062 22.46009064 84.4105072 C22.46514864 87.5400511 22.45745579 90.66930586 22.44628906 93.79882812 C22.45033752 94.73292007 22.45438599 95.66701202 22.45855713 96.62940979 C22.45291748 97.47909836 22.44727783 98.32878693 22.44146729 99.20422363 C22.44071323 99.94459114 22.43995918 100.68495865 22.43918228 101.44776154 C22.1875 103.265625 22.1875 103.265625 20.1875 105.265625 C17.60546875 105.52441406 17.60546875 105.52441406 14.375 105.53125 C13.21742188 105.53382813 12.05984375 105.53640625 10.8671875 105.5390625 C9.65289062 105.53132813 8.43859375 105.52359375 7.1875 105.515625 C5.97320312 105.52335937 4.75890625 105.53109375 3.5078125 105.5390625 C1.77144531 105.53519531 1.77144531 105.53519531 0 105.53125 C-1.59908203 105.52786621 -1.59908203 105.52786621 -3.23046875 105.52441406 C-5.8125 105.265625 -5.8125 105.265625 -7.8125 103.265625 C-8.06418228 101.44776154 -8.06418228 101.44776154 -8.06646729 99.20422363 C-8.07210693 98.35453506 -8.07774658 97.5048465 -8.08355713 96.62940979 C-8.07950867 95.69531784 -8.07546021 94.76122589 -8.07128906 93.79882812 C-8.0747937 92.81663803 -8.07829834 91.83444794 -8.08190918 90.82249451 C-8.09073825 87.56388355 -8.08487316 84.3054883 -8.078125 81.046875 C-8.07947131 78.79007933 -8.08141156 76.53328394 -8.08392334 74.27648926 C-8.0868762 69.54188278 -8.08257173 64.80735165 -8.07324219 60.07275391 C-8.06184761 53.99262749 -8.06840621 47.91267762 -8.08038712 41.83255768 C-8.08760133 37.17098654 -8.0853198 32.50945751 -8.08013153 27.84788513 C-8.07879382 25.60550414 -8.08044697 23.36311938 -8.08509064 21.1207428 C-8.09014864 17.9911989 -8.08245579 14.86194414 -8.07128906 11.73242188 C-8.07533752 10.79832993 -8.07938599 9.86423798 -8.08355713 8.90184021 C-8.07791748 8.05215164 -8.07227783 7.20246307 -8.06646729 6.32702637 C-8.06571323 5.58665886 -8.06495918 4.84629135 -8.06418228 4.08348846 C-7.41941007 -0.57360478 -3.80817677 0.00805842 0 0 Z " fill="#58585A" transform="translate(187.8125,52.734375)"/>
<path d="M0 0 C20 0 20 0 26 3 C31.84472809 10.2664187 31.24233437 17.68005734 31.29516602 26.64526367 C31.30664693 27.99790948 31.32703726 29.35051137 31.35668945 30.70288086 C31.71259705 46.97720306 31.71259705 46.97720306 27 54 C23.69136334 57.2398733 20.25085543 58.17932753 15.703125 58.42578125 C14.21836735 58.40876022 12.73371178 58.37076093 11.25 58.3125 C10.49589844 58.30283203 9.74179687 58.29316406 8.96484375 58.28320312 C5.74422253 58.21741779 3.0713234 58.02377447 0 57 C0 38.19 0 19.38 0 0 Z " fill="#FEFEFE" transform="translate(42,77)"/>
<path d="M0 0 C4.62367862 3.04742455 7.03692943 6.60630697 8.75 11.8125 C9.13826279 16.18322967 9.12162134 20.55440418 9.12060547 24.93994141 C9.12495927 27.04282849 9.16126012 29.14358002 9.19921875 31.24609375 C9.27471012 40.23670286 8.7469449 47.71563148 2.25 54.375 C-2.84239069 56.4665176 -7.8177816 56.62404272 -13.25 55.8125 C-16.96842991 54.072977 -18.82711618 52.55522311 -20.5 48.8125 C-20.81453125 48.131875 -21.1290625 47.45125 -21.453125 46.75 C-23.82848237 40.97462129 -23.5094219 35.38468931 -23.54516602 29.20825195 C-23.55664839 27.82826453 -23.57704102 26.4483202 -23.60668945 25.06860352 C-23.78137524 16.93253984 -23.85722989 10.68971543 -19.25 3.8125 C-13.57768831 -1.58311355 -7.29366887 -2.6649944 0 0 Z " fill="#FDFDFD" transform="translate(410.25,78.1875)"/>
<path d="M0 0 C4.786687 2.656142 7.59401129 6.32734468 9.75 11.3125 C10.77437399 17.65283584 9.91033702 22.3952073 6.18359375 27.62109375 C2.94972152 31.43653428 -0.21213591 34.0116068 -5.30078125 34.515625 C-11.96483116 34.65374002 -15.90381384 33.39207409 -21 28.875 C-24.64720041 24.72124397 -25.54153668 21.91630431 -25.5625 16.375 C-25.57925781 15.35535156 -25.59601563 14.33570313 -25.61328125 13.28515625 C-25.00229544 8.28558416 -22.53878275 5.21981896 -18.75 2.0625 C-18.1621875 1.56234375 -17.574375 1.0621875 -16.96875 0.546875 C-11.8500689 -3.1292687 -5.44067634 -2.52203315 0 0 Z " fill="#A7CE3C" transform="translate(248.25,166.6875)"/>
<path d="M0 0 C5.05920579 2.10499098 10.80953505 5.84180834 13 11 C13.83626266 16.73542975 14.07735678 22.75983116 11.4375 28.0625 C7.16094303 33.21629942 2.01198281 35.69369666 -4.6875 36.375 C-9.73086094 36.30069634 -13.21834021 34.21986111 -17 31 C-21.27108528 25.52424964 -22.68728077 20.91098997 -22 14 C-20.00123372 7.44848831 -16.93469384 4.26663905 -11.07421875 0.890625 C-7.39840846 -0.68768902 -3.91463847 -0.62453936 0 0 Z " fill="#A7CE3B" transform="translate(289,165)"/>
</svg>
