<?xml version="1.0" encoding="UTF-8"?>
<svg version="1.1" xmlns="http://www.w3.org/2000/svg" width="2067" height="530">
<path d="M0 0 C0.96328217 0.00182281 1.92656433 0.00364563 2.91903687 0.00552368 C17.57063265 0.05210412 31.88020187 0.59053696 46.3125 3.3125 C47.2411084 3.47878906 48.1697168 3.64507812 49.12646484 3.81640625 C71.5715248 7.91873571 92.8388107 15.30275259 113.3125 25.3125 C114.02921875 25.65861328 114.7459375 26.00472656 115.484375 26.36132812 C135.98088815 36.36286741 155.2716954 49.78474058 172.0390625 65.22265625 C174.15880212 67.17121415 176.31733469 69.06007333 178.5 70.9375 C179.77460293 72.05822732 181.04556938 73.18310673 182.3125 74.3125 C182.91964844 74.85261719 183.52679688 75.39273438 184.15234375 75.94921875 C192.49973124 83.78516893 197.47623886 93.4720251 198.55859375 104.9140625 C198.87772033 117.04087268 194.93834478 127.61782778 186.6875 136.625 C177.1415598 145.54798057 164.93999691 148.88909265 152.1640625 148.6875 C139.89572922 147.49301725 130.03023742 139.87447715 121.3125 131.6875 C86.3107968 99.24930183 38.16952541 81.54629312 -9.42822266 83.20751953 C-58.67173189 85.49568778 -104.40405334 106.92841202 -137.6875 143.3125 C-160.21332923 169.46665072 -174.71672155 199.59254041 -181.6875 233.3125 C-181.92339844 234.42496094 -182.15929687 235.53742188 -182.40234375 236.68359375 C-190.66053107 282.07348464 -178.68017587 330.63069067 -152.6875 368.3125 C-135.01568858 393.48229933 -111.97440155 413.22670837 -84.6875 427.3125 C-84.07197266 427.63057617 -83.45644531 427.94865234 -82.82226562 428.27636719 C-61.45141694 439.14347781 -36.52921224 446.36608495 -12.48046875 446.515625 C-11.7217598 446.52268463 -10.96305084 446.52974426 -10.18135071 446.53701782 C12.74442922 446.84809266 12.74442922 446.84809266 35.3125 443.3125 C36.53815674 443.01448486 36.53815674 443.01448486 37.78857422 442.71044922 C70.49902041 434.55269737 97.11157802 419.29861862 122.3125 397.3125 C134.63513555 386.60653676 145.89493554 381.42893729 162.2109375 382.13330078 C172.58474755 383.01787055 181.70362551 389.26809303 188.625 396.6875 C195.72453877 405.12790593 198.92580097 414.52338191 198.6171875 425.58203125 C196.60529975 443.61164071 184.36763055 455.79786056 170.9375 466.8125 C170.01324219 467.54855469 169.08898437 468.28460938 168.13671875 469.04296875 C166.25732353 470.55324347 164.40505104 472.0979172 162.58203125 473.67578125 C115.92170085 514.02892216 53.85147887 533.81109144 -7.32373047 529.84765625 C-30.47491859 528.08611082 -53.43838158 523.93615858 -75.6875 517.3125 C-76.55068848 517.05774902 -77.41387695 516.80299805 -78.30322266 516.54052734 C-111.51268191 506.55954232 -143.80413269 490.32368892 -170.6875 468.3125 C-171.21504883 467.88114746 -171.74259766 467.44979492 -172.28613281 467.00537109 C-201.30309276 443.1669028 -224.18675021 415.61274326 -241.6875 382.3125 C-242.03522461 381.6618457 -242.38294922 381.01119141 -242.74121094 380.34082031 C-273.61457298 321.87721472 -274.8701596 248.18340653 -255.9375 185.875 C-247.35097117 158.79090677 -235.14657514 133.4706461 -218.6875 110.3125 C-218.28289551 109.74208984 -217.87829102 109.17167969 -217.46142578 108.58398438 C-214.9587488 105.08770728 -212.353802 101.68513815 -209.6875 98.3125 C-208.58535156 96.90291016 -208.58535156 96.90291016 -207.4609375 95.46484375 C-194.49588181 79.5157673 -179.40408634 64.29644403 -162.6875 52.3125 C-161.54194913 51.46230962 -160.39743929 50.61071499 -159.25390625 49.7578125 C-151.06022987 43.70729138 -142.53741422 38.34606952 -133.6875 33.3125 C-133.05569824 32.94801758 -132.42389648 32.58353516 -131.77294922 32.20800781 C-91.80929662 9.33414149 -45.69705333 -0.18046052 0 0 Z " fill="#1AA79C" transform="translate(267.6875,-0.3125)"/>
<path d="M0 0 C-1.38434738 3.11465846 -2.98319641 5.23098131 -5.39151001 7.63201904 C-6.09263412 8.33589249 -6.79375824 9.03976593 -7.51612854 9.76496887 C-8.66950966 10.90756416 -8.66950966 10.90756416 -9.84619141 12.07324219 C-11.06094902 13.28843788 -11.06094902 13.28843788 -12.30024719 14.52818298 C-14.97930584 17.20584785 -17.66538011 19.87635816 -20.3515625 22.546875 C-22.2100199 24.40160245 -24.06803635 26.25677184 -25.92562866 28.11236572 C-30.31668561 32.49720961 -34.71281532 36.87693083 -39.11079347 41.25483155 C-44.1183191 46.2399928 -49.12015844 51.23084273 -54.12152982 56.22217703 C-64.40804057 66.48778972 -74.70166897 76.74624548 -85 87 C-92.3647021 80.77558869 -92.3647021 80.77558869 -95.58935547 77.44482422 C-96.20044159 76.81752411 -96.81152771 76.190224 -97.44113159 75.54391479 C-98.07673004 74.88746979 -98.71232849 74.23102478 -99.3671875 73.5546875 C-100.76110992 72.13351717 -102.15566047 70.7129627 -103.55078125 69.29296875 C-105.7179835 67.08255014 -107.88109845 64.8686974 -110.03369141 62.64404297 C-112.13321635 60.477517 -114.24865486 58.32760983 -116.3671875 56.1796875 C-116.99873749 55.51919403 -117.63028748 54.85870056 -118.28097534 54.17819214 C-123.44189712 48.98713236 -128.90902541 45.62976215 -136.22265625 44.50390625 C-144.97812601 44.68455556 -151.29527073 45.96996047 -158 52 C-163.22442347 59.52498304 -165.46325041 66.9097187 -164 76 C-160.69350237 88.05899135 -147.22917833 97.96885005 -138.625 106.6484375 C-138.04872864 107.23003254 -137.47245728 107.81162758 -136.87872314 108.41084671 C-133.83701459 111.47902896 -130.79181289 114.5436993 -127.74414062 117.60595703 C-125.24098354 120.12251397 -122.74532763 122.64617149 -120.25585938 125.17626953 C-117.22216874 128.259424 -114.17624835 131.3299829 -111.12127686 134.39204788 C-109.96887342 135.55112494 -108.82069622 136.71442128 -107.67706299 137.88215256 C-98.39461095 147.8184464 -98.39461095 147.8184464 -85.93066406 152.14120483 C-75.85272386 151.4489449 -69.43134362 143.84107384 -62.78198242 137.09082031 C-61.77009226 136.07480441 -60.75752057 135.05946688 -59.74432373 134.04475403 C-57.57376389 131.86812482 -55.40798264 129.68689009 -53.24584007 127.50189972 C-49.82907358 124.049232 -46.4013323 120.60760027 -42.97200012 117.16741943 C-36.32001535 110.49135854 -29.67941876 103.80403482 -23.03982544 97.11565399 C-14.57132841 88.58622123 -6.09710027 80.06250189 2.38612098 71.54771304 C5.79666728 68.12375204 9.20189567 64.69461251 12.60307944 61.26135206 C14.71315192 59.13323588 16.82727145 57.0091757 18.94248962 54.88617516 C19.92547851 53.89782441 20.90672409 52.90773645 21.88612938 51.91583443 C23.21827348 50.56713278 24.55710467 49.2250457 25.89631653 47.88336182 C26.64493863 47.12899967 27.39356073 46.37463753 28.16486835 45.59741592 C30 44 30 44 32 44 C44.48671865 71.94159173 47.20442002 103.38135427 39 133 C38.67257812 134.258125 38.34515625 135.51625 38.0078125 136.8125 C33.11145404 153.39578706 24.22494301 168.91984938 13 182 C12.30003906 182.83789062 11.60007812 183.67578125 10.87890625 184.5390625 C-4.88073271 202.90994768 -27.61770675 216.87496853 -51 223 C-51.69512695 223.19319824 -52.39025391 223.38639648 -53.10644531 223.58544922 C-85.08540054 232.22555071 -120.55387831 227.67762154 -149.4375 211.625 C-180.22902163 193.79275844 -202.84560521 165.30626553 -212.0390625 130.875 C-220.68469357 96.01131698 -215.02655675 60.90338006 -197.25 29.953125 C-186.88002498 12.95788817 -172.69845302 -1.2759655 -156 -12 C-154.90171875 -12.70898438 -153.8034375 -13.41796875 -152.671875 -14.1484375 C-103.7189932 -43.86169831 -43.26256511 -34.95964858 0 0 Z " fill="#17994B" transform="translate(346,166)"/>
<path d="M0 0 C15.84 0 31.68 0 48 0 C48 28.38 48 56.76 48 86 C78.36 86 108.72 86 140 86 C140 57.62 140 29.24 140 0 C155.51 0 171.02 0 187 0 C187 68.31 187 136.62 187 207 C171.49 207 155.98 207 140 207 C140 180.27 140 153.54 140 126 C109.64 126 79.28 126 48 126 C48 152.73 48 179.46 48 207 C32.16 207 16.32 207 0 207 C0 138.69 0 70.38 0 0 Z " fill="#1AA79C" transform="translate(1120,161)"/>
<path d="M0 0 C16.17 0 32.34 0 49 0 C57.03634144 17.22073165 57.03634144 17.22073165 60.25 24.84765625 C60.80703362 26.15998482 60.80703362 26.15998482 61.37532043 27.49882507 C62.58596162 30.3523666 63.79293909 33.20744242 65 36.0625 C65.86777555 38.10917973 66.73586613 40.15572591 67.60424805 42.20214844 C69.44596513 46.54271757 71.28655299 50.88376303 73.12646484 55.22509766 C78.00811636 66.73922157 82.91120278 78.24422904 87.8125 89.75 C88.30363281 90.90323761 88.79476562 92.05647522 89.30078125 93.24465942 C94.73459977 106.00380565 100.17445451 118.76026302 105.64361572 131.50430298 C108.04529379 137.10111495 110.44378248 142.69929462 112.84210205 148.29754639 C113.685476 150.26592276 114.52904951 152.23421363 115.3727417 154.20245361 C118.26346015 160.94675474 121.15144507 167.69220781 124.0342083 174.4399128 C125.36436096 177.55319432 126.69576746 180.66592548 128.03027344 183.77734375 C129.52224974 187.2576852 131.00969566 190.73992951 132.49609375 194.22265625 C132.95153061 195.28231094 133.40696747 196.34196564 133.87620544 197.43373108 C134.28887161 198.40314133 134.70153778 199.37255157 135.12670898 200.37133789 C135.49005844 201.2206337 135.8534079 202.0699295 136.22776794 202.94496155 C137 205 137 205 137 207 C120.17 207 103.34 207 86 207 C83.73125 201.493125 81.4625 195.98625 79.125 190.3125 C78.41230957 188.58298096 77.69961914 186.85346191 76.96533203 185.0715332 C76.39613875 183.68962417 75.82696431 182.30770737 75.2578125 180.92578125 C74.96575928 180.21723999 74.67370605 179.50869873 74.37280273 178.77868652 C72.89625303 175.19286987 71.44027431 171.60068576 70 168 C38.98 168 7.96 168 -24 168 C-31.425 186.315 -31.425 186.315 -39 205 C-39.33 205.66 -39.66 206.32 -40 207 C-56.17 207 -72.34 207 -89 207 C-85.62512216 196.87536647 -85.62512216 196.87536647 -84.02978516 193.23168945 C-83.49165695 191.99471062 -83.49165695 191.99471062 -82.94265747 190.73274231 C-82.37162796 189.43610909 -82.37162796 189.43610909 -81.7890625 188.11328125 C-81.18286575 186.72389595 -81.18286575 186.72389595 -80.56442261 185.30644226 C-79.25481916 182.30690123 -77.93990493 179.30972028 -76.625 176.3125 C-75.70856918 174.21567621 -74.79255698 172.11866941 -73.87695312 170.02148438 C-72.06696751 165.87644145 -70.25535415 161.73211674 -68.44238281 157.58837891 C-65.44438245 150.73298979 -62.46944579 143.8678002 -59.5 137 C-54.158131 124.6613164 -48.79923437 112.33006215 -43.4375 100 C-43.01491913 99.02820801 -42.59233826 98.05641602 -42.1569519 97.05517578 C-38.6640802 89.02297155 -35.17072977 80.99097555 -31.67736816 72.95898438 C-28.63886189 65.97275056 -25.60053429 58.98643908 -22.5625 52 C-21.93775284 50.56330963 -21.93775284 50.56330963 -21.30038452 49.09759521 C-14.18661645 32.73761747 -7.08845796 16.37096243 0 0 Z M23 52 C16.94619943 64.39279419 12.01740663 77.25024779 6.9375 90.0625 C5.60364765 93.4185587 4.26877164 96.77420663 2.93299866 100.12950134 C2.10798409 102.20267863 1.28418883 104.27634176 0.4618988 106.3506012 C-1.96781612 112.46633239 -4.47868016 118.54003452 -7.06980896 124.58934021 C-8.11999836 126.88033484 -8.11999836 126.88033484 -8 129 C12.79 129 33.58 129 55 129 C47.17297594 108.53508838 47.17297594 108.53508838 38.9375 88.25 C37.93060527 85.8347956 36.92409956 83.41942898 35.91796875 81.00390625 C35.43118652 79.83746582 34.9444043 78.67102539 34.44287109 77.46923828 C32.18946898 72.05115976 29.96793845 66.62017298 27.75 61.1875 C27.36706787 60.2500293 26.98413574 59.31255859 26.58959961 58.34667969 C25.725868 56.23133607 24.86261755 54.11579811 24 52 C23.67 52 23.34 52 23 52 Z " fill="#1AA79C" transform="translate(777,161)"/>
<path d="M0 0 C-0.57856631 5.25381335 -2.3277511 9.33154663 -4.59765625 14.0234375 C-4.95137802 14.76961334 -5.30509979 15.51578918 -5.66954041 16.28457642 C-6.79352161 18.65146157 -7.92781961 21.01322834 -9.0625 23.375 C-9.82946418 24.98534952 -10.59574763 26.59602344 -11.36132812 28.20703125 C-13.2330267 32.14181952 -15.11398956 36.07205286 -17 40 C-20.04153183 39.3481204 -22.5779363 38.32520447 -25.3515625 36.92578125 C-45.82159712 26.77692058 -71.17057901 15.08488614 -94.5 21.1875 C-98.98069754 22.78669633 -101.85566797 24.38401817 -105 28 C-107.00065545 32.49074164 -107.48762706 36.53769632 -106 41.25 C-102.32907593 49.2220497 -93.73511749 52.81833023 -86 56 C-79.17760228 58.4286079 -72.19668806 60.39999197 -65.25 62.4375 C-17.07133514 76.58486467 -17.07133514 76.58486467 -4.4453125 97.5859375 C3.04509563 112.69971959 4.11746847 130.03080781 -0.96484375 146.0390625 C-7.27978595 162.4961846 -18.68408464 173.05678914 -34.44921875 180.5 C-39.86516898 182.78792617 -45.30378399 184.5558889 -51 186 C-52.24716797 186.32097656 -52.24716797 186.32097656 -53.51953125 186.6484375 C-89.2070333 194.40414661 -127.32785587 184.6106663 -158 166 C-162.54148642 162.92469584 -166.81051084 159.53511653 -171 156 C-167.02798725 146.53766247 -162.74603278 137.25757895 -158.1875 128.0625 C-157.70756592 127.08522949 -157.22763184 126.10795898 -156.7331543 125.10107422 C-156.27851807 124.19244629 -155.82388184 123.28381836 -155.35546875 122.34765625 C-154.94965576 121.53304932 -154.54384277 120.71844238 -154.12573242 119.87915039 C-153 118 -153 118 -151 117 C-150.07960938 117.70125 -149.15921875 118.4025 -148.2109375 119.125 C-131.15134439 131.97939545 -113.14513396 141.79117557 -92 146 C-90.2984375 146.3403125 -90.2984375 146.3403125 -88.5625 146.6875 C-77.35520164 147.67059635 -66.68171391 147.46017327 -56.5 142.1875 C-52.93057268 139.06425109 -50.39983209 136.46835118 -49.6171875 131.63671875 C-49.35435504 125.86316569 -50.0672663 121.36371821 -54 117 C-58.7379594 112.69572109 -64.33302937 110.32511077 -70.2734375 108.12109375 C-70.97018585 107.86137787 -71.6669342 107.60166199 -72.38479614 107.33407593 C-79.39468563 104.77322421 -86.52578663 102.73188147 -93.71139526 100.73138428 C-111.09950749 95.85809218 -127.96564201 90.89393597 -142 79 C-142.65097656 78.48308594 -143.30195312 77.96617187 -143.97265625 77.43359375 C-152.08645332 70.31841786 -157.25364108 58.22505998 -158.21704102 47.6081543 C-159.06323893 29.62948947 -156.00945494 15.37168705 -144.25 1.3125 C-109.39076218 -36.11670054 -38.57261284 -25.08787827 0 0 Z " fill="#1AA79C" transform="translate(1087,181)"/>
<path d="M0 0 C3.79933351 3.19139312 7.42200313 6.56286915 11 10 C8.20460982 14.36289869 5.14478827 18.33215847 1.75 22.25 C-2.95399728 27.74128045 -7.51573488 33.32725481 -12 39 C-13.33247641 40.66735185 -14.66559398 42.33419205 -16 44 C-19.19845671 42.61027754 -21.06418136 41.02540776 -23.375 38.4375 C-35.56234497 26.00143371 -52.86346728 18.2957752 -70.25 17.6875 C-85.34912215 18.02824183 -99.72612911 22.9317776 -111 33 C-111.67675781 33.57234375 -112.35351562 34.1446875 -113.05078125 34.734375 C-124.11023908 44.78452308 -130.45474361 59.45127592 -131.41015625 74.2109375 C-132.10193169 91.96805484 -128.42392481 107.80405514 -116.71484375 121.71484375 C-104.91885229 134.14643538 -90.48968822 140.86697175 -73.40234375 142.203125 C-55.01739267 142.55275957 -38.07393577 135.49972871 -24 124 C-23.33871094 123.46632813 -22.67742187 122.93265625 -21.99609375 122.3828125 C-20.64746039 121.27511828 -19.32002134 120.14164008 -18 119 C-10.89454195 122.11946939 -5.90791489 128.99639707 -0.94140625 134.76953125 C2.95893029 139.250602 6.99317164 143.61425629 11 148 C4.93742439 162.30639535 -17.18876394 172.45847016 -30.81640625 178.14794922 C-44.27091106 183.39797401 -58.16831841 186.39516359 -72.625 186.3125 C-74.19531982 186.30404053 -74.19531982 186.30404053 -75.79736328 186.29541016 C-101.4421545 185.89857793 -126.85233538 177.46699186 -146 160 C-146.5062793 159.54141602 -147.01255859 159.08283203 -147.53417969 158.61035156 C-155.92998437 150.91212115 -162.37953219 142.89567152 -168 133 C-168.56332031 132.02546875 -169.12664062 131.0509375 -169.70703125 130.046875 C-174.16651555 121.78271675 -176.71981067 113.06153161 -179 104 C-179.24878906 103.02804687 -179.49757813 102.05609375 -179.75390625 101.0546875 C-185.15865635 75.12700519 -179.55419547 47.15365992 -165.83203125 24.76171875 C-149.57341375 0.25245953 -125.63648848 -15.60060675 -96.99609375 -21.90625 C-62.8420608 -28.81005521 -27.78475847 -21.17297963 0 0 Z " fill="#1AA79C" transform="translate(676,184)"/>
<path d="M0 0 C45.21 0 90.42 0 137 0 C137 15.51 137 31.02 137 47 C106.97 47 76.94 47 46 47 C46 59.21 46 71.42 46 84 C72.4 84 98.8 84 126 84 C126 99.51 126 115.02 126 131 C99.6 131 73.2 131 46 131 C46 156.08 46 181.16 46 207 C30.82 207 15.64 207 0 207 C0 138.69 0 70.38 0 0 Z " fill="#1AA79C" transform="translate(1406,161)"/>
<path d="M0 0 C7.70395296 -0.25400875 15.40682374 -0.42885392 23.11401367 -0.54931641 C25.73421576 -0.59953978 28.3541385 -0.66773478 30.97338867 -0.75439453 C34.74467831 -0.87602596 38.51226019 -0.93247506 42.28515625 -0.9765625 C43.45208511 -1.02817535 44.61901398 -1.07978821 45.82130432 -1.13296509 C53.76257346 -1.13841489 53.76257346 -1.13841489 57.11125183 1.94232178 C58.95660086 4.54337063 60.48240958 7.19641332 62 10 C63.07318823 11.6398715 64.1618895 13.26970242 65.26635742 14.88867188 C66.38083906 16.58108088 67.49382385 18.27447635 68.60546875 19.96875 C69.21078934 20.88853638 69.81610992 21.80832275 70.43977356 22.75598145 C72.35705703 25.66975294 74.27239667 28.58479523 76.1875 31.5 C78.70105706 35.32342073 81.21547321 39.14627534 83.73046875 42.96875 C84.3426828 43.89937256 84.95489685 44.82999512 85.58566284 45.78881836 C90.95257463 53.94087236 96.35919545 62.0660492 101.78359985 70.17993164 C103.52469756 72.78509151 105.26242364 75.39249047 107 78 C109.84723579 75.30786505 112.03084442 72.6463419 114.1015625 69.32421875 C114.6689917 68.42147217 115.2364209 67.51872559 115.82104492 66.58862305 C116.4163501 65.63125244 117.01165527 64.67388184 117.625 63.6875 C118.88285179 61.68670556 120.14197054 59.68670707 121.40234375 57.6875 C122.01706543 56.71167969 122.63178711 55.73585937 123.26513672 54.73046875 C125.52072211 51.18044524 127.83828643 47.67603174 130.1875 44.1875 C133.11928677 39.82648954 136.02837301 35.45384268 138.87103271 31.03401184 C139.78264945 29.62907717 140.70518165 28.23111329 141.64257812 26.84324646 C144.24936853 22.93915012 146.47495245 19.09166566 148.40380859 14.80834961 C154.86072633 1.48051908 154.86072633 1.48051908 161.93942261 -1.05136108 C170.3720394 -2.5085305 178.82261177 -1.82316614 187.3125 -1.25 C189.9026507 -1.14955004 192.4931762 -1.05831725 195.08398438 -0.9765625 C201.39757168 -0.75737206 207.69702975 -0.42402158 214 0 C212.83826033 3.80873715 211.58996099 6.98131404 209.33984375 10.265625 C208.53389771 11.4561145 208.53389771 11.4561145 207.71166992 12.6706543 C206.83345581 13.94743042 206.83345581 13.94743042 205.9375 15.25 C204.66026848 17.13591347 203.38428211 19.02267066 202.109375 20.91015625 C201.43712891 21.90289551 200.76488281 22.89563477 200.07226562 23.91845703 C196.55985512 29.14155381 193.1247573 34.41476397 189.6875 39.6875 C188.97730713 40.77554932 188.26711426 41.86359863 187.53540039 42.98461914 C186.08400025 45.20829402 184.63291114 47.43217193 183.18212891 49.65625 C180.29690597 54.07737478 177.40692964 58.49538199 174.5168457 62.91333008 C169.73905266 70.21698704 164.96294842 77.52173891 160.1953125 84.83203125 C159.61756577 85.7150441 159.03981903 86.59805695 158.44456482 87.50782776 C157.22136964 89.39000243 156.00841637 91.27891307 154.81037903 93.17720032 C151.64616512 98.15111698 148.38331753 102.83739621 144.60375977 107.36474609 C129.77965822 125.95031093 129.6936736 143.34094233 130.36914062 166.40667725 C130.50511063 171.81354889 130.50997072 177.2221002 130.53809357 182.63040161 C130.59440516 190.75902928 130.8117547 198.86857923 131 207 C115.82 207 100.64 207 85 207 C85.26425781 201.87984375 85.52851562 196.7596875 85.80078125 191.484375 C87.34035285 150.46949693 86.8021729 121.49910773 58.64990234 89.2890625 C53.89762509 83.81573213 50.01155497 77.88199629 46.13473511 71.77401733 C44.24829783 68.82480707 42.28742516 65.92591304 40.3359375 63.01953125 C32.10419809 50.68889511 23.97221053 38.29167731 15.8203125 25.90820312 C15.21488617 24.98860306 14.60945984 24.06900299 13.98568726 23.12153625 C12.85374832 21.40198782 11.72207406 19.68226512 10.59072876 17.96232605 C9.81612808 16.78540947 9.81612808 16.78540947 9.02587891 15.5847168 C8.53049622 14.83032318 8.03511353 14.07592957 7.52471924 13.29867554 C6.45471888 11.68553681 5.37180323 10.080926 4.27947998 8.4828186 C3.72882874 7.67484833 3.17817749 6.86687805 2.61083984 6.03442383 C2.11014984 5.30757889 1.60945984 4.58073395 1.09359741 3.8318634 C0 2 0 2 0 0 Z " fill="#1AA79C" transform="translate(1556,161)"/>
<path d="M0 0 C11.94011587 11.02534893 17.16921477 26.11958539 17.92294502 42.09019279 C18.09213249 48.65957521 18.04223165 55.22995596 18.0078125 61.80078125 C18.00407518 63.91212326 18.00123161 66.02346702 17.99923706 68.1348114 C17.9916572 73.65026773 17.97205818 79.16561613 17.9498291 84.68103027 C17.92561963 91.32089763 17.91656277 97.96080138 17.90492249 104.60070038 C17.88562977 114.65054163 17.8472679 124.70014678 17.8125 134.75 C3.9525 134.75 -9.9075 134.75 -24.1875 134.75 C-24.22488281 128.15257812 -24.26226563 121.55515625 -24.30078125 114.7578125 C-24.33107601 110.56507861 -24.3622338 106.37238639 -24.39648438 102.1796875 C-24.45070361 95.53257405 -24.50181784 88.88554303 -24.53393555 82.23828125 C-24.56004549 76.87593661 -24.6005022 71.51387054 -24.65068626 66.15169907 C-24.66730305 64.1113419 -24.6788495 62.07093661 -24.68511391 60.03052139 C-24.6948116 57.16084197 -24.72293805 54.29186697 -24.75512695 51.42236328 C-24.75369186 50.58869736 -24.75225677 49.75503143 -24.7507782 48.89610291 C-24.89060885 40.01584585 -26.95142455 31.3539855 -33.1875 24.75 C-39.29568346 20.28059747 -45.82686153 20.05688948 -53.1875 20.75 C-60.85803446 22.69542541 -67.47448376 26.35984645 -71.69140625 33.18359375 C-75.44734681 40.385155 -76.33557805 46.38906975 -76.39282227 54.48754883 C-76.40272186 55.35634674 -76.41262146 56.22514465 -76.42282104 57.12026978 C-76.4543251 59.98249619 -76.47914951 62.84473919 -76.50390625 65.70703125 C-76.52448536 67.69529137 -76.54548208 69.68354722 -76.56687927 71.67179871 C-76.62200108 76.89794441 -76.67145391 82.12412894 -76.71972656 87.3503418 C-76.77885961 93.62464382 -76.84503306 99.89887506 -76.91002655 106.17311859 C-77.00791159 115.6987024 -77.09685283 125.22433218 -77.1875 134.75 C-90.7175 134.75 -104.2475 134.75 -118.1875 134.75 C-118.1875 86.57 -118.1875 38.39 -118.1875 -11.25 C-104.6575 -11.25 -91.1275 -11.25 -77.1875 -11.25 C-76.6925 -4.32 -76.6925 -4.32 -76.1875 2.75 C-75.15625 1.739375 -74.125 0.72875 -73.0625 -0.3125 C-51.78503983 -18.90665702 -21.37242929 -17.40092423 0 0 Z " fill="#17994B" transform="translate(2049.1875,231.25)"/>
<path d="M0 0 C15.18 0 30.36 0 46 0 C46 68.31 46 136.62 46 207 C30.82 207 15.64 207 0 207 C0 138.69 0 70.38 0 0 Z " fill="#1AA79C" transform="translate(1334,161)"/>
<path d="M0 0 C13.53 0 27.06 0 41 0 C41 48.18 41 96.36 41 146 C27.47 146 13.94 146 0 146 C0 97.82 0 49.64 0 0 Z " fill="#17994B" transform="translate(1852,220)"/>
<path d="M0 0 C5.69937164 4.80357063 9.05762465 10.30459872 10 17.67578125 C10.30129788 25.2868276 8.23031612 30.90443007 3.40234375 36.7578125 C-1.02082497 41.51691809 -5.86375284 43.92059342 -12.29296875 44.68359375 C-19.45845098 44.93478224 -25.92934993 43.41105277 -31.40234375 38.57421875 C-37.81178227 31.53979349 -38.8523842 25.52572493 -38.59375 16.1171875 C-38.04470166 9.58420728 -35.80061424 5.65259664 -31.16015625 1.1328125 C-22.06079231 -5.95307516 -9.46169175 -6.77217201 0 0 Z " fill="#17994B" transform="translate(1887.28515625,165.5546875)"/>
<path d="M0 0 C6.74248873 4.04549324 10.82260966 7.63031481 13.46875 15.2265625 C15.26978601 22.49502924 14.64457873 29.25075223 11.125 35.875 C7.39036918 41.64670218 2.67431519 44.75236876 -3.875 46.875 C-11.83809792 47.94890379 -18.34687462 47.14437411 -24.96875 42.36328125 C-29.27944245 38.88817592 -32.85172631 35.49803796 -33.875 29.875 C-34.61916864 21.98116048 -35.04617306 14.31375866 -29.875 7.875 C-21.87215119 -0.52882662 -11.48163738 -4.40999254 0 0 Z " fill="#17994B" transform="translate(1804.875,321.125)"/>
</svg>
