<?xml version="1.0" encoding="UTF-8"?>
<svg version="1.1" xmlns="http://www.w3.org/2000/svg" width="369" height="136">
<path d="M0 0 C121.77 0 243.54 0 369 0 C369 44.88 369 89.76 369 136 C247.23 136 125.46 136 0 136 C0 91.12 0 46.24 0 0 Z " fill="#FEFEFE" transform="translate(0,0)"/>
<path d="M0 0 C4.03695733 1.81002117 7.56983763 4.35998882 11.1875 6.875 C11.88512451 7.35751221 12.58274902 7.84002441 13.30151367 8.3371582 C24.96519576 16.42101409 36.56138553 24.60015352 48 33 C46.74026519 36.77920442 45.36596382 37.38389848 42.08984375 39.57421875 C41.10048828 40.24130859 40.11113281 40.90839844 39.09179688 41.59570312 C38.05087891 42.28599609 37.00996094 42.97628906 35.9375 43.6875 C34.89271484 44.38939453 33.84792969 45.09128906 32.77148438 45.81445312 C30.18566798 47.5501381 27.59510954 49.27825375 25 51 C18.20293045 46.75730087 11.76143406 42.40914725 5.5078125 37.40625 C2.36339767 35.64302673 1.41081694 36.09725759 -2 37 C-9.51205639 39.49344104 -16.54081804 43.31006399 -21 50 C-24.46832382 60.7577302 -24.53226261 73.25493753 -21 84 C-16.11728168 91.05715555 -8.75545948 94.77024119 -1 98 C-0.01 98.495 -0.01 98.495 1 99 C0.95174072 98.11852295 0.90348145 97.2370459 0.85375977 96.32885742 C-0.20966281 71.94049993 -0.20966281 71.94049993 3.37451172 65.54882812 C6.69777395 61.97298661 10.68882948 59.82335589 15.11767578 57.86425781 C17.77239404 56.64535994 20.06520291 55.0053712 22.4375 53.3125 C23.62247587 52.53779202 24.80878932 51.76508653 26 51 C32.13627448 54.82441155 38.18159405 58.75829419 44.125 62.875 C44.69307373 63.2680835 45.26114746 63.66116699 45.84643555 64.06616211 C49.8645388 66.8645388 49.8645388 66.8645388 51 68 C51.43676947 72.57238408 51.57088389 77.1444693 51.6796875 81.73510742 C51.7262085 83.27498475 51.7942516 84.81437633 51.88476562 86.35229492 C52.61944227 99.05699231 52.61944227 99.05699231 48.796875 103.64331055 C45.96163843 105.71977677 43.1134472 107.37602965 40 109 C38.53953727 109.96433586 37.09020612 110.94589184 35.65625 111.94921875 C34.27219958 112.86404952 32.88676022 113.77678215 31.5 114.6875 C21.92744674 121.01963556 12.45698826 127.49693543 3 134 C-3.99714497 130.26777854 -10.54851393 126.12085518 -16.97140503 121.47187805 C-21.42418891 118.29086686 -25.77935453 115.53796809 -30.73608398 113.20727539 C-38.11558767 109.48573121 -45.28601196 105.66144028 -48.26803589 97.5513916 C-50.11113974 88.27653126 -49.8345634 79.01569367 -49.4432373 69.61083984 C-49.35214226 66.54261533 -49.40319811 63.48316273 -49.45193005 60.41449833 C-49.75607771 36.16016293 -49.75607771 36.16016293 -43.55395508 29.44311523 C-40.33558304 26.73115781 -36.92585626 24.78744536 -33.11164856 23.03677368 C-29.45463508 21.24125931 -26.24106862 18.80368327 -22.9375 16.4375 C-21.62589571 15.54104675 -20.31235624 14.64741202 -18.99609375 13.7578125 C-12.54299836 9.34077171 -6.27675015 4.66247101 0 0 Z " fill="#26A5BD" transform="translate(48,1)"/>
<path d="M0 0 C3.99359844 1.9226223 7.55588956 4.35029208 11.1875 6.875 C11.88512451 7.35751221 12.58274902 7.84002441 13.30151367 8.3371582 C24.96519576 16.42101409 36.56138553 24.60015352 48 33 C46.74026519 36.77920442 45.36596382 37.38389848 42.08984375 39.57421875 C41.10048828 40.24130859 40.11113281 40.90839844 39.09179688 41.59570312 C38.05087891 42.28599609 37.00996094 42.97628906 35.9375 43.6875 C34.89271484 44.38939453 33.84792969 45.09128906 32.77148438 45.81445312 C30.18566798 47.5501381 27.59510954 49.27825375 25 51 C18.20293045 46.75730087 11.76143406 42.40914725 5.5078125 37.40625 C3.1337688 35.76388561 3.1337688 35.76388561 0.6472168 36.21459961 C-2.34788774 37.1032145 -4.326271 38.34332955 -6.86328125 40.16015625 C-7.74951172 40.78857422 -8.63574219 41.41699219 -9.54882812 42.06445312 C-10.9168457 43.05348633 -10.9168457 43.05348633 -12.3125 44.0625 C-13.24384766 44.72572266 -14.17519531 45.38894531 -15.13476562 46.07226562 C-17.42866049 47.70740094 -19.71669874 49.35012046 -22 51 C-30.16519531 45.88935692 -38.11498296 40.52828699 -46 35 C-44.86327108 31.58981325 -44.26867984 31.22708792 -41.37890625 29.3203125 C-40.61682861 28.80992432 -39.85475098 28.29953613 -39.06958008 27.77368164 C-38.24224365 27.2296167 -37.41490723 26.68555176 -36.5625 26.125 C-34.82678129 24.96163771 -33.09244068 23.79621709 -31.359375 22.62890625 C-30.47056641 22.03094238 -29.58175781 21.43297852 -28.66601562 20.81689453 C-24.49383353 17.97354479 -20.39892202 15.02728634 -16.3125 12.0625 C-15.59586182 11.54381348 -14.87922363 11.02512695 -14.14086914 10.49072266 C-9.39145216 7.04114027 -4.68659293 3.53437078 0 0 Z " fill="#FE555F" transform="translate(48,1)"/>
<path d="M0 0 C6.13627448 3.82441155 12.18159405 7.75829419 18.125 11.875 C18.69307373 12.2680835 19.26114746 12.66116699 19.84643555 13.06616211 C23.8645388 15.8645388 23.8645388 15.8645388 25 17 C25.43676947 21.57238408 25.57088389 26.1444693 25.6796875 30.73510742 C25.7262085 32.27498475 25.7942516 33.81437633 25.88476562 35.35229492 C26.61944227 48.05699231 26.61944227 48.05699231 22.796875 52.64331055 C19.96163843 54.71977677 17.1134472 56.37602965 14 58 C12.53953727 58.96433586 11.09020612 59.94589184 9.65625 60.94921875 C8.27224943 61.86412494 6.88680891 62.77685629 5.5 63.6875 C-2.08468464 68.69981665 -9.5967851 73.81044962 -17.0703125 78.98706055 C-18.21306641 79.77463745 -18.21306641 79.77463745 -19.37890625 80.578125 C-20.0551001 81.04637695 -20.73129395 81.51462891 -21.42797852 81.99707031 C-23 83 -23 83 -24 83 C-24.27382288 78.44726373 -24.47230307 73.89939079 -24.60424805 69.34033203 C-24.65927006 67.79358419 -24.73412755 66.24740097 -24.82983398 64.70263672 C-25.60233397 51.90474922 -25.60233397 51.90474922 -21.73754883 47.31054688 C-18.9173326 45.24968439 -16.10154798 43.59928967 -13 42 C-11.75410685 41.17529815 -10.51823967 40.33487809 -9.30078125 39.46875 C-7.82158203 38.49421875 -7.82158203 38.49421875 -6.3125 37.5 C-5.29800781 36.8296875 -4.28351563 36.159375 -3.23828125 35.46875 C-2.13033203 34.74171875 -2.13033203 34.74171875 -1 34 C-8.23603885 28.51702211 -15.51924464 23.1471569 -23 18 C-21.81392042 14.44176125 -20.89947931 13.97243307 -17.8515625 11.93359375 C-17.01109375 11.36576172 -16.170625 10.79792969 -15.3046875 10.21289062 C-14.42039062 9.62701172 -13.53609375 9.04113281 -12.625 8.4375 C-11.7484375 7.84775391 -10.871875 7.25800781 -9.96875 6.65039062 C-7.65077439 5.09266848 -5.3270423 3.54413014 -3 2 C-2.01 1.34 -1.02 0.68 0 0 Z " fill="#1D2B4B" transform="translate(74,52)"/>
<path d="M0 0 C15.84 0 31.68 0 48 0 C46.06878304 3.86243392 45.53198717 4.64114189 42.17578125 6.84765625 C41.40161865 7.36505371 40.62745605 7.88245117 39.82983398 8.41552734 C38.58375366 9.23077881 38.58375366 9.23077881 37.3125 10.0625 C35.57933184 11.22056773 33.84757772 12.3807543 32.1171875 13.54296875 C31.25319336 14.12224121 30.38919922 14.70151367 29.49902344 15.29833984 C25.33461691 18.1340094 21.28852204 21.12303809 17.24926758 24.13305664 C16.42785278 24.74395142 16.42785278 24.74395142 15.58984375 25.3671875 C14.80833199 25.97232681 14.80833199 25.97232681 14.0110321 26.58969116 C12 28 12 28 9.5222168 29.26637268 C5.29659941 31.62012384 2.52325211 33.4057071 0.97596741 38.12011719 C0.49223104 42.04115676 0.31421608 45.90321876 0.28515625 49.84765625 C0.25040674 51.30630005 0.21436746 52.76491362 0.17710876 54.22349548 C0.11288321 57.2778919 0.0901899 60.32948827 0.09204102 63.38452148 C0.08838568 66.49708035 0.01245825 69.59377569 -0.13354492 72.70288086 C-1.41689892 89.44558856 -1.41689892 89.44558856 3.92263794 104.67901611 C8.75705193 109.20990502 14.31696748 112.05133887 20.32217407 114.74728394 C24.14287855 116.534651 27.5041646 118.83092533 30.95703125 121.234375 C32.11688162 122.00341789 33.27893806 122.76914578 34.44335938 123.53125 C34.99660889 123.89605469 35.5498584 124.26085937 36.11987305 124.63671875 C37.28440128 125.40265684 38.4505104 126.16619502 39.61791992 126.92773438 C41.36021446 128.06529077 43.09661215 129.21136644 44.83203125 130.359375 C45.82952393 131.01389648 46.8270166 131.66841797 47.85473633 132.34277344 C48.56267334 132.8896582 49.27061035 133.43654297 50 134 C50 134.66 50 135.32 50 136 C33.5 136 17 136 0 136 C0 91.12 0 46.24 0 0 Z " fill="#FEFEFE" transform="translate(0,0)"/>
<path d="M0 0 C2.90782708 0.8212177 4.78529909 1.92675339 7.24975586 3.66186523 C8.0818457 4.2406543 8.91393555 4.81944336 9.77124023 5.41577148 C10.6265332 6.02291992 11.48182617 6.63006836 12.36303711 7.25561523 C14.07467191 8.45439589 15.78688326 9.65235388 17.49975586 10.84936523 C18.63030396 11.64890625 18.63030396 11.64890625 19.78369141 12.46459961 C21.64194053 13.79496874 21.64194053 13.79496874 23.67553711 14.75561523 C26.28484977 13.86197919 26.28484977 13.86197919 28.67553711 12.75561523 C25.43267564 18.09679883 19.83090412 20.25764884 14.30834961 22.64624023 C9.12954057 25.19480241 4.74160492 27.7273761 1.67553711 32.75561523 C-0.7799933 43.14386924 -0.00961266 54.18043664 0.67553711 64.75561523 C0.11938721 64.4374585 -0.4367627 64.11930176 -1.00976562 63.79150391 C-4.77882573 61.66227365 -8.46196992 59.66291699 -12.48461914 58.05639648 C-17.23954005 55.8279691 -20.7553202 53.44110153 -23.32446289 48.75561523 C-26.1450614 37.88136982 -26.32990795 25.60259152 -23.32446289 14.75561523 C-19.74297137 8.98334001 -14.39126277 6.08279871 -8.22875977 3.58422852 C-6.15297161 2.78246521 -6.15297161 2.78246521 -4.09008789 0.93920898 C-2.32446289 -0.24438477 -2.32446289 -0.24438477 0 0 Z " fill="#FEFDFD" transform="translate(49.324462890625,36.244384765625)"/>
<path d="M0 0 C3.4375 1.5 3.4375 1.5 6 3 C6.33 2.34 6.66 1.68 7 1 C9.64 1 12.28 1 15 1 C15.09940876 5.71388705 15.17172034 10.42715442 15.21972656 15.1418457 C15.23975347 16.74319091 15.26698354 18.3444638 15.30175781 19.94555664 C15.35067419 22.25685537 15.37305711 24.56718154 15.390625 26.87890625 C15.41127014 27.58648575 15.43191528 28.29406525 15.45318604 29.02308655 C15.45564115 34.55033668 14.00458584 37.53752831 11 42 C7.45000796 45.45877169 3.45115913 47.30860468 -1.5 47.625 C-6.43181176 47.33439064 -10.36808961 45.30965455 -14 42 C-15.22265625 39.828125 -15.22265625 39.828125 -16 38 C-13.75 36.375 -13.75 36.375 -11 35 C-8.85623326 35.71458891 -7.58775583 36.41224417 -6 38 C-0.35205258 38.59833373 -0.35205258 38.59833373 4.5 36.1875 C6.28276418 34.02970006 6.28276418 34.02970006 6 31 C5.154375 31.495 4.30875 31.99 3.4375 32.5 C-0.89891363 34.39225322 -4.31708896 34.99763709 -8.859375 33.30859375 C-13.81818093 30.77621209 -16.7169388 27.31457476 -18.75 22.0625 C-19.55796677 15.39677411 -19.06023591 10.4363943 -15 5 C-10.42805629 0.89417637 -6.21663342 -0.92098273 0 0 Z " fill="#25A6BD" transform="translate(150,52)"/>
<path d="M0 0 C4.25269574 2.74062615 6.83719111 6.19500442 8.8125 10.8125 C9.79596454 17.53665288 8.86447654 23.29977957 4.8125 28.8125 C0.38664046 33.13041174 -3.6084431 33.25445611 -9.50390625 33.24609375 C-12.1875 32.8125 -12.1875 32.8125 -17.1875 29.8125 C-17.1875 35.0925 -17.1875 40.3725 -17.1875 45.8125 C-19.8275 45.8125 -22.4675 45.8125 -25.1875 45.8125 C-25.1875 30.6325 -25.1875 15.4525 -25.1875 -0.1875 C-22.5475 -0.1875 -19.9075 -0.1875 -17.1875 -0.1875 C-17.1875 0.8025 -17.1875 1.7925 -17.1875 2.8125 C-15.6715625 1.8225 -15.6715625 1.8225 -14.125 0.8125 C-9.2119506 -1.97090097 -5.30340598 -1.9757787 0 0 Z " fill="#26A5BD" transform="translate(267.1875,53.1875)"/>
<path d="M0 0 C2.57263582 1.11432437 4.65110499 2.43406999 7 4 C7 3.01 7 2.02 7 1 C9.31 1 11.62 1 14 1 C14 11.56 14 22.12 14 33 C11.69 33 9.38 33 7 33 C7 32.01 7 31.02 7 30 C6.50371094 30.28875 6.00742187 30.5775 5.49609375 30.875 C0.84022079 33.41938598 -2.58319184 34.87055845 -8 34 C-12.13718206 32.19955966 -15.17903574 30.02620532 -18 26.5 C-19.58849015 20.94028448 -19.98853224 15.71538708 -19 10 C-14.82319643 2.54794336 -8.63906962 -1.37840443 0 0 Z " fill="#22A5BD" transform="translate(298,52)"/>
<path d="M0 0 C6.12408926 3.81681715 12.17148226 7.73528265 18.125 11.8125 C18.69307373 12.19720459 19.26114746 12.58190918 19.84643555 12.97827148 C23.88212252 15.76424504 23.88212252 15.76424504 25 18 C21.39980252 20.48496979 17.79419166 22.96196739 14.1875 25.4375 C13.16333984 26.14455078 12.13917969 26.85160156 11.08398438 27.58007812 C10.10107422 28.25361328 9.11816406 28.92714844 8.10546875 29.62109375 C6.74651489 30.55586548 6.74651489 30.55586548 5.36010742 31.50952148 C3 33 3 33 0 34 C-1.69824219 33.18310547 -1.69824219 33.18310547 -3.546875 31.8671875 C-4.2275 31.39023438 -4.908125 30.91328125 -5.609375 30.421875 C-6.31578125 29.91140625 -7.0221875 29.4009375 -7.75 28.875 C-8.4409375 28.38773438 -9.131875 27.90046875 -9.84375 27.3984375 C-11.90347911 25.9426891 -13.95258189 24.47299811 -16 23 C-17.33823813 22.04384585 -18.67675839 21.08808641 -20.015625 20.1328125 C-21.00046875 19.42898437 -21.9853125 18.72515625 -23 18 C-21.81392042 14.44176125 -20.89947931 13.97243307 -17.8515625 11.93359375 C-17.01109375 11.36576172 -16.170625 10.79792969 -15.3046875 10.21289062 C-14.42039062 9.62701172 -13.53609375 9.04113281 -12.625 8.4375 C-11.7484375 7.84775391 -10.871875 7.25800781 -9.96875 6.65039062 C-7.65077439 5.09266848 -5.3270423 3.54413014 -3 2 C-2.01 1.34 -1.02 0.68 0 0 Z " fill="#FD555F" transform="translate(74,52)"/>
<path d="M0 0 C5.48536684 2.29123287 9.43759131 5.55488153 12 11 C12 13.64 12 16.28 12 19 C3.75 19 -4.5 19 -13 19 C-11.58261912 23.79999065 -11.58261912 23.79999065 -9.25 25.3125 C-4.37938265 26.80074419 -0.54360455 26.13816685 4 24 C5.32 25.32 6.64 26.64 8 28 C7 31 7 31 4.5625 32.6875 C-0.79046314 34.65964432 -5.94578658 35.29791194 -11.31640625 33.015625 C-16.11023151 30.15522098 -19.20526332 27.38421003 -21 22 C-21.49416324 16.83963961 -21.62545242 12.40726795 -19.5 7.625 C-13.95045816 1.79798106 -8.24157687 -1.78351751 0 0 Z " fill="#24A5BD" transform="translate(189,52)"/>
<path d="M0 0 C4.68170268 1.74416374 7.21249191 3.87035839 10 8 C11.01973129 11.05919388 11.11533602 13.12418025 11.09765625 16.32421875 C11.09443359 17.35224609 11.09121094 18.38027344 11.08789062 19.43945312 C11.07532227 21.04723633 11.07532227 21.04723633 11.0625 22.6875 C11.05798828 23.77095703 11.05347656 24.85441406 11.04882812 25.97070312 C11.03703743 28.64719085 11.02058063 31.32356777 11 34 C8.36 34 5.72 34 3 34 C2.98018066 33.34926514 2.96036133 32.69853027 2.93994141 32.02807617 C2.84470701 29.08080849 2.73502182 26.13425115 2.625 23.1875 C2.5940625 22.16333984 2.563125 21.13917969 2.53125 20.08398438 C2.49257812 19.10107422 2.45390625 18.11816406 2.4140625 17.10546875 C2.36693115 15.74651489 2.36693115 15.74651489 2.31884766 14.36010742 C2.13972081 11.73474608 2.13972081 11.73474608 0 9 C-2.09593974 8.48526484 -2.09593974 8.48526484 -4.4375 8.5625 C-5.21996094 8.54316406 -6.00242188 8.52382813 -6.80859375 8.50390625 C-9.12682591 8.81280419 -9.12682591 8.81280419 -10.60498047 10.71948242 C-12.21575173 13.3527016 -12.41830037 14.92025223 -12.51171875 17.984375 C-12.54716797 18.91894531 -12.58261719 19.85351562 -12.61914062 20.81640625 C-12.65297852 22.26853516 -12.65297852 22.26853516 -12.6875 23.75 C-12.72166016 24.73355469 -12.75582031 25.71710938 -12.79101562 26.73046875 C-12.87335273 29.15353199 -12.94254838 31.57623998 -13 34 C-15.64 34 -18.28 34 -21 34 C-21 23.11 -21 12.22 -21 1 C-18.36 1 -15.72 1 -13 1 C-12.67 1.66 -12.34 2.32 -12 3 C-11.319375 2.505 -10.63875 2.01 -9.9375 1.5 C-6.28168831 -0.36679746 -4.06691572 -0.42809639 0 0 Z " fill="#27A6BE" transform="translate(227,52)"/>
<path d="M0 0 C1.93359375 1.08984375 1.93359375 1.08984375 4.80859375 3.08984375 C3.75984377 5.71171869 3.15928062 6.88355736 0.68359375 8.33984375 C0.06484375 8.58734375 -0.55390625 8.83484375 -1.19140625 9.08984375 C-2.18140625 8.42984375 -3.17140625 7.76984375 -4.19140625 7.08984375 C-8.18940789 6.4814522 -9.71341877 6.75733072 -13.06640625 9.08984375 C-15.43406956 12.43242725 -15.94866983 14.1499779 -15.67578125 18.15234375 C-14.81041708 21.61380044 -13.04942356 23.1016578 -10.19140625 25.08984375 C-5.97366015 25.70493172 -3.01301145 24.8882462 0.80859375 23.08984375 C2.12859375 24.40984375 3.44859375 25.72984375 4.80859375 27.08984375 C3.80859375 30.08984375 3.80859375 30.08984375 1.37109375 31.77734375 C-4.18731048 33.82517689 -9.2033535 34.42757198 -14.73046875 31.953125 C-19.34931666 29.08703208 -22.63996154 26.4681854 -24.19140625 21.08984375 C-24.91941471 15.46177832 -24.83059251 10.43376544 -21.57421875 5.62890625 C-15.89413055 -0.69299983 -8.11305348 -3.36959262 0 0 Z " fill="#26A6BE" transform="translate(341.19140625,52.91015625)"/>
<path d="M0 0 C2.64 0 5.28 0 8 0 C8 4.95 8 9.9 8 15 C9.98 15 11.96 15 14 15 C14 17.31 14 19.62 14 22 C12.02 22 10.04 22 8 22 C8 30.25 8 38.5 8 47 C5.36 47 2.72 47 0 47 C0 38.75 0 30.5 0 22 C-1.65 22 -3.3 22 -5 22 C-5 19.69 -5 17.38 -5 15 C-3.35 15 -1.7 15 0 15 C0 10.05 0 5.1 0 0 Z " fill="#27A6BE" transform="translate(354,37)"/>
<path d="M0 0 C3.19584949 2.9238623 4.79704246 4.75688506 5.5 9.0625 C4.80764879 13.13006333 3.57656241 15.85835136 0.1875 18.3125 C-2.80722045 19.25369786 -4.87349492 19.44664358 -8 19 C-11.53662065 16.01352034 -13.74387886 13.87822171 -14.375 9.25 C-13.8528401 4.7246142 -12.15770622 3.2328897 -9 0 C-5.73616149 -1.63191925 -3.46807101 -0.88171297 0 0 Z " fill="#F7FBFC" transform="translate(153,60)"/>
<path d="M0 0 C2.3181362 1.89111111 3.66914015 3.33828031 5 6 C5.41204834 10.63554388 4.87454146 13.30416098 2 17 C-0.61457103 19.05430581 -2.06354429 19 -5.4375 19 C-10.0516797 17.70479166 -11.48877431 16.03318066 -14 12 C-14.66026381 8.8307337 -14.69114546 7.09007869 -12.9375 4.32421875 C-8.68751647 -0.9756119 -6.57094334 -1.47279764 0 0 Z " fill="#F7FBFC" transform="translate(300,60)"/>
<path d="M0 0 C2.875 2.0625 2.875 2.0625 5 5 C5.73944481 9.65850231 5.71973922 12.58690581 3 16.5 C-0.33606883 19.28005736 -1.84189985 19.8755163 -6.0625 19.5078125 C-9.64591327 18.56861144 -11.00301801 17.05787867 -13 14 C-13.6955802 10.84708321 -13.73012769 8.14867566 -13 5 C-8.92546885 -0.14677619 -6.37868266 -1.75101093 0 0 Z " fill="#FAFCFD" transform="translate(263,60)"/>
<path d="M0 0 C3.375 1.875 3.375 1.875 6 4 C6 4.66 6 5.32 6 6 C0.39 6 -5.22 6 -11 6 C-8.22924426 0.45848852 -6.03004217 -0.70941673 0 0 Z " fill="#E5F2F5" transform="translate(187,59)"/>
</svg>
