<svg width="177" height="50" viewBox="0 0 177 50" fill="none" xmlns="http://www.w3.org/2000/svg">
<g clip-path="url(#clip0_242_1620)">
<path d="M55.7269 33.7015H62.1645C62.2326 33.7015 62.2666 33.7356 62.2666 33.8038V35.1336C62.2666 35.2018 62.2326 35.2359 62.1645 35.2359H55.7269C55.2846 35.2359 54.8695 35.345 54.4884 35.5701C54.1073 35.7951 53.8079 36.0883 53.5833 36.4702C53.3588 36.8521 53.2499 37.2613 53.2499 37.7114C53.2499 38.3933 53.4881 38.973 53.978 39.4571C54.4612 39.9413 55.0464 40.1868 55.7201 40.1868H62.1577C62.2258 40.1868 62.2598 40.2209 62.2598 40.2891V41.6189C62.2598 41.6871 62.2258 41.7212 62.1577 41.7212H55.7201C54.992 41.7212 54.3251 41.5439 53.7126 41.1824C53.1002 40.821 52.6102 40.3368 52.2564 39.7231C51.8957 39.1093 51.7188 38.441 51.7188 37.7114C51.7188 36.9817 51.8957 36.3134 52.2564 35.6996C52.617 35.0859 53.1002 34.5949 53.7126 34.2403C54.3251 33.8788 54.9988 33.7015 55.7201 33.7015" fill="#F2003C"/>
<path d="M71.1469 33.7015H73.6852C74.3997 33.7015 75.0666 33.8788 75.6859 34.2403C76.3051 34.6017 76.7883 35.0859 77.149 35.6996C77.5096 36.3134 77.6866 36.9817 77.6866 37.7114C77.6866 38.441 77.5096 39.1093 77.149 39.7231C76.7883 40.3368 76.3051 40.8278 75.6859 41.1824C75.0666 41.5439 74.3997 41.7212 73.6852 41.7212H71.1469C70.4188 41.7212 69.7519 41.5439 69.1394 41.1824C68.5269 40.821 68.037 40.3368 67.6831 39.7231C67.3224 39.1093 67.1455 38.441 67.1455 37.7114C67.1455 36.9817 67.3224 36.3134 67.6831 35.6996C68.0438 35.0859 68.5269 34.5949 69.1394 34.2403C69.7519 33.8788 70.4256 33.7015 71.1469 33.7015ZM73.6852 40.1868C74.3657 40.1868 74.9441 39.9413 75.4273 39.4571C75.9104 38.973 76.1554 38.3865 76.1554 37.7114C76.1554 37.0362 75.9172 36.4498 75.4273 35.9656C74.9441 35.4814 74.3589 35.2359 73.6852 35.2359H71.1469C70.7046 35.2359 70.2895 35.345 69.9084 35.5701C69.5273 35.7951 69.2279 36.0883 69.0033 36.4702C68.7855 36.8521 68.6698 37.2613 68.6698 37.7114C68.6698 38.3933 68.9148 38.973 69.398 39.4571C69.8812 39.9413 70.4664 40.1868 71.1401 40.1868H73.6784H73.6852Z" fill="#F2003C"/>
<path d="M83.3964 33.7015H85.1589C85.193 33.7015 85.227 33.7015 85.2542 33.7152C85.2814 33.7288 85.3018 33.7356 85.3223 33.7629C85.3427 33.7834 85.3563 33.8038 85.3699 33.8175C85.3835 33.8311 85.3971 33.8516 85.4243 33.8925C85.4516 33.9334 85.4652 33.9539 85.4788 33.9607L90.0178 40.4459L94.5567 33.9607C94.5567 33.9607 94.584 33.9402 94.5976 33.9198C94.6112 33.8993 94.618 33.8857 94.6248 33.8652C94.6316 33.8516 94.6452 33.8379 94.652 33.8175C94.6656 33.8038 94.6724 33.7902 94.6792 33.7834C94.686 33.7766 94.6996 33.7629 94.7133 33.7561C94.7269 33.7425 94.7473 33.7356 94.7609 33.7288C94.7745 33.722 94.7949 33.7152 94.8085 33.7084C94.829 33.7084 94.8494 33.7084 94.8698 33.7084H96.6323V41.6257C96.6323 41.6939 96.5983 41.728 96.5302 41.728H95.2032C95.1352 41.728 95.1012 41.6939 95.1012 41.6257V35.8224L91.1406 41.4757C91.0249 41.6462 90.9296 41.728 90.8412 41.728H89.1739C89.0923 41.728 88.9902 41.6462 88.8745 41.4757L84.914 35.8224V41.6257C84.914 41.6939 84.8799 41.728 84.8119 41.728H83.4849C83.4168 41.728 83.3828 41.6939 83.3828 41.6257V33.7084L83.3964 33.7015Z" fill="#F2003C"/>
<path d="M104.165 41.7212H102.838C102.77 41.7212 102.736 41.6871 102.736 41.6189V33.8038C102.736 33.7356 102.77 33.7015 102.838 33.7015H110.902C111.556 33.7015 112.121 33.9334 112.59 34.4039C113.06 34.8677 113.291 35.4337 113.291 36.0883C113.291 36.4157 113.223 36.7294 113.094 37.0226C112.964 37.3158 112.794 37.5682 112.583 37.7864C112.372 37.9978 112.121 38.1683 111.821 38.2978C111.522 38.4274 111.215 38.4888 110.896 38.4888H104.261V41.6325C104.261 41.7007 104.227 41.7348 104.159 41.7348M104.267 35.2359V36.9408H110.909C111.147 36.9408 111.345 36.8589 111.515 36.6884C111.685 36.518 111.767 36.3202 111.767 36.0883C111.767 35.8565 111.685 35.6519 111.515 35.4882C111.345 35.3177 111.147 35.2359 110.909 35.2359H104.267Z" fill="#F2003C"/>
<path d="M129.222 37.7114C129.222 38.441 129.045 39.1093 128.684 39.7231C128.323 40.3368 127.84 40.8278 127.221 41.1824C126.602 41.5439 125.935 41.7212 125.22 41.7212H122.682C121.961 41.7212 121.287 41.5439 120.675 41.1824C120.062 40.821 119.572 40.3368 119.218 39.7231C118.858 39.1093 118.681 38.4342 118.681 37.7114V33.8038C118.681 33.7356 118.715 33.7015 118.783 33.7015H120.11C120.178 33.7015 120.212 33.7356 120.212 33.8038V37.7114C120.212 38.3933 120.45 38.973 120.94 39.4571C121.423 39.9413 122.008 40.1868 122.682 40.1868H125.22C125.901 40.1868 126.479 39.9413 126.962 39.4571C127.446 38.973 127.691 38.3865 127.691 37.7114V33.8038C127.691 33.7356 127.725 33.7015 127.793 33.7015H129.12C129.188 33.7015 129.222 33.7356 129.222 33.8038V37.7114Z" fill="#F2003C"/>
<path d="M144.908 33.7015C144.983 33.7015 145.023 33.7356 145.023 33.8038V35.1336C145.023 35.2018 144.983 35.2359 144.908 35.2359H140.505V41.6189C140.505 41.6871 140.471 41.7212 140.403 41.7212H139.089C139.015 41.7212 138.974 41.6871 138.974 41.6189V35.2359H134.571C134.503 35.2359 134.469 35.2018 134.469 35.1336V33.8038C134.469 33.7356 134.503 33.7015 134.571 33.7015H144.908Z" fill="#F2003C"/>
<path d="M160.749 35.1337C160.749 35.2019 160.715 35.236 160.647 35.236H151.991V36.9409H158.463C158.531 36.9409 158.565 36.975 158.565 37.0432V38.3729C158.565 38.4411 158.531 38.4752 158.463 38.4752H151.991V40.1801H160.647C160.715 40.1801 160.749 40.2142 160.749 40.2824V41.6122C160.749 41.6804 160.715 41.7145 160.647 41.7145H150.555C150.487 41.7145 150.453 41.6804 150.453 41.6122V33.7971C150.453 33.7289 150.487 33.6948 150.555 33.6948H160.647C160.715 33.6948 160.749 33.7289 160.749 33.7971V35.1269V35.1337Z" fill="#F2003C"/>
<path d="M174.428 38.5161L176.673 41.728H174.945C174.945 41.728 174.884 41.728 174.856 41.7144C174.829 41.7075 174.802 41.6939 174.781 41.6666C174.761 41.6462 174.741 41.6257 174.727 41.6121C174.713 41.5984 174.7 41.578 174.673 41.5371C174.652 41.4961 174.632 41.4757 174.625 41.4689C174.428 41.1893 174.21 40.8824 173.985 40.5551C173.754 40.2277 173.516 39.8731 173.25 39.498C172.992 39.123 172.781 38.8229 172.624 38.5911L172.543 38.4751H167.97V41.6189C167.97 41.6871 167.936 41.7212 167.868 41.7212H166.541C166.472 41.7212 166.438 41.6871 166.438 41.6189V33.8038C166.438 33.7356 166.472 33.7015 166.541 33.7015H174.605C175.04 33.7015 175.442 33.8106 175.802 34.0221C176.17 34.2335 176.456 34.5267 176.673 34.8949C176.884 35.2632 176.993 35.6587 176.993 36.0883C176.993 36.3952 176.939 36.6816 176.83 36.9612C176.721 37.234 176.571 37.4795 176.381 37.6909C176.19 37.9023 175.966 38.0796 175.7 38.216C175.435 38.3592 175.163 38.441 174.87 38.4751L174.421 38.5229L174.428 38.5161ZM167.976 35.2359V36.9408H174.618C174.856 36.9408 175.054 36.8589 175.224 36.6884C175.394 36.518 175.476 36.3202 175.476 36.0883C175.476 35.8565 175.394 35.6519 175.224 35.4882C175.054 35.3177 174.856 35.2359 174.618 35.2359H167.976Z" fill="#F2003C"/>
<path d="M89.4531 8.89938C89.1741 8.48339 88.9291 8.27881 88.7249 8.27881H84.6419C84.4377 8.27881 84.186 8.48339 83.8865 8.89938L70.4941 28.0074H74.7405C74.8154 28.0074 74.8834 28.0006 74.9515 27.9801C75.0195 27.9665 75.0808 27.9256 75.1352 27.871C75.1896 27.8165 75.2305 27.7687 75.2645 27.7414C75.2917 27.7142 75.3326 27.6528 75.387 27.5573C75.4414 27.4687 75.4823 27.4073 75.5027 27.3936C76.68 25.7024 78.4561 23.1588 80.8174 19.7764C83.1788 16.3939 84.9549 13.8571 86.1322 12.1659L86.6698 11.4362C89.1605 14.9687 92.8896 20.2878 97.8369 27.3936C97.8778 27.4073 97.9254 27.4687 97.9798 27.5573C98.0343 27.6528 98.0751 27.7142 98.1023 27.7414C98.1364 27.7687 98.1772 27.8165 98.2316 27.871C98.2861 27.9256 98.3473 27.9665 98.4018 27.9801C98.4562 28.0006 98.531 28.0074 98.6263 28.0074H102.845L89.4531 8.89938Z" fill="#231F20"/>
<path d="M108.412 8.27881H111.678C111.815 8.27881 111.93 8.39474 111.93 8.53113V27.7551C111.93 27.8983 111.815 28.0074 111.678 28.0074H108.419C108.276 28.0074 108.167 27.8915 108.167 27.7551V8.53113C108.167 8.38792 108.283 8.27881 108.419 8.27881H108.412Z" fill="#231F20"/>
<path d="M140.851 27.9597H140.824V27.9324L122.96 13.2979V27.7619C122.96 27.9324 122.879 28.0142 122.709 28.0142H119.449C119.279 28.0142 119.197 27.9324 119.197 27.7619V8.53113C119.197 8.36064 119.279 8.27881 119.449 8.27881H122.709C122.763 8.27881 122.824 8.30609 122.879 8.36064H122.906L140.742 23.0224V8.53113C140.742 8.36064 140.824 8.27881 140.994 8.27881H144.254C144.424 8.27881 144.505 8.36064 144.505 8.53113V27.7619C144.505 27.9324 144.424 28.0142 144.254 28.0142H140.994C140.939 28.0142 140.892 27.9938 140.851 27.9597Z" fill="#231F20"/>
<path d="M156.885 20.0355C155.837 20.0355 154.857 19.7695 153.958 19.2444C153.06 18.7193 152.346 18.0033 151.822 17.1031C151.298 16.203 151.032 15.2142 151.032 14.1435C151.032 12.5273 151.611 11.143 152.761 9.9973C153.911 8.85164 155.285 8.27881 156.885 8.27881H176.293C176.463 8.27881 176.544 8.36064 176.544 8.53113V11.8044C176.544 11.9749 176.463 12.0568 176.293 12.0568H156.885C156.299 12.0568 155.803 12.2614 155.394 12.6773C154.979 13.0933 154.775 13.5843 154.775 14.1572C154.775 14.73 154.979 15.221 155.394 15.637C155.809 16.0529 156.306 16.2575 156.885 16.2575H171.121C172.734 16.2575 174.115 16.8372 175.272 17.9897C176.429 19.149 177 20.5333 177 22.1495C177 23.7657 176.422 25.1501 175.272 26.2957C174.115 27.4414 172.734 28.0142 171.121 28.0142H151.706C151.536 28.0142 151.454 27.9324 151.454 27.7619V24.4954C151.454 24.3249 151.536 24.2431 151.706 24.2431H171.148C171.726 24.2431 172.223 24.0385 172.625 23.6225C173.026 23.2133 173.23 22.7155 173.23 22.1427C173.23 21.5699 173.026 21.0789 172.625 20.6629C172.223 20.2469 171.726 20.0423 171.148 20.0423H156.885V20.0355Z" fill="#231F20"/>
<path d="M67.874 8.53111V18.4261C67.8196 20.1514 67.3432 21.7608 66.4585 23.2338C65.5671 24.7068 64.3762 25.8729 62.8791 26.7253C61.382 27.5778 59.7692 28.0074 58.0271 28.0074H51.9773C51.8072 28.0074 51.7188 27.9255 51.7188 27.7551V24.4817C51.7188 24.3113 51.8004 24.2294 51.9773 24.2294H58.0271C59.6943 24.2294 61.1234 23.6293 62.3143 22.4359C63.5051 21.2425 64.104 19.8104 64.104 18.1397V12.0363H51.9705C51.8549 12.0363 51.7664 11.9476 51.7664 11.8317V8.47656C51.7664 8.36063 51.8549 8.27197 51.9705 8.27197H67.6222C67.7923 8.27197 67.874 8.35381 67.874 8.52429" fill="#231F20"/>
<path d="M14.0253 8.11511L0 0V7.90371L14.243 16.1484V38.407L6.8323 34.1176V25.8729L0 21.9244V38.0728L20.6194 50V11.8931L14.0321 8.11511H14.0253ZM18.2852 45.4173L2.79689 36.4566V29.3099L2.02791 28.8666V25.3137L4.73633 26.8753V30.4283L4.04221 30.0259V35.7269L17.0399 43.2556V14.5322L4.73633 7.41271V8.46972L2.02791 6.90125V3.34834L4.73633 4.90998V5.97381L12.6302 10.536L18.2852 13.7821V45.4173Z" fill="#F2003C"/>
<path d="M42.4436 16.1484V0L28.4183 8.17649L21.8242 11.8999V50L42.4436 38.0728V21.9244L35.6113 25.8797V34.1244L28.2006 38.4138V16.1484L35.6113 11.859V20.1037L42.4436 16.1484ZM25.4105 14.5322V43.2624L38.4082 35.7338V30.3464L37.646 30.7897V27.2299L40.3544 25.6683V29.2212L39.6535 29.6236V36.4566L24.1652 45.4173V13.7957L29.827 10.5837L39.6535 4.86225V11.9885L40.3544 11.5862V15.1391L37.646 16.7076V13.1547L38.4082 12.7114V7.00355L25.4105 14.5254V14.5322Z" fill="#B11116"/>
<path d="M90.0717 24.3794C88.7039 25.225 87.5674 26.4252 86.6691 27.9596C85.7845 26.4252 84.6548 25.225 83.2666 24.3794C84.6548 23.5338 85.7845 22.3404 86.6691 20.7992C87.5674 22.3404 88.7039 23.5338 90.0717 24.3794Z" fill="#F2003C"/>
</g>
<defs>
<clipPath id="clip0_242_1620">
<rect width="177" height="50" fill="white"/>
</clipPath>
</defs>
</svg>
