<?xml version="1.0" encoding="UTF-8"?>
<svg version="1.1" xmlns="http://www.w3.org/2000/svg" width="325" height="155">
<path d="M0 0 C107.25 0 214.5 0 325 0 C325 51.15 325 102.3 325 155 C217.75 155 110.5 155 0 155 C0 103.85 0 52.7 0 0 Z " fill="#FDFDFD" transform="translate(0,0)"/>
<path d="M0 0 C8.35491141 5.99115533 14.17558159 14.63377041 16.83984375 24.63671875 C18.73364134 38.53166064 16.2847412 49.80914922 8.1875 61.1875 C2.04616939 69.13973579 -7.61483318 74.24725117 -17.484375 75.93359375 C-27.98413346 77.07870164 -35.07274899 75.42217435 -44.8125 71.1875 C-45.1425 78.4475 -45.4725 85.7075 -45.8125 93.1875 C-52.4125 93.1875 -59.0125 93.1875 -65.8125 93.1875 C-65.92602744 84.52867473 -66.01751601 75.87035383 -66.07156086 67.21094894 C-66.09751615 63.18885112 -66.13265138 59.16729435 -66.18969727 55.14550781 C-66.2445266 51.25508657 -66.27402595 47.36518155 -66.28688622 43.47440338 C-66.29603587 41.99938087 -66.31389999 40.52438259 -66.34115028 39.04958344 C-66.58412477 25.33869321 -63.46275513 14.27913894 -53.8125 4.1875 C-38.59746559 -9.72072164 -17.21227372 -10.64706152 0 0 Z " fill="#0A0A0A" transform="translate(167.8125,55.8125)"/>
<path d="M0 0 C6.86996302 4.99217313 11.51251782 10.73370148 14.57421875 18.65234375 C15.09471802 19.98785278 15.09471802 19.98785278 15.62573242 21.3503418 C15.88330322 22.02363525 16.14087402 22.69692871 16.40625 23.390625 C-0.22610668 33.11740135 -16.89558152 42.77739023 -33.59375 52.390625 C-30.83783226 55.14654274 -28.29403016 55.58807095 -24.53125 55.765625 C-18.16396709 55.67214124 -12.35508244 53.22146467 -7.88671875 48.640625 C-5.681066 45.69127954 -4.35163815 42.9612939 -3.59375 39.390625 C3.16335231 40.4492377 9.79949562 41.61188344 16.40625 43.390625 C14.68588233 54.2289413 9.02917445 62.58148811 0.40625 69.390625 C-9.87338349 75.38200902 -21.35872701 78.06078873 -33.1640625 75.92578125 C-44.04340159 73.04395005 -53.56458251 66.85021215 -59.54296875 57.265625 C-65.80765802 46.08321819 -67.67939684 34.2165624 -64.421875 21.58203125 C-62.75173798 17.16247055 -60.22291814 13.29308138 -57.59375 9.390625 C-57.01625 8.50375 -56.43875 7.616875 -55.84375 6.703125 C-40.76054104 -8.79906198 -18.28846396 -11.34766137 0 0 Z " fill="#0A0A0A" transform="translate(80.59375,55.609375)"/>
<path d="M0 0 C0 6.6 0 13.2 0 20 C-4.4921875 22.09960938 -4.4921875 22.09960938 -8.984375 24.19921875 C-13.25587997 26.74994905 -16.26236334 30.32174745 -18 35 C-18.44691964 37.66610683 -18.7306665 40.30666504 -19 43 C-13.72 43 -8.44 43 -3 43 C-3 49.6 -3 56.2 -3 63 C-8.28 63 -13.56 63 -19 63 C-19 83.13 -19 103.26 -19 124 C-25.93 124 -32.86 124 -40 124 C-40.06793597 112.69893919 -40.1229084 101.39801533 -40.15543652 90.09679604 C-40.171053 84.84847007 -40.19221759 79.60029178 -40.22631836 74.35205078 C-40.25905544 69.28161555 -40.27688319 64.21132184 -40.28463173 59.14078903 C-40.29014956 57.21201731 -40.30092423 55.28325281 -40.31719017 53.35454178 C-40.47427466 33.94620646 -40.47427466 33.94620646 -37 26 C-36.41798828 24.66388672 -36.41798828 24.66388672 -35.82421875 23.30078125 C-28.92649675 11.23569363 -20.60421533 5.41009893 -7.54296875 0.6640625 C-5 0 -5 0 0 0 Z " fill="#0D0D0D" transform="translate(258,7)"/>
<path d="M0 0 C6.93 0 13.86 0 21 0 C21 27.06 21 54.12 21 82 C14.07 82 7.14 82 0 82 C0 54.94 0 27.88 0 0 Z " fill="#131313" transform="translate(262,49)"/>
<path d="M0 0 C6.6 0 13.2 0 20 0 C20 26.73 20 53.46 20 81 C13.4 81 6.8 81 0 81 C0 54.27 0 27.54 0 0 Z " fill="#080808" transform="translate(192,50)"/>
<path d="M0 0 C5.19077708 3.08078563 8.82377195 7.13595281 11.859375 12.33984375 C13.72700014 19.81034433 12.96085658 26.06136008 9.24609375 32.8203125 C5.77372307 37.45812253 0.98472746 40.27722626 -4.453125 42.08984375 C-11.78001723 43.13868313 -17.36260442 41.15728931 -23.453125 37.08984375 C-27.68507449 33.31272996 -30.08758247 28.8795104 -30.82421875 23.2578125 C-30.98254646 16.15169221 -30.24207118 11.47897117 -25.453125 6.08984375 C-18.42440592 -0.93887533 -9.67677997 -3.59027028 0 0 Z " fill="#FBFBFB" transform="translate(152.453125,69.91015625)"/>
<path d="M0 0 C3.63332579 2.9727211 4.52535989 4.52775915 5.125 9.125 C4.64541545 13.12153796 3.28260567 15.15459308 0.75 18.25 C-2.66550511 20.84107284 -6.08325464 20.75288306 -10.25 20.25 C-13.82143799 18.19973004 -15.64002548 17.01503266 -16.984375 13.125 C-17.69880528 8.89557276 -17.48450189 6.72768904 -15.5625 2.8125 C-10.92492878 -2.32643028 -6.28235832 -3.38280833 0 0 Z " fill="#FC5A4A" transform="translate(306.25,111.75)"/>
<path d="M0 0 C1.04027344 -0.01417969 2.08054687 -0.02835937 3.15234375 -0.04296875 C6.01296613 0.18357718 7.63920151 0.71016381 10.0625 2.1875 C8.75181962 6.11954113 7.29414941 6.46618268 3.70703125 8.4375 C2.60939453 9.0459375 1.51175781 9.654375 0.38085938 10.28125 C-1.35454102 11.22484375 -1.35454102 11.22484375 -3.125 12.1875 C-4.26259766 12.8165625 -5.40019531 13.445625 -6.57226562 14.09375 C-11.64907834 16.89147983 -16.74042889 19.61870483 -21.9375 22.1875 C-21.90382602 14.9139212 -20.0320274 10.39995628 -14.9375 5.1875 C-10.2338201 1.2753047 -6.06836117 0.03750532 0 0 Z " fill="#F6F6F6" transform="translate(56.9375,68.8125)"/>
<path d="M0 0 C0.66 0.33 1.32 0.66 2 1 C-1.3 4.3 -4.6 7.6 -8 11 C-8.66 10.67 -9.32 10.34 -10 10 C-8.90033225 8.70450101 -7.79508199 7.41373929 -6.6875 6.125 C-6.07261719 5.40570313 -5.45773438 4.68640625 -4.82421875 3.9453125 C-3 2 -3 2 0 0 Z " fill="#141414" transform="translate(119,56)"/>
<path d="M0 0 C0.66 0.33 1.32 0.66 2 1 C1.01 1 0.02 1 -1 1 C-0.67 0.67 -0.34 0.34 0 0 Z M-3 2 C-2.34 2.33 -1.68 2.66 -1 3 C-3.97 5.97 -6.94 8.94 -10 12 C-10.66 11.67 -11.32 11.34 -12 11 C-9.31941902 7.42589203 -6.57410797 4.68058098 -3 2 Z " fill="#121212" transform="translate(35,54)"/>
<path d="M0 0 C0.66 0.33 1.32 0.66 2 1 C-0.97 3.97 -3.94 6.94 -7 10 C-7.66 9.67 -8.32 9.34 -9 9 C-8.06725891 7.87105124 -7.12859878 6.74699124 -6.1875 5.625 C-5.66542969 4.99851562 -5.14335937 4.37203125 -4.60546875 3.7265625 C-3 2 -3 2 0 0 Z " fill="#181818" transform="translate(235,15)"/>
</svg>
