<?xml version="1.0" encoding="UTF-8"?>
<svg version="1.1" xmlns="http://www.w3.org/2000/svg" width="960" height="256">
<path d="M0 0 C0.89840607 -0.00700928 1.79681213 -0.01401855 2.72244263 -0.02124023 C5.6932877 -0.03884158 8.66317831 -0.02717686 11.6340332 -0.01367188 C13.71369101 -0.01636923 15.79334759 -0.02025368 17.8730011 -0.02526855 C22.24016277 -0.03116908 26.60699746 -0.022594 30.97412109 -0.00390625 C36.52255951 0.01869925 42.07021601 0.00588145 47.61862469 -0.01819611 C51.92144933 -0.03279738 56.22409538 -0.0279801 60.52692604 -0.01768494 C62.56908069 -0.01504734 64.61125245 -0.01818076 66.65338707 -0.02760315 C86.55074446 -0.09916578 107.44339321 1.54912757 122.93481445 15.58007812 C129.46025685 22.67878368 135.20414902 32.85340153 134.93920898 42.6706543 C134.85431538 44.27950376 134.76700835 45.88822739 134.67749023 47.49682617 C134.05945478 55.0180802 134.05945478 55.0180802 136.5637207 61.81054688 C138.59936873 63.24625267 138.59936873 63.24625267 140.83325195 64.36132812 C146.71929787 67.50621908 150.27487676 74.76470963 152.30200195 80.88867188 C155.99476411 100.16157102 152.6752731 122.49319899 142.2980957 139.26367188 C140.59685579 141.74726073 138.85466014 144.14867537 136.99731445 146.51757812 C136.22387695 147.50886719 135.45043945 148.50015625 134.65356445 149.52148438 C124.11397662 162.03227717 106.72110134 167.71450163 90.99731445 169.51757812 C84.72063005 169.9963965 78.433458 170.21508955 72.14111328 170.35986328 C69.99016971 170.51810375 68.06908705 170.93168753 65.99731445 171.51757812 C63.82968138 178.98221563 62.4489316 186.4649745 61.27856445 194.13867188 C61.06006836 195.56924423 61.06006836 195.56924423 60.8371582 197.02871704 C60.23289557 201.01816728 59.63644704 205.00868823 59.04956055 209.00073242 C58.61451617 211.94405723 58.16612639 214.88511154 57.71606445 217.82617188 C57.58784302 218.72516708 57.45962158 219.62416229 57.32751465 220.55039978 C56.61857061 225.13279758 55.92948661 228.77035997 52.99731445 232.51757812 C49.87896798 234.59647577 49.12592255 234.77574602 45.57348633 234.82397461 C44.68246216 234.83996201 43.79143799 234.8559494 42.87341309 234.87242126 C41.91398804 234.87778397 40.95456299 234.88314667 39.96606445 234.88867188 C38.48487122 234.90221458 38.48487122 234.90221458 36.97375488 234.91603088 C34.88577308 234.93053935 32.79774574 234.9394216 30.7097168 234.94311523 C27.50923651 234.95503373 24.31067022 235.00423255 21.1105957 235.0546875 C19.08326138 235.06414895 17.0559152 235.07138532 15.02856445 235.07617188 C14.0691394 235.09570419 13.10971436 235.11523651 12.12121582 235.13536072 C5.67914134 235.09141895 5.67914134 235.09141895 2.78833008 232.65844727 C1.57330968 227.83399127 2.46017354 223.55226328 3.30981445 218.70507812 C3.46643555 217.72603516 3.62305664 216.74699219 3.78442383 215.73828125 C4.17238791 213.32820136 4.57711514 210.92221076 4.99731445 208.51757812 C4.41515671 208.52423996 3.83299896 208.53090179 3.23320007 208.5377655 C-2.8172962 208.60405503 -8.86768959 208.64935205 -14.91845703 208.68237305 C-17.17761423 208.69747415 -19.43674204 208.71795655 -21.69580078 208.74389648 C-24.94009647 208.7802212 -28.18400511 208.79729121 -31.4284668 208.81054688 C-32.44105057 208.82603073 -33.45363434 208.84151459 -34.49690247 208.85746765 C-35.90802559 208.85780754 -35.90802559 208.85780754 -37.34765625 208.8581543 C-38.17594437 208.86481613 -39.00423248 208.87147797 -39.85762024 208.87834167 C-42.58097214 208.42032014 -43.30826359 207.66972489 -45.00268555 205.51757812 C-46.72572043 196.2701988 -43.85660574 185.77176394 -42.37231445 176.58105469 C-42.08913241 174.78797005 -41.806687 172.99476895 -41.5249176 171.20146179 C-40.76191667 166.35963152 -39.98836769 161.51954164 -39.212605 156.67974186 C-38.40048226 151.60303755 -37.59737566 146.52490642 -36.7930603 141.44696045 C-35.44198293 132.92578553 -34.08433063 124.40567902 -32.72241211 115.88623047 C-31.14924118 106.04497233 -29.58506375 96.20231853 -28.02599967 86.35881639 C-26.52346199 76.8727717 -25.01595895 67.38752353 -23.50571823 57.90270233 C-22.86405147 53.87279264 -22.22386535 49.84265189 -21.58482742 45.81232452 C-20.83215449 41.06741367 -20.07504977 36.32323018 -19.31454277 31.57956886 C-19.03652514 29.84117682 -18.75996386 28.10255113 -18.48498344 26.36367607 C-18.10872308 23.98602976 -17.72710929 21.60930171 -17.34414673 19.23272705 C-17.23713491 18.54857672 -17.13012309 17.86442639 -17.01986849 17.15954423 C-15.18528758 5.89676279 -15.18528758 5.89676279 -11.94035339 2.11242676 C-7.8817873 -0.09095324 -4.5514023 -0.04376427 0 0 Z " fill="#243B80" transform="translate(45.002685546875,-0.517578125)"/>
<path d="M0 0 C1.97895012 -0.01441132 1.97895012 -0.01441132 3.99787903 -0.02911377 C5.44869819 -0.03396597 6.89951937 -0.03824376 8.3503418 -0.04199219 C9.84091696 -0.04774838 11.33149211 -0.05350605 12.82206726 -0.05926514 C15.95690251 -0.06978596 19.09171208 -0.07561937 22.2265625 -0.07910156 C26.20942088 -0.08454331 30.19192989 -0.1084725 34.17467976 -0.13707352 C37.26084816 -0.15588021 40.34693615 -0.16091529 43.43315697 -0.16243744 C44.89891628 -0.16543166 46.36467531 -0.17334839 47.83037758 -0.18662262 C62.06126722 -0.3061454 76.41728564 1.06457837 87.61206055 10.79003906 C96.42039699 20.28102158 97.29172713 31.63539926 96.87329102 43.94677734 C95.90831383 59.63197995 89.4501075 74.90149985 78.17456055 85.84863281 C62.84437439 98.92035404 43.93059644 99.51323067 24.73852539 99.69555664 C23.61655762 99.71513428 22.49458984 99.73471191 21.33862305 99.75488281 C20.33138184 99.76197266 19.32414063 99.7690625 18.28637695 99.77636719 C15.26461908 100.2324379 14.62021864 100.82396075 12.73706055 103.16113281 C12.0754705 105.11806382 12.0754705 105.11806382 11.81738281 107.30957031 C11.69037491 108.14053223 11.563367 108.97149414 11.43251038 109.82763672 C11.30742599 110.72144043 11.18234161 111.61524414 11.0534668 112.53613281 C10.76266242 114.42679032 10.47164012 116.31741431 10.18041992 118.20800781 C9.73637037 121.18965911 9.29797787 124.17203113 8.86474609 127.15527344 C8.44210925 130.03462054 7.99880198 132.91022271 7.5534668 135.78613281 C7.36887657 137.12683838 7.36887657 137.12683838 7.18055725 138.49462891 C6.23187919 144.55113589 6.23187919 144.55113589 4.06518555 147.22216797 C0.84758239 148.51987159 -1.86115788 148.55024663 -5.3293457 148.55957031 C-6.00464828 148.56244049 -6.67995087 148.56531067 -7.37571716 148.56826782 C-8.79866376 148.57030353 -10.22163865 148.56480813 -11.64453125 148.55224609 C-13.82200564 148.53615818 -15.99763126 148.55212209 -18.17504883 148.57128906 C-19.55981854 148.56930703 -20.94458711 148.56546418 -22.3293457 148.55957031 C-23.58690674 148.55618652 -24.84446777 148.55280273 -26.14013672 148.54931641 C-29.26293945 148.16113281 -29.26293945 148.16113281 -30.99230957 147.07078552 C-32.99934424 144.05437669 -32.21479015 141.75591188 -31.71582031 138.21850586 C-31.61552741 137.48139972 -31.51523451 136.74429358 -31.41190243 135.98485088 C-31.04883927 133.37369969 -30.65718958 130.76775248 -30.26293945 128.16113281 C-30.04464918 126.67815893 -30.04464918 126.67815893 -29.82194901 125.16522598 C-28.59768052 116.85095942 -27.31207745 108.54662821 -26.0168457 100.24316406 C-25.81067401 98.91806302 -25.60457358 97.59295089 -25.3985424 96.26782799 C-24.43242648 90.05559541 -23.46374788 83.84377075 -22.49126297 77.63253194 C-21.37478966 70.50147774 -20.26711559 63.36912805 -19.16681343 56.23556119 C-18.31013959 50.68500937 -17.44574004 45.13569504 -16.57549042 39.58725566 C-16.05804511 36.28708374 -15.54481772 32.98639851 -15.03772163 29.68461037 C-14.47323777 26.01483225 -13.89615063 22.34724789 -13.31591797 18.67993164 C-13.15218185 17.5967717 -12.98844574 16.51361176 -12.81974792 15.39762878 C-11.98173075 10.1865418 -11.15717302 5.69110539 -8.26293945 1.16113281 C-5.46184868 -0.23941257 -3.1336298 0.01837612 0 0 Z M24.10644531 31.25268555 C22.09410302 34.05719254 21.87377028 36.69755598 21.3503418 40.09472656 C21.19023872 41.10624535 21.19023872 41.10624535 21.02690125 42.13819885 C20.80372559 43.56203342 20.58639093 44.98679417 20.37451172 46.41235352 C20.05097658 48.58910573 19.71113994 50.76279667 19.36791992 52.93652344 C18.15712288 60.51211689 18.15712288 60.51211689 17.73706055 68.16113281 C21.07022332 68.24925195 24.40308102 68.30189478 27.73706055 68.34863281 C28.67163086 68.37376953 29.60620117 68.39890625 30.5690918 68.42480469 C37.88364784 68.5015308 43.11489434 67.30150375 49.48706055 63.53613281 C54.4932746 58.25179575 56.00365244 52.67406343 56.29956055 45.47363281 C56.1031452 40.17503417 56.1031452 40.17503417 53.79956055 35.53613281 C47.40625183 30.57805667 41.25493882 29.89766165 33.36206055 29.78613281 C32.65976318 29.77211426 31.95746582 29.7580957 31.23388672 29.74365234 C27.46752482 29.74953988 27.46752482 29.74953988 24.10644531 31.25268555 Z " fill="#169BD7" transform="translate(685.262939453125,51.8388671875)"/>
<path d="M0 0 C1.97883682 -0.01418472 1.97883682 -0.01418472 3.99765015 -0.02865601 C5.44326067 -0.02328078 6.88886848 -0.01712647 8.33447266 -0.01025391 C9.82362002 -0.0122766 11.31276641 -0.01518967 12.8019104 -0.01895142 C15.93086124 -0.02337928 19.05955554 -0.01693827 22.18847656 -0.00292969 C26.16351915 0.01401457 30.13794739 0.00441922 34.11296654 -0.01364708 C37.19487955 -0.02460017 40.27665235 -0.02098397 43.3585701 -0.0132637 C44.82151998 -0.01128555 46.2844833 -0.01363542 47.74741745 -0.02070236 C61.366696 -0.07197856 76.16930133 0.98889749 86.87744141 10.36083984 C94.60528475 18.43024533 97.3492875 27.02952328 97.12353516 38.07568359 C97.1114502 39.03394043 97.09936523 39.99219727 97.08691406 40.97949219 C96.56277859 59.92778364 89.40908214 75.14620481 75.76025391 88.16552734 C61.95917563 99.77971099 41.86199823 99.70595249 24.85009766 99.77880859 C23.70025391 99.80201172 22.55041016 99.82521484 21.36572266 99.84912109 C19.81667236 99.86144775 19.81667236 99.86144775 18.23632812 99.87402344 C15.58332044 100.17520048 15.58332044 100.17520048 13.8605957 101.88671875 C12.10252198 105.44172633 11.62148187 109.06501197 11.08837891 112.95068359 C10.96419083 113.77898682 10.84000275 114.60729004 10.71205139 115.46069336 C10.31731581 118.10169753 9.93803773 120.74459436 9.56103516 123.38818359 C9.17878468 126.03146127 8.79310286 128.67409057 8.39930725 131.31567383 C8.15506293 132.95736934 7.91766654 134.60010199 7.68797302 136.24389648 C6.58773385 143.70159214 6.58773385 143.70159214 4.62353516 146.38818359 C1.27173611 148.80480822 -1.96898577 148.64605856 -6.00537109 148.65380859 C-7.28734375 148.65638672 -8.56931641 148.65896484 -9.89013672 148.66162109 C-10.88678345 148.65533691 -10.88678345 148.65533691 -11.90356445 148.64892578 C-13.93584929 148.63820004 -15.96725388 148.64884732 -17.99951172 148.66162109 C-19.28019531 148.65904297 -20.56087891 148.65646484 -21.88037109 148.65380859 C-23.05414307 148.65155273 -24.22791504 148.64929688 -25.43725586 148.64697266 C-28.37646484 148.38818359 -28.37646484 148.38818359 -31.37646484 146.38818359 C-32.71315454 139.11144605 -30.74175696 130.9926886 -29.57226562 123.79760742 C-29.3804068 122.57844131 -29.18854797 121.35927521 -28.99087524 120.10316467 C-28.46754021 116.78837916 -27.93737057 113.47483432 -27.40374613 110.16169953 C-26.84439736 106.67978883 -26.29323363 103.19658155 -25.74093628 99.71354675 C-24.81307335 93.86994142 -23.87918477 88.02732455 -22.94140625 82.18530273 C-21.85947072 75.44490824 -20.78602638 68.70320495 -19.71734631 61.960697 C-18.6856843 55.45242184 -17.64907245 48.9449454 -16.60985947 42.43787193 C-16.16910319 39.67791397 -15.72986891 36.91772028 -15.29184341 34.15732765 C-14.67953337 30.30091164 -14.05988604 26.44569408 -13.43945312 22.59057617 C-13.25962891 21.4532605 -13.07980469 20.31594482 -12.89453125 19.14416504 C-10.66746905 5.40209105 -10.66746905 5.40209105 -8.1499939 1.47494507 C-5.4434593 -0.18353215 -3.15348066 0.00647655 0 0 Z M23.98413086 31.92553711 C22.15647461 35.23355228 21.71628173 38.52366699 21.23681641 42.21630859 C21.13008102 42.96531433 21.02334564 43.71432007 20.91337585 44.48602295 C20.5764405 46.86867166 20.25603548 49.25320745 19.93603516 51.63818359 C19.70990989 53.25812754 19.48270835 54.87792165 19.25439453 56.49755859 C18.69829057 60.45947255 18.15699609 64.42316 17.62353516 68.38818359 C21.10240987 68.50585075 24.58076286 68.57591674 28.06103516 68.63818359 C29.52186523 68.68845703 29.52186523 68.68845703 31.01220703 68.73974609 C39.17180427 68.84890459 45.38533001 67.34480568 51.49853516 61.76318359 C55.38554004 55.58970526 57.46946552 48.71958011 56.62353516 41.38818359 C55.28375532 37.36884409 53.81729568 35.23715511 50.24853516 33.07568359 C44.68966225 30.48793241 39.57751967 30.15872983 33.49853516 30.07568359 C32.78310547 30.04667969 32.06767578 30.01767578 31.33056641 29.98779297 C27.28555807 29.87401338 27.28555807 29.87401338 23.98413086 31.92553711 Z " fill="#243A7F" transform="translate(307.37646484375,51.61181640625)"/>
<path d="M0 0 C9.21372009 4.51284249 14.62737597 11.35356998 18 21 C23.09332205 38.55356136 18.26983895 61.16656179 10 77 C7.84397072 80.48434157 5.52750336 83.77636224 3 87 C2.2265625 87.99128906 1.453125 88.98257813 0.65625 90.00390625 C-9.88333784 102.51469905 -27.27621312 108.1969235 -43 110 C-49.2766844 110.47881838 -55.56385646 110.69751142 -61.85620117 110.84228516 C-64.00714475 111.00052562 -65.9282274 111.41410941 -68 112 C-70.16763307 119.46463751 -71.54838285 126.94739638 -72.71875 134.62109375 C-72.86441406 135.57480865 -73.01007813 136.52852356 -73.16015625 137.51113892 C-73.76441888 141.50058916 -74.36086741 145.49111011 -74.94775391 149.4831543 C-75.38279828 152.4264791 -75.83118806 155.36753341 -76.28125 158.30859375 C-76.40947144 159.20758896 -76.53769287 160.10658417 -76.6697998 161.03282166 C-77.37874384 165.61521946 -78.06782784 169.25278184 -81 173 C-84.11834647 175.07889765 -84.8713919 175.25816789 -88.42382812 175.30639648 C-89.31485229 175.32238388 -90.20587646 175.33837128 -91.12390137 175.35484314 C-92.08332642 175.36020584 -93.04275146 175.36556854 -94.03125 175.37109375 C-95.51244324 175.38463646 -95.51244324 175.38463646 -97.02355957 175.39845276 C-99.11154138 175.41296123 -101.19956871 175.42184347 -103.28759766 175.42553711 C-106.48807795 175.4374556 -109.68664423 175.48665442 -112.88671875 175.53710938 C-114.91405307 175.54657083 -116.94139925 175.55380719 -118.96875 175.55859375 C-120.40788757 175.58789223 -120.40788757 175.58789223 -121.87609863 175.61778259 C-124.3493554 175.60091236 -126.58548469 175.53469424 -129 175 C-131.42118598 172.47769017 -131.95536464 171.09069943 -132.09692383 167.6315918 C-131.96825928 166.82890869 -131.83959473 166.02622559 -131.70703125 165.19921875 C-131.57103516 164.30396484 -131.43503906 163.40871094 -131.29492188 162.48632812 C-131.13572266 161.56271484 -130.97652344 160.63910156 -130.8125 159.6875 C-130.60270508 158.31948242 -130.60270508 158.31948242 -130.38867188 156.92382812 C-129.77906383 153.07584973 -129.0915216 149.34173258 -128.08251953 145.57421875 C-126.66747072 139.9996964 -125.8831667 134.32187376 -125.02827644 128.63964272 C-124.71679245 126.57440232 -124.39935692 124.51015618 -124.08018494 122.4460907 C-123.17412936 116.58349778 -122.27416711 110.72002115 -121.38891602 104.85424805 C-120.8447604 101.25147407 -120.2900364 97.65046013 -119.72857475 94.05034447 C-119.5176908 92.68466994 -119.31078334 91.31837496 -119.10801888 89.95147133 C-118.8242577 88.04076498 -118.52582492 86.13225512 -118.22680664 84.22387695 C-118.06185196 83.13992142 -117.89689728 82.05596588 -117.72694397 80.93916321 C-116.79054666 77.15314305 -115.44432739 74.0833478 -112.27587891 71.70678711 C-109.05790985 70.70742856 -105.92322262 70.70112953 -102.5859375 70.69140625 C-101.09585871 70.66867835 -99.60578724 70.64546691 -98.11572266 70.62182617 C-97.3406134 70.61267181 -96.56550415 70.60351746 -95.76690674 70.59408569 C-68.27231578 70.23101313 -41.18898252 67.62444619 -20.87890625 46.828125 C-9.65772882 33.79143544 -4.57824828 17.51499205 -1 1 C-0.67 0.67 -0.34 0.34 0 0 Z " fill="#179AD6" transform="translate(179,59)"/>
<path d="M0 0 C1.77734375 1.66015625 1.77734375 1.66015625 3 3 C3.474375 2.030625 3.94875 1.06125 4.4375 0.0625 C6 -3 6 -3 7 -4 C11.39998945 -4.21832989 15.80534812 -4.18579146 20.21020508 -4.18530273 C22.42483782 -4.18748751 24.63897123 -4.20563531 26.85351562 -4.22460938 C28.25520662 -4.22754356 29.6569 -4.22952819 31.05859375 -4.23046875 C32.34048584 -4.23457764 33.62237793 -4.23868652 34.94311523 -4.24291992 C38 -4 38 -4 40 -2 C40.30895511 7.74569356 37.87515015 17.97183616 36.34765625 27.5859375 C36.0846027 29.25831531 35.82178457 30.93073017 35.55918884 32.60317993 C35.01149138 36.08471 34.46060936 39.56571714 33.9074707 43.04638672 C33.20050081 47.49705801 32.50217632 51.94903668 31.80626774 56.4014492 C31.26687619 59.84560944 30.72265048 63.28899261 30.17700005 66.73216629 C29.91750661 68.37370015 29.65956711 70.01548048 29.40324593 71.65751266 C29.04469549 73.95006367 28.67956164 76.24147407 28.31274414 78.53271484 C28.10702286 79.83332855 27.90130157 81.13394226 27.68934631 82.47396851 C26.0446438 90.88668177 26.0446438 90.88668177 23.26196289 93.85229492 C20.30891538 95.35065179 18.11508047 95.3723147 14.80859375 95.36328125 C13.61685547 95.36263672 12.42511719 95.36199219 11.19726562 95.36132812 C9.95654297 95.34521484 8.71582031 95.32910156 7.4375 95.3125 C6.19291016 95.31572266 4.94832031 95.31894531 3.66601562 95.32226562 C-5.59937304 95.26708464 -5.59937304 95.26708464 -9 93 C-9.6875 89.375 -9.6875 89.375 -10 86 C-10.64324219 86.45890625 -11.28648437 86.9178125 -11.94921875 87.390625 C-25.5168055 96.60342285 -39.71568732 99.27298093 -55.7578125 96.3046875 C-62.51458106 94.43912959 -67.90382004 91.82734478 -73 87 C-73.54140625 86.49855469 -74.0828125 85.99710937 -74.640625 85.48046875 C-84.38994145 75.36186001 -85.3846157 62.28107642 -85.2109375 49.0625 C-84.70731077 32.20033087 -76.35720615 17.83385207 -64.375 6.3125 C-47.11249607 -8.11280032 -19.45298393 -12.43957416 0 0 Z M-45 33 C-49.026275 39.66088239 -51.31043691 47.25850948 -49.5390625 55.01953125 C-47.90927633 60.03352046 -45.3992189 63.99051256 -41 67 C-33.73465154 69.92226221 -26.23191735 70.33133285 -18.734375 67.97265625 C-10.55295221 64.26223712 -5.19931293 59.50571242 -1.84375 51.10546875 C0.13767964 44.45230629 0.74092366 38.49740866 -2 32 C-5.43092864 26.32688702 -9.38756319 23.06798528 -15.81640625 21.3984375 C-27.89067187 19.19526202 -37.19368274 23.93782182 -45 33 Z " fill="#243A7F" transform="translate(481,105)"/>
<path d="M0 0 C1.14024538 1.08841605 2.27121146 2.187129 3.375 3.3125 C3.66375 2.178125 3.9525 1.04375 4.25 -0.125 C4.806875 -1.8884375 4.806875 -1.8884375 5.375 -3.6875 C9.78773039 -5.89386519 15.75448306 -4.9145958 20.66064453 -4.92773438 C22.86659119 -4.93746292 25.07161493 -4.96849662 27.27734375 -5 C28.67447362 -5.0065279 30.07161017 -5.01177921 31.46875 -5.015625 C32.74427734 -5.0249707 34.01980469 -5.03431641 35.33398438 -5.04394531 C36.33751953 -4.92631836 37.34105469 -4.80869141 38.375 -4.6875 C41.13234033 -0.5514895 40.074613 2.60042252 39.34375 7.2734375 C39.13413635 8.7016835 39.13413635 8.7016835 38.92028809 10.15878296 C38.418305 13.5454492 37.89669787 16.92881646 37.375 20.3125 C37.17379037 21.64156272 36.97312513 22.97070795 36.77294922 24.29992676 C35.53699601 32.50419054 34.27393837 40.70382319 32.98162842 48.89940262 C32.3595098 52.8449773 31.74215779 56.79116084 31.13623047 60.73925781 C30.53996991 64.62418004 29.93250525 68.50719065 29.31681824 72.38908005 C29.08647176 73.85326863 28.86002173 75.318076 28.63764954 76.78349686 C28.32846775 78.81538248 28.00489426 80.84447795 27.67773438 82.87353516 C27.49803101 84.02407379 27.31832764 85.17461243 27.13317871 86.36001587 C26.34864252 89.41514074 25.55636363 91.05781357 23.375 93.3125 C18.07239552 95.08003483 12.4249539 94.5820437 6.875 94.625 C5.00134766 94.66850586 5.00134766 94.66850586 3.08984375 94.71289062 C1.89488281 94.72126953 0.69992187 94.72964844 -0.53125 94.73828125 C-2.17577148 94.76015503 -2.17577148 94.76015503 -3.85351562 94.7824707 C-6.625 94.3125 -6.625 94.3125 -8.52539062 92.48901367 C-10.04641705 89.47836744 -9.4244544 87.51031761 -8.625 84.3125 C-9.68074219 85.10914063 -9.68074219 85.10914063 -10.7578125 85.921875 C-23.21204917 94.83169445 -36.40399559 98.02412839 -51.625 96.3125 C-63.24276157 94.12186275 -71.74476355 88.90375499 -78.625 79.3125 C-86.06956477 68.13303494 -86.68699678 54.0772267 -84.625 41.25 C-81.13594612 25.01122589 -72.38725279 11.75558598 -59.015625 1.84375 C-43.06997417 -8.36980413 -15.62538901 -13.47485637 0 0 Z M-42.625 29.3125 C-48.5399413 37.46970663 -50.59999208 44.25615307 -49.625 54.3125 C-48.05117339 59.94414461 -45.13570572 63.23085593 -40.30859375 66.40234375 C-34.26332979 69.67043308 -26.3644527 69.13246379 -19.828125 67.69921875 C-12.53317821 65.12786328 -7.16108309 60.63243815 -3.2421875 53.95703125 C-0.19216061 47.24910499 0.84186346 40.15809391 -1.3203125 33.015625 C-3.48310346 28.1811511 -6.23718158 25.23771228 -10.625 22.3125 C-21.86899845 18.01933695 -34.21007833 20.64531087 -42.625 29.3125 Z " fill="#169BD7" transform="translate(858.625,105.6875)"/>
<path d="M0 0 C4.48398784 -0.09903473 8.96739292 -0.17154483 13.45214844 -0.21972656 C14.97700085 -0.23981599 16.50177648 -0.26709316 18.02636719 -0.30175781 C20.22089598 -0.35039796 22.41440469 -0.37299396 24.609375 -0.390625 C25.92905273 -0.41157227 27.24873047 -0.43251953 28.60839844 -0.45410156 C32 0 32 0 34.24829102 1.37548828 C36.93939584 5.40745718 38.08226699 9.75184953 39.41796875 14.3828125 C39.72068192 15.39342743 40.02339508 16.40404236 40.33528137 17.44528198 C41.29809798 20.66840733 42.24323994 23.89639485 43.1875 27.125 C44.14624252 30.35952607 45.1085164 33.59298108 46.07185364 36.82614136 C46.66966822 38.83724876 47.2640738 40.8493732 47.8547821 42.86257935 C48.12208633 43.77047211 48.38939056 44.67836487 48.66479492 45.61376953 C49.01642952 46.81478806 49.01642952 46.81478806 49.37516785 48.04006958 C49.95986901 50.04841333 49.95986901 50.04841333 51 52 C57.1445329 43.39329612 63.22016597 34.75294145 69.0625 25.9375 C73.05522712 19.91817134 77.05975063 13.90818742 81.125 7.9375 C81.81734741 6.90967407 81.81734741 6.90967407 82.52368164 5.86108398 C85.76849307 1.11575346 85.76849307 1.11575346 88 0 C92.56828204 -0.21182418 97.14024478 -0.18579675 101.71289062 -0.18530273 C103.99107477 -0.18749143 106.26877643 -0.20565804 108.546875 -0.22460938 C109.98958167 -0.22754293 111.43229065 -0.22952798 112.875 -0.23046875 C114.19242188 -0.23457764 115.50984375 -0.23868652 116.8671875 -0.24291992 C120 0 120 0 122 2 C122.27031016 8.3522887 119.16491474 11.92690461 115.4140625 16.82421875 C112.82603151 20.22886146 110.40466523 23.71516884 108 27.25 C103.36807319 34.02437887 98.69147751 40.76673861 94 47.5 C89.48138054 53.98735627 84.97023607 60.47919693 80.5 67 C75.3410023 74.5255104 70.12647295 82.01199851 64.91113281 89.49853516 C61.00380019 95.11032772 57.11457129 100.73369634 53.25 106.375 C51.50274497 108.91856453 49.75224281 111.45986929 48 114 C47.47857422 114.75667969 46.95714844 115.51335937 46.41992188 116.29296875 C44.78604362 118.65794484 43.14410493 121.01712504 41.5 123.375 C40.99500977 124.1076709 40.49001953 124.8403418 39.96972656 125.59521484 C39.4950293 126.27277832 39.02033203 126.9503418 38.53125 127.6484375 C38.11423828 128.24833496 37.69722656 128.84823242 37.26757812 129.46630859 C36 131 36 131 33 133 C29.84545898 133.25878906 29.84545898 133.25878906 25.99609375 133.265625 C24.97745995 133.26849518 24.97745995 133.26849518 23.93824768 133.27142334 C22.50513335 133.27278247 21.07200659 133.26910496 19.63891602 133.26074219 C17.44194015 133.25002167 15.24577886 133.26065453 13.04882812 133.2734375 C11.65624819 133.27211618 10.26366877 133.26955436 8.87109375 133.265625 C7.60193115 133.26336914 6.33276855 133.26111328 5.02514648 133.25878906 C2 133 2 133 0 131 C-0.77881421 126.81073324 0.09478701 124.46747961 2.421875 121.07421875 C3.51824358 119.60220196 4.62848565 118.14044978 5.75 116.6875 C6.93515267 115.09003426 8.12004188 113.49237304 9.3046875 111.89453125 C11.13068798 109.46742802 12.96425569 107.04672994 14.80957031 104.63427734 C16.51670886 102.39454565 18.19664102 100.13633328 19.875 97.875 C20.40448242 97.20170654 20.93396484 96.52841309 21.47949219 95.8347168 C21.95805664 95.18543213 22.43662109 94.53614746 22.9296875 93.8671875 C23.35491699 93.31144043 23.78014648 92.75569336 24.21826172 92.18310547 C26.73894114 85.14378149 22.28947503 76.30033117 19.9921875 69.671875 C19.58847931 68.48764954 19.18477112 67.30342407 18.76882935 66.08331299 C17.6953211 62.93924056 16.61514485 59.79762513 15.53167725 56.65698242 C14.45528818 53.53116218 13.38837916 50.40210933 12.3203125 47.2734375 C11.4818824 44.82287849 10.64334188 42.37235726 9.8046875 39.921875 C9.39635681 38.72574585 8.98802612 37.5296167 8.56732178 36.29724121 C6.69119693 30.8246222 4.78381711 25.37163343 2.75097656 19.95507812 C2.4122049 19.0386554 2.07343323 18.12223267 1.72439575 17.17803955 C1.10218439 15.50441612 0.46532394 13.83612878 -0.18948364 12.17498779 C-1.6116708 8.32456672 -2.13490462 6.57638893 -1.17236328 2.46386719 C-0.7854834 1.65079102 -0.39860352 0.83771484 0 0 Z " fill="#243A7F" transform="translate(534,101)"/>
<path d="M0 0 C0.99367836 -0.00525696 0.99367836 -0.00525696 2.00743103 -0.01062012 C4.19589765 -0.01941397 6.38403986 -0.01359065 8.57250977 -0.00683594 C10.10506756 -0.0081847 11.63762494 -0.010127 13.17018127 -0.01263428 C16.38725852 -0.01558357 19.60422474 -0.01129954 22.82128906 -0.00195312 C26.90940335 0.00935479 30.99725248 0.00293629 35.08535671 -0.00909805 C38.25559916 -0.01639635 41.42578098 -0.01399112 44.59602547 -0.00884247 C46.10084122 -0.00752334 47.60566277 -0.00909156 49.11047173 -0.01380157 C63.1029704 -0.04794397 77.68960993 0.6108548 90.32641602 7.25878906 C89.81860775 26.46317436 80.54506143 44.42910632 67.53344727 58.14941406 C58.31848889 66.87316997 46.57433162 72.41107957 34.32641602 75.25878906 C33.14305664 75.54496094 31.95969727 75.83113281 30.74047852 76.12597656 C18.43621146 78.75319494 5.9159486 78.71029169 -6.61352539 78.79272461 C-7.73638443 78.80791389 -7.73638443 78.80791389 -8.88192749 78.82341003 C-10.29362099 78.84225328 -11.70553616 78.84955058 -13.11734009 78.8429718 C-17.67277348 78.91559238 -20.75567883 79.97018683 -24.67358398 82.25878906 C-22.64458249 67.05664911 -20.4920464 51.87581786 -18.1940918 36.71191406 C-17.842864 34.38181748 -17.49595803 32.0510659 -17.15307617 29.71972656 C-16.64885771 26.29369979 -16.13144802 22.869896 -15.61108398 19.44628906 C-15.38594116 17.89010864 -15.38594116 17.89010864 -15.15625 16.30249023 C-14.36144689 11.17355971 -13.62444598 6.65323822 -10.67358398 2.25878906 C-7.2099824 -0.0755634 -4.10214895 0.00546011 0 0 Z " fill="#212D65" transform="translate(87.673583984375,51.7412109375)"/>
<path d="M0 0 C1.05368774 0.00012085 1.05368774 0.00012085 2.12866211 0.00024414 C4.27087312 -0.00194055 6.41256783 -0.02008824 8.5546875 -0.0390625 C9.91080552 -0.04199671 11.266926 -0.04398132 12.62304688 -0.04492188 C13.86304443 -0.04903076 15.10304199 -0.05313965 16.38061523 -0.05737305 C19.34570312 0.18554688 19.34570312 0.18554688 21.34570312 2.18554688 C21.86783218 9.31026115 20.57925379 16.21616291 19.46557617 23.23925781 C19.16556702 25.1772097 19.16556702 25.1772097 18.85949707 27.15431213 C18.31360435 30.67766889 17.75985445 34.19974613 17.20398688 37.7215414 C16.73975404 40.66632925 16.27896489 43.61165222 15.81802207 46.55695653 C14.73067936 53.50326119 13.63647832 60.44846255 12.53833008 67.39306641 C11.40624119 74.55329872 10.28734265 81.71550786 9.17459267 88.87876868 C8.21721221 95.03821355 7.25093139 101.19621862 6.27766067 107.35317254 C5.69710677 111.0266722 5.12011791 114.70064448 4.55200768 118.376091 C3.91892912 122.46931187 3.26736761 126.55938057 2.61401367 130.64941406 C2.42843399 131.86611282 2.24285431 133.08281158 2.051651 134.33638 C1.87082977 135.44939987 1.69000854 136.56241974 1.50370789 137.70916748 C1.35161204 138.67587749 1.1995162 139.64258751 1.04281139 140.63859177 C0.27026535 143.46116636 -0.65726694 145.0585635 -2.65429688 147.18554688 C-7.81329707 148.90521361 -13.25396332 148.41236948 -18.65429688 148.43554688 C-20.45640625 148.46648437 -20.45640625 148.46648437 -22.29492188 148.49804688 C-23.44476562 148.50320312 -24.59460938 148.50835937 -25.77929688 148.51367188 C-26.83375 148.52301758 -27.88820313 148.53236328 -28.97460938 148.54199219 C-31.65429688 148.18554688 -31.65429688 148.18554688 -33.35583496 147.09718323 C-35.40244541 144.08409914 -34.60999829 141.79824103 -34.109375 138.24291992 C-34.00915291 137.50581378 -33.90893082 136.76870764 -33.80567169 136.00926495 C-33.4423935 133.39799556 -33.04997687 130.79209842 -32.65429688 128.18554688 C-32.50777679 127.19689762 -32.36125671 126.20824837 -32.21029663 125.18964005 C-30.97588469 116.87523164 -29.67808161 108.57114662 -28.37304688 100.26757812 C-28.0603832 98.2707849 -27.74809813 96.2739327 -27.43583441 94.2770769 C-26.4587748 88.02953854 -25.4782755 81.78254683 -24.49560547 75.53588867 C-23.48502755 69.11138277 -22.48071063 62.68591932 -21.47932196 56.25997525 C-20.61418954 50.70995408 -19.74505733 45.16056918 -18.87275934 39.61166972 C-18.35395972 36.31114201 -17.8371481 33.01033669 -17.323349 29.70902443 C-16.75173604 26.040005 -16.17358359 22.37207368 -15.59375 18.7043457 C-15.42641861 17.62118576 -15.25908722 16.53802582 -15.08668518 15.42204285 C-12.63507077 0.04583505 -12.63507077 0.04583505 0 0 Z " fill="#169BD7" transform="translate(935.654296875,51.814453125)"/>
</svg>
