<?xml version="1.0" encoding="UTF-8"?>
<svg version="1.1" xmlns="http://www.w3.org/2000/svg" width="400" height="71">
<path d="M0 0 C2.10474501 -0.00160456 4.2094788 -0.00515275 6.31422043 -0.00918579 C34.5035462 -0.05729536 34.5035462 -0.05729536 47.99662399 1.12338257 C47.99662399 1.78338257 47.99662399 2.44338257 47.99662399 3.12338257 C45.02662399 3.12338257 42.05662399 3.12338257 38.99662399 3.12338257 C38.99662399 15.66338257 38.99662399 28.20338257 38.99662399 41.12338257 C38.00662399 41.12338257 37.01662399 41.12338257 35.99662399 41.12338257 C35.99662399 28.58338257 35.99662399 16.04338257 35.99662399 3.12338257 C30.71662399 3.12338257 25.43662399 3.12338257 19.99662399 3.12338257 C19.99662399 7.74338257 19.99662399 12.36338257 19.99662399 17.12338257 C18.67662399 17.12338257 17.35662399 17.12338257 15.99662399 17.12338257 C15.99662399 16.46338257 15.99662399 15.80338257 15.99662399 15.12338257 C10.38662399 15.12338257 4.77662399 15.12338257 -1.00337601 15.12338257 C-1.33337601 15.78338257 -1.66337601 16.44338257 -2.00337601 17.12338257 C-3.1545712 17.87673824 -4.32386007 18.6026896 -5.50337601 19.31088257 C-8.48398215 21.39853853 -8.95820238 21.9968964 -10.25337601 25.62338257 C-10.30780229 29.23158756 -10.30780229 29.23158756 -7.94087601 31.93588257 C-4.9434448 34.16801219 -2.63998561 35.3152471 0.99662399 36.12338257 C1.65662399 35.79338257 2.31662399 35.46338257 2.99662399 35.12338257 C2.99662399 36.11338257 2.99662399 37.10338257 2.99662399 38.12338257 C3.98662399 38.12338257 4.97662399 38.12338257 5.99662399 38.12338257 C5.89349899 36.90650757 5.79037399 35.68963257 5.68412399 34.43588257 C5.65789975 30.73170803 5.86858126 30.27440733 8.43412399 27.24838257 C9.27974899 26.54713257 10.12537399 25.84588257 10.99662399 25.12338257 C11.32662399 24.46338257 11.65662399 23.80338257 11.99662399 23.12338257 C17.27662399 23.12338257 22.55662399 23.12338257 27.99662399 23.12338257 C28.83263074 32.91660447 28.83263074 32.91660447 26.61381149 36.11947632 C21.87972406 40.22850026 17.35101797 42.4864908 10.99662399 42.12338257 C11.34449108 44.09875002 11.34449108 44.09875002 11.99662399 46.12338257 C12.65662399 46.45338257 13.31662399 46.78338257 13.99662399 47.12338257 C15.62162399 48.49838257 15.62162399 48.49838257 16.99662399 50.12338257 C16.99662399 51.11338257 16.99662399 52.10338257 16.99662399 53.12338257 C15.51162399 53.61838257 15.51162399 53.61838257 13.99662399 54.12338257 C9.99662399 49.37338257 9.99662399 49.37338257 9.99662399 47.12338257 C9.33662399 46.79338257 8.67662399 46.46338257 7.99662399 46.12338257 C6.23042699 44.49848133 5.07560493 43.28134444 3.99662399 41.12338257 C3.15099899 41.18525757 2.30537399 41.24713257 1.43412399 41.31088257 C-3.38614289 41.04795892 -7.12984864 40.08634969 -10.55806351 36.49447632 C-14.35079862 31.19107552 -14.59040371 26.48937192 -14.00337601 20.12338257 C-13.34337601 20.12338257 -12.68337601 20.12338257 -12.00337601 20.12338257 C-11.79712601 19.54588257 -11.59087601 18.96838257 -11.37837601 18.37338257 C-9.18045151 14.77677885 -5.86493241 12.72565082 -1.87837601 11.43588257 C-1.25962601 11.33275757 -0.64087601 11.22963257 -0.00337601 11.12338257 C0.59474899 10.93775757 1.19287399 10.75213257 1.80912399 10.56088257 C6.60361828 9.60198371 11.27433322 9.97858481 15.99662399 11.12338257 C16.32662399 8.48338257 16.65662399 5.84338257 16.99662399 3.12338257 C4.12662399 3.12338257 -8.74337601 3.12338257 -22.00337601 3.12338257 C-22.00337601 15.66338257 -22.00337601 28.20338257 -22.00337601 41.12338257 C-23.32337601 41.12338257 -24.64337601 41.12338257 -26.00337601 41.12338257 C-26.00337601 28.58338257 -26.00337601 16.04338257 -26.00337601 3.12338257 C-30.29337601 3.12338257 -34.58337601 3.12338257 -39.00337601 3.12338257 C-39.00337601 15.66338257 -39.00337601 28.20338257 -39.00337601 41.12338257 C-40.32337601 40.79338257 -41.64337601 40.46338257 -43.00337601 40.12338257 C-43.00337601 33.52338257 -43.00337601 26.92338257 -43.00337601 20.12338257 C-47.08712601 20.21619507 -47.08712601 20.21619507 -51.25337601 20.31088257 C-52.53003128 20.32091309 -52.53003128 20.32091309 -53.83247757 20.33114624 C-58.71439359 20.52567475 -58.71439359 20.52567475 -62.42525101 23.67416382 C-62.94603226 24.48240601 -63.46681351 25.29064819 -64.00337601 26.12338257 C-64.66337601 26.12338257 -65.32337601 26.12338257 -66.00337601 26.12338257 C-66.00337601 26.78338257 -66.00337601 27.44338257 -66.00337601 28.12338257 C-69.73775449 29.00205986 -73.17112174 29.21250476 -77.00337601 29.12338257 C-75.85868851 30.54650757 -75.85868851 30.54650757 -74.69087601 31.99838257 C-74.26161819 32.53205444 -73.83236038 33.06572632 -73.39009476 33.61557007 C-71.20708586 35.98920791 -69.49853843 37.06193384 -66.29634476 37.45932007 C-59.87130317 37.5401382 -55.88902751 37.4661839 -51.00337601 33.12338257 C-50.01337601 34.11338257 -49.02337601 35.10338257 -48.00337601 36.12338257 C-50.99582791 40.02658071 -53.85846054 40.96777472 -58.51118851 41.79916382 C-67.14240657 42.92203388 -72.76301276 42.27277885 -80.00337601 37.12338257 C-82.00337601 35.12338257 -82.00337601 35.12338257 -82.75337601 33.12338257 C-84.57031371 30.21628225 -86.78795089 29.96218912 -90.00337601 29.12338257 C-90.00337601 28.13338257 -90.00337601 27.14338257 -90.00337601 26.12338257 C-88.83419632 26.06279663 -87.66501663 26.00221069 -86.46040726 25.93978882 C-84.91221986 25.85534223 -83.36404333 25.77069631 -81.81587601 25.68588257 C-81.04695023 25.64656616 -80.27802444 25.60724976 -79.48579788 25.56674194 C-73.67969935 25.282533 -73.67969935 25.282533 -68.00337601 24.12338257 C-66.7027168 22.1895497 -66.7027168 22.1895497 -66.00337601 20.12338257 C-65.67337601 19.79338257 -65.34337601 19.46338257 -65.00337601 19.12338257 C-64.66419172 17.34338983 -64.40574543 15.54761887 -64.19087601 13.74838257 C-64.06068069 12.77127319 -63.93048538 11.79416382 -63.79634476 10.78744507 C-63.72524382 8.02829766 -63.72524382 8.02829766 -65.74165726 6.33432007 C-69.28367062 4.43790531 -72.56869121 3.99529334 -76.55025101 3.80697632 C-77.39458694 3.76508179 -78.23892288 3.72318726 -79.10884476 3.68002319 C-79.98154007 3.64070679 -80.85423538 3.60139038 -81.75337601 3.56088257 C-82.64154007 3.51769897 -83.52970413 3.47451538 -84.44478226 3.43002319 C-86.63083563 3.32424642 -88.8169969 3.2221571 -91.00337601 3.12338257 C-91.00337601 2.46338257 -91.00337601 1.80338257 -91.00337601 1.12338257 C-60.66871244 0.47072522 -30.34173164 0.01516098 0 0 Z M-52.56587601 3.62338257 C-53.7753389 3.69492554 -53.7753389 3.69492554 -55.00923538 3.76791382 C-57.00729772 3.88614236 -59.00533885 4.00472925 -61.00337601 4.12338257 C-60.85900101 4.81045288 -60.71462601 5.49752319 -60.56587601 6.20541382 C-60.38025101 7.10646851 -60.19462601 8.00752319 -60.00337601 8.93588257 C-59.81775101 9.82920288 -59.63212601 10.72252319 -59.44087601 11.64291382 C-59.00337601 14.12338257 -59.00337601 14.12338257 -59.00337601 17.12338257 C-53.72337601 17.12338257 -48.44337601 17.12338257 -43.00337601 17.12338257 C-43.00337601 12.50338257 -43.00337601 7.88338257 -43.00337601 3.12338257 C-46.18651168 3.12338257 -49.38717351 3.43444764 -52.56587601 3.62338257 Z M-63.00337601 11.12338257 C-63.00337601 12.77338257 -63.00337601 14.42338257 -63.00337601 16.12338257 C-62.67337601 16.12338257 -62.34337601 16.12338257 -62.00337601 16.12338257 C-62.00337601 14.47338257 -62.00337601 12.82338257 -62.00337601 11.12338257 C-62.33337601 11.12338257 -62.66337601 11.12338257 -63.00337601 11.12338257 Z M19.99662399 26.12338257 C15.12493252 27.01794629 15.12493252 27.01794629 11.49662399 30.06088257 C10.76059996 32.30003681 10.76059996 32.30003681 11.99662399 35.12338257 C17.37690731 36.27504134 17.37690731 36.27504134 22.49662399 34.99838257 C24.42800507 32.58415622 24.3225814 31.13848855 23.99662399 28.12338257 C23.00662399 28.61838257 23.00662399 28.61838257 21.99662399 29.12338257 C21.33662399 28.13338257 20.67662399 27.14338257 19.99662399 26.12338257 Z M8.99662399 33.12338257 C8.99662399 34.11338257 8.99662399 35.10338257 8.99662399 36.12338257 C9.65662399 36.12338257 10.31662399 36.12338257 10.99662399 36.12338257 C10.99662399 35.13338257 10.99662399 34.14338257 10.99662399 33.12338257 C10.33662399 33.12338257 9.67662399 33.12338257 8.99662399 33.12338257 Z M13.99662399 36.12338257 C13.66662399 36.78338257 13.33662399 37.44338257 12.99662399 38.12338257 C13.98662399 38.12338257 14.97662399 38.12338257 15.99662399 38.12338257 C15.99662399 37.46338257 15.99662399 36.80338257 15.99662399 36.12338257 C15.33662399 36.12338257 14.67662399 36.12338257 13.99662399 36.12338257 Z " fill="#303030" transform="translate(92.00337600708008,12.876617431640625)"/>
<path d="M0 0 C2.375 0.25 2.375 0.25 5 1 C6.7941758 3.56310828 7 4.83119306 7 8 C7.66 8 8.32 8 9 8 C9.50559908 9.43554025 10.0042749 10.8735202 10.5 12.3125 C10.7784375 13.11300781 11.056875 13.91351563 11.34375 14.73828125 C12 17 12 17 12 20 C12.66 20.33 13.32 20.66 14 21 C15.10546875 22.7421875 15.10546875 22.7421875 16.1875 24.875 C16.55230469 25.57367188 16.91710937 26.27234375 17.29296875 26.9921875 C18 29 18 29 17 32 C17.66 32 18.32 32 19 32 C19.495 34.475 19.495 34.475 20 37 C20.84026396 35.23244474 21.67198722 33.46082737 22.5 31.6875 C22.9640625 30.70136719 23.428125 29.71523438 23.90625 28.69921875 C25.18777472 26.02199874 25.18777472 26.02199874 25 23 C25.66 23 26.32 23 27 23 C27.103125 22.360625 27.20625 21.72125 27.3125 21.0625 C28.23335174 16.96052405 29.3305971 12.86598565 31 9 C31.66 8.67 32.32 8.34 33 8 C33.38133299 6.0085944 33.71325582 4.00720923 34 2 C34.33 1.34 34.66 0.68 35 0 C39.75 0.75 39.75 0.75 42 3 C42 4.32 42 5.64 42 7 C42.66 7.33 43.32 7.66 44 8 C44.625 11.0625 44.625 11.0625 45 14 C45.66 14 46.32 14 47 14 C47.13140381 14.72469482 47.26280762 15.44938965 47.39819336 16.19604492 C47.96903464 18.85572527 48.72007253 21.30202259 49.62890625 23.86328125 C49.94150391 24.74951172 50.25410156 25.63574219 50.57617188 26.54882812 C51.0644043 27.9168457 51.0644043 27.9168457 51.5625 29.3125 C51.89185547 30.24384766 52.22121094 31.17519531 52.56054688 32.13476562 C53.37067821 34.42426723 54.18391683 36.71261458 55 39 C53.68 39 52.36 39 51 39 C50.896875 38.360625 50.79375 37.72125 50.6875 37.0625 C50.460625 36.381875 50.23375 35.70125 50 35 C48.515 34.505 48.515 34.505 47 34 C47 31.66666667 47 29.33333333 47 27 C44.39547729 27.14086602 41.79149803 27.28748464 39.1875 27.4375 C38.08051758 27.49647461 38.08051758 27.49647461 36.95117188 27.55664062 C33.76928658 27.74381035 31.03837622 27.98720793 28 29 C27.04643935 30.96303873 27.04643935 30.96303873 26.4375 33.3125 C25.50457718 36.501304 24.51463808 38.97072383 23 42 C19.7 42 16.4 42 13 42 C11.87155542 37.13358277 11 32.98697997 11 28 C5.06 27.67 -0.88 27.34 -7 27 C-7.33 28.65 -7.66 30.3 -8 32 C-8.89305874 34.39228689 -9.94896026 36.66943362 -11 39 C-12.32 39 -13.64 39 -15 39 C-14.25749403 34.91621717 -13.17076699 30.98060777 -12 27 C-11.34 27 -10.68 27 -10 27 C-9.67 24.36 -9.34 21.72 -9 19 C-8.34 19 -7.68 19 -7 19 C-6.87496094 18.46761719 -6.74992187 17.93523438 -6.62109375 17.38671875 C-5.86786963 14.49225375 -4.98122025 11.65879935 -4.0625 8.8125 C-3.72347656 7.74644531 -3.38445312 6.68039063 -3.03515625 5.58203125 C-2 3 -2 3 0 2 C0 1.34 0 0.68 0 0 Z M1 6 C0.87625 6.9075 0.7525 7.815 0.625 8.75 C-0.1818819 12.9457859 -1.64354904 15.46532356 -4 19 C-4.33 20.98 -4.66 22.96 -5 25 C-0.05 25 4.9 25 10 25 C9.25386143 21.26930717 8.46826597 18.42595393 7 15 C6.34 15 5.68 15 5 15 C4.855625 14.071875 4.71125 13.14375 4.5625 12.1875 C4.07899889 8.99274889 4.07899889 8.99274889 3 6 C2.34 6 1.68 6 1 6 Z M37 6 C35.82905995 8.7899439 34.66309073 11.58178597 33.5 14.375 C33.16613281 15.1690625 32.83226562 15.963125 32.48828125 16.78125 C32.01455078 17.92207031 32.01455078 17.92207031 31.53125 19.0859375 C31.23798828 19.7876709 30.94472656 20.4894043 30.64257812 21.21240234 C29.88724219 22.99708561 29.88724219 22.99708561 30 25 C34.95 25 39.9 25 45 25 C44.14360081 19.86160484 43.13600254 16.70911169 40.9375 12.125 C40.38964844 10.97257812 39.84179688 9.82015625 39.27734375 8.6328125 C38.85582031 7.76398437 38.43429687 6.89515625 38 6 C37.67 6 37.34 6 37 6 Z M14 24 C15 26 15 26 15 26 Z M12 33 C12.99 34.485 12.99 34.485 14 36 C14 35.01 14 34.02 14 33 C13.34 33 12.68 33 12 33 Z " fill="#373737" transform="translate(345,14)"/>
<path d="M0 0 C3.06841977 0.3172434 4.57645139 0.53643873 6.6953125 2.85546875 C7.16710937 3.62503906 7.63890625 4.39460938 8.125 5.1875 C8.87523437 6.40179688 8.87523437 6.40179688 9.640625 7.640625 C14 15.20689655 14 15.20689655 14 18 C13.34 18.33 12.68 18.66 12 19 C12.3609375 19.83144531 12.721875 20.66289063 13.09375 21.51953125 C13.5578125 22.60621094 14.021875 23.69289063 14.5 24.8125 C14.9640625 25.89144531 15.428125 26.97039063 15.90625 28.08203125 C17 31 17 31 17 34 C19.475 33.505 19.475 33.505 22 33 C22.28875 32.13375 22.5775 31.2675 22.875 30.375 C23.24625 29.26125 23.6175 28.1475 24 27 C24.268125 26.113125 24.53625 25.22625 24.8125 24.3125 C27.82358303 15.91316313 31.95295088 7.93910486 36 0 C37.32 0 38.64 0 40 0 C40.495 2.475 40.495 2.475 41 5 C41.66 5 42.32 5 43 5 C43 6.65 43 8.3 43 10 C43.66 10.33 44.32 10.66 45 11 C45.7136591 13.31939207 46.3747292 15.65523449 47 18 C47.37125 18.9075 47.7425 19.815 48.125 20.75 C49 23 49 23 49 26 C49.66 26.33 50.32 26.66 51 27 C54.04948489 31.57422734 55.55027688 34.35966195 55 40 C52.6875 39.4375 52.6875 39.4375 50 38 C47.85884613 34.01302384 47 31.54765452 47 27 C41.72 27 36.44 27 31 27 C30.67 28.32 30.34 29.64 30 31 C29.67 31.66 29.34 32.32 29 33 C28.01 33 27.02 33 26 33 C25.814375 34.7015625 25.814375 34.7015625 25.625 36.4375 C25.41875 37.613125 25.2125 38.78875 25 40 C24.01 40.495 24.01 40.495 23 41 C23 40.34 23 39.68 23 39 C20.36 39 17.72 39 15 39 C14.3291288 37.3767313 13.66342971 35.75132422 13 34.125 C12.62875 33.22007813 12.2575 32.31515625 11.875 31.3828125 C11 29 11 29 11 27 C5.06 27 -0.88 27 -7 27 C-7.309375 28.60875 -7.61875 30.2175 -7.9375 31.875 C-8.875 36.75 -8.875 36.75 -10 39 C-11.65 39 -13.3 39 -15 39 C-13.97883885 33.31643203 -12.41242428 28.37376647 -9.953125 23.15234375 C-8.62938253 20.16307285 -7.80782317 17.1639741 -7 14 C-6.34 14 -5.68 14 -5 14 C-4.87625 12.7625 -4.87625 12.7625 -4.75 11.5 C-3.83552731 7.23246079 -2.07776822 3.80763106 0 0 Z M2 5 C1.814375 6.2065625 1.814375 6.2065625 1.625 7.4375 C1.41875 8.283125 1.2125 9.12875 1 10 C0.01 10.495 0.01 10.495 -1 11 C-1.96039484 13.35442249 -2.81602117 15.6578413 -3.625 18.0625 C-4.40875 20.351875 -5.1925 22.64125 -6 25 C-0.72 25 4.56 25 10 25 C8.824375 21.720625 8.824375 21.720625 7.625 18.375 C6.03228548 13.93216475 4.47595483 9.48304037 3 5 C2.67 5 2.34 5 2 5 Z M37 5 C36.014733 7.22664317 35.03668556 9.45601317 34.0625 11.6875 C33.78470703 12.31333984 33.50691406 12.93917969 33.22070312 13.58398438 C31.72731498 17.02057638 30.43681038 20.26284451 30 24 C31.13701597 25.36532549 31.13701597 25.36532549 34.16015625 25.09765625 C35.44792969 25.08605469 36.73570312 25.07445313 38.0625 25.0625 C39.35285156 25.05347656 40.64320313 25.04445313 41.97265625 25.03515625 C42.97167969 25.02355469 43.97070312 25.01195313 45 25 C44.36378211 22.28617432 43.57750555 19.71512101 42.58984375 17.109375 C42.18862305 16.04589844 42.18862305 16.04589844 41.77929688 14.9609375 C41.50150391 14.23132812 41.22371094 13.50171875 40.9375 12.75 C40.65583984 12.00492188 40.37417969 11.25984375 40.08398438 10.4921875 C39.3913087 8.66070607 38.69592093 6.83025077 38 5 C37.67 5 37.34 5 37 5 Z M7 6 C8 8 8 8 8 8 Z M9 12 C9.33 12.99 9.66 13.98 10 15 C10.33 14.01 10.66 13.02 11 12 C10.34 12 9.68 12 9 12 Z M11 15 C12 17 12 17 12 17 Z M28 27 C28 27.66 28 28.32 28 29 C28.66 29 29.32 29 30 29 C30 28.34 30 27.68 30 27 C29.34 27 28.68 27 28 27 Z " fill="#3D3D3D" transform="translate(233,14)"/>
<path d="M0 0 C3.17625 -0.04125 6.3525 -0.0825 9.625 -0.125 C10.6145166 -0.14320801 11.6040332 -0.16141602 12.62353516 -0.18017578 C17.42601421 -0.21027015 21.60470742 -0.17415999 26 2 C27.86328125 4.0234375 27.86328125 4.0234375 29.3125 6.375 C29.80363281 7.14585938 30.29476563 7.91671875 30.80078125 8.7109375 C33.27445017 13.43266385 33.12261069 18.01574601 33.0625 23.25 C33.05798828 23.99507812 33.05347656 24.74015625 33.04882812 25.5078125 C33.03709246 27.3385764 33.0191585 29.16929873 33 31 C32.01 31.33 31.02 31.66 30 32 C30 32.66 30 33.32 30 34 C29.01 34 28.02 34 27 34 C27 34.66 27 35.32 27 36 C22.32122676 40.20987658 16.57854081 39.33336683 10.6875 39.1875 C7.160625 39.125625 3.63375 39.06375 0 39 C0 26.13 0 13.26 0 0 Z M3 3 C3 13.89 3 24.78 3 36 C17.43560479 37.16584722 17.43560479 37.16584722 23.5 33.8125 C26.21876597 31.26515187 26.21876597 31.26515187 26.4375 28.1875 C26.293125 27.465625 26.14875 26.74375 26 26 C26.66 26 27.32 26 28 26 C28.91692961 23.24921116 29.10886083 21.64051087 29.0625 18.8125 C29.041875 17.554375 29.02125 16.29625 29 15 C28.34 15 27.68 15 27 15 C27.33 14.01 27.66 13.02 28 12 C27.12516085 9.83284443 27.12516085 9.83284443 26 8 C25.34 8 24.68 8 24 8 C23.67 7.34 23.34 6.68 23 6 C16.828093 1.71376061 16.828093 1.71376061 3 3 Z " fill="#232323" transform="translate(294,14)"/>
<path d="M0 0 C0 1.65 0 3.3 0 5 C-1.1446875 4.7525 -1.1446875 4.7525 -2.3125 4.5 C-7.22145849 3.83437851 -12.05435114 3.92079922 -17 4 C-17 4.66 -17 5.32 -17 6 C-17 6.99 -17 7.98 -17 9 C-17.66 9 -18.32 9 -19 9 C-18.34 10.32 -17.68 11.64 -17 13 C-16.34 13 -15.68 13 -15 13 C-15 13.66 -15 14.32 -15 15 C-14.09507812 15.16435547 -14.09507812 15.16435547 -13.171875 15.33203125 C-4.90100407 16.97286532 -4.90100407 16.97286532 -2 20 C-2 20.66 -2 21.32 -2 22 C-1.01 21.67 -0.02 21.34 1 21 C0.71743908 22.93884889 0.4236207 24.87605961 0.125 26.8125 C-0.03742188 27.89144531 -0.19984375 28.97039063 -0.3671875 30.08203125 C-1 33 -1 33 -3 36 C-3.66 36 -4.32 36 -5 36 C-5 36.66 -5 37.32 -5 38 C-8.09699032 38.91257023 -10.83998455 39.10624455 -14.0625 39.0625 C-14.91972656 39.05347656 -15.77695313 39.04445312 -16.66015625 39.03515625 C-17.43230469 39.02355469 -18.20445312 39.01195312 -19 39 C-19.99 39 -20.98 39 -22 39 C-23 37 -24 35 -25 33 C-24.67 32.34 -24.34 31.68 -24 31 C-22.68 31.33 -21.36 31.66 -20 32 C-20 32.66 -20 33.32 -20 34 C-19.0925 34 -18.185 34 -17.25 34 C-14.83333333 34 -12.41666667 34 -10 34 C-6.96630266 33.31552961 -6.96630266 33.31552961 -5.75 31.25 C-4.50480236 27.51440708 -5.79052303 24.62843092 -7 21 C-7.99580078 20.83564453 -7.99580078 20.83564453 -9.01171875 20.66796875 C-18.45638351 18.97206544 -18.45638351 18.97206544 -22 16 C-22.8125 14.25 -22.8125 14.25 -23 12 C-23.103125 10.865625 -23.20625 9.73125 -23.3125 8.5625 C-22.94242186 4.34360917 -22.0022655 2.91886923 -19 0 C-13.47719969 -4.14210024 -5.97889081 -1.9929636 0 0 Z M-16 2 C-16 2.33 -16 2.66 -16 3 C-13.03 3 -10.06 3 -7 3 C-7 2.67 -7 2.34 -7 2 C-9.97 2 -12.94 2 -16 2 Z " fill="#4C4C4C" transform="translate(215,15)"/>
<path d="M0 0 C3.06841977 0.3172434 4.57645139 0.53643873 6.6953125 2.85546875 C7.16710937 3.62503906 7.63890625 4.39460938 8.125 5.1875 C8.87523437 6.40179688 8.87523437 6.40179688 9.640625 7.640625 C14 15.20689655 14 15.20689655 14 18 C13.34 18.33 12.68 18.66 12 19 C12.5053125 20.19238281 13.010625 21.38476562 13.53125 22.61328125 C14.18777854 24.17957077 14.84401329 25.74598347 15.5 27.3125 C15.83386719 28.09818359 16.16773438 28.88386719 16.51171875 29.69335938 C16.82753906 30.45068359 17.14335937 31.20800781 17.46875 31.98828125 C17.76201172 32.68477783 18.05527344 33.38127441 18.35742188 34.09887695 C19 36 19 36 19 39 C17.68 39 16.36 39 15 39 C14.3291288 37.3767313 13.66342971 35.75132422 13 34.125 C12.62875 33.22007813 12.2575 32.31515625 11.875 31.3828125 C11 29 11 29 11 27 C5.06 27 -0.88 27 -7 27 C-7.309375 28.60875 -7.61875 30.2175 -7.9375 31.875 C-8.875 36.75 -8.875 36.75 -10 39 C-11.65 39 -13.3 39 -15 39 C-13.97883885 33.31643203 -12.41242428 28.37376647 -9.953125 23.15234375 C-8.62938253 20.16307285 -7.80782317 17.1639741 -7 14 C-6.34 14 -5.68 14 -5 14 C-4.87625 12.7625 -4.87625 12.7625 -4.75 11.5 C-3.83552731 7.23246079 -2.07776822 3.80763106 0 0 Z M2 5 C1.814375 6.2065625 1.814375 6.2065625 1.625 7.4375 C1.41875 8.283125 1.2125 9.12875 1 10 C0.01 10.495 0.01 10.495 -1 11 C-1.96039484 13.35442249 -2.81602117 15.6578413 -3.625 18.0625 C-4.40875 20.351875 -5.1925 22.64125 -6 25 C-0.72 25 4.56 25 10 25 C8.824375 21.720625 8.824375 21.720625 7.625 18.375 C6.03228548 13.93216475 4.47595483 9.48304037 3 5 C2.67 5 2.34 5 2 5 Z M7 6 C8 8 8 8 8 8 Z M9 12 C9.33 12.99 9.66 13.98 10 15 C10.33 14.01 10.66 13.02 11 12 C10.34 12 9.68 12 9 12 Z M11 15 C12 17 12 17 12 17 Z " fill="#363636" transform="translate(233,14)"/>
<path d="M0 0 C4.75 0.75 4.75 0.75 7 3 C7 4.32 7 5.64 7 7 C7.66 7.33 8.32 7.66 9 8 C9.625 11.0625 9.625 11.0625 10 14 C10.66 14 11.32 14 12 14 C12.13140381 14.72469482 12.26280762 15.44938965 12.39819336 16.19604492 C12.96903464 18.85572527 13.72007253 21.30202259 14.62890625 23.86328125 C14.94150391 24.74951172 15.25410156 25.63574219 15.57617188 26.54882812 C15.90166016 27.46083984 16.22714844 28.37285156 16.5625 29.3125 C16.89185547 30.24384766 17.22121094 31.17519531 17.56054688 32.13476562 C18.37067821 34.42426723 19.18391683 36.71261458 20 39 C18.68 39 17.36 39 16 39 C15.896875 38.360625 15.79375 37.72125 15.6875 37.0625 C15.460625 36.381875 15.23375 35.70125 15 35 C13.515 34.505 13.515 34.505 12 34 C12 31.66666667 12 29.33333333 12 27 C9.39547729 27.14086602 6.79149803 27.28748464 4.1875 27.4375 C3.08051758 27.49647461 3.08051758 27.49647461 1.95117188 27.55664062 C-1.23071342 27.74381035 -3.96162378 27.98720793 -7 29 C-7.91039125 31.28697319 -8.45841999 33.58315365 -9.05859375 35.96875 C-10 38 -10 38 -12.09765625 38.78125 C-13.03931641 38.88953125 -13.03931641 38.88953125 -14 39 C-13.3386196 33.84123287 -12.09902827 28.7705188 -10 24 C-9.34 23.67 -8.68 23.34 -8 23 C-7.63678515 21.33958925 -7.31323028 19.67056149 -7 18 C-6.5455424 16.40939841 -6.06448922 14.82624616 -5.5625 13.25 C-5.31628906 12.47140625 -5.07007813 11.6928125 -4.81640625 10.890625 C-4 9 -4 9 -2 8 C-1.61866701 6.0085944 -1.28674418 4.00720923 -1 2 C-0.67 1.34 -0.34 0.68 0 0 Z M2 6 C0.82905995 8.7899439 -0.33690927 11.58178597 -1.5 14.375 C-1.83386719 15.1690625 -2.16773438 15.963125 -2.51171875 16.78125 C-2.98544922 17.92207031 -2.98544922 17.92207031 -3.46875 19.0859375 C-3.76201172 19.7876709 -4.05527344 20.4894043 -4.35742188 21.21240234 C-5.11275781 22.99708561 -5.11275781 22.99708561 -5 25 C-0.05 25 4.9 25 10 25 C9.14360081 19.86160484 8.13600254 16.70911169 5.9375 12.125 C5.38964844 10.97257812 4.84179688 9.82015625 4.27734375 8.6328125 C3.85582031 7.76398437 3.43429687 6.89515625 3 6 C2.67 6 2.34 6 2 6 Z " fill="#2E2E2E" transform="translate(380,14)"/>
<path d="M0 0 C0.99 0 1.98 0 3 0 C3 17.16 3 34.32 3 52 C2.01 52 1.02 52 0 52 C0 34.84 0 17.68 0 0 Z " fill="#262626" transform="translate(166,11)"/>
<path d="M0 0 C1.37562854 1.28965176 2.70766393 2.62689293 4 4 C4 4.66 4 5.32 4 6 C6.64 6 9.28 6 12 6 C12 6.99 12 7.98 12 9 C8.7 9 5.4 9 2 9 C1.34 6.03 0.68 3.06 0 0 Z " fill="#FFFFFF" transform="translate(356,47)"/>
<path d="M0 0 C0 3 0 3 0 3 Z " fill="#FFFFFF" transform="translate(325,45)"/>
<path d="" fill="#FFFFFF" transform="translate(0,0)"/>
<path d="M0 0 C2 1 2 1 2 1 Z " fill="#FFFFFF" transform="translate(106,43)"/>
<path d="" fill="#FFFFFF" transform="translate(0,0)"/>
<path d="" fill="#FFFFFF" transform="translate(0,0)"/>
<path d="" fill="#FFFFFF" transform="translate(0,0)"/>
<path d="" fill="#FFFFFF" transform="translate(0,0)"/>
<path d="" fill="#FFFFFF" transform="translate(0,0)"/>
<path d="" fill="#FFFFFF" transform="translate(0,0)"/>
<path d="" fill="#FFFFFF" transform="translate(0,0)"/>
<path d="" fill="#FFFFFF" transform="translate(0,0)"/>
<path d="" fill="#FFFFFF" transform="translate(0,0)"/>
<path d="" fill="#FFFFFF" transform="translate(0,0)"/>
<path d="" fill="#FFFFFF" transform="translate(0,0)"/>
<path d="" fill="#FFFFFF" transform="translate(0,0)"/>
<path d="" fill="#FFFFFF" transform="translate(0,0)"/>
<path d="" fill="#FFFFFF" transform="translate(0,0)"/>
<path d="" fill="#FFFFFF" transform="translate(0,0)"/>
<path d="" fill="#FFFFFF" transform="translate(0,0)"/>
<path d="" fill="#FFFFFF" transform="translate(0,0)"/>
<path d="" fill="#FFFFFF" transform="translate(0,0)"/>
<path d="" fill="#FFFFFF" transform="translate(0,0)"/>
<path d="" fill="#FFFFFF" transform="translate(0,0)"/>
<path d="" fill="#FFFFFF" transform="translate(0,0)"/>
<path d="" fill="#FFFFFF" transform="translate(0,0)"/>
<path d="" fill="#FFFFFF" transform="translate(0,0)"/>
<path d="" fill="#FFFFFF" transform="translate(0,0)"/>
<path d="" fill="#FFFFFF" transform="translate(0,0)"/>
</svg>
