<?xml version="1.0" encoding="UTF-8"?>
<svg version="1.1" xmlns="http://www.w3.org/2000/svg" width="960" height="386">
<path d="M0 0 C3.42316669 2.99262407 5.50011147 7.28385294 6.24467468 11.7623291 C6.3529522 13.95667714 6.34591848 16.11640473 6.28515625 18.3125 C6.27949646 19.10023804 6.27383667 19.88797607 6.26800537 20.69958496 C6.24583027 23.18579034 6.19567462 25.67048928 6.14453125 28.15625 C6.12444164 29.85414567 6.10619521 31.55206421 6.08984375 33.25 C6.04602815 37.38598639 5.9771373 41.5208639 5.89453125 45.65625 C7.06435547 45.63530273 8.23417969 45.61435547 9.43945312 45.59277344 C13.80781665 45.52000144 18.1761273 45.47431578 22.54492188 45.43652344 C24.43043041 45.41649233 26.31587748 45.38925927 28.20117188 45.35449219 C30.92202987 45.30559728 33.64206181 45.28319618 36.36328125 45.265625 C37.19694214 45.24497986 38.03060303 45.22433472 38.88952637 45.20306396 C44.6901163 45.20087396 49.045263 46.4007959 53.89453125 49.65625 C56.96550453 53.11109494 57.36898757 56.25573609 57.18359375 60.73046875 C56.60655025 64.57482609 54.77361144 66.86224209 51.95703125 69.40625 C48.65290422 71.40875123 45.58613682 71.78185635 41.76855469 71.76977539 C40.96802673 71.76969986 40.16749878 71.76962433 39.3427124 71.76954651 C38.06125336 71.76180458 38.06125336 71.76180458 36.75390625 71.75390625 C35.87172424 71.7524913 34.98954224 71.75107635 34.08062744 71.74961853 C31.2685606 71.74403001 28.45657395 71.73147961 25.64453125 71.71875 C23.73567823 71.71373352 21.82682397 71.70917087 19.91796875 71.70507812 C15.24345878 71.69406434 10.5690086 71.67680758 5.89453125 71.65625 C5.95587408 84.00053384 6.03307515 96.34460856 6.13024616 108.68866539 C6.17487941 114.42117265 6.21415111 120.15360998 6.2409668 125.88623047 C6.26706996 131.42363459 6.30752205 136.96076863 6.35771751 142.49800491 C6.37433884 144.60534925 6.38588248 146.71274026 6.39214516 148.82014084 C6.40183781 151.78321059 6.42995865 154.74559672 6.4621582 157.70849609 C6.46000557 159.0010733 6.46000557 159.0010733 6.45780945 160.31976318 C6.58467152 168.63182743 8.10991949 177.00211632 14.04296875 183.18359375 C19.93680017 187.87130355 26.7469378 189.35318193 34.16015625 189.0390625 C42.01504489 187.93937809 48.57921433 184.50820949 53.89453125 178.65625 C54.53390625 178.00398437 55.17328125 177.35171875 55.83203125 176.6796875 C58.39923869 173.45961265 60.12156207 170.81279218 59.67333984 166.55517578 C58.83360326 162.57760943 57.61830857 158.76614522 56.296875 154.92578125 C49.15351487 134.04039651 53.44884528 106.74880928 62.97265625 87.21484375 C65.72525766 81.93431425 69.13140023 77.25815119 72.89453125 72.65625 C73.67183594 71.61791016 73.67183594 71.61791016 74.46484375 70.55859375 C87.13694027 54.54335619 108.30634566 46.29341811 128.01953125 43.96875 C147.65662999 42.46062082 171.10754883 44.45614399 187.89453125 55.65625 C191.78954614 60.0607677 193.21383225 62.58776498 193.10546875 68.55859375 C192.77460281 71.84887172 191.77802501 73.95657561 189.89453125 76.65625 C185.80553227 79.64820047 181.8835244 80.27945677 176.93359375 80.15234375 C171.59095118 79.28021572 166.71689671 77.10702415 161.703125 75.125 C148.51686179 69.94962503 132.20465893 69.65793201 118.89453125 74.65625 C104.2559528 81.26407702 95.65598672 90.95558509 89.82543945 105.90917969 C83.57971039 123.03810779 84.24085089 143.62901039 91.6796875 160.359375 C98.29975879 172.87577989 107.66077974 181.51957015 120.89453125 186.65625 C136.84117884 191.53036951 152.98698489 190.92519951 168.22265625 184.18359375 C194.1837192 170.10470961 202.97335466 139.62839075 210.83203125 113.1640625 C226.05017838 62.0558914 226.05017838 62.0558914 248.22265625 49.90234375 C255.83500591 46.35213974 263.48821633 44.01231859 271.89453125 43.65625 C272.56355469 43.61628906 273.23257812 43.57632813 273.921875 43.53515625 C287.92917075 43.09172231 304.7592008 45.42600018 315.89453125 54.65625 C319.35622609 58.43773189 319.34403489 61.29429676 319.18359375 66.24609375 C318.80621794 69.39259209 317.98183926 71.27075513 315.89453125 73.65625 C311.29038115 76.39728004 307.12053554 76.32675621 301.89453125 75.65625 C299.21603915 74.89565674 296.59430432 74.09959734 293.95703125 73.21875 C284.67882526 70.12276486 275.36619234 67.91549669 265.89453125 71.65625 C262.6652659 73.56193234 260.41726436 75.75334736 258.51953125 79.03125 C256.95652798 85.59586373 257.94043434 90.29492233 261.125 96.12890625 C267.56113405 105.32135378 279.11664382 111.30688926 288.27734375 117.5 C293.96685963 121.3628206 299.45674076 125.44576972 304.89453125 129.65625 C305.48105469 130.07648438 306.06757813 130.49671875 306.671875 130.9296875 C315.90665367 137.83739993 322.13803931 149.36916289 323.89453125 160.65625 C324.85314419 175.74261764 323.16196368 188.80609084 312.89453125 200.65625 C302.19273289 211.95480291 288.33799037 216.9787177 272.953125 217.81640625 C256.86870589 218.23727273 236.36351635 215.70830498 223.89453125 204.65625 C221.49439024 201.62998525 221.53437597 198.42798603 221.640625 194.6171875 C222.13112609 190.82900987 223.91339825 188.52531393 226.70703125 186.05078125 C230.8384897 183.41697649 235.17656624 184.0458839 239.89453125 184.65625 C244.10412497 185.68647639 248.19641291 187.05938186 252.29296875 188.46484375 C262.29543228 191.77368472 273.29863735 192.36696155 282.89453125 187.65625 C283.80203125 187.223125 284.70953125 186.79 285.64453125 186.34375 C289.38644456 183.53731502 291.42979125 180.05047 292.89453125 175.65625 C293.76149268 167.40773121 293.13459052 161.21823003 287.89453125 154.65625 C281.25662962 148.66863614 273.76638359 143.68206678 266.39453125 138.65625 C256.20788287 131.71142447 246.383711 124.65140735 237.89453125 115.65625 C235.67555222 120.47953975 234.05947315 125.28140752 232.59985352 130.38305664 C226.22954389 152.61826558 217.55536329 174.29315361 201.89453125 191.65625 C201.12367188 192.52121094 200.3528125 193.38617188 199.55859375 194.27734375 C185.27424797 209.46312883 165.65103873 217.09656908 145.03515625 217.78515625 C120.7629295 218.23959835 98.58339037 212.6567637 79.89453125 196.65625 C78.23196729 195.3178044 76.5663633 193.98310084 74.89453125 192.65625 C74.64703125 193.38972656 74.39953125 194.12320313 74.14453125 194.87890625 C69.99518926 204.09822547 59.89965228 210.26950126 50.828125 213.875 C34.59872137 219.34339112 15.52699959 219.17533808 -0.10546875 211.65625 C-2.89786634 210.1422995 -5.51163722 208.48683915 -8.10546875 206.65625 C-8.95109375 206.099375 -9.79671875 205.5425 -10.66796875 204.96875 C-19.57914328 196.51455877 -24.72841781 184.70797746 -25.23968983 172.43405247 C-25.24396331 171.20756457 -25.24823679 169.98107668 -25.25263977 168.71742249 C-25.25631646 168.03134696 -25.25999315 167.34527143 -25.26378125 166.63840574 C-25.27476854 164.34625043 -25.27865339 162.05414053 -25.2824707 159.76196289 C-25.28873886 158.11580767 -25.29538598 156.46965386 -25.30238342 154.82350159 C-25.32337591 149.42531308 -25.33377803 144.02712442 -25.34375 138.62890625 C-25.34779869 136.76890994 -25.35191564 134.90891378 -25.35610008 133.04891777 C-25.37513739 124.31373272 -25.38937418 115.57855608 -25.39771205 106.84335428 C-25.40749381 96.76258519 -25.43384388 86.68203511 -25.47421294 76.60134321 C-25.5043594 68.80588216 -25.51917934 61.01048398 -25.52249306 53.21496576 C-25.52484427 48.56011788 -25.53381467 43.9055044 -25.55895424 39.25071907 C-25.58221576 34.87332216 -25.58647603 30.49631436 -25.57619286 26.11887169 C-25.575697 24.5136549 -25.58203229 22.90841906 -25.5957489 21.3032608 C-25.61344847 19.10906143 -25.60637302 16.91626174 -25.59321594 14.72206116 C-25.5956043 13.49519624 -25.59799265 12.26833132 -25.60045338 11.00428867 C-24.88856623 6.18913775 -22.67542342 3.07902142 -19.10546875 -0.15625 C-12.86531673 -3.86134026 -6.36362604 -2.79947704 0 0 Z " fill="#E21E66" transform="translate(109.10546875,85.34375)"/>
<path d="M0 0 C3.42316669 2.99262407 5.50011147 7.28385294 6.24467468 11.7623291 C6.3529522 13.95667714 6.34591848 16.11640473 6.28515625 18.3125 C6.27949646 19.10023804 6.27383667 19.88797607 6.26800537 20.69958496 C6.24583027 23.18579034 6.19567462 25.67048928 6.14453125 28.15625 C6.12444164 29.85414567 6.10619521 31.55206421 6.08984375 33.25 C6.04602815 37.38598639 5.9771373 41.5208639 5.89453125 45.65625 C7.06435547 45.63530273 8.23417969 45.61435547 9.43945312 45.59277344 C13.80781665 45.52000144 18.1761273 45.47431578 22.54492188 45.43652344 C24.43043041 45.41649233 26.31587748 45.38925927 28.20117188 45.35449219 C30.92202987 45.30559728 33.64206181 45.28319618 36.36328125 45.265625 C37.19694214 45.24497986 38.03060303 45.22433472 38.88952637 45.20306396 C44.6901163 45.20087396 49.045263 46.4007959 53.89453125 49.65625 C56.96550453 53.11109494 57.36898757 56.25573609 57.18359375 60.73046875 C56.60655025 64.57482609 54.77361144 66.86224209 51.95703125 69.40625 C48.65290422 71.40875123 45.58613682 71.78185635 41.76855469 71.76977539 C40.96802673 71.76969986 40.16749878 71.76962433 39.3427124 71.76954651 C38.06125336 71.76180458 38.06125336 71.76180458 36.75390625 71.75390625 C35.87172424 71.7524913 34.98954224 71.75107635 34.08062744 71.74961853 C31.2685606 71.74403001 28.45657395 71.73147961 25.64453125 71.71875 C23.73567823 71.71373352 21.82682397 71.70917087 19.91796875 71.70507812 C15.24345878 71.69406434 10.5690086 71.67680758 5.89453125 71.65625 C5.95587408 84.00053384 6.03307515 96.34460856 6.13024616 108.68866539 C6.17487941 114.42117265 6.21415111 120.15360998 6.2409668 125.88623047 C6.26706996 131.42363459 6.30752205 136.96076863 6.35771751 142.49800491 C6.37433884 144.60534925 6.38588248 146.71274026 6.39214516 148.82014084 C6.40183781 151.78321059 6.42995865 154.74559672 6.4621582 157.70849609 C6.46000557 159.0010733 6.46000557 159.0010733 6.45780945 160.31976318 C6.58467152 168.63182743 8.10991949 177.00211632 14.04296875 183.18359375 C19.93680017 187.87130355 26.7469378 189.35318193 34.16015625 189.0390625 C41.91873556 187.9528614 48.69096915 184.54027791 53.89453125 178.65625 C55.2600546 176.57745048 56.50228837 174.4959864 57.65625 172.29296875 C59.22020168 170.22578971 60.38143349 170.02131052 62.89453125 169.65625 C63.01828125 170.44 63.14203125 171.22375 63.26953125 172.03125 C63.68571118 174.79682822 63.68571118 174.79682822 65.89453125 176.65625 C66.51020977 177.8484275 67.08966953 179.05958078 67.64453125 180.28125 C69.85109871 184.84483271 72.74260127 188.70583109 75.89453125 192.65625 C68.05385888 204.21739828 57.1138442 213.55233431 43.05078125 216.34765625 C41.9834375 216.50041016 41.9834375 216.50041016 40.89453125 216.65625 C39.97671875 216.78902344 39.05890625 216.92179688 38.11328125 217.05859375 C21.73959024 218.8621315 5.50905147 216.26465853 -8.10546875 206.65625 C-8.95109375 206.099375 -9.79671875 205.5425 -10.66796875 204.96875 C-19.57914328 196.51455877 -24.72841781 184.70797746 -25.23968983 172.43405247 C-25.24396331 171.20756457 -25.24823679 169.98107668 -25.25263977 168.71742249 C-25.25631646 168.03134696 -25.25999315 167.34527143 -25.26378125 166.63840574 C-25.27476854 164.34625043 -25.27865339 162.05414053 -25.2824707 159.76196289 C-25.28873886 158.11580767 -25.29538598 156.46965386 -25.30238342 154.82350159 C-25.32337591 149.42531308 -25.33377803 144.02712442 -25.34375 138.62890625 C-25.34779869 136.76890994 -25.35191564 134.90891378 -25.35610008 133.04891777 C-25.37513739 124.31373272 -25.38937418 115.57855608 -25.39771205 106.84335428 C-25.40749381 96.76258519 -25.43384388 86.68203511 -25.47421294 76.60134321 C-25.5043594 68.80588216 -25.51917934 61.01048398 -25.52249306 53.21496576 C-25.52484427 48.56011788 -25.53381467 43.9055044 -25.55895424 39.25071907 C-25.58221576 34.87332216 -25.58647603 30.49631436 -25.57619286 26.11887169 C-25.575697 24.5136549 -25.58203229 22.90841906 -25.5957489 21.3032608 C-25.61344847 19.10906143 -25.60637302 16.91626174 -25.59321594 14.72206116 C-25.5956043 13.49519624 -25.59799265 12.26833132 -25.60045338 11.00428867 C-24.88856623 6.18913775 -22.67542342 3.07902142 -19.10546875 -0.15625 C-12.86531673 -3.86134026 -6.36362604 -2.79947704 0 0 Z " fill="#E71E59" transform="translate(109.10546875,85.34375)"/>
<path d="M0 0 C3.89501489 4.4045177 5.319301 6.93151498 5.2109375 12.90234375 C4.88007156 16.19262172 3.88349376 18.30032561 2 21 C-2.08899898 23.99195047 -6.01100685 24.62320677 -10.9609375 24.49609375 C-16.30358007 23.62396572 -21.17763454 21.45077415 -26.19140625 19.46875 C-39.86099671 14.10367764 -54.84860461 15.14153891 -69 18 C-69.87527344 18.12117188 -70.75054687 18.24234375 -71.65234375 18.3671875 C-88.89885097 20.84906372 -104.78306707 29.82434049 -117 42 C-117.721875 42.69867188 -118.44375 43.39734375 -119.1875 44.1171875 C-127.51617128 52.72979075 -131.62858339 63.20108812 -133 75 C-133.33 75 -133.66 75 -134 75 C-135.72278136 54.13520359 -128.08425008 33.00061907 -115 17 C-114.48179687 16.30777344 -113.96359375 15.61554688 -113.4296875 14.90234375 C-100.75759098 -1.11289381 -79.58818559 -9.36283189 -59.875 -11.6875 C-40.23790126 -13.19562918 -16.78698242 -11.20010601 0 0 Z " fill="#FC7603" transform="translate(297,141)"/>
<path d="M0 0 C9.84228803 4.07982431 16.96087284 15.12769065 22 24 C22.639375 24.969375 23.27875 25.93875 23.9375 26.9375 C25.88238746 32.54335208 25.91626402 38.96515477 24.19921875 44.65234375 C20.06712001 52.74156637 10.4096372 57.21169018 2.1640625 59.9375 C-17.97213423 65.67493688 -41.7493523 63.93515679 -60.3515625 53.70703125 C-63.48246081 51.61332353 -66.04636205 49.70859204 -67 46 C-67.42543885 40.63947052 -67.47662684 37.34578355 -64 33 C-60.13623262 29.57756812 -57.37524095 29.4513085 -52.3515625 29.56640625 C-46.88425164 30.2737157 -41.80053049 32.02491212 -36.6015625 33.80859375 C-26.59909897 37.11743472 -15.5958939 37.71071155 -6 33 C-5.0925 32.566875 -4.185 32.13375 -3.25 31.6875 C0.49191331 28.88106502 2.53526 25.39422 4 21 C4.67675422 13.41147727 4.37325591 8.28655537 0 2 C0 1.34 0 0.68 0 0 Z " fill="#BB20A9" transform="translate(398,240)"/>
<path d="M0 0 C3.46169484 3.78148189 3.44950364 6.63804676 3.2890625 11.58984375 C2.91168669 14.73634209 2.08730801 16.61450513 0 19 C-4.6041501 21.74103004 -8.77399571 21.67050621 -14 21 C-16.6784921 20.23940674 -19.30022693 19.44334734 -21.9375 18.5625 C-31.21570599 15.46651486 -40.52833891 13.25924669 -50 17 C-53.22926535 18.90568234 -55.47726689 21.09709736 -57.375 24.375 C-59.24931594 32.24712695 -56.88910754 37.25888026 -53 44 C-52.34 44.99 -51.68 45.98 -51 47 C-62.20154273 42.11727624 -70.98860533 30.12245131 -76.2578125 19.453125 C-78.13348147 14.55272859 -78.73647257 10.0208864 -77 5 C-72.72403306 -3.74703504 -65.09963389 -6.24150556 -56.375 -9.25 C-38.48671215 -13.22517508 -14.63937839 -12.13481004 0 0 Z " fill="#F8911B" transform="translate(425,140)"/>
<path d="M0 0 C3.44117407 3.00836661 5.50957739 7.29811192 6.24467468 11.80114746 C6.35316833 14.05516545 6.34579123 16.27551026 6.28515625 18.53125 C6.27949646 19.34118408 6.27383667 20.15111816 6.26800537 20.9855957 C6.24582145 23.54311167 6.19566328 26.09916591 6.14453125 28.65625 C6.12444282 30.40232335 6.10619618 32.14841892 6.08984375 33.89453125 C6.0460163 38.14899075 5.97711846 42.40237357 5.89453125 46.65625 C5.01337646 46.7701709 4.13222168 46.8840918 3.22436523 47.00146484 C2.06235596 47.16340332 0.90034668 47.3253418 -0.296875 47.4921875 C-1.44615479 47.6473584 -2.59543457 47.8025293 -3.77954102 47.96240234 C-11.63137564 49.60043464 -16.54768755 54.52343028 -21.01171875 60.921875 C-22.15143092 62.66581695 -22.15143092 62.66581695 -23.10546875 64.65625 C-23.76546875 64.65625 -24.42546875 64.65625 -25.10546875 64.65625 C-25.19835397 57.3281114 -25.26932692 50.00010077 -25.31271744 42.67149162 C-25.33354821 39.26808682 -25.36178133 35.86508625 -25.40722656 32.46191406 C-25.45920225 28.54497194 -25.47845144 24.62819065 -25.49609375 20.7109375 C-25.51673889 19.49509979 -25.53738403 18.27926208 -25.55865479 17.02658081 C-25.56035402 10.61078848 -25.52265479 6.48722636 -21.10546875 1.65625 C-14.84903719 -4.0136411 -7.33286044 -3.22586121 0 0 Z " fill="#FAA215" transform="translate(109.10546875,85.34375)"/>
<path d="M0 0 C6.27 0 12.54 0 19 0 C22.70136527 8.81696333 26.2975846 17.66962325 29.8125 26.5625 C30.18991333 27.506698 30.18991333 27.506698 30.57495117 28.4699707 C31.31140822 30.31265303 32.04058693 32.15823907 32.76953125 34.00390625 C33.19854736 35.08486572 33.62756348 36.1658252 34.06958008 37.27954102 C35 40 35 40 35 43 C29.39 43 23.78 43 18 43 C15.01436344 35.74916836 12.42779251 28.45679128 10 21 C7.36 28.26 4.72 35.52 2 43 C-3.94 43 -9.88 43 -16 43 C-11.06185543 28.50313184 -5.66319038 14.2286053 0 0 Z " fill="#007CC5" transform="translate(612,133)"/>
<path d="M0 0 C6.27 0 12.54 0 19 0 C22.52370283 8.33577963 25.87140048 16.72361938 29.0769043 25.18554688 C29.82541122 27.15904139 30.57959885 29.13030871 31.33398438 31.1015625 C31.81284149 32.36184947 32.29137006 33.62226133 32.76953125 34.8828125 C33.41305542 36.57494873 33.41305542 36.57494873 34.06958008 38.30126953 C35 41 35 41 35 43 C29.39 43 23.78 43 18 43 C15.0477963 36.05833185 12.276964 29.19041263 10 22 C8.28299455 24.57550818 7.43002925 26.35577992 6.4921875 29.23046875 C6.22792969 30.03291016 5.96367188 30.83535156 5.69140625 31.66210938 C5.42199219 32.49548828 5.15257812 33.32886719 4.875 34.1875 C4.59785156 35.03248047 4.32070313 35.87746094 4.03515625 36.74804688 C3.35270396 38.830703 2.67581319 40.91518006 2 43 C-3.94 43 -9.88 43 -16 43 C-13.43546268 33.68619299 -9.88955478 24.83352427 -6.3125 15.875 C-5.69948901 14.33088028 -5.08685579 12.78661053 -4.47460938 11.2421875 C-2.98811105 7.49275193 -1.49391897 3.74651861 0 0 Z " fill="#007CC5" transform="translate(530,133)"/>
<path d="M0 0 C13.53 0 27.06 0 41 0 C41 4.29 41 8.58 41 13 C37.37 13 33.74 13 30 13 C30.00785522 14.30988892 30.00785522 14.30988892 30.01586914 15.64624023 C30.03287751 18.87589273 30.04543369 22.10552245 30.05493164 25.33520508 C30.0599708 26.73495228 30.06680216 28.1346942 30.07543945 29.53442383 C30.0875232 31.54245777 30.09269807 33.55052957 30.09765625 35.55859375 C30.10551147 37.37315063 30.10551147 37.37315063 30.11352539 39.22436523 C30 42 30 42 29 43 C26.13530675 43.07330331 23.30106326 43.09217831 20.4375 43.0625 C17.653125 43.041875 14.86875 43.02125 12 43 C12 33.1 12 23.2 12 13 C8.04 13 4.08 13 0 13 C0 8.71 0 4.42 0 0 Z " fill="#007BC4" transform="translate(560,133)"/>
<path d="M0 0 C13.53 0 27.06 0 41 0 C41 4.29 41 8.58 41 13 C37.04 13 33.08 13 29 13 C29 22.9 29 32.8 29 43 C23.39 43 17.78 43 12 43 C12 33.1 12 23.2 12 13 C8.04 13 4.08 13 0 13 C0 8.71 0 4.42 0 0 Z " fill="#007DC5" transform="translate(478,133)"/>
<path d="M0 0 C10 0 10 0 12.40454102 2.17138672 C12.93233154 3.16412598 13.46012207 4.15686523 14.00390625 5.1796875 C14.59880859 6.25347656 15.19371094 7.32726562 15.80664062 8.43359375 C16.38607422 9.56925781 16.96550781 10.70492187 17.5625 11.875 C18.17673828 13.00292969 18.79097656 14.13085938 19.42382812 15.29296875 C21.34224831 18.83303693 23.19937048 22.39874097 25 26 C25.33 17.42 25.66 8.84 26 0 C28.64 0 31.28 0 34 0 C34 14.19 34 28.38 34 43 C25 43 25 43 22.6875 40.71875 C22.130625 39.6565625 21.57375 38.594375 21 37.5 C20.68804688 36.93063721 20.37609375 36.36127441 20.0546875 35.7746582 C19.37806884 34.53513412 18.71584038 33.2876723 18.06640625 32.03369141 C16.56279526 29.16622813 14.9515792 26.3634335 13.34375 23.5534668 C11.54175996 20.38066784 9.77437273 17.18832601 8 14 C8 23.57 8 33.14 8 43 C5.36 43 2.72 43 0 43 C0 28.81 0 14.62 0 0 Z " fill="#007CC5" transform="translate(559,196)"/>
<path d="M0 0 C3.3 0 6.6 0 10 0 C12.69542603 3.08048689 14.15423778 5.42269352 16 9 C16.77037197 10.36649313 17.546879 11.72953822 18.328125 13.08984375 C23.96389888 22.92779777 23.96389888 22.92779777 26 27 C26 18.09 26 9.18 26 0 C28.64 0 31.28 0 34 0 C34 14.19 34 28.38 34 43 C31.03 43 28.06 43 25 43 C24.43152344 41.98421875 23.86304688 40.9684375 23.27734375 39.921875 C22.49744938 38.53121997 21.71749834 37.14059672 20.9375 35.75 C20.56689453 35.08742187 20.19628906 34.42484375 19.81445312 33.7421875 C16.28197797 27.44903848 12.63818507 21.23688869 9 15 C8.67 24.24 8.34 33.48 8 43 C5.36 43 2.72 43 0 43 C0 28.81 0 14.62 0 0 Z " fill="#007CC5" transform="translate(766,196)"/>
<path d="M0 0 C4.68886009 3.38349815 7.5913911 7.55873242 8.75390625 13.265625 C9.46972718 20.9634531 9.19961412 27.72629888 4.75390625 34.265625 C0.9362185 38.3783159 -2.36811805 40.99003225 -8.1015625 41.5390625 C-14.54892103 41.73558222 -19.37118949 41.69329652 -24.66015625 37.765625 C-28.84122194 33.81111952 -31.0705214 29.69197731 -31.484375 23.97265625 C-31.64118591 15.74420994 -31.72959573 9.03164902 -25.8203125 2.75 C-18.3729799 -3.94682621 -8.71108348 -4.99787416 0 0 Z M-21.3984375 11.07421875 C-23.33479817 16.08020187 -23.21578825 22.49029246 -21.453125 27.53515625 C-19.75522864 30.62519751 -18.19164239 32.30192591 -15.24609375 34.265625 C-11.270895 34.70731375 -9.00225493 34.69526203 -5.49609375 32.703125 C-1.8990307 28.8063067 -0.44387779 25.07864537 0.12890625 19.828125 C-0.49474292 13.90345789 -1.53798119 9.75094027 -6.12109375 5.765625 C-12.84854162 2.53645002 -17.32373571 4.67900881 -21.3984375 11.07421875 Z " fill="#007CC5" transform="translate(544.24609375,197.734375)"/>
<path d="M0 0 C20 0 20 0 26 3 C28.47714187 6.4360355 29.23794753 8.97813142 28.875 13.125 C28.07436635 16.67066329 27.58913452 18.51443086 25 21 C24.34 21 23.68 21 23 21 C23.598125 21.928125 24.19625 22.85625 24.8125 23.8125 C27.93432613 29.24514404 30 35.71644431 30 42 C27.03 42 24.06 42 21 42 C20.731875 40.94039063 20.46375 39.88078125 20.1875 38.7890625 C19.79345761 37.40053218 19.39752442 36.01253746 19 34.625 C18.82855469 33.92632812 18.65710938 33.22765625 18.48046875 32.5078125 C17.85463447 30.15659259 17.85463447 30.15659259 16 27 C13.36 26.34 10.72 25.68 8 25 C8 30.61 8 36.22 8 42 C5.36 42 2.72 42 0 42 C0 28.14 0 14.28 0 0 Z M8 7 C7.92755947 9.01964199 7.91622812 11.04167124 7.9375 13.0625 C7.94652344 14.16722656 7.95554687 15.27195312 7.96484375 16.41015625 C7.97644531 17.26480469 7.98804688 18.11945313 8 19 C9.43861294 18.91253716 10.87597508 18.80434652 12.3125 18.6875 C13.11300781 18.62949219 13.91351562 18.57148438 14.73828125 18.51171875 C17.42387109 17.90409825 18.40403712 17.22813 20 15 C20.08333333 11.41666667 20.08333333 11.41666667 19 8 C16.39293331 5.77916541 10.69481239 4.30518761 8 7 Z " fill="#007CC5" transform="translate(544,259)"/>
<path d="M0 0 C3.63 0 7.26 0 11 0 C12.69849082 4.99616784 14.38888488 9.9949765 16.07202148 14.99633789 C16.64502967 16.69531929 17.22019539 18.39357468 17.79760742 20.09106445 C18.62995511 22.53927262 19.45436019 24.99003675 20.27734375 27.44140625 C20.53466782 28.19273331 20.79199188 28.94406036 21.05711365 29.71815491 C22.53712787 34.15633579 23.48248834 38.34775789 24 43 C21.03 43 18.06 43 15 43 C14.49440092 41.56445975 13.9957251 40.1264798 13.5 38.6875 C13.2215625 37.88699219 12.943125 37.08648437 12.65625 36.26171875 C12 34 12 34 12 31 C7.71 31 3.42 31 -1 31 C-1.99 34.96 -2.98 38.92 -4 43 C-6.97 43 -9.94 43 -13 43 C-12.3908448 37.5239157 -11.05951506 32.64493636 -9.27734375 27.44140625 C-9.01240616 26.65225327 -8.74746857 25.86310028 -8.47450256 25.05003357 C-7.63449458 22.55223852 -6.78614657 20.05737155 -5.9375 17.5625 C-5.36337702 15.86021322 -4.78980368 14.15774095 -4.21679688 12.45507812 C-2.81754566 8.30121323 -1.4108123 4.14995182 0 0 Z M5 10 C3.13459373 14.70406799 1.63156995 18.94744036 1 24 C3.97 24 6.94 24 10 24 C8.68 19.38 7.36 14.76 6 10 C5.67 10 5.34 10 5 10 Z " fill="#007BC5" transform="translate(737,196)"/>
<path d="M0 0 C2.64 0 5.28 0 8 0 C8.01458252 0.78125244 8.02916504 1.56250488 8.04418945 2.36743164 C8.11900498 5.93293368 8.21555633 9.49753377 8.3125 13.0625 C8.33505859 14.29162109 8.35761719 15.52074219 8.38085938 16.78710938 C8.58856726 25.82370501 8.58856726 25.82370501 12 34 C15.39418221 35.41349769 15.39418221 35.41349769 19 35 C21.94572605 32.82946501 22.84060941 31.47817177 24 28 C24.15070797 25.86338742 24.2485966 23.72287876 24.31640625 21.58203125 C24.35830078 20.32841797 24.40019531 19.07480469 24.44335938 17.78320312 C24.48267578 16.47287109 24.52199219 15.16253906 24.5625 13.8125 C24.60570992 12.47720022 24.649325 11.14191348 24.69335938 9.80664062 C24.79956502 6.53786703 24.90160997 3.26901667 25 0 C27.64 0 30.28 0 33 0 C33.07449251 4.44739413 33.12876257 8.8944519 33.16479492 13.34228516 C33.17982543 14.85341727 33.20025564 16.36450618 33.22631836 17.87548828 C33.26295689 20.05512187 33.27978338 22.23417575 33.29296875 24.4140625 C33.3086792 25.7232666 33.32438965 27.0324707 33.34057617 28.38134766 C32.85338663 33.55778025 31.30575439 36.79217719 27.5 40.3125 C22.15248855 43.92207023 16.23869879 43.60241404 10 43 C5.96345889 41.0171377 3.3499944 38.83420139 1 35 C-0.1687481 31.4937557 -0.12514267 28.3522134 -0.09765625 24.70703125 C-0.0962413 24.00100266 -0.09482635 23.29497406 -0.09336853 22.56755066 C-0.08777764 20.31582374 -0.07522688 18.06419679 -0.0625 15.8125 C-0.05748382 14.28450665 -0.05292112 12.75651173 -0.04882812 11.22851562 C-0.0378112 7.48563865 -0.02055287 3.74283627 0 0 Z " fill="#007CC5" transform="translate(633,196)"/>
<path d="M0 0 C8.25 0 16.5 0 25 0 C25 2.31 25 4.62 25 7 C19.72 7 14.44 7 9 7 C9 10.3 9 13.6 9 17 C13.95 17 18.9 17 24 17 C24 19.31 24 21.62 24 24 C19.05 24 14.1 24 9 24 C9 27.63 9 31.26 9 35 C14.61 35 20.22 35 26 35 C26 37.31 26 39.62 26 42 C17.42 42 8.84 42 0 42 C0 28.14 0 14.28 0 0 Z " fill="#007CC4" transform="translate(512,259)"/>
<path d="M0 0 C2.97 0 5.94 0 9 0 C9.94146105 2.76954075 10.87820625 5.540541 11.8125 8.3125 C12.07353516 9.07884766 12.33457031 9.84519531 12.60351562 10.63476562 C14.65039371 16.72485967 16.30175421 22.77309876 18 29 C21.3 19.43 24.6 9.86 28 0 C30.97 0 33.94 0 37 0 C36.3523021 4.88249915 34.97288158 9.3383957 33.3125 13.953125 C32.91865112 15.06527374 32.91865112 15.06527374 32.5168457 16.19989014 C31.96439654 17.75713186 31.40958682 19.31353796 30.85253906 20.86914062 C29.99829058 23.25477383 29.15086235 25.64274256 28.3046875 28.03125 C27.76601599 29.54701401 27.22696676 31.06264385 26.6875 32.578125 C26.43331299 33.2926886 26.17912598 34.0072522 25.91723633 34.74346924 C24.11821584 39.76356833 24.11821584 39.76356833 23 42 C19.7 42 16.4 42 13 42 C10.21509089 34.86656173 7.85341974 27.60112468 5.5012207 20.31665039 C4.80806721 18.17379623 4.10822306 16.03319756 3.40820312 13.89257812 C2.96573573 12.5261744 2.52366403 11.15964246 2.08203125 9.79296875 C1.68218018 8.5608667 1.2823291 7.32876465 0.87036133 6.05932617 C0 3 0 3 0 0 Z " fill="#007BC5" transform="translate(576,259)"/>
<path d="M0 0 C8.25 0 16.5 0 25 0 C25 2.31 25 4.62 25 7 C19.39 7 13.78 7 8 7 C8 10.3 8 13.6 8 17 C13.28 17 18.56 17 24 17 C24 19.31 24 21.62 24 24 C18.72 24 13.44 24 8 24 C8 27.63 8 31.26 8 35 C13.94 35 19.88 35 26 35 C26 37.31 26 39.62 26 42 C17.42 42 8.84 42 0 42 C0 28.14 0 14.28 0 0 Z " fill="#007DC5" transform="translate(670,259)"/>
<path d="M0 0 C0.92941406 -0.00515625 1.85882812 -0.0103125 2.81640625 -0.015625 C5.4929462 0.25561899 7.14188282 0.88883405 9.4375 2.25 C9.1075 4.56 8.7775 6.87 8.4375 9.25 C7.60605469 9.14300781 6.77460937 9.03601563 5.91796875 8.92578125 C4.28794922 8.74595703 4.28794922 8.74595703 2.625 8.5625 C1.54605469 8.43488281 0.46710937 8.30726563 -0.64453125 8.17578125 C-3.57935056 7.95984708 -3.57935056 7.95984708 -5.44921875 9.73046875 C-5.81660156 10.23191406 -6.18398438 10.73335938 -6.5625 11.25 C-5.51224749 14.27109672 -4.72894239 15.15731634 -1.8828125 16.7421875 C-0.82835937 17.19851563 0.22609375 17.65484375 1.3125 18.125 C6.18516895 20.46201149 9.34589462 22.02098655 11.4375 27.25 C12.24811885 31.63791507 11.78471372 34.51390691 9.875 38.5625 C6.22027428 42.59206938 3.03928556 44.0117551 -2.25 44.49609375 C-7.40069364 44.61506358 -11.76425844 44.32491527 -16.5625 42.25 C-16.2325 39.61 -15.9025 36.97 -15.5625 34.25 C-14.70978516 34.48396484 -14.70978516 34.48396484 -13.83984375 34.72265625 C-8.65424976 36.0298761 -4.79130207 36.44826714 0.4375 35.25 C1.73383621 34.18354885 1.73383621 34.18354885 1.5 31.6875 C1.479375 30.883125 1.45875 30.07875 1.4375 29.25 C0.54546875 28.80269531 -0.3465625 28.35539062 -1.265625 27.89453125 C-2.43609375 27.28996094 -3.6065625 26.68539063 -4.8125 26.0625 C-5.97265625 25.47082031 -7.1328125 24.87914062 -8.328125 24.26953125 C-11.64749713 22.19692812 -13.49293179 20.55228923 -15.5625 17.25 C-16.33753466 13.82915738 -16.21900217 10.69097688 -15.5625 7.25 C-11.50819286 1.68980735 -6.7241808 -0.03740852 0 0 Z " fill="#007BC5" transform="translate(716.5625,257.75)"/>
<path d="M0 0 C-0.33 2.31 -0.66 4.62 -1 7 C-1.74765625 6.90460938 -2.4953125 6.80921875 -3.265625 6.7109375 C-4.74289062 6.54464844 -4.74289062 6.54464844 -6.25 6.375 C-7.22453125 6.25898438 -8.1990625 6.14296875 -9.203125 6.0234375 C-12.13429393 5.99887463 -13.54528964 6.4687283 -16 8 C-15.95315595 10.41182621 -15.95315595 10.41182621 -15 13 C-12.39356501 14.77386872 -12.39356501 14.77386872 -9.1875 16.0625 C-5.03008935 17.89054536 -1.86954684 19.41306645 1 23 C2.41481158 27.25216595 2.28506322 31.0557281 1 35.3125 C-1.56588049 38.76040191 -3.90974332 40.77570548 -8 42 C-14.38274642 42.62884201 -20.1090531 42.73742886 -26 40 C-25.67 37.36 -25.34 34.72 -25 32 C-23.80375 32.33 -22.6075 32.66 -21.375 33 C-17.82797958 33.87890772 -14.67239338 34.34161799 -11 34 C-10.01 33.34 -9.02 32.68 -8 32 C-7.7497843 28.91634129 -7.7497843 28.91634129 -8 26 C-8.804375 25.773125 -9.60875 25.54625 -10.4375 25.3125 C-16.13502099 23.21341332 -21.39655033 21.1222128 -25.125 16.1875 C-26.23685134 12.13718439 -26.35209886 8.99858503 -25 5 C-18.98040248 -2.69170794 -8.73649343 -4.65946316 0 0 Z " fill="#007BC5" transform="translate(625,197)"/>
<path d="M0 0 C0.92941406 -0.00515625 1.85882813 -0.0103125 2.81640625 -0.015625 C5.4929462 0.25561899 7.14188282 0.88883405 9.4375 2.25 C9.1075 4.56 8.7775 6.87 8.4375 9.25 C7.60605469 9.14300781 6.77460938 9.03601563 5.91796875 8.92578125 C4.28794922 8.74595703 4.28794922 8.74595703 2.625 8.5625 C1.54605469 8.43488281 0.46710938 8.30726563 -0.64453125 8.17578125 C-3.57935056 7.95984708 -3.57935056 7.95984708 -5.44921875 9.73046875 C-5.81660156 10.23191406 -6.18398438 10.73335938 -6.5625 11.25 C-5.50041536 14.42237045 -4.56368727 15.24929333 -1.62890625 16.99609375 C0.70389996 18.12218638 3.03723239 19.24718957 5.37109375 20.37109375 C8.674939 22.3954881 9.88497957 23.74325804 11.4375 27.25 C11.96524616 31.99971544 11.91286881 34.24221812 9.875 38.5625 C6.22027428 42.59206938 3.03928556 44.0117551 -2.25 44.49609375 C-7.40069364 44.61506358 -11.76425844 44.32491527 -16.5625 42.25 C-16.2325 39.61 -15.9025 36.97 -15.5625 34.25 C-14.70978516 34.48396484 -14.70978516 34.48396484 -13.83984375 34.72265625 C-8.65424976 36.0298761 -4.79130207 36.44826714 0.4375 35.25 C1.73383621 34.18354885 1.73383621 34.18354885 1.5 31.6875 C1.479375 30.883125 1.45875 30.07875 1.4375 29.25 C0.54546875 28.80269531 -0.3465625 28.35539062 -1.265625 27.89453125 C-2.43609375 27.28996094 -3.6065625 26.68539063 -4.8125 26.0625 C-5.97265625 25.47082031 -7.1328125 24.87914062 -8.328125 24.26953125 C-11.64749713 22.19692812 -13.49293179 20.55228923 -15.5625 17.25 C-16.33753466 13.82915738 -16.21900217 10.69097688 -15.5625 7.25 C-11.50819286 1.68980735 -6.7241808 -0.03740852 0 0 Z " fill="#007CC5" transform="translate(494.5625,257.75)"/>
<path d="M0 0 C1.10601563 -0.00515625 2.21203125 -0.0103125 3.3515625 -0.015625 C6.25566911 0.23951615 7.91984843 0.74098001 10.375 2.25 C9.715 4.56 9.055 6.87 8.375 9.25 C7.694375 9.085 7.01375 8.92 6.3125 8.75 C0.13936794 7.69925412 -4.25245645 7.83110865 -9.625 11.25 C-13.22004215 15.21694307 -13.92210036 18.85967522 -13.84375 24.1875 C-13.41422711 28.23728723 -11.66802528 31.12971359 -8.9375 34.0625 C-3.34162203 36.93605896 2.41468458 36.36755914 8.375 35.25 C8.87 38.715 8.87 38.715 9.375 42.25 C3.07982717 45.12188541 -3.48629022 45.24379353 -10.1953125 43.6328125 C-16.04934861 41.39041901 -19.63074742 37.72520471 -22.625 32.25 C-24.81532125 25.67903626 -24.55774451 17.45172432 -21.80078125 11.1015625 C-16.69248148 3.0572632 -9.29302162 -0.04352703 0 0 Z " fill="#007CC5" transform="translate(654.625,257.75)"/>
<path d="M0 0 C-0.66 2.31 -1.32 4.62 -2 7 C-2.64066406 6.90460938 -3.28132812 6.80921875 -3.94140625 6.7109375 C-9.44131619 6.00603101 -13.78898907 5.70715519 -19 8 C-22.68278611 11.77970154 -23.90356939 14.52943327 -24.25 19.8125 C-24.19054876 23.85518462 -23.23377397 26.5695614 -21 30 C-16.62886201 33.9613438 -12.76501125 34.19879349 -7 34 C-5.32442621 33.71479595 -3.65182755 33.40044304 -2 33 C-1.505 36.96 -1.505 36.96 -1 41 C-7.89578202 43.09945839 -16.94943206 43.42232194 -23.5625 40.375 C-28.12234747 37.60198783 -30.96192145 34.1255894 -33.3125 29.3125 C-34.86556829 21.8295346 -34.84252066 14.91285748 -31.328125 8.0078125 C-28.29775312 3.42660324 -24.72997217 0.71810165 -19.6875 -1.375 C-12.80652894 -2.54126628 -6.53775298 -2.7527381 0 0 Z " fill="#007CC5" transform="translate(840,197)"/>
<path d="M0 0 C-0.33 2.31 -0.66 4.62 -1 7 C-1.64066406 6.90460938 -2.28132813 6.80921875 -2.94140625 6.7109375 C-8.44131619 6.00603101 -12.78898907 5.70715519 -18 8 C-21.71597332 11.8137621 -23.14060149 15.03402213 -23.25 20.3125 C-23.17346115 24.59171742 -22.60369599 27.47241189 -20 31 C-13.67909757 34.64667448 -7.96373826 34.68817897 -1 33 C-0.505 36.96 -0.505 36.96 0 41 C-6.89578202 43.09945839 -15.94943206 43.42232194 -22.5625 40.375 C-27.80165925 37.20009193 -31.08202791 32.82121355 -33 27 C-33.83897939 19.38089643 -33.83267881 12.23984118 -29 6 C-21.83816223 -1.92411258 -9.82753213 -5.24135047 0 0 Z " fill="#007CC5" transform="translate(511,197)"/>
<path d="M0 0 C3.3 0 6.6 0 10 0 C12.64 5.28 15.28 10.56 18 16 C20.64 10.72 23.28 5.44 26 0 C29.3 0 32.6 0 36 0 C35.15157472 1.7527907 34.29580103 3.50202402 33.4375 5.25 C32.62539063 6.91095703 32.62539063 6.91095703 31.796875 8.60546875 C30 12 30 12 28.078125 14.80078125 C21.89033486 23.83955735 21.92227898 32.38552964 22 43 C19.03 43 16.06 43 13 43 C13.06703125 41.88367188 13.1340625 40.76734375 13.203125 39.6171875 C13.5205122 25.43595937 8.52786744 15.79384056 1.08569336 3.94506836 C0 2 0 2 0 0 Z " fill="#007BC5" transform="translate(841,196)"/>
<path d="M0 0 C2.97 0 5.94 0 9 0 C9 11.55 9 23.1 9 35 C14.61 35 20.22 35 26 35 C26 37.64 26 40.28 26 43 C17.42 43 8.84 43 0 43 C0 28.81 0 14.62 0 0 Z " fill="#007CC5" transform="translate(674,196)"/>
<path d="M0 0 C10.56 0 21.12 0 32 0 C32 2.31 32 4.62 32 7 C28.04 7 24.08 7 20 7 C20 18.88 20 30.76 20 43 C17.36 43 14.72 43 12 43 C12 31.12 12 19.24 12 7 C8.04 7 4.08 7 0 7 C0 4.69 0 2.38 0 0 Z " fill="#007CC5" transform="translate(695,196)"/>
<path d="M0 0 C2.64 0 5.28 0 8 0 C8 13.86 8 27.72 8 42 C5.36 42 2.72 42 0 42 C0 28.14 0 14.28 0 0 Z " fill="#007CC4" transform="translate(617,259)"/>
<path d="M0 0 C0.66 0.33 1.32 0.66 2 1 C-1.3 4.3 -4.6 7.6 -8 11 C-8 7.45459812 -7.40614728 6.93992636 -5.125 4.375 C-4.59132812 3.76398438 -4.05765625 3.15296875 -3.5078125 2.5234375 C-2 1 -2 1 0 0 Z " fill="#FE8704" transform="translate(191,149)"/>
<path d="M0 0 C0 3.30941204 -0.40339294 5.11090151 -2 8 C-4.625 8.8125 -4.625 8.8125 -7 9 C-5.44499019 5.18315774 -2.96404505 2.80804268 0 0 Z " fill="#E40B2C" transform="translate(350,140)"/>
</svg>
