<?xml version="1.0" encoding="UTF-8"?>
<svg id="Layer_2" data-name="Layer 2" xmlns="http://www.w3.org/2000/svg" viewBox="0 0 260.1 73.32">
  <defs>
    <style>
      .cls-1 {
        fill: #fff;
      }
    </style>
  </defs>
  <g id="Layer_2-2" data-name="Layer 2">
    <g id="Layer_1-2" data-name="Layer 1-2">
      <path class="cls-1" d="M81.89,49.42h9.46c.1,0,.15.05.15.15v1.95c0,.1-.05.15-.15.15h-9.46c-.65,0-1.26.16-1.82.49s-1,.76-1.33,1.32-.49,1.16-.49,1.82c0,1,.35,1.85,1.07,2.56.71.71,1.57,1.07,2.56,1.07h9.46c.1,0,.15.05.15.15v1.95c0,.1-.05.15-.15.15h-9.46c-1.07,0-2.05-.26-2.95-.79-.9-.53-1.62-1.24-2.14-2.14-.53-.9-.79-1.88-.79-2.95s.26-2.05.79-2.95,1.24-1.62,2.14-2.14c.9-.53,1.89-.79,2.95-.79"/>
      <path class="cls-1" d="M104.55,49.42h3.73c1.05,0,2.03.26,2.94.79.91.53,1.62,1.24,2.15,2.14.53.9.79,1.88.79,2.95s-.26,2.05-.79,2.95-1.24,1.62-2.15,2.14c-.91.53-1.89.79-2.94.79h-3.73c-1.07,0-2.05-.26-2.95-.79-.9-.53-1.62-1.24-2.14-2.14-.53-.9-.79-1.88-.79-2.95s.26-2.05.79-2.95,1.24-1.62,2.14-2.14c.9-.53,1.89-.79,2.95-.79M108.28,58.93c1,0,1.85-.36,2.56-1.07s1.07-1.57,1.07-2.56-.35-1.85-1.07-2.56c-.71-.71-1.57-1.07-2.56-1.07h-3.73c-.65,0-1.26.16-1.82.49s-1,.76-1.33,1.32c-.32.56-.49,1.16-.49,1.82,0,1,.36,1.85,1.07,2.56s1.57,1.07,2.56,1.07h3.74Z"/>
      <path class="cls-1" d="M122.55,49.42h2.59c.05,0,.1,0,.14.02s.07.03.1.07c.03.03.05.06.07.08s.04.05.08.11.06.09.08.1l6.67,9.51,6.67-9.51s.04-.03.06-.06c.02-.03.03-.05.04-.08,0-.02.03-.04.04-.07.02-.02.03-.04.04-.05s.03-.03.05-.04c.02-.02.05-.03.07-.04.02,0,.05-.02.07-.03h2.68v11.61c0,.1-.05.15-.15.15h-1.95c-.1,0-.15-.05-.15-.15v-8.51l-5.82,8.29c-.17.25-.31.37-.44.37h-2.45c-.12,0-.27-.12-.44-.37l-5.82-8.29v8.51c0,.1-.05.15-.15.15h-1.95c-.1,0-.15-.05-.15-.15v-11.61h.02Z"/>
      <path class="cls-1" d="M153.07,61.18h-1.95c-.1,0-.15-.05-.15-.15v-11.46c0-.1.05-.15.15-.15h11.85c.96,0,1.79.34,2.48,1.03.69.68,1.03,1.51,1.03,2.47,0,.48-.1.94-.29,1.37-.19.43-.44.8-.75,1.12-.31.31-.68.56-1.12.75s-.89.28-1.36.28h-9.75v4.61c0,.1-.05.15-.15.15M153.22,51.67v2.5h9.76c.35,0,.64-.12.89-.37s.37-.54.37-.88-.12-.64-.37-.88c-.25-.25-.54-.37-.89-.37h-9.76Z"/>
      <path class="cls-1" d="M189.89,55.3c0,1.07-.26,2.05-.79,2.95s-1.24,1.62-2.15,2.14c-.91.53-1.89.79-2.94.79h-3.73c-1.06,0-2.05-.26-2.95-.79-.9-.53-1.62-1.24-2.14-2.14-.53-.9-.79-1.89-.79-2.95v-5.73c0-.1.05-.15.15-.15h1.95c.1,0,.15.05.15.15v5.73c0,1,.35,1.85,1.07,2.56.71.71,1.57,1.07,2.56,1.07h3.73c1,0,1.85-.36,2.56-1.07.71-.71,1.07-1.57,1.07-2.56v-5.73c0-.1.05-.15.15-.15h1.95c.1,0,.15.05.15.15v5.73Z"/>
      <path class="cls-1" d="M212.94,49.42c.11,0,.17.05.17.15v1.95c0,.1-.06.15-.17.15h-6.47v9.36c0,.1-.05.15-.15.15h-1.93c-.11,0-.17-.05-.17-.15v-9.36h-6.47c-.1,0-.15-.05-.15-.15v-1.95c0-.1.05-.15.15-.15h15.19,0Z"/>
      <path class="cls-1" d="M236.22,51.52c0,.1-.05.15-.15.15h-12.72v2.5h9.51c.1,0,.15.05.15.15v1.95c0,.1-.05.15-.15.15h-9.51v2.5h12.72c.1,0,.15.05.15.15v1.95c0,.1-.05.15-.15.15h-14.83c-.1,0-.15-.05-.15-.15v-11.46c0-.1.05-.15.15-.15h14.83c.1,0,.15.05.15.15v1.95h0Z"/>
      <path class="cls-1" d="M256.32,56.48l3.3,4.71h-2.54s-.09,0-.13-.02c-.04,0-.08-.03-.11-.07-.03-.03-.06-.06-.08-.08s-.04-.05-.08-.11c-.03-.06-.06-.09-.07-.1-.29-.41-.61-.86-.94-1.34-.34-.48-.69-1-1.08-1.55-.38-.55-.69-.99-.92-1.33l-.12-.17h-6.72v4.61c0,.1-.05.15-.15.15h-1.95c-.1,0-.15-.05-.15-.15v-11.46c0-.1.05-.15.15-.15h11.85c.64,0,1.23.16,1.76.47.54.31.96.74,1.28,1.28.31.54.47,1.12.47,1.75,0,.45-.08.87-.24,1.28-.16.4-.38.76-.66,1.07s-.61.57-1,.77c-.39.21-.79.33-1.22.38l-.66.07h0ZM246.84,51.67v2.5h9.76c.35,0,.64-.12.89-.37s.37-.54.37-.88-.12-.64-.37-.88c-.25-.25-.54-.37-.89-.37h-9.76Z"/>
      <path class="cls-1" d="M131.45,13.05c-.41-.61-.77-.91-1.07-.91h-6c-.3,0-.67.3-1.11.91l-19.68,28.02h6.24c.11,0,.21,0,.31-.04.1-.02.19-.08.27-.16.08-.08.14-.15.19-.19.04-.04.1-.13.18-.27.08-.13.14-.22.17-.24,1.73-2.48,4.34-6.21,7.81-11.17s6.08-8.68,7.81-11.16l.79-1.07c3.66,5.18,9.14,12.98,16.41,23.4.06.02.13.11.21.24.08.14.14.23.18.27.05.04.11.11.19.19s.17.14.25.16c.08.03.19.04.33.04h6.2l-19.68-28.02h0Z"/>
      <path class="cls-1" d="M159.31,12.14h4.8c.2,0,.37.17.37.37v28.19c0,.21-.17.37-.37.37h-4.79c-.21,0-.37-.17-.37-.37V12.51c0-.21.17-.37.37-.37h-.01Z"/>
      <path class="cls-1" d="M206.98,41h-.04v-.04l-26.25-21.46v21.21c0,.25-.12.37-.37.37h-4.79c-.25,0-.37-.12-.37-.37V12.51c0-.25.12-.37.37-.37h4.79c.08,0,.17.04.25.12h.04l26.21,21.5V12.51c0-.25.12-.37.37-.37h4.79c.25,0,.37.12.37.37v28.2c0,.25-.12.37-.37.37h-4.79c-.08,0-.15-.03-.21-.08"/>
      <path class="cls-1" d="M230.54,29.38c-1.54,0-2.98-.39-4.3-1.16s-2.37-1.82-3.14-3.14-1.16-2.77-1.16-4.34c0-2.37.85-4.4,2.54-6.08s3.71-2.52,6.06-2.52h28.52c.25,0,.37.12.37.37v4.8c0,.25-.12.37-.37.37h-28.52c-.86,0-1.59.3-2.19.91-.61.61-.91,1.33-.91,2.17s.3,1.56.91,2.17,1.34.91,2.19.91h20.92c2.37,0,4.4.85,6.1,2.54,1.7,1.7,2.54,3.73,2.54,6.1s-.85,4.4-2.54,6.08c-1.7,1.68-3.73,2.52-6.1,2.52h-28.53c-.25,0-.37-.12-.37-.37v-4.79c0-.25.12-.37.37-.37h28.57c.85,0,1.58-.3,2.17-.91.59-.6.89-1.33.89-2.17s-.3-1.56-.89-2.17-1.32-.91-2.17-.91h-20.96,0Z"/>
      <path class="cls-1" d="M99.74,12.51v14.51c-.08,2.53-.78,4.89-2.08,7.05-1.31,2.16-3.06,3.87-5.26,5.12s-4.57,1.88-7.13,1.88h-8.89c-.25,0-.38-.12-.38-.37v-4.8c0-.25.12-.37.38-.37h8.89c2.45,0,4.55-.88,6.3-2.63s2.63-3.85,2.63-6.3v-8.95h-17.83c-.17,0-.3-.13-.3-.3v-4.92c0-.17.13-.3.3-.3h23c.25,0,.37.12.37.37"/>
      <path class="cls-1" d="M20.61,11.9L0,0v11.59l20.93,12.09v32.64l-10.89-6.29v-12.09L0,32.15v23.68l30.3,17.49V17.44l-9.68-5.54h0ZM26.87,66.6l-22.76-13.14v-10.48l-1.13-.65v-5.21l3.98,2.29v5.21l-1.02-.59v8.36l19.1,11.04V21.31L6.96,10.87v1.55l-3.98-2.3v-5.21l3.98,2.29v1.56l11.6,6.69,8.31,4.76s0,46.39,0,46.39Z"/>
      <path class="cls-1" d="M62.37,23.68V0l-20.61,11.99-9.69,5.46v55.87l30.3-17.49v-23.68l-10.04,5.8v12.09l-10.89,6.29V23.68l10.89-6.29v12.09l10.04-5.8ZM37.34,21.31v42.13l19.1-11.04v-7.9l-1.12.65v-5.22l3.98-2.29v5.21l-1.03.59v10.02l-22.76,13.14V20.23l8.32-4.71,14.44-8.39v10.45l1.03-.59v5.21l-3.98,2.3v-5.21l1.12-.65v-8.37l-19.1,11.03h0Z"/>
      <path class="cls-1" d="M132.36,35.75c-2.01,1.24-3.68,3-5,5.25-1.3-2.25-2.96-4.01-5-5.25,2.04-1.24,3.7-2.99,5-5.25,1.32,2.26,2.99,4.01,5,5.25Z"/>
    </g>
  </g>
</svg>